{
  "header": {
    "PPQ": 480,
    "timeSignature": [
      4,
      4
    ],
    "bpm": 109.00014170018422
  },
  "startTime": 0,
  "duration": 131.00785721250364,
  "tracks": [
    {
      "startTime": 0,
      "duration": 131.00785721250364,
      "length": 787,
      "id": 0,
      "instrumentNumber": 0,
      "instrument": "acoustic grand piano",
      "instrumentFamily": "piano",
      "channelNumber": 0,
      "isPercussion": false,
      "notes": [
        {
          "name": "G#4",
          "midi": 68,
          "time": 0,
          "velocity": 0.6299212598425197,
          "duration": 0.1364677125
        },
        {
          "name": "D#4",
          "midi": 63,
          "time": 0.1376145,
          "velocity": 0.6299212598425197,
          "duration": 0.13646771249999998
        },
        {
          "name": "E4",
          "midi": 64,
          "time": 0.275229,
          "velocity": 0.6299212598425197,
          "duration": 0.1364677125
        },
        {
          "name": "D#4",
          "midi": 63,
          "time": 0.41284350000000003,
          "velocity": 0.6299212598425197,
          "duration": 0.1364677125
        },
        {
          "name": "G#3",
          "midi": 56,
          "time": 0.550458,
          "velocity": 0.6299212598425197,
          "duration": 0.1364677125
        },
        {
          "name": "E4",
          "midi": 64,
          "time": 0.6880725,
          "velocity": 0.6299212598425197,
          "duration": 0.1364677125
        },
        {
          "name": "D#4",
          "midi": 63,
          "time": 0.825687,
          "velocity": 0.6299212598425197,
          "duration": 0.1364677125
        },
        {
          "name": "D4",
          "midi": 62,
          "time": 0.9633014999999999,
          "velocity": 0.6299212598425197,
          "duration": 0.13646771250000012
        },
        {
          "name": "G#4",
          "midi": 68,
          "time": 1.100916,
          "velocity": 0.6299212598425197,
          "duration": 0.1364677125
        },
        {
          "name": "D#4",
          "midi": 63,
          "time": 1.2385305,
          "velocity": 0.6299212598425197,
          "duration": 0.1364677125
        },
        {
          "name": "E4",
          "midi": 64,
          "time": 1.376145,
          "velocity": 0.6299212598425197,
          "duration": 0.1364677125
        },
        {
          "name": "D#4",
          "midi": 63,
          "time": 1.5137595,
          "velocity": 0.6299212598425197,
          "duration": 0.1364677125
        },
        {
          "name": "G#3",
          "midi": 56,
          "time": 1.651374,
          "velocity": 0.6299212598425197,
          "duration": 0.1364677125
        },
        {
          "name": "E4",
          "midi": 64,
          "time": 1.7889884999999999,
          "velocity": 0.6299212598425197,
          "duration": 0.1364677125
        },
        {
          "name": "B4",
          "midi": 71,
          "time": 1.9266029999999998,
          "velocity": 0.6299212598425197,
          "duration": 0.2740822125000004
        },
        {
          "name": "D#4",
          "midi": 63,
          "time": 1.9266029999999998,
          "velocity": 0.6299212598425197,
          "duration": 0.13646771250000023
        },
        {
          "name": "F#4",
          "midi": 66,
          "time": 2.0642175000000003,
          "velocity": 0.6299212598425197,
          "duration": 0.1364677125
        },
        {
          "name": "G#4",
          "midi": 68,
          "time": 2.2018320000000005,
          "velocity": 0.6299212598425197,
          "duration": 0.1364677125
        },
        {
          "name": "D#4",
          "midi": 63,
          "time": 2.3394465000000007,
          "velocity": 0.6299212598425197,
          "duration": 0.1364677125
        },
        {
          "name": "E4",
          "midi": 64,
          "time": 2.477061000000001,
          "velocity": 0.6299212598425197,
          "duration": 0.1364677125
        },
        {
          "name": "D#4",
          "midi": 63,
          "time": 2.614675500000001,
          "velocity": 0.6299212598425197,
          "duration": 0.1364677125
        },
        {
          "name": "G#3",
          "midi": 56,
          "time": 2.7522900000000012,
          "velocity": 0.6299212598425197,
          "duration": 0.1364677125
        },
        {
          "name": "E4",
          "midi": 64,
          "time": 2.8899045000000014,
          "velocity": 0.6299212598425197,
          "duration": 0.1364677125
        },
        {
          "name": "D#4",
          "midi": 63,
          "time": 3.0275190000000016,
          "velocity": 0.6299212598425197,
          "duration": 0.1364677125
        },
        {
          "name": "D4",
          "midi": 62,
          "time": 3.165133500000002,
          "velocity": 0.6299212598425197,
          "duration": 0.1364677125
        },
        {
          "name": "G#4",
          "midi": 68,
          "time": 3.302748000000002,
          "velocity": 0.6299212598425197,
          "duration": 0.1364677125
        },
        {
          "name": "D#4",
          "midi": 63,
          "time": 3.440362500000002,
          "velocity": 0.6299212598425197,
          "duration": 0.1364677125
        },
        {
          "name": "E4",
          "midi": 64,
          "time": 3.5779770000000024,
          "velocity": 0.6299212598425197,
          "duration": 0.1364677125
        },
        {
          "name": "B4",
          "midi": 71,
          "time": 3.7155915000000026,
          "velocity": 0.6299212598425197,
          "duration": 0.2740822125000002
        },
        {
          "name": "B4",
          "midi": 71,
          "time": 4.128435000000003,
          "velocity": 0.6299212598425197,
          "duration": 0.27408221249999976
        },
        {
          "name": "F#4",
          "midi": 66,
          "time": 4.266049500000003,
          "velocity": 0.6299212598425197,
          "duration": 0.1364677125
        },
        {
          "name": "G#4",
          "midi": 68,
          "time": 4.403664000000003,
          "velocity": 0.6299212598425197,
          "duration": 0.1364677125
        },
        {
          "name": "D#4",
          "midi": 63,
          "time": 4.541278500000002,
          "velocity": 0.6299212598425197,
          "duration": 0.1364677125
        },
        {
          "name": "E4",
          "midi": 64,
          "time": 4.678893000000002,
          "velocity": 0.6299212598425197,
          "duration": 0.1364677125
        },
        {
          "name": "D#4",
          "midi": 63,
          "time": 4.816507500000002,
          "velocity": 0.6299212598425197,
          "duration": 0.1364677125
        },
        {
          "name": "G#3",
          "midi": 56,
          "time": 4.954122000000002,
          "velocity": 0.6299212598425197,
          "duration": 0.1364677125
        },
        {
          "name": "E4",
          "midi": 64,
          "time": 5.091736500000001,
          "velocity": 0.6299212598425197,
          "duration": 0.1364677125
        },
        {
          "name": "D#4",
          "midi": 63,
          "time": 5.229351000000001,
          "velocity": 0.6299212598425197,
          "duration": 0.1364677125
        },
        {
          "name": "D4",
          "midi": 62,
          "time": 5.366965500000001,
          "velocity": 0.6299212598425197,
          "duration": 0.1364677125
        },
        {
          "name": "G#4",
          "midi": 68,
          "time": 5.504580000000001,
          "velocity": 0.6299212598425197,
          "duration": 0.1364677125
        },
        {
          "name": "D#4",
          "midi": 63,
          "time": 5.6421945000000004,
          "velocity": 0.6299212598425197,
          "duration": 0.1364677125
        },
        {
          "name": "E4",
          "midi": 64,
          "time": 5.779809,
          "velocity": 0.6299212598425197,
          "duration": 0.1364677125
        },
        {
          "name": "D#4",
          "midi": 63,
          "time": 5.9174235,
          "velocity": 0.6299212598425197,
          "duration": 0.1364677125
        },
        {
          "name": "B4",
          "midi": 71,
          "time": 6.055038,
          "velocity": 0.6299212598425197,
          "duration": 0.06766046250000013
        },
        {
          "name": "B4",
          "midi": 71,
          "time": 6.12384525,
          "velocity": 0.6299212598425197,
          "duration": 0.06766046250000013
        },
        {
          "name": "B4",
          "midi": 71,
          "time": 6.1926524999999994,
          "velocity": 0.6299212598425197,
          "duration": 0.06766046250000013
        },
        {
          "name": "B4",
          "midi": 71,
          "time": 6.261459749999999,
          "velocity": 0.6299212598425197,
          "duration": 0.06766046250000013
        },
        {
          "name": "B4",
          "midi": 71,
          "time": 6.330266999999999,
          "velocity": 0.6299212598425197,
          "duration": 0.06766046250000013
        },
        {
          "name": "B4",
          "midi": 71,
          "time": 6.399074249999999,
          "velocity": 0.6299212598425197,
          "duration": 0.06766046250000013
        },
        {
          "name": "G#4",
          "midi": 68,
          "time": 6.467881499999999,
          "velocity": 0.6299212598425197,
          "duration": 0.1364677125
        },
        {
          "name": "D#4",
          "midi": 63,
          "time": 6.811917749999999,
          "velocity": 0.6299212598425197,
          "duration": 0.38417381250000027
        },
        {
          "name": "G#4",
          "midi": 68,
          "time": 6.880724999999999,
          "velocity": 0.6299212598425197,
          "duration": 0.38417381250000027
        },
        {
          "name": "F#4",
          "midi": 66,
          "time": 7.197238349999999,
          "velocity": 0.6299212598425197,
          "duration": 0.38417381250000027
        },
        {
          "name": "B4",
          "midi": 71,
          "time": 7.266045599999999,
          "velocity": 0.6299212598425197,
          "duration": 0.38417381250000027
        },
        {
          "name": "D#4",
          "midi": 63,
          "time": 7.582558949999999,
          "velocity": 0.6299212598425197,
          "duration": 0.38417381250000027
        },
        {
          "name": "G#4",
          "midi": 68,
          "time": 7.651366199999999,
          "velocity": 0.6299212598425197,
          "duration": 0.3841738124999994
        },
        {
          "name": "C#4",
          "midi": 61,
          "time": 7.967879549999999,
          "velocity": 0.6299212598425197,
          "duration": 0.3841738124999985
        },
        {
          "name": "E4",
          "midi": 64,
          "time": 8.036686799999998,
          "velocity": 0.6299212598425197,
          "duration": 0.3841738124999985
        },
        {
          "name": "B3",
          "midi": 59,
          "time": 8.353200149999997,
          "velocity": 0.6299212598425197,
          "duration": 0.3841738124999985
        },
        {
          "name": "D#4",
          "midi": 63,
          "time": 8.422007399999996,
          "velocity": 0.6299212598425197,
          "duration": 0.38417381250000027
        },
        {
          "name": "A#4",
          "midi": 70,
          "time": 8.807327999999996,
          "velocity": 0.6299212598425197,
          "duration": 0.1364677125
        },
        {
          "name": "A4",
          "midi": 69,
          "time": 8.944942499999996,
          "velocity": 0.6299212598425197,
          "duration": 0.1364677125
        },
        {
          "name": "D#4",
          "midi": 63,
          "time": 9.082556999999996,
          "velocity": 0.6299212598425197,
          "duration": 0.1364677125
        },
        {
          "name": "A#4",
          "midi": 70,
          "time": 9.220171499999996,
          "velocity": 0.6299212598425197,
          "duration": 0.549311212500001
        },
        {
          "name": "D#5",
          "midi": 75,
          "time": 9.288978749999997,
          "velocity": 0.6299212598425197,
          "duration": 0.5493112124999993
        },
        {
          "name": "A#5",
          "midi": 82,
          "time": 9.357785999999997,
          "velocity": 0.6299212598425197,
          "duration": 0.5493112124999993
        },
        {
          "name": "D#4",
          "midi": 63,
          "time": 9.770629499999997,
          "velocity": 0.6299212598425197,
          "duration": 0.1364677125
        },
        {
          "name": "G#4",
          "midi": 68,
          "time": 9.908243999999996,
          "velocity": 0.6299212598425197,
          "duration": 0.1364677125
        },
        {
          "name": "G4",
          "midi": 67,
          "time": 10.045858499999996,
          "velocity": 0.6299212598425197,
          "duration": 0.1364677125
        },
        {
          "name": "G#4",
          "midi": 68,
          "time": 10.183472999999996,
          "velocity": 0.6299212598425197,
          "duration": 0.1364677125
        },
        {
          "name": "D#4",
          "midi": 63,
          "time": 10.321087499999996,
          "velocity": 0.6299212598425197,
          "duration": 0.1364677125
        },
        {
          "name": "G4",
          "midi": 67,
          "time": 10.458701999999995,
          "velocity": 0.6299212598425197,
          "duration": 0.1364677125
        },
        {
          "name": "C4",
          "midi": 60,
          "time": 10.596316499999995,
          "velocity": 0.6299212598425197,
          "duration": 0.1364677125
        },
        {
          "name": "D#4",
          "midi": 63,
          "time": 10.733930999999995,
          "velocity": 0.6299212598425197,
          "duration": 0.1364677125
        },
        {
          "name": "F#4",
          "midi": 66,
          "time": 10.871545499999995,
          "velocity": 0.6299212598425197,
          "duration": 0.1364677125
        },
        {
          "name": "A#4",
          "midi": 70,
          "time": 11.009159999999994,
          "velocity": 0.6299212598425197,
          "duration": 0.1364677125
        },
        {
          "name": "A4",
          "midi": 69,
          "time": 11.146774499999994,
          "velocity": 0.6299212598425197,
          "duration": 0.1364677125
        },
        {
          "name": "D#4",
          "midi": 63,
          "time": 11.284388999999994,
          "velocity": 0.6299212598425197,
          "duration": 0.1364677125
        },
        {
          "name": "A#4",
          "midi": 70,
          "time": 11.422003499999994,
          "velocity": 0.6299212598425197,
          "duration": 0.549311212500001
        },
        {
          "name": "D#5",
          "midi": 75,
          "time": 11.490810749999994,
          "velocity": 0.6299212598425197,
          "duration": 0.5493112124999993
        },
        {
          "name": "A#5",
          "midi": 82,
          "time": 11.559617999999995,
          "velocity": 0.6299212598425197,
          "duration": 0.5493112124999993
        },
        {
          "name": "D#4",
          "midi": 63,
          "time": 11.972461499999994,
          "velocity": 0.6299212598425197,
          "duration": 0.1364677125
        },
        {
          "name": "G#4",
          "midi": 68,
          "time": 12.110075999999994,
          "velocity": 0.6299212598425197,
          "duration": 0.1364677125
        },
        {
          "name": "G4",
          "midi": 67,
          "time": 12.247690499999994,
          "velocity": 0.6299212598425197,
          "duration": 0.1364677125
        },
        {
          "name": "G#4",
          "midi": 68,
          "time": 12.385304999999994,
          "velocity": 0.6299212598425197,
          "duration": 0.1364677125
        },
        {
          "name": "D#4",
          "midi": 63,
          "time": 12.522919499999993,
          "velocity": 0.6299212598425197,
          "duration": 0.1364677125
        },
        {
          "name": "G4",
          "midi": 67,
          "time": 12.660533999999993,
          "velocity": 0.6299212598425197,
          "duration": 0.1364677125
        },
        {
          "name": "C4",
          "midi": 60,
          "time": 12.798148499999993,
          "velocity": 0.6299212598425197,
          "duration": 0.1364677125
        },
        {
          "name": "D#4",
          "midi": 63,
          "time": 12.935762999999993,
          "velocity": 0.6299212598425197,
          "duration": 0.1364677125
        },
        {
          "name": "F#4",
          "midi": 66,
          "time": 13.073377499999992,
          "velocity": 0.6299212598425197,
          "duration": 0.1364677125
        },
        {
          "name": "A#4",
          "midi": 70,
          "time": 13.210991999999992,
          "velocity": 0.6299212598425197,
          "duration": 0.1364677125
        },
        {
          "name": "A4",
          "midi": 69,
          "time": 13.348606499999992,
          "velocity": 0.6299212598425197,
          "duration": 0.1364677125
        },
        {
          "name": "D#4",
          "midi": 63,
          "time": 13.486220999999992,
          "velocity": 0.6299212598425197,
          "duration": 0.1364677125
        },
        {
          "name": "A#4",
          "midi": 70,
          "time": 13.623835499999991,
          "velocity": 0.6299212598425197,
          "duration": 0.549311212500001
        },
        {
          "name": "D#5",
          "midi": 75,
          "time": 13.692642749999992,
          "velocity": 0.6299212598425197,
          "duration": 0.5493112124999993
        },
        {
          "name": "A#5",
          "midi": 82,
          "time": 13.761449999999993,
          "velocity": 0.6299212598425197,
          "duration": 0.5493112124999993
        },
        {
          "name": "D#4",
          "midi": 63,
          "time": 14.174293499999992,
          "velocity": 0.6299212598425197,
          "duration": 0.1364677125
        },
        {
          "name": "G#4",
          "midi": 68,
          "time": 14.311907999999992,
          "velocity": 0.6299212598425197,
          "duration": 0.1364677125
        },
        {
          "name": "G4",
          "midi": 67,
          "time": 14.449522499999992,
          "velocity": 0.6299212598425197,
          "duration": 0.1364677125
        },
        {
          "name": "G#4",
          "midi": 68,
          "time": 14.587136999999991,
          "velocity": 0.6299212598425197,
          "duration": 0.1364677125
        },
        {
          "name": "D#4",
          "midi": 63,
          "time": 14.724751499999991,
          "velocity": 0.6299212598425197,
          "duration": 0.1364677125
        },
        {
          "name": "G4",
          "midi": 67,
          "time": 14.86236599999999,
          "velocity": 0.6299212598425197,
          "duration": 0.1364677125
        },
        {
          "name": "C4",
          "midi": 60,
          "time": 14.99998049999999,
          "velocity": 0.6299212598425197,
          "duration": 0.1364677125
        },
        {
          "name": "D#4",
          "midi": 63,
          "time": 15.13759499999999,
          "velocity": 0.6299212598425197,
          "duration": 0.1364677125
        },
        {
          "name": "F#4",
          "midi": 66,
          "time": 15.27520949999999,
          "velocity": 0.6299212598425197,
          "duration": 0.1364677125
        },
        {
          "name": "A#4",
          "midi": 70,
          "time": 15.41282399999999,
          "velocity": 0.6299212598425197,
          "duration": 0.1364677125
        },
        {
          "name": "A4",
          "midi": 69,
          "time": 15.55043849999999,
          "velocity": 0.6299212598425197,
          "duration": 0.1364677125
        },
        {
          "name": "D#4",
          "midi": 63,
          "time": 15.68805299999999,
          "velocity": 0.6299212598425197,
          "duration": 0.1364677125
        },
        {
          "name": "A#4",
          "midi": 70,
          "time": 15.82566749999999,
          "velocity": 0.6299212598425197,
          "duration": 0.5493112125000028
        },
        {
          "name": "D#5",
          "midi": 75,
          "time": 15.89447474999999,
          "velocity": 0.6299212598425197,
          "duration": 0.5493112125000046
        },
        {
          "name": "A#5",
          "midi": 82,
          "time": 15.96328199999999,
          "velocity": 0.6299212598425197,
          "duration": 0.5493112125000028
        },
        {
          "name": "D#4",
          "midi": 63,
          "time": 16.376125499999993,
          "velocity": 0.6299212598425197,
          "duration": 0.1364677125
        },
        {
          "name": "G#4",
          "midi": 68,
          "time": 16.513739999999995,
          "velocity": 0.6299212598425197,
          "duration": 0.1364677125
        },
        {
          "name": "A#4",
          "midi": 70,
          "time": 16.651354499999997,
          "velocity": 0.6299212598425197,
          "duration": 0.1364677125
        },
        {
          "name": "A#4",
          "midi": 70,
          "time": 16.788968999999998,
          "velocity": 0.6299212598425197,
          "duration": 0.1364677125
        },
        {
          "name": "A#4",
          "midi": 70,
          "time": 16.9265835,
          "velocity": 0.6299212598425197,
          "duration": 0.1364677125
        },
        {
          "name": "A#4",
          "midi": 70,
          "time": 17.064198,
          "velocity": 0.6299212598425197,
          "duration": 0.1364677125
        },
        {
          "name": "A#4",
          "midi": 70,
          "time": 17.201812500000003,
          "velocity": 0.6299212598425197,
          "duration": 0.1364677125
        },
        {
          "name": "A#4",
          "midi": 70,
          "time": 17.339427000000004,
          "velocity": 0.6299212598425197,
          "duration": 0.1364677125
        },
        {
          "name": "A#4",
          "midi": 70,
          "time": 17.477041500000006,
          "velocity": 0.6299212598425197,
          "duration": 0.1364677125
        },
        {
          "name": "A#4",
          "midi": 70,
          "time": 17.614656000000007,
          "velocity": 0.6299212598425197,
          "duration": 0.27408221250000153
        },
        {
          "name": "A#4",
          "midi": 70,
          "time": 17.88988500000001,
          "velocity": 0.6299212598425197,
          "duration": 0.1364677125
        },
        {
          "name": "A4",
          "midi": 69,
          "time": 18.027499500000012,
          "velocity": 0.6299212598425197,
          "duration": 0.27408221250000153
        },
        {
          "name": "A#4",
          "midi": 70,
          "time": 18.302728500000015,
          "velocity": 0.6299212598425197,
          "duration": 0.1364677125
        },
        {
          "name": "A#4",
          "midi": 70,
          "time": 18.440343000000016,
          "velocity": 0.6299212598425197,
          "duration": 0.27408221250000153
        },
        {
          "name": "A#4",
          "midi": 70,
          "time": 18.71557200000002,
          "velocity": 0.6299212598425197,
          "duration": 0.27408221250000153
        },
        {
          "name": "A#4",
          "midi": 70,
          "time": 18.990801000000022,
          "velocity": 0.6299212598425197,
          "duration": 0.1364677125
        },
        {
          "name": "A4",
          "midi": 69,
          "time": 19.128415500000024,
          "velocity": 0.6299212598425197,
          "duration": 0.27408221250000153
        },
        {
          "name": "A#4",
          "midi": 70,
          "time": 19.403644500000027,
          "velocity": 0.6299212598425197,
          "duration": 0.1364677125
        },
        {
          "name": "A#4",
          "midi": 70,
          "time": 19.54125900000003,
          "velocity": 0.6299212598425197,
          "duration": 0.27408221250000153
        },
        {
          "name": "A#4",
          "midi": 70,
          "time": 19.81648800000003,
          "velocity": 0.6299212598425197,
          "duration": 0.27408221250000153
        },
        {
          "name": "A#4",
          "midi": 70,
          "time": 20.091717000000035,
          "velocity": 0.6299212598425197,
          "duration": 0.1364677125
        },
        {
          "name": "A4",
          "midi": 69,
          "time": 20.229331500000036,
          "velocity": 0.6299212598425197,
          "duration": 0.27408221250000153
        },
        {
          "name": "A#4",
          "midi": 70,
          "time": 20.50456050000004,
          "velocity": 0.6299212598425197,
          "duration": 0.1364677125
        },
        {
          "name": "A#4",
          "midi": 70,
          "time": 20.64217500000004,
          "velocity": 0.6299212598425197,
          "duration": 0.27408221250000153
        },
        {
          "name": "A#4",
          "midi": 70,
          "time": 20.917404000000044,
          "velocity": 0.6299212598425197,
          "duration": 0.27408221250000153
        },
        {
          "name": "A#4",
          "midi": 70,
          "time": 21.192633000000047,
          "velocity": 0.6299212598425197,
          "duration": 0.1364677125
        },
        {
          "name": "A4",
          "midi": 69,
          "time": 21.33024750000005,
          "velocity": 0.6299212598425197,
          "duration": 0.27408221250000153
        },
        {
          "name": "A#4",
          "midi": 70,
          "time": 21.60547650000005,
          "velocity": 0.6299212598425197,
          "duration": 0.1364677125
        },
        {
          "name": "A#4",
          "midi": 70,
          "time": 21.743091000000053,
          "velocity": 0.6299212598425197,
          "duration": 0.27408221250000153
        },
        {
          "name": "F#4",
          "midi": 66,
          "time": 22.018320000000056,
          "velocity": 0.6299212598425197,
          "duration": 0.1364677125
        },
        {
          "name": "D#4",
          "midi": 63,
          "time": 22.155934500000058,
          "velocity": 0.6299212598425197,
          "duration": 0.1364677125
        },
        {
          "name": "F#4",
          "midi": 66,
          "time": 22.29354900000006,
          "velocity": 0.6299212598425197,
          "duration": 0.1364677125
        },
        {
          "name": "D#4",
          "midi": 63,
          "time": 22.43116350000006,
          "velocity": 0.6299212598425197,
          "duration": 0.1364677125
        },
        {
          "name": "F#4",
          "midi": 66,
          "time": 22.568778000000062,
          "velocity": 0.6299212598425197,
          "duration": 0.1364677125
        },
        {
          "name": "D#4",
          "midi": 63,
          "time": 22.706392500000064,
          "velocity": 0.6299212598425197,
          "duration": 0.1364677125
        },
        {
          "name": "F#4",
          "midi": 66,
          "time": 22.844007000000065,
          "velocity": 0.6299212598425197,
          "duration": 0.1364677125
        },
        {
          "name": "D#4",
          "midi": 63,
          "time": 22.981621500000067,
          "velocity": 0.6299212598425197,
          "duration": 0.1364677125
        },
        {
          "name": "A#4",
          "midi": 70,
          "time": 23.11923600000007,
          "velocity": 0.6299212598425197,
          "duration": 0.27408221250000153
        },
        {
          "name": "A#4",
          "midi": 70,
          "time": 23.39446500000007,
          "velocity": 0.6299212598425197,
          "duration": 0.27408221250000153
        },
        {
          "name": "A#4",
          "midi": 70,
          "time": 23.669694000000074,
          "velocity": 0.6299212598425197,
          "duration": 0.27408221250000153
        },
        {
          "name": "A#4",
          "midi": 70,
          "time": 23.944923000000077,
          "velocity": 0.6299212598425197,
          "duration": 0.27408221250000153
        },
        {
          "name": "F#4",
          "midi": 66,
          "time": 24.22015200000008,
          "velocity": 0.6299212598425197,
          "duration": 0.1364677125
        },
        {
          "name": "D#4",
          "midi": 63,
          "time": 24.357766500000082,
          "velocity": 0.6299212598425197,
          "duration": 0.1364677125
        },
        {
          "name": "G#4",
          "midi": 68,
          "time": 24.495381000000084,
          "velocity": 0.6299212598425197,
          "duration": 0.1364677125
        },
        {
          "name": "D4",
          "midi": 62,
          "time": 24.632995500000085,
          "velocity": 0.6299212598425197,
          "duration": 0.1364677125
        },
        {
          "name": "D#4",
          "midi": 63,
          "time": 24.770610000000087,
          "velocity": 0.6299212598425197,
          "duration": 0.1364677125
        },
        {
          "name": "C4",
          "midi": 60,
          "time": 24.908224500000088,
          "velocity": 0.6299212598425197,
          "duration": 0.1364677125
        },
        {
          "name": "A#3",
          "midi": 58,
          "time": 25.04583900000009,
          "velocity": 0.6299212598425197,
          "duration": 0.1364677125
        },
        {
          "name": "C#4",
          "midi": 61,
          "time": 25.18345350000009,
          "velocity": 0.6299212598425197,
          "duration": 0.1364677125
        },
        {
          "name": "A#4",
          "midi": 70,
          "time": 25.321068000000093,
          "velocity": 0.6299212598425197,
          "duration": 0.1364677125
        },
        {
          "name": "A4",
          "midi": 69,
          "time": 25.458682500000094,
          "velocity": 0.6299212598425197,
          "duration": 0.1364677125
        },
        {
          "name": "A#4",
          "midi": 70,
          "time": 25.596297000000096,
          "velocity": 0.6299212598425197,
          "duration": 0.1364677125
        },
        {
          "name": "A4",
          "midi": 69,
          "time": 25.733911500000097,
          "velocity": 0.6299212598425197,
          "duration": 0.1364677125
        },
        {
          "name": "A#4",
          "midi": 70,
          "time": 25.8715260000001,
          "velocity": 0.6299212598425197,
          "duration": 0.1364677125
        },
        {
          "name": "A4",
          "midi": 69,
          "time": 26.0091405000001,
          "velocity": 0.6299212598425197,
          "duration": 0.1364677125
        },
        {
          "name": "A#4",
          "midi": 70,
          "time": 26.146755000000102,
          "velocity": 0.6299212598425197,
          "duration": 0.1364677125
        },
        {
          "name": "A4",
          "midi": 69,
          "time": 26.284369500000103,
          "velocity": 0.6299212598425197,
          "duration": 0.1364677125
        },
        {
          "name": "G#4",
          "midi": 68,
          "time": 26.421984000000105,
          "velocity": 0.6299212598425197,
          "duration": 0.1364677125
        },
        {
          "name": "D#4",
          "midi": 63,
          "time": 26.559598500000106,
          "velocity": 0.6299212598425197,
          "duration": 0.27408221250000153
        },
        {
          "name": "D#4",
          "midi": 63,
          "time": 26.83482750000011,
          "velocity": 0.6299212598425197,
          "duration": 0.27408221250000153
        },
        {
          "name": "D#4",
          "midi": 63,
          "time": 27.110056500000113,
          "velocity": 0.6299212598425197,
          "duration": 0.1364677125
        },
        {
          "name": "D4",
          "midi": 62,
          "time": 27.247671000000114,
          "velocity": 0.6299212598425197,
          "duration": 0.1364677125
        },
        {
          "name": "D4",
          "midi": 62,
          "time": 27.385285500000116,
          "velocity": 0.6299212598425197,
          "duration": 0.1364677125
        },
        {
          "name": "G#4",
          "midi": 68,
          "time": 27.522900000000117,
          "velocity": 0.6299212598425197,
          "duration": 0.1364677125
        },
        {
          "name": "D#4",
          "midi": 63,
          "time": 27.66051450000012,
          "velocity": 0.6299212598425197,
          "duration": 0.27408221250000153
        },
        {
          "name": "D#4",
          "midi": 63,
          "time": 27.93574350000012,
          "velocity": 0.6299212598425197,
          "duration": 0.27408221250000153
        },
        {
          "name": "D#4",
          "midi": 63,
          "time": 28.210972500000125,
          "velocity": 0.6299212598425197,
          "duration": 0.1364677125
        },
        {
          "name": "D4",
          "midi": 62,
          "time": 28.348587000000126,
          "velocity": 0.6299212598425197,
          "duration": 0.1364677125
        },
        {
          "name": "D4",
          "midi": 62,
          "time": 28.486201500000128,
          "velocity": 0.6299212598425197,
          "duration": 0.1364677125
        },
        {
          "name": "G#4",
          "midi": 68,
          "time": 28.62381600000013,
          "velocity": 0.6299212598425197,
          "duration": 0.1364677125
        },
        {
          "name": "D#4",
          "midi": 63,
          "time": 28.76143050000013,
          "velocity": 0.6299212598425197,
          "duration": 0.27408221250000153
        },
        {
          "name": "D#4",
          "midi": 63,
          "time": 29.036659500000134,
          "velocity": 0.6299212598425197,
          "duration": 0.27408221250000153
        },
        {
          "name": "D#4",
          "midi": 63,
          "time": 29.311888500000137,
          "velocity": 0.6299212598425197,
          "duration": 0.1364677125
        },
        {
          "name": "D4",
          "midi": 62,
          "time": 29.44950300000014,
          "velocity": 0.6299212598425197,
          "duration": 0.1364677125
        },
        {
          "name": "D4",
          "midi": 62,
          "time": 29.58711750000014,
          "velocity": 0.6299212598425197,
          "duration": 0.1364677125
        },
        {
          "name": "G#4",
          "midi": 68,
          "time": 29.72473200000014,
          "velocity": 0.6299212598425197,
          "duration": 0.1364677125
        },
        {
          "name": "D#4",
          "midi": 63,
          "time": 29.862346500000143,
          "velocity": 0.6299212598425197,
          "duration": 0.27408221250000153
        },
        {
          "name": "D#4",
          "midi": 63,
          "time": 30.137575500000146,
          "velocity": 0.6299212598425197,
          "duration": 0.27408221250000153
        },
        {
          "name": "D#4",
          "midi": 63,
          "time": 30.41280450000015,
          "velocity": 0.6299212598425197,
          "duration": 0.1364677125
        },
        {
          "name": "D4",
          "midi": 62,
          "time": 30.55041900000015,
          "velocity": 0.6299212598425197,
          "duration": 0.1364677125
        },
        {
          "name": "D4",
          "midi": 62,
          "time": 30.688033500000152,
          "velocity": 0.6299212598425197,
          "duration": 0.1364677125
        },
        {
          "name": "G#4",
          "midi": 68,
          "time": 30.825648000000154,
          "velocity": 0.6299212598425197,
          "duration": 0.1364677125
        },
        {
          "name": "D#4",
          "midi": 63,
          "time": 30.963262500000155,
          "velocity": 0.6299212598425197,
          "duration": 0.27408221250000153
        },
        {
          "name": "D#4",
          "midi": 63,
          "time": 31.23849150000016,
          "velocity": 0.6299212598425197,
          "duration": 0.27408221250000153
        },
        {
          "name": "D#4",
          "midi": 63,
          "time": 31.51372050000016,
          "velocity": 0.6299212598425197,
          "duration": 0.1364677125
        },
        {
          "name": "D4",
          "midi": 62,
          "time": 31.651335000000163,
          "velocity": 0.6299212598425197,
          "duration": 0.1364677125
        },
        {
          "name": "D4",
          "midi": 62,
          "time": 31.788949500000165,
          "velocity": 0.6299212598425197,
          "duration": 0.1364677125
        },
        {
          "name": "G#4",
          "midi": 68,
          "time": 31.926564000000166,
          "velocity": 0.6299212598425197,
          "duration": 0.13646771249999645
        },
        {
          "name": "D#4",
          "midi": 63,
          "time": 32.06417850000016,
          "velocity": 0.6299212598425197,
          "duration": 0.274082212499998
        },
        {
          "name": "D#4",
          "midi": 63,
          "time": 32.339407500000156,
          "velocity": 0.6299212598425197,
          "duration": 0.274082212499998
        },
        {
          "name": "D#4",
          "midi": 63,
          "time": 32.61463650000015,
          "velocity": 0.6299212598425197,
          "duration": 0.1364677125
        },
        {
          "name": "D4",
          "midi": 62,
          "time": 32.75225100000015,
          "velocity": 0.6299212598425197,
          "duration": 0.1364677125
        },
        {
          "name": "D4",
          "midi": 62,
          "time": 32.88986550000015,
          "velocity": 0.6299212598425197,
          "duration": 0.1364677125
        },
        {
          "name": "D#4",
          "midi": 63,
          "time": 33.23390175000015,
          "velocity": 0.6299212598425197,
          "duration": 0.38417381250000204
        },
        {
          "name": "G#4",
          "midi": 68,
          "time": 33.30270900000015,
          "velocity": 0.6299212598425197,
          "duration": 0.38417381250000204
        },
        {
          "name": "F#4",
          "midi": 66,
          "time": 33.61922235000015,
          "velocity": 0.6299212598425197,
          "duration": 0.38417381250000204
        },
        {
          "name": "B4",
          "midi": 71,
          "time": 33.68802960000015,
          "velocity": 0.6299212598425197,
          "duration": 0.38417381250000204
        },
        {
          "name": "D#4",
          "midi": 63,
          "time": 34.00454295000015,
          "velocity": 0.6299212598425197,
          "duration": 0.38417381250000204
        },
        {
          "name": "G#4",
          "midi": 68,
          "time": 34.07335020000015,
          "velocity": 0.6299212598425197,
          "duration": 0.38417381250000204
        },
        {
          "name": "C#4",
          "midi": 61,
          "time": 34.38986355000015,
          "velocity": 0.6299212598425197,
          "duration": 0.38417381250000204
        },
        {
          "name": "E4",
          "midi": 64,
          "time": 34.45867080000015,
          "velocity": 0.6299212598425197,
          "duration": 0.38417381250000204
        },
        {
          "name": "B3",
          "midi": 59,
          "time": 34.77518415000015,
          "velocity": 0.6299212598425197,
          "duration": 0.38417381250000204
        },
        {
          "name": "D#4",
          "midi": 63,
          "time": 34.84399140000015,
          "velocity": 0.6299212598425197,
          "duration": 0.38417381250000204
        },
        {
          "name": "G#5",
          "midi": 80,
          "time": 35.22931200000015,
          "velocity": 0.6299212598425197,
          "duration": 1.0997692124999858
        },
        {
          "name": "D#5",
          "midi": 75,
          "time": 35.22931200000015,
          "velocity": 0.6299212598425197,
          "duration": 1.0997692124999858
        },
        {
          "name": "G#4",
          "midi": 68,
          "time": 35.22931200000015,
          "velocity": 0.6299212598425197,
          "duration": 0.1364677125
        },
        {
          "name": "D#4",
          "midi": 63,
          "time": 35.36692650000015,
          "velocity": 0.6299212598425197,
          "duration": 0.274082212499998
        },
        {
          "name": "D#4",
          "midi": 63,
          "time": 35.64215550000014,
          "velocity": 0.6299212598425197,
          "duration": 0.274082212499998
        },
        {
          "name": "D#4",
          "midi": 63,
          "time": 35.91738450000014,
          "velocity": 0.6299212598425197,
          "duration": 0.1364677125
        },
        {
          "name": "D4",
          "midi": 62,
          "time": 36.05499900000014,
          "velocity": 0.6299212598425197,
          "duration": 0.1364677125
        },
        {
          "name": "D4",
          "midi": 62,
          "time": 36.192613500000135,
          "velocity": 0.6299212598425197,
          "duration": 0.1364677125
        },
        {
          "name": "G#4",
          "midi": 68,
          "time": 36.33022800000013,
          "velocity": 0.6299212598425197,
          "duration": 0.1364677125
        },
        {
          "name": "D#4",
          "midi": 63,
          "time": 36.46784250000013,
          "velocity": 0.6299212598425197,
          "duration": 0.274082212499998
        },
        {
          "name": "D#4",
          "midi": 63,
          "time": 36.74307150000013,
          "velocity": 0.6299212598425197,
          "duration": 0.274082212499998
        },
        {
          "name": "D#4",
          "midi": 63,
          "time": 37.01830050000012,
          "velocity": 0.6299212598425197,
          "duration": 0.1364677125
        },
        {
          "name": "D4",
          "midi": 62,
          "time": 37.15591500000012,
          "velocity": 0.6299212598425197,
          "duration": 0.1364677125
        },
        {
          "name": "D4",
          "midi": 62,
          "time": 37.29352950000012,
          "velocity": 0.6299212598425197,
          "duration": 0.1364677125
        },
        {
          "name": "G#4",
          "midi": 68,
          "time": 37.43114400000012,
          "velocity": 0.6299212598425197,
          "duration": 0.1364677125
        },
        {
          "name": "D#4",
          "midi": 63,
          "time": 37.568758500000115,
          "velocity": 0.6299212598425197,
          "duration": 0.274082212499998
        },
        {
          "name": "D#4",
          "midi": 63,
          "time": 37.84398750000011,
          "velocity": 0.6299212598425197,
          "duration": 0.274082212499998
        },
        {
          "name": "D#4",
          "midi": 63,
          "time": 38.11921650000011,
          "velocity": 0.6299212598425197,
          "duration": 0.1364677125
        },
        {
          "name": "D4",
          "midi": 62,
          "time": 38.256831000000105,
          "velocity": 0.6299212598425197,
          "duration": 0.1364677125
        },
        {
          "name": "D4",
          "midi": 62,
          "time": 38.3944455000001,
          "velocity": 0.6299212598425197,
          "duration": 0.1364677125
        },
        {
          "name": "G#4",
          "midi": 68,
          "time": 38.5320600000001,
          "velocity": 0.6299212598425197,
          "duration": 0.1364677125
        },
        {
          "name": "D#4",
          "midi": 63,
          "time": 38.6696745000001,
          "velocity": 0.6299212598425197,
          "duration": 0.274082212499998
        },
        {
          "name": "D#4",
          "midi": 63,
          "time": 38.944903500000095,
          "velocity": 0.6299212598425197,
          "duration": 0.274082212499998
        },
        {
          "name": "D#4",
          "midi": 63,
          "time": 39.22013250000009,
          "velocity": 0.6299212598425197,
          "duration": 0.1364677125
        },
        {
          "name": "D4",
          "midi": 62,
          "time": 39.35774700000009,
          "velocity": 0.6299212598425197,
          "duration": 0.1364677125
        },
        {
          "name": "D4",
          "midi": 62,
          "time": 39.49536150000009,
          "velocity": 0.6299212598425197,
          "duration": 0.1364677125
        },
        {
          "name": "G#4",
          "midi": 68,
          "time": 39.632976000000085,
          "velocity": 0.6299212598425197,
          "duration": 0.1364677125
        },
        {
          "name": "D#4",
          "midi": 63,
          "time": 39.77059050000008,
          "velocity": 0.6299212598425197,
          "duration": 0.274082212499998
        },
        {
          "name": "D#4",
          "midi": 63,
          "time": 40.04581950000008,
          "velocity": 0.6299212598425197,
          "duration": 0.1364677125
        },
        {
          "name": "B4",
          "midi": 71,
          "time": 40.18343400000008,
          "velocity": 0.6299212598425197,
          "duration": 0.274082212499998
        },
        {
          "name": "B4",
          "midi": 71,
          "time": 40.45866300000007,
          "velocity": 0.6299212598425197,
          "duration": 0.06766046250000102
        },
        {
          "name": "B4",
          "midi": 71,
          "time": 40.52747025000007,
          "velocity": 0.6299212598425197,
          "duration": 0.06766046250000102
        },
        {
          "name": "B4",
          "midi": 71,
          "time": 40.59627750000007,
          "velocity": 0.6299212598425197,
          "duration": 0.1364677125
        },
        {
          "name": "B4",
          "midi": 71,
          "time": 40.73389200000007,
          "velocity": 0.6299212598425197,
          "duration": 0.06766046250000102
        },
        {
          "name": "B4",
          "midi": 71,
          "time": 40.80269925000007,
          "velocity": 0.6299212598425197,
          "duration": 0.06766046250000102
        },
        {
          "name": "G#4",
          "midi": 68,
          "time": 40.871506500000066,
          "velocity": 0.6299212598425197,
          "duration": 0.1364677125
        },
        {
          "name": "D#4",
          "midi": 63,
          "time": 41.009121000000064,
          "velocity": 0.6299212598425197,
          "duration": 0.1364677125
        },
        {
          "name": "B4",
          "midi": 71,
          "time": 41.14673550000006,
          "velocity": 0.6299212598425197,
          "duration": 0.06766046250000102
        },
        {
          "name": "A#4",
          "midi": 70,
          "time": 41.21554275000006,
          "velocity": 0.6299212598425197,
          "duration": 0.06766046250000102
        },
        {
          "name": "B4",
          "midi": 71,
          "time": 41.28435000000006,
          "velocity": 0.6299212598425197,
          "duration": 0.205274962499999
        },
        {
          "name": "B4",
          "midi": 71,
          "time": 41.49077175000006,
          "velocity": 0.6299212598425197,
          "duration": 0.205274962499999
        },
        {
          "name": "F#4",
          "midi": 66,
          "time": 41.697193500000054,
          "velocity": 0.6299212598425197,
          "duration": 0.1364677125
        },
        {
          "name": "D#4",
          "midi": 63,
          "time": 42.041229750000056,
          "velocity": 0.6299212598425197,
          "duration": 0.38417381250000204
        },
        {
          "name": "G#4",
          "midi": 68,
          "time": 42.110037000000055,
          "velocity": 0.6299212598425197,
          "duration": 0.38417381250000204
        },
        {
          "name": "F#4",
          "midi": 66,
          "time": 42.426550350000056,
          "velocity": 0.6299212598425197,
          "duration": 0.38417381250000204
        },
        {
          "name": "B4",
          "midi": 71,
          "time": 42.495357600000055,
          "velocity": 0.6299212598425197,
          "duration": 0.38417381250000204
        },
        {
          "name": "D#4",
          "midi": 63,
          "time": 42.811870950000056,
          "velocity": 0.6299212598425197,
          "duration": 0.38417381250000204
        },
        {
          "name": "G#4",
          "midi": 68,
          "time": 42.880678200000055,
          "velocity": 0.6299212598425197,
          "duration": 0.38417381250000204
        },
        {
          "name": "C#4",
          "midi": 61,
          "time": 43.197191550000056,
          "velocity": 0.6299212598425197,
          "duration": 0.38417381250000204
        },
        {
          "name": "E4",
          "midi": 64,
          "time": 43.265998800000055,
          "velocity": 0.6299212598425197,
          "duration": 0.38417381250000204
        },
        {
          "name": "B3",
          "midi": 59,
          "time": 43.582512150000056,
          "velocity": 0.6299212598425197,
          "duration": 0.38417381250000204
        },
        {
          "name": "D#4",
          "midi": 63,
          "time": 43.651319400000055,
          "velocity": 0.6299212598425197,
          "duration": 0.38417381250000204
        },
        {
          "name": "G#5",
          "midi": 80,
          "time": 44.036640000000055,
          "velocity": 0.6299212598425197,
          "duration": 1.099769212499993
        },
        {
          "name": "D#5",
          "midi": 75,
          "time": 44.036640000000055,
          "velocity": 0.6299212598425197,
          "duration": 1.030961962499994
        },
        {
          "name": "A#4",
          "midi": 70,
          "time": 44.036640000000055,
          "velocity": 0.6299212598425197,
          "duration": 0.1364677125
        },
        {
          "name": "A4",
          "midi": 69,
          "time": 44.17425450000005,
          "velocity": 0.6299212598425197,
          "duration": 0.1364677125
        },
        {
          "name": "D#4",
          "midi": 63,
          "time": 44.31186900000005,
          "velocity": 0.6299212598425197,
          "duration": 0.1364677125
        },
        {
          "name": "A#4",
          "midi": 70,
          "time": 44.44948350000005,
          "velocity": 0.6299212598425197,
          "duration": 0.549311212500001
        },
        {
          "name": "D#5",
          "midi": 75,
          "time": 44.51829075000005,
          "velocity": 0.6299212598425197,
          "duration": 0.6181184625
        },
        {
          "name": "A#5",
          "midi": 82,
          "time": 44.58709800000005,
          "velocity": 0.6299212598425197,
          "duration": 0.549311212500001
        },
        {
          "name": "D#4",
          "midi": 63,
          "time": 44.99994150000005,
          "velocity": 0.6299212598425197,
          "duration": 0.1364677125
        },
        {
          "name": "G#4",
          "midi": 68,
          "time": 45.137556000000046,
          "velocity": 0.6299212598425197,
          "duration": 0.1364677125
        },
        {
          "name": "G4",
          "midi": 67,
          "time": 45.275170500000044,
          "velocity": 0.6299212598425197,
          "duration": 0.1364677125
        },
        {
          "name": "G#4",
          "midi": 68,
          "time": 45.41278500000004,
          "velocity": 0.6299212598425197,
          "duration": 0.1364677125
        },
        {
          "name": "D#4",
          "midi": 63,
          "time": 45.55039950000004,
          "velocity": 0.6299212598425197,
          "duration": 0.1364677125
        },
        {
          "name": "G4",
          "midi": 67,
          "time": 45.68801400000004,
          "velocity": 0.6299212598425197,
          "duration": 0.1364677125
        },
        {
          "name": "C4",
          "midi": 60,
          "time": 45.825628500000036,
          "velocity": 0.6299212598425197,
          "duration": 0.1364677125
        },
        {
          "name": "D#4",
          "midi": 63,
          "time": 45.963243000000034,
          "velocity": 0.6299212598425197,
          "duration": 0.1364677125
        },
        {
          "name": "F#4",
          "midi": 66,
          "time": 46.10085750000003,
          "velocity": 0.6299212598425197,
          "duration": 0.1364677125
        },
        {
          "name": "A#4",
          "midi": 70,
          "time": 46.23847200000003,
          "velocity": 0.6299212598425197,
          "duration": 0.1364677125
        },
        {
          "name": "A4",
          "midi": 69,
          "time": 46.37608650000003,
          "velocity": 0.6299212598425197,
          "duration": 0.1364677125
        },
        {
          "name": "D#4",
          "midi": 63,
          "time": 46.513701000000026,
          "velocity": 0.6299212598425197,
          "duration": 0.1364677125
        },
        {
          "name": "A#4",
          "midi": 70,
          "time": 46.651315500000024,
          "velocity": 0.6299212598425197,
          "duration": 0.549311212500001
        },
        {
          "name": "D#5",
          "midi": 75,
          "time": 46.72012275000002,
          "velocity": 0.6299212598425197,
          "duration": 0.549311212500001
        },
        {
          "name": "A#5",
          "midi": 82,
          "time": 46.78893000000002,
          "velocity": 0.6299212598425197,
          "duration": 0.549311212500001
        },
        {
          "name": "D#4",
          "midi": 63,
          "time": 47.20177350000002,
          "velocity": 0.6299212598425197,
          "duration": 0.1364677125
        },
        {
          "name": "G#4",
          "midi": 68,
          "time": 47.33938800000002,
          "velocity": 0.6299212598425197,
          "duration": 0.1364677125
        },
        {
          "name": "G4",
          "midi": 67,
          "time": 47.47700250000002,
          "velocity": 0.6299212598425197,
          "duration": 0.1364677125
        },
        {
          "name": "G#4",
          "midi": 68,
          "time": 47.61461700000002,
          "velocity": 0.6299212598425197,
          "duration": 0.1364677125
        },
        {
          "name": "D#4",
          "midi": 63,
          "time": 47.752231500000015,
          "velocity": 0.6299212598425197,
          "duration": 0.1364677125
        },
        {
          "name": "G4",
          "midi": 67,
          "time": 47.88984600000001,
          "velocity": 0.6299212598425197,
          "duration": 0.1364677125
        },
        {
          "name": "C4",
          "midi": 60,
          "time": 48.02746050000001,
          "velocity": 0.6299212598425197,
          "duration": 0.1364677125
        },
        {
          "name": "D#4",
          "midi": 63,
          "time": 48.16507500000001,
          "velocity": 0.6299212598425197,
          "duration": 0.1364677125
        },
        {
          "name": "F#4",
          "midi": 66,
          "time": 48.30268950000001,
          "velocity": 0.6299212598425197,
          "duration": 0.1364677125
        },
        {
          "name": "A#4",
          "midi": 70,
          "time": 48.440304000000005,
          "velocity": 0.6299212598425197,
          "duration": 0.1364677125
        },
        {
          "name": "A4",
          "midi": 69,
          "time": 48.5779185,
          "velocity": 0.6299212598425197,
          "duration": 0.1364677125
        },
        {
          "name": "D#4",
          "midi": 63,
          "time": 48.715533,
          "velocity": 0.6299212598425197,
          "duration": 0.1364677125
        },
        {
          "name": "A#4",
          "midi": 70,
          "time": 48.8531475,
          "velocity": 0.6299212598425197,
          "duration": 0.549311212500001
        },
        {
          "name": "D#5",
          "midi": 75,
          "time": 48.92195475,
          "velocity": 0.6299212598425197,
          "duration": 0.549311212500001
        },
        {
          "name": "A#5",
          "midi": 82,
          "time": 48.990762,
          "velocity": 0.6299212598425197,
          "duration": 0.549311212500001
        },
        {
          "name": "D#4",
          "midi": 63,
          "time": 49.4036055,
          "velocity": 0.6299212598425197,
          "duration": 0.1364677125
        },
        {
          "name": "G#4",
          "midi": 68,
          "time": 49.541219999999996,
          "velocity": 0.6299212598425197,
          "duration": 0.1364677125
        },
        {
          "name": "G4",
          "midi": 67,
          "time": 49.678834499999994,
          "velocity": 0.6299212598425197,
          "duration": 0.1364677125
        },
        {
          "name": "G#4",
          "midi": 68,
          "time": 49.81644899999999,
          "velocity": 0.6299212598425197,
          "duration": 0.1364677125
        },
        {
          "name": "D#4",
          "midi": 63,
          "time": 49.95406349999999,
          "velocity": 0.6299212598425197,
          "duration": 0.1364677125
        },
        {
          "name": "G4",
          "midi": 67,
          "time": 50.09167799999999,
          "velocity": 0.6299212598425197,
          "duration": 0.1364677125
        },
        {
          "name": "C4",
          "midi": 60,
          "time": 50.229292499999985,
          "velocity": 0.6299212598425197,
          "duration": 0.1364677125
        },
        {
          "name": "D#4",
          "midi": 63,
          "time": 50.36690699999998,
          "velocity": 0.6299212598425197,
          "duration": 0.1364677125
        },
        {
          "name": "F#4",
          "midi": 66,
          "time": 50.50452149999998,
          "velocity": 0.6299212598425197,
          "duration": 0.1364677125
        },
        {
          "name": "A#4",
          "midi": 70,
          "time": 50.64213599999998,
          "velocity": 0.6299212598425197,
          "duration": 0.1364677125
        },
        {
          "name": "A4",
          "midi": 69,
          "time": 50.77975049999998,
          "velocity": 0.6299212598425197,
          "duration": 0.1364677125
        },
        {
          "name": "D#4",
          "midi": 63,
          "time": 50.917364999999975,
          "velocity": 0.6299212598425197,
          "duration": 0.1364677125
        },
        {
          "name": "A#4",
          "midi": 70,
          "time": 51.05497949999997,
          "velocity": 0.6299212598425197,
          "duration": 0.549311212500001
        },
        {
          "name": "D#5",
          "midi": 75,
          "time": 51.12378674999997,
          "velocity": 0.6299212598425197,
          "duration": 0.549311212500001
        },
        {
          "name": "A#5",
          "midi": 82,
          "time": 51.19259399999997,
          "velocity": 0.6299212598425197,
          "duration": 0.549311212500001
        },
        {
          "name": "D#4",
          "midi": 63,
          "time": 51.60543749999997,
          "velocity": 0.6299212598425197,
          "duration": 0.1364677125
        },
        {
          "name": "G#4",
          "midi": 68,
          "time": 51.74305199999997,
          "velocity": 0.6299212598425197,
          "duration": 0.1364677125
        },
        {
          "name": "G4",
          "midi": 67,
          "time": 51.88066649999997,
          "velocity": 0.6299212598425197,
          "duration": 0.1364677125
        },
        {
          "name": "G#4",
          "midi": 68,
          "time": 52.018280999999966,
          "velocity": 0.6299212598425197,
          "duration": 0.1364677125
        },
        {
          "name": "D#4",
          "midi": 63,
          "time": 52.155895499999964,
          "velocity": 0.6299212598425197,
          "duration": 0.1364677125
        },
        {
          "name": "G4",
          "midi": 67,
          "time": 52.29350999999996,
          "velocity": 0.6299212598425197,
          "duration": 0.1364677125
        },
        {
          "name": "C4",
          "midi": 60,
          "time": 52.43112449999996,
          "velocity": 0.6299212598425197,
          "duration": 0.1364677125
        },
        {
          "name": "D#4",
          "midi": 63,
          "time": 52.56873899999996,
          "velocity": 0.6299212598425197,
          "duration": 0.1364677125
        },
        {
          "name": "F#4",
          "midi": 66,
          "time": 52.706353499999956,
          "velocity": 0.6299212598425197,
          "duration": 0.1364677125
        },
        {
          "name": "G#5",
          "midi": 80,
          "time": 52.843967999999954,
          "velocity": 0.6299212598425197,
          "duration": 1.099769212499993
        },
        {
          "name": "D#5",
          "midi": 75,
          "time": 52.843967999999954,
          "velocity": 0.6299212598425197,
          "duration": 1.030961962499994
        },
        {
          "name": "A#4",
          "midi": 70,
          "time": 52.843967999999954,
          "velocity": 0.6299212598425197,
          "duration": 0.1364677125
        },
        {
          "name": "A4",
          "midi": 69,
          "time": 52.98158249999995,
          "velocity": 0.6299212598425197,
          "duration": 0.1364677125
        },
        {
          "name": "D#4",
          "midi": 63,
          "time": 53.11919699999995,
          "velocity": 0.6299212598425197,
          "duration": 0.1364677125
        },
        {
          "name": "A#4",
          "midi": 70,
          "time": 53.25681149999995,
          "velocity": 0.6299212598425197,
          "duration": 0.549311212500001
        },
        {
          "name": "D#5",
          "midi": 75,
          "time": 53.32561874999995,
          "velocity": 0.6299212598425197,
          "duration": 0.6181184625
        },
        {
          "name": "A#5",
          "midi": 82,
          "time": 53.394425999999946,
          "velocity": 0.6299212598425197,
          "duration": 0.549311212500001
        },
        {
          "name": "D#4",
          "midi": 63,
          "time": 53.80726949999995,
          "velocity": 0.6299212598425197,
          "duration": 0.1364677125
        },
        {
          "name": "A#4",
          "midi": 70,
          "time": 53.944883999999945,
          "velocity": 0.6299212598425197,
          "duration": 0.1364677125
        },
        {
          "name": "A4",
          "midi": 69,
          "time": 54.08249849999994,
          "velocity": 0.6299212598425197,
          "duration": 0.1364677125
        },
        {
          "name": "D#4",
          "midi": 63,
          "time": 54.22011299999994,
          "velocity": 0.6299212598425197,
          "duration": 0.1364677125
        },
        {
          "name": "A#4",
          "midi": 70,
          "time": 54.35772749999994,
          "velocity": 0.6299212598425197,
          "duration": 0.549311212500001
        },
        {
          "name": "D#5",
          "midi": 75,
          "time": 54.42653474999994,
          "velocity": 0.6299212598425197,
          "duration": 0.549311212500001
        },
        {
          "name": "A#5",
          "midi": 82,
          "time": 54.49534199999994,
          "velocity": 0.6299212598425197,
          "duration": 0.549311212500001
        },
        {
          "name": "D#4",
          "midi": 63,
          "time": 54.90818549999994,
          "velocity": 0.6299212598425197,
          "duration": 0.1364677125
        },
        {
          "name": "A#4",
          "midi": 70,
          "time": 55.045799999999936,
          "velocity": 0.6299212598425197,
          "duration": 0.1364677125
        },
        {
          "name": "A4",
          "midi": 69,
          "time": 55.183414499999934,
          "velocity": 0.6299212598425197,
          "duration": 0.1364677125
        },
        {
          "name": "D#4",
          "midi": 63,
          "time": 55.32102899999993,
          "velocity": 0.6299212598425197,
          "duration": 0.1364677125
        },
        {
          "name": "A#4",
          "midi": 70,
          "time": 55.45864349999993,
          "velocity": 0.6299212598425197,
          "duration": 0.549311212500001
        },
        {
          "name": "D#5",
          "midi": 75,
          "time": 55.52745074999993,
          "velocity": 0.6299212598425197,
          "duration": 0.549311212500001
        },
        {
          "name": "A#5",
          "midi": 82,
          "time": 55.59625799999993,
          "velocity": 0.6299212598425197,
          "duration": 0.549311212500001
        },
        {
          "name": "D#4",
          "midi": 63,
          "time": 56.00910149999993,
          "velocity": 0.6299212598425197,
          "duration": 0.1364677125
        },
        {
          "name": "A#4",
          "midi": 70,
          "time": 56.14671599999993,
          "velocity": 0.6299212598425197,
          "duration": 0.1364677125
        },
        {
          "name": "A4",
          "midi": 69,
          "time": 56.284330499999925,
          "velocity": 0.6299212598425197,
          "duration": 0.1364677125
        },
        {
          "name": "D#4",
          "midi": 63,
          "time": 56.42194499999992,
          "velocity": 0.6299212598425197,
          "duration": 0.1364677125
        },
        {
          "name": "A#4",
          "midi": 70,
          "time": 56.55955949999992,
          "velocity": 0.6299212598425197,
          "duration": 0.549311212500001
        },
        {
          "name": "D#5",
          "midi": 75,
          "time": 56.62836674999992,
          "velocity": 0.6299212598425197,
          "duration": 0.549311212500001
        },
        {
          "name": "A#5",
          "midi": 82,
          "time": 56.69717399999992,
          "velocity": 0.6299212598425197,
          "duration": 0.549311212500001
        },
        {
          "name": "D#4",
          "midi": 63,
          "time": 57.11001749999992,
          "velocity": 0.6299212598425197,
          "duration": 0.1364677125
        },
        {
          "name": "A#4",
          "midi": 70,
          "time": 57.24763199999992,
          "velocity": 0.6299212598425197,
          "duration": 0.1364677125
        },
        {
          "name": "A4",
          "midi": 69,
          "time": 57.385246499999916,
          "velocity": 0.6299212598425197,
          "duration": 0.1364677125
        },
        {
          "name": "D#4",
          "midi": 63,
          "time": 57.522860999999914,
          "velocity": 0.6299212598425197,
          "duration": 0.1364677125
        },
        {
          "name": "A#4",
          "midi": 70,
          "time": 57.66047549999991,
          "velocity": 0.6299212598425197,
          "duration": 0.549311212500001
        },
        {
          "name": "D#5",
          "midi": 75,
          "time": 57.72928274999991,
          "velocity": 0.6299212598425197,
          "duration": 0.549311212500001
        },
        {
          "name": "A#5",
          "midi": 82,
          "time": 57.79808999999991,
          "velocity": 0.6299212598425197,
          "duration": 0.549311212500001
        },
        {
          "name": "D#4",
          "midi": 63,
          "time": 58.21093349999991,
          "velocity": 0.6299212598425197,
          "duration": 0.1364677125
        },
        {
          "name": "G#4",
          "midi": 68,
          "time": 58.34854799999991,
          "velocity": 0.6299212598425197,
          "duration": 0.1364677125
        },
        {
          "name": "G4",
          "midi": 67,
          "time": 58.48616249999991,
          "velocity": 0.6299212598425197,
          "duration": 0.1364677125
        },
        {
          "name": "G#4",
          "midi": 68,
          "time": 58.623776999999905,
          "velocity": 0.6299212598425197,
          "duration": 0.1364677125
        },
        {
          "name": "D#4",
          "midi": 63,
          "time": 58.7613914999999,
          "velocity": 0.6299212598425197,
          "duration": 0.1364677125
        },
        {
          "name": "G4",
          "midi": 67,
          "time": 58.8990059999999,
          "velocity": 0.6299212598425197,
          "duration": 0.1364677125
        },
        {
          "name": "C4",
          "midi": 60,
          "time": 59.0366204999999,
          "velocity": 0.6299212598425197,
          "duration": 0.1364677125
        },
        {
          "name": "D#4",
          "midi": 63,
          "time": 59.174234999999896,
          "velocity": 0.6299212598425197,
          "duration": 0.1364677125
        },
        {
          "name": "F#4",
          "midi": 66,
          "time": 59.311849499999894,
          "velocity": 0.6299212598425197,
          "duration": 0.1364677125
        },
        {
          "name": "A#4",
          "midi": 70,
          "time": 59.44946399999989,
          "velocity": 0.6299212598425197,
          "duration": 0.1364677125
        },
        {
          "name": "A4",
          "midi": 69,
          "time": 59.58707849999989,
          "velocity": 0.6299212598425197,
          "duration": 0.1364677125
        },
        {
          "name": "D#4",
          "midi": 63,
          "time": 59.72469299999989,
          "velocity": 0.6299212598425197,
          "duration": 0.1364677125
        },
        {
          "name": "A#4",
          "midi": 70,
          "time": 59.862307499999886,
          "velocity": 0.6299212598425197,
          "duration": 0.549311212500001
        },
        {
          "name": "D#5",
          "midi": 75,
          "time": 59.931114749999885,
          "velocity": 0.6299212598425197,
          "duration": 0.549311212500001
        },
        {
          "name": "A#5",
          "midi": 82,
          "time": 59.999921999999884,
          "velocity": 0.6299212598425197,
          "duration": 0.549311212500001
        },
        {
          "name": "D#4",
          "midi": 63,
          "time": 60.412765499999885,
          "velocity": 0.6299212598425197,
          "duration": 0.1364677125
        },
        {
          "name": "A#4",
          "midi": 70,
          "time": 60.55037999999988,
          "velocity": 0.6299212598425197,
          "duration": 0.1364677125
        },
        {
          "name": "A4",
          "midi": 69,
          "time": 60.68799449999988,
          "velocity": 0.6299212598425197,
          "duration": 0.1364677125
        },
        {
          "name": "D#4",
          "midi": 63,
          "time": 60.82560899999988,
          "velocity": 0.6299212598425197,
          "duration": 0.1364677125
        },
        {
          "name": "A#4",
          "midi": 70,
          "time": 60.96322349999988,
          "velocity": 0.6299212598425197,
          "duration": 0.549311212500001
        },
        {
          "name": "D#5",
          "midi": 75,
          "time": 61.032030749999876,
          "velocity": 0.6299212598425197,
          "duration": 0.549311212500001
        },
        {
          "name": "A#5",
          "midi": 82,
          "time": 61.100837999999875,
          "velocity": 0.6299212598425197,
          "duration": 0.549311212500001
        },
        {
          "name": "D#4",
          "midi": 63,
          "time": 61.513681499999876,
          "velocity": 0.6299212598425197,
          "duration": 0.1364677125
        },
        {
          "name": "G#4",
          "midi": 68,
          "time": 61.651295999999874,
          "velocity": 0.6299212598425197,
          "duration": 0.1364677125
        },
        {
          "name": "D#4",
          "midi": 63,
          "time": 61.78891049999987,
          "velocity": 0.6299212598425197,
          "duration": 0.274082212499998
        },
        {
          "name": "D#4",
          "midi": 63,
          "time": 62.06413949999987,
          "velocity": 0.6299212598425197,
          "duration": 0.274082212499998
        },
        {
          "name": "D#4",
          "midi": 63,
          "time": 62.339368499999864,
          "velocity": 0.6299212598425197,
          "duration": 0.1364677125
        },
        {
          "name": "D4",
          "midi": 62,
          "time": 62.47698299999986,
          "velocity": 0.6299212598425197,
          "duration": 0.1364677125
        },
        {
          "name": "D4",
          "midi": 62,
          "time": 62.61459749999986,
          "velocity": 0.6299212598425197,
          "duration": 0.1364677125
        },
        {
          "name": "G#4",
          "midi": 68,
          "time": 62.75221199999986,
          "velocity": 0.6299212598425197,
          "duration": 0.1364677125
        },
        {
          "name": "D#4",
          "midi": 63,
          "time": 62.889826499999856,
          "velocity": 0.6299212598425197,
          "duration": 0.274082212499998
        },
        {
          "name": "D#4",
          "midi": 63,
          "time": 63.16505549999985,
          "velocity": 0.6299212598425197,
          "duration": 0.274082212499998
        },
        {
          "name": "D#4",
          "midi": 63,
          "time": 63.44028449999985,
          "velocity": 0.6299212598425197,
          "duration": 0.1364677125
        },
        {
          "name": "D4",
          "midi": 62,
          "time": 63.577898999999846,
          "velocity": 0.6299212598425197,
          "duration": 0.1364677125
        },
        {
          "name": "D4",
          "midi": 62,
          "time": 63.715513499999844,
          "velocity": 0.6299212598425197,
          "duration": 0.1364677125
        },
        {
          "name": "G#4",
          "midi": 68,
          "time": 63.85312799999984,
          "velocity": 0.6299212598425197,
          "duration": 0.1364677125
        },
        {
          "name": "D#4",
          "midi": 63,
          "time": 63.99074249999984,
          "velocity": 0.6299212598425197,
          "duration": 0.2740822125000051
        },
        {
          "name": "D#4",
          "midi": 63,
          "time": 64.26597149999985,
          "velocity": 0.6299212598425197,
          "duration": 0.2740822125000051
        },
        {
          "name": "D#4",
          "midi": 63,
          "time": 64.54120049999986,
          "velocity": 0.6299212598425197,
          "duration": 0.1364677125000071
        },
        {
          "name": "D4",
          "midi": 62,
          "time": 64.67881499999987,
          "velocity": 0.6299212598425197,
          "duration": 0.1364677125000071
        },
        {
          "name": "D4",
          "midi": 62,
          "time": 64.81642949999988,
          "velocity": 0.6299212598425197,
          "duration": 0.1364677125000071
        },
        {
          "name": "G#4",
          "midi": 68,
          "time": 64.9540439999999,
          "velocity": 0.6299212598425197,
          "duration": 0.1364677125000071
        },
        {
          "name": "D#4",
          "midi": 63,
          "time": 65.09165849999991,
          "velocity": 0.6299212598425197,
          "duration": 0.2740822125000051
        },
        {
          "name": "D#4",
          "midi": 63,
          "time": 65.36688749999992,
          "velocity": 0.6299212598425197,
          "duration": 0.2740822125000051
        },
        {
          "name": "D#4",
          "midi": 63,
          "time": 65.64211649999993,
          "velocity": 0.6299212598425197,
          "duration": 0.1364677125000071
        },
        {
          "name": "D4",
          "midi": 62,
          "time": 65.77973099999994,
          "velocity": 0.6299212598425197,
          "duration": 0.1364677125000071
        },
        {
          "name": "D4",
          "midi": 62,
          "time": 65.91734549999995,
          "velocity": 0.6299212598425197,
          "duration": 0.1364677125000071
        },
        {
          "name": "G#4",
          "midi": 68,
          "time": 66.05495999999997,
          "velocity": 0.6299212598425197,
          "duration": 0.1364677125000071
        },
        {
          "name": "D#4",
          "midi": 63,
          "time": 66.19257449999998,
          "velocity": 0.6299212598425197,
          "duration": 0.2740822125000051
        },
        {
          "name": "D#4",
          "midi": 63,
          "time": 66.46780349999999,
          "velocity": 0.6299212598425197,
          "duration": 0.2740822125000051
        },
        {
          "name": "D#4",
          "midi": 63,
          "time": 66.7430325,
          "velocity": 0.6299212598425197,
          "duration": 0.1364677125000071
        },
        {
          "name": "D4",
          "midi": 62,
          "time": 66.88064700000001,
          "velocity": 0.6299212598425197,
          "duration": 0.1364677125000071
        },
        {
          "name": "D4",
          "midi": 62,
          "time": 67.01826150000002,
          "velocity": 0.6299212598425197,
          "duration": 0.1364677125000071
        },
        {
          "name": "G#4",
          "midi": 68,
          "time": 67.15587600000003,
          "velocity": 0.6299212598425197,
          "duration": 0.1364677125000071
        },
        {
          "name": "D#4",
          "midi": 63,
          "time": 67.29349050000005,
          "velocity": 0.6299212598425197,
          "duration": 0.2740822125000051
        },
        {
          "name": "D#4",
          "midi": 63,
          "time": 67.56871950000006,
          "velocity": 0.6299212598425197,
          "duration": 0.2740822125000051
        },
        {
          "name": "D#4",
          "midi": 63,
          "time": 67.84394850000007,
          "velocity": 0.6299212598425197,
          "duration": 0.1364677125000071
        },
        {
          "name": "D4",
          "midi": 62,
          "time": 67.98156300000008,
          "velocity": 0.6299212598425197,
          "duration": 0.1364677125000071
        },
        {
          "name": "D4",
          "midi": 62,
          "time": 68.11917750000009,
          "velocity": 0.6299212598425197,
          "duration": 0.1364677125000071
        },
        {
          "name": "D#4",
          "midi": 63,
          "time": 68.4632137500001,
          "velocity": 0.6299212598425197,
          "duration": 0.38417381250000915
        },
        {
          "name": "G#4",
          "midi": 68,
          "time": 68.5320210000001,
          "velocity": 0.6299212598425197,
          "duration": 0.38417381250000915
        },
        {
          "name": "F#4",
          "midi": 66,
          "time": 68.84853435000011,
          "velocity": 0.6299212598425197,
          "duration": 0.38417381250000915
        },
        {
          "name": "B4",
          "midi": 71,
          "time": 68.91734160000011,
          "velocity": 0.6299212598425197,
          "duration": 0.38417381250000915
        },
        {
          "name": "D#4",
          "midi": 63,
          "time": 69.23385495000012,
          "velocity": 0.6299212598425197,
          "duration": 0.38417381250000915
        },
        {
          "name": "G#4",
          "midi": 68,
          "time": 69.30266220000013,
          "velocity": 0.6299212598425197,
          "duration": 0.38417381250000915
        },
        {
          "name": "C#4",
          "midi": 61,
          "time": 69.61917555000014,
          "velocity": 0.6299212598425197,
          "duration": 0.38417381250000915
        },
        {
          "name": "E4",
          "midi": 64,
          "time": 69.68798280000014,
          "velocity": 0.6299212598425197,
          "duration": 0.38417381250000915
        },
        {
          "name": "B3",
          "midi": 59,
          "time": 70.00449615000015,
          "velocity": 0.6299212598425197,
          "duration": 0.38417381250000915
        },
        {
          "name": "D#4",
          "midi": 63,
          "time": 70.07330340000016,
          "velocity": 0.6299212598425197,
          "duration": 0.38417381250000915
        },
        {
          "name": "G#4",
          "midi": 68,
          "time": 70.45862400000017,
          "velocity": 0.6299212598425197,
          "duration": 0.1364677124999929
        },
        {
          "name": "D#4",
          "midi": 63,
          "time": 70.59623850000017,
          "velocity": 0.6299212598425197,
          "duration": 0.2740822125000051
        },
        {
          "name": "D#4",
          "midi": 63,
          "time": 70.87146750000018,
          "velocity": 0.6299212598425197,
          "duration": 0.2740822125000051
        },
        {
          "name": "D#4",
          "midi": 63,
          "time": 71.14669650000019,
          "velocity": 0.6299212598425197,
          "duration": 0.1364677125000071
        },
        {
          "name": "D4",
          "midi": 62,
          "time": 71.2843110000002,
          "velocity": 0.6299212598425197,
          "duration": 0.1364677125000071
        },
        {
          "name": "D4",
          "midi": 62,
          "time": 71.42192550000021,
          "velocity": 0.6299212598425197,
          "duration": 0.1364677125000071
        },
        {
          "name": "G#4",
          "midi": 68,
          "time": 71.55954000000023,
          "velocity": 0.6299212598425197,
          "duration": 0.1364677125000071
        },
        {
          "name": "D#4",
          "midi": 63,
          "time": 71.69715450000024,
          "velocity": 0.6299212598425197,
          "duration": 0.2740822125000051
        },
        {
          "name": "D#4",
          "midi": 63,
          "time": 71.97238350000025,
          "velocity": 0.6299212598425197,
          "duration": 0.2740822125000051
        },
        {
          "name": "D#4",
          "midi": 63,
          "time": 72.24761250000026,
          "velocity": 0.6299212598425197,
          "duration": 0.1364677125000071
        },
        {
          "name": "D4",
          "midi": 62,
          "time": 72.38522700000027,
          "velocity": 0.6299212598425197,
          "duration": 0.1364677125000071
        },
        {
          "name": "D4",
          "midi": 62,
          "time": 72.52284150000028,
          "velocity": 0.6299212598425197,
          "duration": 0.1364677125000071
        },
        {
          "name": "G#4",
          "midi": 68,
          "time": 72.6604560000003,
          "velocity": 0.6299212598425197,
          "duration": 0.1364677125000071
        },
        {
          "name": "D#4",
          "midi": 63,
          "time": 72.7980705000003,
          "velocity": 0.6299212598425197,
          "duration": 0.2740822125000051
        },
        {
          "name": "D#4",
          "midi": 63,
          "time": 73.07329950000032,
          "velocity": 0.6299212598425197,
          "duration": 0.2740822125000051
        },
        {
          "name": "D#4",
          "midi": 63,
          "time": 73.34852850000033,
          "velocity": 0.6299212598425197,
          "duration": 0.1364677125000071
        },
        {
          "name": "D4",
          "midi": 62,
          "time": 73.48614300000034,
          "velocity": 0.6299212598425197,
          "duration": 0.1364677125000071
        },
        {
          "name": "D4",
          "midi": 62,
          "time": 73.62375750000035,
          "velocity": 0.6299212598425197,
          "duration": 0.1364677125000071
        },
        {
          "name": "G#4",
          "midi": 68,
          "time": 73.76137200000036,
          "velocity": 0.6299212598425197,
          "duration": 0.1364677125000071
        },
        {
          "name": "D#4",
          "midi": 63,
          "time": 73.89898650000038,
          "velocity": 0.6299212598425197,
          "duration": 0.2740822125000051
        },
        {
          "name": "D#4",
          "midi": 63,
          "time": 74.17421550000039,
          "velocity": 0.6299212598425197,
          "duration": 0.2740822125000051
        },
        {
          "name": "D#4",
          "midi": 63,
          "time": 74.4494445000004,
          "velocity": 0.6299212598425197,
          "duration": 0.1364677125000071
        },
        {
          "name": "D4",
          "midi": 62,
          "time": 74.58705900000041,
          "velocity": 0.6299212598425197,
          "duration": 0.1364677125000071
        },
        {
          "name": "D4",
          "midi": 62,
          "time": 74.72467350000042,
          "velocity": 0.6299212598425197,
          "duration": 0.1364677125000071
        },
        {
          "name": "G#4",
          "midi": 68,
          "time": 74.86228800000043,
          "velocity": 0.6299212598425197,
          "duration": 0.1364677125000071
        },
        {
          "name": "D#4",
          "midi": 63,
          "time": 74.99990250000045,
          "velocity": 0.6299212598425197,
          "duration": 0.2740822125000051
        },
        {
          "name": "D#4",
          "midi": 63,
          "time": 75.27513150000046,
          "velocity": 0.6299212598425197,
          "duration": 0.2740822125000051
        },
        {
          "name": "D#4",
          "midi": 63,
          "time": 75.55036050000047,
          "velocity": 0.6299212598425197,
          "duration": 0.1364677125000071
        },
        {
          "name": "D4",
          "midi": 62,
          "time": 75.68797500000048,
          "velocity": 0.6299212598425197,
          "duration": 0.1364677125000071
        },
        {
          "name": "D4",
          "midi": 62,
          "time": 75.82558950000049,
          "velocity": 0.6299212598425197,
          "duration": 0.1364677125000071
        },
        {
          "name": "G#4",
          "midi": 68,
          "time": 75.9632040000005,
          "velocity": 0.6299212598425197,
          "duration": 0.1364677125000071
        },
        {
          "name": "D#4",
          "midi": 63,
          "time": 76.10081850000051,
          "velocity": 0.6299212598425197,
          "duration": 0.2740822125000051
        },
        {
          "name": "D#4",
          "midi": 63,
          "time": 76.37604750000052,
          "velocity": 0.6299212598425197,
          "duration": 0.2740822125000051
        },
        {
          "name": "D#4",
          "midi": 63,
          "time": 76.65127650000053,
          "velocity": 0.6299212598425197,
          "duration": 0.1364677125000071
        },
        {
          "name": "D4",
          "midi": 62,
          "time": 76.78889100000055,
          "velocity": 0.6299212598425197,
          "duration": 0.1364677125000071
        },
        {
          "name": "D4",
          "midi": 62,
          "time": 76.92650550000056,
          "velocity": 0.6299212598425197,
          "duration": 0.1364677125000071
        },
        {
          "name": "D#4",
          "midi": 63,
          "time": 77.27054175000056,
          "velocity": 0.6299212598425197,
          "duration": 0.38417381250000915
        },
        {
          "name": "G#4",
          "midi": 68,
          "time": 77.33934900000057,
          "velocity": 0.6299212598425197,
          "duration": 0.38417381250000915
        },
        {
          "name": "F#4",
          "midi": 66,
          "time": 77.65586235000058,
          "velocity": 0.6299212598425197,
          "duration": 0.38417381250000915
        },
        {
          "name": "B4",
          "midi": 71,
          "time": 77.72466960000058,
          "velocity": 0.6299212598425197,
          "duration": 0.38417381250000915
        },
        {
          "name": "D#4",
          "midi": 63,
          "time": 78.04118295000059,
          "velocity": 0.6299212598425197,
          "duration": 0.38417381250000915
        },
        {
          "name": "G#4",
          "midi": 68,
          "time": 78.1099902000006,
          "velocity": 0.6299212598425197,
          "duration": 0.38417381250000915
        },
        {
          "name": "C#4",
          "midi": 61,
          "time": 78.4265035500006,
          "velocity": 0.6299212598425197,
          "duration": 0.38417381250000915
        },
        {
          "name": "E4",
          "midi": 64,
          "time": 78.49531080000061,
          "velocity": 0.6299212598425197,
          "duration": 0.38417381250000915
        },
        {
          "name": "B3",
          "midi": 59,
          "time": 78.81182415000062,
          "velocity": 0.6299212598425197,
          "duration": 0.38417381250000915
        },
        {
          "name": "D#4",
          "midi": 63,
          "time": 78.88063140000062,
          "velocity": 0.6299212598425197,
          "duration": 0.38417381250000915
        },
        {
          "name": "A#4",
          "midi": 70,
          "time": 79.26595200000064,
          "velocity": 0.6299212598425197,
          "duration": 0.1364677124999929
        },
        {
          "name": "A4",
          "midi": 69,
          "time": 79.40356650000064,
          "velocity": 0.6299212598425197,
          "duration": 0.1364677125000071
        },
        {
          "name": "D#4",
          "midi": 63,
          "time": 79.54118100000065,
          "velocity": 0.6299212598425197,
          "duration": 0.1364677125000071
        },
        {
          "name": "A#4",
          "midi": 70,
          "time": 79.67879550000066,
          "velocity": 0.6299212598425197,
          "duration": 0.5493112125000152
        },
        {
          "name": "D#5",
          "midi": 75,
          "time": 79.74760275000067,
          "velocity": 0.6299212598425197,
          "duration": 0.5493112125000152
        },
        {
          "name": "A#5",
          "midi": 82,
          "time": 79.81641000000067,
          "velocity": 0.6299212598425197,
          "duration": 0.5493112125000152
        },
        {
          "name": "D#4",
          "midi": 63,
          "time": 80.22925350000068,
          "velocity": 0.6299212598425197,
          "duration": 0.1364677125000071
        },
        {
          "name": "G#4",
          "midi": 68,
          "time": 80.3668680000007,
          "velocity": 0.6299212598425197,
          "duration": 0.1364677125000071
        },
        {
          "name": "G4",
          "midi": 67,
          "time": 80.5044825000007,
          "velocity": 0.6299212598425197,
          "duration": 0.1364677125000071
        },
        {
          "name": "G#4",
          "midi": 68,
          "time": 80.64209700000072,
          "velocity": 0.6299212598425197,
          "duration": 0.1364677125000071
        },
        {
          "name": "D#4",
          "midi": 63,
          "time": 80.77971150000073,
          "velocity": 0.6299212598425197,
          "duration": 0.1364677125000071
        },
        {
          "name": "G4",
          "midi": 67,
          "time": 80.91732600000074,
          "velocity": 0.6299212598425197,
          "duration": 0.1364677125000071
        },
        {
          "name": "C4",
          "midi": 60,
          "time": 81.05494050000075,
          "velocity": 0.6299212598425197,
          "duration": 0.1364677125000071
        },
        {
          "name": "D#4",
          "midi": 63,
          "time": 81.19255500000077,
          "velocity": 0.6299212598425197,
          "duration": 0.1364677125000071
        },
        {
          "name": "F#4",
          "midi": 66,
          "time": 81.33016950000078,
          "velocity": 0.6299212598425197,
          "duration": 0.1364677125000071
        },
        {
          "name": "A#4",
          "midi": 70,
          "time": 81.46778400000079,
          "velocity": 0.6299212598425197,
          "duration": 0.1364677125000071
        },
        {
          "name": "A4",
          "midi": 69,
          "time": 81.6053985000008,
          "velocity": 0.6299212598425197,
          "duration": 0.1364677125000071
        },
        {
          "name": "D#4",
          "midi": 63,
          "time": 81.74301300000081,
          "velocity": 0.6299212598425197,
          "duration": 0.1364677125000071
        },
        {
          "name": "A#4",
          "midi": 70,
          "time": 81.88062750000083,
          "velocity": 0.6299212598425197,
          "duration": 0.5493112125000152
        },
        {
          "name": "D#5",
          "midi": 75,
          "time": 81.94943475000083,
          "velocity": 0.6299212598425197,
          "duration": 0.5493112125000152
        },
        {
          "name": "A#5",
          "midi": 82,
          "time": 82.01824200000084,
          "velocity": 0.6299212598425197,
          "duration": 0.5493112125000152
        },
        {
          "name": "D#4",
          "midi": 63,
          "time": 82.43108550000085,
          "velocity": 0.6299212598425197,
          "duration": 0.1364677125000071
        },
        {
          "name": "G#4",
          "midi": 68,
          "time": 82.56870000000086,
          "velocity": 0.6299212598425197,
          "duration": 0.1364677125000071
        },
        {
          "name": "G4",
          "midi": 67,
          "time": 82.70631450000087,
          "velocity": 0.6299212598425197,
          "duration": 0.1364677125000071
        },
        {
          "name": "G#4",
          "midi": 68,
          "time": 82.84392900000088,
          "velocity": 0.6299212598425197,
          "duration": 0.1364677125000071
        },
        {
          "name": "D#4",
          "midi": 63,
          "time": 82.9815435000009,
          "velocity": 0.6299212598425197,
          "duration": 0.1364677125000071
        },
        {
          "name": "G4",
          "midi": 67,
          "time": 83.11915800000091,
          "velocity": 0.6299212598425197,
          "duration": 0.1364677125000071
        },
        {
          "name": "C4",
          "midi": 60,
          "time": 83.25677250000092,
          "velocity": 0.6299212598425197,
          "duration": 0.1364677125000071
        },
        {
          "name": "D#4",
          "midi": 63,
          "time": 83.39438700000093,
          "velocity": 0.6299212598425197,
          "duration": 0.1364677125000071
        },
        {
          "name": "F#4",
          "midi": 66,
          "time": 83.53200150000094,
          "velocity": 0.6299212598425197,
          "duration": 0.1364677125000071
        },
        {
          "name": "A#4",
          "midi": 70,
          "time": 83.66961600000096,
          "velocity": 0.6299212598425197,
          "duration": 0.1364677125000071
        },
        {
          "name": "A4",
          "midi": 69,
          "time": 83.80723050000097,
          "velocity": 0.6299212598425197,
          "duration": 0.1364677125000071
        },
        {
          "name": "D#4",
          "midi": 63,
          "time": 83.94484500000098,
          "velocity": 0.6299212598425197,
          "duration": 0.1364677125000071
        },
        {
          "name": "A#4",
          "midi": 70,
          "time": 84.082459500001,
          "velocity": 0.6299212598425197,
          "duration": 0.5493112125000152
        },
        {
          "name": "D#5",
          "midi": 75,
          "time": 84.151266750001,
          "velocity": 0.6299212598425197,
          "duration": 0.5493112125000152
        },
        {
          "name": "A#5",
          "midi": 82,
          "time": 84.220074000001,
          "velocity": 0.6299212598425197,
          "duration": 0.5493112125000152
        },
        {
          "name": "D#4",
          "midi": 63,
          "time": 84.63291750000101,
          "velocity": 0.6299212598425197,
          "duration": 0.1364677125000071
        },
        {
          "name": "G#4",
          "midi": 68,
          "time": 84.77053200000103,
          "velocity": 0.6299212598425197,
          "duration": 0.1364677125000071
        },
        {
          "name": "G4",
          "midi": 67,
          "time": 84.90814650000104,
          "velocity": 0.6299212598425197,
          "duration": 0.1364677125000071
        },
        {
          "name": "G#4",
          "midi": 68,
          "time": 85.04576100000105,
          "velocity": 0.6299212598425197,
          "duration": 0.1364677125000071
        },
        {
          "name": "D#4",
          "midi": 63,
          "time": 85.18337550000106,
          "velocity": 0.6299212598425197,
          "duration": 0.1364677125000071
        },
        {
          "name": "G4",
          "midi": 67,
          "time": 85.32099000000107,
          "velocity": 0.6299212598425197,
          "duration": 0.1364677125000071
        },
        {
          "name": "C4",
          "midi": 60,
          "time": 85.45860450000109,
          "velocity": 0.6299212598425197,
          "duration": 0.1364677125000071
        },
        {
          "name": "D#4",
          "midi": 63,
          "time": 85.5962190000011,
          "velocity": 0.6299212598425197,
          "duration": 0.1364677125000071
        },
        {
          "name": "F#4",
          "midi": 66,
          "time": 85.73383350000111,
          "velocity": 0.6299212598425197,
          "duration": 0.1364677125000071
        },
        {
          "name": "A#4",
          "midi": 70,
          "time": 85.87144800000112,
          "velocity": 0.6299212598425197,
          "duration": 0.1364677125000071
        },
        {
          "name": "A4",
          "midi": 69,
          "time": 86.00906250000114,
          "velocity": 0.6299212598425197,
          "duration": 0.1364677125000071
        },
        {
          "name": "D#4",
          "midi": 63,
          "time": 86.14667700000115,
          "velocity": 0.6299212598425197,
          "duration": 0.1364677125000071
        },
        {
          "name": "A#4",
          "midi": 70,
          "time": 86.28429150000116,
          "velocity": 0.6299212598425197,
          "duration": 0.5493112125000152
        },
        {
          "name": "D#5",
          "midi": 75,
          "time": 86.35309875000117,
          "velocity": 0.6299212598425197,
          "duration": 0.5493112125000152
        },
        {
          "name": "A#5",
          "midi": 82,
          "time": 86.42190600000117,
          "velocity": 0.6299212598425197,
          "duration": 0.5493112125000152
        },
        {
          "name": "D#4",
          "midi": 63,
          "time": 86.83474950000118,
          "velocity": 0.6299212598425197,
          "duration": 0.1364677125000071
        },
        {
          "name": "G#4",
          "midi": 68,
          "time": 86.97236400000119,
          "velocity": 0.6299212598425197,
          "duration": 0.1364677125000071
        },
        {
          "name": "A#4",
          "midi": 70,
          "time": 87.1099785000012,
          "velocity": 0.6299212598425197,
          "duration": 0.1364677125000071
        },
        {
          "name": "A#4",
          "midi": 70,
          "time": 87.24759300000122,
          "velocity": 0.6299212598425197,
          "duration": 0.1364677125000071
        },
        {
          "name": "A#4",
          "midi": 70,
          "time": 87.38520750000123,
          "velocity": 0.6299212598425197,
          "duration": 0.1364677125000071
        },
        {
          "name": "A#4",
          "midi": 70,
          "time": 87.52282200000124,
          "velocity": 0.6299212598425197,
          "duration": 0.1364677125000071
        },
        {
          "name": "A#4",
          "midi": 70,
          "time": 87.66043650000125,
          "velocity": 0.6299212598425197,
          "duration": 0.1364677125000071
        },
        {
          "name": "A#4",
          "midi": 70,
          "time": 87.79805100000127,
          "velocity": 0.6299212598425197,
          "duration": 0.1364677125000071
        },
        {
          "name": "A#4",
          "midi": 70,
          "time": 87.93566550000128,
          "velocity": 0.6299212598425197,
          "duration": 0.1364677125000071
        },
        {
          "name": "A#4",
          "midi": 70,
          "time": 88.07328000000129,
          "velocity": 0.6299212598425197,
          "duration": 0.2740822125000051
        },
        {
          "name": "A#4",
          "midi": 70,
          "time": 88.3485090000013,
          "velocity": 0.6299212598425197,
          "duration": 0.1364677124999929
        },
        {
          "name": "A4",
          "midi": 69,
          "time": 88.4861235000013,
          "velocity": 0.6299212598425197,
          "duration": 0.2740822125000051
        },
        {
          "name": "A#4",
          "midi": 70,
          "time": 88.76135250000131,
          "velocity": 0.6299212598425197,
          "duration": 0.1364677124999929
        },
        {
          "name": "A#4",
          "midi": 70,
          "time": 88.8989670000013,
          "velocity": 0.6299212598425197,
          "duration": 0.2740822125000051
        },
        {
          "name": "A#4",
          "midi": 70,
          "time": 89.17419600000132,
          "velocity": 0.6299212598425197,
          "duration": 0.2740822125000051
        },
        {
          "name": "A#4",
          "midi": 70,
          "time": 89.44942500000133,
          "velocity": 0.6299212598425197,
          "duration": 0.1364677125000071
        },
        {
          "name": "A4",
          "midi": 69,
          "time": 89.58703950000134,
          "velocity": 0.6299212598425197,
          "duration": 0.2740822125000051
        },
        {
          "name": "A#4",
          "midi": 70,
          "time": 89.86226850000135,
          "velocity": 0.6299212598425197,
          "duration": 0.1364677124999929
        },
        {
          "name": "A#4",
          "midi": 70,
          "time": 89.99988300000135,
          "velocity": 0.6299212598425197,
          "duration": 0.2740822125000051
        },
        {
          "name": "A#4",
          "midi": 70,
          "time": 90.27511200000136,
          "velocity": 0.6299212598425197,
          "duration": 0.2740822125000051
        },
        {
          "name": "A#4",
          "midi": 70,
          "time": 90.55034100000137,
          "velocity": 0.6299212598425197,
          "duration": 0.1364677125000071
        },
        {
          "name": "A4",
          "midi": 69,
          "time": 90.68795550000138,
          "velocity": 0.6299212598425197,
          "duration": 0.2740822125000051
        },
        {
          "name": "A#4",
          "midi": 70,
          "time": 90.96318450000139,
          "velocity": 0.6299212598425197,
          "duration": 0.1364677124999929
        },
        {
          "name": "A#4",
          "midi": 70,
          "time": 91.10079900000139,
          "velocity": 0.6299212598425197,
          "duration": 0.2740822125000051
        },
        {
          "name": "A#4",
          "midi": 70,
          "time": 91.3760280000014,
          "velocity": 0.6299212598425197,
          "duration": 0.2740822125000051
        },
        {
          "name": "A#4",
          "midi": 70,
          "time": 91.65125700000141,
          "velocity": 0.6299212598425197,
          "duration": 0.1364677125000071
        },
        {
          "name": "A4",
          "midi": 69,
          "time": 91.78887150000142,
          "velocity": 0.6299212598425197,
          "duration": 0.2740822125000051
        },
        {
          "name": "A#4",
          "midi": 70,
          "time": 92.06410050000143,
          "velocity": 0.6299212598425197,
          "duration": 0.1364677124999929
        },
        {
          "name": "A#4",
          "midi": 70,
          "time": 92.20171500000143,
          "velocity": 0.6299212598425197,
          "duration": 0.2740822125000051
        },
        {
          "name": "F#4",
          "midi": 66,
          "time": 92.47694400000144,
          "velocity": 0.6299212598425197,
          "duration": 0.1364677124999929
        },
        {
          "name": "D#4",
          "midi": 63,
          "time": 92.61455850000144,
          "velocity": 0.6299212598425197,
          "duration": 0.1364677125000071
        },
        {
          "name": "F#4",
          "midi": 66,
          "time": 92.75217300000145,
          "velocity": 0.6299212598425197,
          "duration": 0.1364677125000071
        },
        {
          "name": "D#4",
          "midi": 63,
          "time": 92.88978750000146,
          "velocity": 0.6299212598425197,
          "duration": 0.1364677125000071
        },
        {
          "name": "F#4",
          "midi": 66,
          "time": 93.02740200000147,
          "velocity": 0.6299212598425197,
          "duration": 0.1364677125000071
        },
        {
          "name": "D#4",
          "midi": 63,
          "time": 93.16501650000149,
          "velocity": 0.6299212598425197,
          "duration": 0.1364677125000071
        },
        {
          "name": "F#4",
          "midi": 66,
          "time": 93.3026310000015,
          "velocity": 0.6299212598425197,
          "duration": 0.1364677125000071
        },
        {
          "name": "D#4",
          "midi": 63,
          "time": 93.44024550000151,
          "velocity": 0.6299212598425197,
          "duration": 0.1364677125000071
        },
        {
          "name": "A#4",
          "midi": 70,
          "time": 93.57786000000152,
          "velocity": 0.6299212598425197,
          "duration": 0.2740822125000051
        },
        {
          "name": "A#4",
          "midi": 70,
          "time": 93.85308900000153,
          "velocity": 0.6299212598425197,
          "duration": 0.2740822125000051
        },
        {
          "name": "A#4",
          "midi": 70,
          "time": 94.12831800000154,
          "velocity": 0.6299212598425197,
          "duration": 0.2740822125000051
        },
        {
          "name": "A#4",
          "midi": 70,
          "time": 94.40354700000155,
          "velocity": 0.6299212598425197,
          "duration": 0.2740822125000051
        },
        {
          "name": "F#4",
          "midi": 66,
          "time": 94.67877600000156,
          "velocity": 0.6299212598425197,
          "duration": 0.1364677125000071
        },
        {
          "name": "D#4",
          "midi": 63,
          "time": 94.81639050000157,
          "velocity": 0.6299212598425197,
          "duration": 0.1364677125000071
        },
        {
          "name": "G#4",
          "midi": 68,
          "time": 94.95400500000159,
          "velocity": 0.6299212598425197,
          "duration": 0.1364677125000071
        },
        {
          "name": "D4",
          "midi": 62,
          "time": 95.0916195000016,
          "velocity": 0.6299212598425197,
          "duration": 0.1364677125000071
        },
        {
          "name": "D#4",
          "midi": 63,
          "time": 95.22923400000161,
          "velocity": 0.6299212598425197,
          "duration": 0.1364677125000071
        },
        {
          "name": "C4",
          "midi": 60,
          "time": 95.36684850000162,
          "velocity": 0.6299212598425197,
          "duration": 0.1364677125000071
        },
        {
          "name": "A#3",
          "midi": 58,
          "time": 95.50446300000164,
          "velocity": 0.6299212598425197,
          "duration": 0.1364677125000071
        },
        {
          "name": "C#4",
          "midi": 61,
          "time": 95.64207750000165,
          "velocity": 0.6299212598425197,
          "duration": 0.1364677125000071
        },
        {
          "name": "A#4",
          "midi": 70,
          "time": 95.77969200000166,
          "velocity": 0.6299212598425197,
          "duration": 0.1364677125000071
        },
        {
          "name": "A4",
          "midi": 69,
          "time": 95.91730650000167,
          "velocity": 0.6299212598425197,
          "duration": 0.1364677125000071
        },
        {
          "name": "A#4",
          "midi": 70,
          "time": 96.05492100000168,
          "velocity": 0.6299212598425197,
          "duration": 0.1364677125000071
        },
        {
          "name": "A4",
          "midi": 69,
          "time": 96.1925355000017,
          "velocity": 0.6299212598425197,
          "duration": 0.1364677125000071
        },
        {
          "name": "A#4",
          "midi": 70,
          "time": 96.33015000000171,
          "velocity": 0.6299212598425197,
          "duration": 0.1364677125000071
        },
        {
          "name": "A4",
          "midi": 69,
          "time": 96.46776450000172,
          "velocity": 0.6299212598425197,
          "duration": 0.1364677125000071
        },
        {
          "name": "D#4",
          "midi": 63,
          "time": 96.60537900000173,
          "velocity": 0.6299212598425197,
          "duration": 0.2740822125000051
        },
        {
          "name": "A#4",
          "midi": 70,
          "time": 96.88060800000174,
          "velocity": 0.6299212598425197,
          "duration": 0.1364677124999929
        },
        {
          "name": "A4",
          "midi": 69,
          "time": 97.01822250000174,
          "velocity": 0.6299212598425197,
          "duration": 0.1364677125000071
        },
        {
          "name": "D#4",
          "midi": 63,
          "time": 97.15583700000175,
          "velocity": 0.6299212598425197,
          "duration": 0.1364677125000071
        },
        {
          "name": "A#4",
          "midi": 70,
          "time": 97.29345150000177,
          "velocity": 0.6299212598425197,
          "duration": 0.5493112125000152
        },
        {
          "name": "D#5",
          "midi": 75,
          "time": 97.36225875000177,
          "velocity": 0.6299212598425197,
          "duration": 0.5493112125000152
        },
        {
          "name": "A#5",
          "midi": 82,
          "time": 97.43106600000178,
          "velocity": 0.6299212598425197,
          "duration": 0.5493112125000152
        },
        {
          "name": "D#4",
          "midi": 63,
          "time": 97.84390950000179,
          "velocity": 0.6299212598425197,
          "duration": 0.1364677125000071
        },
        {
          "name": "G#4",
          "midi": 68,
          "time": 97.9815240000018,
          "velocity": 0.6299212598425197,
          "duration": 0.1364677125000071
        },
        {
          "name": "G4",
          "midi": 67,
          "time": 98.11913850000181,
          "velocity": 0.6299212598425197,
          "duration": 0.1364677125000071
        },
        {
          "name": "G#4",
          "midi": 68,
          "time": 98.25675300000182,
          "velocity": 0.6299212598425197,
          "duration": 0.1364677125000071
        },
        {
          "name": "D#4",
          "midi": 63,
          "time": 98.39436750000183,
          "velocity": 0.6299212598425197,
          "duration": 0.1364677125000071
        },
        {
          "name": "G4",
          "midi": 67,
          "time": 98.53198200000185,
          "velocity": 0.6299212598425197,
          "duration": 0.1364677125000071
        },
        {
          "name": "C4",
          "midi": 60,
          "time": 98.66959650000186,
          "velocity": 0.6299212598425197,
          "duration": 0.1364677125000071
        },
        {
          "name": "D#4",
          "midi": 63,
          "time": 98.80721100000187,
          "velocity": 0.6299212598425197,
          "duration": 0.1364677125000071
        },
        {
          "name": "F#4",
          "midi": 66,
          "time": 98.94482550000188,
          "velocity": 0.6299212598425197,
          "duration": 0.1364677125000071
        },
        {
          "name": "A#4",
          "midi": 70,
          "time": 99.0824400000019,
          "velocity": 0.6299212598425197,
          "duration": 0.1364677125000071
        },
        {
          "name": "A4",
          "midi": 69,
          "time": 99.22005450000191,
          "velocity": 0.6299212598425197,
          "duration": 0.1364677125000071
        },
        {
          "name": "D#4",
          "midi": 63,
          "time": 99.35766900000192,
          "velocity": 0.6299212598425197,
          "duration": 0.1364677125000071
        },
        {
          "name": "A#4",
          "midi": 70,
          "time": 99.49528350000193,
          "velocity": 0.6299212598425197,
          "duration": 0.5493112125000152
        },
        {
          "name": "D#5",
          "midi": 75,
          "time": 99.56409075000194,
          "velocity": 0.6299212598425197,
          "duration": 0.5493112125000152
        },
        {
          "name": "A#5",
          "midi": 82,
          "time": 99.63289800000194,
          "velocity": 0.6299212598425197,
          "duration": 0.5493112125000152
        },
        {
          "name": "D#4",
          "midi": 63,
          "time": 100.04574150000195,
          "velocity": 0.6299212598425197,
          "duration": 0.1364677125000071
        },
        {
          "name": "G#4",
          "midi": 68,
          "time": 100.18335600000196,
          "velocity": 0.6299212598425197,
          "duration": 0.1364677125000071
        },
        {
          "name": "G4",
          "midi": 67,
          "time": 100.32097050000198,
          "velocity": 0.6299212598425197,
          "duration": 0.1364677125000071
        },
        {
          "name": "G#4",
          "midi": 68,
          "time": 100.45858500000199,
          "velocity": 0.6299212598425197,
          "duration": 0.1364677125000071
        },
        {
          "name": "D#4",
          "midi": 63,
          "time": 100.596199500002,
          "velocity": 0.6299212598425197,
          "duration": 0.1364677125000071
        },
        {
          "name": "G4",
          "midi": 67,
          "time": 100.73381400000201,
          "velocity": 0.6299212598425197,
          "duration": 0.1364677125000071
        },
        {
          "name": "C4",
          "midi": 60,
          "time": 100.87142850000203,
          "velocity": 0.6299212598425197,
          "duration": 0.1364677125000071
        },
        {
          "name": "D#4",
          "midi": 63,
          "time": 101.00904300000204,
          "velocity": 0.6299212598425197,
          "duration": 0.1364677125000071
        },
        {
          "name": "F#4",
          "midi": 66,
          "time": 101.14665750000205,
          "velocity": 0.6299212598425197,
          "duration": 0.1364677125000071
        },
        {
          "name": "A#4",
          "midi": 70,
          "time": 101.28427200000206,
          "velocity": 0.6299212598425197,
          "duration": 0.1364677125000071
        },
        {
          "name": "A4",
          "midi": 69,
          "time": 101.42188650000207,
          "velocity": 0.6299212598425197,
          "duration": 0.1364677125000071
        },
        {
          "name": "D#4",
          "midi": 63,
          "time": 101.55950100000209,
          "velocity": 0.6299212598425197,
          "duration": 0.1364677125000071
        },
        {
          "name": "A#4",
          "midi": 70,
          "time": 101.6971155000021,
          "velocity": 0.6299212598425197,
          "duration": 0.5493112125000152
        },
        {
          "name": "D#5",
          "midi": 75,
          "time": 101.7659227500021,
          "velocity": 0.6299212598425197,
          "duration": 0.5493112125000152
        },
        {
          "name": "A#5",
          "midi": 82,
          "time": 101.83473000000211,
          "velocity": 0.6299212598425197,
          "duration": 0.5493112125000152
        },
        {
          "name": "D#4",
          "midi": 63,
          "time": 102.24757350000212,
          "velocity": 0.6299212598425197,
          "duration": 0.1364677125000071
        },
        {
          "name": "G#4",
          "midi": 68,
          "time": 102.38518800000213,
          "velocity": 0.6299212598425197,
          "duration": 0.1364677125000071
        },
        {
          "name": "G4",
          "midi": 67,
          "time": 102.52280250000214,
          "velocity": 0.6299212598425197,
          "duration": 0.1364677125000071
        },
        {
          "name": "G#4",
          "midi": 68,
          "time": 102.66041700000216,
          "velocity": 0.6299212598425197,
          "duration": 0.1364677125000071
        },
        {
          "name": "D#4",
          "midi": 63,
          "time": 102.79803150000217,
          "velocity": 0.6299212598425197,
          "duration": 0.1364677125000071
        },
        {
          "name": "G4",
          "midi": 67,
          "time": 102.93564600000218,
          "velocity": 0.6299212598425197,
          "duration": 0.1364677125000071
        },
        {
          "name": "C4",
          "midi": 60,
          "time": 103.07326050000219,
          "velocity": 0.6299212598425197,
          "duration": 0.1364677125000071
        },
        {
          "name": "D#4",
          "midi": 63,
          "time": 103.2108750000022,
          "velocity": 0.6299212598425197,
          "duration": 0.1364677125000071
        },
        {
          "name": "F#4",
          "midi": 66,
          "time": 103.34848950000222,
          "velocity": 0.6299212598425197,
          "duration": 0.1364677125000071
        },
        {
          "name": "A#4",
          "midi": 70,
          "time": 103.48610400000223,
          "velocity": 0.6299212598425197,
          "duration": 0.1364677125000071
        },
        {
          "name": "A4",
          "midi": 69,
          "time": 103.62371850000224,
          "velocity": 0.6299212598425197,
          "duration": 0.1364677125000071
        },
        {
          "name": "D#4",
          "midi": 63,
          "time": 103.76133300000225,
          "velocity": 0.6299212598425197,
          "duration": 0.1364677125000071
        },
        {
          "name": "A#4",
          "midi": 70,
          "time": 103.89894750000227,
          "velocity": 0.6299212598425197,
          "duration": 0.5493112125000152
        },
        {
          "name": "D#5",
          "midi": 75,
          "time": 103.96775475000227,
          "velocity": 0.6299212598425197,
          "duration": 0.5493112125000152
        },
        {
          "name": "A#5",
          "midi": 82,
          "time": 104.03656200000228,
          "velocity": 0.6299212598425197,
          "duration": 0.5493112125000152
        },
        {
          "name": "D#4",
          "midi": 63,
          "time": 104.44940550000229,
          "velocity": 0.6299212598425197,
          "duration": 0.1364677125000071
        },
        {
          "name": "G#4",
          "midi": 68,
          "time": 104.5870200000023,
          "velocity": 0.6299212598425197,
          "duration": 0.1364677125000071
        },
        {
          "name": "G4",
          "midi": 67,
          "time": 104.72463450000231,
          "velocity": 0.6299212598425197,
          "duration": 0.1364677125000071
        },
        {
          "name": "G#4",
          "midi": 68,
          "time": 104.86224900000232,
          "velocity": 0.6299212598425197,
          "duration": 0.1364677125000071
        },
        {
          "name": "D#4",
          "midi": 63,
          "time": 104.99986350000233,
          "velocity": 0.6299212598425197,
          "duration": 0.1364677125000071
        },
        {
          "name": "G4",
          "midi": 67,
          "time": 105.13747800000235,
          "velocity": 0.6299212598425197,
          "duration": 0.1364677125000071
        },
        {
          "name": "C4",
          "midi": 60,
          "time": 105.27509250000236,
          "velocity": 0.6299212598425197,
          "duration": 0.1364677125000071
        },
        {
          "name": "D#4",
          "midi": 63,
          "time": 105.41270700000237,
          "velocity": 0.6299212598425197,
          "duration": 0.1364677125000071
        },
        {
          "name": "F#4",
          "midi": 66,
          "time": 105.55032150000238,
          "velocity": 0.6299212598425197,
          "duration": 0.1364677125000071
        },
        {
          "name": "G#5",
          "midi": 80,
          "time": 105.6879360000024,
          "velocity": 0.6299212598425197,
          "duration": 1.099769212500064
        },
        {
          "name": "D#5",
          "midi": 75,
          "time": 105.6879360000024,
          "velocity": 0.6299212598425197,
          "duration": 1.099769212500064
        },
        {
          "name": "G#4",
          "midi": 68,
          "time": 105.6879360000024,
          "velocity": 0.6299212598425197,
          "duration": 0.1364677125000071
        },
        {
          "name": "D#4",
          "midi": 63,
          "time": 105.82555050000241,
          "velocity": 0.6299212598425197,
          "duration": 0.2740822125000051
        },
        {
          "name": "D#4",
          "midi": 63,
          "time": 106.10077950000242,
          "velocity": 0.6299212598425197,
          "duration": 0.2740822125000051
        },
        {
          "name": "D#4",
          "midi": 63,
          "time": 106.37600850000243,
          "velocity": 0.6299212598425197,
          "duration": 0.1364677125000071
        },
        {
          "name": "D4",
          "midi": 62,
          "time": 106.51362300000244,
          "velocity": 0.6299212598425197,
          "duration": 0.1364677125000071
        },
        {
          "name": "D4",
          "midi": 62,
          "time": 106.65123750000245,
          "velocity": 0.6299212598425197,
          "duration": 0.1364677125000071
        },
        {
          "name": "G#4",
          "midi": 68,
          "time": 106.78885200000246,
          "velocity": 0.6299212598425197,
          "duration": 0.1364677125000071
        },
        {
          "name": "D#4",
          "midi": 63,
          "time": 106.92646650000248,
          "velocity": 0.6299212598425197,
          "duration": 0.2740822125000051
        },
        {
          "name": "D#4",
          "midi": 63,
          "time": 107.20169550000249,
          "velocity": 0.6299212598425197,
          "duration": 0.2740822125000051
        },
        {
          "name": "D#4",
          "midi": 63,
          "time": 107.4769245000025,
          "velocity": 0.6299212598425197,
          "duration": 0.1364677125000071
        },
        {
          "name": "D4",
          "midi": 62,
          "time": 107.61453900000251,
          "velocity": 0.6299212598425197,
          "duration": 0.1364677125000071
        },
        {
          "name": "D4",
          "midi": 62,
          "time": 107.75215350000252,
          "velocity": 0.6299212598425197,
          "duration": 0.1364677125000071
        },
        {
          "name": "G#4",
          "midi": 68,
          "time": 107.88976800000253,
          "velocity": 0.6299212598425197,
          "duration": 0.1364677125000071
        },
        {
          "name": "D#4",
          "midi": 63,
          "time": 108.02738250000255,
          "velocity": 0.6299212598425197,
          "duration": 0.2740822125000051
        },
        {
          "name": "D#4",
          "midi": 63,
          "time": 108.30261150000256,
          "velocity": 0.6299212598425197,
          "duration": 0.2740822125000051
        },
        {
          "name": "D#4",
          "midi": 63,
          "time": 108.57784050000257,
          "velocity": 0.6299212598425197,
          "duration": 0.1364677125000071
        },
        {
          "name": "D4",
          "midi": 62,
          "time": 108.71545500000258,
          "velocity": 0.6299212598425197,
          "duration": 0.1364677125000071
        },
        {
          "name": "D4",
          "midi": 62,
          "time": 108.85306950000259,
          "velocity": 0.6299212598425197,
          "duration": 0.1364677125000071
        },
        {
          "name": "G#4",
          "midi": 68,
          "time": 108.9906840000026,
          "velocity": 0.6299212598425197,
          "duration": 0.1364677125000071
        },
        {
          "name": "D#4",
          "midi": 63,
          "time": 109.12829850000261,
          "velocity": 0.6299212598425197,
          "duration": 0.2740822125000051
        },
        {
          "name": "D#4",
          "midi": 63,
          "time": 109.40352750000262,
          "velocity": 0.6299212598425197,
          "duration": 0.2740822125000051
        },
        {
          "name": "D#4",
          "midi": 63,
          "time": 109.67875650000263,
          "velocity": 0.6299212598425197,
          "duration": 0.1364677125000071
        },
        {
          "name": "D4",
          "midi": 62,
          "time": 109.81637100000265,
          "velocity": 0.6299212598425197,
          "duration": 0.1364677125000071
        },
        {
          "name": "D4",
          "midi": 62,
          "time": 109.95398550000266,
          "velocity": 0.6299212598425197,
          "duration": 0.1364677125000071
        },
        {
          "name": "G#5",
          "midi": 80,
          "time": 110.09160000000267,
          "velocity": 0.6299212598425197,
          "duration": 1.099769212500064
        },
        {
          "name": "D#5",
          "midi": 75,
          "time": 110.09160000000267,
          "velocity": 0.6299212598425197,
          "duration": 1.099769212500064
        },
        {
          "name": "G#4",
          "midi": 68,
          "time": 110.09160000000267,
          "velocity": 0.6299212598425197,
          "duration": 0.1364677125000071
        },
        {
          "name": "D#4",
          "midi": 63,
          "time": 110.22921450000268,
          "velocity": 0.6299212598425197,
          "duration": 0.2740822125000051
        },
        {
          "name": "D#4",
          "midi": 63,
          "time": 110.5044435000027,
          "velocity": 0.6299212598425197,
          "duration": 0.2740822125000051
        },
        {
          "name": "D#4",
          "midi": 63,
          "time": 110.7796725000027,
          "velocity": 0.6299212598425197,
          "duration": 0.1364677125000071
        },
        {
          "name": "D4",
          "midi": 62,
          "time": 110.91728700000272,
          "velocity": 0.6299212598425197,
          "duration": 0.1364677125000071
        },
        {
          "name": "D4",
          "midi": 62,
          "time": 111.05490150000273,
          "velocity": 0.6299212598425197,
          "duration": 0.1364677125000071
        },
        {
          "name": "G#4",
          "midi": 68,
          "time": 111.19251600000274,
          "velocity": 0.6299212598425197,
          "duration": 0.1364677125000071
        },
        {
          "name": "D#4",
          "midi": 63,
          "time": 111.33013050000275,
          "velocity": 0.6299212598425197,
          "duration": 0.2740822125000051
        },
        {
          "name": "D#4",
          "midi": 63,
          "time": 111.60535950000276,
          "velocity": 0.6299212598425197,
          "duration": 0.2740822125000051
        },
        {
          "name": "D#4",
          "midi": 63,
          "time": 111.88058850000277,
          "velocity": 0.6299212598425197,
          "duration": 0.1364677125000071
        },
        {
          "name": "D4",
          "midi": 62,
          "time": 112.01820300000279,
          "velocity": 0.6299212598425197,
          "duration": 0.1364677125000071
        },
        {
          "name": "D4",
          "midi": 62,
          "time": 112.1558175000028,
          "velocity": 0.6299212598425197,
          "duration": 0.1364677125000071
        },
        {
          "name": "D#4",
          "midi": 63,
          "time": 112.4998537500028,
          "velocity": 0.6299212598425197,
          "duration": 0.38417381250000915
        },
        {
          "name": "G#4",
          "midi": 68,
          "time": 112.5686610000028,
          "velocity": 0.6299212598425197,
          "duration": 0.38417381250000915
        },
        {
          "name": "F#4",
          "midi": 66,
          "time": 112.88517435000281,
          "velocity": 0.6299212598425197,
          "duration": 0.38417381250000915
        },
        {
          "name": "B4",
          "midi": 71,
          "time": 112.95398160000282,
          "velocity": 0.6299212598425197,
          "duration": 0.38417381250000915
        },
        {
          "name": "D#4",
          "midi": 63,
          "time": 113.27049495000283,
          "velocity": 0.6299212598425197,
          "duration": 0.38417381250000915
        },
        {
          "name": "G#4",
          "midi": 68,
          "time": 113.33930220000283,
          "velocity": 0.6299212598425197,
          "duration": 0.38417381250000915
        },
        {
          "name": "C#4",
          "midi": 61,
          "time": 113.65581555000284,
          "velocity": 0.6299212598425197,
          "duration": 0.38417381250000915
        },
        {
          "name": "E4",
          "midi": 64,
          "time": 113.72462280000285,
          "velocity": 0.6299212598425197,
          "duration": 0.38417381250000915
        },
        {
          "name": "B3",
          "midi": 59,
          "time": 114.04113615000286,
          "velocity": 0.6299212598425197,
          "duration": 0.38417381250000915
        },
        {
          "name": "D#4",
          "midi": 63,
          "time": 114.10994340000286,
          "velocity": 0.6299212598425197,
          "duration": 0.38417381250000915
        },
        {
          "name": "G#5",
          "midi": 80,
          "time": 114.49526400000288,
          "velocity": 0.6299212598425197,
          "duration": 1.0997692125000498
        },
        {
          "name": "D#5",
          "midi": 75,
          "time": 114.49526400000288,
          "velocity": 0.6299212598425197,
          "duration": 1.0997692125000498
        },
        {
          "name": "G#4",
          "midi": 68,
          "time": 114.49526400000288,
          "velocity": 0.6299212598425197,
          "duration": 0.1364677124999929
        },
        {
          "name": "D#4",
          "midi": 63,
          "time": 114.63287850000287,
          "velocity": 0.6299212598425197,
          "duration": 0.2740822125000051
        },
        {
          "name": "D#4",
          "midi": 63,
          "time": 114.90810750000288,
          "velocity": 0.6299212598425197,
          "duration": 0.2740822125000051
        },
        {
          "name": "D#4",
          "midi": 63,
          "time": 115.1833365000029,
          "velocity": 0.6299212598425197,
          "duration": 0.1364677125000071
        },
        {
          "name": "D4",
          "midi": 62,
          "time": 115.3209510000029,
          "velocity": 0.6299212598425197,
          "duration": 0.1364677125000071
        },
        {
          "name": "D4",
          "midi": 62,
          "time": 115.45856550000292,
          "velocity": 0.6299212598425197,
          "duration": 0.1364677125000071
        },
        {
          "name": "G#4",
          "midi": 68,
          "time": 115.59618000000293,
          "velocity": 0.6299212598425197,
          "duration": 0.1364677125000071
        },
        {
          "name": "D#4",
          "midi": 63,
          "time": 115.73379450000294,
          "velocity": 0.6299212598425197,
          "duration": 0.2740822125000051
        },
        {
          "name": "D#4",
          "midi": 63,
          "time": 116.00902350000295,
          "velocity": 0.6299212598425197,
          "duration": 0.2740822125000051
        },
        {
          "name": "D#4",
          "midi": 63,
          "time": 116.28425250000296,
          "velocity": 0.6299212598425197,
          "duration": 0.1364677125000071
        },
        {
          "name": "D4",
          "midi": 62,
          "time": 116.42186700000298,
          "velocity": 0.6299212598425197,
          "duration": 0.1364677125000071
        },
        {
          "name": "D4",
          "midi": 62,
          "time": 116.55948150000299,
          "velocity": 0.6299212598425197,
          "duration": 0.1364677125000071
        },
        {
          "name": "G#4",
          "midi": 68,
          "time": 116.697096000003,
          "velocity": 0.6299212598425197,
          "duration": 0.1364677125000071
        },
        {
          "name": "D#4",
          "midi": 63,
          "time": 116.83471050000301,
          "velocity": 0.6299212598425197,
          "duration": 0.2740822125000051
        },
        {
          "name": "D#4",
          "midi": 63,
          "time": 117.10993950000302,
          "velocity": 0.6299212598425197,
          "duration": 0.2740822125000051
        },
        {
          "name": "D#4",
          "midi": 63,
          "time": 117.38516850000303,
          "velocity": 0.6299212598425197,
          "duration": 0.1364677125000071
        },
        {
          "name": "D4",
          "midi": 62,
          "time": 117.52278300000305,
          "velocity": 0.6299212598425197,
          "duration": 0.1364677125000071
        },
        {
          "name": "D4",
          "midi": 62,
          "time": 117.66039750000306,
          "velocity": 0.6299212598425197,
          "duration": 0.1364677125000071
        },
        {
          "name": "G#4",
          "midi": 68,
          "time": 117.79801200000307,
          "velocity": 0.6299212598425197,
          "duration": 0.1364677125000071
        },
        {
          "name": "D#4",
          "midi": 63,
          "time": 117.93562650000308,
          "velocity": 0.6299212598425197,
          "duration": 0.2740822125000051
        },
        {
          "name": "D#4",
          "midi": 63,
          "time": 118.21085550000309,
          "velocity": 0.6299212598425197,
          "duration": 0.2740822125000051
        },
        {
          "name": "D#4",
          "midi": 63,
          "time": 118.4860845000031,
          "velocity": 0.6299212598425197,
          "duration": 0.1364677125000071
        },
        {
          "name": "D4",
          "midi": 62,
          "time": 118.62369900000311,
          "velocity": 0.6299212598425197,
          "duration": 0.1364677125000071
        },
        {
          "name": "D4",
          "midi": 62,
          "time": 118.76131350000313,
          "velocity": 0.6299212598425197,
          "duration": 0.1364677125000071
        },
        {
          "name": "G#5",
          "midi": 80,
          "time": 118.89892800000314,
          "velocity": 0.6299212598425197,
          "duration": 1.099769212500064
        },
        {
          "name": "D#5",
          "midi": 75,
          "time": 118.89892800000314,
          "velocity": 0.6299212598425197,
          "duration": 1.099769212500064
        },
        {
          "name": "G#4",
          "midi": 68,
          "time": 118.89892800000314,
          "velocity": 0.6299212598425197,
          "duration": 0.1364677125000071
        },
        {
          "name": "D#4",
          "midi": 63,
          "time": 119.03654250000315,
          "velocity": 0.6299212598425197,
          "duration": 0.2740822125000051
        },
        {
          "name": "D#4",
          "midi": 63,
          "time": 119.31177150000316,
          "velocity": 0.6299212598425197,
          "duration": 0.2740822125000051
        },
        {
          "name": "D#4",
          "midi": 63,
          "time": 119.58700050000317,
          "velocity": 0.6299212598425197,
          "duration": 0.1364677125000071
        },
        {
          "name": "D4",
          "midi": 62,
          "time": 119.72461500000318,
          "velocity": 0.6299212598425197,
          "duration": 0.1364677125000071
        },
        {
          "name": "D4",
          "midi": 62,
          "time": 119.8622295000032,
          "velocity": 0.6299212598425197,
          "duration": 0.1364677125000071
        },
        {
          "name": "G#4",
          "midi": 68,
          "time": 119.99984400000321,
          "velocity": 0.6299212598425197,
          "duration": 0.1364677125000071
        },
        {
          "name": "D#4",
          "midi": 63,
          "time": 120.13745850000322,
          "velocity": 0.6299212598425197,
          "duration": 0.2740822125000051
        },
        {
          "name": "D#4",
          "midi": 63,
          "time": 120.41268750000323,
          "velocity": 0.6299212598425197,
          "duration": 0.2740822125000051
        },
        {
          "name": "D#4",
          "midi": 63,
          "time": 120.68791650000324,
          "velocity": 0.6299212598425197,
          "duration": 0.1364677125000071
        },
        {
          "name": "D4",
          "midi": 62,
          "time": 120.82553100000325,
          "velocity": 0.6299212598425197,
          "duration": 0.1364677125000071
        },
        {
          "name": "D4",
          "midi": 62,
          "time": 120.96314550000326,
          "velocity": 0.6299212598425197,
          "duration": 0.1364677125000071
        },
        {
          "name": "D#4",
          "midi": 63,
          "time": 121.30718175000327,
          "velocity": 0.6299212598425197,
          "duration": 0.38417381250000915
        },
        {
          "name": "G#4",
          "midi": 68,
          "time": 121.37598900000327,
          "velocity": 0.6299212598425197,
          "duration": 0.38417381250000915
        },
        {
          "name": "F#4",
          "midi": 66,
          "time": 121.69250235000328,
          "velocity": 0.6299212598425197,
          "duration": 0.38417381250000915
        },
        {
          "name": "B4",
          "midi": 71,
          "time": 121.76130960000329,
          "velocity": 0.6299212598425197,
          "duration": 0.38417381250000915
        },
        {
          "name": "D#4",
          "midi": 63,
          "time": 122.0778229500033,
          "velocity": 0.6299212598425197,
          "duration": 0.38417381250000915
        },
        {
          "name": "G#4",
          "midi": 68,
          "time": 122.1466302000033,
          "velocity": 0.6299212598425197,
          "duration": 0.38417381250000915
        },
        {
          "name": "C#4",
          "midi": 61,
          "time": 122.46314355000331,
          "velocity": 0.6299212598425197,
          "duration": 0.38417381250000915
        },
        {
          "name": "E4",
          "midi": 64,
          "time": 122.53195080000332,
          "velocity": 0.6299212598425197,
          "duration": 0.38417381250000915
        },
        {
          "name": "B3",
          "midi": 59,
          "time": 122.84846415000332,
          "velocity": 0.6299212598425197,
          "duration": 0.38417381250000915
        },
        {
          "name": "D#4",
          "midi": 63,
          "time": 122.91727140000333,
          "velocity": 0.6299212598425197,
          "duration": 0.38417381250000915
        },
        {
          "name": "G#5",
          "midi": 80,
          "time": 123.30259200000334,
          "velocity": 0.6299212598425197,
          "duration": 1.0997692125000214
        },
        {
          "name": "D#5",
          "midi": 75,
          "time": 123.30259200000334,
          "velocity": 0.6299212598425197,
          "duration": 1.0997692125000214
        },
        {
          "name": "E4",
          "midi": 64,
          "time": 123.30259200000334,
          "velocity": 0.6299212598425197,
          "duration": 0.1364677124999929
        },
        {
          "name": "B3",
          "midi": 59,
          "time": 123.44020650000334,
          "velocity": 0.6299212598425197,
          "duration": 0.2740822125000051
        },
        {
          "name": "B3",
          "midi": 59,
          "time": 123.71543550000335,
          "velocity": 0.6299212598425197,
          "duration": 0.1364677124999929
        },
        {
          "name": "B3",
          "midi": 59,
          "time": 123.85305000000335,
          "velocity": 0.6299212598425197,
          "duration": 0.2740822125000051
        },
        {
          "name": "E4",
          "midi": 64,
          "time": 124.12827900000336,
          "velocity": 0.6299212598425197,
          "duration": 0.1364677124999929
        },
        {
          "name": "B3",
          "midi": 59,
          "time": 124.26589350000336,
          "velocity": 0.6299212598425197,
          "duration": 0.2740822125000051
        },
        {
          "name": "B3",
          "midi": 59,
          "time": 124.54112250000337,
          "velocity": 0.6299212598425197,
          "duration": 0.1364677124999929
        },
        {
          "name": "B3",
          "midi": 59,
          "time": 124.67873700000337,
          "velocity": 0.6299212598425197,
          "duration": 0.2740822125000051
        },
        {
          "name": "E4",
          "midi": 64,
          "time": 124.95396600000338,
          "velocity": 0.6299212598425197,
          "duration": 0.1364677124999929
        },
        {
          "name": "B3",
          "midi": 59,
          "time": 125.09158050000337,
          "velocity": 0.6299212598425197,
          "duration": 0.1364677125000071
        },
        {
          "name": "E4",
          "midi": 64,
          "time": 125.22919500000339,
          "velocity": 0.6299212598425197,
          "duration": 0.1364677125000071
        },
        {
          "name": "B3",
          "midi": 59,
          "time": 125.3668095000034,
          "velocity": 0.6299212598425197,
          "duration": 0.1364677125000071
        },
        {
          "name": "E4",
          "midi": 64,
          "time": 125.50442400000341,
          "velocity": 0.6299212598425197,
          "duration": 0.1364677125000071
        },
        {
          "name": "B3",
          "midi": 59,
          "time": 125.64203850000342,
          "velocity": 0.6299212598425197,
          "duration": 0.2740822125000051
        },
        {
          "name": "B3",
          "midi": 59,
          "time": 125.91726750000343,
          "velocity": 0.6299212598425197,
          "duration": 0.1364677124999929
        },
        {
          "name": "B3",
          "midi": 59,
          "time": 126.05488200000343,
          "velocity": 0.6299212598425197,
          "duration": 0.2740822125000051
        },
        {
          "name": "E4",
          "midi": 64,
          "time": 126.33011100000344,
          "velocity": 0.6299212598425197,
          "duration": 0.1364677124999929
        },
        {
          "name": "B3",
          "midi": 59,
          "time": 126.46772550000344,
          "velocity": 0.6299212598425197,
          "duration": 0.2740822125000051
        },
        {
          "name": "B3",
          "midi": 59,
          "time": 126.74295450000345,
          "velocity": 0.6299212598425197,
          "duration": 0.1364677124999929
        },
        {
          "name": "B3",
          "midi": 59,
          "time": 126.88056900000345,
          "velocity": 0.6299212598425197,
          "duration": 0.2740822125000051
        },
        {
          "name": "D4",
          "midi": 62,
          "time": 127.15579800000346,
          "velocity": 0.6299212598425197,
          "duration": 0.1364677124999929
        },
        {
          "name": "A3",
          "midi": 57,
          "time": 127.29341250000346,
          "velocity": 0.6299212598425197,
          "duration": 0.2740822125000051
        },
        {
          "name": "A3",
          "midi": 57,
          "time": 127.56864150000347,
          "velocity": 0.6299212598425197,
          "duration": 0.1364677124999929
        },
        {
          "name": "A3",
          "midi": 57,
          "time": 127.70625600000346,
          "velocity": 0.6299212598425197,
          "duration": 0.2740822125000051
        },
        {
          "name": "A#3",
          "midi": 58,
          "time": 127.98148500000347,
          "velocity": 0.6299212598425197,
          "duration": 0.1364677124999929
        },
        {
          "name": "F3",
          "midi": 53,
          "time": 128.11909950000347,
          "velocity": 0.6299212598425197,
          "duration": 0.1364677125000071
        },
        {
          "name": "F#3",
          "midi": 54,
          "time": 128.25671400000348,
          "velocity": 0.6299212598425197,
          "duration": 0.1364677125000071
        },
        {
          "name": "F3",
          "midi": 53,
          "time": 128.3943285000035,
          "velocity": 0.6299212598425197,
          "duration": 0.1364677125000071
        },
        {
          "name": "D3",
          "midi": 50,
          "time": 128.5319430000035,
          "velocity": 0.6299212598425197,
          "duration": 0.1364677125000071
        },
        {
          "name": "A2",
          "midi": 45,
          "time": 128.66955750000352,
          "velocity": 0.6299212598425197,
          "duration": 0.1364677125000071
        },
        {
          "name": "A#2",
          "midi": 46,
          "time": 128.80717200000353,
          "velocity": 0.6299212598425197,
          "duration": 0.1364677125000071
        },
        {
          "name": "A2",
          "midi": 45,
          "time": 128.94478650000354,
          "velocity": 0.6299212598425197,
          "duration": 0.1364677125000071
        },
        {
          "name": "F#2",
          "midi": 42,
          "time": 129.08240100000356,
          "velocity": 0.6299212598425197,
          "duration": 0.1364677125000071
        },
        {
          "name": "C#2",
          "midi": 37,
          "time": 129.22001550000357,
          "velocity": 0.6299212598425197,
          "duration": 0.1364677125000071
        },
        {
          "name": "D2",
          "midi": 38,
          "time": 129.35763000000358,
          "velocity": 0.6299212598425197,
          "duration": 0.1364677125000071
        },
        {
          "name": "C#2",
          "midi": 37,
          "time": 129.4952445000036,
          "velocity": 0.6299212598425197,
          "duration": 0.1364677125000071
        },
        {
          "name": "F#1",
          "midi": 30,
          "time": 129.6328590000036,
          "velocity": 0.6299212598425197,
          "duration": 0.1364677125000071
        },
        {
          "name": "C1",
          "midi": 24,
          "time": 129.77047350000362,
          "velocity": 0.6299212598425197,
          "duration": 0.1364677125000071
        },
        {
          "name": "C1",
          "midi": 24,
          "time": 129.90808800000363,
          "velocity": 0.6299212598425197,
          "duration": 1.0997692125000071
        }
      ],
      "controlChanges": {
        "7": [
          {
            "number": 7,
            "time": 0.002293575,
            "value": 0.7874015748031497
          }
        ],
        "10": [
          {
            "number": 10,
            "time": 0.00458715,
            "value": 0.5039370078740157
          }
        ],
        "91": [
          {
            "number": 91,
            "time": 0.006880725,
            "value": 0.23622047244094488
          }
        ],
        "93": [
          {
            "number": 93,
            "time": 0.0091743,
            "value": 0.23622047244094488
          }
        ]
      }
    },
    {
      "startTime": 0,
      "duration": 131.00785721250185,
      "length": 726,
      "id": 1,
      "channelNumber": 0,
      "isPercussion": false,
      "notes": [
        {
          "name": "D#2",
          "midi": 39,
          "time": 0,
          "velocity": 0.6299212598425197,
          "duration": 0.27408221250000003
        },
        {
          "name": "D#3",
          "midi": 51,
          "time": 0.27522900000000006,
          "velocity": 0.6299212598425197,
          "duration": 0.2740822125000001
        },
        {
          "name": "G#2",
          "midi": 44,
          "time": 0.27522900000000006,
          "velocity": 0.6299212598425197,
          "duration": 0.2740822125000001
        },
        {
          "name": "D2",
          "midi": 38,
          "time": 0.5504580000000001,
          "velocity": 0.6299212598425197,
          "duration": 0.2740822125
        },
        {
          "name": "D3",
          "midi": 50,
          "time": 0.8256870000000001,
          "velocity": 0.6299212598425197,
          "duration": 0.2740822125
        },
        {
          "name": "G2",
          "midi": 43,
          "time": 0.8256870000000001,
          "velocity": 0.6299212598425197,
          "duration": 0.2740822125
        },
        {
          "name": "D#2",
          "midi": 39,
          "time": 1.100916,
          "velocity": 0.6299212598425197,
          "duration": 0.2740822125
        },
        {
          "name": "D#3",
          "midi": 51,
          "time": 1.376145,
          "velocity": 0.6299212598425197,
          "duration": 0.2740822125
        },
        {
          "name": "G#2",
          "midi": 44,
          "time": 1.376145,
          "velocity": 0.6299212598425197,
          "duration": 0.2740822125
        },
        {
          "name": "D2",
          "midi": 38,
          "time": 1.651374,
          "velocity": 0.6299212598425197,
          "duration": 0.2740822125
        },
        {
          "name": "D3",
          "midi": 50,
          "time": 1.9266029999999998,
          "velocity": 0.6299212598425197,
          "duration": 0.2740822125
        },
        {
          "name": "G2",
          "midi": 43,
          "time": 1.9266029999999998,
          "velocity": 0.6299212598425197,
          "duration": 0.2740822125
        },
        {
          "name": "D#2",
          "midi": 39,
          "time": 2.201832,
          "velocity": 0.6299212598425197,
          "duration": 0.2740822125000002
        },
        {
          "name": "D#3",
          "midi": 51,
          "time": 2.4770610000000004,
          "velocity": 0.6299212598425197,
          "duration": 0.2740822125000002
        },
        {
          "name": "G#2",
          "midi": 44,
          "time": 2.4770610000000004,
          "velocity": 0.6299212598425197,
          "duration": 0.2740822125000002
        },
        {
          "name": "D2",
          "midi": 38,
          "time": 2.752290000000001,
          "velocity": 0.6299212598425197,
          "duration": 0.2740822125000002
        },
        {
          "name": "D3",
          "midi": 50,
          "time": 3.027519000000001,
          "velocity": 0.6299212598425197,
          "duration": 0.2740822125000002
        },
        {
          "name": "G2",
          "midi": 43,
          "time": 3.027519000000001,
          "velocity": 0.6299212598425197,
          "duration": 0.2740822125000002
        },
        {
          "name": "D#2",
          "midi": 39,
          "time": 3.3027480000000016,
          "velocity": 0.6299212598425197,
          "duration": 0.2740822125000002
        },
        {
          "name": "D#3",
          "midi": 51,
          "time": 3.577977000000002,
          "velocity": 0.6299212598425197,
          "duration": 0.1364677125
        },
        {
          "name": "G#2",
          "midi": 44,
          "time": 3.577977000000002,
          "velocity": 0.6299212598425197,
          "duration": 0.1364677125
        },
        {
          "name": "E3",
          "midi": 52,
          "time": 3.715591500000002,
          "velocity": 0.6299212598425197,
          "duration": 0.2740822125000002
        },
        {
          "name": "A2",
          "midi": 45,
          "time": 3.715591500000002,
          "velocity": 0.6299212598425197,
          "duration": 0.2740822125000002
        },
        {
          "name": "E3",
          "midi": 52,
          "time": 4.128435000000002,
          "velocity": 0.6299212598425197,
          "duration": 0.27408221249999976
        },
        {
          "name": "A2",
          "midi": 45,
          "time": 4.128435000000002,
          "velocity": 0.6299212598425197,
          "duration": 0.27408221249999976
        },
        {
          "name": "D#2",
          "midi": 39,
          "time": 4.403664000000002,
          "velocity": 0.6299212598425197,
          "duration": 0.27408221249999976
        },
        {
          "name": "D#3",
          "midi": 51,
          "time": 4.678893000000001,
          "velocity": 0.6299212598425197,
          "duration": 0.27408221249999976
        },
        {
          "name": "G#2",
          "midi": 44,
          "time": 4.678893000000001,
          "velocity": 0.6299212598425197,
          "duration": 0.27408221249999976
        },
        {
          "name": "D2",
          "midi": 38,
          "time": 4.954122000000001,
          "velocity": 0.6299212598425197,
          "duration": 0.27408221249999976
        },
        {
          "name": "D3",
          "midi": 50,
          "time": 5.229351,
          "velocity": 0.6299212598425197,
          "duration": 0.27408221249999976
        },
        {
          "name": "G2",
          "midi": 43,
          "time": 5.229351,
          "velocity": 0.6299212598425197,
          "duration": 0.27408221249999976
        },
        {
          "name": "D#2",
          "midi": 39,
          "time": 5.50458,
          "velocity": 0.6299212598425197,
          "duration": 0.27408221249999976
        },
        {
          "name": "D#3",
          "midi": 51,
          "time": 5.779808999999999,
          "velocity": 0.6299212598425197,
          "duration": 0.4116967125000004
        },
        {
          "name": "G#2",
          "midi": 44,
          "time": 5.779808999999999,
          "velocity": 0.6299212598425197,
          "duration": 0.4116967125000004
        },
        {
          "name": "D#2",
          "midi": 39,
          "time": 6.4678815,
          "velocity": 0.6299212598425197,
          "duration": 0.1364677125
        },
        {
          "name": "G#3",
          "midi": 56,
          "time": 6.605496,
          "velocity": 0.6299212598425197,
          "duration": 0.5493112125000001
        },
        {
          "name": "D#3",
          "midi": 51,
          "time": 6.605496,
          "velocity": 0.6299212598425197,
          "duration": 0.5493112125000001
        },
        {
          "name": "G#2",
          "midi": 44,
          "time": 6.605496,
          "velocity": 0.6299212598425197,
          "duration": 0.5493112125000001
        },
        {
          "name": "B4",
          "midi": 71,
          "time": 8.532098999999999,
          "velocity": 0.6299212598425197,
          "duration": 0.06766046249999924
        },
        {
          "name": "G#4",
          "midi": 68,
          "time": 8.600906249999998,
          "velocity": 0.6299212598425197,
          "duration": 0.1364677125
        },
        {
          "name": "A#3",
          "midi": 58,
          "time": 8.807327999999998,
          "velocity": 0.6299212598425197,
          "duration": 1.0997692124999983
        },
        {
          "name": "D#2",
          "midi": 39,
          "time": 8.807327999999998,
          "velocity": 0.6299212598425197,
          "duration": 0.27408221249999976
        },
        {
          "name": "D#3",
          "midi": 51,
          "time": 9.082556999999998,
          "velocity": 0.6299212598425197,
          "duration": 0.27408221249999976
        },
        {
          "name": "A#2",
          "midi": 46,
          "time": 9.082556999999998,
          "velocity": 0.6299212598425197,
          "duration": 0.27408221249999976
        },
        {
          "name": "D#2",
          "midi": 39,
          "time": 9.357785999999997,
          "velocity": 0.6299212598425197,
          "duration": 0.27408221249999976
        },
        {
          "name": "D#3",
          "midi": 51,
          "time": 9.633014999999997,
          "velocity": 0.6299212598425197,
          "duration": 0.27408221249999976
        },
        {
          "name": "A#2",
          "midi": 46,
          "time": 9.633014999999997,
          "velocity": 0.6299212598425197,
          "duration": 0.27408221249999976
        },
        {
          "name": "G#3",
          "midi": 56,
          "time": 9.908243999999996,
          "velocity": 0.6299212598425197,
          "duration": 0.8245402124999988
        },
        {
          "name": "C2",
          "midi": 36,
          "time": 9.908243999999996,
          "velocity": 0.6299212598425197,
          "duration": 0.27408221249999976
        },
        {
          "name": "D#3",
          "midi": 51,
          "time": 10.183472999999996,
          "velocity": 0.6299212598425197,
          "duration": 0.27408221249999976
        },
        {
          "name": "G#2",
          "midi": 44,
          "time": 10.183472999999996,
          "velocity": 0.6299212598425197,
          "duration": 0.27408221249999976
        },
        {
          "name": "A#1",
          "midi": 34,
          "time": 10.458701999999995,
          "velocity": 0.6299212598425197,
          "duration": 0.27408221249999976
        },
        {
          "name": "F#3",
          "midi": 54,
          "time": 10.733930999999995,
          "velocity": 0.6299212598425197,
          "duration": 0.27408221249999976
        },
        {
          "name": "C#3",
          "midi": 49,
          "time": 10.733930999999995,
          "velocity": 0.6299212598425197,
          "duration": 0.27408221249999976
        },
        {
          "name": "F#2",
          "midi": 42,
          "time": 10.733930999999995,
          "velocity": 0.6299212598425197,
          "duration": 0.27408221249999976
        },
        {
          "name": "A#3",
          "midi": 58,
          "time": 11.009159999999994,
          "velocity": 0.6299212598425197,
          "duration": 1.0997692124999983
        },
        {
          "name": "D#2",
          "midi": 39,
          "time": 11.009159999999994,
          "velocity": 0.6299212598425197,
          "duration": 0.27408221249999976
        },
        {
          "name": "D#3",
          "midi": 51,
          "time": 11.284388999999994,
          "velocity": 0.6299212598425197,
          "duration": 0.27408221249999976
        },
        {
          "name": "A#2",
          "midi": 46,
          "time": 11.284388999999994,
          "velocity": 0.6299212598425197,
          "duration": 0.27408221249999976
        },
        {
          "name": "D#2",
          "midi": 39,
          "time": 11.559617999999993,
          "velocity": 0.6299212598425197,
          "duration": 0.27408221249999976
        },
        {
          "name": "D#3",
          "midi": 51,
          "time": 11.834846999999993,
          "velocity": 0.6299212598425197,
          "duration": 0.27408221249999976
        },
        {
          "name": "A#2",
          "midi": 46,
          "time": 11.834846999999993,
          "velocity": 0.6299212598425197,
          "duration": 0.27408221249999976
        },
        {
          "name": "G#3",
          "midi": 56,
          "time": 12.110075999999992,
          "velocity": 0.6299212598425197,
          "duration": 0.8245402124999988
        },
        {
          "name": "C2",
          "midi": 36,
          "time": 12.110075999999992,
          "velocity": 0.6299212598425197,
          "duration": 0.27408221249999976
        },
        {
          "name": "D#3",
          "midi": 51,
          "time": 12.385304999999992,
          "velocity": 0.6299212598425197,
          "duration": 0.27408221249999976
        },
        {
          "name": "G#2",
          "midi": 44,
          "time": 12.385304999999992,
          "velocity": 0.6299212598425197,
          "duration": 0.27408221249999976
        },
        {
          "name": "A#1",
          "midi": 34,
          "time": 12.660533999999991,
          "velocity": 0.6299212598425197,
          "duration": 0.27408221249999976
        },
        {
          "name": "F#3",
          "midi": 54,
          "time": 12.93576299999999,
          "velocity": 0.6299212598425197,
          "duration": 0.27408221249999976
        },
        {
          "name": "C#3",
          "midi": 49,
          "time": 12.93576299999999,
          "velocity": 0.6299212598425197,
          "duration": 0.27408221249999976
        },
        {
          "name": "F#2",
          "midi": 42,
          "time": 12.93576299999999,
          "velocity": 0.6299212598425197,
          "duration": 0.27408221249999976
        },
        {
          "name": "A#3",
          "midi": 58,
          "time": 13.21099199999999,
          "velocity": 0.6299212598425197,
          "duration": 1.0997692124999983
        },
        {
          "name": "D#2",
          "midi": 39,
          "time": 13.21099199999999,
          "velocity": 0.6299212598425197,
          "duration": 0.27408221249999976
        },
        {
          "name": "D#3",
          "midi": 51,
          "time": 13.48622099999999,
          "velocity": 0.6299212598425197,
          "duration": 0.27408221249999976
        },
        {
          "name": "A#2",
          "midi": 46,
          "time": 13.48622099999999,
          "velocity": 0.6299212598425197,
          "duration": 0.27408221249999976
        },
        {
          "name": "D#2",
          "midi": 39,
          "time": 13.76144999999999,
          "velocity": 0.6299212598425197,
          "duration": 0.27408221249999976
        },
        {
          "name": "D#3",
          "midi": 51,
          "time": 14.036678999999989,
          "velocity": 0.6299212598425197,
          "duration": 0.27408221249999976
        },
        {
          "name": "A#2",
          "midi": 46,
          "time": 14.036678999999989,
          "velocity": 0.6299212598425197,
          "duration": 0.27408221249999976
        },
        {
          "name": "G#3",
          "midi": 56,
          "time": 14.311907999999988,
          "velocity": 0.6299212598425197,
          "duration": 0.8245402124999988
        },
        {
          "name": "C2",
          "midi": 36,
          "time": 14.311907999999988,
          "velocity": 0.6299212598425197,
          "duration": 0.27408221249999976
        },
        {
          "name": "D#3",
          "midi": 51,
          "time": 14.587136999999988,
          "velocity": 0.6299212598425197,
          "duration": 0.27408221249999976
        },
        {
          "name": "G#2",
          "midi": 44,
          "time": 14.587136999999988,
          "velocity": 0.6299212598425197,
          "duration": 0.27408221249999976
        },
        {
          "name": "A#1",
          "midi": 34,
          "time": 14.862365999999987,
          "velocity": 0.6299212598425197,
          "duration": 0.27408221249999976
        },
        {
          "name": "F#3",
          "midi": 54,
          "time": 15.137594999999987,
          "velocity": 0.6299212598425197,
          "duration": 0.27408221249999976
        },
        {
          "name": "C#3",
          "midi": 49,
          "time": 15.137594999999987,
          "velocity": 0.6299212598425197,
          "duration": 0.27408221249999976
        },
        {
          "name": "F#2",
          "midi": 42,
          "time": 15.137594999999987,
          "velocity": 0.6299212598425197,
          "duration": 0.27408221249999976
        },
        {
          "name": "A#3",
          "midi": 58,
          "time": 15.412823999999986,
          "velocity": 0.6299212598425197,
          "duration": 1.0997692125000036
        },
        {
          "name": "D#2",
          "midi": 39,
          "time": 15.412823999999986,
          "velocity": 0.6299212598425197,
          "duration": 0.27408221249999976
        },
        {
          "name": "D#3",
          "midi": 51,
          "time": 15.688052999999986,
          "velocity": 0.6299212598425197,
          "duration": 0.27408221249999976
        },
        {
          "name": "A#2",
          "midi": 46,
          "time": 15.688052999999986,
          "velocity": 0.6299212598425197,
          "duration": 0.27408221249999976
        },
        {
          "name": "D#2",
          "midi": 39,
          "time": 15.963281999999985,
          "velocity": 0.6299212598425197,
          "duration": 0.27408221250000153
        },
        {
          "name": "D#3",
          "midi": 51,
          "time": 16.23851099999999,
          "velocity": 0.6299212598425197,
          "duration": 0.27408221250000153
        },
        {
          "name": "A#2",
          "midi": 46,
          "time": 16.23851099999999,
          "velocity": 0.6299212598425197,
          "duration": 0.27408221250000153
        },
        {
          "name": "G#3",
          "midi": 56,
          "time": 16.51373999999999,
          "velocity": 0.6299212598425197,
          "duration": 1.0997692125000107
        },
        {
          "name": "C2",
          "midi": 36,
          "time": 16.51373999999999,
          "velocity": 0.6299212598425197,
          "duration": 0.27408221250000153
        },
        {
          "name": "D#3",
          "midi": 51,
          "time": 16.788968999999994,
          "velocity": 0.6299212598425197,
          "duration": 0.27408221250000153
        },
        {
          "name": "G#2",
          "midi": 44,
          "time": 16.788968999999994,
          "velocity": 0.6299212598425197,
          "duration": 0.27408221250000153
        },
        {
          "name": "D#2",
          "midi": 39,
          "time": 17.064197999999998,
          "velocity": 0.6299212598425197,
          "duration": 0.27408221250000153
        },
        {
          "name": "D#3",
          "midi": 51,
          "time": 17.339427,
          "velocity": 0.6299212598425197,
          "duration": 0.27408221250000153
        },
        {
          "name": "A#2",
          "midi": 46,
          "time": 17.339427,
          "velocity": 0.6299212598425197,
          "duration": 0.27408221250000153
        },
        {
          "name": "D#2",
          "midi": 39,
          "time": 17.614656000000004,
          "velocity": 0.6299212598425197,
          "duration": 0.27408221250000153
        },
        {
          "name": "D#3",
          "midi": 51,
          "time": 17.889885000000007,
          "velocity": 0.6299212598425197,
          "duration": 0.27408221250000153
        },
        {
          "name": "A#2",
          "midi": 46,
          "time": 17.889885000000007,
          "velocity": 0.6299212598425197,
          "duration": 0.27408221250000153
        },
        {
          "name": "D#2",
          "midi": 39,
          "time": 18.16511400000001,
          "velocity": 0.6299212598425197,
          "duration": 0.27408221250000153
        },
        {
          "name": "D#3",
          "midi": 51,
          "time": 18.440343000000013,
          "velocity": 0.6299212598425197,
          "duration": 0.27408221250000153
        },
        {
          "name": "A#2",
          "midi": 46,
          "time": 18.440343000000013,
          "velocity": 0.6299212598425197,
          "duration": 0.27408221250000153
        },
        {
          "name": "D#2",
          "midi": 39,
          "time": 18.715572000000016,
          "velocity": 0.6299212598425197,
          "duration": 0.27408221250000153
        },
        {
          "name": "D#3",
          "midi": 51,
          "time": 18.99080100000002,
          "velocity": 0.6299212598425197,
          "duration": 0.27408221250000153
        },
        {
          "name": "A#2",
          "midi": 46,
          "time": 18.99080100000002,
          "velocity": 0.6299212598425197,
          "duration": 0.27408221250000153
        },
        {
          "name": "D#2",
          "midi": 39,
          "time": 19.266030000000022,
          "velocity": 0.6299212598425197,
          "duration": 0.27408221250000153
        },
        {
          "name": "D#3",
          "midi": 51,
          "time": 19.541259000000025,
          "velocity": 0.6299212598425197,
          "duration": 0.27408221250000153
        },
        {
          "name": "A#2",
          "midi": 46,
          "time": 19.541259000000025,
          "velocity": 0.6299212598425197,
          "duration": 0.27408221250000153
        },
        {
          "name": "D#2",
          "midi": 39,
          "time": 19.816488000000028,
          "velocity": 0.6299212598425197,
          "duration": 0.27408221250000153
        },
        {
          "name": "D#3",
          "midi": 51,
          "time": 20.09171700000003,
          "velocity": 0.6299212598425197,
          "duration": 0.27408221250000153
        },
        {
          "name": "A#2",
          "midi": 46,
          "time": 20.09171700000003,
          "velocity": 0.6299212598425197,
          "duration": 0.27408221250000153
        },
        {
          "name": "D#2",
          "midi": 39,
          "time": 20.366946000000034,
          "velocity": 0.6299212598425197,
          "duration": 0.27408221250000153
        },
        {
          "name": "D#3",
          "midi": 51,
          "time": 20.642175000000037,
          "velocity": 0.6299212598425197,
          "duration": 0.27408221250000153
        },
        {
          "name": "A#2",
          "midi": 46,
          "time": 20.642175000000037,
          "velocity": 0.6299212598425197,
          "duration": 0.27408221250000153
        },
        {
          "name": "D#2",
          "midi": 39,
          "time": 20.91740400000004,
          "velocity": 0.6299212598425197,
          "duration": 0.27408221250000153
        },
        {
          "name": "D#3",
          "midi": 51,
          "time": 21.192633000000043,
          "velocity": 0.6299212598425197,
          "duration": 0.27408221250000153
        },
        {
          "name": "A#2",
          "midi": 46,
          "time": 21.192633000000043,
          "velocity": 0.6299212598425197,
          "duration": 0.27408221250000153
        },
        {
          "name": "D#2",
          "midi": 39,
          "time": 21.467862000000046,
          "velocity": 0.6299212598425197,
          "duration": 0.27408221250000153
        },
        {
          "name": "D#3",
          "midi": 51,
          "time": 21.74309100000005,
          "velocity": 0.6299212598425197,
          "duration": 0.27408221250000153
        },
        {
          "name": "A#2",
          "midi": 46,
          "time": 21.74309100000005,
          "velocity": 0.6299212598425197,
          "duration": 0.27408221250000153
        },
        {
          "name": "D#2",
          "midi": 39,
          "time": 22.018320000000053,
          "velocity": 0.6299212598425197,
          "duration": 0.27408221250000153
        },
        {
          "name": "D#3",
          "midi": 51,
          "time": 22.293549000000056,
          "velocity": 0.6299212598425197,
          "duration": 0.27408221250000153
        },
        {
          "name": "A#2",
          "midi": 46,
          "time": 22.293549000000056,
          "velocity": 0.6299212598425197,
          "duration": 0.27408221250000153
        },
        {
          "name": "D#2",
          "midi": 39,
          "time": 22.56877800000006,
          "velocity": 0.6299212598425197,
          "duration": 0.27408221250000153
        },
        {
          "name": "D#3",
          "midi": 51,
          "time": 22.84400700000006,
          "velocity": 0.6299212598425197,
          "duration": 0.27408221250000153
        },
        {
          "name": "A#2",
          "midi": 46,
          "time": 22.84400700000006,
          "velocity": 0.6299212598425197,
          "duration": 0.27408221250000153
        },
        {
          "name": "D#2",
          "midi": 39,
          "time": 23.119236000000065,
          "velocity": 0.6299212598425197,
          "duration": 0.27408221250000153
        },
        {
          "name": "D#3",
          "midi": 51,
          "time": 23.394465000000068,
          "velocity": 0.6299212598425197,
          "duration": 0.27408221250000153
        },
        {
          "name": "A#2",
          "midi": 46,
          "time": 23.394465000000068,
          "velocity": 0.6299212598425197,
          "duration": 0.27408221250000153
        },
        {
          "name": "D#2",
          "midi": 39,
          "time": 23.66969400000007,
          "velocity": 0.6299212598425197,
          "duration": 0.27408221250000153
        },
        {
          "name": "D#3",
          "midi": 51,
          "time": 23.944923000000074,
          "velocity": 0.6299212598425197,
          "duration": 0.27408221250000153
        },
        {
          "name": "A#2",
          "midi": 46,
          "time": 23.944923000000074,
          "velocity": 0.6299212598425197,
          "duration": 0.27408221250000153
        },
        {
          "name": "G#3",
          "midi": 56,
          "time": 24.220152000000077,
          "velocity": 0.6299212598425197,
          "duration": 0.8245402125000076
        },
        {
          "name": "D#2",
          "midi": 39,
          "time": 24.220152000000077,
          "velocity": 0.6299212598425197,
          "duration": 0.27408221250000153
        },
        {
          "name": "D#3",
          "midi": 51,
          "time": 24.49538100000008,
          "velocity": 0.6299212598425197,
          "duration": 0.27408221250000153
        },
        {
          "name": "G#2",
          "midi": 44,
          "time": 24.49538100000008,
          "velocity": 0.6299212598425197,
          "duration": 0.27408221250000153
        },
        {
          "name": "A1",
          "midi": 33,
          "time": 24.770610000000083,
          "velocity": 0.6299212598425197,
          "duration": 0.27408221250000153
        },
        {
          "name": "F#3",
          "midi": 54,
          "time": 25.045839000000086,
          "velocity": 0.6299212598425197,
          "duration": 0.27408221250000153
        },
        {
          "name": "A#2",
          "midi": 46,
          "time": 25.045839000000086,
          "velocity": 0.6299212598425197,
          "duration": 0.27408221250000153
        },
        {
          "name": "D#2",
          "midi": 39,
          "time": 25.045839000000086,
          "velocity": 0.6299212598425197,
          "duration": 0.27408221250000153
        },
        {
          "name": "A#3",
          "midi": 58,
          "time": 25.32106800000009,
          "velocity": 0.6299212598425197,
          "duration": 1.0997692125000107
        },
        {
          "name": "D#3",
          "midi": 51,
          "time": 25.32106800000009,
          "velocity": 0.6299212598425197,
          "duration": 0.27408221250000153
        },
        {
          "name": "D#2",
          "midi": 39,
          "time": 25.32106800000009,
          "velocity": 0.6299212598425197,
          "duration": 0.27408221250000153
        },
        {
          "name": "D#3",
          "midi": 51,
          "time": 25.596297000000092,
          "velocity": 0.6299212598425197,
          "duration": 0.27408221250000153
        },
        {
          "name": "D#2",
          "midi": 39,
          "time": 25.596297000000092,
          "velocity": 0.6299212598425197,
          "duration": 0.27408221250000153
        },
        {
          "name": "D#3",
          "midi": 51,
          "time": 25.871526000000095,
          "velocity": 0.6299212598425197,
          "duration": 0.27408221250000153
        },
        {
          "name": "D#2",
          "midi": 39,
          "time": 25.871526000000095,
          "velocity": 0.6299212598425197,
          "duration": 0.27408221250000153
        },
        {
          "name": "D#3",
          "midi": 51,
          "time": 26.1467550000001,
          "velocity": 0.6299212598425197,
          "duration": 0.27408221250000153
        },
        {
          "name": "D#2",
          "midi": 39,
          "time": 26.1467550000001,
          "velocity": 0.6299212598425197,
          "duration": 0.27408221250000153
        },
        {
          "name": "D#2",
          "midi": 39,
          "time": 26.4219840000001,
          "velocity": 0.6299212598425197,
          "duration": 0.27408221250000153
        },
        {
          "name": "D#3",
          "midi": 51,
          "time": 26.697213000000104,
          "velocity": 0.6299212598425197,
          "duration": 0.549311212500001
        },
        {
          "name": "G#2",
          "midi": 44,
          "time": 26.697213000000104,
          "velocity": 0.6299212598425197,
          "duration": 0.549311212500001
        },
        {
          "name": "D#3",
          "midi": 51,
          "time": 27.247671000000107,
          "velocity": 0.6299212598425197,
          "duration": 0.27408221250000153
        },
        {
          "name": "G#2",
          "midi": 44,
          "time": 27.247671000000107,
          "velocity": 0.6299212598425197,
          "duration": 0.27408221250000153
        },
        {
          "name": "D#2",
          "midi": 39,
          "time": 27.52290000000011,
          "velocity": 0.6299212598425197,
          "duration": 0.27408221250000153
        },
        {
          "name": "D#3",
          "midi": 51,
          "time": 27.798129000000113,
          "velocity": 0.6299212598425197,
          "duration": 0.549311212500001
        },
        {
          "name": "G#2",
          "midi": 44,
          "time": 27.798129000000113,
          "velocity": 0.6299212598425197,
          "duration": 0.549311212500001
        },
        {
          "name": "D#3",
          "midi": 51,
          "time": 28.348587000000116,
          "velocity": 0.6299212598425197,
          "duration": 0.27408221250000153
        },
        {
          "name": "G#2",
          "midi": 44,
          "time": 28.348587000000116,
          "velocity": 0.6299212598425197,
          "duration": 0.27408221250000153
        },
        {
          "name": "D#2",
          "midi": 39,
          "time": 28.62381600000012,
          "velocity": 0.6299212598425197,
          "duration": 0.27408221250000153
        },
        {
          "name": "D#3",
          "midi": 51,
          "time": 28.89904500000012,
          "velocity": 0.6299212598425197,
          "duration": 0.549311212500001
        },
        {
          "name": "G#2",
          "midi": 44,
          "time": 28.89904500000012,
          "velocity": 0.6299212598425197,
          "duration": 0.549311212500001
        },
        {
          "name": "D#3",
          "midi": 51,
          "time": 29.449503000000124,
          "velocity": 0.6299212598425197,
          "duration": 0.27408221250000153
        },
        {
          "name": "G#2",
          "midi": 44,
          "time": 29.449503000000124,
          "velocity": 0.6299212598425197,
          "duration": 0.27408221250000153
        },
        {
          "name": "D#2",
          "midi": 39,
          "time": 29.724732000000127,
          "velocity": 0.6299212598425197,
          "duration": 0.27408221250000153
        },
        {
          "name": "D#3",
          "midi": 51,
          "time": 29.99996100000013,
          "velocity": 0.6299212598425197,
          "duration": 0.549311212500001
        },
        {
          "name": "G#2",
          "midi": 44,
          "time": 29.99996100000013,
          "velocity": 0.6299212598425197,
          "duration": 0.549311212500001
        },
        {
          "name": "D#3",
          "midi": 51,
          "time": 30.550419000000133,
          "velocity": 0.6299212598425197,
          "duration": 0.27408221250000153
        },
        {
          "name": "G#2",
          "midi": 44,
          "time": 30.550419000000133,
          "velocity": 0.6299212598425197,
          "duration": 0.27408221250000153
        },
        {
          "name": "D#2",
          "midi": 39,
          "time": 30.825648000000136,
          "velocity": 0.6299212598425197,
          "duration": 0.27408221250000153
        },
        {
          "name": "D#3",
          "midi": 51,
          "time": 31.10087700000014,
          "velocity": 0.6299212598425197,
          "duration": 0.549311212500001
        },
        {
          "name": "G#2",
          "midi": 44,
          "time": 31.10087700000014,
          "velocity": 0.6299212598425197,
          "duration": 0.549311212500001
        },
        {
          "name": "D#3",
          "midi": 51,
          "time": 31.65133500000014,
          "velocity": 0.6299212598425197,
          "duration": 0.27408221250000153
        },
        {
          "name": "G#2",
          "midi": 44,
          "time": 31.65133500000014,
          "velocity": 0.6299212598425197,
          "duration": 0.27408221250000153
        },
        {
          "name": "D#2",
          "midi": 39,
          "time": 31.926564000000145,
          "velocity": 0.6299212598425197,
          "duration": 0.27408221250000153
        },
        {
          "name": "D#3",
          "midi": 51,
          "time": 32.201793000000144,
          "velocity": 0.6299212598425197,
          "duration": 0.549311212500001
        },
        {
          "name": "G#2",
          "midi": 44,
          "time": 32.201793000000144,
          "velocity": 0.6299212598425197,
          "duration": 0.549311212500001
        },
        {
          "name": "D#3",
          "midi": 51,
          "time": 32.75225100000014,
          "velocity": 0.6299212598425197,
          "duration": 0.274082212499998
        },
        {
          "name": "G#2",
          "midi": 44,
          "time": 32.75225100000014,
          "velocity": 0.6299212598425197,
          "duration": 0.274082212499998
        },
        {
          "name": "D#2",
          "midi": 39,
          "time": 33.02748000000014,
          "velocity": 0.6299212598425197,
          "duration": 0.274082212499998
        },
        {
          "name": "G#2",
          "midi": 44,
          "time": 33.302709000000135,
          "velocity": 0.6299212598425197,
          "duration": 0.274082212499998
        },
        {
          "name": "G#3",
          "midi": 56,
          "time": 33.57793800000013,
          "velocity": 0.6299212598425197,
          "duration": 0.274082212499998
        },
        {
          "name": "D#3",
          "midi": 51,
          "time": 33.57793800000013,
          "velocity": 0.6299212598425197,
          "duration": 0.274082212499998
        },
        {
          "name": "G#3",
          "midi": 56,
          "time": 33.85316700000013,
          "velocity": 0.6299212598425197,
          "duration": 0.274082212499998
        },
        {
          "name": "D#3",
          "midi": 51,
          "time": 33.85316700000013,
          "velocity": 0.6299212598425197,
          "duration": 0.274082212499998
        },
        {
          "name": "D#2",
          "midi": 39,
          "time": 34.12839600000012,
          "velocity": 0.6299212598425197,
          "duration": 0.549311212500001
        },
        {
          "name": "G#3",
          "midi": 56,
          "time": 34.67885400000012,
          "velocity": 0.6299212598425197,
          "duration": 0.549311212500001
        },
        {
          "name": "D#3",
          "midi": 51,
          "time": 34.67885400000012,
          "velocity": 0.6299212598425197,
          "duration": 0.549311212500001
        },
        {
          "name": "D#2",
          "midi": 39,
          "time": 35.22931200000012,
          "velocity": 0.6299212598425197,
          "duration": 0.274082212499998
        },
        {
          "name": "D#3",
          "midi": 51,
          "time": 35.50454100000012,
          "velocity": 0.6299212598425197,
          "duration": 0.274082212499998
        },
        {
          "name": "G#2",
          "midi": 44,
          "time": 35.50454100000012,
          "velocity": 0.6299212598425197,
          "duration": 0.274082212499998
        },
        {
          "name": "G#3",
          "midi": 56,
          "time": 35.77977000000011,
          "velocity": 0.6299212598425197,
          "duration": 0.549311212500001
        },
        {
          "name": "D#3",
          "midi": 51,
          "time": 35.77977000000011,
          "velocity": 0.6299212598425197,
          "duration": 0.549311212500001
        },
        {
          "name": "D#2",
          "midi": 39,
          "time": 36.33022800000011,
          "velocity": 0.6299212598425197,
          "duration": 0.274082212499998
        },
        {
          "name": "D#3",
          "midi": 51,
          "time": 36.60545700000011,
          "velocity": 0.6299212598425197,
          "duration": 0.274082212499998
        },
        {
          "name": "G#2",
          "midi": 44,
          "time": 36.60545700000011,
          "velocity": 0.6299212598425197,
          "duration": 0.274082212499998
        },
        {
          "name": "G#3",
          "midi": 56,
          "time": 36.880686000000104,
          "velocity": 0.6299212598425197,
          "duration": 0.549311212500001
        },
        {
          "name": "D#3",
          "midi": 51,
          "time": 36.880686000000104,
          "velocity": 0.6299212598425197,
          "duration": 0.549311212500001
        },
        {
          "name": "D#2",
          "midi": 39,
          "time": 37.4311440000001,
          "velocity": 0.6299212598425197,
          "duration": 0.274082212499998
        },
        {
          "name": "D#3",
          "midi": 51,
          "time": 37.7063730000001,
          "velocity": 0.6299212598425197,
          "duration": 0.274082212499998
        },
        {
          "name": "G#2",
          "midi": 44,
          "time": 37.7063730000001,
          "velocity": 0.6299212598425197,
          "duration": 0.274082212499998
        },
        {
          "name": "G#3",
          "midi": 56,
          "time": 37.981602000000095,
          "velocity": 0.6299212598425197,
          "duration": 0.549311212500001
        },
        {
          "name": "D#3",
          "midi": 51,
          "time": 37.981602000000095,
          "velocity": 0.6299212598425197,
          "duration": 0.549311212500001
        },
        {
          "name": "D#2",
          "midi": 39,
          "time": 38.532060000000094,
          "velocity": 0.6299212598425197,
          "duration": 0.274082212499998
        },
        {
          "name": "D#3",
          "midi": 51,
          "time": 38.80728900000009,
          "velocity": 0.6299212598425197,
          "duration": 0.274082212499998
        },
        {
          "name": "G#2",
          "midi": 44,
          "time": 38.80728900000009,
          "velocity": 0.6299212598425197,
          "duration": 0.274082212499998
        },
        {
          "name": "G#3",
          "midi": 56,
          "time": 39.082518000000086,
          "velocity": 0.6299212598425197,
          "duration": 0.274082212499998
        },
        {
          "name": "D#3",
          "midi": 51,
          "time": 39.082518000000086,
          "velocity": 0.6299212598425197,
          "duration": 0.274082212499998
        },
        {
          "name": "G#3",
          "midi": 56,
          "time": 39.35774700000008,
          "velocity": 0.6299212598425197,
          "duration": 0.274082212499998
        },
        {
          "name": "D#3",
          "midi": 51,
          "time": 39.35774700000008,
          "velocity": 0.6299212598425197,
          "duration": 0.274082212499998
        },
        {
          "name": "D#2",
          "midi": 39,
          "time": 39.63297600000008,
          "velocity": 0.6299212598425197,
          "duration": 0.274082212499998
        },
        {
          "name": "D#3",
          "midi": 51,
          "time": 39.90820500000007,
          "velocity": 0.6299212598425197,
          "duration": 0.274082212499998
        },
        {
          "name": "G#2",
          "midi": 44,
          "time": 39.90820500000007,
          "velocity": 0.6299212598425197,
          "duration": 0.274082212499998
        },
        {
          "name": "G#3",
          "midi": 56,
          "time": 40.18343400000007,
          "velocity": 0.6299212598425197,
          "duration": 0.549311212500001
        },
        {
          "name": "D#3",
          "midi": 51,
          "time": 40.18343400000007,
          "velocity": 0.6299212598425197,
          "duration": 0.549311212500001
        },
        {
          "name": "D#2",
          "midi": 39,
          "time": 40.73389200000007,
          "velocity": 0.6299212598425197,
          "duration": 0.274082212499998
        },
        {
          "name": "D#3",
          "midi": 51,
          "time": 41.009121000000064,
          "velocity": 0.6299212598425197,
          "duration": 0.274082212499998
        },
        {
          "name": "G#2",
          "midi": 44,
          "time": 41.009121000000064,
          "velocity": 0.6299212598425197,
          "duration": 0.274082212499998
        },
        {
          "name": "G#3",
          "midi": 56,
          "time": 41.28435000000006,
          "velocity": 0.6299212598425197,
          "duration": 0.549311212500001
        },
        {
          "name": "D#3",
          "midi": 51,
          "time": 41.28435000000006,
          "velocity": 0.6299212598425197,
          "duration": 0.549311212500001
        },
        {
          "name": "D#2",
          "midi": 39,
          "time": 41.83480800000006,
          "velocity": 0.6299212598425197,
          "duration": 0.274082212499998
        },
        {
          "name": "D#3",
          "midi": 51,
          "time": 42.110037000000055,
          "velocity": 0.6299212598425197,
          "duration": 0.274082212499998
        },
        {
          "name": "G#2",
          "midi": 44,
          "time": 42.110037000000055,
          "velocity": 0.6299212598425197,
          "duration": 0.274082212499998
        },
        {
          "name": "G#3",
          "midi": 56,
          "time": 42.38526600000005,
          "velocity": 0.6299212598425197,
          "duration": 0.274082212499998
        },
        {
          "name": "D#3",
          "midi": 51,
          "time": 42.38526600000005,
          "velocity": 0.6299212598425197,
          "duration": 0.274082212499998
        },
        {
          "name": "G#3",
          "midi": 56,
          "time": 42.66049500000005,
          "velocity": 0.6299212598425197,
          "duration": 0.274082212499998
        },
        {
          "name": "D#3",
          "midi": 51,
          "time": 42.66049500000005,
          "velocity": 0.6299212598425197,
          "duration": 0.274082212499998
        },
        {
          "name": "D#2",
          "midi": 39,
          "time": 42.93572400000004,
          "velocity": 0.6299212598425197,
          "duration": 0.549311212500001
        },
        {
          "name": "G#3",
          "midi": 56,
          "time": 43.48618200000004,
          "velocity": 0.6299212598425197,
          "duration": 0.549311212500001
        },
        {
          "name": "D#3",
          "midi": 51,
          "time": 43.48618200000004,
          "velocity": 0.6299212598425197,
          "duration": 0.549311212500001
        },
        {
          "name": "A#3",
          "midi": 58,
          "time": 44.03664000000004,
          "velocity": 0.6299212598425197,
          "duration": 1.0997692124999858
        },
        {
          "name": "D#2",
          "midi": 39,
          "time": 44.03664000000004,
          "velocity": 0.6299212598425197,
          "duration": 0.274082212499998
        },
        {
          "name": "D#3",
          "midi": 51,
          "time": 44.31186900000004,
          "velocity": 0.6299212598425197,
          "duration": 0.274082212499998
        },
        {
          "name": "A#2",
          "midi": 46,
          "time": 44.31186900000004,
          "velocity": 0.6299212598425197,
          "duration": 0.274082212499998
        },
        {
          "name": "D#2",
          "midi": 39,
          "time": 44.58709800000003,
          "velocity": 0.6299212598425197,
          "duration": 0.274082212499998
        },
        {
          "name": "D#3",
          "midi": 51,
          "time": 44.86232700000003,
          "velocity": 0.6299212598425197,
          "duration": 0.274082212499998
        },
        {
          "name": "A#2",
          "midi": 46,
          "time": 44.86232700000003,
          "velocity": 0.6299212598425197,
          "duration": 0.274082212499998
        },
        {
          "name": "G#3",
          "midi": 56,
          "time": 45.137556000000025,
          "velocity": 0.6299212598425197,
          "duration": 0.8245402124999899
        },
        {
          "name": "C2",
          "midi": 36,
          "time": 45.137556000000025,
          "velocity": 0.6299212598425197,
          "duration": 0.274082212499998
        },
        {
          "name": "D#3",
          "midi": 51,
          "time": 45.41278500000002,
          "velocity": 0.6299212598425197,
          "duration": 0.274082212499998
        },
        {
          "name": "G#2",
          "midi": 44,
          "time": 45.41278500000002,
          "velocity": 0.6299212598425197,
          "duration": 0.274082212499998
        },
        {
          "name": "A#1",
          "midi": 34,
          "time": 45.68801400000002,
          "velocity": 0.6299212598425197,
          "duration": 0.274082212499998
        },
        {
          "name": "F#3",
          "midi": 54,
          "time": 45.96324300000001,
          "velocity": 0.6299212598425197,
          "duration": 0.274082212499998
        },
        {
          "name": "C#3",
          "midi": 49,
          "time": 45.96324300000001,
          "velocity": 0.6299212598425197,
          "duration": 0.274082212499998
        },
        {
          "name": "F#2",
          "midi": 42,
          "time": 45.96324300000001,
          "velocity": 0.6299212598425197,
          "duration": 0.274082212499998
        },
        {
          "name": "A#3",
          "midi": 58,
          "time": 46.23847200000001,
          "velocity": 0.6299212598425197,
          "duration": 1.0997692124999858
        },
        {
          "name": "D#2",
          "midi": 39,
          "time": 46.23847200000001,
          "velocity": 0.6299212598425197,
          "duration": 0.274082212499998
        },
        {
          "name": "D#3",
          "midi": 51,
          "time": 46.513701000000005,
          "velocity": 0.6299212598425197,
          "duration": 0.274082212499998
        },
        {
          "name": "A#2",
          "midi": 46,
          "time": 46.513701000000005,
          "velocity": 0.6299212598425197,
          "duration": 0.274082212499998
        },
        {
          "name": "D#2",
          "midi": 39,
          "time": 46.78893,
          "velocity": 0.6299212598425197,
          "duration": 0.274082212499998
        },
        {
          "name": "D#3",
          "midi": 51,
          "time": 47.064159,
          "velocity": 0.6299212598425197,
          "duration": 0.274082212499998
        },
        {
          "name": "A#2",
          "midi": 46,
          "time": 47.064159,
          "velocity": 0.6299212598425197,
          "duration": 0.274082212499998
        },
        {
          "name": "G#3",
          "midi": 56,
          "time": 47.33938799999999,
          "velocity": 0.6299212598425197,
          "duration": 0.8245402124999899
        },
        {
          "name": "C2",
          "midi": 36,
          "time": 47.33938799999999,
          "velocity": 0.6299212598425197,
          "duration": 0.274082212499998
        },
        {
          "name": "D#3",
          "midi": 51,
          "time": 47.61461699999999,
          "velocity": 0.6299212598425197,
          "duration": 0.274082212499998
        },
        {
          "name": "G#2",
          "midi": 44,
          "time": 47.61461699999999,
          "velocity": 0.6299212598425197,
          "duration": 0.274082212499998
        },
        {
          "name": "A#1",
          "midi": 34,
          "time": 47.889845999999984,
          "velocity": 0.6299212598425197,
          "duration": 0.274082212499998
        },
        {
          "name": "F#3",
          "midi": 54,
          "time": 48.16507499999998,
          "velocity": 0.6299212598425197,
          "duration": 0.274082212499998
        },
        {
          "name": "C#3",
          "midi": 49,
          "time": 48.16507499999998,
          "velocity": 0.6299212598425197,
          "duration": 0.274082212499998
        },
        {
          "name": "F#2",
          "midi": 42,
          "time": 48.16507499999998,
          "velocity": 0.6299212598425197,
          "duration": 0.274082212499998
        },
        {
          "name": "A#3",
          "midi": 58,
          "time": 48.440303999999976,
          "velocity": 0.6299212598425197,
          "duration": 1.0997692124999858
        },
        {
          "name": "D#2",
          "midi": 39,
          "time": 48.440303999999976,
          "velocity": 0.6299212598425197,
          "duration": 0.274082212499998
        },
        {
          "name": "D#3",
          "midi": 51,
          "time": 48.71553299999997,
          "velocity": 0.6299212598425197,
          "duration": 0.274082212499998
        },
        {
          "name": "A#2",
          "midi": 46,
          "time": 48.71553299999997,
          "velocity": 0.6299212598425197,
          "duration": 0.274082212499998
        },
        {
          "name": "D#2",
          "midi": 39,
          "time": 48.99076199999997,
          "velocity": 0.6299212598425197,
          "duration": 0.274082212499998
        },
        {
          "name": "D#3",
          "midi": 51,
          "time": 49.265990999999964,
          "velocity": 0.6299212598425197,
          "duration": 0.274082212499998
        },
        {
          "name": "A#2",
          "midi": 46,
          "time": 49.265990999999964,
          "velocity": 0.6299212598425197,
          "duration": 0.274082212499998
        },
        {
          "name": "G#3",
          "midi": 56,
          "time": 49.54121999999996,
          "velocity": 0.6299212598425197,
          "duration": 0.8245402124999899
        },
        {
          "name": "C2",
          "midi": 36,
          "time": 49.54121999999996,
          "velocity": 0.6299212598425197,
          "duration": 0.274082212499998
        },
        {
          "name": "D#3",
          "midi": 51,
          "time": 49.816448999999956,
          "velocity": 0.6299212598425197,
          "duration": 0.274082212499998
        },
        {
          "name": "G#2",
          "midi": 44,
          "time": 49.816448999999956,
          "velocity": 0.6299212598425197,
          "duration": 0.274082212499998
        },
        {
          "name": "A#1",
          "midi": 34,
          "time": 50.09167799999995,
          "velocity": 0.6299212598425197,
          "duration": 0.274082212499998
        },
        {
          "name": "F#3",
          "midi": 54,
          "time": 50.36690699999995,
          "velocity": 0.6299212598425197,
          "duration": 0.274082212499998
        },
        {
          "name": "C#3",
          "midi": 49,
          "time": 50.36690699999995,
          "velocity": 0.6299212598425197,
          "duration": 0.274082212499998
        },
        {
          "name": "F#2",
          "midi": 42,
          "time": 50.36690699999995,
          "velocity": 0.6299212598425197,
          "duration": 0.274082212499998
        },
        {
          "name": "A#3",
          "midi": 58,
          "time": 50.642135999999944,
          "velocity": 0.6299212598425197,
          "duration": 1.0997692124999858
        },
        {
          "name": "D#2",
          "midi": 39,
          "time": 50.642135999999944,
          "velocity": 0.6299212598425197,
          "duration": 0.274082212499998
        },
        {
          "name": "D#3",
          "midi": 51,
          "time": 50.91736499999994,
          "velocity": 0.6299212598425197,
          "duration": 0.274082212499998
        },
        {
          "name": "A#2",
          "midi": 46,
          "time": 50.91736499999994,
          "velocity": 0.6299212598425197,
          "duration": 0.274082212499998
        },
        {
          "name": "D#2",
          "midi": 39,
          "time": 51.192593999999936,
          "velocity": 0.6299212598425197,
          "duration": 0.274082212499998
        },
        {
          "name": "D#3",
          "midi": 51,
          "time": 51.46782299999993,
          "velocity": 0.6299212598425197,
          "duration": 0.274082212499998
        },
        {
          "name": "A#2",
          "midi": 46,
          "time": 51.46782299999993,
          "velocity": 0.6299212598425197,
          "duration": 0.274082212499998
        },
        {
          "name": "G#3",
          "midi": 56,
          "time": 51.74305199999993,
          "velocity": 0.6299212598425197,
          "duration": 0.8245402124999899
        },
        {
          "name": "C2",
          "midi": 36,
          "time": 51.74305199999993,
          "velocity": 0.6299212598425197,
          "duration": 0.274082212499998
        },
        {
          "name": "D#3",
          "midi": 51,
          "time": 52.018280999999924,
          "velocity": 0.6299212598425197,
          "duration": 0.274082212499998
        },
        {
          "name": "G#2",
          "midi": 44,
          "time": 52.018280999999924,
          "velocity": 0.6299212598425197,
          "duration": 0.274082212499998
        },
        {
          "name": "A#1",
          "midi": 34,
          "time": 52.29350999999992,
          "velocity": 0.6299212598425197,
          "duration": 0.274082212499998
        },
        {
          "name": "F#3",
          "midi": 54,
          "time": 52.568738999999916,
          "velocity": 0.6299212598425197,
          "duration": 0.274082212499998
        },
        {
          "name": "C#3",
          "midi": 49,
          "time": 52.568738999999916,
          "velocity": 0.6299212598425197,
          "duration": 0.274082212499998
        },
        {
          "name": "F#2",
          "midi": 42,
          "time": 52.568738999999916,
          "velocity": 0.6299212598425197,
          "duration": 0.274082212499998
        },
        {
          "name": "A#3",
          "midi": 58,
          "time": 52.84396799999991,
          "velocity": 0.6299212598425197,
          "duration": 1.0997692124999858
        },
        {
          "name": "D#2",
          "midi": 39,
          "time": 52.84396799999991,
          "velocity": 0.6299212598425197,
          "duration": 0.274082212499998
        },
        {
          "name": "D#3",
          "midi": 51,
          "time": 53.11919699999991,
          "velocity": 0.6299212598425197,
          "duration": 0.274082212499998
        },
        {
          "name": "A#2",
          "midi": 46,
          "time": 53.11919699999991,
          "velocity": 0.6299212598425197,
          "duration": 0.274082212499998
        },
        {
          "name": "D#2",
          "midi": 39,
          "time": 53.3944259999999,
          "velocity": 0.6299212598425197,
          "duration": 0.274082212499998
        },
        {
          "name": "D#3",
          "midi": 51,
          "time": 53.6696549999999,
          "velocity": 0.6299212598425197,
          "duration": 0.274082212499998
        },
        {
          "name": "A#2",
          "midi": 46,
          "time": 53.6696549999999,
          "velocity": 0.6299212598425197,
          "duration": 0.274082212499998
        },
        {
          "name": "A#3",
          "midi": 58,
          "time": 53.944883999999895,
          "velocity": 0.6299212598425197,
          "duration": 1.0997692124999858
        },
        {
          "name": "D#2",
          "midi": 39,
          "time": 53.944883999999895,
          "velocity": 0.6299212598425197,
          "duration": 0.274082212499998
        },
        {
          "name": "D#3",
          "midi": 51,
          "time": 54.22011299999989,
          "velocity": 0.6299212598425197,
          "duration": 0.274082212499998
        },
        {
          "name": "A#2",
          "midi": 46,
          "time": 54.22011299999989,
          "velocity": 0.6299212598425197,
          "duration": 0.274082212499998
        },
        {
          "name": "D#2",
          "midi": 39,
          "time": 54.49534199999989,
          "velocity": 0.6299212598425197,
          "duration": 0.274082212499998
        },
        {
          "name": "D#3",
          "midi": 51,
          "time": 54.77057099999988,
          "velocity": 0.6299212598425197,
          "duration": 0.274082212499998
        },
        {
          "name": "A#2",
          "midi": 46,
          "time": 54.77057099999988,
          "velocity": 0.6299212598425197,
          "duration": 0.274082212499998
        },
        {
          "name": "A#3",
          "midi": 58,
          "time": 55.04579999999988,
          "velocity": 0.6299212598425197,
          "duration": 1.0997692124999858
        },
        {
          "name": "D#2",
          "midi": 39,
          "time": 55.04579999999988,
          "velocity": 0.6299212598425197,
          "duration": 0.274082212499998
        },
        {
          "name": "D#3",
          "midi": 51,
          "time": 55.321028999999875,
          "velocity": 0.6299212598425197,
          "duration": 0.274082212499998
        },
        {
          "name": "A#2",
          "midi": 46,
          "time": 55.321028999999875,
          "velocity": 0.6299212598425197,
          "duration": 0.274082212499998
        },
        {
          "name": "D#2",
          "midi": 39,
          "time": 55.59625799999987,
          "velocity": 0.6299212598425197,
          "duration": 0.274082212499998
        },
        {
          "name": "D#3",
          "midi": 51,
          "time": 55.87148699999987,
          "velocity": 0.6299212598425197,
          "duration": 0.274082212499998
        },
        {
          "name": "A#2",
          "midi": 46,
          "time": 55.87148699999987,
          "velocity": 0.6299212598425197,
          "duration": 0.274082212499998
        },
        {
          "name": "A#3",
          "midi": 58,
          "time": 56.14671599999986,
          "velocity": 0.6299212598425197,
          "duration": 1.0997692124999858
        },
        {
          "name": "D#2",
          "midi": 39,
          "time": 56.14671599999986,
          "velocity": 0.6299212598425197,
          "duration": 0.274082212499998
        },
        {
          "name": "D#3",
          "midi": 51,
          "time": 56.42194499999986,
          "velocity": 0.6299212598425197,
          "duration": 0.274082212499998
        },
        {
          "name": "A#2",
          "midi": 46,
          "time": 56.42194499999986,
          "velocity": 0.6299212598425197,
          "duration": 0.274082212499998
        },
        {
          "name": "D#2",
          "midi": 39,
          "time": 56.697173999999855,
          "velocity": 0.6299212598425197,
          "duration": 0.274082212499998
        },
        {
          "name": "D#3",
          "midi": 51,
          "time": 56.97240299999985,
          "velocity": 0.6299212598425197,
          "duration": 0.274082212499998
        },
        {
          "name": "A#2",
          "midi": 46,
          "time": 56.97240299999985,
          "velocity": 0.6299212598425197,
          "duration": 0.274082212499998
        },
        {
          "name": "A#3",
          "midi": 58,
          "time": 57.24763199999985,
          "velocity": 0.6299212598425197,
          "duration": 1.0997692124999858
        },
        {
          "name": "D#2",
          "midi": 39,
          "time": 57.24763199999985,
          "velocity": 0.6299212598425197,
          "duration": 0.274082212499998
        },
        {
          "name": "D#3",
          "midi": 51,
          "time": 57.52286099999984,
          "velocity": 0.6299212598425197,
          "duration": 0.274082212499998
        },
        {
          "name": "A#2",
          "midi": 46,
          "time": 57.52286099999984,
          "velocity": 0.6299212598425197,
          "duration": 0.274082212499998
        },
        {
          "name": "D#2",
          "midi": 39,
          "time": 57.79808999999984,
          "velocity": 0.6299212598425197,
          "duration": 0.274082212499998
        },
        {
          "name": "D#3",
          "midi": 51,
          "time": 58.073318999999834,
          "velocity": 0.6299212598425197,
          "duration": 0.274082212499998
        },
        {
          "name": "A#2",
          "midi": 46,
          "time": 58.073318999999834,
          "velocity": 0.6299212598425197,
          "duration": 0.274082212499998
        },
        {
          "name": "G#3",
          "midi": 56,
          "time": 58.34854799999983,
          "velocity": 0.6299212598425197,
          "duration": 0.8245402124999899
        },
        {
          "name": "C2",
          "midi": 36,
          "time": 58.34854799999983,
          "velocity": 0.6299212598425197,
          "duration": 0.274082212499998
        },
        {
          "name": "D#3",
          "midi": 51,
          "time": 58.623776999999826,
          "velocity": 0.6299212598425197,
          "duration": 0.274082212499998
        },
        {
          "name": "G#2",
          "midi": 44,
          "time": 58.623776999999826,
          "velocity": 0.6299212598425197,
          "duration": 0.274082212499998
        },
        {
          "name": "A#1",
          "midi": 34,
          "time": 58.89900599999982,
          "velocity": 0.6299212598425197,
          "duration": 0.274082212499998
        },
        {
          "name": "F#3",
          "midi": 54,
          "time": 59.17423499999982,
          "velocity": 0.6299212598425197,
          "duration": 0.274082212499998
        },
        {
          "name": "C#3",
          "midi": 49,
          "time": 59.17423499999982,
          "velocity": 0.6299212598425197,
          "duration": 0.274082212499998
        },
        {
          "name": "F#2",
          "midi": 42,
          "time": 59.17423499999982,
          "velocity": 0.6299212598425197,
          "duration": 0.274082212499998
        },
        {
          "name": "A#3",
          "midi": 58,
          "time": 59.449463999999814,
          "velocity": 0.6299212598425197,
          "duration": 1.0997692124999858
        },
        {
          "name": "D#2",
          "midi": 39,
          "time": 59.449463999999814,
          "velocity": 0.6299212598425197,
          "duration": 0.274082212499998
        },
        {
          "name": "D#3",
          "midi": 51,
          "time": 59.72469299999981,
          "velocity": 0.6299212598425197,
          "duration": 0.274082212499998
        },
        {
          "name": "A#2",
          "midi": 46,
          "time": 59.72469299999981,
          "velocity": 0.6299212598425197,
          "duration": 0.274082212499998
        },
        {
          "name": "D#2",
          "midi": 39,
          "time": 59.999921999999806,
          "velocity": 0.6299212598425197,
          "duration": 0.274082212499998
        },
        {
          "name": "D#3",
          "midi": 51,
          "time": 60.2751509999998,
          "velocity": 0.6299212598425197,
          "duration": 0.274082212499998
        },
        {
          "name": "A#2",
          "midi": 46,
          "time": 60.2751509999998,
          "velocity": 0.6299212598425197,
          "duration": 0.274082212499998
        },
        {
          "name": "A#3",
          "midi": 58,
          "time": 60.5503799999998,
          "velocity": 0.6299212598425197,
          "duration": 1.0997692124999858
        },
        {
          "name": "D#2",
          "midi": 39,
          "time": 60.5503799999998,
          "velocity": 0.6299212598425197,
          "duration": 0.274082212499998
        },
        {
          "name": "D#3",
          "midi": 51,
          "time": 60.825608999999794,
          "velocity": 0.6299212598425197,
          "duration": 0.274082212499998
        },
        {
          "name": "A#2",
          "midi": 46,
          "time": 60.825608999999794,
          "velocity": 0.6299212598425197,
          "duration": 0.274082212499998
        },
        {
          "name": "D#2",
          "midi": 39,
          "time": 61.10083799999979,
          "velocity": 0.6299212598425197,
          "duration": 0.274082212499998
        },
        {
          "name": "D#3",
          "midi": 51,
          "time": 61.376066999999786,
          "velocity": 0.6299212598425197,
          "duration": 0.274082212499998
        },
        {
          "name": "A#2",
          "midi": 46,
          "time": 61.376066999999786,
          "velocity": 0.6299212598425197,
          "duration": 0.274082212499998
        },
        {
          "name": "D#2",
          "midi": 39,
          "time": 61.65129599999978,
          "velocity": 0.6299212598425197,
          "duration": 0.274082212499998
        },
        {
          "name": "D#3",
          "midi": 51,
          "time": 61.92652499999978,
          "velocity": 0.6299212598425197,
          "duration": 0.549311212500001
        },
        {
          "name": "G#2",
          "midi": 44,
          "time": 61.92652499999978,
          "velocity": 0.6299212598425197,
          "duration": 0.549311212500001
        },
        {
          "name": "D#3",
          "midi": 51,
          "time": 62.47698299999978,
          "velocity": 0.6299212598425197,
          "duration": 0.274082212499998
        },
        {
          "name": "G#2",
          "midi": 44,
          "time": 62.47698299999978,
          "velocity": 0.6299212598425197,
          "duration": 0.274082212499998
        },
        {
          "name": "D#2",
          "midi": 39,
          "time": 62.75221199999977,
          "velocity": 0.6299212598425197,
          "duration": 0.274082212499998
        },
        {
          "name": "D#3",
          "midi": 51,
          "time": 63.02744099999977,
          "velocity": 0.6299212598425197,
          "duration": 0.549311212500001
        },
        {
          "name": "G#2",
          "midi": 44,
          "time": 63.02744099999977,
          "velocity": 0.6299212598425197,
          "duration": 0.549311212500001
        },
        {
          "name": "D#3",
          "midi": 51,
          "time": 63.57789899999977,
          "velocity": 0.6299212598425197,
          "duration": 0.274082212499998
        },
        {
          "name": "G#2",
          "midi": 44,
          "time": 63.57789899999977,
          "velocity": 0.6299212598425197,
          "duration": 0.274082212499998
        },
        {
          "name": "D#2",
          "midi": 39,
          "time": 63.853127999999764,
          "velocity": 0.6299212598425197,
          "duration": 0.274082212499998
        },
        {
          "name": "D#3",
          "midi": 51,
          "time": 64.12835699999977,
          "velocity": 0.6299212598425197,
          "duration": 0.549311212500001
        },
        {
          "name": "G#2",
          "midi": 44,
          "time": 64.12835699999977,
          "velocity": 0.6299212598425197,
          "duration": 0.549311212500001
        },
        {
          "name": "D#3",
          "midi": 51,
          "time": 64.67881499999977,
          "velocity": 0.6299212598425197,
          "duration": 0.2740822125000051
        },
        {
          "name": "G#2",
          "midi": 44,
          "time": 64.67881499999977,
          "velocity": 0.6299212598425197,
          "duration": 0.2740822125000051
        },
        {
          "name": "D#2",
          "midi": 39,
          "time": 64.95404399999978,
          "velocity": 0.6299212598425197,
          "duration": 0.2740822125000051
        },
        {
          "name": "D#3",
          "midi": 51,
          "time": 65.2292729999998,
          "velocity": 0.6299212598425197,
          "duration": 0.549311212500001
        },
        {
          "name": "G#2",
          "midi": 44,
          "time": 65.2292729999998,
          "velocity": 0.6299212598425197,
          "duration": 0.549311212500001
        },
        {
          "name": "D#3",
          "midi": 51,
          "time": 65.7797309999998,
          "velocity": 0.6299212598425197,
          "duration": 0.2740822125000051
        },
        {
          "name": "G#2",
          "midi": 44,
          "time": 65.7797309999998,
          "velocity": 0.6299212598425197,
          "duration": 0.2740822125000051
        },
        {
          "name": "D#2",
          "midi": 39,
          "time": 66.05495999999981,
          "velocity": 0.6299212598425197,
          "duration": 0.2740822125000051
        },
        {
          "name": "D#3",
          "midi": 51,
          "time": 66.33018899999982,
          "velocity": 0.6299212598425197,
          "duration": 0.549311212500001
        },
        {
          "name": "G#2",
          "midi": 44,
          "time": 66.33018899999982,
          "velocity": 0.6299212598425197,
          "duration": 0.549311212500001
        },
        {
          "name": "D#3",
          "midi": 51,
          "time": 66.88064699999983,
          "velocity": 0.6299212598425197,
          "duration": 0.2740822125000051
        },
        {
          "name": "G#2",
          "midi": 44,
          "time": 66.88064699999983,
          "velocity": 0.6299212598425197,
          "duration": 0.2740822125000051
        },
        {
          "name": "D#2",
          "midi": 39,
          "time": 67.15587599999984,
          "velocity": 0.6299212598425197,
          "duration": 0.2740822125000051
        },
        {
          "name": "D#3",
          "midi": 51,
          "time": 67.43110499999985,
          "velocity": 0.6299212598425197,
          "duration": 0.549311212500001
        },
        {
          "name": "G#2",
          "midi": 44,
          "time": 67.43110499999985,
          "velocity": 0.6299212598425197,
          "duration": 0.549311212500001
        },
        {
          "name": "D#3",
          "midi": 51,
          "time": 67.98156299999985,
          "velocity": 0.6299212598425197,
          "duration": 0.2740822125000051
        },
        {
          "name": "G#2",
          "midi": 44,
          "time": 67.98156299999985,
          "velocity": 0.6299212598425197,
          "duration": 0.2740822125000051
        },
        {
          "name": "D#2",
          "midi": 39,
          "time": 68.25679199999986,
          "velocity": 0.6299212598425197,
          "duration": 0.2740822125000051
        },
        {
          "name": "G#2",
          "midi": 44,
          "time": 68.53202099999987,
          "velocity": 0.6299212598425197,
          "duration": 0.2740822125000051
        },
        {
          "name": "G#3",
          "midi": 56,
          "time": 68.80724999999988,
          "velocity": 0.6299212598425197,
          "duration": 0.549311212500001
        },
        {
          "name": "D#3",
          "midi": 51,
          "time": 68.80724999999988,
          "velocity": 0.6299212598425197,
          "duration": 0.549311212500001
        },
        {
          "name": "G#2",
          "midi": 44,
          "time": 69.35770799999989,
          "velocity": 0.6299212598425197,
          "duration": 0.2740822125000051
        },
        {
          "name": "D#2",
          "midi": 39,
          "time": 69.6329369999999,
          "velocity": 0.6299212598425197,
          "duration": 0.2740822125000051
        },
        {
          "name": "G#3",
          "midi": 56,
          "time": 69.90816599999991,
          "velocity": 0.6299212598425197,
          "duration": 0.2740822125000051
        },
        {
          "name": "D#3",
          "midi": 51,
          "time": 69.90816599999991,
          "velocity": 0.6299212598425197,
          "duration": 0.2740822125000051
        },
        {
          "name": "G#3",
          "midi": 56,
          "time": 70.18339499999992,
          "velocity": 0.6299212598425197,
          "duration": 0.2740822125000051
        },
        {
          "name": "D#3",
          "midi": 51,
          "time": 70.18339499999992,
          "velocity": 0.6299212598425197,
          "duration": 0.2740822125000051
        },
        {
          "name": "D#2",
          "midi": 39,
          "time": 70.45862399999993,
          "velocity": 0.6299212598425197,
          "duration": 0.2740822125000051
        },
        {
          "name": "D#3",
          "midi": 51,
          "time": 70.73385299999994,
          "velocity": 0.6299212598425197,
          "duration": 0.2740822125000051
        },
        {
          "name": "G#2",
          "midi": 44,
          "time": 70.73385299999994,
          "velocity": 0.6299212598425197,
          "duration": 0.2740822125000051
        },
        {
          "name": "G#3",
          "midi": 56,
          "time": 71.00908199999995,
          "velocity": 0.6299212598425197,
          "duration": 0.549311212500001
        },
        {
          "name": "D#3",
          "midi": 51,
          "time": 71.00908199999995,
          "velocity": 0.6299212598425197,
          "duration": 0.549311212500001
        },
        {
          "name": "D#2",
          "midi": 39,
          "time": 71.55953999999996,
          "velocity": 0.6299212598425197,
          "duration": 0.2740822125000051
        },
        {
          "name": "D#3",
          "midi": 51,
          "time": 71.83476899999997,
          "velocity": 0.6299212598425197,
          "duration": 0.2740822125000051
        },
        {
          "name": "G#2",
          "midi": 44,
          "time": 71.83476899999997,
          "velocity": 0.6299212598425197,
          "duration": 0.2740822125000051
        },
        {
          "name": "G#3",
          "midi": 56,
          "time": 72.10999799999998,
          "velocity": 0.6299212598425197,
          "duration": 0.549311212500001
        },
        {
          "name": "D#3",
          "midi": 51,
          "time": 72.10999799999998,
          "velocity": 0.6299212598425197,
          "duration": 0.549311212500001
        },
        {
          "name": "D#2",
          "midi": 39,
          "time": 72.66045599999998,
          "velocity": 0.6299212598425197,
          "duration": 0.2740822125000051
        },
        {
          "name": "D#3",
          "midi": 51,
          "time": 72.93568499999999,
          "velocity": 0.6299212598425197,
          "duration": 0.2740822125000051
        },
        {
          "name": "G#2",
          "midi": 44,
          "time": 72.93568499999999,
          "velocity": 0.6299212598425197,
          "duration": 0.2740822125000051
        },
        {
          "name": "G#3",
          "midi": 56,
          "time": 73.210914,
          "velocity": 0.6299212598425197,
          "duration": 0.549311212500001
        },
        {
          "name": "D#3",
          "midi": 51,
          "time": 73.210914,
          "velocity": 0.6299212598425197,
          "duration": 0.549311212500001
        },
        {
          "name": "D#2",
          "midi": 39,
          "time": 73.76137200000001,
          "velocity": 0.6299212598425197,
          "duration": 0.2740822125000051
        },
        {
          "name": "D#3",
          "midi": 51,
          "time": 74.03660100000002,
          "velocity": 0.6299212598425197,
          "duration": 0.2740822125000051
        },
        {
          "name": "G#2",
          "midi": 44,
          "time": 74.03660100000002,
          "velocity": 0.6299212598425197,
          "duration": 0.2740822125000051
        },
        {
          "name": "G#3",
          "midi": 56,
          "time": 74.31183000000003,
          "velocity": 0.6299212598425197,
          "duration": 0.549311212500001
        },
        {
          "name": "D#3",
          "midi": 51,
          "time": 74.31183000000003,
          "velocity": 0.6299212598425197,
          "duration": 0.549311212500001
        },
        {
          "name": "D#2",
          "midi": 39,
          "time": 74.86228800000004,
          "velocity": 0.6299212598425197,
          "duration": 0.2740822125000051
        },
        {
          "name": "D#3",
          "midi": 51,
          "time": 75.13751700000005,
          "velocity": 0.6299212598425197,
          "duration": 0.2740822125000051
        },
        {
          "name": "G#2",
          "midi": 44,
          "time": 75.13751700000005,
          "velocity": 0.6299212598425197,
          "duration": 0.2740822125000051
        },
        {
          "name": "G#3",
          "midi": 56,
          "time": 75.41274600000006,
          "velocity": 0.6299212598425197,
          "duration": 0.549311212500001
        },
        {
          "name": "D#3",
          "midi": 51,
          "time": 75.41274600000006,
          "velocity": 0.6299212598425197,
          "duration": 0.549311212500001
        },
        {
          "name": "D#2",
          "midi": 39,
          "time": 75.96320400000006,
          "velocity": 0.6299212598425197,
          "duration": 0.2740822125000051
        },
        {
          "name": "D#3",
          "midi": 51,
          "time": 76.23843300000007,
          "velocity": 0.6299212598425197,
          "duration": 0.2740822125000051
        },
        {
          "name": "G#2",
          "midi": 44,
          "time": 76.23843300000007,
          "velocity": 0.6299212598425197,
          "duration": 0.2740822125000051
        },
        {
          "name": "G#3",
          "midi": 56,
          "time": 76.51366200000008,
          "velocity": 0.6299212598425197,
          "duration": 0.549311212500001
        },
        {
          "name": "D#3",
          "midi": 51,
          "time": 76.51366200000008,
          "velocity": 0.6299212598425197,
          "duration": 0.549311212500001
        },
        {
          "name": "D#2",
          "midi": 39,
          "time": 77.06412000000009,
          "velocity": 0.6299212598425197,
          "duration": 0.2740822125000051
        },
        {
          "name": "G#2",
          "midi": 44,
          "time": 77.3393490000001,
          "velocity": 0.6299212598425197,
          "duration": 0.2740822125000051
        },
        {
          "name": "G#3",
          "midi": 56,
          "time": 77.61457800000011,
          "velocity": 0.6299212598425197,
          "duration": 0.549311212500001
        },
        {
          "name": "D#3",
          "midi": 51,
          "time": 77.61457800000011,
          "velocity": 0.6299212598425197,
          "duration": 0.549311212500001
        },
        {
          "name": "G#2",
          "midi": 44,
          "time": 78.16503600000011,
          "velocity": 0.6299212598425197,
          "duration": 0.2740822125000051
        },
        {
          "name": "D#2",
          "midi": 39,
          "time": 78.44026500000012,
          "velocity": 0.6299212598425197,
          "duration": 0.2740822125000051
        },
        {
          "name": "G#3",
          "midi": 56,
          "time": 78.71549400000013,
          "velocity": 0.6299212598425197,
          "duration": 0.2740822125000051
        },
        {
          "name": "D#3",
          "midi": 51,
          "time": 78.71549400000013,
          "velocity": 0.6299212598425197,
          "duration": 0.2740822125000051
        },
        {
          "name": "G#3",
          "midi": 56,
          "time": 78.99072300000014,
          "velocity": 0.6299212598425197,
          "duration": 0.2740822125000051
        },
        {
          "name": "D#3",
          "midi": 51,
          "time": 78.99072300000014,
          "velocity": 0.6299212598425197,
          "duration": 0.2740822125000051
        },
        {
          "name": "A#3",
          "midi": 58,
          "time": 79.26595200000015,
          "velocity": 0.6299212598425197,
          "duration": 1.0997692125000356
        },
        {
          "name": "D#2",
          "midi": 39,
          "time": 79.26595200000015,
          "velocity": 0.6299212598425197,
          "duration": 0.2740822125000051
        },
        {
          "name": "D#3",
          "midi": 51,
          "time": 79.54118100000017,
          "velocity": 0.6299212598425197,
          "duration": 0.2740822125000051
        },
        {
          "name": "A#2",
          "midi": 46,
          "time": 79.54118100000017,
          "velocity": 0.6299212598425197,
          "duration": 0.2740822125000051
        },
        {
          "name": "D#2",
          "midi": 39,
          "time": 79.81641000000018,
          "velocity": 0.6299212598425197,
          "duration": 0.2740822125000051
        },
        {
          "name": "D#3",
          "midi": 51,
          "time": 80.09163900000019,
          "velocity": 0.6299212598425197,
          "duration": 0.2740822125000051
        },
        {
          "name": "A#2",
          "midi": 46,
          "time": 80.09163900000019,
          "velocity": 0.6299212598425197,
          "duration": 0.2740822125000051
        },
        {
          "name": "G#3",
          "midi": 56,
          "time": 80.3668680000002,
          "velocity": 0.6299212598425197,
          "duration": 0.8245402125000254
        },
        {
          "name": "C2",
          "midi": 36,
          "time": 80.3668680000002,
          "velocity": 0.6299212598425197,
          "duration": 0.2740822125000051
        },
        {
          "name": "D#3",
          "midi": 51,
          "time": 80.6420970000002,
          "velocity": 0.6299212598425197,
          "duration": 0.2740822125000051
        },
        {
          "name": "G#2",
          "midi": 44,
          "time": 80.6420970000002,
          "velocity": 0.6299212598425197,
          "duration": 0.2740822125000051
        },
        {
          "name": "A#1",
          "midi": 34,
          "time": 80.91732600000022,
          "velocity": 0.6299212598425197,
          "duration": 0.2740822125000051
        },
        {
          "name": "F#3",
          "midi": 54,
          "time": 81.19255500000023,
          "velocity": 0.6299212598425197,
          "duration": 0.2740822125000051
        },
        {
          "name": "C#3",
          "midi": 49,
          "time": 81.19255500000023,
          "velocity": 0.6299212598425197,
          "duration": 0.2740822125000051
        },
        {
          "name": "F#2",
          "midi": 42,
          "time": 81.19255500000023,
          "velocity": 0.6299212598425197,
          "duration": 0.2740822125000051
        },
        {
          "name": "A#3",
          "midi": 58,
          "time": 81.46778400000024,
          "velocity": 0.6299212598425197,
          "duration": 1.0997692125000356
        },
        {
          "name": "D#2",
          "midi": 39,
          "time": 81.46778400000024,
          "velocity": 0.6299212598425197,
          "duration": 0.2740822125000051
        },
        {
          "name": "D#3",
          "midi": 51,
          "time": 81.74301300000025,
          "velocity": 0.6299212598425197,
          "duration": 0.2740822125000051
        },
        {
          "name": "A#2",
          "midi": 46,
          "time": 81.74301300000025,
          "velocity": 0.6299212598425197,
          "duration": 0.2740822125000051
        },
        {
          "name": "D#2",
          "midi": 39,
          "time": 82.01824200000026,
          "velocity": 0.6299212598425197,
          "duration": 0.2740822125000051
        },
        {
          "name": "D#3",
          "midi": 51,
          "time": 82.29347100000027,
          "velocity": 0.6299212598425197,
          "duration": 0.2740822125000051
        },
        {
          "name": "A#2",
          "midi": 46,
          "time": 82.29347100000027,
          "velocity": 0.6299212598425197,
          "duration": 0.2740822125000051
        },
        {
          "name": "G#3",
          "midi": 56,
          "time": 82.56870000000028,
          "velocity": 0.6299212598425197,
          "duration": 0.8245402125000254
        },
        {
          "name": "C2",
          "midi": 36,
          "time": 82.56870000000028,
          "velocity": 0.6299212598425197,
          "duration": 0.2740822125000051
        },
        {
          "name": "D#3",
          "midi": 51,
          "time": 82.84392900000029,
          "velocity": 0.6299212598425197,
          "duration": 0.2740822125000051
        },
        {
          "name": "G#2",
          "midi": 44,
          "time": 82.84392900000029,
          "velocity": 0.6299212598425197,
          "duration": 0.2740822125000051
        },
        {
          "name": "A#1",
          "midi": 34,
          "time": 83.1191580000003,
          "velocity": 0.6299212598425197,
          "duration": 0.2740822125000051
        },
        {
          "name": "F#3",
          "midi": 54,
          "time": 83.39438700000031,
          "velocity": 0.6299212598425197,
          "duration": 0.2740822125000051
        },
        {
          "name": "C#3",
          "midi": 49,
          "time": 83.39438700000031,
          "velocity": 0.6299212598425197,
          "duration": 0.2740822125000051
        },
        {
          "name": "F#2",
          "midi": 42,
          "time": 83.39438700000031,
          "velocity": 0.6299212598425197,
          "duration": 0.2740822125000051
        },
        {
          "name": "A#3",
          "midi": 58,
          "time": 83.66961600000032,
          "velocity": 0.6299212598425197,
          "duration": 1.0997692125000356
        },
        {
          "name": "D#2",
          "midi": 39,
          "time": 83.66961600000032,
          "velocity": 0.6299212598425197,
          "duration": 0.2740822125000051
        },
        {
          "name": "D#3",
          "midi": 51,
          "time": 83.94484500000033,
          "velocity": 0.6299212598425197,
          "duration": 0.2740822125000051
        },
        {
          "name": "A#2",
          "midi": 46,
          "time": 83.94484500000033,
          "velocity": 0.6299212598425197,
          "duration": 0.2740822125000051
        },
        {
          "name": "D#2",
          "midi": 39,
          "time": 84.22007400000034,
          "velocity": 0.6299212598425197,
          "duration": 0.2740822125000051
        },
        {
          "name": "D#3",
          "midi": 51,
          "time": 84.49530300000035,
          "velocity": 0.6299212598425197,
          "duration": 0.2740822125000051
        },
        {
          "name": "A#2",
          "midi": 46,
          "time": 84.49530300000035,
          "velocity": 0.6299212598425197,
          "duration": 0.2740822125000051
        },
        {
          "name": "G#3",
          "midi": 56,
          "time": 84.77053200000036,
          "velocity": 0.6299212598425197,
          "duration": 0.8245402125000254
        },
        {
          "name": "C2",
          "midi": 36,
          "time": 84.77053200000036,
          "velocity": 0.6299212598425197,
          "duration": 0.2740822125000051
        },
        {
          "name": "D#3",
          "midi": 51,
          "time": 85.04576100000037,
          "velocity": 0.6299212598425197,
          "duration": 0.2740822125000051
        },
        {
          "name": "G#2",
          "midi": 44,
          "time": 85.04576100000037,
          "velocity": 0.6299212598425197,
          "duration": 0.2740822125000051
        },
        {
          "name": "A#1",
          "midi": 34,
          "time": 85.32099000000038,
          "velocity": 0.6299212598425197,
          "duration": 0.2740822125000051
        },
        {
          "name": "F#3",
          "midi": 54,
          "time": 85.59621900000039,
          "velocity": 0.6299212598425197,
          "duration": 0.2740822125000051
        },
        {
          "name": "C#3",
          "midi": 49,
          "time": 85.59621900000039,
          "velocity": 0.6299212598425197,
          "duration": 0.2740822125000051
        },
        {
          "name": "F#2",
          "midi": 42,
          "time": 85.59621900000039,
          "velocity": 0.6299212598425197,
          "duration": 0.2740822125000051
        },
        {
          "name": "A#3",
          "midi": 58,
          "time": 85.8714480000004,
          "velocity": 0.6299212598425197,
          "duration": 1.0997692125000356
        },
        {
          "name": "D#2",
          "midi": 39,
          "time": 85.8714480000004,
          "velocity": 0.6299212598425197,
          "duration": 0.2740822125000051
        },
        {
          "name": "D#3",
          "midi": 51,
          "time": 86.14667700000041,
          "velocity": 0.6299212598425197,
          "duration": 0.2740822125000051
        },
        {
          "name": "A#2",
          "midi": 46,
          "time": 86.14667700000041,
          "velocity": 0.6299212598425197,
          "duration": 0.2740822125000051
        },
        {
          "name": "D#2",
          "midi": 39,
          "time": 86.42190600000042,
          "velocity": 0.6299212598425197,
          "duration": 0.2740822125000051
        },
        {
          "name": "D#3",
          "midi": 51,
          "time": 86.69713500000043,
          "velocity": 0.6299212598425197,
          "duration": 0.2740822125000051
        },
        {
          "name": "A#2",
          "midi": 46,
          "time": 86.69713500000043,
          "velocity": 0.6299212598425197,
          "duration": 0.2740822125000051
        },
        {
          "name": "G#3",
          "midi": 56,
          "time": 86.97236400000044,
          "velocity": 0.6299212598425197,
          "duration": 1.0997692125000356
        },
        {
          "name": "C2",
          "midi": 36,
          "time": 86.97236400000044,
          "velocity": 0.6299212598425197,
          "duration": 0.2740822125000051
        },
        {
          "name": "D#3",
          "midi": 51,
          "time": 87.24759300000045,
          "velocity": 0.6299212598425197,
          "duration": 0.2740822125000051
        },
        {
          "name": "G#2",
          "midi": 44,
          "time": 87.24759300000045,
          "velocity": 0.6299212598425197,
          "duration": 0.2740822125000051
        },
        {
          "name": "D#2",
          "midi": 39,
          "time": 87.52282200000046,
          "velocity": 0.6299212598425197,
          "duration": 0.2740822125000051
        },
        {
          "name": "D#3",
          "midi": 51,
          "time": 87.79805100000047,
          "velocity": 0.6299212598425197,
          "duration": 0.2740822125000051
        },
        {
          "name": "A#2",
          "midi": 46,
          "time": 87.79805100000047,
          "velocity": 0.6299212598425197,
          "duration": 0.2740822125000051
        },
        {
          "name": "D#2",
          "midi": 39,
          "time": 88.07328000000048,
          "velocity": 0.6299212598425197,
          "duration": 0.2740822125000051
        },
        {
          "name": "D#3",
          "midi": 51,
          "time": 88.34850900000049,
          "velocity": 0.6299212598425197,
          "duration": 0.2740822125000051
        },
        {
          "name": "A#2",
          "midi": 46,
          "time": 88.34850900000049,
          "velocity": 0.6299212598425197,
          "duration": 0.2740822125000051
        },
        {
          "name": "D#2",
          "midi": 39,
          "time": 88.6237380000005,
          "velocity": 0.6299212598425197,
          "duration": 0.2740822125000051
        },
        {
          "name": "D#3",
          "midi": 51,
          "time": 88.89896700000051,
          "velocity": 0.6299212598425197,
          "duration": 0.2740822125000051
        },
        {
          "name": "A#2",
          "midi": 46,
          "time": 88.89896700000051,
          "velocity": 0.6299212598425197,
          "duration": 0.2740822125000051
        },
        {
          "name": "D#2",
          "midi": 39,
          "time": 89.17419600000052,
          "velocity": 0.6299212598425197,
          "duration": 0.2740822125000051
        },
        {
          "name": "D#3",
          "midi": 51,
          "time": 89.44942500000053,
          "velocity": 0.6299212598425197,
          "duration": 0.2740822125000051
        },
        {
          "name": "A#2",
          "midi": 46,
          "time": 89.44942500000053,
          "velocity": 0.6299212598425197,
          "duration": 0.2740822125000051
        },
        {
          "name": "D#2",
          "midi": 39,
          "time": 89.72465400000054,
          "velocity": 0.6299212598425197,
          "duration": 0.2740822125000051
        },
        {
          "name": "D#3",
          "midi": 51,
          "time": 89.99988300000055,
          "velocity": 0.6299212598425197,
          "duration": 0.2740822125000051
        },
        {
          "name": "A#2",
          "midi": 46,
          "time": 89.99988300000055,
          "velocity": 0.6299212598425197,
          "duration": 0.2740822125000051
        },
        {
          "name": "D#2",
          "midi": 39,
          "time": 90.27511200000056,
          "velocity": 0.6299212598425197,
          "duration": 0.2740822125000051
        },
        {
          "name": "D#3",
          "midi": 51,
          "time": 90.55034100000057,
          "velocity": 0.6299212598425197,
          "duration": 0.2740822125000051
        },
        {
          "name": "A#2",
          "midi": 46,
          "time": 90.55034100000057,
          "velocity": 0.6299212598425197,
          "duration": 0.2740822125000051
        },
        {
          "name": "D#2",
          "midi": 39,
          "time": 90.82557000000058,
          "velocity": 0.6299212598425197,
          "duration": 0.2740822125000051
        },
        {
          "name": "D#3",
          "midi": 51,
          "time": 91.10079900000059,
          "velocity": 0.6299212598425197,
          "duration": 0.2740822125000051
        },
        {
          "name": "A#2",
          "midi": 46,
          "time": 91.10079900000059,
          "velocity": 0.6299212598425197,
          "duration": 0.2740822125000051
        },
        {
          "name": "D#2",
          "midi": 39,
          "time": 91.3760280000006,
          "velocity": 0.6299212598425197,
          "duration": 0.2740822125000051
        },
        {
          "name": "D#3",
          "midi": 51,
          "time": 91.65125700000061,
          "velocity": 0.6299212598425197,
          "duration": 0.2740822125000051
        },
        {
          "name": "A#2",
          "midi": 46,
          "time": 91.65125700000061,
          "velocity": 0.6299212598425197,
          "duration": 0.2740822125000051
        },
        {
          "name": "D#2",
          "midi": 39,
          "time": 91.92648600000062,
          "velocity": 0.6299212598425197,
          "duration": 0.2740822125000051
        },
        {
          "name": "D#3",
          "midi": 51,
          "time": 92.20171500000063,
          "velocity": 0.6299212598425197,
          "duration": 0.2740822125000051
        },
        {
          "name": "A#2",
          "midi": 46,
          "time": 92.20171500000063,
          "velocity": 0.6299212598425197,
          "duration": 0.2740822125000051
        },
        {
          "name": "D#2",
          "midi": 39,
          "time": 92.47694400000064,
          "velocity": 0.6299212598425197,
          "duration": 0.2740822125000051
        },
        {
          "name": "D#3",
          "midi": 51,
          "time": 92.75217300000065,
          "velocity": 0.6299212598425197,
          "duration": 0.2740822125000051
        },
        {
          "name": "A#2",
          "midi": 46,
          "time": 92.75217300000065,
          "velocity": 0.6299212598425197,
          "duration": 0.2740822125000051
        },
        {
          "name": "D#2",
          "midi": 39,
          "time": 93.02740200000066,
          "velocity": 0.6299212598425197,
          "duration": 0.2740822125000051
        },
        {
          "name": "D#3",
          "midi": 51,
          "time": 93.30263100000067,
          "velocity": 0.6299212598425197,
          "duration": 0.2740822125000051
        },
        {
          "name": "A#2",
          "midi": 46,
          "time": 93.30263100000067,
          "velocity": 0.6299212598425197,
          "duration": 0.2740822125000051
        },
        {
          "name": "D#2",
          "midi": 39,
          "time": 93.57786000000068,
          "velocity": 0.6299212598425197,
          "duration": 0.2740822125000051
        },
        {
          "name": "D#3",
          "midi": 51,
          "time": 93.8530890000007,
          "velocity": 0.6299212598425197,
          "duration": 0.2740822125000051
        },
        {
          "name": "A#2",
          "midi": 46,
          "time": 93.8530890000007,
          "velocity": 0.6299212598425197,
          "duration": 0.2740822125000051
        },
        {
          "name": "D#2",
          "midi": 39,
          "time": 94.1283180000007,
          "velocity": 0.6299212598425197,
          "duration": 0.2740822125000051
        },
        {
          "name": "D#3",
          "midi": 51,
          "time": 94.40354700000071,
          "velocity": 0.6299212598425197,
          "duration": 0.2740822125000051
        },
        {
          "name": "A#2",
          "midi": 46,
          "time": 94.40354700000071,
          "velocity": 0.6299212598425197,
          "duration": 0.2740822125000051
        },
        {
          "name": "G#3",
          "midi": 56,
          "time": 94.67877600000072,
          "velocity": 0.6299212598425197,
          "duration": 0.8245402125000254
        },
        {
          "name": "D#2",
          "midi": 39,
          "time": 94.67877600000072,
          "velocity": 0.6299212598425197,
          "duration": 0.2740822125000051
        },
        {
          "name": "D#3",
          "midi": 51,
          "time": 94.95400500000073,
          "velocity": 0.6299212598425197,
          "duration": 0.2740822125000051
        },
        {
          "name": "G#2",
          "midi": 44,
          "time": 94.95400500000073,
          "velocity": 0.6299212598425197,
          "duration": 0.2740822125000051
        },
        {
          "name": "A1",
          "midi": 33,
          "time": 95.22923400000074,
          "velocity": 0.6299212598425197,
          "duration": 0.2740822125000051
        },
        {
          "name": "F#3",
          "midi": 54,
          "time": 95.50446300000075,
          "velocity": 0.6299212598425197,
          "duration": 0.2740822125000051
        },
        {
          "name": "A#2",
          "midi": 46,
          "time": 95.50446300000075,
          "velocity": 0.6299212598425197,
          "duration": 0.2740822125000051
        },
        {
          "name": "D#2",
          "midi": 39,
          "time": 95.50446300000075,
          "velocity": 0.6299212598425197,
          "duration": 0.2740822125000051
        },
        {
          "name": "A#3",
          "midi": 58,
          "time": 95.77969200000076,
          "velocity": 0.6299212598425197,
          "duration": 1.0997692125000356
        },
        {
          "name": "D#2",
          "midi": 39,
          "time": 95.77969200000076,
          "velocity": 0.6299212598425197,
          "duration": 0.2740822125000051
        },
        {
          "name": "D#3",
          "midi": 51,
          "time": 96.05492100000077,
          "velocity": 0.6299212598425197,
          "duration": 0.2740822125000051
        },
        {
          "name": "A#2",
          "midi": 46,
          "time": 96.05492100000077,
          "velocity": 0.6299212598425197,
          "duration": 0.2740822125000051
        },
        {
          "name": "D#2",
          "midi": 39,
          "time": 96.33015000000078,
          "velocity": 0.6299212598425197,
          "duration": 0.2740822125000051
        },
        {
          "name": "D#3",
          "midi": 51,
          "time": 96.6053790000008,
          "velocity": 0.6299212598425197,
          "duration": 0.2740822125000051
        },
        {
          "name": "A#2",
          "midi": 46,
          "time": 96.6053790000008,
          "velocity": 0.6299212598425197,
          "duration": 0.2740822125000051
        },
        {
          "name": "A#3",
          "midi": 58,
          "time": 96.8806080000008,
          "velocity": 0.6299212598425197,
          "duration": 1.0997692125000356
        },
        {
          "name": "D#2",
          "midi": 39,
          "time": 96.8806080000008,
          "velocity": 0.6299212598425197,
          "duration": 0.2740822125000051
        },
        {
          "name": "D#3",
          "midi": 51,
          "time": 97.15583700000082,
          "velocity": 0.6299212598425197,
          "duration": 0.2740822125000051
        },
        {
          "name": "A#2",
          "midi": 46,
          "time": 97.15583700000082,
          "velocity": 0.6299212598425197,
          "duration": 0.2740822125000051
        },
        {
          "name": "D#2",
          "midi": 39,
          "time": 97.43106600000083,
          "velocity": 0.6299212598425197,
          "duration": 0.2740822125000051
        },
        {
          "name": "D#3",
          "midi": 51,
          "time": 97.70629500000084,
          "velocity": 0.6299212598425197,
          "duration": 0.2740822125000051
        },
        {
          "name": "A#2",
          "midi": 46,
          "time": 97.70629500000084,
          "velocity": 0.6299212598425197,
          "duration": 0.2740822125000051
        },
        {
          "name": "G#3",
          "midi": 56,
          "time": 97.98152400000085,
          "velocity": 0.6299212598425197,
          "duration": 0.8245402125000254
        },
        {
          "name": "C2",
          "midi": 36,
          "time": 97.98152400000085,
          "velocity": 0.6299212598425197,
          "duration": 0.2740822125000051
        },
        {
          "name": "D#3",
          "midi": 51,
          "time": 98.25675300000086,
          "velocity": 0.6299212598425197,
          "duration": 0.2740822125000051
        },
        {
          "name": "G#2",
          "midi": 44,
          "time": 98.25675300000086,
          "velocity": 0.6299212598425197,
          "duration": 0.2740822125000051
        },
        {
          "name": "A#1",
          "midi": 34,
          "time": 98.53198200000087,
          "velocity": 0.6299212598425197,
          "duration": 0.2740822125000051
        },
        {
          "name": "F#3",
          "midi": 54,
          "time": 98.80721100000088,
          "velocity": 0.6299212598425197,
          "duration": 0.2740822125000051
        },
        {
          "name": "C#3",
          "midi": 49,
          "time": 98.80721100000088,
          "velocity": 0.6299212598425197,
          "duration": 0.2740822125000051
        },
        {
          "name": "F#2",
          "midi": 42,
          "time": 98.80721100000088,
          "velocity": 0.6299212598425197,
          "duration": 0.2740822125000051
        },
        {
          "name": "A#3",
          "midi": 58,
          "time": 99.08244000000089,
          "velocity": 0.6299212598425197,
          "duration": 1.0997692125000356
        },
        {
          "name": "D#2",
          "midi": 39,
          "time": 99.08244000000089,
          "velocity": 0.6299212598425197,
          "duration": 0.2740822125000051
        },
        {
          "name": "D#3",
          "midi": 51,
          "time": 99.3576690000009,
          "velocity": 0.6299212598425197,
          "duration": 0.2740822125000051
        },
        {
          "name": "A#2",
          "midi": 46,
          "time": 99.3576690000009,
          "velocity": 0.6299212598425197,
          "duration": 0.2740822125000051
        },
        {
          "name": "D#2",
          "midi": 39,
          "time": 99.6328980000009,
          "velocity": 0.6299212598425197,
          "duration": 0.2740822125000051
        },
        {
          "name": "D#3",
          "midi": 51,
          "time": 99.90812700000092,
          "velocity": 0.6299212598425197,
          "duration": 0.2740822125000051
        },
        {
          "name": "A#2",
          "midi": 46,
          "time": 99.90812700000092,
          "velocity": 0.6299212598425197,
          "duration": 0.2740822125000051
        },
        {
          "name": "G#3",
          "midi": 56,
          "time": 100.18335600000093,
          "velocity": 0.6299212598425197,
          "duration": 0.8245402125000254
        },
        {
          "name": "C2",
          "midi": 36,
          "time": 100.18335600000093,
          "velocity": 0.6299212598425197,
          "duration": 0.2740822125000051
        },
        {
          "name": "D#3",
          "midi": 51,
          "time": 100.45858500000094,
          "velocity": 0.6299212598425197,
          "duration": 0.2740822125000051
        },
        {
          "name": "G#2",
          "midi": 44,
          "time": 100.45858500000094,
          "velocity": 0.6299212598425197,
          "duration": 0.2740822125000051
        },
        {
          "name": "A#1",
          "midi": 34,
          "time": 100.73381400000095,
          "velocity": 0.6299212598425197,
          "duration": 0.2740822125000051
        },
        {
          "name": "F#3",
          "midi": 54,
          "time": 101.00904300000096,
          "velocity": 0.6299212598425197,
          "duration": 0.2740822125000051
        },
        {
          "name": "C#3",
          "midi": 49,
          "time": 101.00904300000096,
          "velocity": 0.6299212598425197,
          "duration": 0.2740822125000051
        },
        {
          "name": "F#2",
          "midi": 42,
          "time": 101.00904300000096,
          "velocity": 0.6299212598425197,
          "duration": 0.2740822125000051
        },
        {
          "name": "A#3",
          "midi": 58,
          "time": 101.28427200000097,
          "velocity": 0.6299212598425197,
          "duration": 1.0997692125000356
        },
        {
          "name": "D#2",
          "midi": 39,
          "time": 101.28427200000097,
          "velocity": 0.6299212598425197,
          "duration": 0.2740822125000051
        },
        {
          "name": "D#3",
          "midi": 51,
          "time": 101.55950100000098,
          "velocity": 0.6299212598425197,
          "duration": 0.2740822125000051
        },
        {
          "name": "A#2",
          "midi": 46,
          "time": 101.55950100000098,
          "velocity": 0.6299212598425197,
          "duration": 0.2740822125000051
        },
        {
          "name": "D#2",
          "midi": 39,
          "time": 101.83473000000099,
          "velocity": 0.6299212598425197,
          "duration": 0.2740822125000051
        },
        {
          "name": "D#3",
          "midi": 51,
          "time": 102.109959000001,
          "velocity": 0.6299212598425197,
          "duration": 0.2740822125000051
        },
        {
          "name": "A#2",
          "midi": 46,
          "time": 102.109959000001,
          "velocity": 0.6299212598425197,
          "duration": 0.2740822125000051
        },
        {
          "name": "G#3",
          "midi": 56,
          "time": 102.38518800000101,
          "velocity": 0.6299212598425197,
          "duration": 0.8245402125000254
        },
        {
          "name": "C2",
          "midi": 36,
          "time": 102.38518800000101,
          "velocity": 0.6299212598425197,
          "duration": 0.2740822125000051
        },
        {
          "name": "D#3",
          "midi": 51,
          "time": 102.66041700000102,
          "velocity": 0.6299212598425197,
          "duration": 0.2740822125000051
        },
        {
          "name": "G#2",
          "midi": 44,
          "time": 102.66041700000102,
          "velocity": 0.6299212598425197,
          "duration": 0.2740822125000051
        },
        {
          "name": "A#1",
          "midi": 34,
          "time": 102.93564600000103,
          "velocity": 0.6299212598425197,
          "duration": 0.2740822125000051
        },
        {
          "name": "F#3",
          "midi": 54,
          "time": 103.21087500000104,
          "velocity": 0.6299212598425197,
          "duration": 0.2740822125000051
        },
        {
          "name": "C#3",
          "midi": 49,
          "time": 103.21087500000104,
          "velocity": 0.6299212598425197,
          "duration": 0.2740822125000051
        },
        {
          "name": "F#2",
          "midi": 42,
          "time": 103.21087500000104,
          "velocity": 0.6299212598425197,
          "duration": 0.2740822125000051
        },
        {
          "name": "A#3",
          "midi": 58,
          "time": 103.48610400000105,
          "velocity": 0.6299212598425197,
          "duration": 1.0997692125000356
        },
        {
          "name": "D#2",
          "midi": 39,
          "time": 103.48610400000105,
          "velocity": 0.6299212598425197,
          "duration": 0.2740822125000051
        },
        {
          "name": "D#3",
          "midi": 51,
          "time": 103.76133300000106,
          "velocity": 0.6299212598425197,
          "duration": 0.2740822125000051
        },
        {
          "name": "A#2",
          "midi": 46,
          "time": 103.76133300000106,
          "velocity": 0.6299212598425197,
          "duration": 0.2740822125000051
        },
        {
          "name": "D#2",
          "midi": 39,
          "time": 104.03656200000107,
          "velocity": 0.6299212598425197,
          "duration": 0.2740822125000051
        },
        {
          "name": "D#3",
          "midi": 51,
          "time": 104.31179100000108,
          "velocity": 0.6299212598425197,
          "duration": 0.2740822125000051
        },
        {
          "name": "A#2",
          "midi": 46,
          "time": 104.31179100000108,
          "velocity": 0.6299212598425197,
          "duration": 0.2740822125000051
        },
        {
          "name": "G#3",
          "midi": 56,
          "time": 104.58702000000109,
          "velocity": 0.6299212598425197,
          "duration": 0.8245402125000254
        },
        {
          "name": "C2",
          "midi": 36,
          "time": 104.58702000000109,
          "velocity": 0.6299212598425197,
          "duration": 0.2740822125000051
        },
        {
          "name": "D#3",
          "midi": 51,
          "time": 104.8622490000011,
          "velocity": 0.6299212598425197,
          "duration": 0.2740822125000051
        },
        {
          "name": "G#2",
          "midi": 44,
          "time": 104.8622490000011,
          "velocity": 0.6299212598425197,
          "duration": 0.2740822125000051
        },
        {
          "name": "A#1",
          "midi": 34,
          "time": 105.13747800000111,
          "velocity": 0.6299212598425197,
          "duration": 0.2740822125000051
        },
        {
          "name": "F#3",
          "midi": 54,
          "time": 105.41270700000112,
          "velocity": 0.6299212598425197,
          "duration": 0.2740822125000051
        },
        {
          "name": "C#3",
          "midi": 49,
          "time": 105.41270700000112,
          "velocity": 0.6299212598425197,
          "duration": 0.2740822125000051
        },
        {
          "name": "F#2",
          "midi": 42,
          "time": 105.41270700000112,
          "velocity": 0.6299212598425197,
          "duration": 0.2740822125000051
        },
        {
          "name": "D#2",
          "midi": 39,
          "time": 105.68793600000113,
          "velocity": 0.6299212598425197,
          "duration": 0.2740822125000051
        },
        {
          "name": "D#3",
          "midi": 51,
          "time": 105.96316500000114,
          "velocity": 0.6299212598425197,
          "duration": 0.2740822125000051
        },
        {
          "name": "G#2",
          "midi": 44,
          "time": 105.96316500000114,
          "velocity": 0.6299212598425197,
          "duration": 0.2740822125000051
        },
        {
          "name": "G#3",
          "midi": 56,
          "time": 106.23839400000115,
          "velocity": 0.6299212598425197,
          "duration": 0.549311212500001
        },
        {
          "name": "D#3",
          "midi": 51,
          "time": 106.23839400000115,
          "velocity": 0.6299212598425197,
          "duration": 0.549311212500001
        },
        {
          "name": "D#2",
          "midi": 39,
          "time": 106.78885200000116,
          "velocity": 0.6299212598425197,
          "duration": 0.2740822125000051
        },
        {
          "name": "D#3",
          "midi": 51,
          "time": 107.06408100000117,
          "velocity": 0.6299212598425197,
          "duration": 0.2740822125000051
        },
        {
          "name": "G#2",
          "midi": 44,
          "time": 107.06408100000117,
          "velocity": 0.6299212598425197,
          "duration": 0.2740822125000051
        },
        {
          "name": "G#3",
          "midi": 56,
          "time": 107.33931000000118,
          "velocity": 0.6299212598425197,
          "duration": 0.549311212500001
        },
        {
          "name": "D#3",
          "midi": 51,
          "time": 107.33931000000118,
          "velocity": 0.6299212598425197,
          "duration": 0.549311212500001
        },
        {
          "name": "D#2",
          "midi": 39,
          "time": 107.88976800000118,
          "velocity": 0.6299212598425197,
          "duration": 0.2740822125000051
        },
        {
          "name": "D#3",
          "midi": 51,
          "time": 108.1649970000012,
          "velocity": 0.6299212598425197,
          "duration": 0.2740822125000051
        },
        {
          "name": "G#2",
          "midi": 44,
          "time": 108.1649970000012,
          "velocity": 0.6299212598425197,
          "duration": 0.2740822125000051
        },
        {
          "name": "G#3",
          "midi": 56,
          "time": 108.4402260000012,
          "velocity": 0.6299212598425197,
          "duration": 0.549311212500001
        },
        {
          "name": "D#3",
          "midi": 51,
          "time": 108.4402260000012,
          "velocity": 0.6299212598425197,
          "duration": 0.549311212500001
        },
        {
          "name": "D#2",
          "midi": 39,
          "time": 108.99068400000121,
          "velocity": 0.6299212598425197,
          "duration": 0.2740822125000051
        },
        {
          "name": "D#3",
          "midi": 51,
          "time": 109.26591300000122,
          "velocity": 0.6299212598425197,
          "duration": 0.2740822125000051
        },
        {
          "name": "G#2",
          "midi": 44,
          "time": 109.26591300000122,
          "velocity": 0.6299212598425197,
          "duration": 0.2740822125000051
        },
        {
          "name": "G#3",
          "midi": 56,
          "time": 109.54114200000123,
          "velocity": 0.6299212598425197,
          "duration": 0.2740822125000051
        },
        {
          "name": "D#3",
          "midi": 51,
          "time": 109.54114200000123,
          "velocity": 0.6299212598425197,
          "duration": 0.2740822125000051
        },
        {
          "name": "G#3",
          "midi": 56,
          "time": 109.81637100000124,
          "velocity": 0.6299212598425197,
          "duration": 0.2740822125000051
        },
        {
          "name": "D#3",
          "midi": 51,
          "time": 109.81637100000124,
          "velocity": 0.6299212598425197,
          "duration": 0.2740822125000051
        },
        {
          "name": "D#2",
          "midi": 39,
          "time": 110.09160000000125,
          "velocity": 0.6299212598425197,
          "duration": 0.2740822125000051
        },
        {
          "name": "D#3",
          "midi": 51,
          "time": 110.36682900000126,
          "velocity": 0.6299212598425197,
          "duration": 0.2740822125000051
        },
        {
          "name": "G#2",
          "midi": 44,
          "time": 110.36682900000126,
          "velocity": 0.6299212598425197,
          "duration": 0.2740822125000051
        },
        {
          "name": "G#3",
          "midi": 56,
          "time": 110.64205800000127,
          "velocity": 0.6299212598425197,
          "duration": 0.549311212500001
        },
        {
          "name": "D#3",
          "midi": 51,
          "time": 110.64205800000127,
          "velocity": 0.6299212598425197,
          "duration": 0.549311212500001
        },
        {
          "name": "D#2",
          "midi": 39,
          "time": 111.19251600000128,
          "velocity": 0.6299212598425197,
          "duration": 0.2740822125000051
        },
        {
          "name": "D#3",
          "midi": 51,
          "time": 111.46774500000129,
          "velocity": 0.6299212598425197,
          "duration": 0.2740822125000051
        },
        {
          "name": "G#2",
          "midi": 44,
          "time": 111.46774500000129,
          "velocity": 0.6299212598425197,
          "duration": 0.2740822125000051
        },
        {
          "name": "G#3",
          "midi": 56,
          "time": 111.7429740000013,
          "velocity": 0.6299212598425197,
          "duration": 0.549311212500001
        },
        {
          "name": "D#3",
          "midi": 51,
          "time": 111.7429740000013,
          "velocity": 0.6299212598425197,
          "duration": 0.549311212500001
        },
        {
          "name": "D#2",
          "midi": 39,
          "time": 112.2934320000013,
          "velocity": 0.6299212598425197,
          "duration": 0.2740822125000051
        },
        {
          "name": "D#3",
          "midi": 51,
          "time": 112.56866100000131,
          "velocity": 0.6299212598425197,
          "duration": 0.2740822125000051
        },
        {
          "name": "G#2",
          "midi": 44,
          "time": 112.56866100000131,
          "velocity": 0.6299212598425197,
          "duration": 0.2740822125000051
        },
        {
          "name": "G#3",
          "midi": 56,
          "time": 112.84389000000132,
          "velocity": 0.6299212598425197,
          "duration": 0.2740822125000051
        },
        {
          "name": "D#3",
          "midi": 51,
          "time": 112.84389000000132,
          "velocity": 0.6299212598425197,
          "duration": 0.2740822125000051
        },
        {
          "name": "G#3",
          "midi": 56,
          "time": 113.11911900000133,
          "velocity": 0.6299212598425197,
          "duration": 0.2740822125000051
        },
        {
          "name": "D#3",
          "midi": 51,
          "time": 113.11911900000133,
          "velocity": 0.6299212598425197,
          "duration": 0.2740822125000051
        },
        {
          "name": "D#2",
          "midi": 39,
          "time": 113.39434800000134,
          "velocity": 0.6299212598425197,
          "duration": 0.549311212500001
        },
        {
          "name": "G#3",
          "midi": 56,
          "time": 113.94480600000135,
          "velocity": 0.6299212598425197,
          "duration": 0.549311212500001
        },
        {
          "name": "D#3",
          "midi": 51,
          "time": 113.94480600000135,
          "velocity": 0.6299212598425197,
          "duration": 0.549311212500001
        },
        {
          "name": "D#2",
          "midi": 39,
          "time": 114.49526400000136,
          "velocity": 0.6299212598425197,
          "duration": 0.2740822125000051
        },
        {
          "name": "D#3",
          "midi": 51,
          "time": 114.77049300000137,
          "velocity": 0.6299212598425197,
          "duration": 0.2740822125000051
        },
        {
          "name": "G#2",
          "midi": 44,
          "time": 114.77049300000137,
          "velocity": 0.6299212598425197,
          "duration": 0.2740822125000051
        },
        {
          "name": "D2",
          "midi": 38,
          "time": 115.04572200000138,
          "velocity": 0.6299212598425197,
          "duration": 0.2740822125000051
        },
        {
          "name": "D3",
          "midi": 50,
          "time": 115.32095100000139,
          "velocity": 0.6299212598425197,
          "duration": 0.2740822125000051
        },
        {
          "name": "G2",
          "midi": 43,
          "time": 115.32095100000139,
          "velocity": 0.6299212598425197,
          "duration": 0.2740822125000051
        },
        {
          "name": "D#2",
          "midi": 39,
          "time": 115.5961800000014,
          "velocity": 0.6299212598425197,
          "duration": 0.2740822125000051
        },
        {
          "name": "D#3",
          "midi": 51,
          "time": 115.8714090000014,
          "velocity": 0.6299212598425197,
          "duration": 0.2740822125000051
        },
        {
          "name": "G#2",
          "midi": 44,
          "time": 115.8714090000014,
          "velocity": 0.6299212598425197,
          "duration": 0.2740822125000051
        },
        {
          "name": "D2",
          "midi": 38,
          "time": 116.14663800000142,
          "velocity": 0.6299212598425197,
          "duration": 0.2740822125000051
        },
        {
          "name": "D3",
          "midi": 50,
          "time": 116.42186700000143,
          "velocity": 0.6299212598425197,
          "duration": 0.2740822125000051
        },
        {
          "name": "G2",
          "midi": 43,
          "time": 116.42186700000143,
          "velocity": 0.6299212598425197,
          "duration": 0.2740822125000051
        },
        {
          "name": "D#2",
          "midi": 39,
          "time": 116.69709600000144,
          "velocity": 0.6299212598425197,
          "duration": 0.2740822125000051
        },
        {
          "name": "D#3",
          "midi": 51,
          "time": 116.97232500000145,
          "velocity": 0.6299212598425197,
          "duration": 0.2740822125000051
        },
        {
          "name": "G#2",
          "midi": 44,
          "time": 116.97232500000145,
          "velocity": 0.6299212598425197,
          "duration": 0.2740822125000051
        },
        {
          "name": "D2",
          "midi": 38,
          "time": 117.24755400000146,
          "velocity": 0.6299212598425197,
          "duration": 0.2740822125000051
        },
        {
          "name": "D3",
          "midi": 50,
          "time": 117.52278300000147,
          "velocity": 0.6299212598425197,
          "duration": 0.2740822125000051
        },
        {
          "name": "G2",
          "midi": 43,
          "time": 117.52278300000147,
          "velocity": 0.6299212598425197,
          "duration": 0.2740822125000051
        },
        {
          "name": "D#2",
          "midi": 39,
          "time": 117.79801200000148,
          "velocity": 0.6299212598425197,
          "duration": 0.2740822125000051
        },
        {
          "name": "D#3",
          "midi": 51,
          "time": 118.07324100000149,
          "velocity": 0.6299212598425197,
          "duration": 0.2740822125000051
        },
        {
          "name": "G#2",
          "midi": 44,
          "time": 118.07324100000149,
          "velocity": 0.6299212598425197,
          "duration": 0.2740822125000051
        },
        {
          "name": "D2",
          "midi": 38,
          "time": 118.3484700000015,
          "velocity": 0.6299212598425197,
          "duration": 0.2740822125000051
        },
        {
          "name": "D3",
          "midi": 50,
          "time": 118.62369900000151,
          "velocity": 0.6299212598425197,
          "duration": 0.2740822125000051
        },
        {
          "name": "G2",
          "midi": 43,
          "time": 118.62369900000151,
          "velocity": 0.6299212598425197,
          "duration": 0.2740822125000051
        },
        {
          "name": "D#2",
          "midi": 39,
          "time": 118.89892800000152,
          "velocity": 0.6299212598425197,
          "duration": 0.2740822125000051
        },
        {
          "name": "D#3",
          "midi": 51,
          "time": 119.17415700000153,
          "velocity": 0.6299212598425197,
          "duration": 0.2740822125000051
        },
        {
          "name": "G#2",
          "midi": 44,
          "time": 119.17415700000153,
          "velocity": 0.6299212598425197,
          "duration": 0.2740822125000051
        },
        {
          "name": "D2",
          "midi": 38,
          "time": 119.44938600000154,
          "velocity": 0.6299212598425197,
          "duration": 0.2740822125000051
        },
        {
          "name": "D3",
          "midi": 50,
          "time": 119.72461500000155,
          "velocity": 0.6299212598425197,
          "duration": 0.2740822125000051
        },
        {
          "name": "G2",
          "midi": 43,
          "time": 119.72461500000155,
          "velocity": 0.6299212598425197,
          "duration": 0.2740822125000051
        },
        {
          "name": "D#2",
          "midi": 39,
          "time": 119.99984400000156,
          "velocity": 0.6299212598425197,
          "duration": 0.2740822125000051
        },
        {
          "name": "D#3",
          "midi": 51,
          "time": 120.27507300000157,
          "velocity": 0.6299212598425197,
          "duration": 0.2740822125000051
        },
        {
          "name": "G#2",
          "midi": 44,
          "time": 120.27507300000157,
          "velocity": 0.6299212598425197,
          "duration": 0.2740822125000051
        },
        {
          "name": "D2",
          "midi": 38,
          "time": 120.55030200000158,
          "velocity": 0.6299212598425197,
          "duration": 0.2740822125000051
        },
        {
          "name": "D3",
          "midi": 50,
          "time": 120.82553100000159,
          "velocity": 0.6299212598425197,
          "duration": 0.2740822125000051
        },
        {
          "name": "G2",
          "midi": 43,
          "time": 120.82553100000159,
          "velocity": 0.6299212598425197,
          "duration": 0.2740822125000051
        },
        {
          "name": "D#2",
          "midi": 39,
          "time": 121.1007600000016,
          "velocity": 0.6299212598425197,
          "duration": 0.2740822125000051
        },
        {
          "name": "D#3",
          "midi": 51,
          "time": 121.37598900000161,
          "velocity": 0.6299212598425197,
          "duration": 0.2740822125000051
        },
        {
          "name": "G#2",
          "midi": 44,
          "time": 121.37598900000161,
          "velocity": 0.6299212598425197,
          "duration": 0.2740822125000051
        },
        {
          "name": "D2",
          "midi": 38,
          "time": 121.65121800000162,
          "velocity": 0.6299212598425197,
          "duration": 0.2740822125000051
        },
        {
          "name": "D3",
          "midi": 50,
          "time": 121.92644700000163,
          "velocity": 0.6299212598425197,
          "duration": 0.2740822125000051
        },
        {
          "name": "G2",
          "midi": 43,
          "time": 121.92644700000163,
          "velocity": 0.6299212598425197,
          "duration": 0.2740822125000051
        },
        {
          "name": "D#3",
          "midi": 51,
          "time": 122.20167600000164,
          "velocity": 0.6299212598425197,
          "duration": 0.2740822125000051
        },
        {
          "name": "D#2",
          "midi": 39,
          "time": 122.20167600000164,
          "velocity": 0.6299212598425197,
          "duration": 0.2740822125000051
        },
        {
          "name": "D#3",
          "midi": 51,
          "time": 122.47690500000165,
          "velocity": 0.6299212598425197,
          "duration": 0.2740822125000051
        },
        {
          "name": "D#2",
          "midi": 39,
          "time": 122.47690500000165,
          "velocity": 0.6299212598425197,
          "duration": 0.2740822125000051
        },
        {
          "name": "D#3",
          "midi": 51,
          "time": 122.75213400000166,
          "velocity": 0.6299212598425197,
          "duration": 0.2740822125000051
        },
        {
          "name": "D#2",
          "midi": 39,
          "time": 122.75213400000166,
          "velocity": 0.6299212598425197,
          "duration": 0.2740822125000051
        },
        {
          "name": "D#3",
          "midi": 51,
          "time": 123.02736300000167,
          "velocity": 0.6299212598425197,
          "duration": 0.2740822125000051
        },
        {
          "name": "D#2",
          "midi": 39,
          "time": 123.02736300000167,
          "velocity": 0.6299212598425197,
          "duration": 0.2740822125000051
        },
        {
          "name": "B1",
          "midi": 35,
          "time": 123.30259200000168,
          "velocity": 0.6299212598425197,
          "duration": 0.2740822125000051
        },
        {
          "name": "B2",
          "midi": 47,
          "time": 123.57782100000169,
          "velocity": 0.6299212598425197,
          "duration": 0.2740822125000051
        },
        {
          "name": "E2",
          "midi": 40,
          "time": 123.57782100000169,
          "velocity": 0.6299212598425197,
          "duration": 0.2740822125000051
        },
        {
          "name": "A#1",
          "midi": 34,
          "time": 123.8530500000017,
          "velocity": 0.6299212598425197,
          "duration": 0.2740822125000051
        },
        {
          "name": "B1",
          "midi": 35,
          "time": 124.12827900000171,
          "velocity": 0.6299212598425197,
          "duration": 0.2740822125000051
        },
        {
          "name": "B2",
          "midi": 47,
          "time": 124.40350800000172,
          "velocity": 0.6299212598425197,
          "duration": 0.2740822125000051
        },
        {
          "name": "E2",
          "midi": 40,
          "time": 124.40350800000172,
          "velocity": 0.6299212598425197,
          "duration": 0.2740822125000051
        },
        {
          "name": "B1",
          "midi": 35,
          "time": 124.67873700000173,
          "velocity": 0.6299212598425197,
          "duration": 0.2740822125000051
        },
        {
          "name": "B1",
          "midi": 35,
          "time": 124.95396600000174,
          "velocity": 0.6299212598425197,
          "duration": 0.2740822125000051
        },
        {
          "name": "B1",
          "midi": 35,
          "time": 125.22919500000175,
          "velocity": 0.6299212598425197,
          "duration": 0.2740822125000051
        },
        {
          "name": "B1",
          "midi": 35,
          "time": 125.50442400000176,
          "velocity": 0.6299212598425197,
          "duration": 0.2740822125000051
        },
        {
          "name": "B2",
          "midi": 47,
          "time": 125.77965300000177,
          "velocity": 0.6299212598425197,
          "duration": 0.2740822125000051
        },
        {
          "name": "E2",
          "midi": 40,
          "time": 125.77965300000177,
          "velocity": 0.6299212598425197,
          "duration": 0.2740822125000051
        },
        {
          "name": "A#1",
          "midi": 34,
          "time": 126.05488200000178,
          "velocity": 0.6299212598425197,
          "duration": 0.2740822125000051
        },
        {
          "name": "B1",
          "midi": 35,
          "time": 126.33011100000179,
          "velocity": 0.6299212598425197,
          "duration": 0.2740822125000051
        },
        {
          "name": "B2",
          "midi": 47,
          "time": 126.6053400000018,
          "velocity": 0.6299212598425197,
          "duration": 0.2740822125000051
        },
        {
          "name": "E2",
          "midi": 40,
          "time": 126.6053400000018,
          "velocity": 0.6299212598425197,
          "duration": 0.2740822125000051
        },
        {
          "name": "A#1",
          "midi": 34,
          "time": 126.88056900000181,
          "velocity": 0.6299212598425197,
          "duration": 0.2740822125000051
        },
        {
          "name": "A1",
          "midi": 33,
          "time": 127.15579800000182,
          "velocity": 0.6299212598425197,
          "duration": 0.2740822125000051
        },
        {
          "name": "A2",
          "midi": 45,
          "time": 127.43102700000183,
          "velocity": 0.6299212598425197,
          "duration": 0.2740822125000051
        },
        {
          "name": "D2",
          "midi": 38,
          "time": 127.43102700000183,
          "velocity": 0.6299212598425197,
          "duration": 0.2740822125000051
        },
        {
          "name": "G#1",
          "midi": 32,
          "time": 127.70625600000184,
          "velocity": 0.6299212598425197,
          "duration": 0.2740822125000051
        },
        {
          "name": "F1",
          "midi": 29,
          "time": 127.98148500000185,
          "velocity": 0.6299212598425197,
          "duration": 0.2740822125000051
        },
        {
          "name": "F2",
          "midi": 41,
          "time": 128.25671400000186,
          "velocity": 0.6299212598425197,
          "duration": 0.2740822124999909
        },
        {
          "name": "A#1",
          "midi": 34,
          "time": 128.25671400000186,
          "velocity": 0.6299212598425197,
          "duration": 0.2740822124999909
        },
        {
          "name": "A0",
          "midi": 21,
          "time": 128.53194300000186,
          "velocity": 0.6299212598425197,
          "duration": 0.2740822124999909
        },
        {
          "name": "A1",
          "midi": 33,
          "time": 128.80717200000186,
          "velocity": 0.6299212598425197,
          "duration": 0.2740822124999909
        },
        {
          "name": "D1",
          "midi": 26,
          "time": 128.80717200000186,
          "velocity": 0.6299212598425197,
          "duration": 0.2740822124999909
        },
        {
          "name": "C#0",
          "midi": 13,
          "time": 129.08240100000185,
          "velocity": 0.6299212598425197,
          "duration": 0.2740822124999909
        },
        {
          "name": "C#1",
          "midi": 25,
          "time": 129.35763000000185,
          "velocity": 0.6299212598425197,
          "duration": 0.2740822124999909
        },
        {
          "name": "F#0",
          "midi": 18,
          "time": 129.35763000000185,
          "velocity": 0.6299212598425197,
          "duration": 0.2740822124999909
        },
        {
          "name": "C#-1",
          "midi": 1,
          "time": 129.63285900000184,
          "velocity": 0.6299212598425197,
          "duration": 0.2740822124999909
        },
        {
          "name": "C0",
          "midi": 12,
          "time": 129.90808800000184,
          "velocity": 0.6299212598425197,
          "duration": 1.0997692125000071
        },
        {
          "name": "F-1",
          "midi": 5,
          "time": 129.90808800000184,
          "velocity": 0.6299212598425197,
          "duration": 1.0997692125000071
        }
      ]
    }
  ]
}