{
  "header": {
    "PPQ": 1024,
    "timeSignature": [
      4,
      4
    ],
    "bpm": 215.99982720013824
  },
  "startTime": 0,
  "duration": 222.05557043945316,
  "tracks": [
    {
      "startTime": 0,
      "duration": 0,
      "length": 0,
      "id": 0
    },
    {
      "startTime": 0.0027126757812500004,
      "duration": 222.05557043945316,
      "length": 3184,
      "id": 1,
      "name": "Piano",
      "instrumentNumber": 0,
      "instrument": "acoustic grand piano",
      "instrumentFamily": "piano",
      "channelNumber": 0,
      "isPercussion": false,
      "notes": [
        {
          "name": "A#4",
          "midi": 70,
          "time": 0.0027126757812500004,
          "velocity": 0.6692913385826772,
          "duration": 0.28157574609375
        },
        {
          "name": "C#5",
          "midi": 73,
          "time": 0.0027126757812500004,
          "velocity": 0.6692913385826772,
          "duration": 0.28157574609375
        },
        {
          "name": "F5",
          "midi": 77,
          "time": 0.0027126757812500004,
          "velocity": 0.6692913385826772,
          "duration": 0.28157574609375
        },
        {
          "name": "A#5",
          "midi": 82,
          "time": 0.0027126757812500004,
          "velocity": 0.7795275590551181,
          "duration": 0.28157574609375
        },
        {
          "name": "A#2",
          "midi": 46,
          "time": 0.0027126757812500004,
          "velocity": 0.6692913385826772,
          "duration": 0.46386755859375006
        },
        {
          "name": "A#3",
          "midi": 58,
          "time": 0.0027126757812500004,
          "velocity": 0.7795275590551181,
          "duration": 0.46386755859375006
        },
        {
          "name": "C#3",
          "midi": 49,
          "time": 0.4668515019531251,
          "velocity": 0.6299212598425197,
          "duration": 0.36621123046875004
        },
        {
          "name": "C#4",
          "midi": 61,
          "time": 0.4668515019531251,
          "velocity": 0.7401574803149606,
          "duration": 0.36621123046875004
        },
        {
          "name": "D#3",
          "midi": 51,
          "time": 0.8333340000000001,
          "velocity": 0.6377952755905512,
          "duration": 0.18500448828124993
        },
        {
          "name": "D#4",
          "midi": 63,
          "time": 0.8333340000000001,
          "velocity": 0.7480314960629921,
          "duration": 0.19314251562499984
        },
        {
          "name": "E4",
          "midi": 64,
          "time": 1.0267477832031249,
          "velocity": 0.6929133858267716,
          "duration": 0.07975266796874991
        },
        {
          "name": "F3",
          "midi": 53,
          "time": 1.1149097460937498,
          "velocity": 0.6299212598425197,
          "duration": 0.1071506933593751
        },
        {
          "name": "F4",
          "midi": 65,
          "time": 1.1149097460937498,
          "velocity": 0.7401574803149606,
          "duration": 0.1071506933593751
        },
        {
          "name": "A#2",
          "midi": 46,
          "time": 1.38889,
          "velocity": 0.6692913385826772,
          "duration": 0.46658023437500007
        },
        {
          "name": "A#3",
          "midi": 58,
          "time": 1.38889,
          "velocity": 0.7795275590551181,
          "duration": 0.46658023437500007
        },
        {
          "name": "C#3",
          "midi": 49,
          "time": 1.855741501953125,
          "velocity": 0.6299212598425197,
          "duration": 0.36621123046875015
        },
        {
          "name": "C#4",
          "midi": 61,
          "time": 1.855741501953125,
          "velocity": 0.7401574803149606,
          "duration": 0.36621123046875015
        },
        {
          "name": "A#3",
          "midi": 58,
          "time": 2.222224,
          "velocity": 0.7007874015748031,
          "duration": 0.18500448828124982
        },
        {
          "name": "E3",
          "midi": 52,
          "time": 2.222224,
          "velocity": 0.6377952755905512,
          "duration": 0.18500448828124982
        },
        {
          "name": "E4",
          "midi": 64,
          "time": 2.222224,
          "velocity": 0.7480314960629921,
          "duration": 0.19314251562499996
        },
        {
          "name": "C#4",
          "midi": 61,
          "time": 2.4156377832031253,
          "velocity": 0.6929133858267716,
          "duration": 0.07975266796875013
        },
        {
          "name": "D#4",
          "midi": 63,
          "time": 2.4156377832031253,
          "velocity": 0.6929133858267716,
          "duration": 0.07975266796875013
        },
        {
          "name": "D#4",
          "midi": 63,
          "time": 2.5037997460937502,
          "velocity": 0.6929133858267716,
          "duration": 0.17279744726562507
        },
        {
          "name": "C#3",
          "midi": 49,
          "time": 2.5037997460937502,
          "velocity": 0.6299212598425197,
          "duration": 0.1071506933593751
        },
        {
          "name": "C#4",
          "midi": 61,
          "time": 2.5037997460937502,
          "velocity": 0.7401574803149606,
          "duration": 0.1071506933593751
        },
        {
          "name": "C#4",
          "midi": 61,
          "time": 2.68500648828125,
          "velocity": 0.6929133858267716,
          "duration": 0.084364216796875
        },
        {
          "name": "F4",
          "midi": 65,
          "time": 2.77778,
          "velocity": 0.7322834645669292,
          "duration": 0.11773012890625001
        },
        {
          "name": "A#2",
          "midi": 46,
          "time": 2.77778,
          "velocity": 0.6692913385826772,
          "duration": 0.46658023437499985
        },
        {
          "name": "A#3",
          "midi": 58,
          "time": 2.77778,
          "velocity": 0.7795275590551181,
          "duration": 0.46658023437499985
        },
        {
          "name": "F4",
          "midi": 65,
          "time": 3.062339689453125,
          "velocity": 0.6299212598425197,
          "duration": 0.5485030429687501
        },
        {
          "name": "G#4",
          "midi": 68,
          "time": 3.062339689453125,
          "velocity": 0.6299212598425197,
          "duration": 0.5485030429687501
        },
        {
          "name": "A#4",
          "midi": 70,
          "time": 3.062339689453125,
          "velocity": 0.7086614173228346,
          "duration": 0.5485030429687501
        },
        {
          "name": "C#3",
          "midi": 49,
          "time": 3.244631501953125,
          "velocity": 0.6299212598425197,
          "duration": 0.36621123046875015
        },
        {
          "name": "C#4",
          "midi": 61,
          "time": 3.244631501953125,
          "velocity": 0.7401574803149606,
          "duration": 0.36621123046875015
        },
        {
          "name": "D#3",
          "midi": 51,
          "time": 3.611114,
          "velocity": 0.6377952755905512,
          "duration": 0.18500448828124982
        },
        {
          "name": "D#4",
          "midi": 63,
          "time": 3.611114,
          "velocity": 0.7480314960629921,
          "duration": 0.19314251562499996
        },
        {
          "name": "E4",
          "midi": 64,
          "time": 3.8045277832031252,
          "velocity": 0.6929133858267716,
          "duration": 0.07975266796875013
        },
        {
          "name": "F3",
          "midi": 53,
          "time": 3.89268974609375,
          "velocity": 0.6299212598425197,
          "duration": 0.1071506933593751
        },
        {
          "name": "F4",
          "midi": 65,
          "time": 3.89268974609375,
          "velocity": 0.7401574803149606,
          "duration": 0.1071506933593751
        },
        {
          "name": "A#2",
          "midi": 46,
          "time": 4.16667,
          "velocity": 0.6692913385826772,
          "duration": 0.46658023437499985
        },
        {
          "name": "A#3",
          "midi": 58,
          "time": 4.16667,
          "velocity": 0.7795275590551181,
          "duration": 0.46658023437499985
        },
        {
          "name": "F4",
          "midi": 65,
          "time": 4.3608975859375,
          "velocity": 0.6299212598425197,
          "duration": 0.09006083593749992
        },
        {
          "name": "G#4",
          "midi": 68,
          "time": 4.3608975859375,
          "velocity": 0.6299212598425197,
          "duration": 0.09006083593749992
        },
        {
          "name": "A#4",
          "midi": 70,
          "time": 4.3608975859375,
          "velocity": 0.7086614173228346,
          "duration": 0.09006083593749992
        },
        {
          "name": "F4",
          "midi": 65,
          "time": 4.4512296894531245,
          "velocity": 0.6299212598425197,
          "duration": 0.10498055273437501
        },
        {
          "name": "G#4",
          "midi": 68,
          "time": 4.4512296894531245,
          "velocity": 0.6299212598425197,
          "duration": 0.10498055273437501
        },
        {
          "name": "A#4",
          "midi": 70,
          "time": 4.4512296894531245,
          "velocity": 0.7086614173228346,
          "duration": 0.10498055273437501
        },
        {
          "name": "C#3",
          "midi": 49,
          "time": 4.633521501953124,
          "velocity": 0.6299212598425197,
          "duration": 0.3662112304687497
        },
        {
          "name": "C#4",
          "midi": 61,
          "time": 4.633521501953124,
          "velocity": 0.7401574803149606,
          "duration": 0.3662112304687497
        },
        {
          "name": "E3",
          "midi": 52,
          "time": 5.000003999999999,
          "velocity": 0.6377952755905512,
          "duration": 0.18500448828125027
        },
        {
          "name": "E4",
          "midi": 64,
          "time": 5.000003999999999,
          "velocity": 0.7480314960629921,
          "duration": 0.1931425156250004
        },
        {
          "name": "D#4",
          "midi": 63,
          "time": 5.193417783203124,
          "velocity": 0.6929133858267716,
          "duration": 0.07975266796874969
        },
        {
          "name": "C#3",
          "midi": 49,
          "time": 5.281579746093748,
          "velocity": 0.6299212598425197,
          "duration": 0.1071506933593751
        },
        {
          "name": "C#4",
          "midi": 61,
          "time": 5.281579746093748,
          "velocity": 0.7401574803149606,
          "duration": 0.1071506933593751
        },
        {
          "name": "C#5",
          "midi": 73,
          "time": 5.486115499999999,
          "velocity": 0.6929133858267716,
          "duration": 0.03472224999999973
        },
        {
          "name": "D#5",
          "midi": 75,
          "time": 5.520837749999998,
          "velocity": 0.6929133858267716,
          "duration": 0.03472224999999973
        },
        {
          "name": "A#4",
          "midi": 70,
          "time": 5.555559999999998,
          "velocity": 0.6692913385826772,
          "duration": 0.19395631835937532
        },
        {
          "name": "C#5",
          "midi": 73,
          "time": 5.555559999999998,
          "velocity": 0.6692913385826772,
          "duration": 0.1858182910156252
        },
        {
          "name": "F5",
          "midi": 77,
          "time": 5.555559999999998,
          "velocity": 0.7795275590551181,
          "duration": 0.19395631835937532
        },
        {
          "name": "A#2",
          "midi": 46,
          "time": 5.555559999999998,
          "velocity": 0.6692913385826772,
          "duration": 0.46658023437499985
        },
        {
          "name": "A#3",
          "midi": 58,
          "time": 5.555559999999998,
          "velocity": 0.7795275590551181,
          "duration": 0.46658023437499985
        },
        {
          "name": "F4",
          "midi": 65,
          "time": 5.749787585937498,
          "velocity": 0.6299212598425197,
          "duration": 0.10579435546874993
        },
        {
          "name": "A#4",
          "midi": 70,
          "time": 5.749787585937498,
          "velocity": 0.6299212598425197,
          "duration": 0.10579435546874993
        },
        {
          "name": "C#5",
          "midi": 73,
          "time": 5.749787585937498,
          "velocity": 0.7401574803149606,
          "duration": 0.10579435546874993
        },
        {
          "name": "A#4",
          "midi": 70,
          "time": 6.022411501953123,
          "velocity": 0.6299212598425197,
          "duration": 0.08924703320312499
        },
        {
          "name": "C#5",
          "midi": 73,
          "time": 6.022411501953123,
          "velocity": 0.6299212598425197,
          "duration": 0.08110900585937486
        },
        {
          "name": "F5",
          "midi": 77,
          "time": 6.022411501953123,
          "velocity": 0.7401574803149606,
          "duration": 0.08924703320312499
        },
        {
          "name": "C#3",
          "midi": 49,
          "time": 6.022411501953123,
          "velocity": 0.6299212598425197,
          "duration": 0.3662112304687497
        },
        {
          "name": "C#4",
          "midi": 61,
          "time": 6.022411501953123,
          "velocity": 0.7401574803149606,
          "duration": 0.3662112304687497
        },
        {
          "name": "F4",
          "midi": 65,
          "time": 6.111929802734372,
          "velocity": 0.6299212598425197,
          "duration": 0.11013463671875012
        },
        {
          "name": "A#4",
          "midi": 70,
          "time": 6.111929802734372,
          "velocity": 0.6299212598425197,
          "duration": 0.11013463671875012
        },
        {
          "name": "C#5",
          "midi": 73,
          "time": 6.111929802734372,
          "velocity": 0.7401574803149606,
          "duration": 0.11013463671875012
        },
        {
          "name": "A#4",
          "midi": 70,
          "time": 6.388893999999997,
          "velocity": 0.6377952755905512,
          "duration": 0.11474618554687499
        },
        {
          "name": "C#5",
          "midi": 73,
          "time": 6.388893999999997,
          "velocity": 0.6377952755905512,
          "duration": 0.11474618554687499
        },
        {
          "name": "F5",
          "midi": 77,
          "time": 6.388893999999997,
          "velocity": 0.7480314960629921,
          "duration": 0.11474618554687499
        },
        {
          "name": "D#3",
          "midi": 51,
          "time": 6.388893999999997,
          "velocity": 0.6377952755905512,
          "duration": 0.18500448828125027
        },
        {
          "name": "D#4",
          "midi": 63,
          "time": 6.388893999999997,
          "velocity": 0.7480314960629921,
          "duration": 0.1931425156250004
        },
        {
          "name": "E4",
          "midi": 64,
          "time": 6.582307783203122,
          "velocity": 0.6929133858267716,
          "duration": 0.07975266796874969
        },
        {
          "name": "F4",
          "midi": 65,
          "time": 6.6704697460937465,
          "velocity": 0.6299212598425197,
          "duration": 0.1071506933593751
        },
        {
          "name": "A#4",
          "midi": 70,
          "time": 6.6704697460937465,
          "velocity": 0.6299212598425197,
          "duration": 0.1071506933593751
        },
        {
          "name": "C#5",
          "midi": 73,
          "time": 6.6704697460937465,
          "velocity": 0.7401574803149606,
          "duration": 0.1071506933593751
        },
        {
          "name": "F3",
          "midi": 53,
          "time": 6.6704697460937465,
          "velocity": 0.6299212598425197,
          "duration": 0.1071506933593751
        },
        {
          "name": "F4",
          "midi": 65,
          "time": 6.6704697460937465,
          "velocity": 0.7401574803149606,
          "duration": 0.1071506933593751
        },
        {
          "name": "F4",
          "midi": 65,
          "time": 6.944449999999996,
          "velocity": 0.6692913385826772,
          "duration": 0.5560985351562495
        },
        {
          "name": "A4",
          "midi": 69,
          "time": 6.944449999999996,
          "velocity": 0.6692913385826772,
          "duration": 0.5560985351562495
        },
        {
          "name": "C5",
          "midi": 72,
          "time": 6.944449999999996,
          "velocity": 0.6692913385826772,
          "duration": 0.5560985351562495
        },
        {
          "name": "D#5",
          "midi": 75,
          "time": 6.944449999999996,
          "velocity": 0.7795275590551181,
          "duration": 0.5560985351562495
        },
        {
          "name": "F2",
          "midi": 41,
          "time": 6.944449999999996,
          "velocity": 0.6692913385826772,
          "duration": 0.46658023437499985
        },
        {
          "name": "F3",
          "midi": 53,
          "time": 6.944449999999996,
          "velocity": 0.7795275590551181,
          "duration": 0.46658023437499985
        },
        {
          "name": "A2",
          "midi": 45,
          "time": 7.411301501953121,
          "velocity": 0.6299212598425197,
          "duration": 0.3662112304687497
        },
        {
          "name": "A3",
          "midi": 57,
          "time": 7.411301501953121,
          "velocity": 0.7401574803149606,
          "duration": 0.3662112304687497
        },
        {
          "name": "F4",
          "midi": 65,
          "time": 7.777783999999995,
          "velocity": 0.6377952755905512,
          "duration": 0.18500448828125027
        },
        {
          "name": "C5",
          "midi": 72,
          "time": 7.777783999999995,
          "velocity": 0.6377952755905512,
          "duration": 0.18500448828125027
        },
        {
          "name": "D#5",
          "midi": 75,
          "time": 7.777783999999995,
          "velocity": 0.7165354330708661,
          "duration": 0.1931425156250004
        },
        {
          "name": "C3",
          "midi": 48,
          "time": 7.777783999999995,
          "velocity": 0.6377952755905512,
          "duration": 0.18500448828125027
        },
        {
          "name": "C4",
          "midi": 60,
          "time": 7.777783999999995,
          "velocity": 0.7480314960629921,
          "duration": 0.1931425156250004
        },
        {
          "name": "C#5",
          "midi": 73,
          "time": 7.97119778320312,
          "velocity": 0.6929133858267716,
          "duration": 0.07975266796874969
        },
        {
          "name": "C#4",
          "midi": 61,
          "time": 7.97119778320312,
          "velocity": 0.6929133858267716,
          "duration": 0.07975266796874969
        },
        {
          "name": "F4",
          "midi": 65,
          "time": 8.059359746093746,
          "velocity": 0.6299212598425197,
          "duration": 0.17279744726562463
        },
        {
          "name": "C5",
          "midi": 72,
          "time": 8.059359746093746,
          "velocity": 0.6299212598425197,
          "duration": 0.17279744726562463
        },
        {
          "name": "D#5",
          "midi": 75,
          "time": 8.059359746093746,
          "velocity": 0.7401574803149606,
          "duration": 0.18093547460937387
        },
        {
          "name": "D#3",
          "midi": 51,
          "time": 8.059359746093746,
          "velocity": 0.6299212598425197,
          "duration": 0.10715069335937422
        },
        {
          "name": "D#4",
          "midi": 63,
          "time": 8.059359746093746,
          "velocity": 0.7401574803149606,
          "duration": 0.10715069335937422
        },
        {
          "name": "E5",
          "midi": 76,
          "time": 8.240566488281244,
          "velocity": 0.6929133858267716,
          "duration": 0.08436421679687456
        },
        {
          "name": "A#4",
          "midi": 70,
          "time": 8.333339999999994,
          "velocity": 0.6692913385826772,
          "duration": 0.19395631835937444
        },
        {
          "name": "C#5",
          "midi": 73,
          "time": 8.333339999999994,
          "velocity": 0.6692913385826772,
          "duration": 0.1858182910156252
        },
        {
          "name": "F5",
          "midi": 77,
          "time": 8.333339999999994,
          "velocity": 0.7795275590551181,
          "duration": 0.19395631835937444
        },
        {
          "name": "A#2",
          "midi": 46,
          "time": 8.333339999999994,
          "velocity": 0.6692913385826772,
          "duration": 0.46658023437499985
        },
        {
          "name": "A#3",
          "midi": 58,
          "time": 8.333339999999994,
          "velocity": 0.7795275590551181,
          "duration": 0.46658023437499985
        },
        {
          "name": "F4",
          "midi": 65,
          "time": 8.527567585937494,
          "velocity": 0.6299212598425197,
          "duration": 0.10579435546875082
        },
        {
          "name": "A#4",
          "midi": 70,
          "time": 8.527567585937494,
          "velocity": 0.6299212598425197,
          "duration": 0.10579435546875082
        },
        {
          "name": "C#5",
          "midi": 73,
          "time": 8.527567585937494,
          "velocity": 0.7401574803149606,
          "duration": 0.10579435546875082
        },
        {
          "name": "A#4",
          "midi": 70,
          "time": 8.800191501953119,
          "velocity": 0.6299212598425197,
          "duration": 0.0892470332031241
        },
        {
          "name": "C#5",
          "midi": 73,
          "time": 8.800191501953119,
          "velocity": 0.6299212598425197,
          "duration": 0.08110900585937486
        },
        {
          "name": "F5",
          "midi": 77,
          "time": 8.800191501953119,
          "velocity": 0.7401574803149606,
          "duration": 0.0892470332031241
        },
        {
          "name": "C#3",
          "midi": 49,
          "time": 8.800191501953119,
          "velocity": 0.6299212598425197,
          "duration": 0.36621123046874793
        },
        {
          "name": "C#4",
          "midi": 61,
          "time": 8.800191501953119,
          "velocity": 0.7401574803149606,
          "duration": 0.36621123046874793
        },
        {
          "name": "F4",
          "midi": 65,
          "time": 8.889709802734368,
          "velocity": 0.6299212598425197,
          "duration": 0.11013463671874923
        },
        {
          "name": "A#4",
          "midi": 70,
          "time": 8.889709802734368,
          "velocity": 0.6299212598425197,
          "duration": 0.11013463671874923
        },
        {
          "name": "C#5",
          "midi": 73,
          "time": 8.889709802734368,
          "velocity": 0.7401574803149606,
          "duration": 0.11013463671874923
        },
        {
          "name": "A#4",
          "midi": 70,
          "time": 9.166673999999992,
          "velocity": 0.6377952755905512,
          "duration": 0.11474618554687588
        },
        {
          "name": "C#5",
          "midi": 73,
          "time": 9.166673999999992,
          "velocity": 0.6377952755905512,
          "duration": 0.11474618554687588
        },
        {
          "name": "F5",
          "midi": 77,
          "time": 9.166673999999992,
          "velocity": 0.7480314960629921,
          "duration": 0.11474618554687588
        },
        {
          "name": "D#3",
          "midi": 51,
          "time": 9.166673999999992,
          "velocity": 0.6377952755905512,
          "duration": 0.18500448828125116
        },
        {
          "name": "D#4",
          "midi": 63,
          "time": 9.166673999999992,
          "velocity": 0.7480314960629921,
          "duration": 0.1931425156250004
        },
        {
          "name": "E4",
          "midi": 64,
          "time": 9.360087783203117,
          "velocity": 0.6929133858267716,
          "duration": 0.07975266796874969
        },
        {
          "name": "F4",
          "midi": 65,
          "time": 9.448249746093742,
          "velocity": 0.6299212598425197,
          "duration": 0.10715069335937422
        },
        {
          "name": "A#4",
          "midi": 70,
          "time": 9.448249746093742,
          "velocity": 0.6299212598425197,
          "duration": 0.10715069335937422
        },
        {
          "name": "C#5",
          "midi": 73,
          "time": 9.448249746093742,
          "velocity": 0.7401574803149606,
          "duration": 0.10715069335937422
        },
        {
          "name": "F3",
          "midi": 53,
          "time": 9.448249746093742,
          "velocity": 0.6299212598425197,
          "duration": 0.10715069335937422
        },
        {
          "name": "F4",
          "midi": 65,
          "time": 9.448249746093742,
          "velocity": 0.7401574803149606,
          "duration": 0.10715069335937422
        },
        {
          "name": "F4",
          "midi": 65,
          "time": 9.72222999999999,
          "velocity": 0.6692913385826772,
          "duration": 0.5560985351562504
        },
        {
          "name": "A4",
          "midi": 69,
          "time": 9.72222999999999,
          "velocity": 0.6692913385826772,
          "duration": 0.5560985351562504
        },
        {
          "name": "C5",
          "midi": 72,
          "time": 9.72222999999999,
          "velocity": 0.6692913385826772,
          "duration": 0.5560985351562504
        },
        {
          "name": "D#5",
          "midi": 75,
          "time": 9.72222999999999,
          "velocity": 0.7795275590551181,
          "duration": 0.5560985351562504
        },
        {
          "name": "F2",
          "midi": 41,
          "time": 9.72222999999999,
          "velocity": 0.6692913385826772,
          "duration": 0.46658023437499985
        },
        {
          "name": "F3",
          "midi": 53,
          "time": 9.72222999999999,
          "velocity": 0.7795275590551181,
          "duration": 0.46658023437499985
        },
        {
          "name": "A2",
          "midi": 45,
          "time": 10.189081501953115,
          "velocity": 0.6299212598425197,
          "duration": 0.3662112304687515
        },
        {
          "name": "A3",
          "midi": 57,
          "time": 10.189081501953115,
          "velocity": 0.7401574803149606,
          "duration": 0.3662112304687515
        },
        {
          "name": "F4",
          "midi": 65,
          "time": 10.555563999999992,
          "velocity": 0.6377952755905512,
          "duration": 0.18500448828124938
        },
        {
          "name": "C5",
          "midi": 72,
          "time": 10.555563999999992,
          "velocity": 0.6377952755905512,
          "duration": 0.18500448828124938
        },
        {
          "name": "D#5",
          "midi": 75,
          "time": 10.555563999999992,
          "velocity": 0.7165354330708661,
          "duration": 0.19314251562499862
        },
        {
          "name": "C3",
          "midi": 48,
          "time": 10.555563999999992,
          "velocity": 0.6377952755905512,
          "duration": 0.18500448828124938
        },
        {
          "name": "C4",
          "midi": 60,
          "time": 10.555563999999992,
          "velocity": 0.7480314960629921,
          "duration": 0.19314251562499862
        },
        {
          "name": "C#5",
          "midi": 73,
          "time": 10.748977783203115,
          "velocity": 0.6929133858267716,
          "duration": 0.07975266796874969
        },
        {
          "name": "C#4",
          "midi": 61,
          "time": 10.748977783203115,
          "velocity": 0.6929133858267716,
          "duration": 0.07975266796874969
        },
        {
          "name": "F4",
          "midi": 65,
          "time": 10.83713974609374,
          "velocity": 0.6299212598425197,
          "duration": 0.17279744726562463
        },
        {
          "name": "C5",
          "midi": 72,
          "time": 10.83713974609374,
          "velocity": 0.6299212598425197,
          "duration": 0.17279744726562463
        },
        {
          "name": "D#5",
          "midi": 75,
          "time": 10.83713974609374,
          "velocity": 0.7401574803149606,
          "duration": 0.18093547460937387
        },
        {
          "name": "D#3",
          "midi": 51,
          "time": 10.83713974609374,
          "velocity": 0.6299212598425197,
          "duration": 0.10715069335937422
        },
        {
          "name": "D#4",
          "midi": 63,
          "time": 10.83713974609374,
          "velocity": 0.7401574803149606,
          "duration": 0.10715069335937422
        },
        {
          "name": "E5",
          "midi": 76,
          "time": 11.018346488281239,
          "velocity": 0.6929133858267716,
          "duration": 0.08436421679687456
        },
        {
          "name": "A#4",
          "midi": 70,
          "time": 11.112205070312488,
          "velocity": 0.6692913385826772,
          "duration": 0.11800139648437558
        },
        {
          "name": "C#5",
          "midi": 73,
          "time": 11.112205070312488,
          "velocity": 0.6692913385826772,
          "duration": 0.11800139648437558
        },
        {
          "name": "F5",
          "midi": 77,
          "time": 11.112205070312488,
          "velocity": 0.7795275590551181,
          "duration": 0.11800139648437558
        },
        {
          "name": "A#2",
          "midi": 46,
          "time": 11.112205070312488,
          "velocity": 0.6692913385826772,
          "duration": 0.5598962812499995
        },
        {
          "name": "A#3",
          "midi": 58,
          "time": 11.112205070312488,
          "velocity": 0.7795275590551181,
          "duration": 0.5598962812499995
        },
        {
          "name": "C#5",
          "midi": 73,
          "time": 11.397036027343738,
          "velocity": 0.6377952755905512,
          "duration": 0.10850703124999939
        },
        {
          "name": "F5",
          "midi": 77,
          "time": 11.397036027343738,
          "velocity": 0.6377952755905512,
          "duration": 0.10850703124999939
        },
        {
          "name": "A#5",
          "midi": 82,
          "time": 11.397036027343738,
          "velocity": 0.7480314960629921,
          "duration": 0.10850703124999939
        },
        {
          "name": "C#5",
          "midi": 73,
          "time": 11.672372619140612,
          "velocity": 0.6535433070866141,
          "duration": 0.10850703124999939
        },
        {
          "name": "F5",
          "midi": 77,
          "time": 11.672372619140612,
          "velocity": 0.6535433070866141,
          "duration": 0.10850703124999939
        },
        {
          "name": "G#5",
          "midi": 80,
          "time": 11.672372619140612,
          "velocity": 0.7637795275590551,
          "duration": 0.10850703124999939
        },
        {
          "name": "G#2",
          "midi": 44,
          "time": 11.672372619140612,
          "velocity": 0.6535433070866141,
          "duration": 0.5495881132812492
        },
        {
          "name": "G#3",
          "midi": 56,
          "time": 11.672372619140612,
          "velocity": 0.7637795275590551,
          "duration": 0.5495881132812492
        },
        {
          "name": "A#4",
          "midi": 70,
          "time": 11.947709210937486,
          "velocity": 0.6377952755905512,
          "duration": 0.10769322851562535
        },
        {
          "name": "C#5",
          "midi": 73,
          "time": 11.947709210937486,
          "velocity": 0.6377952755905512,
          "duration": 0.10769322851562535
        },
        {
          "name": "F#5",
          "midi": 78,
          "time": 11.947709210937486,
          "velocity": 0.7480314960629921,
          "duration": 0.10769322851562535
        },
        {
          "name": "A#4",
          "midi": 70,
          "time": 12.223317070312486,
          "velocity": 0.6692913385826772,
          "duration": 0.18500448828124938
        },
        {
          "name": "C#5",
          "midi": 73,
          "time": 12.223317070312486,
          "velocity": 0.6692913385826772,
          "duration": 0.18500448828124938
        },
        {
          "name": "F5",
          "midi": 77,
          "time": 12.223317070312486,
          "velocity": 0.7795275590551181,
          "duration": 0.19314251562499862
        },
        {
          "name": "F#2",
          "midi": 42,
          "time": 12.223317070312486,
          "velocity": 0.6692913385826772,
          "duration": 0.46793657226562324
        },
        {
          "name": "F#3",
          "midi": 54,
          "time": 12.223317070312486,
          "velocity": 0.7795275590551181,
          "duration": 0.46793657226562324
        },
        {
          "name": "D#5",
          "midi": 75,
          "time": 12.41673085351561,
          "velocity": 0.6929133858267716,
          "duration": 0.08300787890624939
        },
        {
          "name": "F#4",
          "midi": 66,
          "time": 12.508148027343735,
          "velocity": 0.6377952755905512,
          "duration": 0.1749675878906256
        },
        {
          "name": "A#4",
          "midi": 70,
          "time": 12.508148027343735,
          "velocity": 0.6377952755905512,
          "duration": 0.1749675878906256
        },
        {
          "name": "E5",
          "midi": 76,
          "time": 12.508148027343735,
          "velocity": 0.7480314960629921,
          "duration": 0.18310561523437485
        },
        {
          "name": "A4",
          "midi": 69,
          "time": 12.691524910156234,
          "velocity": 0.6299212598425197,
          "duration": 0.36702503320312374
        },
        {
          "name": "C5",
          "midi": 72,
          "time": 12.691524910156234,
          "velocity": 0.6299212598425197,
          "duration": 0.36702503320312374
        },
        {
          "name": "F5",
          "midi": 77,
          "time": 12.691524910156234,
          "velocity": 0.7401574803149606,
          "duration": 0.36702503320312374
        },
        {
          "name": "F2",
          "midi": 41,
          "time": 12.691524910156234,
          "velocity": 0.6299212598425197,
          "duration": 0.2682836347656252
        },
        {
          "name": "F3",
          "midi": 53,
          "time": 12.691524910156234,
          "velocity": 0.7401574803149606,
          "duration": 0.27642166210937447
        },
        {
          "name": "D#3",
          "midi": 51,
          "time": 12.968217839843733,
          "velocity": 0.6929133858267716,
          "duration": 0.08219407617187535
        },
        {
          "name": "F2",
          "midi": 41,
          "time": 13.058821210937483,
          "velocity": 0.6377952755905512,
          "duration": 0.27425152148437526
        },
        {
          "name": "F3",
          "midi": 53,
          "time": 13.058821210937483,
          "velocity": 0.7480314960629921,
          "duration": 0.27425152148437526
        },
        {
          "name": "C#4",
          "midi": 61,
          "time": 13.334429070312483,
          "velocity": 0.6692913385826772,
          "duration": 0.18500448828124938
        },
        {
          "name": "F4",
          "midi": 65,
          "time": 13.334429070312483,
          "velocity": 0.6692913385826772,
          "duration": 0.19314251562499862
        },
        {
          "name": "A#4",
          "midi": 70,
          "time": 13.334429070312483,
          "velocity": 0.7795275590551181,
          "duration": 0.19314251562499862
        },
        {
          "name": "A#2",
          "midi": 46,
          "time": 13.334429070312483,
          "velocity": 0.6692913385826772,
          "duration": 0.28455968945312193
        },
        {
          "name": "A#3",
          "midi": 58,
          "time": 13.334429070312483,
          "velocity": 0.7795275590551181,
          "duration": 0.28455968945312193
        },
        {
          "name": "C#5",
          "midi": 73,
          "time": 13.527842853515606,
          "velocity": 0.6929133858267716,
          "duration": 0.08300787890624939
        },
        {
          "name": "F4",
          "midi": 65,
          "time": 13.61926002734373,
          "velocity": 0.6377952755905512,
          "duration": 0.1749675878906256
        },
        {
          "name": "A#4",
          "midi": 70,
          "time": 13.61926002734373,
          "velocity": 0.6377952755905512,
          "duration": 0.1749675878906256
        },
        {
          "name": "D#5",
          "midi": 75,
          "time": 13.61926002734373,
          "velocity": 0.7480314960629921,
          "duration": 0.18310561523437485
        },
        {
          "name": "A#2",
          "midi": 46,
          "time": 13.61926002734373,
          "velocity": 0.6377952755905512,
          "duration": 0.2750653242187493
        },
        {
          "name": "A#3",
          "midi": 58,
          "time": 13.61926002734373,
          "velocity": 0.7480314960629921,
          "duration": 0.2750653242187493
        },
        {
          "name": "G#4",
          "midi": 68,
          "time": 13.80263691015623,
          "velocity": 0.6299212598425197,
          "duration": 0.08355041406250052
        },
        {
          "name": "E5",
          "midi": 76,
          "time": 13.80263691015623,
          "velocity": 0.7401574803149606,
          "duration": 0.09168844140624977
        },
        {
          "name": "G#2",
          "midi": 44,
          "time": 13.894596619140604,
          "velocity": 0.6535433070866141,
          "duration": 0.2750653242187493
        },
        {
          "name": "G#3",
          "midi": 56,
          "time": 13.894596619140604,
          "velocity": 0.7637795275590551,
          "duration": 0.2750653242187493
        },
        {
          "name": "G#4",
          "midi": 68,
          "time": 14.079329839843728,
          "velocity": 0.6299212598425197,
          "duration": 0.10715069335937422
        },
        {
          "name": "C5",
          "midi": 72,
          "time": 14.079329839843728,
          "velocity": 0.6299212598425197,
          "duration": 0.10715069335937422
        },
        {
          "name": "F5",
          "midi": 77,
          "time": 14.079329839843728,
          "velocity": 0.7401574803149606,
          "duration": 0.10715069335937422
        },
        {
          "name": "G#2",
          "midi": 44,
          "time": 14.169933210937478,
          "velocity": 0.6377952755905512,
          "duration": 0.2742515214843735
        },
        {
          "name": "G#3",
          "midi": 56,
          "time": 14.169933210937478,
          "velocity": 0.7480314960629921,
          "duration": 0.2742515214843735
        },
        {
          "name": "F4",
          "midi": 65,
          "time": 14.353310093749977,
          "velocity": 0.6299212598425197,
          "duration": 0.08273661132812471
        },
        {
          "name": "C#5",
          "midi": 73,
          "time": 14.353310093749977,
          "velocity": 0.7401574803149606,
          "duration": 0.09087463867187395
        },
        {
          "name": "F#4",
          "midi": 66,
          "time": 14.445541070312476,
          "velocity": 0.6692913385826772,
          "duration": 0.18500448828124938
        },
        {
          "name": "A#4",
          "midi": 70,
          "time": 14.445541070312476,
          "velocity": 0.6692913385826772,
          "duration": 0.18500448828124938
        },
        {
          "name": "D#5",
          "midi": 75,
          "time": 14.445541070312476,
          "velocity": 0.7795275590551181,
          "duration": 0.19314251562499862
        },
        {
          "name": "F#2",
          "midi": 42,
          "time": 14.445541070312476,
          "velocity": 0.6692913385826772,
          "duration": 0.28455968945312193
        },
        {
          "name": "F#3",
          "midi": 54,
          "time": 14.445541070312476,
          "velocity": 0.7795275590551181,
          "duration": 0.28455968945312193
        },
        {
          "name": "C#5",
          "midi": 73,
          "time": 14.6389548535156,
          "velocity": 0.6929133858267716,
          "duration": 0.08300787890624939
        },
        {
          "name": "F#4",
          "midi": 66,
          "time": 14.730372027343723,
          "velocity": 0.6377952755905512,
          "duration": 0.1749675878906256
        },
        {
          "name": "A#4",
          "midi": 70,
          "time": 14.730372027343723,
          "velocity": 0.6377952755905512,
          "duration": 0.1749675878906256
        },
        {
          "name": "D#5",
          "midi": 75,
          "time": 14.730372027343723,
          "velocity": 0.7480314960629921,
          "duration": 0.18310561523437485
        },
        {
          "name": "F#2",
          "midi": 42,
          "time": 14.730372027343723,
          "velocity": 0.6377952755905512,
          "duration": 0.1749675878906256
        },
        {
          "name": "F#3",
          "midi": 54,
          "time": 14.730372027343723,
          "velocity": 0.7480314960629921,
          "duration": 0.18310561523437485
        },
        {
          "name": "A4",
          "midi": 69,
          "time": 14.913748910156222,
          "velocity": 0.6299212598425197,
          "duration": 0.36702503320312374
        },
        {
          "name": "C5",
          "midi": 72,
          "time": 14.913748910156222,
          "velocity": 0.6299212598425197,
          "duration": 0.36702503320312374
        },
        {
          "name": "F5",
          "midi": 77,
          "time": 14.913748910156222,
          "velocity": 0.7401574803149606,
          "duration": 0.36702503320312374
        },
        {
          "name": "F2",
          "midi": 41,
          "time": 14.913748910156222,
          "velocity": 0.6299212598425197,
          "duration": 0.2682836347656252
        },
        {
          "name": "F3",
          "midi": 53,
          "time": 14.913748910156222,
          "velocity": 0.7401574803149606,
          "duration": 0.27642166210937447
        },
        {
          "name": "D#3",
          "midi": 51,
          "time": 15.190441839843722,
          "velocity": 0.6929133858267716,
          "duration": 0.08219407617187535
        },
        {
          "name": "F2",
          "midi": 41,
          "time": 15.28104521093747,
          "velocity": 0.6377952755905512,
          "duration": 0.27425152148437526
        },
        {
          "name": "F3",
          "midi": 53,
          "time": 15.28104521093747,
          "velocity": 0.7480314960629921,
          "duration": 0.27425152148437526
        },
        {
          "name": "A#4",
          "midi": 70,
          "time": 15.556653070312471,
          "velocity": 0.6692913385826772,
          "duration": 0.18500448828124938
        },
        {
          "name": "C#5",
          "midi": 73,
          "time": 15.556653070312471,
          "velocity": 0.6692913385826772,
          "duration": 0.19314251562499862
        },
        {
          "name": "F5",
          "midi": 77,
          "time": 15.556653070312471,
          "velocity": 0.7795275590551181,
          "duration": 0.19314251562499862
        },
        {
          "name": "A#2",
          "midi": 46,
          "time": 15.556653070312471,
          "velocity": 0.6692913385826772,
          "duration": 0.2845596894531237
        },
        {
          "name": "A#3",
          "midi": 58,
          "time": 15.556653070312471,
          "velocity": 0.7795275590551181,
          "duration": 0.2845596894531237
        },
        {
          "name": "C#5",
          "midi": 73,
          "time": 15.750066853515595,
          "velocity": 0.6299212598425197,
          "duration": 0.10796449609375003
        },
        {
          "name": "F5",
          "midi": 77,
          "time": 15.750066853515595,
          "velocity": 0.6299212598425197,
          "duration": 0.10796449609375003
        },
        {
          "name": "A#5",
          "midi": 82,
          "time": 15.750066853515595,
          "velocity": 0.7401574803149606,
          "duration": 0.10796449609375003
        },
        {
          "name": "A#2",
          "midi": 46,
          "time": 15.84148402734372,
          "velocity": 0.6377952755905512,
          "duration": 0.27506532421875285
        },
        {
          "name": "A#3",
          "midi": 58,
          "time": 15.84148402734372,
          "velocity": 0.7480314960629921,
          "duration": 0.27506532421875285
        },
        {
          "name": "C#5",
          "midi": 73,
          "time": 16.02486091015622,
          "velocity": 0.6299212598425197,
          "duration": 0.08355041406250052
        },
        {
          "name": "F5",
          "midi": 77,
          "time": 16.02486091015622,
          "velocity": 0.6299212598425197,
          "duration": 0.08355041406250052
        },
        {
          "name": "A#5",
          "midi": 82,
          "time": 16.02486091015622,
          "velocity": 0.7401574803149606,
          "duration": 0.09168844140625154
        },
        {
          "name": "C5",
          "midi": 72,
          "time": 16.116820619140597,
          "velocity": 0.6535433070866141,
          "duration": 0.17632392578125078
        },
        {
          "name": "D#5",
          "midi": 75,
          "time": 16.116820619140597,
          "velocity": 0.6535433070866141,
          "duration": 0.17632392578125078
        },
        {
          "name": "G#5",
          "midi": 80,
          "time": 16.116820619140597,
          "velocity": 0.7637795275590551,
          "duration": 0.1844619531250018
        },
        {
          "name": "G#2",
          "midi": 44,
          "time": 16.116820619140597,
          "velocity": 0.6535433070866141,
          "duration": 0.2750653242187511
        },
        {
          "name": "G#3",
          "midi": 56,
          "time": 16.116820619140597,
          "velocity": 0.7637795275590551,
          "duration": 0.2750653242187511
        },
        {
          "name": "F5",
          "midi": 77,
          "time": 16.301553839843724,
          "velocity": 0.6929133858267716,
          "duration": 0.08219407617187358
        },
        {
          "name": "G#4",
          "midi": 68,
          "time": 16.392157210937473,
          "velocity": 0.6377952755905512,
          "duration": 0.17496758789062383
        },
        {
          "name": "D#5",
          "midi": 75,
          "time": 16.392157210937473,
          "velocity": 0.7480314960629921,
          "duration": 0.18310561523437485
        },
        {
          "name": "G#2",
          "midi": 44,
          "time": 16.392157210937473,
          "velocity": 0.6377952755905512,
          "duration": 0.27425152148437704
        },
        {
          "name": "G#3",
          "midi": 56,
          "time": 16.392157210937473,
          "velocity": 0.7480314960629921,
          "duration": 0.27425152148437704
        },
        {
          "name": "C#5",
          "midi": 73,
          "time": 16.575534093749972,
          "velocity": 0.6929133858267716,
          "duration": 0.08273661132812649
        },
        {
          "name": "F#4",
          "midi": 66,
          "time": 16.667765070312473,
          "velocity": 0.6692913385826772,
          "duration": 0.18500448828125116
        },
        {
          "name": "A#4",
          "midi": 70,
          "time": 16.667765070312473,
          "velocity": 0.6692913385826772,
          "duration": 0.18500448828125116
        },
        {
          "name": "D#5",
          "midi": 75,
          "time": 16.667765070312473,
          "velocity": 0.7795275590551181,
          "duration": 0.19314251562500218
        },
        {
          "name": "F#2",
          "midi": 42,
          "time": 16.667765070312473,
          "velocity": 0.6692913385826772,
          "duration": 0.28455968945312904
        },
        {
          "name": "F#3",
          "midi": 54,
          "time": 16.667765070312473,
          "velocity": 0.7795275590551181,
          "duration": 0.28455968945312904
        },
        {
          "name": "C#5",
          "midi": 73,
          "time": 16.8611788535156,
          "velocity": 0.6929133858267716,
          "duration": 0.08300787890625116
        },
        {
          "name": "F#4",
          "midi": 66,
          "time": 16.952596027343727,
          "velocity": 0.6377952755905512,
          "duration": 0.17496758789062383
        },
        {
          "name": "A#4",
          "midi": 70,
          "time": 16.952596027343727,
          "velocity": 0.6377952755905512,
          "duration": 0.17496758789062383
        },
        {
          "name": "D#5",
          "midi": 75,
          "time": 16.952596027343727,
          "velocity": 0.7480314960629921,
          "duration": 0.18310561523437485
        },
        {
          "name": "F#2",
          "midi": 42,
          "time": 16.952596027343727,
          "velocity": 0.6377952755905512,
          "duration": 0.17496758789062383
        },
        {
          "name": "F#3",
          "midi": 54,
          "time": 16.952596027343727,
          "velocity": 0.7480314960629921,
          "duration": 0.18310561523437485
        },
        {
          "name": "A4",
          "midi": 69,
          "time": 17.135972910156227,
          "velocity": 0.6299212598425197,
          "duration": 0.36702503320312374
        },
        {
          "name": "C5",
          "midi": 72,
          "time": 17.135972910156227,
          "velocity": 0.6299212598425197,
          "duration": 0.36702503320312374
        },
        {
          "name": "F5",
          "midi": 77,
          "time": 17.135972910156227,
          "velocity": 0.7401574803149606,
          "duration": 0.36702503320312374
        },
        {
          "name": "F2",
          "midi": 41,
          "time": 17.135972910156227,
          "velocity": 0.6299212598425197,
          "duration": 0.36702503320312374
        },
        {
          "name": "F3",
          "midi": 53,
          "time": 17.135972910156227,
          "velocity": 0.7401574803149606,
          "duration": 0.36702503320312374
        },
        {
          "name": "F#4",
          "midi": 66,
          "time": 17.503269210937475,
          "velocity": 0.6377952755905512,
          "duration": 0.10769322851562535
        },
        {
          "name": "D#5",
          "midi": 75,
          "time": 17.503269210937475,
          "velocity": 0.7480314960629921,
          "duration": 0.10769322851562535
        },
        {
          "name": "D#2",
          "midi": 39,
          "time": 17.503269210937475,
          "velocity": 0.6299212598425197,
          "duration": 0.27425152148437704
        },
        {
          "name": "D#3",
          "midi": 51,
          "time": 17.503269210937475,
          "velocity": 0.7480314960629921,
          "duration": 0.27425152148437704
        },
        {
          "name": "F4",
          "midi": 65,
          "time": 17.778877070312475,
          "velocity": 0.6692913385826772,
          "duration": 0.18500448828125116
        },
        {
          "name": "G#4",
          "midi": 68,
          "time": 17.778877070312475,
          "velocity": 0.6692913385826772,
          "duration": 0.18500448828125116
        },
        {
          "name": "C#5",
          "midi": 73,
          "time": 17.778877070312475,
          "velocity": 0.7795275590551181,
          "duration": 0.19314251562500218
        },
        {
          "name": "E2",
          "midi": 40,
          "time": 17.778877070312475,
          "velocity": 0.6614173228346457,
          "duration": 0.46793657226562857
        },
        {
          "name": "E3",
          "midi": 52,
          "time": 17.778877070312475,
          "velocity": 0.7795275590551181,
          "duration": 0.46793657226562857
        },
        {
          "name": "C5",
          "midi": 72,
          "time": 17.972290853515602,
          "velocity": 0.6929133858267716,
          "duration": 0.08300787890625116
        },
        {
          "name": "C#4",
          "midi": 61,
          "time": 18.06370802734373,
          "velocity": 0.6377952755905512,
          "duration": 0.17496758789062383
        },
        {
          "name": "F4",
          "midi": 65,
          "time": 18.06370802734373,
          "velocity": 0.6377952755905512,
          "duration": 0.18310561523437485
        },
        {
          "name": "A#4",
          "midi": 70,
          "time": 18.06370802734373,
          "velocity": 0.7480314960629921,
          "duration": 0.18310561523437485
        },
        {
          "name": "F4",
          "midi": 65,
          "time": 18.24708491015623,
          "velocity": 0.6299212598425197,
          "duration": 0.27642166210937447
        },
        {
          "name": "G#4",
          "midi": 68,
          "time": 18.24708491015623,
          "velocity": 0.6299212598425197,
          "duration": 0.27642166210937447
        },
        {
          "name": "C#5",
          "midi": 73,
          "time": 18.24708491015623,
          "velocity": 0.7401574803149606,
          "duration": 0.27642166210937447
        },
        {
          "name": "E2",
          "midi": 40,
          "time": 18.24708491015623,
          "velocity": 0.6220472440944882,
          "duration": 0.36702503320312374
        },
        {
          "name": "E3",
          "midi": 52,
          "time": 18.24708491015623,
          "velocity": 0.7086614173228346,
          "duration": 0.36702503320312374
        },
        {
          "name": "C5",
          "midi": 72,
          "time": 18.523777839843728,
          "velocity": 0.6929133858267716,
          "duration": 0.08219407617187358
        },
        {
          "name": "C#4",
          "midi": 61,
          "time": 18.614381210937477,
          "velocity": 0.6377952755905512,
          "duration": 0.10769322851562535
        },
        {
          "name": "F4",
          "midi": 65,
          "time": 18.614381210937477,
          "velocity": 0.6377952755905512,
          "duration": 0.10769322851562535
        },
        {
          "name": "A#4",
          "midi": 70,
          "time": 18.614381210937477,
          "velocity": 0.7480314960629921,
          "duration": 0.10769322851562535
        },
        {
          "name": "E2",
          "midi": 40,
          "time": 18.614381210937477,
          "velocity": 0.6299212598425197,
          "duration": 0.27425152148437704
        },
        {
          "name": "E3",
          "midi": 52,
          "time": 18.614381210937477,
          "velocity": 0.7480314960629921,
          "duration": 0.27425152148437704
        },
        {
          "name": "C4",
          "midi": 60,
          "time": 18.889989070312478,
          "velocity": 0.6692913385826772,
          "duration": 0.2845596894531255
        },
        {
          "name": "F4",
          "midi": 65,
          "time": 18.889989070312478,
          "velocity": 0.6692913385826772,
          "duration": 0.2845596894531255
        },
        {
          "name": "A4",
          "midi": 69,
          "time": 18.889989070312478,
          "velocity": 0.6692913385826772,
          "duration": 0.2845596894531255
        },
        {
          "name": "C5",
          "midi": 72,
          "time": 18.889989070312478,
          "velocity": 0.7795275590551181,
          "duration": 0.2845596894531255
        },
        {
          "name": "F2",
          "midi": 41,
          "time": 18.889989070312478,
          "velocity": 0.6692913385826772,
          "duration": 0.5598962812500012
        },
        {
          "name": "F3",
          "midi": 53,
          "time": 18.889989070312478,
          "velocity": 0.7795275590551181,
          "duration": 0.5598962812500012
        },
        {
          "name": "A4",
          "midi": 69,
          "time": 19.450156619140603,
          "velocity": 0.6535433070866141,
          "duration": 0.2750653242187511
        },
        {
          "name": "C5",
          "midi": 72,
          "time": 19.450156619140603,
          "velocity": 0.6535433070866141,
          "duration": 0.2750653242187511
        },
        {
          "name": "F5",
          "midi": 77,
          "time": 19.450156619140603,
          "velocity": 0.7637795275590551,
          "duration": 0.2750653242187511
        },
        {
          "name": "F1",
          "midi": 29,
          "time": 19.450156619140603,
          "velocity": 0.6535433070866141,
          "duration": 0.5495881132812528
        },
        {
          "name": "F2",
          "midi": 41,
          "time": 19.450156619140603,
          "velocity": 0.7637795275590551,
          "duration": 0.5495881132812528
        },
        {
          "name": "A#4",
          "midi": 70,
          "time": 20.00001599999998,
          "velocity": 0.8031496062992126,
          "duration": 2.684735220703139
        },
        {
          "name": "C#5",
          "midi": 73,
          "time": 20.00001599999998,
          "velocity": 0.8031496062992126,
          "duration": 2.684735220703139
        },
        {
          "name": "F5",
          "midi": 77,
          "time": 20.00001599999998,
          "velocity": 0.8031496062992126,
          "duration": 2.684735220703139
        },
        {
          "name": "A#5",
          "midi": 82,
          "time": 20.00001599999998,
          "velocity": 0.9133858267716536,
          "duration": 2.684735220703139
        },
        {
          "name": "A#2",
          "midi": 46,
          "time": 20.00001599999998,
          "velocity": 0.6692913385826772,
          "duration": 0.4665802343750016
        },
        {
          "name": "A#3",
          "midi": 58,
          "time": 20.00001599999998,
          "velocity": 0.7795275590551181,
          "duration": 0.4665802343750016
        },
        {
          "name": "C#3",
          "midi": 49,
          "time": 20.466867501953107,
          "velocity": 0.6299212598425197,
          "duration": 0.3662112304687497
        },
        {
          "name": "C#4",
          "midi": 61,
          "time": 20.466867501953107,
          "velocity": 0.7401574803149606,
          "duration": 0.3662112304687497
        },
        {
          "name": "D#3",
          "midi": 51,
          "time": 20.83334999999998,
          "velocity": 0.6377952755905512,
          "duration": 0.18500448828125116
        },
        {
          "name": "D#4",
          "midi": 63,
          "time": 20.83334999999998,
          "velocity": 0.7480314960629921,
          "duration": 0.19314251562500218
        },
        {
          "name": "E4",
          "midi": 64,
          "time": 21.02676378320311,
          "velocity": 0.6929133858267716,
          "duration": 0.07975266796875147
        },
        {
          "name": "F3",
          "midi": 53,
          "time": 21.114925746093736,
          "velocity": 0.6299212598425197,
          "duration": 0.10715069335937599
        },
        {
          "name": "F4",
          "midi": 65,
          "time": 21.114925746093736,
          "velocity": 0.7401574803149606,
          "duration": 0.10715069335937599
        },
        {
          "name": "A#2",
          "midi": 46,
          "time": 21.388905999999988,
          "velocity": 0.6692913385826772,
          "duration": 0.4665802343750016
        },
        {
          "name": "A#3",
          "midi": 58,
          "time": 21.388905999999988,
          "velocity": 0.7795275590551181,
          "duration": 0.4665802343750016
        },
        {
          "name": "C#3",
          "midi": 49,
          "time": 21.855757501953114,
          "velocity": 0.6299212598425197,
          "duration": 0.3662112304687497
        },
        {
          "name": "C#4",
          "midi": 61,
          "time": 21.855757501953114,
          "velocity": 0.7401574803149606,
          "duration": 0.3662112304687497
        },
        {
          "name": "E3",
          "midi": 52,
          "time": 22.22223999999999,
          "velocity": 0.6377952755905512,
          "duration": 0.18500448828125116
        },
        {
          "name": "E4",
          "midi": 64,
          "time": 22.22223999999999,
          "velocity": 0.7480314960629921,
          "duration": 0.19314251562500218
        },
        {
          "name": "D#4",
          "midi": 63,
          "time": 22.415653783203116,
          "velocity": 0.6929133858267716,
          "duration": 0.07975266796875147
        },
        {
          "name": "C#3",
          "midi": 49,
          "time": 22.503815746093743,
          "velocity": 0.6299212598425197,
          "duration": 0.10715069335937599
        },
        {
          "name": "C#4",
          "midi": 61,
          "time": 22.503815746093743,
          "velocity": 0.7401574803149606,
          "duration": 0.10715069335937599
        },
        {
          "name": "A#4",
          "midi": 70,
          "time": 22.685022488281245,
          "velocity": 0.5354330708661418,
          "duration": 0.37706193359375106
        },
        {
          "name": "C#5",
          "midi": 73,
          "time": 22.685022488281245,
          "velocity": 0.5354330708661418,
          "duration": 0.37706193359375106
        },
        {
          "name": "F5",
          "midi": 77,
          "time": 22.685022488281245,
          "velocity": 0.5354330708661418,
          "duration": 0.37706193359375106
        },
        {
          "name": "A#5",
          "midi": 82,
          "time": 22.685022488281245,
          "velocity": 0.6141732283464567,
          "duration": 0.37706193359375106
        },
        {
          "name": "A#2",
          "midi": 46,
          "time": 22.777795999999995,
          "velocity": 0.6692913385826772,
          "duration": 0.4665802343750016
        },
        {
          "name": "A#3",
          "midi": 58,
          "time": 22.777795999999995,
          "velocity": 0.7795275590551181,
          "duration": 0.4665802343750016
        },
        {
          "name": "F4",
          "midi": 65,
          "time": 23.06235568945312,
          "velocity": 0.6299212598425197,
          "duration": 0.5485030429687505
        },
        {
          "name": "G#4",
          "midi": 68,
          "time": 23.06235568945312,
          "velocity": 0.6299212598425197,
          "duration": 0.5485030429687505
        },
        {
          "name": "A#4",
          "midi": 70,
          "time": 23.06235568945312,
          "velocity": 0.7401574803149606,
          "duration": 0.5485030429687505
        },
        {
          "name": "C#3",
          "midi": 49,
          "time": 23.24464750195312,
          "velocity": 0.6299212598425197,
          "duration": 0.3662112304687497
        },
        {
          "name": "C#4",
          "midi": 61,
          "time": 23.24464750195312,
          "velocity": 0.7401574803149606,
          "duration": 0.3662112304687497
        },
        {
          "name": "D#3",
          "midi": 51,
          "time": 23.611129999999996,
          "velocity": 0.6377952755905512,
          "duration": 0.18500448828125116
        },
        {
          "name": "D#4",
          "midi": 63,
          "time": 23.611129999999996,
          "velocity": 0.7480314960629921,
          "duration": 0.19314251562500218
        },
        {
          "name": "E4",
          "midi": 64,
          "time": 23.804543783203123,
          "velocity": 0.6929133858267716,
          "duration": 0.07975266796875147
        },
        {
          "name": "F3",
          "midi": 53,
          "time": 23.89270574609375,
          "velocity": 0.6299212598425197,
          "duration": 0.10715069335937599
        },
        {
          "name": "F4",
          "midi": 65,
          "time": 23.89270574609375,
          "velocity": 0.7401574803149606,
          "duration": 0.10715069335937599
        },
        {
          "name": "F4",
          "midi": 65,
          "time": 24.073912488281252,
          "velocity": 0.6299212598425197,
          "duration": 0.09250224414062558
        },
        {
          "name": "G#4",
          "midi": 68,
          "time": 24.073912488281252,
          "velocity": 0.6299212598425197,
          "duration": 0.09250224414062558
        },
        {
          "name": "A#4",
          "midi": 70,
          "time": 24.073912488281252,
          "velocity": 0.7086614173228346,
          "duration": 0.09250224414062558
        },
        {
          "name": "F4",
          "midi": 65,
          "time": 24.166686000000002,
          "velocity": 0.6692913385826772,
          "duration": 0.11773012890624912
        },
        {
          "name": "G#4",
          "midi": 68,
          "time": 24.166686000000002,
          "velocity": 0.6692913385826772,
          "duration": 0.11773012890624912
        },
        {
          "name": "A#4",
          "midi": 70,
          "time": 24.166686000000002,
          "velocity": 0.7480314960629921,
          "duration": 0.11773012890624912
        },
        {
          "name": "A#2",
          "midi": 46,
          "time": 24.166686000000002,
          "velocity": 0.6692913385826772,
          "duration": 0.46658023437499807
        },
        {
          "name": "A#3",
          "midi": 58,
          "time": 24.166686000000002,
          "velocity": 0.7795275590551181,
          "duration": 0.46658023437499807
        },
        {
          "name": "C#3",
          "midi": 49,
          "time": 24.633537501953125,
          "velocity": 0.6299212598425197,
          "duration": 0.3662112304687497
        },
        {
          "name": "C#4",
          "midi": 61,
          "time": 24.633537501953125,
          "velocity": 0.7401574803149606,
          "duration": 0.3662112304687497
        },
        {
          "name": "F4",
          "midi": 65,
          "time": 24.906432685546875,
          "velocity": 0.6299212598425197,
          "duration": 0.0851780195312486
        },
        {
          "name": "G#4",
          "midi": 68,
          "time": 24.906432685546875,
          "velocity": 0.6299212598425197,
          "duration": 0.0851780195312486
        },
        {
          "name": "A#4",
          "midi": 70,
          "time": 24.906432685546875,
          "velocity": 0.7086614173228346,
          "duration": 0.09331604687499961
        },
        {
          "name": "E3",
          "midi": 52,
          "time": 25.00002,
          "velocity": 0.6377952755905512,
          "duration": 0.18500448828125116
        },
        {
          "name": "E4",
          "midi": 64,
          "time": 25.00002,
          "velocity": 0.7480314960629921,
          "duration": 0.19314251562500218
        },
        {
          "name": "D#4",
          "midi": 63,
          "time": 25.193433783203126,
          "velocity": 0.6929133858267716,
          "duration": 0.07975266796875147
        },
        {
          "name": "C#3",
          "midi": 49,
          "time": 25.281595746093753,
          "velocity": 0.6299212598425197,
          "duration": 0.10715069335937599
        },
        {
          "name": "C#4",
          "midi": 61,
          "time": 25.281595746093753,
          "velocity": 0.7401574803149606,
          "duration": 0.10715069335937599
        },
        {
          "name": "F4",
          "midi": 65,
          "time": 25.555576000000006,
          "velocity": 0.7322834645669292,
          "duration": 0.1858182910156252
        },
        {
          "name": "A#2",
          "midi": 46,
          "time": 25.555576000000006,
          "velocity": 0.6692913385826772,
          "duration": 0.4665802343750016
        },
        {
          "name": "A#3",
          "midi": 58,
          "time": 25.555576000000006,
          "velocity": 0.7795275590551181,
          "duration": 0.4665802343750016
        },
        {
          "name": "C#4",
          "midi": 61,
          "time": 25.749803585937507,
          "velocity": 0.6929133858267716,
          "duration": 0.10579435546874905
        },
        {
          "name": "F4",
          "midi": 65,
          "time": 26.022427501953132,
          "velocity": 0.6929133858267716,
          "duration": 0.08110900585937486
        },
        {
          "name": "C#3",
          "midi": 49,
          "time": 26.022427501953132,
          "velocity": 0.6299212598425197,
          "duration": 0.36621123046875326
        },
        {
          "name": "C#4",
          "midi": 61,
          "time": 26.022427501953132,
          "velocity": 0.7401574803149606,
          "duration": 0.19965293750000157
        },
        {
          "name": "C#4",
          "midi": 61,
          "time": 26.111945802734382,
          "velocity": 0.6929133858267716,
          "duration": 0.2766929296875027
        },
        {
          "name": "F4",
          "midi": 65,
          "time": 26.38891000000001,
          "velocity": 0.7007874015748031,
          "duration": 0.1147461855468741
        },
        {
          "name": "D#3",
          "midi": 51,
          "time": 26.38891000000001,
          "velocity": 0.6377952755905512,
          "duration": 0.1850044882812476
        },
        {
          "name": "D#4",
          "midi": 63,
          "time": 26.38891000000001,
          "velocity": 0.7480314960629921,
          "duration": 0.19314251562499862
        },
        {
          "name": "E4",
          "midi": 64,
          "time": 26.582323783203133,
          "velocity": 0.6929133858267716,
          "duration": 0.07975266796875147
        },
        {
          "name": "C#4",
          "midi": 61,
          "time": 26.67048574609376,
          "velocity": 0.6929133858267716,
          "duration": 0.10715069335937599
        },
        {
          "name": "F3",
          "midi": 53,
          "time": 26.67048574609376,
          "velocity": 0.6299212598425197,
          "duration": 0.10715069335937599
        },
        {
          "name": "F4",
          "midi": 65,
          "time": 26.67048574609376,
          "velocity": 0.7401574803149606,
          "duration": 0.10715069335937599
        },
        {
          "name": "D#4",
          "midi": 63,
          "time": 26.944466000000013,
          "velocity": 0.7322834645669292,
          "duration": 0.5560985351562522
        },
        {
          "name": "F2",
          "midi": 41,
          "time": 26.944466000000013,
          "velocity": 0.6692913385826772,
          "duration": 0.4665802343750016
        },
        {
          "name": "F3",
          "midi": 53,
          "time": 26.944466000000013,
          "velocity": 0.7795275590551181,
          "duration": 0.4665802343750016
        },
        {
          "name": "A2",
          "midi": 45,
          "time": 27.41131750195314,
          "velocity": 0.6299212598425197,
          "duration": 0.3662112304687497
        },
        {
          "name": "A3",
          "midi": 57,
          "time": 27.41131750195314,
          "velocity": 0.7401574803149606,
          "duration": 0.3662112304687497
        },
        {
          "name": "D#4",
          "midi": 63,
          "time": 27.777800000000013,
          "velocity": 0.7007874015748031,
          "duration": 0.18500448828125116
        },
        {
          "name": "C3",
          "midi": 48,
          "time": 27.777800000000013,
          "velocity": 0.6377952755905512,
          "duration": 0.18500448828125116
        },
        {
          "name": "C4",
          "midi": 60,
          "time": 27.777800000000013,
          "velocity": 0.7480314960629921,
          "duration": 0.19314251562500218
        },
        {
          "name": "C#4",
          "midi": 61,
          "time": 27.97121378320314,
          "velocity": 0.6929133858267716,
          "duration": 0.07975266796875147
        },
        {
          "name": "C#4",
          "midi": 61,
          "time": 27.97121378320314,
          "velocity": 0.6929133858267716,
          "duration": 0.07975266796875147
        },
        {
          "name": "D#4",
          "midi": 63,
          "time": 28.059375746093767,
          "velocity": 0.6929133858267716,
          "duration": 0.10715069335937599
        },
        {
          "name": "D#3",
          "midi": 51,
          "time": 28.059375746093767,
          "velocity": 0.6299212598425197,
          "duration": 0.10715069335937599
        },
        {
          "name": "D#4",
          "midi": 63,
          "time": 28.059375746093767,
          "velocity": 0.7401574803149606,
          "duration": 0.1727974472656264
        },
        {
          "name": "E4",
          "midi": 64,
          "time": 28.24058248828127,
          "velocity": 0.6929133858267716,
          "duration": 0.08436421679687456
        },
        {
          "name": "F4",
          "midi": 65,
          "time": 28.33335600000002,
          "velocity": 0.7322834645669292,
          "duration": 0.1858182910156252
        },
        {
          "name": "A#2",
          "midi": 46,
          "time": 28.33335600000002,
          "velocity": 0.6692913385826772,
          "duration": 0.4665802343750016
        },
        {
          "name": "A#3",
          "midi": 58,
          "time": 28.33335600000002,
          "velocity": 0.7795275590551181,
          "duration": 0.4665802343750016
        },
        {
          "name": "C#4",
          "midi": 61,
          "time": 28.52758358593752,
          "velocity": 0.6929133858267716,
          "duration": 0.10579435546874905
        },
        {
          "name": "F4",
          "midi": 65,
          "time": 28.800207501953146,
          "velocity": 0.6929133858267716,
          "duration": 0.08110900585937486
        },
        {
          "name": "C#3",
          "midi": 49,
          "time": 28.800207501953146,
          "velocity": 0.6299212598425197,
          "duration": 0.36621123046875326
        },
        {
          "name": "C#4",
          "midi": 61,
          "time": 28.800207501953146,
          "velocity": 0.7401574803149606,
          "duration": 0.19965293750000157
        },
        {
          "name": "C#4",
          "midi": 61,
          "time": 28.889725802734397,
          "velocity": 0.6929133858267716,
          "duration": 0.2766929296875027
        },
        {
          "name": "F4",
          "midi": 65,
          "time": 29.166690000000024,
          "velocity": 0.7007874015748031,
          "duration": 0.1147461855468741
        },
        {
          "name": "D#3",
          "midi": 51,
          "time": 29.166690000000024,
          "velocity": 0.6377952755905512,
          "duration": 0.1850044882812476
        },
        {
          "name": "D#4",
          "midi": 63,
          "time": 29.166690000000024,
          "velocity": 0.7480314960629921,
          "duration": 0.19314251562499862
        },
        {
          "name": "E4",
          "midi": 64,
          "time": 29.360103783203147,
          "velocity": 0.6929133858267716,
          "duration": 0.07975266796875147
        },
        {
          "name": "C#4",
          "midi": 61,
          "time": 29.448265746093774,
          "velocity": 0.6929133858267716,
          "duration": 0.10715069335937599
        },
        {
          "name": "F3",
          "midi": 53,
          "time": 29.448265746093774,
          "velocity": 0.6299212598425197,
          "duration": 0.10715069335937599
        },
        {
          "name": "F4",
          "midi": 65,
          "time": 29.448265746093774,
          "velocity": 0.7401574803149606,
          "duration": 0.10715069335937599
        },
        {
          "name": "D#4",
          "midi": 63,
          "time": 29.722246000000027,
          "velocity": 0.7322834645669292,
          "duration": 0.5560985351562522
        },
        {
          "name": "F2",
          "midi": 41,
          "time": 29.722246000000027,
          "velocity": 0.6692913385826772,
          "duration": 0.4665802343750016
        },
        {
          "name": "F3",
          "midi": 53,
          "time": 29.722246000000027,
          "velocity": 0.7795275590551181,
          "duration": 0.4665802343750016
        },
        {
          "name": "A2",
          "midi": 45,
          "time": 30.189097501953153,
          "velocity": 0.6299212598425197,
          "duration": 0.3662112304687497
        },
        {
          "name": "A3",
          "midi": 57,
          "time": 30.189097501953153,
          "velocity": 0.7401574803149606,
          "duration": 0.3662112304687497
        },
        {
          "name": "D#4",
          "midi": 63,
          "time": 30.555580000000027,
          "velocity": 0.7007874015748031,
          "duration": 0.18500448828125116
        },
        {
          "name": "C3",
          "midi": 48,
          "time": 30.555580000000027,
          "velocity": 0.6377952755905512,
          "duration": 0.18500448828125116
        },
        {
          "name": "C4",
          "midi": 60,
          "time": 30.555580000000027,
          "velocity": 0.7480314960629921,
          "duration": 0.19314251562500218
        },
        {
          "name": "C#4",
          "midi": 61,
          "time": 30.748993783203154,
          "velocity": 0.6929133858267716,
          "duration": 0.07975266796875147
        },
        {
          "name": "C#4",
          "midi": 61,
          "time": 30.748993783203154,
          "velocity": 0.6929133858267716,
          "duration": 0.07975266796875147
        },
        {
          "name": "D#4",
          "midi": 63,
          "time": 30.83715574609378,
          "velocity": 0.6929133858267716,
          "duration": 0.10715069335937599
        },
        {
          "name": "D#3",
          "midi": 51,
          "time": 30.83715574609378,
          "velocity": 0.6299212598425197,
          "duration": 0.10715069335937599
        },
        {
          "name": "D#4",
          "midi": 63,
          "time": 30.83715574609378,
          "velocity": 0.7401574803149606,
          "duration": 0.1727974472656264
        },
        {
          "name": "E4",
          "midi": 64,
          "time": 31.018362488281284,
          "velocity": 0.6929133858267716,
          "duration": 0.08436421679687456
        },
        {
          "name": "A#4",
          "midi": 70,
          "time": 31.112221070312533,
          "velocity": 0.6692913385826772,
          "duration": 0.1180013964843738
        },
        {
          "name": "C#5",
          "midi": 73,
          "time": 31.112221070312533,
          "velocity": 0.6692913385826772,
          "duration": 0.1180013964843738
        },
        {
          "name": "F5",
          "midi": 77,
          "time": 31.112221070312533,
          "velocity": 0.7795275590551181,
          "duration": 0.1180013964843738
        },
        {
          "name": "A#2",
          "midi": 46,
          "time": 31.112221070312533,
          "velocity": 0.6692913385826772,
          "duration": 0.5598962812500012
        },
        {
          "name": "A#3",
          "midi": 58,
          "time": 31.112221070312533,
          "velocity": 0.7795275590551181,
          "duration": 0.5598962812500012
        },
        {
          "name": "C#5",
          "midi": 73,
          "time": 31.397052027343783,
          "velocity": 0.6377952755905512,
          "duration": 0.10850703124999939
        },
        {
          "name": "F5",
          "midi": 77,
          "time": 31.397052027343783,
          "velocity": 0.6377952755905512,
          "duration": 0.10850703124999939
        },
        {
          "name": "A#5",
          "midi": 82,
          "time": 31.397052027343783,
          "velocity": 0.7480314960629921,
          "duration": 0.10850703124999939
        },
        {
          "name": "C#5",
          "midi": 73,
          "time": 31.67238861914066,
          "velocity": 0.6535433070866141,
          "duration": 0.10850703124999939
        },
        {
          "name": "F5",
          "midi": 77,
          "time": 31.67238861914066,
          "velocity": 0.6535433070866141,
          "duration": 0.10850703124999939
        },
        {
          "name": "G#5",
          "midi": 80,
          "time": 31.67238861914066,
          "velocity": 0.7637795275590551,
          "duration": 0.10850703124999939
        },
        {
          "name": "G#2",
          "midi": 44,
          "time": 31.67238861914066,
          "velocity": 0.6535433070866141,
          "duration": 0.5495881132812492
        },
        {
          "name": "G#3",
          "midi": 56,
          "time": 31.67238861914066,
          "velocity": 0.7637795275590551,
          "duration": 0.5495881132812492
        },
        {
          "name": "A#4",
          "midi": 70,
          "time": 31.947725210937534,
          "velocity": 0.6377952755905512,
          "duration": 0.1076932285156218
        },
        {
          "name": "C#5",
          "midi": 73,
          "time": 31.947725210937534,
          "velocity": 0.6377952755905512,
          "duration": 0.1076932285156218
        },
        {
          "name": "F#5",
          "midi": 78,
          "time": 31.947725210937534,
          "velocity": 0.7480314960629921,
          "duration": 0.1076932285156218
        },
        {
          "name": "A#4",
          "midi": 70,
          "time": 32.223333070312535,
          "velocity": 0.6692913385826772,
          "duration": 0.18500448828125116
        },
        {
          "name": "C#5",
          "midi": 73,
          "time": 32.223333070312535,
          "velocity": 0.6692913385826772,
          "duration": 0.18500448828125116
        },
        {
          "name": "F5",
          "midi": 77,
          "time": 32.223333070312535,
          "velocity": 0.7795275590551181,
          "duration": 0.19314251562499862
        },
        {
          "name": "F#2",
          "midi": 42,
          "time": 32.223333070312535,
          "velocity": 0.6692913385826772,
          "duration": 0.46793657226562857
        },
        {
          "name": "F#3",
          "midi": 54,
          "time": 32.223333070312535,
          "velocity": 0.7795275590551181,
          "duration": 0.46793657226562857
        },
        {
          "name": "D#5",
          "midi": 75,
          "time": 32.41674685351566,
          "velocity": 0.6929133858267716,
          "duration": 0.08300787890625116
        },
        {
          "name": "F#4",
          "midi": 66,
          "time": 32.50816402734379,
          "velocity": 0.6377952755905512,
          "duration": 0.17496758789062739
        },
        {
          "name": "A#4",
          "midi": 70,
          "time": 32.50816402734379,
          "velocity": 0.6377952755905512,
          "duration": 0.17496758789062739
        },
        {
          "name": "E5",
          "midi": 76,
          "time": 32.50816402734379,
          "velocity": 0.7480314960629921,
          "duration": 0.18310561523437485
        },
        {
          "name": "A4",
          "midi": 69,
          "time": 32.69154091015629,
          "velocity": 0.6299212598425197,
          "duration": 0.3670250332031202
        },
        {
          "name": "C5",
          "midi": 72,
          "time": 32.69154091015629,
          "velocity": 0.6299212598425197,
          "duration": 0.3670250332031202
        },
        {
          "name": "F5",
          "midi": 77,
          "time": 32.69154091015629,
          "velocity": 0.7401574803149606,
          "duration": 0.3670250332031202
        },
        {
          "name": "F2",
          "midi": 41,
          "time": 32.69154091015629,
          "velocity": 0.6299212598425197,
          "duration": 0.26828363476562345
        },
        {
          "name": "F3",
          "midi": 53,
          "time": 32.69154091015629,
          "velocity": 0.7401574803149606,
          "duration": 0.2764216621093709
        },
        {
          "name": "D#3",
          "midi": 51,
          "time": 32.96823383984379,
          "velocity": 0.6929133858267716,
          "duration": 0.08219407617187358
        },
        {
          "name": "F2",
          "midi": 41,
          "time": 33.05883721093754,
          "velocity": 0.6377952755905512,
          "duration": 0.2742515214843735
        },
        {
          "name": "F3",
          "midi": 53,
          "time": 33.05883721093754,
          "velocity": 0.7480314960629921,
          "duration": 0.2742515214843735
        },
        {
          "name": "C#4",
          "midi": 61,
          "time": 33.33444507031254,
          "velocity": 0.6692913385826772,
          "duration": 0.18500448828125116
        },
        {
          "name": "F4",
          "midi": 65,
          "time": 33.33444507031254,
          "velocity": 0.6692913385826772,
          "duration": 0.19314251562499862
        },
        {
          "name": "A#4",
          "midi": 70,
          "time": 33.33444507031254,
          "velocity": 0.7795275590551181,
          "duration": 0.19314251562499862
        },
        {
          "name": "A#2",
          "midi": 46,
          "time": 33.33444507031254,
          "velocity": 0.6692913385826772,
          "duration": 0.2845596894531255
        },
        {
          "name": "A#3",
          "midi": 58,
          "time": 33.33444507031254,
          "velocity": 0.7795275590551181,
          "duration": 0.2845596894531255
        },
        {
          "name": "C#5",
          "midi": 73,
          "time": 33.52785885351567,
          "velocity": 0.6929133858267716,
          "duration": 0.08300787890625116
        },
        {
          "name": "F4",
          "midi": 65,
          "time": 33.619276027343794,
          "velocity": 0.6377952755905512,
          "duration": 0.17496758789062739
        },
        {
          "name": "A#4",
          "midi": 70,
          "time": 33.619276027343794,
          "velocity": 0.6377952755905512,
          "duration": 0.17496758789062739
        },
        {
          "name": "D#5",
          "midi": 75,
          "time": 33.619276027343794,
          "velocity": 0.7480314960629921,
          "duration": 0.18310561523437485
        },
        {
          "name": "A#2",
          "midi": 46,
          "time": 33.619276027343794,
          "velocity": 0.6377952755905512,
          "duration": 0.2750653242187511
        },
        {
          "name": "A#3",
          "midi": 58,
          "time": 33.619276027343794,
          "velocity": 0.7480314960629921,
          "duration": 0.2750653242187511
        },
        {
          "name": "G#4",
          "midi": 68,
          "time": 33.8026529101563,
          "velocity": 0.6299212598425197,
          "duration": 0.08355041406250052
        },
        {
          "name": "E5",
          "midi": 76,
          "time": 33.8026529101563,
          "velocity": 0.7401574803149606,
          "duration": 0.09168844140624799
        },
        {
          "name": "G#2",
          "midi": 44,
          "time": 33.89461261914067,
          "velocity": 0.6535433070866141,
          "duration": 0.2750653242187511
        },
        {
          "name": "G#3",
          "midi": 56,
          "time": 33.89461261914067,
          "velocity": 0.7637795275590551,
          "duration": 0.2750653242187511
        },
        {
          "name": "G#4",
          "midi": 68,
          "time": 34.079345839843796,
          "velocity": 0.6299212598425197,
          "duration": 0.10715069335937955
        },
        {
          "name": "C5",
          "midi": 72,
          "time": 34.079345839843796,
          "velocity": 0.6299212598425197,
          "duration": 0.10715069335937955
        },
        {
          "name": "F5",
          "midi": 77,
          "time": 34.079345839843796,
          "velocity": 0.7401574803149606,
          "duration": 0.10715069335937955
        },
        {
          "name": "G#2",
          "midi": 44,
          "time": 34.16994921093755,
          "velocity": 0.6377952755905512,
          "duration": 0.2742515214843664
        },
        {
          "name": "G#3",
          "midi": 56,
          "time": 34.16994921093755,
          "velocity": 0.7480314960629921,
          "duration": 0.2742515214843664
        },
        {
          "name": "F4",
          "midi": 65,
          "time": 34.35332609375005,
          "velocity": 0.6299212598425197,
          "duration": 0.08273661132812293
        },
        {
          "name": "C#5",
          "midi": 73,
          "time": 34.35332609375005,
          "velocity": 0.7401574803149606,
          "duration": 0.0908746386718704
        },
        {
          "name": "F#4",
          "midi": 66,
          "time": 34.445557070312546,
          "velocity": 0.6692913385826772,
          "duration": 0.18500448828125116
        },
        {
          "name": "A#4",
          "midi": 70,
          "time": 34.445557070312546,
          "velocity": 0.6692913385826772,
          "duration": 0.18500448828125116
        },
        {
          "name": "D#5",
          "midi": 75,
          "time": 34.445557070312546,
          "velocity": 0.7795275590551181,
          "duration": 0.19314251562499862
        },
        {
          "name": "F#2",
          "midi": 42,
          "time": 34.445557070312546,
          "velocity": 0.6692913385826772,
          "duration": 0.2845596894531255
        },
        {
          "name": "F#3",
          "midi": 54,
          "time": 34.445557070312546,
          "velocity": 0.7795275590551181,
          "duration": 0.2845596894531255
        },
        {
          "name": "C#5",
          "midi": 73,
          "time": 34.63897085351567,
          "velocity": 0.6929133858267716,
          "duration": 0.08300787890625116
        },
        {
          "name": "F#4",
          "midi": 66,
          "time": 34.7303880273438,
          "velocity": 0.6377952755905512,
          "duration": 0.17496758789062739
        },
        {
          "name": "A#4",
          "midi": 70,
          "time": 34.7303880273438,
          "velocity": 0.6377952755905512,
          "duration": 0.17496758789062739
        },
        {
          "name": "D#5",
          "midi": 75,
          "time": 34.7303880273438,
          "velocity": 0.7480314960629921,
          "duration": 0.18310561523437485
        },
        {
          "name": "F#2",
          "midi": 42,
          "time": 34.7303880273438,
          "velocity": 0.6377952755905512,
          "duration": 0.17496758789062739
        },
        {
          "name": "F#3",
          "midi": 54,
          "time": 34.7303880273438,
          "velocity": 0.7480314960629921,
          "duration": 0.18310561523437485
        },
        {
          "name": "A4",
          "midi": 69,
          "time": 34.9137649101563,
          "velocity": 0.6299212598425197,
          "duration": 0.3670250332031202
        },
        {
          "name": "C5",
          "midi": 72,
          "time": 34.9137649101563,
          "velocity": 0.6299212598425197,
          "duration": 0.3670250332031202
        },
        {
          "name": "F5",
          "midi": 77,
          "time": 34.9137649101563,
          "velocity": 0.7401574803149606,
          "duration": 0.3670250332031202
        },
        {
          "name": "F2",
          "midi": 41,
          "time": 34.9137649101563,
          "velocity": 0.6299212598425197,
          "duration": 0.26828363476562345
        },
        {
          "name": "F3",
          "midi": 53,
          "time": 34.9137649101563,
          "velocity": 0.7401574803149606,
          "duration": 0.2764216621093709
        },
        {
          "name": "D#3",
          "midi": 51,
          "time": 35.1904578398438,
          "velocity": 0.6929133858267716,
          "duration": 0.08219407617187358
        },
        {
          "name": "F2",
          "midi": 41,
          "time": 35.28106121093755,
          "velocity": 0.6377952755905512,
          "duration": 0.2742515214843735
        },
        {
          "name": "F3",
          "midi": 53,
          "time": 35.28106121093755,
          "velocity": 0.7480314960629921,
          "duration": 0.2742515214843735
        },
        {
          "name": "A#4",
          "midi": 70,
          "time": 35.55666907031255,
          "velocity": 0.6692913385826772,
          "duration": 0.18500448828125116
        },
        {
          "name": "C#5",
          "midi": 73,
          "time": 35.55666907031255,
          "velocity": 0.6692913385826772,
          "duration": 0.19314251562499862
        },
        {
          "name": "F5",
          "midi": 77,
          "time": 35.55666907031255,
          "velocity": 0.7795275590551181,
          "duration": 0.19314251562499862
        },
        {
          "name": "A#2",
          "midi": 46,
          "time": 35.55666907031255,
          "velocity": 0.6692913385826772,
          "duration": 0.2845596894531255
        },
        {
          "name": "A#3",
          "midi": 58,
          "time": 35.55666907031255,
          "velocity": 0.7795275590551181,
          "duration": 0.2845596894531255
        },
        {
          "name": "C#5",
          "midi": 73,
          "time": 35.75008285351568,
          "velocity": 0.6299212598425197,
          "duration": 0.10796449609375003
        },
        {
          "name": "F5",
          "midi": 77,
          "time": 35.75008285351568,
          "velocity": 0.6299212598425197,
          "duration": 0.10796449609375003
        },
        {
          "name": "A#5",
          "midi": 82,
          "time": 35.75008285351568,
          "velocity": 0.7401574803149606,
          "duration": 0.10796449609375003
        },
        {
          "name": "A#2",
          "midi": 46,
          "time": 35.841500027343805,
          "velocity": 0.6377952755905512,
          "duration": 0.27506532421874397
        },
        {
          "name": "A#3",
          "midi": 58,
          "time": 35.841500027343805,
          "velocity": 0.7480314960629921,
          "duration": 0.27506532421874397
        },
        {
          "name": "C#5",
          "midi": 73,
          "time": 36.0248769101563,
          "velocity": 0.6299212598425197,
          "duration": 0.08355041406250052
        },
        {
          "name": "F5",
          "midi": 77,
          "time": 36.0248769101563,
          "velocity": 0.6299212598425197,
          "duration": 0.08355041406250052
        },
        {
          "name": "A#5",
          "midi": 82,
          "time": 36.0248769101563,
          "velocity": 0.7401574803149606,
          "duration": 0.09168844140624799
        },
        {
          "name": "C5",
          "midi": 72,
          "time": 36.11683661914068,
          "velocity": 0.6535433070866141,
          "duration": 0.17632392578124723
        },
        {
          "name": "D#5",
          "midi": 75,
          "time": 36.11683661914068,
          "velocity": 0.6535433070866141,
          "duration": 0.17632392578124723
        },
        {
          "name": "G#5",
          "midi": 80,
          "time": 36.11683661914068,
          "velocity": 0.7637795275590551,
          "duration": 0.1844619531249947
        },
        {
          "name": "G#2",
          "midi": 44,
          "time": 36.11683661914068,
          "velocity": 0.6535433070866141,
          "duration": 0.27506532421874397
        },
        {
          "name": "G#3",
          "midi": 56,
          "time": 36.11683661914068,
          "velocity": 0.7637795275590551,
          "duration": 0.27506532421874397
        },
        {
          "name": "F5",
          "midi": 77,
          "time": 36.3015698398438,
          "velocity": 0.6929133858267716,
          "duration": 0.08219407617187358
        },
        {
          "name": "G#4",
          "midi": 68,
          "time": 36.39217321093755,
          "velocity": 0.6377952755905512,
          "duration": 0.17496758789062739
        },
        {
          "name": "D#5",
          "midi": 75,
          "time": 36.39217321093755,
          "velocity": 0.7480314960629921,
          "duration": 0.18310561523437485
        },
        {
          "name": "G#2",
          "midi": 44,
          "time": 36.39217321093755,
          "velocity": 0.6377952755905512,
          "duration": 0.2742515214843735
        },
        {
          "name": "G#3",
          "midi": 56,
          "time": 36.39217321093755,
          "velocity": 0.7480314960629921,
          "duration": 0.2742515214843735
        },
        {
          "name": "C#5",
          "midi": 73,
          "time": 36.57555009375005,
          "velocity": 0.6929133858267716,
          "duration": 0.08273661132812293
        },
        {
          "name": "F#4",
          "midi": 66,
          "time": 36.66778107031255,
          "velocity": 0.6692913385826772,
          "duration": 0.18500448828125116
        },
        {
          "name": "A#4",
          "midi": 70,
          "time": 36.66778107031255,
          "velocity": 0.6692913385826772,
          "duration": 0.18500448828125116
        },
        {
          "name": "D#5",
          "midi": 75,
          "time": 36.66778107031255,
          "velocity": 0.7795275590551181,
          "duration": 0.19314251562499862
        },
        {
          "name": "F#2",
          "midi": 42,
          "time": 36.66778107031255,
          "velocity": 0.6692913385826772,
          "duration": 0.2845596894531255
        },
        {
          "name": "F#3",
          "midi": 54,
          "time": 36.66778107031255,
          "velocity": 0.7795275590551181,
          "duration": 0.2845596894531255
        },
        {
          "name": "C#5",
          "midi": 73,
          "time": 36.86119485351568,
          "velocity": 0.6929133858267716,
          "duration": 0.08300787890625116
        },
        {
          "name": "F#4",
          "midi": 66,
          "time": 36.952612027343804,
          "velocity": 0.6377952755905512,
          "duration": 0.17496758789062739
        },
        {
          "name": "A#4",
          "midi": 70,
          "time": 36.952612027343804,
          "velocity": 0.6377952755905512,
          "duration": 0.17496758789062739
        },
        {
          "name": "D#5",
          "midi": 75,
          "time": 36.952612027343804,
          "velocity": 0.7480314960629921,
          "duration": 0.18310561523437485
        },
        {
          "name": "F#2",
          "midi": 42,
          "time": 36.952612027343804,
          "velocity": 0.6377952755905512,
          "duration": 0.17496758789062739
        },
        {
          "name": "F#3",
          "midi": 54,
          "time": 36.952612027343804,
          "velocity": 0.7480314960629921,
          "duration": 0.18310561523437485
        },
        {
          "name": "A4",
          "midi": 69,
          "time": 37.13598891015631,
          "velocity": 0.6299212598425197,
          "duration": 0.3670250332031273
        },
        {
          "name": "C5",
          "midi": 72,
          "time": 37.13598891015631,
          "velocity": 0.6299212598425197,
          "duration": 0.3670250332031273
        },
        {
          "name": "F5",
          "midi": 77,
          "time": 37.13598891015631,
          "velocity": 0.7401574803149606,
          "duration": 0.3670250332031273
        },
        {
          "name": "F2",
          "midi": 41,
          "time": 37.13598891015631,
          "velocity": 0.6299212598425197,
          "duration": 0.3670250332031273
        },
        {
          "name": "F3",
          "midi": 53,
          "time": 37.13598891015631,
          "velocity": 0.7401574803149606,
          "duration": 0.3670250332031273
        },
        {
          "name": "F#4",
          "midi": 66,
          "time": 37.50328521093756,
          "velocity": 0.6377952755905512,
          "duration": 0.1076932285156218
        },
        {
          "name": "D#5",
          "midi": 75,
          "time": 37.50328521093756,
          "velocity": 0.7480314960629921,
          "duration": 0.1076932285156218
        },
        {
          "name": "D#2",
          "midi": 39,
          "time": 37.50328521093756,
          "velocity": 0.6299212598425197,
          "duration": 0.2742515214843735
        },
        {
          "name": "D#3",
          "midi": 51,
          "time": 37.50328521093756,
          "velocity": 0.7480314960629921,
          "duration": 0.2742515214843735
        },
        {
          "name": "F4",
          "midi": 65,
          "time": 37.77889307031256,
          "velocity": 0.6692913385826772,
          "duration": 0.18500448828125116
        },
        {
          "name": "G#4",
          "midi": 68,
          "time": 37.77889307031256,
          "velocity": 0.6692913385826772,
          "duration": 0.18500448828125116
        },
        {
          "name": "C#5",
          "midi": 73,
          "time": 37.77889307031256,
          "velocity": 0.7795275590551181,
          "duration": 0.19314251562499862
        },
        {
          "name": "E2",
          "midi": 40,
          "time": 37.77889307031256,
          "velocity": 0.6614173228346457,
          "duration": 0.46793657226562857
        },
        {
          "name": "E3",
          "midi": 52,
          "time": 37.77889307031256,
          "velocity": 0.7795275590551181,
          "duration": 0.46793657226562857
        },
        {
          "name": "C5",
          "midi": 72,
          "time": 37.97230685351569,
          "velocity": 0.6929133858267716,
          "duration": 0.08300787890625116
        },
        {
          "name": "C#4",
          "midi": 61,
          "time": 38.06372402734382,
          "velocity": 0.6377952755905512,
          "duration": 0.17496758789062739
        },
        {
          "name": "F4",
          "midi": 65,
          "time": 38.06372402734382,
          "velocity": 0.6377952755905512,
          "duration": 0.18310561523437485
        },
        {
          "name": "A#4",
          "midi": 70,
          "time": 38.06372402734382,
          "velocity": 0.7480314960629921,
          "duration": 0.18310561523437485
        },
        {
          "name": "F4",
          "midi": 65,
          "time": 38.24710091015632,
          "velocity": 0.6299212598425197,
          "duration": 0.276421662109378
        },
        {
          "name": "G#4",
          "midi": 68,
          "time": 38.24710091015632,
          "velocity": 0.6299212598425197,
          "duration": 0.276421662109378
        },
        {
          "name": "C#5",
          "midi": 73,
          "time": 38.24710091015632,
          "velocity": 0.7401574803149606,
          "duration": 0.276421662109378
        },
        {
          "name": "E2",
          "midi": 40,
          "time": 38.24710091015632,
          "velocity": 0.6220472440944882,
          "duration": 0.3670250332031273
        },
        {
          "name": "E3",
          "midi": 52,
          "time": 38.24710091015632,
          "velocity": 0.7086614173228346,
          "duration": 0.3670250332031273
        },
        {
          "name": "D5",
          "midi": 74,
          "time": 38.523793839843826,
          "velocity": 0.6929133858267716,
          "duration": 0.08219407617187358
        },
        {
          "name": "F#4",
          "midi": 66,
          "time": 38.614397210937575,
          "velocity": 0.6377952755905512,
          "duration": 0.17496758789062739
        },
        {
          "name": "A#4",
          "midi": 70,
          "time": 38.614397210937575,
          "velocity": 0.6377952755905512,
          "duration": 0.17496758789062739
        },
        {
          "name": "D#5",
          "midi": 75,
          "time": 38.614397210937575,
          "velocity": 0.7480314960629921,
          "duration": 0.18310561523437485
        },
        {
          "name": "E2",
          "midi": 40,
          "time": 38.614397210937575,
          "velocity": 0.6299212598425197,
          "duration": 0.2742515214843735
        },
        {
          "name": "E3",
          "midi": 52,
          "time": 38.614397210937575,
          "velocity": 0.7480314960629921,
          "duration": 0.2742515214843735
        },
        {
          "name": "E5",
          "midi": 76,
          "time": 38.79777409375008,
          "velocity": 0.6929133858267716,
          "duration": 0.08273661132812293
        },
        {
          "name": "F4",
          "midi": 65,
          "time": 38.890005070312576,
          "velocity": 0.6692913385826772,
          "duration": 0.2845596894531255
        },
        {
          "name": "C5",
          "midi": 72,
          "time": 38.890005070312576,
          "velocity": 0.6692913385826772,
          "duration": 0.2845596894531255
        },
        {
          "name": "F5",
          "midi": 77,
          "time": 38.890005070312576,
          "velocity": 0.7795275590551181,
          "duration": 0.2845596894531255
        },
        {
          "name": "F2",
          "midi": 41,
          "time": 38.890005070312576,
          "velocity": 0.6692913385826772,
          "duration": 0.5598962812499977
        },
        {
          "name": "F3",
          "midi": 53,
          "time": 38.890005070312576,
          "velocity": 0.7795275590551181,
          "duration": 0.5598962812499977
        },
        {
          "name": "C5",
          "midi": 72,
          "time": 39.4501726191407,
          "velocity": 0.6535433070866141,
          "duration": 0.2750653242187511
        },
        {
          "name": "D#5",
          "midi": 75,
          "time": 39.4501726191407,
          "velocity": 0.6535433070866141,
          "duration": 0.2750653242187511
        },
        {
          "name": "A5",
          "midi": 81,
          "time": 39.4501726191407,
          "velocity": 0.7637795275590551,
          "duration": 0.2750653242187511
        },
        {
          "name": "F1",
          "midi": 29,
          "time": 39.4501726191407,
          "velocity": 0.6535433070866141,
          "duration": 0.5495881132812528
        },
        {
          "name": "F2",
          "midi": 41,
          "time": 39.4501726191407,
          "velocity": 0.7637795275590551,
          "duration": 0.5495881132812528
        },
        {
          "name": "A#4",
          "midi": 70,
          "time": 39.90888609375008,
          "velocity": 0.6299212598425197,
          "duration": 0.37679066601562994
        },
        {
          "name": "F5",
          "midi": 77,
          "time": 39.90888609375008,
          "velocity": 0.6299212598425197,
          "duration": 0.37679066601562994
        },
        {
          "name": "A#5",
          "midi": 82,
          "time": 39.90888609375008,
          "velocity": 0.7401574803149606,
          "duration": 0.37679066601562994
        },
        {
          "name": "A#1",
          "midi": 34,
          "time": 40.00111707031258,
          "velocity": 0.6535433070866141,
          "duration": 0.46793657226562857
        },
        {
          "name": "A#2",
          "midi": 46,
          "time": 40.00111707031258,
          "velocity": 0.7795275590551181,
          "duration": 0.46793657226562857
        },
        {
          "name": "C#2",
          "midi": 37,
          "time": 40.46932491015634,
          "velocity": 0.6220472440944882,
          "duration": 0.08355041406250052
        },
        {
          "name": "C#3",
          "midi": 49,
          "time": 40.46932491015634,
          "velocity": 0.7401574803149606,
          "duration": 0.09168844140624799
        },
        {
          "name": "A#4",
          "midi": 70,
          "time": 40.561284619140714,
          "velocity": 0.7165354330708661,
          "duration": 0.7359489394531238
        },
        {
          "name": "F2",
          "midi": 41,
          "time": 40.836621210937594,
          "velocity": 0.6377952755905512,
          "duration": 0.1076932285156218
        },
        {
          "name": "F3",
          "midi": 53,
          "time": 40.836621210937594,
          "velocity": 0.7480314960629921,
          "duration": 0.1076932285156218
        },
        {
          "name": "A#1",
          "midi": 34,
          "time": 41.11222907031259,
          "velocity": 0.6535433070866141,
          "duration": 0.46793657226562857
        },
        {
          "name": "A#2",
          "midi": 46,
          "time": 41.11222907031259,
          "velocity": 0.7795275590551181,
          "duration": 0.46793657226562857
        },
        {
          "name": "C#5",
          "midi": 73,
          "time": 41.305642853515714,
          "velocity": 0.6929133858267716,
          "duration": 0.08300787890625116
        },
        {
          "name": "C5",
          "midi": 72,
          "time": 41.39706002734384,
          "velocity": 0.7007874015748031,
          "duration": 0.17496758789062739
        },
        {
          "name": "A4",
          "midi": 69,
          "time": 41.580436910156344,
          "velocity": 0.6929133858267716,
          "duration": 0.08355041406250052
        },
        {
          "name": "C#2",
          "midi": 37,
          "time": 41.580436910156344,
          "velocity": 0.6220472440944882,
          "duration": 0.08355041406250052
        },
        {
          "name": "C#3",
          "midi": 49,
          "time": 41.580436910156344,
          "velocity": 0.7401574803149606,
          "duration": 0.09168844140624799
        },
        {
          "name": "A#4",
          "midi": 70,
          "time": 41.67239661914072,
          "velocity": 0.7165354330708661,
          "duration": 0.17632392578124723
        },
        {
          "name": "F#4",
          "midi": 66,
          "time": 41.85712983984384,
          "velocity": 0.6929133858267716,
          "duration": 0.08219407617187358
        },
        {
          "name": "F4",
          "midi": 65,
          "time": 41.94773321093759,
          "velocity": 0.7007874015748031,
          "duration": 0.17496758789062028
        },
        {
          "name": "F2",
          "midi": 41,
          "time": 41.94773321093759,
          "velocity": 0.6377952755905512,
          "duration": 0.1076932285156218
        },
        {
          "name": "F3",
          "midi": 53,
          "time": 41.94773321093759,
          "velocity": 0.7480314960629921,
          "duration": 0.1076932285156218
        },
        {
          "name": "G#4",
          "midi": 68,
          "time": 42.13111009375009,
          "velocity": 0.6929133858267716,
          "duration": 0.2772354648437485
        },
        {
          "name": "A#1",
          "midi": 34,
          "time": 42.223341070312586,
          "velocity": 0.6535433070866141,
          "duration": 0.46793657226562857
        },
        {
          "name": "A#2",
          "midi": 46,
          "time": 42.223341070312586,
          "velocity": 0.7795275590551181,
          "duration": 0.46793657226562857
        },
        {
          "name": "F4",
          "midi": 65,
          "time": 42.41675485351571,
          "velocity": 0.6929133858267716,
          "duration": 0.08300787890625116
        },
        {
          "name": "F#4",
          "midi": 66,
          "time": 42.50817202734384,
          "velocity": 0.7007874015748031,
          "duration": 0.17496758789062739
        },
        {
          "name": "D#4",
          "midi": 63,
          "time": 42.69154891015634,
          "velocity": 0.6929133858267716,
          "duration": 0.08355041406250052
        },
        {
          "name": "C#2",
          "midi": 37,
          "time": 42.69154891015634,
          "velocity": 0.6220472440944882,
          "duration": 0.08355041406250052
        },
        {
          "name": "C#3",
          "midi": 49,
          "time": 42.69154891015634,
          "velocity": 0.7401574803149606,
          "duration": 0.09168844140624799
        },
        {
          "name": "F4",
          "midi": 65,
          "time": 42.78350861914072,
          "velocity": 0.7165354330708661,
          "duration": 0.17632392578124723
        },
        {
          "name": "C#4",
          "midi": 61,
          "time": 42.96824183984384,
          "velocity": 0.6929133858267716,
          "duration": 0.08219407617187358
        },
        {
          "name": "D#4",
          "midi": 63,
          "time": 43.05884521093759,
          "velocity": 0.7007874015748031,
          "duration": 0.17496758789062028
        },
        {
          "name": "F2",
          "midi": 41,
          "time": 43.05884521093759,
          "velocity": 0.6377952755905512,
          "duration": 0.1076932285156218
        },
        {
          "name": "F3",
          "midi": 53,
          "time": 43.05884521093759,
          "velocity": 0.7480314960629921,
          "duration": 0.1076932285156218
        },
        {
          "name": "C4",
          "midi": 60,
          "time": 43.24222209375009,
          "velocity": 0.6929133858267716,
          "duration": 0.2772354648437485
        },
        {
          "name": "A#1",
          "midi": 34,
          "time": 43.334453070312584,
          "velocity": 0.6535433070866141,
          "duration": 0.46793657226562857
        },
        {
          "name": "A#2",
          "midi": 46,
          "time": 43.334453070312584,
          "velocity": 0.7795275590551181,
          "duration": 0.46793657226562857
        },
        {
          "name": "C#4",
          "midi": 61,
          "time": 43.52786685351571,
          "velocity": 0.6929133858267716,
          "duration": 0.2745227890625017
        },
        {
          "name": "A#3",
          "midi": 58,
          "time": 43.80266091015634,
          "velocity": 0.6299212598425197,
          "duration": 0.6415478222656219
        },
        {
          "name": "A#4",
          "midi": 70,
          "time": 43.80266091015634,
          "velocity": 0.7086614173228346,
          "duration": 0.6415478222656219
        },
        {
          "name": "C#2",
          "midi": 37,
          "time": 43.80266091015634,
          "velocity": 0.6220472440944882,
          "duration": 0.08355041406250052
        },
        {
          "name": "C#3",
          "midi": 49,
          "time": 43.80266091015634,
          "velocity": 0.7401574803149606,
          "duration": 0.09168844140624799
        },
        {
          "name": "F2",
          "midi": 41,
          "time": 44.16995721093759,
          "velocity": 0.6377952755905512,
          "duration": 0.1076932285156218
        },
        {
          "name": "F3",
          "midi": 53,
          "time": 44.16995721093759,
          "velocity": 0.7480314960629921,
          "duration": 0.1076932285156218
        },
        {
          "name": "A#3",
          "midi": 58,
          "time": 44.44556507031259,
          "velocity": 0.7322834645669292,
          "duration": 0.18500448828125116
        },
        {
          "name": "A#1",
          "midi": 34,
          "time": 44.44556507031259,
          "velocity": 0.6535433070866141,
          "duration": 0.46793657226562857
        },
        {
          "name": "A#2",
          "midi": 46,
          "time": 44.44556507031259,
          "velocity": 0.7795275590551181,
          "duration": 0.46793657226562857
        },
        {
          "name": "C#4",
          "midi": 61,
          "time": 44.63897885351572,
          "velocity": 0.6929133858267716,
          "duration": 0.08300787890625116
        },
        {
          "name": "D#4",
          "midi": 63,
          "time": 44.73039602734384,
          "velocity": 0.7007874015748031,
          "duration": 0.17496758789062739
        },
        {
          "name": "E4",
          "midi": 64,
          "time": 44.91377291015635,
          "velocity": 0.6929133858267716,
          "duration": 0.26828363476562345
        },
        {
          "name": "C#2",
          "midi": 37,
          "time": 44.91377291015635,
          "velocity": 0.6220472440944882,
          "duration": 0.08355041406250052
        },
        {
          "name": "C#3",
          "midi": 49,
          "time": 44.91377291015635,
          "velocity": 0.7401574803149606,
          "duration": 0.09168844140624799
        },
        {
          "name": "F4",
          "midi": 65,
          "time": 45.190465839843846,
          "velocity": 0.6929133858267716,
          "duration": 0.2737089863281241
        },
        {
          "name": "F2",
          "midi": 41,
          "time": 45.281069210937595,
          "velocity": 0.6377952755905512,
          "duration": 0.1076932285156218
        },
        {
          "name": "F3",
          "midi": 53,
          "time": 45.281069210937595,
          "velocity": 0.7480314960629921,
          "duration": 0.1076932285156218
        },
        {
          "name": "C#4",
          "midi": 61,
          "time": 45.4644460937501,
          "velocity": 0.6929133858267716,
          "duration": 0.08273661132812293
        },
        {
          "name": "E4",
          "midi": 64,
          "time": 45.556677070312595,
          "velocity": 0.7322834645669292,
          "duration": 0.2845596894531255
        },
        {
          "name": "E2",
          "midi": 40,
          "time": 45.556677070312595,
          "velocity": 0.6614173228346457,
          "duration": 0.46793657226562857
        },
        {
          "name": "E3",
          "midi": 52,
          "time": 45.556677070312595,
          "velocity": 0.7795275590551181,
          "duration": 0.46793657226562857
        },
        {
          "name": "E4",
          "midi": 64,
          "time": 45.84150802734385,
          "velocity": 0.7007874015748031,
          "duration": 0.17496758789062739
        },
        {
          "name": "C4",
          "midi": 60,
          "time": 46.02488491015635,
          "velocity": 0.6929133858267716,
          "duration": 0.3670250332031202
        },
        {
          "name": "G2",
          "midi": 43,
          "time": 46.02488491015635,
          "velocity": 0.6299212598425197,
          "duration": 0.08355041406250052
        },
        {
          "name": "G3",
          "midi": 55,
          "time": 46.02488491015635,
          "velocity": 0.7401574803149606,
          "duration": 0.09168844140624799
        },
        {
          "name": "C3",
          "midi": 48,
          "time": 46.3921812109376,
          "velocity": 0.6377952755905512,
          "duration": 0.1076932285156289
        },
        {
          "name": "C4",
          "midi": 60,
          "time": 46.3921812109376,
          "velocity": 0.7480314960629921,
          "duration": 0.1076932285156289
        },
        {
          "name": "D#4",
          "midi": 63,
          "time": 46.6677890703126,
          "velocity": 0.7322834645669292,
          "duration": 0.18500448828125116
        },
        {
          "name": "A1",
          "midi": 33,
          "time": 46.6677890703126,
          "velocity": 0.6456692913385826,
          "duration": 0.46793657226562857
        },
        {
          "name": "A2",
          "midi": 45,
          "time": 46.6677890703126,
          "velocity": 0.7795275590551181,
          "duration": 0.46793657226562857
        },
        {
          "name": "C4",
          "midi": 60,
          "time": 46.86120285351573,
          "velocity": 0.6929133858267716,
          "duration": 0.08300787890625116
        },
        {
          "name": "A3",
          "midi": 57,
          "time": 46.952620027343855,
          "velocity": 0.7007874015748031,
          "duration": 0.17496758789062739
        },
        {
          "name": "F3",
          "midi": 53,
          "time": 47.13599691015636,
          "velocity": 0.6929133858267716,
          "duration": 0.26828363476562345
        },
        {
          "name": "C2",
          "midi": 36,
          "time": 47.13599691015636,
          "velocity": 0.6141732283464567,
          "duration": 0.08355041406250052
        },
        {
          "name": "C3",
          "midi": 48,
          "time": 47.13599691015636,
          "velocity": 0.7401574803149606,
          "duration": 0.09168844140624799
        },
        {
          "name": "G3",
          "midi": 55,
          "time": 47.41268983984386,
          "velocity": 0.6929133858267716,
          "duration": 0.2737089863281241
        },
        {
          "name": "D#2",
          "midi": 39,
          "time": 47.503293210937606,
          "velocity": 0.6299212598425197,
          "duration": 0.1076932285156218
        },
        {
          "name": "D#3",
          "midi": 51,
          "time": 47.503293210937606,
          "velocity": 0.7480314960629921,
          "duration": 0.1076932285156218
        },
        {
          "name": "A3",
          "midi": 57,
          "time": 47.68667009375011,
          "velocity": 0.6929133858267716,
          "duration": 0.08273661132812293
        },
        {
          "name": "A#3",
          "midi": 58,
          "time": 47.77890107031261,
          "velocity": 0.7322834645669292,
          "duration": 0.2845596894531255
        },
        {
          "name": "A#1",
          "midi": 34,
          "time": 47.77890107031261,
          "velocity": 0.6535433070866141,
          "duration": 0.46793657226562857
        },
        {
          "name": "A#2",
          "midi": 46,
          "time": 47.77890107031261,
          "velocity": 0.7795275590551181,
          "duration": 0.46793657226562857
        },
        {
          "name": "A#3",
          "midi": 58,
          "time": 48.06373202734386,
          "velocity": 0.7007874015748031,
          "duration": 0.17496758789062739
        },
        {
          "name": "C#4",
          "midi": 61,
          "time": 48.24710891015636,
          "velocity": 0.6929133858267716,
          "duration": 0.3670250332031202
        },
        {
          "name": "C#2",
          "midi": 37,
          "time": 48.24710891015636,
          "velocity": 0.6220472440944882,
          "duration": 0.08355041406250052
        },
        {
          "name": "C#3",
          "midi": 49,
          "time": 48.24710891015636,
          "velocity": 0.7401574803149606,
          "duration": 0.09168844140624799
        },
        {
          "name": "F2",
          "midi": 41,
          "time": 48.61440521093761,
          "velocity": 0.6377952755905512,
          "duration": 0.1076932285156218
        },
        {
          "name": "F3",
          "midi": 53,
          "time": 48.61440521093761,
          "velocity": 0.7480314960629921,
          "duration": 0.1076932285156218
        },
        {
          "name": "A#3",
          "midi": 58,
          "time": 48.890013070312605,
          "velocity": 0.7322834645669292,
          "duration": 0.18500448828125116
        },
        {
          "name": "A#1",
          "midi": 34,
          "time": 48.890013070312605,
          "velocity": 0.6535433070866141,
          "duration": 0.46793657226562857
        },
        {
          "name": "A#2",
          "midi": 46,
          "time": 48.890013070312605,
          "velocity": 0.7795275590551181,
          "duration": 0.46793657226562857
        },
        {
          "name": "C#4",
          "midi": 61,
          "time": 49.08342685351573,
          "velocity": 0.6929133858267716,
          "duration": 0.08300787890625116
        },
        {
          "name": "D#4",
          "midi": 63,
          "time": 49.17484402734386,
          "velocity": 0.7007874015748031,
          "duration": 0.17496758789062739
        },
        {
          "name": "E4",
          "midi": 64,
          "time": 49.35822091015636,
          "velocity": 0.6929133858267716,
          "duration": 0.26828363476562345
        },
        {
          "name": "C#2",
          "midi": 37,
          "time": 49.35822091015636,
          "velocity": 0.6220472440944882,
          "duration": 0.08355041406250052
        },
        {
          "name": "C#3",
          "midi": 49,
          "time": 49.35822091015636,
          "velocity": 0.7401574803149606,
          "duration": 0.09168844140624799
        },
        {
          "name": "F4",
          "midi": 65,
          "time": 49.63491383984386,
          "velocity": 0.6929133858267716,
          "duration": 0.2737089863281241
        },
        {
          "name": "F2",
          "midi": 41,
          "time": 49.72551721093761,
          "velocity": 0.6377952755905512,
          "duration": 0.1076932285156218
        },
        {
          "name": "F3",
          "midi": 53,
          "time": 49.72551721093761,
          "velocity": 0.7480314960629921,
          "duration": 0.1076932285156218
        },
        {
          "name": "C#4",
          "midi": 61,
          "time": 49.90889409375011,
          "velocity": 0.6929133858267716,
          "duration": 0.08273661132812293
        },
        {
          "name": "G#4",
          "midi": 68,
          "time": 50.00112507031261,
          "velocity": 0.7322834645669292,
          "duration": 0.18500448828125116
        },
        {
          "name": "D#2",
          "midi": 39,
          "time": 50.00112507031261,
          "velocity": 0.6614173228346457,
          "duration": 0.46793657226562857
        },
        {
          "name": "D#3",
          "midi": 51,
          "time": 50.00112507031261,
          "velocity": 0.7795275590551181,
          "duration": 0.46793657226562857
        },
        {
          "name": "G4",
          "midi": 67,
          "time": 50.19453885351574,
          "velocity": 0.6929133858267716,
          "duration": 0.2745227890625017
        },
        {
          "name": "F#4",
          "midi": 66,
          "time": 50.46933291015637,
          "velocity": 0.6929133858267716,
          "duration": 0.3670250332031202
        },
        {
          "name": "F#2",
          "midi": 42,
          "time": 50.46933291015637,
          "velocity": 0.6299212598425197,
          "duration": 0.08355041406250052
        },
        {
          "name": "F#3",
          "midi": 54,
          "time": 50.46933291015637,
          "velocity": 0.7401574803149606,
          "duration": 0.09168844140624799
        },
        {
          "name": "A#2",
          "midi": 46,
          "time": 50.836629210937616,
          "velocity": 0.6377952755905512,
          "duration": 0.1076932285156289
        },
        {
          "name": "A#3",
          "midi": 58,
          "time": 50.836629210937616,
          "velocity": 0.7480314960629921,
          "duration": 0.1076932285156289
        },
        {
          "name": "F4",
          "midi": 65,
          "time": 51.11223707031262,
          "velocity": 0.7322834645669292,
          "duration": 0.18500448828125116
        },
        {
          "name": "F2",
          "midi": 41,
          "time": 51.11223707031262,
          "velocity": 0.6692913385826772,
          "duration": 0.46793657226562857
        },
        {
          "name": "F3",
          "midi": 53,
          "time": 51.11223707031262,
          "velocity": 0.7795275590551181,
          "duration": 0.46793657226562857
        },
        {
          "name": "D#4",
          "midi": 63,
          "time": 51.30565085351574,
          "velocity": 0.6929133858267716,
          "duration": 0.08300787890625116
        },
        {
          "name": "C4",
          "midi": 60,
          "time": 51.39706802734387,
          "velocity": 0.7007874015748031,
          "duration": 0.17496758789062739
        },
        {
          "name": "F3",
          "midi": 53,
          "time": 51.58044491015637,
          "velocity": 0.6929133858267716,
          "duration": 0.26828363476562345
        },
        {
          "name": "F1",
          "midi": 29,
          "time": 51.58044491015637,
          "velocity": 0.5984251968503937,
          "duration": 0.08355041406250052
        },
        {
          "name": "F2",
          "midi": 41,
          "time": 51.58044491015637,
          "velocity": 0.7401574803149606,
          "duration": 0.09168844140624799
        },
        {
          "name": "G3",
          "midi": 55,
          "time": 51.85713783984387,
          "velocity": 0.6929133858267716,
          "duration": 0.2737089863281241
        },
        {
          "name": "F1",
          "midi": 29,
          "time": 51.94774121093762,
          "velocity": 0.6062992125984252,
          "duration": 0.1076932285156218
        },
        {
          "name": "F2",
          "midi": 41,
          "time": 51.94774121093762,
          "velocity": 0.7480314960629921,
          "duration": 0.1076932285156218
        },
        {
          "name": "A3",
          "midi": 57,
          "time": 52.131118093750125,
          "velocity": 0.6929133858267716,
          "duration": 0.08273661132812293
        },
        {
          "name": "A#3",
          "midi": 58,
          "time": 52.22334907031262,
          "velocity": 0.7322834645669292,
          "duration": 0.5598962812500048
        },
        {
          "name": "A#1",
          "midi": 34,
          "time": 52.22334907031262,
          "velocity": 0.6535433070866141,
          "duration": 0.46793657226562857
        },
        {
          "name": "A#2",
          "midi": 46,
          "time": 52.22334907031262,
          "velocity": 0.7795275590551181,
          "duration": 0.46793657226562857
        },
        {
          "name": "C#2",
          "midi": 37,
          "time": 52.69155691015638,
          "velocity": 0.6220472440944882,
          "duration": 0.08355041406250052
        },
        {
          "name": "C#3",
          "midi": 49,
          "time": 52.69155691015638,
          "velocity": 0.7401574803149606,
          "duration": 0.09168844140624799
        },
        {
          "name": "A#3",
          "midi": 58,
          "time": 52.783516619140755,
          "velocity": 0.6535433070866141,
          "duration": 0.17632392578124723
        },
        {
          "name": "A#4",
          "midi": 70,
          "time": 52.783516619140755,
          "velocity": 0.7637795275590551,
          "duration": 0.1844619531249947
        },
        {
          "name": "C4",
          "midi": 60,
          "time": 52.96824983984388,
          "velocity": 0.6299212598425197,
          "duration": 0.08219407617187358
        },
        {
          "name": "C5",
          "midi": 72,
          "time": 52.96824983984388,
          "velocity": 0.7401574803149606,
          "duration": 0.09033210351562104
        },
        {
          "name": "C#4",
          "midi": 61,
          "time": 53.05885321093763,
          "velocity": 0.6377952755905512,
          "duration": 0.17496758789062028
        },
        {
          "name": "C#5",
          "midi": 73,
          "time": 53.05885321093763,
          "velocity": 0.7480314960629921,
          "duration": 0.18310561523436775
        },
        {
          "name": "F2",
          "midi": 41,
          "time": 53.05885321093763,
          "velocity": 0.6377952755905512,
          "duration": 0.1076932285156218
        },
        {
          "name": "F3",
          "midi": 53,
          "time": 53.05885321093763,
          "velocity": 0.7480314960629921,
          "duration": 0.1076932285156218
        },
        {
          "name": "D4",
          "midi": 62,
          "time": 53.24223009375012,
          "velocity": 0.6299212598425197,
          "duration": 0.08273661132812293
        },
        {
          "name": "D5",
          "midi": 74,
          "time": 53.24223009375012,
          "velocity": 0.7401574803149606,
          "duration": 0.0908746386718704
        },
        {
          "name": "D#4",
          "midi": 63,
          "time": 53.33446107031262,
          "velocity": 0.6692913385826772,
          "duration": 0.46793657226562146
        },
        {
          "name": "D#5",
          "midi": 75,
          "time": 53.33446107031262,
          "velocity": 0.7795275590551181,
          "duration": 0.46793657226562146
        },
        {
          "name": "D#2",
          "midi": 39,
          "time": 53.33446107031262,
          "velocity": 0.6614173228346457,
          "duration": 0.46793657226562146
        },
        {
          "name": "D#3",
          "midi": 51,
          "time": 53.33446107031262,
          "velocity": 0.7795275590551181,
          "duration": 0.46793657226562146
        },
        {
          "name": "F#4",
          "midi": 66,
          "time": 53.80266891015637,
          "velocity": 0.6299212598425197,
          "duration": 0.3670250332031202
        },
        {
          "name": "F#5",
          "midi": 78,
          "time": 53.80266891015637,
          "velocity": 0.7401574803149606,
          "duration": 0.3670250332031202
        },
        {
          "name": "F#2",
          "midi": 42,
          "time": 53.80266891015637,
          "velocity": 0.6299212598425197,
          "duration": 0.08355041406250052
        },
        {
          "name": "F#3",
          "midi": 54,
          "time": 53.80266891015637,
          "velocity": 0.7401574803149606,
          "duration": 0.09168844140624799
        },
        {
          "name": "A#4",
          "midi": 70,
          "time": 54.16996521093762,
          "velocity": 0.6377952755905512,
          "duration": 0.2742515214843735
        },
        {
          "name": "A#5",
          "midi": 82,
          "time": 54.16996521093762,
          "velocity": 0.7480314960629921,
          "duration": 0.2742515214843735
        },
        {
          "name": "A#2",
          "midi": 46,
          "time": 54.16996521093762,
          "velocity": 0.6377952755905512,
          "duration": 0.1076932285156218
        },
        {
          "name": "A#3",
          "midi": 58,
          "time": 54.16996521093762,
          "velocity": 0.7480314960629921,
          "duration": 0.1076932285156218
        },
        {
          "name": "C#5",
          "midi": 73,
          "time": 54.44557307031262,
          "velocity": 0.6692913385826772,
          "duration": 0.18500448828125116
        },
        {
          "name": "C#6",
          "midi": 85,
          "time": 54.44557307031262,
          "velocity": 0.7795275590551181,
          "duration": 0.19314251562499862
        },
        {
          "name": "A#1",
          "midi": 34,
          "time": 54.44557307031262,
          "velocity": 0.6535433070866141,
          "duration": 0.46793657226562857
        },
        {
          "name": "A#2",
          "midi": 46,
          "time": 54.44557307031262,
          "velocity": 0.7795275590551181,
          "duration": 0.46793657226562857
        },
        {
          "name": "C5",
          "midi": 72,
          "time": 54.638986853515746,
          "velocity": 0.6299212598425197,
          "duration": 0.2745227890625017
        },
        {
          "name": "C6",
          "midi": 84,
          "time": 54.638986853515746,
          "velocity": 0.7401574803149606,
          "duration": 0.2745227890625017
        },
        {
          "name": "A#4",
          "midi": 70,
          "time": 54.913780910156376,
          "velocity": 0.6299212598425197,
          "duration": 0.3670250332031202
        },
        {
          "name": "A#5",
          "midi": 82,
          "time": 54.913780910156376,
          "velocity": 0.7401574803149606,
          "duration": 0.3670250332031202
        },
        {
          "name": "C#2",
          "midi": 37,
          "time": 54.913780910156376,
          "velocity": 0.6220472440944882,
          "duration": 0.08355041406250052
        },
        {
          "name": "C#3",
          "midi": 49,
          "time": 54.913780910156376,
          "velocity": 0.7401574803149606,
          "duration": 0.09168844140624799
        },
        {
          "name": "F2",
          "midi": 41,
          "time": 55.281077210937624,
          "velocity": 0.6377952755905512,
          "duration": 0.1076932285156289
        },
        {
          "name": "F3",
          "midi": 53,
          "time": 55.281077210937624,
          "velocity": 0.7480314960629921,
          "duration": 0.1076932285156289
        },
        {
          "name": "A4",
          "midi": 69,
          "time": 55.556685070312625,
          "velocity": 0.6692913385826772,
          "duration": 0.18500448828125116
        },
        {
          "name": "A5",
          "midi": 81,
          "time": 55.556685070312625,
          "velocity": 0.7795275590551181,
          "duration": 0.19314251562499862
        },
        {
          "name": "F1",
          "midi": 29,
          "time": 55.556685070312625,
          "velocity": 0.6377952755905512,
          "duration": 0.46793657226562857
        },
        {
          "name": "F2",
          "midi": 41,
          "time": 55.556685070312625,
          "velocity": 0.7795275590551181,
          "duration": 0.46793657226562857
        },
        {
          "name": "F#4",
          "midi": 66,
          "time": 55.75009885351575,
          "velocity": 0.6299212598425197,
          "duration": 0.08300787890625116
        },
        {
          "name": "F#5",
          "midi": 78,
          "time": 55.75009885351575,
          "velocity": 0.7401574803149606,
          "duration": 0.09114590624999863
        },
        {
          "name": "F4",
          "midi": 65,
          "time": 55.84151602734388,
          "velocity": 0.6377952755905512,
          "duration": 0.17496758789062739
        },
        {
          "name": "F5",
          "midi": 77,
          "time": 55.84151602734388,
          "velocity": 0.7480314960629921,
          "duration": 0.18310561523437485
        },
        {
          "name": "C4",
          "midi": 60,
          "time": 56.02489291015638,
          "velocity": 0.6299212598425197,
          "duration": 0.26828363476562345
        },
        {
          "name": "C5",
          "midi": 72,
          "time": 56.02489291015638,
          "velocity": 0.7401574803149606,
          "duration": 0.2764216621093709
        },
        {
          "name": "A1",
          "midi": 33,
          "time": 56.02489291015638,
          "velocity": 0.6062992125984252,
          "duration": 0.08355041406250052
        },
        {
          "name": "A2",
          "midi": 45,
          "time": 56.02489291015638,
          "velocity": 0.7401574803149606,
          "duration": 0.09168844140624799
        },
        {
          "name": "D#4",
          "midi": 63,
          "time": 56.30158583984388,
          "velocity": 0.6299212598425197,
          "duration": 0.2737089863281241
        },
        {
          "name": "D#5",
          "midi": 75,
          "time": 56.30158583984388,
          "velocity": 0.7401574803149606,
          "duration": 0.2737089863281241
        },
        {
          "name": "C2",
          "midi": 36,
          "time": 56.39218921093763,
          "velocity": 0.6220472440944882,
          "duration": 0.1076932285156218
        },
        {
          "name": "C3",
          "midi": 48,
          "time": 56.39218921093763,
          "velocity": 0.7480314960629921,
          "duration": 0.1076932285156218
        },
        {
          "name": "C#4",
          "midi": 61,
          "time": 56.57556609375013,
          "velocity": 0.6299212598425197,
          "duration": 0.08273661132812293
        },
        {
          "name": "C#5",
          "midi": 73,
          "time": 56.57556609375013,
          "velocity": 0.7401574803149606,
          "duration": 0.0908746386718704
        },
        {
          "name": "A#3",
          "midi": 58,
          "time": 56.66779707031263,
          "velocity": 0.6692913385826772,
          "duration": 0.2845596894531255
        },
        {
          "name": "A#4",
          "midi": 70,
          "time": 56.66779707031263,
          "velocity": 0.7795275590551181,
          "duration": 0.2845596894531255
        },
        {
          "name": "A#1",
          "midi": 34,
          "time": 56.66779707031263,
          "velocity": 0.6535433070866141,
          "duration": 0.46793657226562857
        },
        {
          "name": "A#2",
          "midi": 46,
          "time": 56.66779707031263,
          "velocity": 0.7795275590551181,
          "duration": 0.46793657226562857
        },
        {
          "name": "A#3",
          "midi": 58,
          "time": 56.952628027343884,
          "velocity": 0.6377952755905512,
          "duration": 0.17496758789062739
        },
        {
          "name": "A#4",
          "midi": 70,
          "time": 56.952628027343884,
          "velocity": 0.7480314960629921,
          "duration": 0.18310561523437485
        },
        {
          "name": "C#4",
          "midi": 61,
          "time": 57.13600491015639,
          "velocity": 0.6299212598425197,
          "duration": 0.26828363476562345
        },
        {
          "name": "C#5",
          "midi": 73,
          "time": 57.13600491015639,
          "velocity": 0.7401574803149606,
          "duration": 0.2764216621093709
        },
        {
          "name": "C#2",
          "midi": 37,
          "time": 57.13600491015639,
          "velocity": 0.6220472440944882,
          "duration": 0.08355041406250052
        },
        {
          "name": "C#3",
          "midi": 49,
          "time": 57.13600491015639,
          "velocity": 0.7401574803149606,
          "duration": 0.09168844140624799
        },
        {
          "name": "C4",
          "midi": 60,
          "time": 57.41269783984389,
          "velocity": 0.6299212598425197,
          "duration": 0.08219407617187358
        },
        {
          "name": "C5",
          "midi": 72,
          "time": 57.41269783984389,
          "velocity": 0.7401574803149606,
          "duration": 0.09033210351562104
        },
        {
          "name": "C#4",
          "midi": 61,
          "time": 57.503301210937636,
          "velocity": 0.6377952755905512,
          "duration": 0.17496758789062028
        },
        {
          "name": "C#5",
          "midi": 73,
          "time": 57.503301210937636,
          "velocity": 0.7480314960629921,
          "duration": 0.18310561523436775
        },
        {
          "name": "F2",
          "midi": 41,
          "time": 57.503301210937636,
          "velocity": 0.6377952755905512,
          "duration": 0.1076932285156218
        },
        {
          "name": "F3",
          "midi": 53,
          "time": 57.503301210937636,
          "velocity": 0.7480314960629921,
          "duration": 0.1076932285156218
        },
        {
          "name": "D4",
          "midi": 62,
          "time": 57.68667809375013,
          "velocity": 0.6299212598425197,
          "duration": 0.08273661132812293
        },
        {
          "name": "D5",
          "midi": 74,
          "time": 57.68667809375013,
          "velocity": 0.7401574803149606,
          "duration": 0.0908746386718704
        },
        {
          "name": "D#4",
          "midi": 63,
          "time": 57.77890907031263,
          "velocity": 0.6692913385826772,
          "duration": 0.46793657226562146
        },
        {
          "name": "D#5",
          "midi": 75,
          "time": 57.77890907031263,
          "velocity": 0.7795275590551181,
          "duration": 0.46793657226562146
        },
        {
          "name": "D#2",
          "midi": 39,
          "time": 57.77890907031263,
          "velocity": 0.6614173228346457,
          "duration": 0.46793657226562146
        },
        {
          "name": "D#3",
          "midi": 51,
          "time": 57.77890907031263,
          "velocity": 0.7795275590551181,
          "duration": 0.46793657226562146
        },
        {
          "name": "F#4",
          "midi": 66,
          "time": 58.24711691015638,
          "velocity": 0.6299212598425197,
          "duration": 0.3670250332031202
        },
        {
          "name": "F#5",
          "midi": 78,
          "time": 58.24711691015638,
          "velocity": 0.7401574803149606,
          "duration": 0.3670250332031202
        },
        {
          "name": "F#2",
          "midi": 42,
          "time": 58.24711691015638,
          "velocity": 0.6299212598425197,
          "duration": 0.08355041406250052
        },
        {
          "name": "F#3",
          "midi": 54,
          "time": 58.24711691015638,
          "velocity": 0.7401574803149606,
          "duration": 0.09168844140624799
        },
        {
          "name": "A#4",
          "midi": 70,
          "time": 58.61441321093763,
          "velocity": 0.6377952755905512,
          "duration": 0.2742515214843735
        },
        {
          "name": "A#5",
          "midi": 82,
          "time": 58.61441321093763,
          "velocity": 0.7480314960629921,
          "duration": 0.2742515214843735
        },
        {
          "name": "A#2",
          "midi": 46,
          "time": 58.61441321093763,
          "velocity": 0.6377952755905512,
          "duration": 0.1076932285156218
        },
        {
          "name": "A#3",
          "midi": 58,
          "time": 58.61441321093763,
          "velocity": 0.7480314960629921,
          "duration": 0.1076932285156218
        },
        {
          "name": "C#5",
          "midi": 73,
          "time": 58.89002107031263,
          "velocity": 0.6692913385826772,
          "duration": 0.18500448828125116
        },
        {
          "name": "C#6",
          "midi": 85,
          "time": 58.89002107031263,
          "velocity": 0.7795275590551181,
          "duration": 0.19314251562499862
        },
        {
          "name": "A#1",
          "midi": 34,
          "time": 58.89002107031263,
          "velocity": 0.6535433070866141,
          "duration": 0.46793657226562857
        },
        {
          "name": "A#2",
          "midi": 46,
          "time": 58.89002107031263,
          "velocity": 0.7795275590551181,
          "duration": 0.46793657226562857
        },
        {
          "name": "C5",
          "midi": 72,
          "time": 59.083434853515755,
          "velocity": 0.6299212598425197,
          "duration": 0.2745227890625017
        },
        {
          "name": "C6",
          "midi": 84,
          "time": 59.083434853515755,
          "velocity": 0.7401574803149606,
          "duration": 0.2745227890625017
        },
        {
          "name": "A#4",
          "midi": 70,
          "time": 59.358228910156384,
          "velocity": 0.6299212598425197,
          "duration": 0.26828363476562345
        },
        {
          "name": "A#5",
          "midi": 82,
          "time": 59.358228910156384,
          "velocity": 0.7401574803149606,
          "duration": 0.2764216621093709
        },
        {
          "name": "C#2",
          "midi": 37,
          "time": 59.358228910156384,
          "velocity": 0.6220472440944882,
          "duration": 0.08355041406250052
        },
        {
          "name": "C#3",
          "midi": 49,
          "time": 59.358228910156384,
          "velocity": 0.7401574803149606,
          "duration": 0.09168844140624799
        },
        {
          "name": "A4",
          "midi": 69,
          "time": 59.634921839843884,
          "velocity": 0.6299212598425197,
          "duration": 0.08219407617187358
        },
        {
          "name": "A5",
          "midi": 81,
          "time": 59.634921839843884,
          "velocity": 0.7401574803149606,
          "duration": 0.09033210351562104
        },
        {
          "name": "A#4",
          "midi": 70,
          "time": 59.72552521093763,
          "velocity": 0.6377952755905512,
          "duration": 0.17496758789062028
        },
        {
          "name": "A#5",
          "midi": 82,
          "time": 59.72552521093763,
          "velocity": 0.7480314960629921,
          "duration": 0.18310561523436775
        },
        {
          "name": "F2",
          "midi": 41,
          "time": 59.72552521093763,
          "velocity": 0.6377952755905512,
          "duration": 0.1076932285156218
        },
        {
          "name": "F3",
          "midi": 53,
          "time": 59.72552521093763,
          "velocity": 0.7480314960629921,
          "duration": 0.1076932285156218
        },
        {
          "name": "B4",
          "midi": 71,
          "time": 59.90890209375013,
          "velocity": 0.6299212598425197,
          "duration": 0.08273661132812293
        },
        {
          "name": "B5",
          "midi": 83,
          "time": 59.90890209375013,
          "velocity": 0.7401574803149606,
          "duration": 0.0908746386718704
        },
        {
          "name": "C5",
          "midi": 72,
          "time": 60.001133070312626,
          "velocity": 0.6692913385826772,
          "duration": 0.18500448828125116
        },
        {
          "name": "C6",
          "midi": 84,
          "time": 60.001133070312626,
          "velocity": 0.7795275590551181,
          "duration": 0.19314251562499862
        },
        {
          "name": "C2",
          "midi": 36,
          "time": 60.001133070312626,
          "velocity": 0.6535433070866141,
          "duration": 0.46793657226562857
        },
        {
          "name": "C3",
          "midi": 48,
          "time": 60.001133070312626,
          "velocity": 0.7795275590551181,
          "duration": 0.46793657226562857
        },
        {
          "name": "B4",
          "midi": 71,
          "time": 60.19454685351575,
          "velocity": 0.6299212598425197,
          "duration": 0.08300787890625116
        },
        {
          "name": "B5",
          "midi": 83,
          "time": 60.19454685351575,
          "velocity": 0.7401574803149606,
          "duration": 0.09114590624999863
        },
        {
          "name": "C5",
          "midi": 72,
          "time": 60.28596402734388,
          "velocity": 0.6377952755905512,
          "duration": 0.17496758789062739
        },
        {
          "name": "C6",
          "midi": 84,
          "time": 60.28596402734388,
          "velocity": 0.7480314960629921,
          "duration": 0.18310561523437485
        },
        {
          "name": "B4",
          "midi": 71,
          "time": 60.46934091015638,
          "velocity": 0.6299212598425197,
          "duration": 0.08355041406250052
        },
        {
          "name": "B5",
          "midi": 83,
          "time": 60.46934091015638,
          "velocity": 0.7401574803149606,
          "duration": 0.09168844140624799
        },
        {
          "name": "E2",
          "midi": 40,
          "time": 60.46934091015638,
          "velocity": 0.6220472440944882,
          "duration": 0.08355041406250052
        },
        {
          "name": "E3",
          "midi": 52,
          "time": 60.46934091015638,
          "velocity": 0.7401574803149606,
          "duration": 0.09168844140624799
        },
        {
          "name": "C5",
          "midi": 72,
          "time": 60.56130061914076,
          "velocity": 0.6535433070866141,
          "duration": 0.17632392578124723
        },
        {
          "name": "C6",
          "midi": 84,
          "time": 60.56130061914076,
          "velocity": 0.7637795275590551,
          "duration": 0.1844619531249947
        },
        {
          "name": "E5",
          "midi": 76,
          "time": 60.74603383984388,
          "velocity": 0.6299212598425197,
          "duration": 0.2737089863281241
        },
        {
          "name": "E6",
          "midi": 88,
          "time": 60.74603383984388,
          "velocity": 0.7401574803149606,
          "duration": 0.2737089863281241
        },
        {
          "name": "G2",
          "midi": 43,
          "time": 60.83663721093763,
          "velocity": 0.6377952755905512,
          "duration": 0.1076932285156218
        },
        {
          "name": "G3",
          "midi": 55,
          "time": 60.83663721093763,
          "velocity": 0.7480314960629921,
          "duration": 0.1076932285156218
        },
        {
          "name": "F5",
          "midi": 77,
          "time": 61.020014093750135,
          "velocity": 0.6299212598425197,
          "duration": 0.28537349218749597
        },
        {
          "name": "F6",
          "midi": 89,
          "time": 61.020014093750135,
          "velocity": 0.7401574803149606,
          "duration": 0.28537349218749597
        },
        {
          "name": "F2",
          "midi": 41,
          "time": 61.11224507031263,
          "velocity": 0.6692913385826772,
          "duration": 0.46793657226562857
        },
        {
          "name": "F3",
          "midi": 53,
          "time": 61.11224507031263,
          "velocity": 0.7795275590551181,
          "duration": 0.46793657226562857
        },
        {
          "name": "F4",
          "midi": 65,
          "time": 61.30565885351576,
          "velocity": 0.6299212598425197,
          "duration": 0.36648249804687794
        },
        {
          "name": "F5",
          "midi": 77,
          "time": 61.30565885351576,
          "velocity": 0.7401574803149606,
          "duration": 0.36648249804687794
        },
        {
          "name": "F2",
          "midi": 41,
          "time": 61.58045291015639,
          "velocity": 0.6299212598425197,
          "duration": 0.08355041406250052
        },
        {
          "name": "F3",
          "midi": 53,
          "time": 61.58045291015639,
          "velocity": 0.7086614173228346,
          "duration": 0.09168844140624799
        },
        {
          "name": "G4",
          "midi": 67,
          "time": 61.672412619140765,
          "velocity": 0.6535433070866141,
          "duration": 0.2750653242187511
        },
        {
          "name": "G5",
          "midi": 79,
          "time": 61.672412619140765,
          "velocity": 0.7637795275590551,
          "duration": 0.2750653242187511
        },
        {
          "name": "A4",
          "midi": 69,
          "time": 61.947749210937644,
          "velocity": 0.6377952755905512,
          "duration": 0.2742515214843735
        },
        {
          "name": "A5",
          "midi": 81,
          "time": 61.947749210937644,
          "velocity": 0.7480314960629921,
          "duration": 0.2742515214843735
        },
        {
          "name": "F1",
          "midi": 29,
          "time": 61.947749210937644,
          "velocity": 0.6377952755905512,
          "duration": 0.1076932285156218
        },
        {
          "name": "F2",
          "midi": 41,
          "time": 61.947749210937644,
          "velocity": 0.7480314960629921,
          "duration": 0.1076932285156218
        },
        {
          "name": "A#4",
          "midi": 70,
          "time": 62.223357070312645,
          "velocity": 0.6692913385826772,
          "duration": 0.2845596894531255
        },
        {
          "name": "A#5",
          "midi": 82,
          "time": 62.223357070312645,
          "velocity": 0.7795275590551181,
          "duration": 0.2845596894531255
        },
        {
          "name": "A#1",
          "midi": 34,
          "time": 62.223357070312645,
          "velocity": 0.6692913385826772,
          "duration": 0.1180013964843738
        },
        {
          "name": "A#2",
          "midi": 46,
          "time": 62.223357070312645,
          "velocity": 0.7795275590551181,
          "duration": 0.1180013964843738
        },
        {
          "name": "A#1",
          "midi": 34,
          "time": 62.5081880273439,
          "velocity": 0.6377952755905512,
          "duration": 0.10850703124999939
        },
        {
          "name": "A#2",
          "midi": 46,
          "time": 62.5081880273439,
          "velocity": 0.7165354330708661,
          "duration": 0.10850703124999939
        },
        {
          "name": "F4",
          "midi": 65,
          "time": 62.691564910156394,
          "velocity": 0.6299212598425197,
          "duration": 0.3670250332031273
        },
        {
          "name": "F5",
          "midi": 77,
          "time": 62.691564910156394,
          "velocity": 0.7401574803149606,
          "duration": 0.3670250332031273
        },
        {
          "name": "A#1",
          "midi": 34,
          "time": 62.78352461914077,
          "velocity": 0.6535433070866141,
          "duration": 0.10850703124999939
        },
        {
          "name": "A#2",
          "midi": 46,
          "time": 62.78352461914077,
          "velocity": 0.7322834645669292,
          "duration": 0.10850703124999939
        },
        {
          "name": "C#4",
          "midi": 61,
          "time": 63.05886121093765,
          "velocity": 0.6377952755905512,
          "duration": 0.2742515214843735
        },
        {
          "name": "C#5",
          "midi": 73,
          "time": 63.05886121093765,
          "velocity": 0.7480314960629921,
          "duration": 0.2742515214843735
        },
        {
          "name": "A#1",
          "midi": 34,
          "time": 63.05886121093765,
          "velocity": 0.6377952755905512,
          "duration": 0.1076932285156218
        },
        {
          "name": "A#2",
          "midi": 46,
          "time": 63.05886121093765,
          "velocity": 0.7480314960629921,
          "duration": 0.1076932285156218
        },
        {
          "name": "E4",
          "midi": 64,
          "time": 63.33446907031265,
          "velocity": 0.6692913385826772,
          "duration": 0.18500448828125116
        },
        {
          "name": "E5",
          "midi": 76,
          "time": 63.33446907031265,
          "velocity": 0.7795275590551181,
          "duration": 0.19314251562499862
        },
        {
          "name": "F#1",
          "midi": 30,
          "time": 63.33446907031265,
          "velocity": 0.6692913385826772,
          "duration": 0.1180013964843738
        },
        {
          "name": "F#2",
          "midi": 42,
          "time": 63.33446907031265,
          "velocity": 0.7795275590551181,
          "duration": 0.1180013964843738
        },
        {
          "name": "D#4",
          "midi": 63,
          "time": 63.52788285351578,
          "velocity": 0.6299212598425197,
          "duration": 0.08300787890625116
        },
        {
          "name": "D#5",
          "midi": 75,
          "time": 63.52788285351578,
          "velocity": 0.7401574803149606,
          "duration": 0.09114590624999863
        },
        {
          "name": "E4",
          "midi": 64,
          "time": 63.619300027343904,
          "velocity": 0.6377952755905512,
          "duration": 0.18310561523437485
        },
        {
          "name": "E5",
          "midi": 76,
          "time": 63.619300027343904,
          "velocity": 0.7480314960629921,
          "duration": 0.18310561523437485
        },
        {
          "name": "F#1",
          "midi": 30,
          "time": 63.619300027343904,
          "velocity": 0.6377952755905512,
          "duration": 0.10850703124999939
        },
        {
          "name": "F#2",
          "midi": 42,
          "time": 63.619300027343904,
          "velocity": 0.7165354330708661,
          "duration": 0.10850703124999939
        },
        {
          "name": "E4",
          "midi": 64,
          "time": 63.80267691015641,
          "velocity": 0.6299212598425197,
          "duration": 0.6415478222656219
        },
        {
          "name": "E5",
          "midi": 76,
          "time": 63.80267691015641,
          "velocity": 0.7086614173228346,
          "duration": 0.6415478222656219
        },
        {
          "name": "F#1",
          "midi": 30,
          "time": 63.89463661914078,
          "velocity": 0.6535433070866141,
          "duration": 0.10850703124999939
        },
        {
          "name": "F#2",
          "midi": 42,
          "time": 63.89463661914078,
          "velocity": 0.7322834645669292,
          "duration": 0.10850703124999939
        },
        {
          "name": "F#1",
          "midi": 30,
          "time": 64.16997321093766,
          "velocity": 0.6377952755905512,
          "duration": 0.1076932285156289
        },
        {
          "name": "F#2",
          "midi": 42,
          "time": 64.16997321093766,
          "velocity": 0.7480314960629921,
          "duration": 0.1076932285156289
        },
        {
          "name": "A#4",
          "midi": 70,
          "time": 64.44558107031266,
          "velocity": 0.6692913385826772,
          "duration": 0.2845596894531184
        },
        {
          "name": "A#5",
          "midi": 82,
          "time": 64.44558107031266,
          "velocity": 0.7795275590551181,
          "duration": 0.2845596894531184
        },
        {
          "name": "A#1",
          "midi": 34,
          "time": 64.44558107031266,
          "velocity": 0.6692913385826772,
          "duration": 0.1180013964843738
        },
        {
          "name": "A#2",
          "midi": 46,
          "time": 64.44558107031266,
          "velocity": 0.7795275590551181,
          "duration": 0.1180013964843738
        },
        {
          "name": "A#1",
          "midi": 34,
          "time": 64.7304120273439,
          "velocity": 0.6377952755905512,
          "duration": 0.10850703124999939
        },
        {
          "name": "A#2",
          "midi": 46,
          "time": 64.7304120273439,
          "velocity": 0.7165354330708661,
          "duration": 0.10850703124999939
        },
        {
          "name": "F4",
          "midi": 65,
          "time": 64.9137889101564,
          "velocity": 0.6299212598425197,
          "duration": 0.3670250332031202
        },
        {
          "name": "F5",
          "midi": 77,
          "time": 64.9137889101564,
          "velocity": 0.7401574803149606,
          "duration": 0.3670250332031202
        },
        {
          "name": "A#1",
          "midi": 34,
          "time": 65.00574861914077,
          "velocity": 0.6535433070866141,
          "duration": 0.10850703124999939
        },
        {
          "name": "A#2",
          "midi": 46,
          "time": 65.00574861914077,
          "velocity": 0.7322834645669292,
          "duration": 0.10850703124999939
        },
        {
          "name": "C#4",
          "midi": 61,
          "time": 65.28108521093765,
          "velocity": 0.6377952755905512,
          "duration": 0.2742515214843735
        },
        {
          "name": "C#5",
          "midi": 73,
          "time": 65.28108521093765,
          "velocity": 0.7480314960629921,
          "duration": 0.2742515214843735
        },
        {
          "name": "A#1",
          "midi": 34,
          "time": 65.28108521093765,
          "velocity": 0.6377952755905512,
          "duration": 0.1076932285156289
        },
        {
          "name": "A#2",
          "midi": 46,
          "time": 65.28108521093765,
          "velocity": 0.7480314960629921,
          "duration": 0.1076932285156289
        },
        {
          "name": "E4",
          "midi": 64,
          "time": 65.55669307031265,
          "velocity": 0.6692913385826772,
          "duration": 0.18500448828125116
        },
        {
          "name": "E5",
          "midi": 76,
          "time": 65.55669307031265,
          "velocity": 0.7795275590551181,
          "duration": 0.19314251562499862
        },
        {
          "name": "F#1",
          "midi": 30,
          "time": 65.55669307031265,
          "velocity": 0.6692913385826772,
          "duration": 0.1180013964843738
        },
        {
          "name": "F#2",
          "midi": 42,
          "time": 65.55669307031265,
          "velocity": 0.7795275590551181,
          "duration": 0.1180013964843738
        },
        {
          "name": "D#4",
          "midi": 63,
          "time": 65.75010685351577,
          "velocity": 0.6299212598425197,
          "duration": 0.08300787890624406
        },
        {
          "name": "D#5",
          "midi": 75,
          "time": 65.75010685351577,
          "velocity": 0.7401574803149606,
          "duration": 0.09114590624999153
        },
        {
          "name": "E4",
          "midi": 64,
          "time": 65.8415240273439,
          "velocity": 0.6377952755905512,
          "duration": 0.18310561523436775
        },
        {
          "name": "E5",
          "midi": 76,
          "time": 65.8415240273439,
          "velocity": 0.7480314960629921,
          "duration": 0.18310561523436775
        },
        {
          "name": "F#1",
          "midi": 30,
          "time": 65.8415240273439,
          "velocity": 0.6377952755905512,
          "duration": 0.10850703124999939
        },
        {
          "name": "F#2",
          "midi": 42,
          "time": 65.8415240273439,
          "velocity": 0.7165354330708661,
          "duration": 0.10850703124999939
        },
        {
          "name": "E4",
          "midi": 64,
          "time": 66.02490091015639,
          "velocity": 0.6299212598425197,
          "duration": 0.6415478222656219
        },
        {
          "name": "E5",
          "midi": 76,
          "time": 66.02490091015639,
          "velocity": 0.7086614173228346,
          "duration": 0.6415478222656219
        },
        {
          "name": "F#1",
          "midi": 30,
          "time": 66.11686061914077,
          "velocity": 0.6535433070866141,
          "duration": 0.10850703124999939
        },
        {
          "name": "F#2",
          "midi": 42,
          "time": 66.11686061914077,
          "velocity": 0.7322834645669292,
          "duration": 0.10850703124999939
        },
        {
          "name": "F#1",
          "midi": 30,
          "time": 66.39219721093764,
          "velocity": 0.6377952755905512,
          "duration": 0.1076932285156289
        },
        {
          "name": "F#2",
          "midi": 42,
          "time": 66.39219721093764,
          "velocity": 0.7480314960629921,
          "duration": 0.1076932285156289
        },
        {
          "name": "F4",
          "midi": 65,
          "time": 66.66780507031264,
          "velocity": 0.6692913385826772,
          "duration": 0.2845596894531184
        },
        {
          "name": "A#4",
          "midi": 70,
          "time": 66.66780507031264,
          "velocity": 0.7795275590551181,
          "duration": 0.2845596894531184
        },
        {
          "name": "A#1",
          "midi": 34,
          "time": 66.66780507031264,
          "velocity": 0.6692913385826772,
          "duration": 0.1180013964843738
        },
        {
          "name": "A#2",
          "midi": 46,
          "time": 66.66780507031264,
          "velocity": 0.7795275590551181,
          "duration": 0.1180013964843738
        },
        {
          "name": "A#1",
          "midi": 34,
          "time": 66.95263602734389,
          "velocity": 0.6377952755905512,
          "duration": 0.10850703124999939
        },
        {
          "name": "A#2",
          "midi": 46,
          "time": 66.95263602734389,
          "velocity": 0.7165354330708661,
          "duration": 0.10850703124999939
        },
        {
          "name": "A#3",
          "midi": 58,
          "time": 67.13601291015638,
          "velocity": 0.6299212598425197,
          "duration": 0.2004667402343756
        },
        {
          "name": "F4",
          "midi": 65,
          "time": 67.13601291015638,
          "velocity": 0.7401574803149606,
          "duration": 0.3670250332031202
        },
        {
          "name": "A#1",
          "midi": 34,
          "time": 67.22797261914076,
          "velocity": 0.6535433070866141,
          "duration": 0.10850703124999939
        },
        {
          "name": "A#2",
          "midi": 46,
          "time": 67.22797261914076,
          "velocity": 0.7322834645669292,
          "duration": 0.27506532421874397
        },
        {
          "name": "F3",
          "midi": 53,
          "time": 67.50330921093763,
          "velocity": 0.6377952755905512,
          "duration": 0.2742515214843735
        },
        {
          "name": "C#4",
          "midi": 61,
          "time": 67.50330921093763,
          "velocity": 0.7480314960629921,
          "duration": 0.2742515214843735
        },
        {
          "name": "A#1",
          "midi": 34,
          "time": 67.50330921093763,
          "velocity": 0.6377952755905512,
          "duration": 0.1076932285156289
        },
        {
          "name": "A#2",
          "midi": 46,
          "time": 67.50330921093763,
          "velocity": 0.7480314960629921,
          "duration": 0.1076932285156289
        },
        {
          "name": "F#3",
          "midi": 54,
          "time": 67.77891707031263,
          "velocity": 0.6692913385826772,
          "duration": 0.1180013964843738
        },
        {
          "name": "E4",
          "midi": 64,
          "time": 67.77891707031263,
          "velocity": 0.7795275590551181,
          "duration": 0.19314251562499862
        },
        {
          "name": "F#1",
          "midi": 30,
          "time": 67.77891707031263,
          "velocity": 0.6692913385826772,
          "duration": 0.1180013964843738
        },
        {
          "name": "F#2",
          "midi": 42,
          "time": 67.77891707031263,
          "velocity": 0.7795275590551181,
          "duration": 0.18500448828125116
        },
        {
          "name": "D#4",
          "midi": 63,
          "time": 67.97233085351576,
          "velocity": 0.6929133858267716,
          "duration": 0.08300787890624406
        },
        {
          "name": "F#3",
          "midi": 54,
          "time": 68.06374802734388,
          "velocity": 0.6377952755905512,
          "duration": 0.10850703124999939
        },
        {
          "name": "E4",
          "midi": 64,
          "time": 68.06374802734388,
          "velocity": 0.7165354330708661,
          "duration": 0.18310561523436775
        },
        {
          "name": "F#1",
          "midi": 30,
          "time": 68.06374802734388,
          "velocity": 0.6377952755905512,
          "duration": 0.10850703124999939
        },
        {
          "name": "F#2",
          "midi": 42,
          "time": 68.06374802734388,
          "velocity": 0.7165354330708661,
          "duration": 0.18310561523436775
        },
        {
          "name": "F#3",
          "midi": 54,
          "time": 68.24712491015637,
          "velocity": 0.6299212598425197,
          "duration": 0.2004667402343756
        },
        {
          "name": "E4",
          "midi": 64,
          "time": 68.24712491015637,
          "velocity": 0.7086614173228346,
          "duration": 0.2764216621093709
        },
        {
          "name": "F#1",
          "midi": 30,
          "time": 68.33908461914075,
          "velocity": 0.6535433070866141,
          "duration": 0.10850703124999939
        },
        {
          "name": "F#2",
          "midi": 42,
          "time": 68.33908461914075,
          "velocity": 0.7322834645669292,
          "duration": 0.17632392578124723
        },
        {
          "name": "A#3",
          "midi": 58,
          "time": 68.52381783984387,
          "velocity": 0.6929133858267716,
          "duration": 0.08219407617187358
        },
        {
          "name": "F3",
          "midi": 53,
          "time": 68.61442121093762,
          "velocity": 0.6377952755905512,
          "duration": 0.1749675878906345
        },
        {
          "name": "C#4",
          "midi": 61,
          "time": 68.61442121093762,
          "velocity": 0.7480314960629921,
          "duration": 0.18310561523438196
        },
        {
          "name": "F#1",
          "midi": 30,
          "time": 68.61442121093762,
          "velocity": 0.6377952755905512,
          "duration": 0.1076932285156289
        },
        {
          "name": "F#2",
          "midi": 42,
          "time": 68.61442121093762,
          "velocity": 0.7480314960629921,
          "duration": 0.1076932285156289
        },
        {
          "name": "D4",
          "midi": 62,
          "time": 68.79779809375013,
          "velocity": 0.6929133858267716,
          "duration": 0.08273661132813004
        },
        {
          "name": "F3",
          "midi": 53,
          "time": 68.89002907031264,
          "velocity": 0.6692913385826772,
          "duration": 0.1180013964843738
        },
        {
          "name": "D#4",
          "midi": 63,
          "time": 68.89002907031264,
          "velocity": 0.7795275590551181,
          "duration": 0.19314251562499862
        },
        {
          "name": "F1",
          "midi": 29,
          "time": 68.89002907031264,
          "velocity": 0.6692913385826772,
          "duration": 0.1180013964843738
        },
        {
          "name": "F2",
          "midi": 41,
          "time": 68.89002907031264,
          "velocity": 0.7795275590551181,
          "duration": 0.18500448828125116
        },
        {
          "name": "E4",
          "midi": 64,
          "time": 69.08344285351576,
          "velocity": 0.6929133858267716,
          "duration": 0.08300787890624406
        },
        {
          "name": "F3",
          "midi": 53,
          "time": 69.17486002734388,
          "velocity": 0.6377952755905512,
          "duration": 0.10850703124999939
        },
        {
          "name": "D#4",
          "midi": 63,
          "time": 69.17486002734388,
          "velocity": 0.7480314960629921,
          "duration": 0.18310561523436775
        },
        {
          "name": "F1",
          "midi": 29,
          "time": 69.17486002734388,
          "velocity": 0.6377952755905512,
          "duration": 0.10850703124999939
        },
        {
          "name": "F2",
          "midi": 41,
          "time": 69.17486002734388,
          "velocity": 0.7480314960629921,
          "duration": 0.17496758789062028
        },
        {
          "name": "E4",
          "midi": 64,
          "time": 69.35823691015638,
          "velocity": 0.6929133858267716,
          "duration": 0.08355041406250052
        },
        {
          "name": "A3",
          "midi": 57,
          "time": 69.45019661914075,
          "velocity": 0.6535433070866141,
          "duration": 0.10850703124999939
        },
        {
          "name": "D#4",
          "midi": 63,
          "time": 69.45019661914075,
          "velocity": 0.7637795275590551,
          "duration": 0.1844619531249947
        },
        {
          "name": "A1",
          "midi": 33,
          "time": 69.45019661914075,
          "velocity": 0.6535433070866141,
          "duration": 0.10850703124999939
        },
        {
          "name": "A2",
          "midi": 45,
          "time": 69.45019661914075,
          "velocity": 0.7637795275590551,
          "duration": 0.17632392578124723
        },
        {
          "name": "F3",
          "midi": 53,
          "time": 69.63492983984388,
          "velocity": 0.6299212598425197,
          "duration": 0.08219407617187358
        },
        {
          "name": "C#4",
          "midi": 61,
          "time": 69.63492983984388,
          "velocity": 0.7401574803149606,
          "duration": 0.09033210351562104
        },
        {
          "name": "A1",
          "midi": 33,
          "time": 69.72553321093763,
          "velocity": 0.6377952755905512,
          "duration": 0.1076932285156289
        },
        {
          "name": "A2",
          "midi": 45,
          "time": 69.72553321093763,
          "velocity": 0.7480314960629921,
          "duration": 0.1076932285156289
        },
        {
          "name": "C#3",
          "midi": 49,
          "time": 69.90891009375014,
          "velocity": 0.6299212598425197,
          "duration": 1.201986638671869
        },
        {
          "name": "A#3",
          "midi": 58,
          "time": 69.90891009375014,
          "velocity": 0.7401574803149606,
          "duration": 0.21023237304687825
        },
        {
          "name": "A#1",
          "midi": 34,
          "time": 70.00114107031264,
          "velocity": 0.6692913385826772,
          "duration": 0.1180013964843738
        },
        {
          "name": "A#2",
          "midi": 46,
          "time": 70.00114107031264,
          "velocity": 0.7795275590551181,
          "duration": 0.393337988281246
        },
        {
          "name": "A#1",
          "midi": 34,
          "time": 70.28597202734389,
          "velocity": 0.6377952755905512,
          "duration": 0.10850703124999939
        },
        {
          "name": "A#2",
          "midi": 46,
          "time": 70.28597202734389,
          "velocity": 0.7165354330708661,
          "duration": 0.3838436230468716
        },
        {
          "name": "A#1",
          "midi": 34,
          "time": 70.56130861914076,
          "velocity": 0.6535433070866141,
          "duration": 0.10850703124999939
        },
        {
          "name": "A#2",
          "midi": 46,
          "time": 70.56130861914076,
          "velocity": 0.7322834645669292,
          "duration": 0.3830298203125011
        },
        {
          "name": "A#1",
          "midi": 34,
          "time": 70.83664521093763,
          "velocity": 0.6377952755905512,
          "duration": 0.1076932285156289
        },
        {
          "name": "A#2",
          "midi": 46,
          "time": 70.83664521093763,
          "velocity": 0.7165354330708661,
          "duration": 0.2742515214843735
        },
        {
          "name": "A#3",
          "midi": 58,
          "time": 71.11225307031263,
          "velocity": 0.6692913385826772,
          "duration": 0.1180013964843738
        },
        {
          "name": "A#4",
          "midi": 70,
          "time": 71.11225307031263,
          "velocity": 0.7795275590551181,
          "duration": 0.19314251562499862
        },
        {
          "name": "A#1",
          "midi": 34,
          "time": 71.11225307031263,
          "velocity": 0.6692913385826772,
          "duration": 0.1180013964843738
        },
        {
          "name": "A#2",
          "midi": 46,
          "time": 71.11225307031263,
          "velocity": 0.7480314960629921,
          "duration": 0.18500448828125116
        },
        {
          "name": "F4",
          "midi": 65,
          "time": 71.30566685351576,
          "velocity": 0.6929133858267716,
          "duration": 0.08300787890624406
        },
        {
          "name": "C#4",
          "midi": 61,
          "time": 71.39708402734388,
          "velocity": 0.7007874015748031,
          "duration": 0.17496758789062028
        },
        {
          "name": "A#1",
          "midi": 34,
          "time": 71.39708402734388,
          "velocity": 0.6377952755905512,
          "duration": 0.10850703124999939
        },
        {
          "name": "A#2",
          "midi": 46,
          "time": 71.39708402734388,
          "velocity": 0.7165354330708661,
          "duration": 0.10850703124999939
        },
        {
          "name": "A#3",
          "midi": 58,
          "time": 71.58046091015638,
          "velocity": 0.6299212598425197,
          "duration": 0.08355041406250052
        },
        {
          "name": "A#4",
          "midi": 70,
          "time": 71.58046091015638,
          "velocity": 0.7401574803149606,
          "duration": 0.09168844140624799
        },
        {
          "name": "F4",
          "midi": 65,
          "time": 71.67242061914075,
          "velocity": 0.7165354330708661,
          "duration": 0.17632392578124723
        },
        {
          "name": "A#1",
          "midi": 34,
          "time": 71.67242061914075,
          "velocity": 0.6535433070866141,
          "duration": 0.10850703124999939
        },
        {
          "name": "A#2",
          "midi": 46,
          "time": 71.67242061914075,
          "velocity": 0.7322834645669292,
          "duration": 0.10850703124999939
        },
        {
          "name": "C#4",
          "midi": 61,
          "time": 71.85715383984387,
          "velocity": 0.6929133858267716,
          "duration": 0.08219407617187358
        },
        {
          "name": "A#3",
          "midi": 58,
          "time": 71.94775721093762,
          "velocity": 0.6377952755905512,
          "duration": 0.1076932285156289
        },
        {
          "name": "A#4",
          "midi": 70,
          "time": 71.94775721093762,
          "velocity": 0.7480314960629921,
          "duration": 0.18310561523438196
        },
        {
          "name": "A#1",
          "midi": 34,
          "time": 71.94775721093762,
          "velocity": 0.6377952755905512,
          "duration": 0.1076932285156289
        },
        {
          "name": "A#2",
          "midi": 46,
          "time": 71.94775721093762,
          "velocity": 0.7480314960629921,
          "duration": 0.1749675878906345
        },
        {
          "name": "F4",
          "midi": 65,
          "time": 72.13113409375013,
          "velocity": 0.6929133858267716,
          "duration": 0.08273661132813004
        },
        {
          "name": "F#3",
          "midi": 54,
          "time": 72.22336507031264,
          "velocity": 0.6692913385826772,
          "duration": 0.1180013964843738
        },
        {
          "name": "E4",
          "midi": 64,
          "time": 72.22336507031264,
          "velocity": 0.7480314960629921,
          "duration": 0.19314251562499862
        },
        {
          "name": "F#1",
          "midi": 30,
          "time": 72.22336507031264,
          "velocity": 0.6692913385826772,
          "duration": 0.1180013964843738
        },
        {
          "name": "F#2",
          "midi": 42,
          "time": 72.22336507031264,
          "velocity": 0.7795275590551181,
          "duration": 0.19314251562499862
        },
        {
          "name": "F#3",
          "midi": 54,
          "time": 72.41677885351577,
          "velocity": 0.6299212598425197,
          "duration": 0.08300787890624406
        },
        {
          "name": "E4",
          "midi": 64,
          "time": 72.41677885351577,
          "velocity": 0.7086614173228346,
          "duration": 0.09114590624999153
        },
        {
          "name": "F#1",
          "midi": 30,
          "time": 72.50819602734389,
          "velocity": 0.6377952755905512,
          "duration": 0.10850703124999939
        },
        {
          "name": "F#2",
          "midi": 42,
          "time": 72.50819602734389,
          "velocity": 0.7165354330708661,
          "duration": 0.10850703124999939
        },
        {
          "name": "F#3",
          "midi": 54,
          "time": 72.69157291015638,
          "velocity": 0.6299212598425197,
          "duration": 0.2004667402343756
        },
        {
          "name": "E4",
          "midi": 64,
          "time": 72.69157291015638,
          "velocity": 0.7086614173228346,
          "duration": 0.3670250332031202
        },
        {
          "name": "F#1",
          "midi": 30,
          "time": 72.78353261914076,
          "velocity": 0.6535433070866141,
          "duration": 0.10850703124999939
        },
        {
          "name": "F#2",
          "midi": 42,
          "time": 72.78353261914076,
          "velocity": 0.7322834645669292,
          "duration": 0.27506532421874397
        },
        {
          "name": "F#1",
          "midi": 30,
          "time": 73.05886921093763,
          "velocity": 0.6377952755905512,
          "duration": 0.10769322851561469
        },
        {
          "name": "F#2",
          "midi": 42,
          "time": 73.05886921093763,
          "velocity": 0.7480314960629921,
          "duration": 0.10769322851561469
        },
        {
          "name": "A#3",
          "midi": 58,
          "time": 73.33447707031262,
          "velocity": 0.6692913385826772,
          "duration": 0.1180013964843738
        },
        {
          "name": "A#4",
          "midi": 70,
          "time": 73.33447707031262,
          "velocity": 0.7795275590551181,
          "duration": 0.19314251562499862
        },
        {
          "name": "A#1",
          "midi": 34,
          "time": 73.33447707031262,
          "velocity": 0.6692913385826772,
          "duration": 0.1180013964843738
        },
        {
          "name": "A#2",
          "midi": 46,
          "time": 73.33447707031262,
          "velocity": 0.7795275590551181,
          "duration": 0.18500448828125116
        },
        {
          "name": "F4",
          "midi": 65,
          "time": 73.52789085351574,
          "velocity": 0.6929133858267716,
          "duration": 0.08300787890624406
        },
        {
          "name": "C#4",
          "midi": 61,
          "time": 73.61930802734386,
          "velocity": 0.7007874015748031,
          "duration": 0.17496758789062028
        },
        {
          "name": "A#1",
          "midi": 34,
          "time": 73.61930802734386,
          "velocity": 0.6377952755905512,
          "duration": 0.10850703124999939
        },
        {
          "name": "A#2",
          "midi": 46,
          "time": 73.61930802734386,
          "velocity": 0.7165354330708661,
          "duration": 0.10850703124999939
        },
        {
          "name": "A#3",
          "midi": 58,
          "time": 73.80268491015636,
          "velocity": 0.6299212598425197,
          "duration": 0.08355041406250052
        },
        {
          "name": "A#4",
          "midi": 70,
          "time": 73.80268491015636,
          "velocity": 0.7401574803149606,
          "duration": 0.09168844140624799
        },
        {
          "name": "F4",
          "midi": 65,
          "time": 73.89464461914073,
          "velocity": 0.7165354330708661,
          "duration": 0.17632392578124723
        },
        {
          "name": "A#1",
          "midi": 34,
          "time": 73.89464461914073,
          "velocity": 0.6535433070866141,
          "duration": 0.10850703124999939
        },
        {
          "name": "A#2",
          "midi": 46,
          "time": 73.89464461914073,
          "velocity": 0.7322834645669292,
          "duration": 0.10850703124999939
        },
        {
          "name": "C#4",
          "midi": 61,
          "time": 74.07937783984386,
          "velocity": 0.6929133858267716,
          "duration": 0.08219407617187358
        },
        {
          "name": "A#3",
          "midi": 58,
          "time": 74.1699812109376,
          "velocity": 0.6377952755905512,
          "duration": 0.1076932285156289
        },
        {
          "name": "A#4",
          "midi": 70,
          "time": 74.1699812109376,
          "velocity": 0.7480314960629921,
          "duration": 0.18310561523438196
        },
        {
          "name": "A#1",
          "midi": 34,
          "time": 74.1699812109376,
          "velocity": 0.6377952755905512,
          "duration": 0.1076932285156289
        },
        {
          "name": "A#2",
          "midi": 46,
          "time": 74.1699812109376,
          "velocity": 0.7480314960629921,
          "duration": 0.1749675878906345
        },
        {
          "name": "F4",
          "midi": 65,
          "time": 74.35335809375012,
          "velocity": 0.6929133858267716,
          "duration": 0.08273661132813004
        },
        {
          "name": "F#4",
          "midi": 66,
          "time": 74.44558907031262,
          "velocity": 0.6692913385826772,
          "duration": 0.19314251562499862
        },
        {
          "name": "E5",
          "midi": 76,
          "time": 74.44558907031262,
          "velocity": 0.7480314960629921,
          "duration": 0.19314251562499862
        },
        {
          "name": "F#1",
          "midi": 30,
          "time": 74.44558907031262,
          "velocity": 0.6692913385826772,
          "duration": 0.1180013964843738
        },
        {
          "name": "F#2",
          "midi": 42,
          "time": 74.44558907031262,
          "velocity": 0.7795275590551181,
          "duration": 0.1180013964843738
        },
        {
          "name": "F#4",
          "midi": 66,
          "time": 74.63900285351575,
          "velocity": 0.6299212598425197,
          "duration": 0.08300787890624406
        },
        {
          "name": "E5",
          "midi": 76,
          "time": 74.63900285351575,
          "velocity": 0.7086614173228346,
          "duration": 0.09114590624999153
        },
        {
          "name": "F#1",
          "midi": 30,
          "time": 74.73042002734387,
          "velocity": 0.6377952755905512,
          "duration": 0.10850703124999939
        },
        {
          "name": "F#2",
          "midi": 42,
          "time": 74.73042002734387,
          "velocity": 0.7165354330708661,
          "duration": 0.10850703124999939
        },
        {
          "name": "F#4",
          "midi": 66,
          "time": 74.91379691015636,
          "velocity": 0.6299212598425197,
          "duration": 0.3670250332031202
        },
        {
          "name": "E5",
          "midi": 76,
          "time": 74.91379691015636,
          "velocity": 0.7086614173228346,
          "duration": 0.3670250332031202
        },
        {
          "name": "F#1",
          "midi": 30,
          "time": 75.00575661914074,
          "velocity": 0.6535433070866141,
          "duration": 0.10850703124999939
        },
        {
          "name": "F#2",
          "midi": 42,
          "time": 75.00575661914074,
          "velocity": 0.7322834645669292,
          "duration": 0.10850703124999939
        },
        {
          "name": "F#1",
          "midi": 30,
          "time": 75.28109321093761,
          "velocity": 0.6377952755905512,
          "duration": 0.1076932285156289
        },
        {
          "name": "F#2",
          "midi": 42,
          "time": 75.28109321093761,
          "velocity": 0.7480314960629921,
          "duration": 0.1076932285156289
        },
        {
          "name": "A#3",
          "midi": 58,
          "time": 75.55670107031261,
          "velocity": 0.6692913385826772,
          "duration": 0.1180013964843738
        },
        {
          "name": "C#4",
          "midi": 61,
          "time": 75.55670107031261,
          "velocity": 0.6692913385826772,
          "duration": 0.18500448828125116
        },
        {
          "name": "A#4",
          "midi": 70,
          "time": 75.55670107031261,
          "velocity": 0.7795275590551181,
          "duration": 0.19314251562499862
        },
        {
          "name": "A#1",
          "midi": 34,
          "time": 75.55670107031261,
          "velocity": 0.6692913385826772,
          "duration": 0.1180013964843738
        },
        {
          "name": "A#2",
          "midi": 46,
          "time": 75.55670107031261,
          "velocity": 0.7795275590551181,
          "duration": 0.18500448828125116
        },
        {
          "name": "F4",
          "midi": 65,
          "time": 75.75011485351574,
          "velocity": 0.6929133858267716,
          "duration": 0.08300787890624406
        },
        {
          "name": "A#3",
          "midi": 58,
          "time": 75.84153202734386,
          "velocity": 0.6377952755905512,
          "duration": 0.10850703124999939
        },
        {
          "name": "C#4",
          "midi": 61,
          "time": 75.84153202734386,
          "velocity": 0.7480314960629921,
          "duration": 0.18310561523436775
        },
        {
          "name": "A#1",
          "midi": 34,
          "time": 75.84153202734386,
          "velocity": 0.6377952755905512,
          "duration": 0.10850703124999939
        },
        {
          "name": "A#2",
          "midi": 46,
          "time": 75.84153202734386,
          "velocity": 0.7165354330708661,
          "duration": 0.18310561523436775
        },
        {
          "name": "A#3",
          "midi": 58,
          "time": 76.02490891015636,
          "velocity": 0.6299212598425197,
          "duration": 0.08355041406250052
        },
        {
          "name": "C#4",
          "midi": 61,
          "time": 76.02490891015636,
          "velocity": 0.6299212598425197,
          "duration": 0.08355041406250052
        },
        {
          "name": "A#4",
          "midi": 70,
          "time": 76.02490891015636,
          "velocity": 0.7401574803149606,
          "duration": 0.09168844140624799
        },
        {
          "name": "F4",
          "midi": 65,
          "time": 76.11686861914073,
          "velocity": 0.7165354330708661,
          "duration": 0.17632392578124723
        },
        {
          "name": "A#1",
          "midi": 34,
          "time": 76.11686861914073,
          "velocity": 0.6535433070866141,
          "duration": 0.10850703124999939
        },
        {
          "name": "A#2",
          "midi": 46,
          "time": 76.11686861914073,
          "velocity": 0.7322834645669292,
          "duration": 0.10850703124999939
        },
        {
          "name": "A#3",
          "midi": 58,
          "time": 76.30160183984385,
          "velocity": 0.6299212598425197,
          "duration": 0.09033210351562104
        },
        {
          "name": "C#4",
          "midi": 61,
          "time": 76.30160183984385,
          "velocity": 0.7401574803149606,
          "duration": 0.09033210351562104
        },
        {
          "name": "A#3",
          "midi": 58,
          "time": 76.3922052109376,
          "velocity": 0.6377952755905512,
          "duration": 0.1076932285156289
        },
        {
          "name": "C#4",
          "midi": 61,
          "time": 76.3922052109376,
          "velocity": 0.6377952755905512,
          "duration": 0.1749675878906345
        },
        {
          "name": "A#4",
          "midi": 70,
          "time": 76.3922052109376,
          "velocity": 0.7480314960629921,
          "duration": 0.18310561523438196
        },
        {
          "name": "A#1",
          "midi": 34,
          "time": 76.3922052109376,
          "velocity": 0.6377952755905512,
          "duration": 0.1076932285156289
        },
        {
          "name": "A#2",
          "midi": 46,
          "time": 76.3922052109376,
          "velocity": 0.7480314960629921,
          "duration": 0.1749675878906345
        },
        {
          "name": "F4",
          "midi": 65,
          "time": 76.57558209375011,
          "velocity": 0.6929133858267716,
          "duration": 0.08273661132813004
        },
        {
          "name": "F#3",
          "midi": 54,
          "time": 76.66781307031262,
          "velocity": 0.6692913385826772,
          "duration": 0.1180013964843738
        },
        {
          "name": "C4",
          "midi": 60,
          "time": 76.66781307031262,
          "velocity": 0.6692913385826772,
          "duration": 0.19314251562499862
        },
        {
          "name": "E4",
          "midi": 64,
          "time": 76.66781307031262,
          "velocity": 0.7480314960629921,
          "duration": 0.19314251562499862
        },
        {
          "name": "F#1",
          "midi": 30,
          "time": 76.66781307031262,
          "velocity": 0.6692913385826772,
          "duration": 0.1180013964843738
        },
        {
          "name": "F#2",
          "midi": 42,
          "time": 76.66781307031262,
          "velocity": 0.7795275590551181,
          "duration": 0.19314251562499862
        },
        {
          "name": "F#3",
          "midi": 54,
          "time": 76.86122685351575,
          "velocity": 0.6299212598425197,
          "duration": 0.08300787890624406
        },
        {
          "name": "C4",
          "midi": 60,
          "time": 76.86122685351575,
          "velocity": 0.6299212598425197,
          "duration": 0.08300787890624406
        },
        {
          "name": "E4",
          "midi": 64,
          "time": 76.86122685351575,
          "velocity": 0.7086614173228346,
          "duration": 0.09114590624999153
        },
        {
          "name": "F#1",
          "midi": 30,
          "time": 76.95264402734387,
          "velocity": 0.6377952755905512,
          "duration": 0.10850703124999939
        },
        {
          "name": "F#2",
          "midi": 42,
          "time": 76.95264402734387,
          "velocity": 0.7165354330708661,
          "duration": 0.10850703124999939
        },
        {
          "name": "F#3",
          "midi": 54,
          "time": 77.13602091015636,
          "velocity": 0.6299212598425197,
          "duration": 0.2004667402343756
        },
        {
          "name": "C4",
          "midi": 60,
          "time": 77.13602091015636,
          "velocity": 0.6299212598425197,
          "duration": 0.26828363476562345
        },
        {
          "name": "E4",
          "midi": 64,
          "time": 77.13602091015636,
          "velocity": 0.7086614173228346,
          "duration": 0.2764216621093709
        },
        {
          "name": "F#1",
          "midi": 30,
          "time": 77.22798061914074,
          "velocity": 0.6535433070866141,
          "duration": 0.10850703124999939
        },
        {
          "name": "F#2",
          "midi": 42,
          "time": 77.22798061914074,
          "velocity": 0.7322834645669292,
          "duration": 0.17632392578124723
        },
        {
          "name": "A#3",
          "midi": 58,
          "time": 77.41271383984386,
          "velocity": 0.6929133858267716,
          "duration": 0.08219407617187358
        },
        {
          "name": "F#3",
          "midi": 54,
          "time": 77.50331721093761,
          "velocity": 0.6377952755905512,
          "duration": 0.1076932285156289
        },
        {
          "name": "C#4",
          "midi": 61,
          "time": 77.50331721093761,
          "velocity": 0.7480314960629921,
          "duration": 0.18310561523438196
        },
        {
          "name": "F#1",
          "midi": 30,
          "time": 77.50331721093761,
          "velocity": 0.6377952755905512,
          "duration": 0.1076932285156289
        },
        {
          "name": "F#2",
          "midi": 42,
          "time": 77.50331721093761,
          "velocity": 0.7480314960629921,
          "duration": 0.1749675878906345
        },
        {
          "name": "D4",
          "midi": 62,
          "time": 77.68669409375012,
          "velocity": 0.6929133858267716,
          "duration": 0.08273661132813004
        },
        {
          "name": "F3",
          "midi": 53,
          "time": 77.77892507031262,
          "velocity": 0.6692913385826772,
          "duration": 0.1180013964843738
        },
        {
          "name": "D#4",
          "midi": 63,
          "time": 77.77892507031262,
          "velocity": 0.7795275590551181,
          "duration": 0.19314251562499862
        },
        {
          "name": "F1",
          "midi": 29,
          "time": 77.77892507031262,
          "velocity": 0.6692913385826772,
          "duration": 0.1180013964843738
        },
        {
          "name": "F2",
          "midi": 41,
          "time": 77.77892507031262,
          "velocity": 0.7795275590551181,
          "duration": 0.18500448828125116
        },
        {
          "name": "E4",
          "midi": 64,
          "time": 77.97233885351575,
          "velocity": 0.6929133858267716,
          "duration": 0.08300787890624406
        },
        {
          "name": "F3",
          "midi": 53,
          "time": 78.06375602734387,
          "velocity": 0.6377952755905512,
          "duration": 0.10850703124999939
        },
        {
          "name": "D#4",
          "midi": 63,
          "time": 78.06375602734387,
          "velocity": 0.7480314960629921,
          "duration": 0.18310561523436775
        },
        {
          "name": "F1",
          "midi": 29,
          "time": 78.06375602734387,
          "velocity": 0.6377952755905512,
          "duration": 0.10850703124999939
        },
        {
          "name": "F2",
          "midi": 41,
          "time": 78.06375602734387,
          "velocity": 0.7480314960629921,
          "duration": 0.17496758789062028
        },
        {
          "name": "E4",
          "midi": 64,
          "time": 78.24713291015637,
          "velocity": 0.6929133858267716,
          "duration": 0.08355041406250052
        },
        {
          "name": "A3",
          "midi": 57,
          "time": 78.33909261914074,
          "velocity": 0.6535433070866141,
          "duration": 0.10850703124999939
        },
        {
          "name": "D#4",
          "midi": 63,
          "time": 78.33909261914074,
          "velocity": 0.7637795275590551,
          "duration": 0.1844619531249947
        },
        {
          "name": "A1",
          "midi": 33,
          "time": 78.33909261914074,
          "velocity": 0.6535433070866141,
          "duration": 0.10850703124999939
        },
        {
          "name": "A2",
          "midi": 45,
          "time": 78.33909261914074,
          "velocity": 0.7637795275590551,
          "duration": 0.17632392578124723
        },
        {
          "name": "F3",
          "midi": 53,
          "time": 78.52382583984387,
          "velocity": 0.6299212598425197,
          "duration": 0.08219407617187358
        },
        {
          "name": "C#4",
          "midi": 61,
          "time": 78.52382583984387,
          "velocity": 0.7401574803149606,
          "duration": 0.09033210351562104
        },
        {
          "name": "A1",
          "midi": 33,
          "time": 78.61442921093762,
          "velocity": 0.6377952755905512,
          "duration": 0.1076932285156289
        },
        {
          "name": "A2",
          "midi": 45,
          "time": 78.61442921093762,
          "velocity": 0.7480314960629921,
          "duration": 0.1076932285156289
        },
        {
          "name": "A#3",
          "midi": 58,
          "time": 78.79780609375013,
          "velocity": 0.6299212598425197,
          "duration": 0.21023237304687825
        },
        {
          "name": "F4",
          "midi": 65,
          "time": 78.79780609375013,
          "velocity": 0.6299212598425197,
          "duration": 1.201986638671869
        },
        {
          "name": "A#4",
          "midi": 70,
          "time": 78.79780609375013,
          "velocity": 0.7401574803149606,
          "duration": 1.201986638671869
        },
        {
          "name": "A#1",
          "midi": 34,
          "time": 78.89003707031263,
          "velocity": 0.6692913385826772,
          "duration": 0.1180013964843738
        },
        {
          "name": "A#2",
          "midi": 46,
          "time": 78.89003707031263,
          "velocity": 0.7795275590551181,
          "duration": 0.393337988281246
        },
        {
          "name": "A#1",
          "midi": 34,
          "time": 79.17486802734388,
          "velocity": 0.6377952755905512,
          "duration": 0.10850703124999939
        },
        {
          "name": "A#2",
          "midi": 46,
          "time": 79.17486802734388,
          "velocity": 0.7165354330708661,
          "duration": 0.3838436230468716
        },
        {
          "name": "A#1",
          "midi": 34,
          "time": 79.45020461914075,
          "velocity": 0.6535433070866141,
          "duration": 0.10850703124999939
        },
        {
          "name": "A#2",
          "midi": 46,
          "time": 79.45020461914075,
          "velocity": 0.7322834645669292,
          "duration": 0.3830298203125011
        },
        {
          "name": "A#1",
          "midi": 34,
          "time": 79.72554121093762,
          "velocity": 0.6377952755905512,
          "duration": 0.1076932285156289
        },
        {
          "name": "A#2",
          "midi": 46,
          "time": 79.72554121093762,
          "velocity": 0.7165354330708661,
          "duration": 0.2742515214843735
        },
        {
          "name": "A#3",
          "midi": 58,
          "time": 80.00114907031262,
          "velocity": 0.6692913385826772,
          "duration": 0.1180013964843738
        },
        {
          "name": "F4",
          "midi": 65,
          "time": 80.00114907031262,
          "velocity": 0.6692913385826772,
          "duration": 0.18500448828125116
        },
        {
          "name": "A#4",
          "midi": 70,
          "time": 80.00114907031262,
          "velocity": 0.7480314960629921,
          "duration": 0.19314251562499862
        },
        {
          "name": "A#1",
          "midi": 34,
          "time": 80.00114907031262,
          "velocity": 0.6692913385826772,
          "duration": 0.1180013964843738
        },
        {
          "name": "A#2",
          "midi": 46,
          "time": 80.00114907031262,
          "velocity": 0.7480314960629921,
          "duration": 0.18500448828125116
        },
        {
          "name": "A4",
          "midi": 69,
          "time": 80.19456285351575,
          "velocity": 0.6929133858267716,
          "duration": 0.08300787890624406
        },
        {
          "name": "F#4",
          "midi": 66,
          "time": 80.28598002734387,
          "velocity": 0.7007874015748031,
          "duration": 0.18310561523436775
        },
        {
          "name": "A#1",
          "midi": 34,
          "time": 80.28598002734387,
          "velocity": 0.6377952755905512,
          "duration": 0.10850703124999939
        },
        {
          "name": "A#2",
          "midi": 46,
          "time": 80.28598002734387,
          "velocity": 0.7480314960629921,
          "duration": 0.10850703124999939
        },
        {
          "name": "B3",
          "midi": 59,
          "time": 80.46935691015636,
          "velocity": 0.6299212598425197,
          "duration": 0.2004667402343756
        },
        {
          "name": "F#4",
          "midi": 66,
          "time": 80.46935691015636,
          "velocity": 0.6299212598425197,
          "duration": 0.26828363476562345
        },
        {
          "name": "B4",
          "midi": 71,
          "time": 80.46935691015636,
          "velocity": 0.7086614173228346,
          "duration": 0.2764216621093709
        },
        {
          "name": "B1",
          "midi": 35,
          "time": 80.56131661914074,
          "velocity": 0.6535433070866141,
          "duration": 0.10850703124999939
        },
        {
          "name": "B2",
          "midi": 47,
          "time": 80.56131661914074,
          "velocity": 0.7637795275590551,
          "duration": 0.17632392578124723
        },
        {
          "name": "C5",
          "midi": 72,
          "time": 80.74604983984386,
          "velocity": 0.6929133858267716,
          "duration": 0.08219407617187358
        },
        {
          "name": "D5",
          "midi": 74,
          "time": 80.83665321093761,
          "velocity": 0.7007874015748031,
          "duration": 0.1749675878906345
        },
        {
          "name": "B1",
          "midi": 35,
          "time": 80.83665321093761,
          "velocity": 0.6377952755905512,
          "duration": 0.1076932285156289
        },
        {
          "name": "B2",
          "midi": 47,
          "time": 80.83665321093761,
          "velocity": 0.7480314960629921,
          "duration": 0.1076932285156289
        },
        {
          "name": "F5",
          "midi": 77,
          "time": 81.02003009375012,
          "velocity": 0.6929133858267716,
          "duration": 0.08273661132813004
        },
        {
          "name": "C4",
          "midi": 60,
          "time": 81.11226107031263,
          "velocity": 0.6692913385826772,
          "duration": 0.1180013964843738
        },
        {
          "name": "D#4",
          "midi": 63,
          "time": 81.11226107031263,
          "velocity": 0.6692913385826772,
          "duration": 0.18500448828125116
        },
        {
          "name": "C5",
          "midi": 72,
          "time": 81.11226107031263,
          "velocity": 0.7795275590551181,
          "duration": 0.19314251562499862
        },
        {
          "name": "C2",
          "midi": 36,
          "time": 81.11226107031263,
          "velocity": 0.6692913385826772,
          "duration": 0.1180013964843738
        },
        {
          "name": "C3",
          "midi": 48,
          "time": 81.11226107031263,
          "velocity": 0.7795275590551181,
          "duration": 0.18500448828125116
        },
        {
          "name": "G4",
          "midi": 67,
          "time": 81.30567485351575,
          "velocity": 0.6929133858267716,
          "duration": 0.08300787890624406
        },
        {
          "name": "C4",
          "midi": 60,
          "time": 81.39709202734387,
          "velocity": 0.6377952755905512,
          "duration": 0.10850703124999939
        },
        {
          "name": "D#4",
          "midi": 63,
          "time": 81.39709202734387,
          "velocity": 0.7480314960629921,
          "duration": 0.18310561523436775
        },
        {
          "name": "C2",
          "midi": 36,
          "time": 81.39709202734387,
          "velocity": 0.6377952755905512,
          "duration": 0.10850703124999939
        },
        {
          "name": "C3",
          "midi": 48,
          "time": 81.39709202734387,
          "velocity": 0.7165354330708661,
          "duration": 0.18310561523436775
        },
        {
          "name": "C4",
          "midi": 60,
          "time": 81.58046891015637,
          "velocity": 0.6299212598425197,
          "duration": 0.08355041406250052
        },
        {
          "name": "D#4",
          "midi": 63,
          "time": 81.58046891015637,
          "velocity": 0.6299212598425197,
          "duration": 0.08355041406250052
        },
        {
          "name": "C5",
          "midi": 72,
          "time": 81.58046891015637,
          "velocity": 0.7401574803149606,
          "duration": 0.09168844140624799
        },
        {
          "name": "G4",
          "midi": 67,
          "time": 81.67242861914075,
          "velocity": 0.7165354330708661,
          "duration": 0.17632392578124723
        },
        {
          "name": "C2",
          "midi": 36,
          "time": 81.67242861914075,
          "velocity": 0.6535433070866141,
          "duration": 0.10850703124999939
        },
        {
          "name": "C3",
          "midi": 48,
          "time": 81.67242861914075,
          "velocity": 0.7322834645669292,
          "duration": 0.10850703124999939
        },
        {
          "name": "C4",
          "midi": 60,
          "time": 81.85716183984387,
          "velocity": 0.6299212598425197,
          "duration": 0.09033210351562104
        },
        {
          "name": "D#4",
          "midi": 63,
          "time": 81.85716183984387,
          "velocity": 0.7401574803149606,
          "duration": 0.09033210351562104
        },
        {
          "name": "C4",
          "midi": 60,
          "time": 81.94776521093762,
          "velocity": 0.6377952755905512,
          "duration": 0.1076932285156289
        },
        {
          "name": "D#4",
          "midi": 63,
          "time": 81.94776521093762,
          "velocity": 0.6377952755905512,
          "duration": 0.1749675878906345
        },
        {
          "name": "C5",
          "midi": 72,
          "time": 81.94776521093762,
          "velocity": 0.7480314960629921,
          "duration": 0.18310561523438196
        },
        {
          "name": "C2",
          "midi": 36,
          "time": 81.94776521093762,
          "velocity": 0.6377952755905512,
          "duration": 0.1076932285156289
        },
        {
          "name": "C3",
          "midi": 48,
          "time": 81.94776521093762,
          "velocity": 0.7480314960629921,
          "duration": 0.1749675878906345
        },
        {
          "name": "G4",
          "midi": 67,
          "time": 82.13114209375013,
          "velocity": 0.6929133858267716,
          "duration": 0.08273661132813004
        },
        {
          "name": "G#3",
          "midi": 56,
          "time": 82.22337307031263,
          "velocity": 0.6692913385826772,
          "duration": 0.1180013964843738
        },
        {
          "name": "D4",
          "midi": 62,
          "time": 82.22337307031263,
          "velocity": 0.6692913385826772,
          "duration": 0.19314251562499862
        },
        {
          "name": "F#4",
          "midi": 66,
          "time": 82.22337307031263,
          "velocity": 0.7480314960629921,
          "duration": 0.19314251562499862
        },
        {
          "name": "G#1",
          "midi": 32,
          "time": 82.22337307031263,
          "velocity": 0.6692913385826772,
          "duration": 0.1180013964843738
        },
        {
          "name": "G#2",
          "midi": 44,
          "time": 82.22337307031263,
          "velocity": 0.7795275590551181,
          "duration": 0.19314251562499862
        },
        {
          "name": "G#3",
          "midi": 56,
          "time": 82.41678685351576,
          "velocity": 0.6299212598425197,
          "duration": 0.08300787890624406
        },
        {
          "name": "D4",
          "midi": 62,
          "time": 82.41678685351576,
          "velocity": 0.6299212598425197,
          "duration": 0.08300787890624406
        },
        {
          "name": "F#4",
          "midi": 66,
          "time": 82.41678685351576,
          "velocity": 0.7086614173228346,
          "duration": 0.09114590624999153
        },
        {
          "name": "G#1",
          "midi": 32,
          "time": 82.50820402734388,
          "velocity": 0.6377952755905512,
          "duration": 0.10850703124999939
        },
        {
          "name": "G#2",
          "midi": 44,
          "time": 82.50820402734388,
          "velocity": 0.7165354330708661,
          "duration": 0.10850703124999939
        },
        {
          "name": "G#3",
          "midi": 56,
          "time": 82.69158091015638,
          "velocity": 0.6299212598425197,
          "duration": 0.2004667402343756
        },
        {
          "name": "D4",
          "midi": 62,
          "time": 82.69158091015638,
          "velocity": 0.6299212598425197,
          "duration": 0.3670250332031202
        },
        {
          "name": "F#4",
          "midi": 66,
          "time": 82.69158091015638,
          "velocity": 0.7086614173228346,
          "duration": 0.3670250332031202
        },
        {
          "name": "G#1",
          "midi": 32,
          "time": 82.78354061914075,
          "velocity": 0.6535433070866141,
          "duration": 0.10850703124999939
        },
        {
          "name": "G#2",
          "midi": 44,
          "time": 82.78354061914075,
          "velocity": 0.7322834645669292,
          "duration": 0.27506532421874397
        },
        {
          "name": "G#1",
          "midi": 32,
          "time": 83.05887721093762,
          "velocity": 0.6377952755905512,
          "duration": 0.1076932285156289
        },
        {
          "name": "G#2",
          "midi": 44,
          "time": 83.05887721093762,
          "velocity": 0.7480314960629921,
          "duration": 0.1076932285156289
        },
        {
          "name": "C4",
          "midi": 60,
          "time": 83.33448507031262,
          "velocity": 0.6692913385826772,
          "duration": 0.1180013964843738
        },
        {
          "name": "D#4",
          "midi": 63,
          "time": 83.33448507031262,
          "velocity": 0.6692913385826772,
          "duration": 0.18500448828125116
        },
        {
          "name": "C5",
          "midi": 72,
          "time": 83.33448507031262,
          "velocity": 0.7795275590551181,
          "duration": 0.19314251562499862
        },
        {
          "name": "C2",
          "midi": 36,
          "time": 83.33448507031262,
          "velocity": 0.6692913385826772,
          "duration": 0.1180013964843738
        },
        {
          "name": "C3",
          "midi": 48,
          "time": 83.33448507031262,
          "velocity": 0.7795275590551181,
          "duration": 0.18500448828125116
        },
        {
          "name": "G4",
          "midi": 67,
          "time": 83.52789885351575,
          "velocity": 0.6929133858267716,
          "duration": 0.08300787890624406
        },
        {
          "name": "C4",
          "midi": 60,
          "time": 83.61931602734387,
          "velocity": 0.6377952755905512,
          "duration": 0.10850703124999939
        },
        {
          "name": "D#4",
          "midi": 63,
          "time": 83.61931602734387,
          "velocity": 0.7480314960629921,
          "duration": 0.18310561523436775
        },
        {
          "name": "C2",
          "midi": 36,
          "time": 83.61931602734387,
          "velocity": 0.6377952755905512,
          "duration": 0.10850703124999939
        },
        {
          "name": "C3",
          "midi": 48,
          "time": 83.61931602734387,
          "velocity": 0.7165354330708661,
          "duration": 0.18310561523436775
        },
        {
          "name": "C4",
          "midi": 60,
          "time": 83.80269291015637,
          "velocity": 0.6299212598425197,
          "duration": 0.08355041406250052
        },
        {
          "name": "D#4",
          "midi": 63,
          "time": 83.80269291015637,
          "velocity": 0.6299212598425197,
          "duration": 0.08355041406250052
        },
        {
          "name": "C5",
          "midi": 72,
          "time": 83.80269291015637,
          "velocity": 0.7401574803149606,
          "duration": 0.09168844140624799
        },
        {
          "name": "G4",
          "midi": 67,
          "time": 83.89465261914074,
          "velocity": 0.7165354330708661,
          "duration": 0.17632392578124723
        },
        {
          "name": "C2",
          "midi": 36,
          "time": 83.89465261914074,
          "velocity": 0.6535433070866141,
          "duration": 0.10850703124999939
        },
        {
          "name": "C3",
          "midi": 48,
          "time": 83.89465261914074,
          "velocity": 0.7322834645669292,
          "duration": 0.10850703124999939
        },
        {
          "name": "C4",
          "midi": 60,
          "time": 84.07938583984387,
          "velocity": 0.6299212598425197,
          "duration": 0.09033210351562104
        },
        {
          "name": "D#4",
          "midi": 63,
          "time": 84.07938583984387,
          "velocity": 0.7401574803149606,
          "duration": 0.09033210351562104
        },
        {
          "name": "C4",
          "midi": 60,
          "time": 84.16998921093762,
          "velocity": 0.6377952755905512,
          "duration": 0.1076932285156289
        },
        {
          "name": "D#4",
          "midi": 63,
          "time": 84.16998921093762,
          "velocity": 0.6377952755905512,
          "duration": 0.1749675878906345
        },
        {
          "name": "C5",
          "midi": 72,
          "time": 84.16998921093762,
          "velocity": 0.7480314960629921,
          "duration": 0.18310561523438196
        },
        {
          "name": "C2",
          "midi": 36,
          "time": 84.16998921093762,
          "velocity": 0.6377952755905512,
          "duration": 0.1076932285156289
        },
        {
          "name": "C3",
          "midi": 48,
          "time": 84.16998921093762,
          "velocity": 0.7480314960629921,
          "duration": 0.1749675878906345
        },
        {
          "name": "G4",
          "midi": 67,
          "time": 84.35336609375013,
          "velocity": 0.6929133858267716,
          "duration": 0.08273661132813004
        },
        {
          "name": "G#4",
          "midi": 68,
          "time": 84.44559707031263,
          "velocity": 0.6692913385826772,
          "duration": 0.19314251562499862
        },
        {
          "name": "D5",
          "midi": 74,
          "time": 84.44559707031263,
          "velocity": 0.6692913385826772,
          "duration": 0.19314251562499862
        },
        {
          "name": "F#5",
          "midi": 78,
          "time": 84.44559707031263,
          "velocity": 0.7480314960629921,
          "duration": 0.19314251562499862
        },
        {
          "name": "G#1",
          "midi": 32,
          "time": 84.44559707031263,
          "velocity": 0.6692913385826772,
          "duration": 0.1180013964843738
        },
        {
          "name": "G#2",
          "midi": 44,
          "time": 84.44559707031263,
          "velocity": 0.7795275590551181,
          "duration": 0.1180013964843738
        },
        {
          "name": "G#4",
          "midi": 68,
          "time": 84.63901085351576,
          "velocity": 0.6299212598425197,
          "duration": 0.08300787890624406
        },
        {
          "name": "D5",
          "midi": 74,
          "time": 84.63901085351576,
          "velocity": 0.6299212598425197,
          "duration": 0.08300787890624406
        },
        {
          "name": "F#5",
          "midi": 78,
          "time": 84.63901085351576,
          "velocity": 0.7086614173228346,
          "duration": 0.09114590624999153
        },
        {
          "name": "G#1",
          "midi": 32,
          "time": 84.73042802734388,
          "velocity": 0.6377952755905512,
          "duration": 0.10850703124999939
        },
        {
          "name": "G#2",
          "midi": 44,
          "time": 84.73042802734388,
          "velocity": 0.7165354330708661,
          "duration": 0.10850703124999939
        },
        {
          "name": "G#4",
          "midi": 68,
          "time": 84.91380491015637,
          "velocity": 0.6299212598425197,
          "duration": 0.3670250332031202
        },
        {
          "name": "D5",
          "midi": 74,
          "time": 84.91380491015637,
          "velocity": 0.6299212598425197,
          "duration": 0.3670250332031202
        },
        {
          "name": "F#5",
          "midi": 78,
          "time": 84.91380491015637,
          "velocity": 0.7086614173228346,
          "duration": 0.3670250332031202
        },
        {
          "name": "G#1",
          "midi": 32,
          "time": 85.00576461914075,
          "velocity": 0.6535433070866141,
          "duration": 0.10850703124999939
        },
        {
          "name": "G#2",
          "midi": 44,
          "time": 85.00576461914075,
          "velocity": 0.7322834645669292,
          "duration": 0.10850703124999939
        },
        {
          "name": "G#1",
          "midi": 32,
          "time": 85.28110121093762,
          "velocity": 0.6377952755905512,
          "duration": 0.1076932285156289
        },
        {
          "name": "G#2",
          "midi": 44,
          "time": 85.28110121093762,
          "velocity": 0.7480314960629921,
          "duration": 0.1076932285156289
        },
        {
          "name": "C4",
          "midi": 60,
          "time": 85.55670907031262,
          "velocity": 0.6692913385826772,
          "duration": 0.1180013964843738
        },
        {
          "name": "D#4",
          "midi": 63,
          "time": 85.55670907031262,
          "velocity": 0.6692913385826772,
          "duration": 0.18500448828125116
        },
        {
          "name": "C5",
          "midi": 72,
          "time": 85.55670907031262,
          "velocity": 0.7795275590551181,
          "duration": 0.19314251562499862
        },
        {
          "name": "C2",
          "midi": 36,
          "time": 85.55670907031262,
          "velocity": 0.6692913385826772,
          "duration": 0.1180013964843738
        },
        {
          "name": "C3",
          "midi": 48,
          "time": 85.55670907031262,
          "velocity": 0.7795275590551181,
          "duration": 0.18500448828125116
        },
        {
          "name": "G4",
          "midi": 67,
          "time": 85.75012285351575,
          "velocity": 0.6929133858267716,
          "duration": 0.08300787890624406
        },
        {
          "name": "C4",
          "midi": 60,
          "time": 85.84154002734387,
          "velocity": 0.6377952755905512,
          "duration": 0.10850703124999939
        },
        {
          "name": "D#4",
          "midi": 63,
          "time": 85.84154002734387,
          "velocity": 0.7480314960629921,
          "duration": 0.18310561523436775
        },
        {
          "name": "C2",
          "midi": 36,
          "time": 85.84154002734387,
          "velocity": 0.6377952755905512,
          "duration": 0.10850703124999939
        },
        {
          "name": "C3",
          "midi": 48,
          "time": 85.84154002734387,
          "velocity": 0.7165354330708661,
          "duration": 0.18310561523436775
        },
        {
          "name": "C4",
          "midi": 60,
          "time": 86.02491691015636,
          "velocity": 0.6299212598425197,
          "duration": 0.08355041406250052
        },
        {
          "name": "D#4",
          "midi": 63,
          "time": 86.02491691015636,
          "velocity": 0.6299212598425197,
          "duration": 0.08355041406250052
        },
        {
          "name": "C5",
          "midi": 72,
          "time": 86.02491691015636,
          "velocity": 0.7401574803149606,
          "duration": 0.09168844140624799
        },
        {
          "name": "G4",
          "midi": 67,
          "time": 86.11687661914074,
          "velocity": 0.7165354330708661,
          "duration": 0.17632392578124723
        },
        {
          "name": "C2",
          "midi": 36,
          "time": 86.11687661914074,
          "velocity": 0.6535433070866141,
          "duration": 0.10850703124999939
        },
        {
          "name": "C3",
          "midi": 48,
          "time": 86.11687661914074,
          "velocity": 0.7322834645669292,
          "duration": 0.10850703124999939
        },
        {
          "name": "C4",
          "midi": 60,
          "time": 86.30160983984386,
          "velocity": 0.6299212598425197,
          "duration": 0.09033210351562104
        },
        {
          "name": "D#4",
          "midi": 63,
          "time": 86.30160983984386,
          "velocity": 0.7401574803149606,
          "duration": 0.09033210351562104
        },
        {
          "name": "C4",
          "midi": 60,
          "time": 86.39221321093761,
          "velocity": 0.6377952755905512,
          "duration": 0.1076932285156289
        },
        {
          "name": "D#4",
          "midi": 63,
          "time": 86.39221321093761,
          "velocity": 0.6377952755905512,
          "duration": 0.1749675878906345
        },
        {
          "name": "C5",
          "midi": 72,
          "time": 86.39221321093761,
          "velocity": 0.7480314960629921,
          "duration": 0.18310561523438196
        },
        {
          "name": "C2",
          "midi": 36,
          "time": 86.39221321093761,
          "velocity": 0.6377952755905512,
          "duration": 0.1076932285156289
        },
        {
          "name": "C3",
          "midi": 48,
          "time": 86.39221321093761,
          "velocity": 0.7480314960629921,
          "duration": 0.1749675878906345
        },
        {
          "name": "G4",
          "midi": 67,
          "time": 86.57559009375012,
          "velocity": 0.6929133858267716,
          "duration": 0.08273661132813004
        },
        {
          "name": "G#3",
          "midi": 56,
          "time": 86.66782107031263,
          "velocity": 0.6692913385826772,
          "duration": 0.1180013964843738
        },
        {
          "name": "D4",
          "midi": 62,
          "time": 86.66782107031263,
          "velocity": 0.6692913385826772,
          "duration": 0.19314251562499862
        },
        {
          "name": "F#4",
          "midi": 66,
          "time": 86.66782107031263,
          "velocity": 0.7480314960629921,
          "duration": 0.19314251562499862
        },
        {
          "name": "G#1",
          "midi": 32,
          "time": 86.66782107031263,
          "velocity": 0.6692913385826772,
          "duration": 0.1180013964843738
        },
        {
          "name": "G#2",
          "midi": 44,
          "time": 86.66782107031263,
          "velocity": 0.7795275590551181,
          "duration": 0.19314251562499862
        },
        {
          "name": "G#3",
          "midi": 56,
          "time": 86.86123485351575,
          "velocity": 0.6299212598425197,
          "duration": 0.08300787890624406
        },
        {
          "name": "D4",
          "midi": 62,
          "time": 86.86123485351575,
          "velocity": 0.6299212598425197,
          "duration": 0.08300787890624406
        },
        {
          "name": "F#4",
          "midi": 66,
          "time": 86.86123485351575,
          "velocity": 0.7086614173228346,
          "duration": 0.09114590624999153
        },
        {
          "name": "G#1",
          "midi": 32,
          "time": 86.95265202734387,
          "velocity": 0.6377952755905512,
          "duration": 0.10850703124999939
        },
        {
          "name": "G#2",
          "midi": 44,
          "time": 86.95265202734387,
          "velocity": 0.7165354330708661,
          "duration": 0.10850703124999939
        },
        {
          "name": "G#3",
          "midi": 56,
          "time": 87.13602891015637,
          "velocity": 0.6299212598425197,
          "duration": 0.2004667402343756
        },
        {
          "name": "D4",
          "midi": 62,
          "time": 87.13602891015637,
          "velocity": 0.6299212598425197,
          "duration": 0.26828363476562345
        },
        {
          "name": "F#4",
          "midi": 66,
          "time": 87.13602891015637,
          "velocity": 0.7086614173228346,
          "duration": 0.2764216621093709
        },
        {
          "name": "G#1",
          "midi": 32,
          "time": 87.22798861914075,
          "velocity": 0.6535433070866141,
          "duration": 0.10850703124999939
        },
        {
          "name": "G#2",
          "midi": 44,
          "time": 87.22798861914075,
          "velocity": 0.7322834645669292,
          "duration": 0.17632392578124723
        },
        {
          "name": "C4",
          "midi": 60,
          "time": 87.41272183984387,
          "velocity": 0.6929133858267716,
          "duration": 0.08219407617187358
        },
        {
          "name": "G#3",
          "midi": 56,
          "time": 87.50332521093762,
          "velocity": 0.6377952755905512,
          "duration": 0.1076932285156289
        },
        {
          "name": "D#4",
          "midi": 63,
          "time": 87.50332521093762,
          "velocity": 0.7480314960629921,
          "duration": 0.18310561523438196
        },
        {
          "name": "G#1",
          "midi": 32,
          "time": 87.50332521093762,
          "velocity": 0.6377952755905512,
          "duration": 0.1076932285156289
        },
        {
          "name": "G#2",
          "midi": 44,
          "time": 87.50332521093762,
          "velocity": 0.7480314960629921,
          "duration": 0.1749675878906345
        },
        {
          "name": "E4",
          "midi": 64,
          "time": 87.68670209375013,
          "velocity": 0.6929133858267716,
          "duration": 0.08273661132813004
        },
        {
          "name": "G3",
          "midi": 55,
          "time": 87.77893307031263,
          "velocity": 0.6692913385826772,
          "duration": 0.1180013964843738
        },
        {
          "name": "F4",
          "midi": 65,
          "time": 87.77893307031263,
          "velocity": 0.7795275590551181,
          "duration": 0.19314251562499862
        },
        {
          "name": "G1",
          "midi": 31,
          "time": 87.77893307031263,
          "velocity": 0.6692913385826772,
          "duration": 0.1180013964843738
        },
        {
          "name": "G2",
          "midi": 43,
          "time": 87.77893307031263,
          "velocity": 0.7795275590551181,
          "duration": 0.18500448828125116
        },
        {
          "name": "F#4",
          "midi": 66,
          "time": 87.97234685351576,
          "velocity": 0.6929133858267716,
          "duration": 0.08300787890624406
        },
        {
          "name": "G3",
          "midi": 55,
          "time": 88.06376402734388,
          "velocity": 0.6377952755905512,
          "duration": 0.10850703124999939
        },
        {
          "name": "F4",
          "midi": 65,
          "time": 88.06376402734388,
          "velocity": 0.7480314960629921,
          "duration": 0.18310561523436775
        },
        {
          "name": "G1",
          "midi": 31,
          "time": 88.06376402734388,
          "velocity": 0.6377952755905512,
          "duration": 0.10850703124999939
        },
        {
          "name": "G2",
          "midi": 43,
          "time": 88.06376402734388,
          "velocity": 0.7480314960629921,
          "duration": 0.17496758789062028
        },
        {
          "name": "F#4",
          "midi": 66,
          "time": 88.24714091015638,
          "velocity": 0.6929133858267716,
          "duration": 0.08355041406250052
        },
        {
          "name": "B3",
          "midi": 59,
          "time": 88.33910061914075,
          "velocity": 0.6535433070866141,
          "duration": 0.10850703124999939
        },
        {
          "name": "F4",
          "midi": 65,
          "time": 88.33910061914075,
          "velocity": 0.7637795275590551,
          "duration": 0.1844619531249947
        },
        {
          "name": "B1",
          "midi": 35,
          "time": 88.33910061914075,
          "velocity": 0.6535433070866141,
          "duration": 0.10850703124999939
        },
        {
          "name": "B2",
          "midi": 47,
          "time": 88.33910061914075,
          "velocity": 0.7637795275590551,
          "duration": 0.17632392578124723
        },
        {
          "name": "G3",
          "midi": 55,
          "time": 88.52383383984387,
          "velocity": 0.6299212598425197,
          "duration": 0.08219407617187358
        },
        {
          "name": "D#4",
          "midi": 63,
          "time": 88.52383383984387,
          "velocity": 0.7401574803149606,
          "duration": 0.09033210351562104
        },
        {
          "name": "B1",
          "midi": 35,
          "time": 88.61443721093762,
          "velocity": 0.6377952755905512,
          "duration": 0.1076932285156289
        },
        {
          "name": "B2",
          "midi": 47,
          "time": 88.61443721093762,
          "velocity": 0.7480314960629921,
          "duration": 0.1076932285156289
        },
        {
          "name": "D#3",
          "midi": 51,
          "time": 88.79781409375013,
          "velocity": 0.7165354330708661,
          "duration": 0.652127257812495
        },
        {
          "name": "C4",
          "midi": 60,
          "time": 88.79781409375013,
          "velocity": 0.7165354330708661,
          "duration": 0.21023237304687825
        },
        {
          "name": "D#4",
          "midi": 63,
          "time": 88.79781409375013,
          "velocity": 0.6771653543307087,
          "duration": 0.652127257812495
        },
        {
          "name": "C2",
          "midi": 36,
          "time": 88.89004507031264,
          "velocity": 0.6692913385826772,
          "duration": 0.1180013964843738
        },
        {
          "name": "C3",
          "midi": 48,
          "time": 88.89004507031264,
          "velocity": 0.7795275590551181,
          "duration": 0.393337988281246
        },
        {
          "name": "C2",
          "midi": 36,
          "time": 89.17487602734388,
          "velocity": 0.6377952755905512,
          "duration": 0.10850703124999939
        },
        {
          "name": "C3",
          "midi": 48,
          "time": 89.17487602734388,
          "velocity": 0.7165354330708661,
          "duration": 0.27506532421874397
        },
        {
          "name": "C4",
          "midi": 60,
          "time": 89.45021261914076,
          "velocity": 0.6535433070866141,
          "duration": 0.10850703124999939
        },
        {
          "name": "C5",
          "midi": 72,
          "time": 89.45021261914076,
          "velocity": 0.7637795275590551,
          "duration": 0.1844619531249947
        },
        {
          "name": "C2",
          "midi": 36,
          "time": 89.45021261914076,
          "velocity": 0.6535433070866141,
          "duration": 0.10850703124999939
        },
        {
          "name": "C3",
          "midi": 48,
          "time": 89.45021261914076,
          "velocity": 0.7322834645669292,
          "duration": 0.17632392578124723
        },
        {
          "name": "D4",
          "midi": 62,
          "time": 89.63494583984388,
          "velocity": 0.6299212598425197,
          "duration": 0.08219407617187358
        },
        {
          "name": "D5",
          "midi": 74,
          "time": 89.63494583984388,
          "velocity": 0.7401574803149606,
          "duration": 0.09033210351562104
        },
        {
          "name": "D#4",
          "midi": 63,
          "time": 89.72554921093763,
          "velocity": 0.6377952755905512,
          "duration": 0.1749675878906345
        },
        {
          "name": "D#5",
          "midi": 75,
          "time": 89.72554921093763,
          "velocity": 0.7480314960629921,
          "duration": 0.18310561523438196
        },
        {
          "name": "C2",
          "midi": 36,
          "time": 89.72554921093763,
          "velocity": 0.6377952755905512,
          "duration": 0.1076932285156289
        },
        {
          "name": "C3",
          "midi": 48,
          "time": 89.72554921093763,
          "velocity": 0.7480314960629921,
          "duration": 0.1076932285156289
        },
        {
          "name": "E4",
          "midi": 64,
          "time": 89.90892609375014,
          "velocity": 0.6299212598425197,
          "duration": 0.08273661132813004
        },
        {
          "name": "E5",
          "midi": 76,
          "time": 89.90892609375014,
          "velocity": 0.7401574803149606,
          "duration": 0.0908746386718775
        },
        {
          "name": "F4",
          "midi": 65,
          "time": 90.00115707031264,
          "velocity": 0.6692913385826772,
          "duration": 0.46793657226561436
        },
        {
          "name": "F5",
          "midi": 77,
          "time": 90.00115707031264,
          "velocity": 0.7795275590551181,
          "duration": 0.46793657226561436
        },
        {
          "name": "F2",
          "midi": 41,
          "time": 90.00115707031264,
          "velocity": 0.6692913385826772,
          "duration": 0.1180013964843738
        },
        {
          "name": "F3",
          "midi": 53,
          "time": 90.00115707031264,
          "velocity": 0.7795275590551181,
          "duration": 0.1180013964843738
        },
        {
          "name": "F2",
          "midi": 41,
          "time": 90.28598802734389,
          "velocity": 0.6377952755905512,
          "duration": 0.10850703124999939
        },
        {
          "name": "F3",
          "midi": 53,
          "time": 90.28598802734389,
          "velocity": 0.7165354330708661,
          "duration": 0.10850703124999939
        },
        {
          "name": "G#4",
          "midi": 68,
          "time": 90.46936491015639,
          "velocity": 0.6299212598425197,
          "duration": 0.3670250332031202
        },
        {
          "name": "G#5",
          "midi": 80,
          "time": 90.46936491015639,
          "velocity": 0.7401574803149606,
          "duration": 0.3670250332031202
        },
        {
          "name": "F2",
          "midi": 41,
          "time": 90.56132461914076,
          "velocity": 0.6535433070866141,
          "duration": 0.10850703124999939
        },
        {
          "name": "F3",
          "midi": 53,
          "time": 90.56132461914076,
          "velocity": 0.7322834645669292,
          "duration": 0.10850703124999939
        },
        {
          "name": "C5",
          "midi": 72,
          "time": 90.83666121093763,
          "velocity": 0.6377952755905512,
          "duration": 0.2742515214843735
        },
        {
          "name": "C6",
          "midi": 84,
          "time": 90.83666121093763,
          "velocity": 0.7480314960629921,
          "duration": 0.2742515214843735
        },
        {
          "name": "F2",
          "midi": 41,
          "time": 90.83666121093763,
          "velocity": 0.6377952755905512,
          "duration": 0.1076932285156289
        },
        {
          "name": "F3",
          "midi": 53,
          "time": 90.83666121093763,
          "velocity": 0.7480314960629921,
          "duration": 0.1076932285156289
        },
        {
          "name": "D#5",
          "midi": 75,
          "time": 91.11226907031264,
          "velocity": 0.6692913385826772,
          "duration": 0.18500448828125116
        },
        {
          "name": "D#6",
          "midi": 87,
          "time": 91.11226907031264,
          "velocity": 0.7795275590551181,
          "duration": 0.19314251562499862
        },
        {
          "name": "C2",
          "midi": 36,
          "time": 91.11226907031264,
          "velocity": 0.6535433070866141,
          "duration": 0.1180013964843738
        },
        {
          "name": "C3",
          "midi": 48,
          "time": 91.11226907031264,
          "velocity": 0.7795275590551181,
          "duration": 0.1180013964843738
        },
        {
          "name": "D5",
          "midi": 74,
          "time": 91.30568285351576,
          "velocity": 0.6299212598425197,
          "duration": 0.2745227890624875
        },
        {
          "name": "D6",
          "midi": 86,
          "time": 91.30568285351576,
          "velocity": 0.7401574803149606,
          "duration": 0.2745227890624875
        },
        {
          "name": "C2",
          "midi": 36,
          "time": 91.39710002734388,
          "velocity": 0.6220472440944882,
          "duration": 0.10850703124999939
        },
        {
          "name": "C3",
          "midi": 48,
          "time": 91.39710002734388,
          "velocity": 0.7165354330708661,
          "duration": 0.10850703124999939
        },
        {
          "name": "C5",
          "midi": 72,
          "time": 91.58047691015638,
          "velocity": 0.6299212598425197,
          "duration": 0.3670250332031202
        },
        {
          "name": "C6",
          "midi": 84,
          "time": 91.58047691015638,
          "velocity": 0.7401574803149606,
          "duration": 0.3670250332031202
        },
        {
          "name": "C2",
          "midi": 36,
          "time": 91.67243661914075,
          "velocity": 0.6377952755905512,
          "duration": 0.10850703124999939
        },
        {
          "name": "C3",
          "midi": 48,
          "time": 91.67243661914075,
          "velocity": 0.7322834645669292,
          "duration": 0.10850703124999939
        },
        {
          "name": "C2",
          "midi": 36,
          "time": 91.94777321093763,
          "velocity": 0.6220472440944882,
          "duration": 0.1076932285156289
        },
        {
          "name": "C3",
          "midi": 48,
          "time": 91.94777321093763,
          "velocity": 0.7480314960629921,
          "duration": 0.1076932285156289
        },
        {
          "name": "B4",
          "midi": 71,
          "time": 92.22338107031263,
          "velocity": 0.6692913385826772,
          "duration": 0.18500448828125116
        },
        {
          "name": "B5",
          "midi": 83,
          "time": 92.22338107031263,
          "velocity": 0.7795275590551181,
          "duration": 0.19314251562499862
        },
        {
          "name": "G1",
          "midi": 31,
          "time": 92.22338107031263,
          "velocity": 0.6692913385826772,
          "duration": 0.1180013964843738
        },
        {
          "name": "G2",
          "midi": 43,
          "time": 92.22338107031263,
          "velocity": 0.7795275590551181,
          "duration": 0.1180013964843738
        },
        {
          "name": "G#4",
          "midi": 68,
          "time": 92.41679485351575,
          "velocity": 0.6299212598425197,
          "duration": 0.08300787890624406
        },
        {
          "name": "G#5",
          "midi": 80,
          "time": 92.41679485351575,
          "velocity": 0.7401574803149606,
          "duration": 0.09114590624999153
        },
        {
          "name": "G4",
          "midi": 67,
          "time": 92.50821202734387,
          "velocity": 0.6377952755905512,
          "duration": 0.17496758789062028
        },
        {
          "name": "G5",
          "midi": 79,
          "time": 92.50821202734387,
          "velocity": 0.7480314960629921,
          "duration": 0.18310561523436775
        },
        {
          "name": "G1",
          "midi": 31,
          "time": 92.50821202734387,
          "velocity": 0.6377952755905512,
          "duration": 0.10850703124999939
        },
        {
          "name": "G2",
          "midi": 43,
          "time": 92.50821202734387,
          "velocity": 0.7165354330708661,
          "duration": 0.10850703124999939
        },
        {
          "name": "D4",
          "midi": 62,
          "time": 92.69158891015637,
          "velocity": 0.6299212598425197,
          "duration": 0.26828363476562345
        },
        {
          "name": "D5",
          "midi": 74,
          "time": 92.69158891015637,
          "velocity": 0.7401574803149606,
          "duration": 0.2764216621093709
        },
        {
          "name": "G1",
          "midi": 31,
          "time": 92.78354861914075,
          "velocity": 0.6535433070866141,
          "duration": 0.10850703124999939
        },
        {
          "name": "G2",
          "midi": 43,
          "time": 92.78354861914075,
          "velocity": 0.7322834645669292,
          "duration": 0.10850703124999939
        },
        {
          "name": "F4",
          "midi": 65,
          "time": 92.96828183984387,
          "velocity": 0.6299212598425197,
          "duration": 0.27370898632813123
        },
        {
          "name": "F5",
          "midi": 77,
          "time": 92.96828183984387,
          "velocity": 0.7401574803149606,
          "duration": 0.27370898632813123
        },
        {
          "name": "G1",
          "midi": 31,
          "time": 93.05888521093762,
          "velocity": 0.6377952755905512,
          "duration": 0.1076932285156289
        },
        {
          "name": "G2",
          "midi": 43,
          "time": 93.05888521093762,
          "velocity": 0.7480314960629921,
          "duration": 0.1076932285156289
        },
        {
          "name": "D#4",
          "midi": 63,
          "time": 93.24226209375013,
          "velocity": 0.6299212598425197,
          "duration": 0.08273661132813004
        },
        {
          "name": "D#5",
          "midi": 75,
          "time": 93.24226209375013,
          "velocity": 0.7401574803149606,
          "duration": 0.0908746386718775
        },
        {
          "name": "C4",
          "midi": 60,
          "time": 93.33449307031263,
          "velocity": 0.6692913385826772,
          "duration": 0.2845596894531184
        },
        {
          "name": "C5",
          "midi": 72,
          "time": 93.33449307031263,
          "velocity": 0.7795275590551181,
          "duration": 0.2845596894531184
        },
        {
          "name": "C2",
          "midi": 36,
          "time": 93.33449307031263,
          "velocity": 0.6535433070866141,
          "duration": 0.1180013964843738
        },
        {
          "name": "C3",
          "midi": 48,
          "time": 93.33449307031263,
          "velocity": 0.7795275590551181,
          "duration": 0.1180013964843738
        },
        {
          "name": "C4",
          "midi": 60,
          "time": 93.61932402734388,
          "velocity": 0.6377952755905512,
          "duration": 0.17496758789062028
        },
        {
          "name": "C5",
          "midi": 72,
          "time": 93.61932402734388,
          "velocity": 0.7480314960629921,
          "duration": 0.18310561523436775
        },
        {
          "name": "C2",
          "midi": 36,
          "time": 93.61932402734388,
          "velocity": 0.6220472440944882,
          "duration": 0.10850703124999939
        },
        {
          "name": "C3",
          "midi": 48,
          "time": 93.61932402734388,
          "velocity": 0.7165354330708661,
          "duration": 0.10850703124999939
        },
        {
          "name": "D#4",
          "midi": 63,
          "time": 93.80270091015637,
          "velocity": 0.6299212598425197,
          "duration": 0.26828363476562345
        },
        {
          "name": "D#5",
          "midi": 75,
          "time": 93.80270091015637,
          "velocity": 0.7401574803149606,
          "duration": 0.2764216621093709
        },
        {
          "name": "C2",
          "midi": 36,
          "time": 93.89466061914075,
          "velocity": 0.6377952755905512,
          "duration": 0.10850703124999939
        },
        {
          "name": "C3",
          "midi": 48,
          "time": 93.89466061914075,
          "velocity": 0.7322834645669292,
          "duration": 0.10850703124999939
        },
        {
          "name": "D4",
          "midi": 62,
          "time": 94.07939383984387,
          "velocity": 0.6299212598425197,
          "duration": 0.08219407617187358
        },
        {
          "name": "D5",
          "midi": 74,
          "time": 94.07939383984387,
          "velocity": 0.7401574803149606,
          "duration": 0.09033210351562104
        },
        {
          "name": "D#4",
          "midi": 63,
          "time": 94.16999721093762,
          "velocity": 0.6377952755905512,
          "duration": 0.1749675878906345
        },
        {
          "name": "D#5",
          "midi": 75,
          "time": 94.16999721093762,
          "velocity": 0.7480314960629921,
          "duration": 0.18310561523438196
        },
        {
          "name": "C2",
          "midi": 36,
          "time": 94.16999721093762,
          "velocity": 0.6220472440944882,
          "duration": 0.1076932285156289
        },
        {
          "name": "C3",
          "midi": 48,
          "time": 94.16999721093762,
          "velocity": 0.7480314960629921,
          "duration": 0.1076932285156289
        },
        {
          "name": "E4",
          "midi": 64,
          "time": 94.35337409375013,
          "velocity": 0.6299212598425197,
          "duration": 0.08273661132813004
        },
        {
          "name": "E5",
          "midi": 76,
          "time": 94.35337409375013,
          "velocity": 0.7401574803149606,
          "duration": 0.0908746386718775
        },
        {
          "name": "F4",
          "midi": 65,
          "time": 94.44560507031264,
          "velocity": 0.6692913385826772,
          "duration": 0.46793657226561436
        },
        {
          "name": "F5",
          "midi": 77,
          "time": 94.44560507031264,
          "velocity": 0.7795275590551181,
          "duration": 0.46793657226561436
        },
        {
          "name": "F2",
          "midi": 41,
          "time": 94.44560507031264,
          "velocity": 0.6692913385826772,
          "duration": 0.1180013964843738
        },
        {
          "name": "F3",
          "midi": 53,
          "time": 94.44560507031264,
          "velocity": 0.7795275590551181,
          "duration": 0.1180013964843738
        },
        {
          "name": "F2",
          "midi": 41,
          "time": 94.73043602734388,
          "velocity": 0.6377952755905512,
          "duration": 0.10850703124999939
        },
        {
          "name": "F3",
          "midi": 53,
          "time": 94.73043602734388,
          "velocity": 0.7165354330708661,
          "duration": 0.10850703124999939
        },
        {
          "name": "G#4",
          "midi": 68,
          "time": 94.91381291015638,
          "velocity": 0.6299212598425197,
          "duration": 0.3670250332031202
        },
        {
          "name": "G#5",
          "midi": 80,
          "time": 94.91381291015638,
          "velocity": 0.7401574803149606,
          "duration": 0.3670250332031202
        },
        {
          "name": "F2",
          "midi": 41,
          "time": 95.00577261914076,
          "velocity": 0.6535433070866141,
          "duration": 0.10850703124999939
        },
        {
          "name": "F3",
          "midi": 53,
          "time": 95.00577261914076,
          "velocity": 0.7322834645669292,
          "duration": 0.10850703124999939
        },
        {
          "name": "C5",
          "midi": 72,
          "time": 95.28110921093763,
          "velocity": 0.6377952755905512,
          "duration": 0.2742515214843735
        },
        {
          "name": "C6",
          "midi": 84,
          "time": 95.28110921093763,
          "velocity": 0.7480314960629921,
          "duration": 0.2742515214843735
        },
        {
          "name": "F2",
          "midi": 41,
          "time": 95.28110921093763,
          "velocity": 0.6377952755905512,
          "duration": 0.1076932285156289
        },
        {
          "name": "F3",
          "midi": 53,
          "time": 95.28110921093763,
          "velocity": 0.7480314960629921,
          "duration": 0.1076932285156289
        },
        {
          "name": "D#5",
          "midi": 75,
          "time": 95.55671707031263,
          "velocity": 0.6692913385826772,
          "duration": 0.18500448828125116
        },
        {
          "name": "D#6",
          "midi": 87,
          "time": 95.55671707031263,
          "velocity": 0.7795275590551181,
          "duration": 0.19314251562499862
        },
        {
          "name": "C2",
          "midi": 36,
          "time": 95.55671707031263,
          "velocity": 0.6535433070866141,
          "duration": 0.1180013964843738
        },
        {
          "name": "C3",
          "midi": 48,
          "time": 95.55671707031263,
          "velocity": 0.7795275590551181,
          "duration": 0.1180013964843738
        },
        {
          "name": "D5",
          "midi": 74,
          "time": 95.75013085351576,
          "velocity": 0.6299212598425197,
          "duration": 0.2745227890624875
        },
        {
          "name": "D6",
          "midi": 86,
          "time": 95.75013085351576,
          "velocity": 0.7401574803149606,
          "duration": 0.2745227890624875
        },
        {
          "name": "C2",
          "midi": 36,
          "time": 95.84154802734388,
          "velocity": 0.6220472440944882,
          "duration": 0.10850703124999939
        },
        {
          "name": "C3",
          "midi": 48,
          "time": 95.84154802734388,
          "velocity": 0.7165354330708661,
          "duration": 0.10850703124999939
        },
        {
          "name": "C5",
          "midi": 72,
          "time": 96.02492491015637,
          "velocity": 0.6299212598425197,
          "duration": 0.26828363476562345
        },
        {
          "name": "C6",
          "midi": 84,
          "time": 96.02492491015637,
          "velocity": 0.7401574803149606,
          "duration": 0.2764216621093709
        },
        {
          "name": "C2",
          "midi": 36,
          "time": 96.11688461914075,
          "velocity": 0.6377952755905512,
          "duration": 0.10850703124999939
        },
        {
          "name": "C3",
          "midi": 48,
          "time": 96.11688461914075,
          "velocity": 0.7322834645669292,
          "duration": 0.10850703124999939
        },
        {
          "name": "B4",
          "midi": 71,
          "time": 96.30161783984387,
          "velocity": 0.6299212598425197,
          "duration": 0.08219407617187358
        },
        {
          "name": "B5",
          "midi": 83,
          "time": 96.30161783984387,
          "velocity": 0.7401574803149606,
          "duration": 0.09033210351562104
        },
        {
          "name": "C5",
          "midi": 72,
          "time": 96.39222121093762,
          "velocity": 0.6377952755905512,
          "duration": 0.1749675878906345
        },
        {
          "name": "C6",
          "midi": 84,
          "time": 96.39222121093762,
          "velocity": 0.7480314960629921,
          "duration": 0.18310561523438196
        },
        {
          "name": "C2",
          "midi": 36,
          "time": 96.39222121093762,
          "velocity": 0.6220472440944882,
          "duration": 0.1076932285156289
        },
        {
          "name": "C3",
          "midi": 48,
          "time": 96.39222121093762,
          "velocity": 0.7480314960629921,
          "duration": 0.1076932285156289
        },
        {
          "name": "C#5",
          "midi": 73,
          "time": 96.57559809375013,
          "velocity": 0.6299212598425197,
          "duration": 0.08273661132813004
        },
        {
          "name": "C#6",
          "midi": 85,
          "time": 96.57559809375013,
          "velocity": 0.7401574803149606,
          "duration": 0.0908746386718775
        },
        {
          "name": "D5",
          "midi": 74,
          "time": 96.66782907031264,
          "velocity": 0.6692913385826772,
          "duration": 0.18500448828125116
        },
        {
          "name": "D6",
          "midi": 86,
          "time": 96.66782907031264,
          "velocity": 0.7795275590551181,
          "duration": 0.19314251562499862
        },
        {
          "name": "D2",
          "midi": 38,
          "time": 96.66782907031264,
          "velocity": 0.6614173228346457,
          "duration": 0.1180013964843738
        },
        {
          "name": "D3",
          "midi": 50,
          "time": 96.66782907031264,
          "velocity": 0.7795275590551181,
          "duration": 0.1180013964843738
        },
        {
          "name": "C#5",
          "midi": 73,
          "time": 96.86124285351576,
          "velocity": 0.6299212598425197,
          "duration": 0.08300787890624406
        },
        {
          "name": "C#6",
          "midi": 85,
          "time": 96.86124285351576,
          "velocity": 0.7401574803149606,
          "duration": 0.09114590624999153
        },
        {
          "name": "D5",
          "midi": 74,
          "time": 96.95266002734388,
          "velocity": 0.6377952755905512,
          "duration": 0.17496758789062028
        },
        {
          "name": "D6",
          "midi": 86,
          "time": 96.95266002734388,
          "velocity": 0.7480314960629921,
          "duration": 0.18310561523436775
        },
        {
          "name": "D2",
          "midi": 38,
          "time": 96.95266002734388,
          "velocity": 0.6299212598425197,
          "duration": 0.10850703124999939
        },
        {
          "name": "D3",
          "midi": 50,
          "time": 96.95266002734388,
          "velocity": 0.7480314960629921,
          "duration": 0.10850703124999939
        },
        {
          "name": "C#5",
          "midi": 73,
          "time": 97.13603691015638,
          "velocity": 0.6299212598425197,
          "duration": 0.08355041406250052
        },
        {
          "name": "C#6",
          "midi": 85,
          "time": 97.13603691015638,
          "velocity": 0.7401574803149606,
          "duration": 0.09168844140624799
        },
        {
          "name": "D5",
          "midi": 74,
          "time": 97.22799661914075,
          "velocity": 0.6535433070866141,
          "duration": 0.17632392578124723
        },
        {
          "name": "D6",
          "midi": 86,
          "time": 97.22799661914075,
          "velocity": 0.7637795275590551,
          "duration": 0.1844619531249947
        },
        {
          "name": "F#2",
          "midi": 42,
          "time": 97.22799661914075,
          "velocity": 0.6535433070866141,
          "duration": 0.10850703124999939
        },
        {
          "name": "F#3",
          "midi": 54,
          "time": 97.22799661914075,
          "velocity": 0.7637795275590551,
          "duration": 0.10850703124999939
        },
        {
          "name": "F#5",
          "midi": 78,
          "time": 97.41272983984388,
          "velocity": 0.6299212598425197,
          "duration": 0.27370898632813123
        },
        {
          "name": "F#6",
          "midi": 90,
          "time": 97.41272983984388,
          "velocity": 0.7401574803149606,
          "duration": 0.27370898632813123
        },
        {
          "name": "F#2",
          "midi": 42,
          "time": 97.50333321093763,
          "velocity": 0.6377952755905512,
          "duration": 0.1076932285156289
        },
        {
          "name": "F#3",
          "midi": 54,
          "time": 97.50333321093763,
          "velocity": 0.7480314960629921,
          "duration": 0.1076932285156289
        },
        {
          "name": "G5",
          "midi": 79,
          "time": 97.68671009375014,
          "velocity": 0.6299212598425197,
          "duration": 0.2853734921875031
        },
        {
          "name": "G6",
          "midi": 91,
          "time": 97.68671009375014,
          "velocity": 0.7401574803149606,
          "duration": 0.2853734921875031
        },
        {
          "name": "G2",
          "midi": 43,
          "time": 97.77894107031264,
          "velocity": 0.6692913385826772,
          "duration": 0.1180013964843738
        },
        {
          "name": "G3",
          "midi": 55,
          "time": 97.77894107031264,
          "velocity": 0.7795275590551181,
          "duration": 0.1180013964843738
        },
        {
          "name": "G4",
          "midi": 67,
          "time": 97.97235485351577,
          "velocity": 0.6299212598425197,
          "duration": 0.3664824980468637
        },
        {
          "name": "G5",
          "midi": 79,
          "time": 97.97235485351577,
          "velocity": 0.7401574803149606,
          "duration": 0.3664824980468637
        },
        {
          "name": "G2",
          "midi": 43,
          "time": 98.06377202734389,
          "velocity": 0.6377952755905512,
          "duration": 0.10850703124999939
        },
        {
          "name": "G3",
          "midi": 55,
          "time": 98.06377202734389,
          "velocity": 0.7165354330708661,
          "duration": 0.10850703124999939
        },
        {
          "name": "A4",
          "midi": 69,
          "time": 98.33910861914076,
          "velocity": 0.6535433070866141,
          "duration": 0.27506532421874397
        },
        {
          "name": "A5",
          "midi": 81,
          "time": 98.33910861914076,
          "velocity": 0.7637795275590551,
          "duration": 0.27506532421874397
        },
        {
          "name": "G2",
          "midi": 43,
          "time": 98.33910861914076,
          "velocity": 0.6535433070866141,
          "duration": 0.10850703124999939
        },
        {
          "name": "G3",
          "midi": 55,
          "time": 98.33910861914076,
          "velocity": 0.7322834645669292,
          "duration": 0.10850703124999939
        },
        {
          "name": "B4",
          "midi": 71,
          "time": 98.61444521093763,
          "velocity": 0.6377952755905512,
          "duration": 0.2742515214843735
        },
        {
          "name": "B5",
          "midi": 83,
          "time": 98.61444521093763,
          "velocity": 0.7480314960629921,
          "duration": 0.2742515214843735
        },
        {
          "name": "G2",
          "midi": 43,
          "time": 98.61444521093763,
          "velocity": 0.6377952755905512,
          "duration": 0.1076932285156289
        },
        {
          "name": "G3",
          "midi": 55,
          "time": 98.61444521093763,
          "velocity": 0.7480314960629921,
          "duration": 0.1076932285156289
        },
        {
          "name": "C5",
          "midi": 72,
          "time": 98.89005307031263,
          "velocity": 0.6692913385826772,
          "duration": 0.2845596894531184
        },
        {
          "name": "C6",
          "midi": 84,
          "time": 98.89005307031263,
          "velocity": 0.7795275590551181,
          "duration": 0.2845596894531184
        },
        {
          "name": "C2",
          "midi": 36,
          "time": 98.89005307031263,
          "velocity": 0.6535433070866141,
          "duration": 0.1180013964843738
        },
        {
          "name": "C3",
          "midi": 48,
          "time": 98.89005307031263,
          "velocity": 0.7795275590551181,
          "duration": 0.1180013964843738
        },
        {
          "name": "G3",
          "midi": 55,
          "time": 99.17488402734388,
          "velocity": 0.6377952755905512,
          "duration": 0.27506532421874397
        },
        {
          "name": "C4",
          "midi": 60,
          "time": 99.17488402734388,
          "velocity": 0.7480314960629921,
          "duration": 0.27506532421874397
        },
        {
          "name": "C2",
          "midi": 36,
          "time": 99.17488402734388,
          "velocity": 0.6220472440944882,
          "duration": 0.10850703124999939
        },
        {
          "name": "C3",
          "midi": 48,
          "time": 99.17488402734388,
          "velocity": 0.7165354330708661,
          "duration": 0.10850703124999939
        },
        {
          "name": "C4",
          "midi": 60,
          "time": 99.45022061914075,
          "velocity": 0.6535433070866141,
          "duration": 0.5495881132812457
        },
        {
          "name": "D#4",
          "midi": 63,
          "time": 99.45022061914075,
          "velocity": 0.7637795275590551,
          "duration": 0.5495881132812457
        },
        {
          "name": "C2",
          "midi": 36,
          "time": 99.45022061914075,
          "velocity": 0.6377952755905512,
          "duration": 0.10850703124999939
        },
        {
          "name": "C3",
          "midi": 48,
          "time": 99.45022061914075,
          "velocity": 0.7322834645669292,
          "duration": 0.10850703124999939
        },
        {
          "name": "C2",
          "midi": 36,
          "time": 99.72555721093762,
          "velocity": 0.6220472440944882,
          "duration": 0.1076932285156289
        },
        {
          "name": "C3",
          "midi": 48,
          "time": 99.72555721093762,
          "velocity": 0.7480314960629921,
          "duration": 0.1076932285156289
        },
        {
          "name": "D4",
          "midi": 62,
          "time": 100.00116507031262,
          "velocity": 0.6692913385826772,
          "duration": 0.18500448828125116
        },
        {
          "name": "F#4",
          "midi": 66,
          "time": 100.00116507031262,
          "velocity": 0.7795275590551181,
          "duration": 0.19314251562499862
        },
        {
          "name": "F#2",
          "midi": 42,
          "time": 100.00116507031262,
          "velocity": 0.6692913385826772,
          "duration": 0.1180013964843738
        },
        {
          "name": "F#3",
          "midi": 54,
          "time": 100.00116507031262,
          "velocity": 0.7795275590551181,
          "duration": 0.1180013964843738
        },
        {
          "name": "F4",
          "midi": 65,
          "time": 100.19457885351575,
          "velocity": 0.6929133858267716,
          "duration": 0.08300787890624406
        },
        {
          "name": "G#3",
          "midi": 56,
          "time": 100.28599602734387,
          "velocity": 0.6377952755905512,
          "duration": 0.17496758789062028
        },
        {
          "name": "D#4",
          "midi": 63,
          "time": 100.28599602734387,
          "velocity": 0.7480314960629921,
          "duration": 0.18310561523436775
        },
        {
          "name": "F#2",
          "midi": 42,
          "time": 100.28599602734387,
          "velocity": 0.6377952755905512,
          "duration": 0.10850703124999939
        },
        {
          "name": "F#3",
          "midi": 54,
          "time": 100.28599602734387,
          "velocity": 0.7165354330708661,
          "duration": 0.10850703124999939
        },
        {
          "name": "F#3",
          "midi": 54,
          "time": 100.46937291015637,
          "velocity": 0.6299212598425197,
          "duration": 0.2004667402343756
        },
        {
          "name": "C4",
          "midi": 60,
          "time": 100.46937291015637,
          "velocity": 0.7401574803149606,
          "duration": 0.6415478222656219
        },
        {
          "name": "F#2",
          "midi": 42,
          "time": 100.56133261914074,
          "velocity": 0.6535433070866141,
          "duration": 0.10850703124999939
        },
        {
          "name": "F#3",
          "midi": 54,
          "time": 100.56133261914074,
          "velocity": 0.7322834645669292,
          "duration": 0.3830298203125011
        },
        {
          "name": "F#2",
          "midi": 42,
          "time": 100.83666921093761,
          "velocity": 0.6377952755905512,
          "duration": 0.1076932285156289
        },
        {
          "name": "F#3",
          "midi": 54,
          "time": 100.83666921093761,
          "velocity": 0.7480314960629921,
          "duration": 0.2742515214843735
        },
        {
          "name": "G3",
          "midi": 55,
          "time": 101.11227707031262,
          "velocity": 0.6692913385826772,
          "duration": 0.18500448828125116
        },
        {
          "name": "B3",
          "midi": 59,
          "time": 101.11227707031262,
          "velocity": 0.7795275590551181,
          "duration": 0.19314251562499862
        },
        {
          "name": "B1",
          "midi": 35,
          "time": 101.11227707031262,
          "velocity": 0.6535433070866141,
          "duration": 0.1180013964843738
        },
        {
          "name": "B2",
          "midi": 47,
          "time": 101.11227707031262,
          "velocity": 0.7795275590551181,
          "duration": 0.1180013964843738
        },
        {
          "name": "C4",
          "midi": 60,
          "time": 101.30569085351574,
          "velocity": 0.6929133858267716,
          "duration": 0.08300787890624406
        },
        {
          "name": "B3",
          "midi": 59,
          "time": 101.39710802734386,
          "velocity": 0.6377952755905512,
          "duration": 0.18310561523436775
        },
        {
          "name": "D4",
          "midi": 62,
          "time": 101.39710802734386,
          "velocity": 0.7480314960629921,
          "duration": 0.18310561523436775
        },
        {
          "name": "B1",
          "midi": 35,
          "time": 101.39710802734386,
          "velocity": 0.6220472440944882,
          "duration": 0.10850703124999939
        },
        {
          "name": "B2",
          "midi": 47,
          "time": 101.39710802734386,
          "velocity": 0.7165354330708661,
          "duration": 0.10850703124999939
        },
        {
          "name": "B3",
          "midi": 59,
          "time": 101.58048491015636,
          "velocity": 0.6929133858267716,
          "duration": 0.08355041406250052
        },
        {
          "name": "G3",
          "midi": 55,
          "time": 101.67244461914073,
          "velocity": 0.6535433070866141,
          "duration": 0.17632392578124723
        },
        {
          "name": "C4",
          "midi": 60,
          "time": 101.67244461914073,
          "velocity": 0.7637795275590551,
          "duration": 0.1844619531249947
        },
        {
          "name": "B1",
          "midi": 35,
          "time": 101.67244461914073,
          "velocity": 0.6377952755905512,
          "duration": 0.10850703124999939
        },
        {
          "name": "B2",
          "midi": 47,
          "time": 101.67244461914073,
          "velocity": 0.7322834645669292,
          "duration": 0.10850703124999939
        },
        {
          "name": "D4",
          "midi": 62,
          "time": 101.85717783984386,
          "velocity": 0.6929133858267716,
          "duration": 0.08219407617187358
        },
        {
          "name": "G3",
          "midi": 55,
          "time": 101.9477812109376,
          "velocity": 0.6377952755905512,
          "duration": 0.1749675878906345
        },
        {
          "name": "B3",
          "midi": 59,
          "time": 101.9477812109376,
          "velocity": 0.7480314960629921,
          "duration": 0.18310561523438196
        },
        {
          "name": "B1",
          "midi": 35,
          "time": 101.9477812109376,
          "velocity": 0.6220472440944882,
          "duration": 0.1076932285156289
        },
        {
          "name": "B2",
          "midi": 47,
          "time": 101.9477812109376,
          "velocity": 0.7480314960629921,
          "duration": 0.1076932285156289
        },
        {
          "name": "C4",
          "midi": 60,
          "time": 102.13115809375012,
          "velocity": 0.6929133858267716,
          "duration": 0.0908746386718775
        },
        {
          "name": "C4",
          "midi": 60,
          "time": 102.22338907031262,
          "velocity": 0.6692913385826772,
          "duration": 0.2845596894531184
        },
        {
          "name": "D#4",
          "midi": 63,
          "time": 102.22338907031262,
          "velocity": 0.7795275590551181,
          "duration": 0.2845596894531184
        },
        {
          "name": "C2",
          "midi": 36,
          "time": 102.22338907031262,
          "velocity": 0.6535433070866141,
          "duration": 0.1180013964843738
        },
        {
          "name": "C3",
          "midi": 48,
          "time": 102.22338907031262,
          "velocity": 0.7795275590551181,
          "duration": 0.1180013964843738
        },
        {
          "name": "G3",
          "midi": 55,
          "time": 102.50822002734387,
          "velocity": 0.6377952755905512,
          "duration": 0.17496758789062028
        },
        {
          "name": "D4",
          "midi": 62,
          "time": 102.50822002734387,
          "velocity": 0.7480314960629921,
          "duration": 0.18310561523436775
        },
        {
          "name": "C2",
          "midi": 36,
          "time": 102.50822002734387,
          "velocity": 0.6220472440944882,
          "duration": 0.10850703124999939
        },
        {
          "name": "C3",
          "midi": 48,
          "time": 102.50822002734387,
          "velocity": 0.7165354330708661,
          "duration": 0.10850703124999939
        },
        {
          "name": "C4",
          "midi": 60,
          "time": 102.69159691015636,
          "velocity": 0.6299212598425197,
          "duration": 0.6415478222656219
        },
        {
          "name": "D#4",
          "midi": 63,
          "time": 102.69159691015636,
          "velocity": 0.7401574803149606,
          "duration": 0.6415478222656219
        },
        {
          "name": "C2",
          "midi": 36,
          "time": 102.78355661914074,
          "velocity": 0.6377952755905512,
          "duration": 0.10850703124999939
        },
        {
          "name": "C3",
          "midi": 48,
          "time": 102.78355661914074,
          "velocity": 0.7322834645669292,
          "duration": 0.10850703124999939
        },
        {
          "name": "C2",
          "midi": 36,
          "time": 103.05889321093761,
          "velocity": 0.6220472440944882,
          "duration": 0.1076932285156289
        },
        {
          "name": "C3",
          "midi": 48,
          "time": 103.05889321093761,
          "velocity": 0.7165354330708661,
          "duration": 0.1076932285156289
        },
        {
          "name": "C2",
          "midi": 36,
          "time": 103.33450107031261,
          "velocity": 0.6535433070866141,
          "duration": 0.1180013964843738
        },
        {
          "name": "C3",
          "midi": 48,
          "time": 103.33450107031261,
          "velocity": 0.7480314960629921,
          "duration": 0.1180013964843738
        },
        {
          "name": "C4",
          "midi": 60,
          "time": 103.61933202734386,
          "velocity": 0.6377952755905512,
          "duration": 0.27506532421874397
        },
        {
          "name": "D#4",
          "midi": 63,
          "time": 103.61933202734386,
          "velocity": 0.6377952755905512,
          "duration": 0.27506532421874397
        },
        {
          "name": "C5",
          "midi": 72,
          "time": 103.61933202734386,
          "velocity": 0.7480314960629921,
          "duration": 0.27506532421874397
        },
        {
          "name": "C2",
          "midi": 36,
          "time": 103.61933202734386,
          "velocity": 0.6220472440944882,
          "duration": 0.10850703124999939
        },
        {
          "name": "C3",
          "midi": 48,
          "time": 103.61933202734386,
          "velocity": 0.7165354330708661,
          "duration": 0.10850703124999939
        },
        {
          "name": "D#4",
          "midi": 63,
          "time": 103.89466861914073,
          "velocity": 0.6535433070866141,
          "duration": 0.5495881132812457
        },
        {
          "name": "C5",
          "midi": 72,
          "time": 103.89466861914073,
          "velocity": 0.6535433070866141,
          "duration": 0.5495881132812457
        },
        {
          "name": "D#5",
          "midi": 75,
          "time": 103.89466861914073,
          "velocity": 0.7637795275590551,
          "duration": 0.5495881132812457
        },
        {
          "name": "C2",
          "midi": 36,
          "time": 103.89466861914073,
          "velocity": 0.6377952755905512,
          "duration": 0.10850703124999939
        },
        {
          "name": "C3",
          "midi": 48,
          "time": 103.89466861914073,
          "velocity": 0.7322834645669292,
          "duration": 0.10850703124999939
        },
        {
          "name": "C2",
          "midi": 36,
          "time": 104.1700052109376,
          "velocity": 0.6220472440944882,
          "duration": 0.1076932285156289
        },
        {
          "name": "C3",
          "midi": 48,
          "time": 104.1700052109376,
          "velocity": 0.7480314960629921,
          "duration": 0.1076932285156289
        },
        {
          "name": "F#4",
          "midi": 66,
          "time": 104.4456130703126,
          "velocity": 0.6692913385826772,
          "duration": 0.18500448828125116
        },
        {
          "name": "D5",
          "midi": 74,
          "time": 104.4456130703126,
          "velocity": 0.6692913385826772,
          "duration": 0.18500448828125116
        },
        {
          "name": "F#5",
          "midi": 78,
          "time": 104.4456130703126,
          "velocity": 0.7795275590551181,
          "duration": 0.19314251562499862
        },
        {
          "name": "F#2",
          "midi": 42,
          "time": 104.4456130703126,
          "velocity": 0.6692913385826772,
          "duration": 0.1180013964843738
        },
        {
          "name": "F#3",
          "midi": 54,
          "time": 104.4456130703126,
          "velocity": 0.7795275590551181,
          "duration": 0.1180013964843738
        },
        {
          "name": "F4",
          "midi": 65,
          "time": 104.63902685351573,
          "velocity": 0.6299212598425197,
          "duration": 0.08300787890624406
        },
        {
          "name": "F5",
          "midi": 77,
          "time": 104.63902685351573,
          "velocity": 0.7401574803149606,
          "duration": 0.09114590624999153
        },
        {
          "name": "D#4",
          "midi": 63,
          "time": 104.73044402734385,
          "velocity": 0.6377952755905512,
          "duration": 0.17496758789062028
        },
        {
          "name": "G#4",
          "midi": 68,
          "time": 104.73044402734385,
          "velocity": 0.6377952755905512,
          "duration": 0.17496758789062028
        },
        {
          "name": "D#5",
          "midi": 75,
          "time": 104.73044402734385,
          "velocity": 0.7480314960629921,
          "duration": 0.18310561523436775
        },
        {
          "name": "F#2",
          "midi": 42,
          "time": 104.73044402734385,
          "velocity": 0.6377952755905512,
          "duration": 0.10850703124999939
        },
        {
          "name": "F#3",
          "midi": 54,
          "time": 104.73044402734385,
          "velocity": 0.7165354330708661,
          "duration": 0.10850703124999939
        },
        {
          "name": "C4",
          "midi": 60,
          "time": 104.91382091015635,
          "velocity": 0.6299212598425197,
          "duration": 0.6415478222656219
        },
        {
          "name": "F#4",
          "midi": 66,
          "time": 104.91382091015635,
          "velocity": 0.6299212598425197,
          "duration": 0.6415478222656219
        },
        {
          "name": "C5",
          "midi": 72,
          "time": 104.91382091015635,
          "velocity": 0.7401574803149606,
          "duration": 0.6415478222656219
        },
        {
          "name": "F#2",
          "midi": 42,
          "time": 105.00578061914072,
          "velocity": 0.6535433070866141,
          "duration": 0.10850703124999939
        },
        {
          "name": "F#3",
          "midi": 54,
          "time": 105.00578061914072,
          "velocity": 0.7322834645669292,
          "duration": 0.10850703124999939
        },
        {
          "name": "F#2",
          "midi": 42,
          "time": 105.2811172109376,
          "velocity": 0.6377952755905512,
          "duration": 0.1076932285156289
        },
        {
          "name": "F#3",
          "midi": 54,
          "time": 105.2811172109376,
          "velocity": 0.7480314960629921,
          "duration": 0.1076932285156289
        },
        {
          "name": "B3",
          "midi": 59,
          "time": 105.5567250703126,
          "velocity": 0.6692913385826772,
          "duration": 0.18500448828125116
        },
        {
          "name": "G4",
          "midi": 67,
          "time": 105.5567250703126,
          "velocity": 0.6692913385826772,
          "duration": 0.18500448828125116
        },
        {
          "name": "B4",
          "midi": 71,
          "time": 105.5567250703126,
          "velocity": 0.7795275590551181,
          "duration": 0.19314251562499862
        },
        {
          "name": "B1",
          "midi": 35,
          "time": 105.5567250703126,
          "velocity": 0.6535433070866141,
          "duration": 0.1180013964843738
        },
        {
          "name": "B2",
          "midi": 47,
          "time": 105.5567250703126,
          "velocity": 0.7795275590551181,
          "duration": 0.1180013964843738
        },
        {
          "name": "C4",
          "midi": 60,
          "time": 105.75013885351572,
          "velocity": 0.6299212598425197,
          "duration": 0.08300787890624406
        },
        {
          "name": "C5",
          "midi": 72,
          "time": 105.75013885351572,
          "velocity": 0.7401574803149606,
          "duration": 0.09114590624999153
        },
        {
          "name": "D4",
          "midi": 62,
          "time": 105.84155602734384,
          "velocity": 0.6377952755905512,
          "duration": 0.17496758789062028
        },
        {
          "name": "B4",
          "midi": 71,
          "time": 105.84155602734384,
          "velocity": 0.6377952755905512,
          "duration": 0.18310561523436775
        },
        {
          "name": "D5",
          "midi": 74,
          "time": 105.84155602734384,
          "velocity": 0.7480314960629921,
          "duration": 0.18310561523436775
        },
        {
          "name": "B1",
          "midi": 35,
          "time": 105.84155602734384,
          "velocity": 0.6220472440944882,
          "duration": 0.10850703124999939
        },
        {
          "name": "B2",
          "midi": 47,
          "time": 105.84155602734384,
          "velocity": 0.7165354330708661,
          "duration": 0.10850703124999939
        },
        {
          "name": "B3",
          "midi": 59,
          "time": 106.02493291015634,
          "velocity": 0.6299212598425197,
          "duration": 0.08355041406250052
        },
        {
          "name": "B4",
          "midi": 71,
          "time": 106.02493291015634,
          "velocity": 0.7401574803149606,
          "duration": 0.09168844140624799
        },
        {
          "name": "C4",
          "midi": 60,
          "time": 106.11689261914071,
          "velocity": 0.6535433070866141,
          "duration": 0.17632392578124723
        },
        {
          "name": "G4",
          "midi": 67,
          "time": 106.11689261914071,
          "velocity": 0.6535433070866141,
          "duration": 0.17632392578124723
        },
        {
          "name": "C5",
          "midi": 72,
          "time": 106.11689261914071,
          "velocity": 0.7637795275590551,
          "duration": 0.1844619531249947
        },
        {
          "name": "B1",
          "midi": 35,
          "time": 106.11689261914071,
          "velocity": 0.6377952755905512,
          "duration": 0.10850703124999939
        },
        {
          "name": "B2",
          "midi": 47,
          "time": 106.11689261914071,
          "velocity": 0.7322834645669292,
          "duration": 0.10850703124999939
        },
        {
          "name": "D4",
          "midi": 62,
          "time": 106.30162583984384,
          "velocity": 0.6299212598425197,
          "duration": 0.08219407617187358
        },
        {
          "name": "D5",
          "midi": 74,
          "time": 106.30162583984384,
          "velocity": 0.7401574803149606,
          "duration": 0.09033210351562104
        },
        {
          "name": "B3",
          "midi": 59,
          "time": 106.39222921093759,
          "velocity": 0.6377952755905512,
          "duration": 0.1749675878906345
        },
        {
          "name": "B4",
          "midi": 71,
          "time": 106.39222921093759,
          "velocity": 0.7480314960629921,
          "duration": 0.18310561523438196
        },
        {
          "name": "B1",
          "midi": 35,
          "time": 106.39222921093759,
          "velocity": 0.6220472440944882,
          "duration": 0.1076932285156289
        },
        {
          "name": "B2",
          "midi": 47,
          "time": 106.39222921093759,
          "velocity": 0.7480314960629921,
          "duration": 0.1076932285156289
        },
        {
          "name": "C4",
          "midi": 60,
          "time": 106.5756060937501,
          "velocity": 0.6299212598425197,
          "duration": 0.08273661132813004
        },
        {
          "name": "G4",
          "midi": 67,
          "time": 106.5756060937501,
          "velocity": 0.6299212598425197,
          "duration": 0.08273661132813004
        },
        {
          "name": "C5",
          "midi": 72,
          "time": 106.5756060937501,
          "velocity": 0.7401574803149606,
          "duration": 0.0908746386718775
        },
        {
          "name": "D#4",
          "midi": 63,
          "time": 106.6678370703126,
          "velocity": 0.6692913385826772,
          "duration": 0.2845596894531184
        },
        {
          "name": "C5",
          "midi": 72,
          "time": 106.6678370703126,
          "velocity": 0.6692913385826772,
          "duration": 0.2845596894531184
        },
        {
          "name": "D#5",
          "midi": 75,
          "time": 106.6678370703126,
          "velocity": 0.7795275590551181,
          "duration": 0.2845596894531184
        },
        {
          "name": "C2",
          "midi": 36,
          "time": 106.6678370703126,
          "velocity": 0.6535433070866141,
          "duration": 0.1180013964843738
        },
        {
          "name": "C3",
          "midi": 48,
          "time": 106.6678370703126,
          "velocity": 0.7795275590551181,
          "duration": 0.1180013964843738
        },
        {
          "name": "D4",
          "midi": 62,
          "time": 106.95266802734385,
          "velocity": 0.6377952755905512,
          "duration": 0.17496758789062028
        },
        {
          "name": "G4",
          "midi": 67,
          "time": 106.95266802734385,
          "velocity": 0.6377952755905512,
          "duration": 0.17496758789062028
        },
        {
          "name": "D5",
          "midi": 74,
          "time": 106.95266802734385,
          "velocity": 0.7480314960629921,
          "duration": 0.18310561523436775
        },
        {
          "name": "C2",
          "midi": 36,
          "time": 106.95266802734385,
          "velocity": 0.6220472440944882,
          "duration": 0.10850703124999939
        },
        {
          "name": "C3",
          "midi": 48,
          "time": 106.95266802734385,
          "velocity": 0.7165354330708661,
          "duration": 0.10850703124999939
        },
        {
          "name": "D#4",
          "midi": 63,
          "time": 107.13604491015634,
          "velocity": 0.6299212598425197,
          "duration": 0.6415478222656219
        },
        {
          "name": "C5",
          "midi": 72,
          "time": 107.13604491015634,
          "velocity": 0.6299212598425197,
          "duration": 0.6415478222656219
        },
        {
          "name": "D#5",
          "midi": 75,
          "time": 107.13604491015634,
          "velocity": 0.7401574803149606,
          "duration": 0.6415478222656219
        },
        {
          "name": "C2",
          "midi": 36,
          "time": 107.22800461914072,
          "velocity": 0.6377952755905512,
          "duration": 0.10850703124999939
        },
        {
          "name": "C3",
          "midi": 48,
          "time": 107.22800461914072,
          "velocity": 0.7322834645669292,
          "duration": 0.10850703124999939
        },
        {
          "name": "C2",
          "midi": 36,
          "time": 107.50334121093759,
          "velocity": 0.6220472440944882,
          "duration": 0.1076932285156289
        },
        {
          "name": "C3",
          "midi": 48,
          "time": 107.50334121093759,
          "velocity": 0.7480314960629921,
          "duration": 0.1076932285156289
        },
        {
          "name": "D#4",
          "midi": 63,
          "time": 107.77894907031259,
          "velocity": 0.6692913385826772,
          "duration": 0.2845596894531184
        },
        {
          "name": "A#4",
          "midi": 70,
          "time": 107.77894907031259,
          "velocity": 0.6692913385826772,
          "duration": 0.2845596894531184
        },
        {
          "name": "D#5",
          "midi": 75,
          "time": 107.77894907031259,
          "velocity": 0.7795275590551181,
          "duration": 0.2845596894531184
        },
        {
          "name": "D#2",
          "midi": 39,
          "time": 107.77894907031259,
          "velocity": 0.6614173228346457,
          "duration": 0.1180013964843738
        },
        {
          "name": "D#3",
          "midi": 51,
          "time": 107.77894907031259,
          "velocity": 0.7795275590551181,
          "duration": 0.1180013964843738
        },
        {
          "name": "F4",
          "midi": 65,
          "time": 108.06378002734384,
          "velocity": 0.6377952755905512,
          "duration": 0.17496758789062028
        },
        {
          "name": "A#4",
          "midi": 70,
          "time": 108.06378002734384,
          "velocity": 0.6377952755905512,
          "duration": 0.18310561523436775
        },
        {
          "name": "F5",
          "midi": 77,
          "time": 108.06378002734384,
          "velocity": 0.7480314960629921,
          "duration": 0.18310561523436775
        },
        {
          "name": "D#2",
          "midi": 39,
          "time": 108.06378002734384,
          "velocity": 0.6299212598425197,
          "duration": 0.10850703124999939
        },
        {
          "name": "D#3",
          "midi": 51,
          "time": 108.06378002734384,
          "velocity": 0.7165354330708661,
          "duration": 0.10850703124999939
        },
        {
          "name": "D#4",
          "midi": 63,
          "time": 108.24715691015633,
          "velocity": 0.6299212598425197,
          "duration": 0.6415478222656219
        },
        {
          "name": "A#4",
          "midi": 70,
          "time": 108.24715691015633,
          "velocity": 0.6299212598425197,
          "duration": 0.6415478222656219
        },
        {
          "name": "D#5",
          "midi": 75,
          "time": 108.24715691015633,
          "velocity": 0.7401574803149606,
          "duration": 0.6415478222656219
        },
        {
          "name": "D#2",
          "midi": 39,
          "time": 108.33911661914071,
          "velocity": 0.6456692913385826,
          "duration": 0.10850703124999939
        },
        {
          "name": "D#3",
          "midi": 51,
          "time": 108.33911661914071,
          "velocity": 0.7322834645669292,
          "duration": 0.10850703124999939
        },
        {
          "name": "D#2",
          "midi": 39,
          "time": 108.61445321093758,
          "velocity": 0.6299212598425197,
          "duration": 0.1076932285156289
        },
        {
          "name": "D#3",
          "midi": 51,
          "time": 108.61445321093758,
          "velocity": 0.7480314960629921,
          "duration": 0.1076932285156289
        },
        {
          "name": "E4",
          "midi": 64,
          "time": 108.89006107031258,
          "velocity": 0.6692913385826772,
          "duration": 0.46793657226561436
        },
        {
          "name": "G#4",
          "midi": 68,
          "time": 108.89006107031258,
          "velocity": 0.6692913385826772,
          "duration": 0.46793657226561436
        },
        {
          "name": "E5",
          "midi": 76,
          "time": 108.89006107031258,
          "velocity": 0.7795275590551181,
          "duration": 0.46793657226561436
        },
        {
          "name": "E2",
          "midi": 40,
          "time": 108.89006107031258,
          "velocity": 0.6614173228346457,
          "duration": 0.1180013964843738
        },
        {
          "name": "E3",
          "midi": 52,
          "time": 108.89006107031258,
          "velocity": 0.7795275590551181,
          "duration": 0.1180013964843738
        },
        {
          "name": "E2",
          "midi": 40,
          "time": 109.17489202734383,
          "velocity": 0.6299212598425197,
          "duration": 0.10850703124999939
        },
        {
          "name": "E3",
          "midi": 52,
          "time": 109.17489202734383,
          "velocity": 0.7165354330708661,
          "duration": 0.10850703124999939
        },
        {
          "name": "G4",
          "midi": 67,
          "time": 109.35826891015633,
          "velocity": 0.6299212598425197,
          "duration": 0.3670250332031202
        },
        {
          "name": "E5",
          "midi": 76,
          "time": 109.35826891015633,
          "velocity": 0.6299212598425197,
          "duration": 0.3670250332031202
        },
        {
          "name": "G5",
          "midi": 79,
          "time": 109.35826891015633,
          "velocity": 0.7401574803149606,
          "duration": 0.3670250332031202
        },
        {
          "name": "E2",
          "midi": 40,
          "time": 109.4502286191407,
          "velocity": 0.6456692913385826,
          "duration": 0.10850703124999939
        },
        {
          "name": "E3",
          "midi": 52,
          "time": 109.4502286191407,
          "velocity": 0.7322834645669292,
          "duration": 0.10850703124999939
        },
        {
          "name": "A#4",
          "midi": 70,
          "time": 109.72556521093757,
          "velocity": 0.6377952755905512,
          "duration": 0.2742515214843735
        },
        {
          "name": "E5",
          "midi": 76,
          "time": 109.72556521093757,
          "velocity": 0.6377952755905512,
          "duration": 0.2742515214843735
        },
        {
          "name": "A#5",
          "midi": 82,
          "time": 109.72556521093757,
          "velocity": 0.7480314960629921,
          "duration": 0.2742515214843735
        },
        {
          "name": "E2",
          "midi": 40,
          "time": 109.72556521093757,
          "velocity": 0.6299212598425197,
          "duration": 0.1076932285156289
        },
        {
          "name": "E3",
          "midi": 52,
          "time": 109.72556521093757,
          "velocity": 0.7480314960629921,
          "duration": 0.1076932285156289
        },
        {
          "name": "A4",
          "midi": 69,
          "time": 110.00117307031257,
          "velocity": 0.6692913385826772,
          "duration": 0.46793657226561436
        },
        {
          "name": "F5",
          "midi": 77,
          "time": 110.00117307031257,
          "velocity": 0.6692913385826772,
          "duration": 0.46793657226561436
        },
        {
          "name": "A5",
          "midi": 81,
          "time": 110.00117307031257,
          "velocity": 0.7795275590551181,
          "duration": 0.46793657226561436
        },
        {
          "name": "F2",
          "midi": 41,
          "time": 110.00117307031257,
          "velocity": 0.6692913385826772,
          "duration": 0.1180013964843738
        },
        {
          "name": "F3",
          "midi": 53,
          "time": 110.00117307031257,
          "velocity": 0.7795275590551181,
          "duration": 0.1180013964843738
        },
        {
          "name": "F2",
          "midi": 41,
          "time": 110.28600402734382,
          "velocity": 0.6377952755905512,
          "duration": 0.10850703124999939
        },
        {
          "name": "F3",
          "midi": 53,
          "time": 110.28600402734382,
          "velocity": 0.7165354330708661,
          "duration": 0.10850703124999939
        },
        {
          "name": "F4",
          "midi": 65,
          "time": 110.46938091015632,
          "velocity": 0.6299212598425197,
          "duration": 0.6415478222656219
        },
        {
          "name": "C5",
          "midi": 72,
          "time": 110.46938091015632,
          "velocity": 0.6299212598425197,
          "duration": 0.6415478222656219
        },
        {
          "name": "F5",
          "midi": 77,
          "time": 110.46938091015632,
          "velocity": 0.7401574803149606,
          "duration": 0.6415478222656219
        },
        {
          "name": "F2",
          "midi": 41,
          "time": 110.5613406191407,
          "velocity": 0.6535433070866141,
          "duration": 0.10850703124999939
        },
        {
          "name": "F3",
          "midi": 53,
          "time": 110.5613406191407,
          "velocity": 0.7322834645669292,
          "duration": 0.10850703124999939
        },
        {
          "name": "F2",
          "midi": 41,
          "time": 110.83667721093757,
          "velocity": 0.6377952755905512,
          "duration": 0.1076932285156289
        },
        {
          "name": "F3",
          "midi": 53,
          "time": 110.83667721093757,
          "velocity": 0.7165354330708661,
          "duration": 0.1076932285156289
        },
        {
          "name": "A#4",
          "midi": 70,
          "time": 111.11391267578132,
          "velocity": 0.6692913385826772,
          "duration": 0.28157574609375047
        },
        {
          "name": "C#5",
          "midi": 73,
          "time": 111.11391267578132,
          "velocity": 0.6692913385826772,
          "duration": 0.28157574609375047
        },
        {
          "name": "F5",
          "midi": 77,
          "time": 111.11391267578132,
          "velocity": 0.6692913385826772,
          "duration": 0.28157574609375047
        },
        {
          "name": "A#5",
          "midi": 82,
          "time": 111.11391267578132,
          "velocity": 0.7795275590551181,
          "duration": 0.28157574609375047
        },
        {
          "name": "A#2",
          "midi": 46,
          "time": 111.11391267578132,
          "velocity": 0.6692913385826772,
          "duration": 0.46386755859374773
        },
        {
          "name": "A#3",
          "midi": 58,
          "time": 111.11391267578132,
          "velocity": 0.7795275590551181,
          "duration": 0.46386755859374773
        },
        {
          "name": "C#3",
          "midi": 49,
          "time": 111.5780515019532,
          "velocity": 0.6299212598425197,
          "duration": 0.3662112304687497
        },
        {
          "name": "C#4",
          "midi": 61,
          "time": 111.5780515019532,
          "velocity": 0.7401574803149606,
          "duration": 0.3662112304687497
        },
        {
          "name": "D#3",
          "midi": 51,
          "time": 111.94453400000008,
          "velocity": 0.6377952755905512,
          "duration": 0.18500448828125116
        },
        {
          "name": "D#4",
          "midi": 63,
          "time": 111.94453400000008,
          "velocity": 0.7480314960629921,
          "duration": 0.19314251562499862
        },
        {
          "name": "E4",
          "midi": 64,
          "time": 112.1379477832032,
          "velocity": 0.6929133858267716,
          "duration": 0.07975266796874791
        },
        {
          "name": "F3",
          "midi": 53,
          "time": 112.22610974609383,
          "velocity": 0.6299212598425197,
          "duration": 0.10715069335937244
        },
        {
          "name": "F4",
          "midi": 65,
          "time": 112.22610974609383,
          "velocity": 0.7401574803149606,
          "duration": 0.10715069335937244
        },
        {
          "name": "A#2",
          "midi": 46,
          "time": 112.50009000000007,
          "velocity": 0.6692913385826772,
          "duration": 0.4665802343750016
        },
        {
          "name": "A#3",
          "midi": 58,
          "time": 112.50009000000007,
          "velocity": 0.7795275590551181,
          "duration": 0.4665802343750016
        },
        {
          "name": "C#3",
          "midi": 49,
          "time": 112.9669415019532,
          "velocity": 0.6299212598425197,
          "duration": 0.3662112304687497
        },
        {
          "name": "C#4",
          "midi": 61,
          "time": 112.9669415019532,
          "velocity": 0.7401574803149606,
          "duration": 0.3662112304687497
        },
        {
          "name": "A#3",
          "midi": 58,
          "time": 113.33342400000008,
          "velocity": 0.7007874015748031,
          "duration": 0.18500448828125116
        },
        {
          "name": "E3",
          "midi": 52,
          "time": 113.33342400000008,
          "velocity": 0.6377952755905512,
          "duration": 0.18500448828125116
        },
        {
          "name": "E4",
          "midi": 64,
          "time": 113.33342400000008,
          "velocity": 0.7480314960629921,
          "duration": 0.19314251562499862
        },
        {
          "name": "C#4",
          "midi": 61,
          "time": 113.5268377832032,
          "velocity": 0.6929133858267716,
          "duration": 0.07975266796874791
        },
        {
          "name": "D#4",
          "midi": 63,
          "time": 113.5268377832032,
          "velocity": 0.6929133858267716,
          "duration": 0.07975266796874791
        },
        {
          "name": "D#4",
          "midi": 63,
          "time": 113.61499974609383,
          "velocity": 0.6929133858267716,
          "duration": 0.17279744726562285
        },
        {
          "name": "C#3",
          "midi": 49,
          "time": 113.61499974609383,
          "velocity": 0.6299212598425197,
          "duration": 0.10715069335937244
        },
        {
          "name": "C#4",
          "midi": 61,
          "time": 113.61499974609383,
          "velocity": 0.7401574803149606,
          "duration": 0.10715069335937244
        },
        {
          "name": "C#4",
          "midi": 61,
          "time": 113.79620648828133,
          "velocity": 0.6929133858267716,
          "duration": 0.084364216796871
        },
        {
          "name": "F4",
          "midi": 65,
          "time": 113.88898000000007,
          "velocity": 0.7322834645669292,
          "duration": 0.11773012890624557
        },
        {
          "name": "A#2",
          "midi": 46,
          "time": 113.88898000000007,
          "velocity": 0.6692913385826772,
          "duration": 0.4665802343749874
        },
        {
          "name": "A#3",
          "midi": 58,
          "time": 113.88898000000007,
          "velocity": 0.7795275590551181,
          "duration": 0.4665802343749874
        },
        {
          "name": "F4",
          "midi": 65,
          "time": 114.1735396894532,
          "velocity": 0.6299212598425197,
          "duration": 0.548503042968747
        },
        {
          "name": "G#4",
          "midi": 68,
          "time": 114.1735396894532,
          "velocity": 0.6299212598425197,
          "duration": 0.548503042968747
        },
        {
          "name": "A#4",
          "midi": 70,
          "time": 114.1735396894532,
          "velocity": 0.7086614173228346,
          "duration": 0.548503042968747
        },
        {
          "name": "C#3",
          "midi": 49,
          "time": 114.35583150195319,
          "velocity": 0.6299212598425197,
          "duration": 0.3662112304687497
        },
        {
          "name": "C#4",
          "midi": 61,
          "time": 114.35583150195319,
          "velocity": 0.7401574803149606,
          "duration": 0.3662112304687497
        },
        {
          "name": "D#3",
          "midi": 51,
          "time": 114.72231400000007,
          "velocity": 0.6377952755905512,
          "duration": 0.18500448828125116
        },
        {
          "name": "D#4",
          "midi": 63,
          "time": 114.72231400000007,
          "velocity": 0.7480314960629921,
          "duration": 0.19314251562499862
        },
        {
          "name": "E4",
          "midi": 64,
          "time": 114.9157277832032,
          "velocity": 0.6929133858267716,
          "duration": 0.07975266796874791
        },
        {
          "name": "F3",
          "midi": 53,
          "time": 115.00388974609382,
          "velocity": 0.6299212598425197,
          "duration": 0.10715069335937244
        },
        {
          "name": "F4",
          "midi": 65,
          "time": 115.00388974609382,
          "velocity": 0.7401574803149606,
          "duration": 0.10715069335937244
        },
        {
          "name": "A#2",
          "midi": 46,
          "time": 115.27787000000006,
          "velocity": 0.6692913385826772,
          "duration": 0.4665802343750016
        },
        {
          "name": "A#3",
          "midi": 58,
          "time": 115.27787000000006,
          "velocity": 0.7795275590551181,
          "duration": 0.4665802343750016
        },
        {
          "name": "F4",
          "midi": 65,
          "time": 115.47209758593756,
          "velocity": 0.6299212598425197,
          "duration": 0.09006083593750702
        },
        {
          "name": "G#4",
          "midi": 68,
          "time": 115.47209758593756,
          "velocity": 0.6299212598425197,
          "duration": 0.09006083593750702
        },
        {
          "name": "A#4",
          "midi": 70,
          "time": 115.47209758593756,
          "velocity": 0.7086614173228346,
          "duration": 0.09006083593750702
        },
        {
          "name": "F4",
          "midi": 65,
          "time": 115.5624296894532,
          "velocity": 0.6299212598425197,
          "duration": 0.10498055273437501
        },
        {
          "name": "G#4",
          "midi": 68,
          "time": 115.5624296894532,
          "velocity": 0.6299212598425197,
          "duration": 0.10498055273437501
        },
        {
          "name": "A#4",
          "midi": 70,
          "time": 115.5624296894532,
          "velocity": 0.7086614173228346,
          "duration": 0.10498055273437501
        },
        {
          "name": "C#3",
          "midi": 49,
          "time": 115.7447215019532,
          "velocity": 0.6299212598425197,
          "duration": 0.3662112304687497
        },
        {
          "name": "C#4",
          "midi": 61,
          "time": 115.7447215019532,
          "velocity": 0.7401574803149606,
          "duration": 0.3662112304687497
        },
        {
          "name": "E3",
          "midi": 52,
          "time": 116.11120400000007,
          "velocity": 0.6377952755905512,
          "duration": 0.18500448828125116
        },
        {
          "name": "E4",
          "midi": 64,
          "time": 116.11120400000007,
          "velocity": 0.7480314960629921,
          "duration": 0.19314251562499862
        },
        {
          "name": "D#4",
          "midi": 63,
          "time": 116.3046177832032,
          "velocity": 0.6929133858267716,
          "duration": 0.07975266796874791
        },
        {
          "name": "C#3",
          "midi": 49,
          "time": 116.39277974609382,
          "velocity": 0.6299212598425197,
          "duration": 0.10715069335937244
        },
        {
          "name": "C#4",
          "midi": 61,
          "time": 116.39277974609382,
          "velocity": 0.7401574803149606,
          "duration": 0.10715069335937244
        },
        {
          "name": "C#5",
          "midi": 73,
          "time": 116.59731550000006,
          "velocity": 0.6929133858267716,
          "duration": 0.03472225000000151
        },
        {
          "name": "D#5",
          "midi": 75,
          "time": 116.63203775000007,
          "velocity": 0.6929133858267716,
          "duration": 0.03472225000000151
        },
        {
          "name": "A#4",
          "midi": 70,
          "time": 116.66676000000007,
          "velocity": 0.6692913385826772,
          "duration": 0.1939563183593691
        },
        {
          "name": "C#5",
          "midi": 73,
          "time": 116.66676000000007,
          "velocity": 0.6692913385826772,
          "duration": 0.18581829101562164
        },
        {
          "name": "F5",
          "midi": 77,
          "time": 116.66676000000007,
          "velocity": 0.7795275590551181,
          "duration": 0.1939563183593691
        },
        {
          "name": "A#2",
          "midi": 46,
          "time": 116.66676000000007,
          "velocity": 0.6692913385826772,
          "duration": 0.4665802343749874
        },
        {
          "name": "A#3",
          "midi": 58,
          "time": 116.66676000000007,
          "velocity": 0.7795275590551181,
          "duration": 0.4665802343749874
        },
        {
          "name": "F4",
          "midi": 65,
          "time": 116.86098758593756,
          "velocity": 0.6299212598425197,
          "duration": 0.1057943554687455
        },
        {
          "name": "A#4",
          "midi": 70,
          "time": 116.86098758593756,
          "velocity": 0.6299212598425197,
          "duration": 0.1057943554687455
        },
        {
          "name": "C#5",
          "midi": 73,
          "time": 116.86098758593756,
          "velocity": 0.7401574803149606,
          "duration": 0.1057943554687455
        },
        {
          "name": "A#4",
          "midi": 70,
          "time": 117.13361150195318,
          "velocity": 0.6299212598425197,
          "duration": 0.08924703320312233
        },
        {
          "name": "C#5",
          "midi": 73,
          "time": 117.13361150195318,
          "velocity": 0.6299212598425197,
          "duration": 0.08110900585937486
        },
        {
          "name": "F5",
          "midi": 77,
          "time": 117.13361150195318,
          "velocity": 0.7401574803149606,
          "duration": 0.08924703320312233
        },
        {
          "name": "C#3",
          "midi": 49,
          "time": 117.13361150195318,
          "velocity": 0.6299212598425197,
          "duration": 0.3662112304687497
        },
        {
          "name": "C#4",
          "midi": 61,
          "time": 117.13361150195318,
          "velocity": 0.7401574803149606,
          "duration": 0.3662112304687497
        },
        {
          "name": "F4",
          "midi": 65,
          "time": 117.22312980273443,
          "velocity": 0.6299212598425197,
          "duration": 0.11013463671875456
        },
        {
          "name": "A#4",
          "midi": 70,
          "time": 117.22312980273443,
          "velocity": 0.6299212598425197,
          "duration": 0.11013463671875456
        },
        {
          "name": "C#5",
          "midi": 73,
          "time": 117.22312980273443,
          "velocity": 0.7401574803149606,
          "duration": 0.11013463671875456
        },
        {
          "name": "A#4",
          "midi": 70,
          "time": 117.50009400000006,
          "velocity": 0.6377952755905512,
          "duration": 0.11474618554687765
        },
        {
          "name": "C#5",
          "midi": 73,
          "time": 117.50009400000006,
          "velocity": 0.6377952755905512,
          "duration": 0.11474618554687765
        },
        {
          "name": "F5",
          "midi": 77,
          "time": 117.50009400000006,
          "velocity": 0.7480314960629921,
          "duration": 0.11474618554687765
        },
        {
          "name": "D#3",
          "midi": 51,
          "time": 117.50009400000006,
          "velocity": 0.6377952755905512,
          "duration": 0.18500448828125116
        },
        {
          "name": "D#4",
          "midi": 63,
          "time": 117.50009400000006,
          "velocity": 0.7480314960629921,
          "duration": 0.19314251562499862
        },
        {
          "name": "E4",
          "midi": 64,
          "time": 117.69350778320319,
          "velocity": 0.6929133858267716,
          "duration": 0.07975266796874791
        },
        {
          "name": "F4",
          "midi": 65,
          "time": 117.78166974609381,
          "velocity": 0.6299212598425197,
          "duration": 0.10715069335937244
        },
        {
          "name": "A#4",
          "midi": 70,
          "time": 117.78166974609381,
          "velocity": 0.6299212598425197,
          "duration": 0.10715069335937244
        },
        {
          "name": "C#5",
          "midi": 73,
          "time": 117.78166974609381,
          "velocity": 0.7401574803149606,
          "duration": 0.10715069335937244
        },
        {
          "name": "F3",
          "midi": 53,
          "time": 117.78166974609381,
          "velocity": 0.6299212598425197,
          "duration": 0.10715069335937244
        },
        {
          "name": "F4",
          "midi": 65,
          "time": 117.78166974609381,
          "velocity": 0.7401574803149606,
          "duration": 0.10715069335937244
        },
        {
          "name": "F4",
          "midi": 65,
          "time": 118.05565000000006,
          "velocity": 0.6692913385826772,
          "duration": 0.5560985351562522
        },
        {
          "name": "A4",
          "midi": 69,
          "time": 118.05565000000006,
          "velocity": 0.6692913385826772,
          "duration": 0.5560985351562522
        },
        {
          "name": "C5",
          "midi": 72,
          "time": 118.05565000000006,
          "velocity": 0.6692913385826772,
          "duration": 0.5560985351562522
        },
        {
          "name": "D#5",
          "midi": 75,
          "time": 118.05565000000006,
          "velocity": 0.7795275590551181,
          "duration": 0.5560985351562522
        },
        {
          "name": "F2",
          "midi": 41,
          "time": 118.05565000000006,
          "velocity": 0.6692913385826772,
          "duration": 0.4665802343750016
        },
        {
          "name": "F3",
          "midi": 53,
          "time": 118.05565000000006,
          "velocity": 0.7795275590551181,
          "duration": 0.4665802343750016
        },
        {
          "name": "A2",
          "midi": 45,
          "time": 118.52250150195319,
          "velocity": 0.6299212598425197,
          "duration": 0.3662112304687497
        },
        {
          "name": "A3",
          "midi": 57,
          "time": 118.52250150195319,
          "velocity": 0.7401574803149606,
          "duration": 0.3662112304687497
        },
        {
          "name": "F4",
          "midi": 65,
          "time": 118.88898400000006,
          "velocity": 0.6377952755905512,
          "duration": 0.18500448828125116
        },
        {
          "name": "C5",
          "midi": 72,
          "time": 118.88898400000006,
          "velocity": 0.6377952755905512,
          "duration": 0.18500448828125116
        },
        {
          "name": "D#5",
          "midi": 75,
          "time": 118.88898400000006,
          "velocity": 0.7165354330708661,
          "duration": 0.19314251562499862
        },
        {
          "name": "C3",
          "midi": 48,
          "time": 118.88898400000006,
          "velocity": 0.6377952755905512,
          "duration": 0.18500448828125116
        },
        {
          "name": "C4",
          "midi": 60,
          "time": 118.88898400000006,
          "velocity": 0.7480314960629921,
          "duration": 0.19314251562499862
        },
        {
          "name": "C#5",
          "midi": 73,
          "time": 119.08239778320319,
          "velocity": 0.6929133858267716,
          "duration": 0.07975266796874791
        },
        {
          "name": "C#4",
          "midi": 61,
          "time": 119.08239778320319,
          "velocity": 0.6929133858267716,
          "duration": 0.07975266796874791
        },
        {
          "name": "F4",
          "midi": 65,
          "time": 119.17055974609382,
          "velocity": 0.6299212598425197,
          "duration": 0.17279744726562285
        },
        {
          "name": "C5",
          "midi": 72,
          "time": 119.17055974609382,
          "velocity": 0.6299212598425197,
          "duration": 0.17279744726562285
        },
        {
          "name": "D#5",
          "midi": 75,
          "time": 119.17055974609382,
          "velocity": 0.7401574803149606,
          "duration": 0.18093547460937032
        },
        {
          "name": "D#3",
          "midi": 51,
          "time": 119.17055974609382,
          "velocity": 0.6299212598425197,
          "duration": 0.10715069335937244
        },
        {
          "name": "D#4",
          "midi": 63,
          "time": 119.17055974609382,
          "velocity": 0.7401574803149606,
          "duration": 0.10715069335937244
        },
        {
          "name": "E5",
          "midi": 76,
          "time": 119.35176648828131,
          "velocity": 0.6929133858267716,
          "duration": 0.084364216796871
        },
        {
          "name": "A#4",
          "midi": 70,
          "time": 119.44454000000006,
          "velocity": 0.6692913385826772,
          "duration": 0.1939563183593691
        },
        {
          "name": "C#5",
          "midi": 73,
          "time": 119.44454000000006,
          "velocity": 0.6692913385826772,
          "duration": 0.18581829101562164
        },
        {
          "name": "F5",
          "midi": 77,
          "time": 119.44454000000006,
          "velocity": 0.7795275590551181,
          "duration": 0.1939563183593691
        },
        {
          "name": "A#2",
          "midi": 46,
          "time": 119.44454000000006,
          "velocity": 0.6692913385826772,
          "duration": 0.4665802343749874
        },
        {
          "name": "A#3",
          "midi": 58,
          "time": 119.44454000000006,
          "velocity": 0.7795275590551181,
          "duration": 0.4665802343749874
        },
        {
          "name": "F4",
          "midi": 65,
          "time": 119.63876758593756,
          "velocity": 0.6299212598425197,
          "duration": 0.1057943554687455
        },
        {
          "name": "A#4",
          "midi": 70,
          "time": 119.63876758593756,
          "velocity": 0.6299212598425197,
          "duration": 0.1057943554687455
        },
        {
          "name": "C#5",
          "midi": 73,
          "time": 119.63876758593756,
          "velocity": 0.7401574803149606,
          "duration": 0.1057943554687455
        },
        {
          "name": "A#4",
          "midi": 70,
          "time": 119.91139150195318,
          "velocity": 0.6299212598425197,
          "duration": 0.08924703320312233
        },
        {
          "name": "C#5",
          "midi": 73,
          "time": 119.91139150195318,
          "velocity": 0.6299212598425197,
          "duration": 0.08110900585937486
        },
        {
          "name": "F5",
          "midi": 77,
          "time": 119.91139150195318,
          "velocity": 0.7401574803149606,
          "duration": 0.08924703320312233
        },
        {
          "name": "C#3",
          "midi": 49,
          "time": 119.91139150195318,
          "velocity": 0.6299212598425197,
          "duration": 0.3662112304687497
        },
        {
          "name": "C#4",
          "midi": 61,
          "time": 119.91139150195318,
          "velocity": 0.7401574803149606,
          "duration": 0.3662112304687497
        },
        {
          "name": "F4",
          "midi": 65,
          "time": 120.00090980273443,
          "velocity": 0.6299212598425197,
          "duration": 0.11013463671875456
        },
        {
          "name": "A#4",
          "midi": 70,
          "time": 120.00090980273443,
          "velocity": 0.6299212598425197,
          "duration": 0.11013463671875456
        },
        {
          "name": "C#5",
          "midi": 73,
          "time": 120.00090980273443,
          "velocity": 0.7401574803149606,
          "duration": 0.11013463671875456
        },
        {
          "name": "A#4",
          "midi": 70,
          "time": 120.27787400000005,
          "velocity": 0.6377952755905512,
          "duration": 0.11474618554687765
        },
        {
          "name": "C#5",
          "midi": 73,
          "time": 120.27787400000005,
          "velocity": 0.6377952755905512,
          "duration": 0.11474618554687765
        },
        {
          "name": "F5",
          "midi": 77,
          "time": 120.27787400000005,
          "velocity": 0.7480314960629921,
          "duration": 0.11474618554687765
        },
        {
          "name": "D#3",
          "midi": 51,
          "time": 120.27787400000005,
          "velocity": 0.6377952755905512,
          "duration": 0.18500448828125116
        },
        {
          "name": "D#4",
          "midi": 63,
          "time": 120.27787400000005,
          "velocity": 0.7480314960629921,
          "duration": 0.19314251562499862
        },
        {
          "name": "E4",
          "midi": 64,
          "time": 120.47128778320318,
          "velocity": 0.6929133858267716,
          "duration": 0.07975266796874791
        },
        {
          "name": "F4",
          "midi": 65,
          "time": 120.5594497460938,
          "velocity": 0.6299212598425197,
          "duration": 0.10715069335937244
        },
        {
          "name": "A#4",
          "midi": 70,
          "time": 120.5594497460938,
          "velocity": 0.6299212598425197,
          "duration": 0.10715069335937244
        },
        {
          "name": "C#5",
          "midi": 73,
          "time": 120.5594497460938,
          "velocity": 0.7401574803149606,
          "duration": 0.10715069335937244
        },
        {
          "name": "F3",
          "midi": 53,
          "time": 120.5594497460938,
          "velocity": 0.6299212598425197,
          "duration": 0.10715069335937244
        },
        {
          "name": "F4",
          "midi": 65,
          "time": 120.5594497460938,
          "velocity": 0.7401574803149606,
          "duration": 0.10715069335937244
        },
        {
          "name": "F4",
          "midi": 65,
          "time": 120.83343000000005,
          "velocity": 0.6692913385826772,
          "duration": 0.5560985351562522
        },
        {
          "name": "A4",
          "midi": 69,
          "time": 120.83343000000005,
          "velocity": 0.6692913385826772,
          "duration": 0.5560985351562522
        },
        {
          "name": "C5",
          "midi": 72,
          "time": 120.83343000000005,
          "velocity": 0.6692913385826772,
          "duration": 0.5560985351562522
        },
        {
          "name": "D#5",
          "midi": 75,
          "time": 120.83343000000005,
          "velocity": 0.7795275590551181,
          "duration": 0.5560985351562522
        },
        {
          "name": "F2",
          "midi": 41,
          "time": 120.83343000000005,
          "velocity": 0.6692913385826772,
          "duration": 0.4665802343750016
        },
        {
          "name": "F3",
          "midi": 53,
          "time": 120.83343000000005,
          "velocity": 0.7795275590551181,
          "duration": 0.4665802343750016
        },
        {
          "name": "A2",
          "midi": 45,
          "time": 121.30028150195318,
          "velocity": 0.6299212598425197,
          "duration": 0.3662112304687497
        },
        {
          "name": "A3",
          "midi": 57,
          "time": 121.30028150195318,
          "velocity": 0.7401574803149606,
          "duration": 0.3662112304687497
        },
        {
          "name": "F4",
          "midi": 65,
          "time": 121.66676400000006,
          "velocity": 0.6377952755905512,
          "duration": 0.18500448828125116
        },
        {
          "name": "C5",
          "midi": 72,
          "time": 121.66676400000006,
          "velocity": 0.6377952755905512,
          "duration": 0.18500448828125116
        },
        {
          "name": "D#5",
          "midi": 75,
          "time": 121.66676400000006,
          "velocity": 0.7165354330708661,
          "duration": 0.19314251562499862
        },
        {
          "name": "C3",
          "midi": 48,
          "time": 121.66676400000006,
          "velocity": 0.6377952755905512,
          "duration": 0.18500448828125116
        },
        {
          "name": "C4",
          "midi": 60,
          "time": 121.66676400000006,
          "velocity": 0.7480314960629921,
          "duration": 0.19314251562499862
        },
        {
          "name": "C#5",
          "midi": 73,
          "time": 121.86017778320318,
          "velocity": 0.6929133858267716,
          "duration": 0.07975266796874791
        },
        {
          "name": "C#4",
          "midi": 61,
          "time": 121.86017778320318,
          "velocity": 0.6929133858267716,
          "duration": 0.07975266796874791
        },
        {
          "name": "F4",
          "midi": 65,
          "time": 121.94833974609381,
          "velocity": 0.6299212598425197,
          "duration": 0.17279744726562285
        },
        {
          "name": "C5",
          "midi": 72,
          "time": 121.94833974609381,
          "velocity": 0.6299212598425197,
          "duration": 0.17279744726562285
        },
        {
          "name": "D#5",
          "midi": 75,
          "time": 121.94833974609381,
          "velocity": 0.7401574803149606,
          "duration": 0.18093547460937032
        },
        {
          "name": "D#3",
          "midi": 51,
          "time": 121.94833974609381,
          "velocity": 0.6299212598425197,
          "duration": 0.10715069335937244
        },
        {
          "name": "D#4",
          "midi": 63,
          "time": 121.94833974609381,
          "velocity": 0.7401574803149606,
          "duration": 0.10715069335937244
        },
        {
          "name": "E5",
          "midi": 76,
          "time": 122.1295464882813,
          "velocity": 0.6929133858267716,
          "duration": 0.084364216796871
        },
        {
          "name": "A#4",
          "midi": 70,
          "time": 122.22340507031255,
          "velocity": 0.6692913385826772,
          "duration": 0.1180013964843738
        },
        {
          "name": "C#5",
          "midi": 73,
          "time": 122.22340507031255,
          "velocity": 0.6692913385826772,
          "duration": 0.1180013964843738
        },
        {
          "name": "F5",
          "midi": 77,
          "time": 122.22340507031255,
          "velocity": 0.7795275590551181,
          "duration": 0.1180013964843738
        },
        {
          "name": "A#2",
          "midi": 46,
          "time": 122.22340507031255,
          "velocity": 0.6692913385826772,
          "duration": 0.5598962812499906
        },
        {
          "name": "A#3",
          "midi": 58,
          "time": 122.22340507031255,
          "velocity": 0.7795275590551181,
          "duration": 0.5598962812499906
        },
        {
          "name": "C#5",
          "midi": 73,
          "time": 122.5082360273438,
          "velocity": 0.6377952755905512,
          "duration": 0.10850703124999939
        },
        {
          "name": "F5",
          "midi": 77,
          "time": 122.5082360273438,
          "velocity": 0.6377952755905512,
          "duration": 0.10850703124999939
        },
        {
          "name": "A#5",
          "midi": 82,
          "time": 122.5082360273438,
          "velocity": 0.7480314960629921,
          "duration": 0.10850703124999939
        },
        {
          "name": "C#5",
          "midi": 73,
          "time": 122.78357261914067,
          "velocity": 0.6535433070866141,
          "duration": 0.10850703124999939
        },
        {
          "name": "F5",
          "midi": 77,
          "time": 122.78357261914067,
          "velocity": 0.6535433070866141,
          "duration": 0.10850703124999939
        },
        {
          "name": "G#5",
          "midi": 80,
          "time": 122.78357261914067,
          "velocity": 0.7637795275590551,
          "duration": 0.10850703124999939
        },
        {
          "name": "G#2",
          "midi": 44,
          "time": 122.78357261914067,
          "velocity": 0.6535433070866141,
          "duration": 0.5495881132812457
        },
        {
          "name": "G#3",
          "midi": 56,
          "time": 122.78357261914067,
          "velocity": 0.7637795275590551,
          "duration": 0.5495881132812457
        },
        {
          "name": "A#4",
          "midi": 70,
          "time": 123.05890921093754,
          "velocity": 0.6377952755905512,
          "duration": 0.1076932285156289
        },
        {
          "name": "C#5",
          "midi": 73,
          "time": 123.05890921093754,
          "velocity": 0.6377952755905512,
          "duration": 0.1076932285156289
        },
        {
          "name": "F#5",
          "midi": 78,
          "time": 123.05890921093754,
          "velocity": 0.7480314960629921,
          "duration": 0.1076932285156289
        },
        {
          "name": "A#4",
          "midi": 70,
          "time": 123.33451707031254,
          "velocity": 0.6692913385826772,
          "duration": 0.18500448828125116
        },
        {
          "name": "C#5",
          "midi": 73,
          "time": 123.33451707031254,
          "velocity": 0.6692913385826772,
          "duration": 0.18500448828125116
        },
        {
          "name": "F5",
          "midi": 77,
          "time": 123.33451707031254,
          "velocity": 0.7795275590551181,
          "duration": 0.19314251562499862
        },
        {
          "name": "F#2",
          "midi": 42,
          "time": 123.33451707031254,
          "velocity": 0.6692913385826772,
          "duration": 0.46793657226561436
        },
        {
          "name": "F#3",
          "midi": 54,
          "time": 123.33451707031254,
          "velocity": 0.7795275590551181,
          "duration": 0.46793657226561436
        },
        {
          "name": "D#5",
          "midi": 75,
          "time": 123.52793085351567,
          "velocity": 0.6929133858267716,
          "duration": 0.08300787890624406
        },
        {
          "name": "F#4",
          "midi": 66,
          "time": 123.61934802734379,
          "velocity": 0.6377952755905512,
          "duration": 0.17496758789062028
        },
        {
          "name": "A#4",
          "midi": 70,
          "time": 123.61934802734379,
          "velocity": 0.6377952755905512,
          "duration": 0.17496758789062028
        },
        {
          "name": "E5",
          "midi": 76,
          "time": 123.61934802734379,
          "velocity": 0.7480314960629921,
          "duration": 0.18310561523436775
        },
        {
          "name": "A4",
          "midi": 69,
          "time": 123.80272491015629,
          "velocity": 0.6299212598425197,
          "duration": 0.3670250332031202
        },
        {
          "name": "C5",
          "midi": 72,
          "time": 123.80272491015629,
          "velocity": 0.6299212598425197,
          "duration": 0.3670250332031202
        },
        {
          "name": "F5",
          "midi": 77,
          "time": 123.80272491015629,
          "velocity": 0.7401574803149606,
          "duration": 0.3670250332031202
        },
        {
          "name": "F2",
          "midi": 41,
          "time": 123.80272491015629,
          "velocity": 0.6299212598425197,
          "duration": 0.26828363476562345
        },
        {
          "name": "F3",
          "midi": 53,
          "time": 123.80272491015629,
          "velocity": 0.7401574803149606,
          "duration": 0.2764216621093709
        },
        {
          "name": "D#3",
          "midi": 51,
          "time": 124.07941783984379,
          "velocity": 0.6929133858267716,
          "duration": 0.08219407617187358
        },
        {
          "name": "F2",
          "midi": 41,
          "time": 124.17002121093753,
          "velocity": 0.6377952755905512,
          "duration": 0.2742515214843735
        },
        {
          "name": "F3",
          "midi": 53,
          "time": 124.17002121093753,
          "velocity": 0.7480314960629921,
          "duration": 0.2742515214843735
        },
        {
          "name": "C#4",
          "midi": 61,
          "time": 124.44562907031253,
          "velocity": 0.6692913385826772,
          "duration": 0.18500448828125116
        },
        {
          "name": "F4",
          "midi": 65,
          "time": 124.44562907031253,
          "velocity": 0.6692913385826772,
          "duration": 0.19314251562499862
        },
        {
          "name": "A#4",
          "midi": 70,
          "time": 124.44562907031253,
          "velocity": 0.7795275590551181,
          "duration": 0.19314251562499862
        },
        {
          "name": "A#2",
          "midi": 46,
          "time": 124.44562907031253,
          "velocity": 0.6692913385826772,
          "duration": 0.2845596894531184
        },
        {
          "name": "A#3",
          "midi": 58,
          "time": 124.44562907031253,
          "velocity": 0.7795275590551181,
          "duration": 0.2845596894531184
        },
        {
          "name": "C#5",
          "midi": 73,
          "time": 124.63904285351566,
          "velocity": 0.6929133858267716,
          "duration": 0.08300787890624406
        },
        {
          "name": "F4",
          "midi": 65,
          "time": 124.73046002734378,
          "velocity": 0.6377952755905512,
          "duration": 0.17496758789062028
        },
        {
          "name": "A#4",
          "midi": 70,
          "time": 124.73046002734378,
          "velocity": 0.6377952755905512,
          "duration": 0.17496758789062028
        },
        {
          "name": "D#5",
          "midi": 75,
          "time": 124.73046002734378,
          "velocity": 0.7480314960629921,
          "duration": 0.18310561523436775
        },
        {
          "name": "A#2",
          "midi": 46,
          "time": 124.73046002734378,
          "velocity": 0.6377952755905512,
          "duration": 0.27506532421874397
        },
        {
          "name": "A#3",
          "midi": 58,
          "time": 124.73046002734378,
          "velocity": 0.7480314960629921,
          "duration": 0.27506532421874397
        },
        {
          "name": "G#4",
          "midi": 68,
          "time": 124.91383691015628,
          "velocity": 0.6299212598425197,
          "duration": 0.08355041406250052
        },
        {
          "name": "E5",
          "midi": 76,
          "time": 124.91383691015628,
          "velocity": 0.7401574803149606,
          "duration": 0.09168844140624799
        },
        {
          "name": "G#2",
          "midi": 44,
          "time": 125.00579661914065,
          "velocity": 0.6535433070866141,
          "duration": 0.27506532421874397
        },
        {
          "name": "G#3",
          "midi": 56,
          "time": 125.00579661914065,
          "velocity": 0.7637795275590551,
          "duration": 0.27506532421874397
        },
        {
          "name": "G#4",
          "midi": 68,
          "time": 125.19052983984378,
          "velocity": 0.6299212598425197,
          "duration": 0.10715069335937244
        },
        {
          "name": "C5",
          "midi": 72,
          "time": 125.19052983984378,
          "velocity": 0.6299212598425197,
          "duration": 0.10715069335937244
        },
        {
          "name": "F5",
          "midi": 77,
          "time": 125.19052983984378,
          "velocity": 0.7401574803149606,
          "duration": 0.10715069335937244
        },
        {
          "name": "G#2",
          "midi": 44,
          "time": 125.28113321093753,
          "velocity": 0.6377952755905512,
          "duration": 0.2742515214843735
        },
        {
          "name": "G#3",
          "midi": 56,
          "time": 125.28113321093753,
          "velocity": 0.7480314960629921,
          "duration": 0.2742515214843735
        },
        {
          "name": "F4",
          "midi": 65,
          "time": 125.46451009375002,
          "velocity": 0.6299212598425197,
          "duration": 0.08273661132813004
        },
        {
          "name": "C#5",
          "midi": 73,
          "time": 125.46451009375002,
          "velocity": 0.7401574803149606,
          "duration": 0.0908746386718775
        },
        {
          "name": "F#4",
          "midi": 66,
          "time": 125.55674107031253,
          "velocity": 0.6692913385826772,
          "duration": 0.18500448828125116
        },
        {
          "name": "A#4",
          "midi": 70,
          "time": 125.55674107031253,
          "velocity": 0.6692913385826772,
          "duration": 0.18500448828125116
        },
        {
          "name": "D#5",
          "midi": 75,
          "time": 125.55674107031253,
          "velocity": 0.7795275590551181,
          "duration": 0.19314251562499862
        },
        {
          "name": "F#2",
          "midi": 42,
          "time": 125.55674107031253,
          "velocity": 0.6692913385826772,
          "duration": 0.2845596894531184
        },
        {
          "name": "F#3",
          "midi": 54,
          "time": 125.55674107031253,
          "velocity": 0.7795275590551181,
          "duration": 0.2845596894531184
        },
        {
          "name": "C#5",
          "midi": 73,
          "time": 125.75015485351565,
          "velocity": 0.6929133858267716,
          "duration": 0.08300787890624406
        },
        {
          "name": "F#4",
          "midi": 66,
          "time": 125.84157202734377,
          "velocity": 0.6377952755905512,
          "duration": 0.17496758789062028
        },
        {
          "name": "A#4",
          "midi": 70,
          "time": 125.84157202734377,
          "velocity": 0.6377952755905512,
          "duration": 0.17496758789062028
        },
        {
          "name": "D#5",
          "midi": 75,
          "time": 125.84157202734377,
          "velocity": 0.7480314960629921,
          "duration": 0.18310561523436775
        },
        {
          "name": "F#2",
          "midi": 42,
          "time": 125.84157202734377,
          "velocity": 0.6377952755905512,
          "duration": 0.17496758789062028
        },
        {
          "name": "F#3",
          "midi": 54,
          "time": 125.84157202734377,
          "velocity": 0.7480314960629921,
          "duration": 0.18310561523436775
        },
        {
          "name": "A4",
          "midi": 69,
          "time": 126.02494891015627,
          "velocity": 0.6299212598425197,
          "duration": 0.3670250332031202
        },
        {
          "name": "C5",
          "midi": 72,
          "time": 126.02494891015627,
          "velocity": 0.6299212598425197,
          "duration": 0.3670250332031202
        },
        {
          "name": "F5",
          "midi": 77,
          "time": 126.02494891015627,
          "velocity": 0.7401574803149606,
          "duration": 0.3670250332031202
        },
        {
          "name": "F2",
          "midi": 41,
          "time": 126.02494891015627,
          "velocity": 0.6299212598425197,
          "duration": 0.26828363476562345
        },
        {
          "name": "F3",
          "midi": 53,
          "time": 126.02494891015627,
          "velocity": 0.7401574803149606,
          "duration": 0.2764216621093709
        },
        {
          "name": "D#3",
          "midi": 51,
          "time": 126.30164183984377,
          "velocity": 0.6929133858267716,
          "duration": 0.08219407617187358
        },
        {
          "name": "F2",
          "midi": 41,
          "time": 126.39224521093752,
          "velocity": 0.6377952755905512,
          "duration": 0.2742515214843735
        },
        {
          "name": "F3",
          "midi": 53,
          "time": 126.39224521093752,
          "velocity": 0.7480314960629921,
          "duration": 0.2742515214843735
        },
        {
          "name": "A#4",
          "midi": 70,
          "time": 126.66785307031252,
          "velocity": 0.6692913385826772,
          "duration": 0.18500448828125116
        },
        {
          "name": "C#5",
          "midi": 73,
          "time": 126.66785307031252,
          "velocity": 0.6692913385826772,
          "duration": 0.19314251562499862
        },
        {
          "name": "F5",
          "midi": 77,
          "time": 126.66785307031252,
          "velocity": 0.7795275590551181,
          "duration": 0.19314251562499862
        },
        {
          "name": "A#2",
          "midi": 46,
          "time": 126.66785307031252,
          "velocity": 0.6692913385826772,
          "duration": 0.2845596894531326
        },
        {
          "name": "A#3",
          "midi": 58,
          "time": 126.66785307031252,
          "velocity": 0.7795275590551181,
          "duration": 0.2845596894531326
        },
        {
          "name": "C#5",
          "midi": 73,
          "time": 126.86126685351564,
          "velocity": 0.6299212598425197,
          "duration": 0.10796449609375713
        },
        {
          "name": "F5",
          "midi": 77,
          "time": 126.86126685351564,
          "velocity": 0.6299212598425197,
          "duration": 0.10796449609375713
        },
        {
          "name": "A#5",
          "midi": 82,
          "time": 126.86126685351564,
          "velocity": 0.7401574803149606,
          "duration": 0.10796449609375713
        },
        {
          "name": "A#2",
          "midi": 46,
          "time": 126.95268402734378,
          "velocity": 0.6377952755905512,
          "duration": 0.27506532421874397
        },
        {
          "name": "A#3",
          "midi": 58,
          "time": 126.95268402734378,
          "velocity": 0.7480314960629921,
          "duration": 0.27506532421874397
        },
        {
          "name": "C#5",
          "midi": 73,
          "time": 127.13606091015627,
          "velocity": 0.6299212598425197,
          "duration": 0.08355041406250052
        },
        {
          "name": "F5",
          "midi": 77,
          "time": 127.13606091015627,
          "velocity": 0.6299212598425197,
          "duration": 0.08355041406250052
        },
        {
          "name": "A#5",
          "midi": 82,
          "time": 127.13606091015627,
          "velocity": 0.7401574803149606,
          "duration": 0.09168844140624799
        },
        {
          "name": "C5",
          "midi": 72,
          "time": 127.22802061914065,
          "velocity": 0.6535433070866141,
          "duration": 0.17632392578124723
        },
        {
          "name": "D#5",
          "midi": 75,
          "time": 127.22802061914065,
          "velocity": 0.6535433070866141,
          "duration": 0.17632392578124723
        },
        {
          "name": "G#5",
          "midi": 80,
          "time": 127.22802061914065,
          "velocity": 0.7637795275590551,
          "duration": 0.1844619531249947
        },
        {
          "name": "G#2",
          "midi": 44,
          "time": 127.22802061914065,
          "velocity": 0.6535433070866141,
          "duration": 0.27506532421874397
        },
        {
          "name": "G#3",
          "midi": 56,
          "time": 127.22802061914065,
          "velocity": 0.7637795275590551,
          "duration": 0.27506532421874397
        },
        {
          "name": "F5",
          "midi": 77,
          "time": 127.41275383984377,
          "velocity": 0.6929133858267716,
          "duration": 0.08219407617187358
        },
        {
          "name": "G#4",
          "midi": 68,
          "time": 127.50335721093752,
          "velocity": 0.6377952755905512,
          "duration": 0.17496758789062028
        },
        {
          "name": "D#5",
          "midi": 75,
          "time": 127.50335721093752,
          "velocity": 0.7480314960629921,
          "duration": 0.18310561523436775
        },
        {
          "name": "G#2",
          "midi": 44,
          "time": 127.50335721093752,
          "velocity": 0.6377952755905512,
          "duration": 0.2742515214843735
        },
        {
          "name": "G#3",
          "midi": 56,
          "time": 127.50335721093752,
          "velocity": 0.7480314960629921,
          "duration": 0.2742515214843735
        },
        {
          "name": "C#5",
          "midi": 73,
          "time": 127.68673409375002,
          "velocity": 0.6929133858267716,
          "duration": 0.08273661132813004
        },
        {
          "name": "F#4",
          "midi": 66,
          "time": 127.77896507031252,
          "velocity": 0.6692913385826772,
          "duration": 0.18500448828125116
        },
        {
          "name": "A#4",
          "midi": 70,
          "time": 127.77896507031252,
          "velocity": 0.6692913385826772,
          "duration": 0.18500448828125116
        },
        {
          "name": "D#5",
          "midi": 75,
          "time": 127.77896507031252,
          "velocity": 0.7795275590551181,
          "duration": 0.19314251562499862
        },
        {
          "name": "F#2",
          "midi": 42,
          "time": 127.77896507031252,
          "velocity": 0.6692913385826772,
          "duration": 0.2845596894531468
        },
        {
          "name": "F#3",
          "midi": 54,
          "time": 127.77896507031252,
          "velocity": 0.7795275590551181,
          "duration": 0.2845596894531468
        },
        {
          "name": "C#5",
          "midi": 73,
          "time": 127.97237885351565,
          "velocity": 0.6929133858267716,
          "duration": 0.08300787890625827
        },
        {
          "name": "F#4",
          "midi": 66,
          "time": 128.06379602734378,
          "velocity": 0.6377952755905512,
          "duration": 0.17496758789062028
        },
        {
          "name": "A#4",
          "midi": 70,
          "time": 128.06379602734378,
          "velocity": 0.6377952755905512,
          "duration": 0.17496758789062028
        },
        {
          "name": "D#5",
          "midi": 75,
          "time": 128.06379602734378,
          "velocity": 0.7480314960629921,
          "duration": 0.18310561523438196
        },
        {
          "name": "F#2",
          "midi": 42,
          "time": 128.06379602734378,
          "velocity": 0.6377952755905512,
          "duration": 0.17496758789062028
        },
        {
          "name": "F#3",
          "midi": 54,
          "time": 128.06379602734378,
          "velocity": 0.7480314960629921,
          "duration": 0.18310561523438196
        },
        {
          "name": "A4",
          "midi": 69,
          "time": 128.24717291015628,
          "velocity": 0.6299212598425197,
          "duration": 0.3670250332031344
        },
        {
          "name": "C5",
          "midi": 72,
          "time": 128.24717291015628,
          "velocity": 0.6299212598425197,
          "duration": 0.3670250332031344
        },
        {
          "name": "F5",
          "midi": 77,
          "time": 128.24717291015628,
          "velocity": 0.7401574803149606,
          "duration": 0.3670250332031344
        },
        {
          "name": "F2",
          "midi": 41,
          "time": 128.24717291015628,
          "velocity": 0.6299212598425197,
          "duration": 0.3670250332031344
        },
        {
          "name": "F3",
          "midi": 53,
          "time": 128.24717291015628,
          "velocity": 0.7401574803149606,
          "duration": 0.3670250332031344
        },
        {
          "name": "F#4",
          "midi": 66,
          "time": 128.61446921093753,
          "velocity": 0.6377952755905512,
          "duration": 0.10769322851561469
        },
        {
          "name": "D#5",
          "midi": 75,
          "time": 128.61446921093753,
          "velocity": 0.7480314960629921,
          "duration": 0.10769322851561469
        },
        {
          "name": "D#2",
          "midi": 39,
          "time": 128.61446921093753,
          "velocity": 0.6299212598425197,
          "duration": 0.2742515214843593
        },
        {
          "name": "D#3",
          "midi": 51,
          "time": 128.61446921093753,
          "velocity": 0.7480314960629921,
          "duration": 0.2742515214843593
        },
        {
          "name": "F4",
          "midi": 65,
          "time": 128.89007707031251,
          "velocity": 0.6692913385826772,
          "duration": 0.18500448828123695
        },
        {
          "name": "G#4",
          "midi": 68,
          "time": 128.89007707031251,
          "velocity": 0.6692913385826772,
          "duration": 0.18500448828123695
        },
        {
          "name": "C#5",
          "midi": 73,
          "time": 128.89007707031251,
          "velocity": 0.7795275590551181,
          "duration": 0.19314251562499862
        },
        {
          "name": "E2",
          "midi": 40,
          "time": 128.89007707031251,
          "velocity": 0.6614173228346457,
          "duration": 0.46793657226561436
        },
        {
          "name": "E3",
          "midi": 52,
          "time": 128.89007707031251,
          "velocity": 0.7795275590551181,
          "duration": 0.46793657226561436
        },
        {
          "name": "C5",
          "midi": 72,
          "time": 129.08349085351563,
          "velocity": 0.6929133858267716,
          "duration": 0.08300787890624406
        },
        {
          "name": "C#4",
          "midi": 61,
          "time": 129.17490802734375,
          "velocity": 0.6377952755905512,
          "duration": 0.17496758789062028
        },
        {
          "name": "F4",
          "midi": 65,
          "time": 129.17490802734375,
          "velocity": 0.6377952755905512,
          "duration": 0.18310561523438196
        },
        {
          "name": "A#4",
          "midi": 70,
          "time": 129.17490802734375,
          "velocity": 0.7480314960629921,
          "duration": 0.18310561523438196
        },
        {
          "name": "F4",
          "midi": 65,
          "time": 129.35828491015624,
          "velocity": 0.6299212598425197,
          "duration": 0.2764216621093851
        },
        {
          "name": "G#4",
          "midi": 68,
          "time": 129.35828491015624,
          "velocity": 0.6299212598425197,
          "duration": 0.2764216621093851
        },
        {
          "name": "C#5",
          "midi": 73,
          "time": 129.35828491015624,
          "velocity": 0.7401574803149606,
          "duration": 0.2764216621093851
        },
        {
          "name": "E2",
          "midi": 40,
          "time": 129.35828491015624,
          "velocity": 0.6220472440944882,
          "duration": 0.3670250332031344
        },
        {
          "name": "E3",
          "midi": 52,
          "time": 129.35828491015624,
          "velocity": 0.7086614173228346,
          "duration": 0.3670250332031344
        },
        {
          "name": "C5",
          "midi": 72,
          "time": 129.63497783984374,
          "velocity": 0.6929133858267716,
          "duration": 0.08219407617187358
        },
        {
          "name": "C#4",
          "midi": 61,
          "time": 129.7255812109375,
          "velocity": 0.6377952755905512,
          "duration": 0.10769322851561469
        },
        {
          "name": "F4",
          "midi": 65,
          "time": 129.7255812109375,
          "velocity": 0.6377952755905512,
          "duration": 0.10769322851561469
        },
        {
          "name": "A#4",
          "midi": 70,
          "time": 129.7255812109375,
          "velocity": 0.7480314960629921,
          "duration": 0.10769322851561469
        },
        {
          "name": "E2",
          "midi": 40,
          "time": 129.7255812109375,
          "velocity": 0.6299212598425197,
          "duration": 0.2742515214843593
        },
        {
          "name": "E3",
          "midi": 52,
          "time": 129.7255812109375,
          "velocity": 0.7480314960629921,
          "duration": 0.2742515214843593
        },
        {
          "name": "C4",
          "midi": 60,
          "time": 130.00118907031248,
          "velocity": 0.6692913385826772,
          "duration": 0.2845596894531184
        },
        {
          "name": "F4",
          "midi": 65,
          "time": 130.00118907031248,
          "velocity": 0.6692913385826772,
          "duration": 0.2845596894531184
        },
        {
          "name": "A4",
          "midi": 69,
          "time": 130.00118907031248,
          "velocity": 0.6692913385826772,
          "duration": 0.2845596894531184
        },
        {
          "name": "C5",
          "midi": 72,
          "time": 130.00118907031248,
          "velocity": 0.7795275590551181,
          "duration": 0.2845596894531184
        },
        {
          "name": "F2",
          "midi": 41,
          "time": 130.00118907031248,
          "velocity": 0.6692913385826772,
          "duration": 0.5598962812499906
        },
        {
          "name": "F3",
          "midi": 53,
          "time": 130.00118907031248,
          "velocity": 0.7795275590551181,
          "duration": 0.5598962812499906
        },
        {
          "name": "A4",
          "midi": 69,
          "time": 130.56135661914058,
          "velocity": 0.6535433070866141,
          "duration": 0.2750653242187582
        },
        {
          "name": "C5",
          "midi": 72,
          "time": 130.56135661914058,
          "velocity": 0.6535433070866141,
          "duration": 0.2750653242187582
        },
        {
          "name": "F5",
          "midi": 77,
          "time": 130.56135661914058,
          "velocity": 0.7637795275590551,
          "duration": 0.2750653242187582
        },
        {
          "name": "F1",
          "midi": 29,
          "time": 130.56135661914058,
          "velocity": 0.6535433070866141,
          "duration": 0.5495881132812599
        },
        {
          "name": "F2",
          "midi": 41,
          "time": 130.56135661914058,
          "velocity": 0.7637795275590551,
          "duration": 0.5495881132812599
        },
        {
          "name": "A#4",
          "midi": 70,
          "time": 131.11121599999996,
          "velocity": 0.8031496062992126,
          "duration": 2.684735220703118
        },
        {
          "name": "C#5",
          "midi": 73,
          "time": 131.11121599999996,
          "velocity": 0.8031496062992126,
          "duration": 2.684735220703118
        },
        {
          "name": "F5",
          "midi": 77,
          "time": 131.11121599999996,
          "velocity": 0.8031496062992126,
          "duration": 2.684735220703118
        },
        {
          "name": "A#5",
          "midi": 82,
          "time": 131.11121599999996,
          "velocity": 0.9133858267716536,
          "duration": 2.684735220703118
        },
        {
          "name": "A#2",
          "midi": 46,
          "time": 131.11121599999996,
          "velocity": 0.6692913385826772,
          "duration": 0.4665802343749874
        },
        {
          "name": "A#3",
          "midi": 58,
          "time": 131.11121599999996,
          "velocity": 0.7795275590551181,
          "duration": 0.4665802343749874
        },
        {
          "name": "C#3",
          "midi": 49,
          "time": 131.57806750195306,
          "velocity": 0.6299212598425197,
          "duration": 0.3662112304687639
        },
        {
          "name": "C#4",
          "midi": 61,
          "time": 131.57806750195306,
          "velocity": 0.7401574803149606,
          "duration": 0.3662112304687639
        },
        {
          "name": "D#3",
          "midi": 51,
          "time": 131.94454999999994,
          "velocity": 0.6377952755905512,
          "duration": 0.18500448828123695
        },
        {
          "name": "D#4",
          "midi": 63,
          "time": 131.94454999999994,
          "velocity": 0.7480314960629921,
          "duration": 0.19314251562499862
        },
        {
          "name": "E4",
          "midi": 64,
          "time": 132.13796378320305,
          "velocity": 0.6929133858267716,
          "duration": 0.07975266796876213
        },
        {
          "name": "F3",
          "midi": 53,
          "time": 132.2261257460937,
          "velocity": 0.6299212598425197,
          "duration": 0.10715069335938665
        },
        {
          "name": "F4",
          "midi": 65,
          "time": 132.2261257460937,
          "velocity": 0.7401574803149606,
          "duration": 0.10715069335938665
        },
        {
          "name": "A#2",
          "midi": 46,
          "time": 132.50010599999996,
          "velocity": 0.6692913385826772,
          "duration": 0.4665802343749874
        },
        {
          "name": "A#3",
          "midi": 58,
          "time": 132.50010599999996,
          "velocity": 0.7795275590551181,
          "duration": 0.4665802343749874
        },
        {
          "name": "C#3",
          "midi": 49,
          "time": 132.96695750195306,
          "velocity": 0.6299212598425197,
          "duration": 0.3662112304687639
        },
        {
          "name": "C#4",
          "midi": 61,
          "time": 132.96695750195306,
          "velocity": 0.7401574803149606,
          "duration": 0.3662112304687639
        },
        {
          "name": "E3",
          "midi": 52,
          "time": 133.33343999999994,
          "velocity": 0.6377952755905512,
          "duration": 0.18500448828123695
        },
        {
          "name": "E4",
          "midi": 64,
          "time": 133.33343999999994,
          "velocity": 0.7480314960629921,
          "duration": 0.19314251562499862
        },
        {
          "name": "D#4",
          "midi": 63,
          "time": 133.52685378320305,
          "velocity": 0.6929133858267716,
          "duration": 0.07975266796876213
        },
        {
          "name": "C#3",
          "midi": 49,
          "time": 133.6150157460937,
          "velocity": 0.6299212598425197,
          "duration": 0.10715069335938665
        },
        {
          "name": "C#4",
          "midi": 61,
          "time": 133.6150157460937,
          "velocity": 0.7401574803149606,
          "duration": 0.10715069335938665
        },
        {
          "name": "A#4",
          "midi": 70,
          "time": 133.7962224882812,
          "velocity": 0.5354330708661418,
          "duration": 0.37706193359375106
        },
        {
          "name": "C#5",
          "midi": 73,
          "time": 133.7962224882812,
          "velocity": 0.5354330708661418,
          "duration": 0.37706193359375106
        },
        {
          "name": "F5",
          "midi": 77,
          "time": 133.7962224882812,
          "velocity": 0.5354330708661418,
          "duration": 0.37706193359375106
        },
        {
          "name": "A#5",
          "midi": 82,
          "time": 133.7962224882812,
          "velocity": 0.6141732283464567,
          "duration": 0.37706193359375106
        },
        {
          "name": "A#2",
          "midi": 46,
          "time": 133.88899599999993,
          "velocity": 0.6692913385826772,
          "duration": 0.4665802343749874
        },
        {
          "name": "A#3",
          "midi": 58,
          "time": 133.88899599999993,
          "velocity": 0.7795275590551181,
          "duration": 0.4665802343749874
        },
        {
          "name": "F4",
          "midi": 65,
          "time": 134.17355568945305,
          "velocity": 0.6299212598425197,
          "duration": 0.548503042968747
        },
        {
          "name": "G#4",
          "midi": 68,
          "time": 134.17355568945305,
          "velocity": 0.6299212598425197,
          "duration": 0.548503042968747
        },
        {
          "name": "A#4",
          "midi": 70,
          "time": 134.17355568945305,
          "velocity": 0.7401574803149606,
          "duration": 0.548503042968747
        },
        {
          "name": "C#3",
          "midi": 49,
          "time": 134.35584750195304,
          "velocity": 0.6299212598425197,
          "duration": 0.3662112304687639
        },
        {
          "name": "C#4",
          "midi": 61,
          "time": 134.35584750195304,
          "velocity": 0.7401574803149606,
          "duration": 0.3662112304687639
        },
        {
          "name": "D#3",
          "midi": 51,
          "time": 134.7223299999999,
          "velocity": 0.6377952755905512,
          "duration": 0.18500448828123695
        },
        {
          "name": "D#4",
          "midi": 63,
          "time": 134.7223299999999,
          "velocity": 0.7480314960629921,
          "duration": 0.19314251562499862
        },
        {
          "name": "E4",
          "midi": 64,
          "time": 134.91574378320303,
          "velocity": 0.6929133858267716,
          "duration": 0.07975266796876213
        },
        {
          "name": "F3",
          "midi": 53,
          "time": 135.00390574609366,
          "velocity": 0.6299212598425197,
          "duration": 0.10715069335938665
        },
        {
          "name": "F4",
          "midi": 65,
          "time": 135.00390574609366,
          "velocity": 0.7401574803149606,
          "duration": 0.10715069335938665
        },
        {
          "name": "F4",
          "midi": 65,
          "time": 135.18511248828116,
          "velocity": 0.6299212598425197,
          "duration": 0.09250224414063268
        },
        {
          "name": "G#4",
          "midi": 68,
          "time": 135.18511248828116,
          "velocity": 0.6299212598425197,
          "duration": 0.09250224414063268
        },
        {
          "name": "A#4",
          "midi": 70,
          "time": 135.18511248828116,
          "velocity": 0.7086614173228346,
          "duration": 0.09250224414063268
        },
        {
          "name": "F4",
          "midi": 65,
          "time": 135.2778859999999,
          "velocity": 0.6692913385826772,
          "duration": 0.11773012890625978
        },
        {
          "name": "G#4",
          "midi": 68,
          "time": 135.2778859999999,
          "velocity": 0.6692913385826772,
          "duration": 0.11773012890625978
        },
        {
          "name": "A#4",
          "midi": 70,
          "time": 135.2778859999999,
          "velocity": 0.7480314960629921,
          "duration": 0.11773012890625978
        },
        {
          "name": "A#2",
          "midi": 46,
          "time": 135.2778859999999,
          "velocity": 0.6692913385826772,
          "duration": 0.46658023437501583
        },
        {
          "name": "A#3",
          "midi": 58,
          "time": 135.2778859999999,
          "velocity": 0.7795275590551181,
          "duration": 0.46658023437501583
        },
        {
          "name": "C#3",
          "midi": 49,
          "time": 135.74473750195304,
          "velocity": 0.6299212598425197,
          "duration": 0.3662112304687639
        },
        {
          "name": "C#4",
          "midi": 61,
          "time": 135.74473750195304,
          "velocity": 0.7401574803149606,
          "duration": 0.3662112304687639
        },
        {
          "name": "F4",
          "midi": 65,
          "time": 136.0176326855468,
          "velocity": 0.6299212598425197,
          "duration": 0.08517801953124149
        },
        {
          "name": "G#4",
          "midi": 68,
          "time": 136.0176326855468,
          "velocity": 0.6299212598425197,
          "duration": 0.08517801953124149
        },
        {
          "name": "A#4",
          "midi": 70,
          "time": 136.0176326855468,
          "velocity": 0.7086614173228346,
          "duration": 0.09331604687500317
        },
        {
          "name": "E3",
          "midi": 52,
          "time": 136.11121999999992,
          "velocity": 0.6377952755905512,
          "duration": 0.18500448828123695
        },
        {
          "name": "E4",
          "midi": 64,
          "time": 136.11121999999992,
          "velocity": 0.7480314960629921,
          "duration": 0.19314251562499862
        },
        {
          "name": "D#4",
          "midi": 63,
          "time": 136.30463378320303,
          "velocity": 0.6929133858267716,
          "duration": 0.07975266796876213
        },
        {
          "name": "C#3",
          "midi": 49,
          "time": 136.39279574609367,
          "velocity": 0.6299212598425197,
          "duration": 0.10715069335938665
        },
        {
          "name": "C#4",
          "midi": 61,
          "time": 136.39279574609367,
          "velocity": 0.7401574803149606,
          "duration": 0.10715069335938665
        },
        {
          "name": "F4",
          "midi": 65,
          "time": 136.66677599999994,
          "velocity": 0.7322834645669292,
          "duration": 0.18581829101563585
        },
        {
          "name": "A#2",
          "midi": 46,
          "time": 136.66677599999994,
          "velocity": 0.6692913385826772,
          "duration": 0.46658023437501583
        },
        {
          "name": "A#3",
          "midi": 58,
          "time": 136.66677599999994,
          "velocity": 0.7795275590551181,
          "duration": 0.46658023437501583
        },
        {
          "name": "C#4",
          "midi": 61,
          "time": 136.86100358593745,
          "velocity": 0.6929133858267716,
          "duration": 0.1057943554687597
        },
        {
          "name": "F4",
          "midi": 65,
          "time": 137.13362750195307,
          "velocity": 0.6929133858267716,
          "duration": 0.08110900585938907
        },
        {
          "name": "C#3",
          "midi": 49,
          "time": 137.13362750195307,
          "velocity": 0.6299212598425197,
          "duration": 0.3662112304687639
        },
        {
          "name": "C#4",
          "midi": 61,
          "time": 137.13362750195307,
          "velocity": 0.7401574803149606,
          "duration": 0.19965293750001933
        },
        {
          "name": "C#4",
          "midi": 61,
          "time": 137.22314580273434,
          "velocity": 0.6929133858267716,
          "duration": 0.27669292968749915
        },
        {
          "name": "F4",
          "midi": 65,
          "time": 137.50010999999995,
          "velocity": 0.7007874015748031,
          "duration": 0.11474618554686344
        },
        {
          "name": "D#3",
          "midi": 51,
          "time": 137.50010999999995,
          "velocity": 0.6377952755905512,
          "duration": 0.18500448828123695
        },
        {
          "name": "D#4",
          "midi": 63,
          "time": 137.50010999999995,
          "velocity": 0.7480314960629921,
          "duration": 0.19314251562499862
        },
        {
          "name": "E4",
          "midi": 64,
          "time": 137.69352378320306,
          "velocity": 0.6929133858267716,
          "duration": 0.07975266796876213
        },
        {
          "name": "C#4",
          "midi": 61,
          "time": 137.7816857460937,
          "velocity": 0.6929133858267716,
          "duration": 0.10715069335938665
        },
        {
          "name": "F3",
          "midi": 53,
          "time": 137.7816857460937,
          "velocity": 0.6299212598425197,
          "duration": 0.10715069335938665
        },
        {
          "name": "F4",
          "midi": 65,
          "time": 137.7816857460937,
          "velocity": 0.7401574803149606,
          "duration": 0.10715069335938665
        },
        {
          "name": "D#4",
          "midi": 63,
          "time": 138.05566599999997,
          "velocity": 0.7322834645669292,
          "duration": 0.5560985351562238
        },
        {
          "name": "F2",
          "midi": 41,
          "time": 138.05566599999997,
          "velocity": 0.6692913385826772,
          "duration": 0.4665802343749874
        },
        {
          "name": "F3",
          "midi": 53,
          "time": 138.05566599999997,
          "velocity": 0.7795275590551181,
          "duration": 0.4665802343749874
        },
        {
          "name": "A2",
          "midi": 45,
          "time": 138.52251750195308,
          "velocity": 0.6299212598425197,
          "duration": 0.3662112304687355
        },
        {
          "name": "A3",
          "midi": 57,
          "time": 138.52251750195308,
          "velocity": 0.7401574803149606,
          "duration": 0.3662112304687355
        },
        {
          "name": "D#4",
          "midi": 63,
          "time": 138.88899999999992,
          "velocity": 0.7007874015748031,
          "duration": 0.18500448828123695
        },
        {
          "name": "C3",
          "midi": 48,
          "time": 138.88899999999992,
          "velocity": 0.6377952755905512,
          "duration": 0.18500448828123695
        },
        {
          "name": "C4",
          "midi": 60,
          "time": 138.88899999999992,
          "velocity": 0.7480314960629921,
          "duration": 0.19314251562499862
        },
        {
          "name": "C#4",
          "midi": 61,
          "time": 139.08241378320304,
          "velocity": 0.6929133858267716,
          "duration": 0.07975266796876213
        },
        {
          "name": "C#4",
          "midi": 61,
          "time": 139.08241378320304,
          "velocity": 0.6929133858267716,
          "duration": 0.07975266796876213
        },
        {
          "name": "D#4",
          "midi": 63,
          "time": 139.17057574609368,
          "velocity": 0.6929133858267716,
          "duration": 0.10715069335938665
        },
        {
          "name": "D#3",
          "midi": 51,
          "time": 139.17057574609368,
          "velocity": 0.6299212598425197,
          "duration": 0.10715069335938665
        },
        {
          "name": "D#4",
          "midi": 63,
          "time": 139.17057574609368,
          "velocity": 0.7401574803149606,
          "duration": 0.17279744726562285
        },
        {
          "name": "E4",
          "midi": 64,
          "time": 139.35178248828117,
          "velocity": 0.6929133858267716,
          "duration": 0.084364216796871
        },
        {
          "name": "F4",
          "midi": 65,
          "time": 139.44455599999992,
          "velocity": 0.7322834645669292,
          "duration": 0.18581829101563585
        },
        {
          "name": "A#2",
          "midi": 46,
          "time": 139.44455599999992,
          "velocity": 0.6692913385826772,
          "duration": 0.46658023437501583
        },
        {
          "name": "A#3",
          "midi": 58,
          "time": 139.44455599999992,
          "velocity": 0.7795275590551181,
          "duration": 0.46658023437501583
        },
        {
          "name": "C#4",
          "midi": 61,
          "time": 139.63878358593743,
          "velocity": 0.6929133858267716,
          "duration": 0.1057943554687597
        },
        {
          "name": "F4",
          "midi": 65,
          "time": 139.91140750195305,
          "velocity": 0.6929133858267716,
          "duration": 0.08110900585938907
        },
        {
          "name": "C#3",
          "midi": 49,
          "time": 139.91140750195305,
          "velocity": 0.6299212598425197,
          "duration": 0.3662112304687639
        },
        {
          "name": "C#4",
          "midi": 61,
          "time": 139.91140750195305,
          "velocity": 0.7401574803149606,
          "duration": 0.19965293750001933
        },
        {
          "name": "C#4",
          "midi": 61,
          "time": 140.00092580273432,
          "velocity": 0.6929133858267716,
          "duration": 0.27669292968749915
        },
        {
          "name": "F4",
          "midi": 65,
          "time": 140.27788999999993,
          "velocity": 0.7007874015748031,
          "duration": 0.11474618554686344
        },
        {
          "name": "D#3",
          "midi": 51,
          "time": 140.27788999999993,
          "velocity": 0.6377952755905512,
          "duration": 0.18500448828123695
        },
        {
          "name": "D#4",
          "midi": 63,
          "time": 140.27788999999993,
          "velocity": 0.7480314960629921,
          "duration": 0.19314251562499862
        },
        {
          "name": "E4",
          "midi": 64,
          "time": 140.47130378320304,
          "velocity": 0.6929133858267716,
          "duration": 0.07975266796876213
        },
        {
          "name": "C#4",
          "midi": 61,
          "time": 140.55946574609368,
          "velocity": 0.6929133858267716,
          "duration": 0.10715069335938665
        },
        {
          "name": "F3",
          "midi": 53,
          "time": 140.55946574609368,
          "velocity": 0.6299212598425197,
          "duration": 0.10715069335938665
        },
        {
          "name": "F4",
          "midi": 65,
          "time": 140.55946574609368,
          "velocity": 0.7401574803149606,
          "duration": 0.10715069335938665
        },
        {
          "name": "D#4",
          "midi": 63,
          "time": 140.83344599999995,
          "velocity": 0.7322834645669292,
          "duration": 0.5560985351562238
        },
        {
          "name": "F2",
          "midi": 41,
          "time": 140.83344599999995,
          "velocity": 0.6692913385826772,
          "duration": 0.4665802343749874
        },
        {
          "name": "F3",
          "midi": 53,
          "time": 140.83344599999995,
          "velocity": 0.7795275590551181,
          "duration": 0.4665802343749874
        },
        {
          "name": "A2",
          "midi": 45,
          "time": 141.30029750195305,
          "velocity": 0.6299212598425197,
          "duration": 0.3662112304687355
        },
        {
          "name": "A3",
          "midi": 57,
          "time": 141.30029750195305,
          "velocity": 0.7401574803149606,
          "duration": 0.3662112304687355
        },
        {
          "name": "D#4",
          "midi": 63,
          "time": 141.6667799999999,
          "velocity": 0.7007874015748031,
          "duration": 0.18500448828123695
        },
        {
          "name": "C3",
          "midi": 48,
          "time": 141.6667799999999,
          "velocity": 0.6377952755905512,
          "duration": 0.18500448828123695
        },
        {
          "name": "C4",
          "midi": 60,
          "time": 141.6667799999999,
          "velocity": 0.7480314960629921,
          "duration": 0.19314251562499862
        },
        {
          "name": "C#4",
          "midi": 61,
          "time": 141.86019378320302,
          "velocity": 0.6929133858267716,
          "duration": 0.07975266796876213
        },
        {
          "name": "C#4",
          "midi": 61,
          "time": 141.86019378320302,
          "velocity": 0.6929133858267716,
          "duration": 0.07975266796876213
        },
        {
          "name": "D#4",
          "midi": 63,
          "time": 141.94835574609365,
          "velocity": 0.6929133858267716,
          "duration": 0.10715069335938665
        },
        {
          "name": "D#3",
          "midi": 51,
          "time": 141.94835574609365,
          "velocity": 0.6299212598425197,
          "duration": 0.10715069335938665
        },
        {
          "name": "D#4",
          "midi": 63,
          "time": 141.94835574609365,
          "velocity": 0.7401574803149606,
          "duration": 0.17279744726562285
        },
        {
          "name": "E4",
          "midi": 64,
          "time": 142.12956248828115,
          "velocity": 0.6929133858267716,
          "duration": 0.084364216796871
        },
        {
          "name": "A#4",
          "midi": 70,
          "time": 142.2234210703124,
          "velocity": 0.6692913385826772,
          "duration": 0.1180013964843738
        },
        {
          "name": "C#5",
          "midi": 73,
          "time": 142.2234210703124,
          "velocity": 0.6692913385826772,
          "duration": 0.1180013964843738
        },
        {
          "name": "F5",
          "midi": 77,
          "time": 142.2234210703124,
          "velocity": 0.7795275590551181,
          "duration": 0.1180013964843738
        },
        {
          "name": "A#2",
          "midi": 46,
          "time": 142.2234210703124,
          "velocity": 0.6692913385826772,
          "duration": 0.559896281250019
        },
        {
          "name": "A#3",
          "midi": 58,
          "time": 142.2234210703124,
          "velocity": 0.7795275590551181,
          "duration": 0.559896281250019
        },
        {
          "name": "C#5",
          "midi": 73,
          "time": 142.50825202734367,
          "velocity": 0.6377952755905512,
          "duration": 0.1085070312500136
        },
        {
          "name": "F5",
          "midi": 77,
          "time": 142.50825202734367,
          "velocity": 0.6377952755905512,
          "duration": 0.1085070312500136
        },
        {
          "name": "A#5",
          "midi": 82,
          "time": 142.50825202734367,
          "velocity": 0.7480314960629921,
          "duration": 0.1085070312500136
        },
        {
          "name": "C#5",
          "midi": 73,
          "time": 142.78358861914055,
          "velocity": 0.6535433070866141,
          "duration": 0.1085070312500136
        },
        {
          "name": "F5",
          "midi": 77,
          "time": 142.78358861914055,
          "velocity": 0.6535433070866141,
          "duration": 0.1085070312500136
        },
        {
          "name": "G#5",
          "midi": 80,
          "time": 142.78358861914055,
          "velocity": 0.7637795275590551,
          "duration": 0.1085070312500136
        },
        {
          "name": "G#2",
          "midi": 44,
          "time": 142.78358861914055,
          "velocity": 0.6535433070866141,
          "duration": 0.5495881132812599
        },
        {
          "name": "G#3",
          "midi": 56,
          "time": 142.78358861914055,
          "velocity": 0.7637795275590551,
          "duration": 0.5495881132812599
        },
        {
          "name": "A#4",
          "midi": 70,
          "time": 143.05892521093745,
          "velocity": 0.6377952755905512,
          "duration": 0.10769322851561469
        },
        {
          "name": "C#5",
          "midi": 73,
          "time": 143.05892521093745,
          "velocity": 0.6377952755905512,
          "duration": 0.10769322851561469
        },
        {
          "name": "F#5",
          "midi": 78,
          "time": 143.05892521093745,
          "velocity": 0.7480314960629921,
          "duration": 0.10769322851561469
        },
        {
          "name": "A#4",
          "midi": 70,
          "time": 143.33453307031243,
          "velocity": 0.6692913385826772,
          "duration": 0.18500448828123695
        },
        {
          "name": "C#5",
          "midi": 73,
          "time": 143.33453307031243,
          "velocity": 0.6692913385826772,
          "duration": 0.18500448828123695
        },
        {
          "name": "F5",
          "midi": 77,
          "time": 143.33453307031243,
          "velocity": 0.7795275590551181,
          "duration": 0.19314251562499862
        },
        {
          "name": "F#2",
          "midi": 42,
          "time": 143.33453307031243,
          "velocity": 0.6692913385826772,
          "duration": 0.46793657226561436
        },
        {
          "name": "F#3",
          "midi": 54,
          "time": 143.33453307031243,
          "velocity": 0.7795275590551181,
          "duration": 0.46793657226561436
        },
        {
          "name": "D#5",
          "midi": 75,
          "time": 143.52794685351554,
          "velocity": 0.6929133858267716,
          "duration": 0.08300787890624406
        },
        {
          "name": "F#4",
          "midi": 66,
          "time": 143.61936402734366,
          "velocity": 0.6377952755905512,
          "duration": 0.17496758789062028
        },
        {
          "name": "A#4",
          "midi": 70,
          "time": 143.61936402734366,
          "velocity": 0.6377952755905512,
          "duration": 0.17496758789062028
        },
        {
          "name": "E5",
          "midi": 76,
          "time": 143.61936402734366,
          "velocity": 0.7480314960629921,
          "duration": 0.18310561523438196
        },
        {
          "name": "A4",
          "midi": 69,
          "time": 143.80274091015616,
          "velocity": 0.6299212598425197,
          "duration": 0.3670250332031344
        },
        {
          "name": "C5",
          "midi": 72,
          "time": 143.80274091015616,
          "velocity": 0.6299212598425197,
          "duration": 0.3670250332031344
        },
        {
          "name": "F5",
          "midi": 77,
          "time": 143.80274091015616,
          "velocity": 0.7401574803149606,
          "duration": 0.3670250332031344
        },
        {
          "name": "F2",
          "midi": 41,
          "time": 143.80274091015616,
          "velocity": 0.6299212598425197,
          "duration": 0.26828363476562345
        },
        {
          "name": "F3",
          "midi": 53,
          "time": 143.80274091015616,
          "velocity": 0.7401574803149606,
          "duration": 0.2764216621093851
        },
        {
          "name": "D#3",
          "midi": 51,
          "time": 144.07943383984366,
          "velocity": 0.6929133858267716,
          "duration": 0.08219407617187358
        },
        {
          "name": "F2",
          "midi": 41,
          "time": 144.1700372109374,
          "velocity": 0.6377952755905512,
          "duration": 0.2742515214843877
        },
        {
          "name": "F3",
          "midi": 53,
          "time": 144.1700372109374,
          "velocity": 0.7480314960629921,
          "duration": 0.2742515214843877
        },
        {
          "name": "C#4",
          "midi": 61,
          "time": 144.44564507031242,
          "velocity": 0.6692913385826772,
          "duration": 0.18500448828123695
        },
        {
          "name": "F4",
          "midi": 65,
          "time": 144.44564507031242,
          "velocity": 0.6692913385826772,
          "duration": 0.19314251562499862
        },
        {
          "name": "A#4",
          "midi": 70,
          "time": 144.44564507031242,
          "velocity": 0.7795275590551181,
          "duration": 0.19314251562499862
        },
        {
          "name": "A#2",
          "midi": 46,
          "time": 144.44564507031242,
          "velocity": 0.6692913385826772,
          "duration": 0.2845596894531184
        },
        {
          "name": "A#3",
          "midi": 58,
          "time": 144.44564507031242,
          "velocity": 0.7795275590551181,
          "duration": 0.2845596894531184
        },
        {
          "name": "C#5",
          "midi": 73,
          "time": 144.63905885351554,
          "velocity": 0.6929133858267716,
          "duration": 0.08300787890624406
        },
        {
          "name": "F4",
          "midi": 65,
          "time": 144.73047602734366,
          "velocity": 0.6377952755905512,
          "duration": 0.17496758789062028
        },
        {
          "name": "A#4",
          "midi": 70,
          "time": 144.73047602734366,
          "velocity": 0.6377952755905512,
          "duration": 0.17496758789062028
        },
        {
          "name": "D#5",
          "midi": 75,
          "time": 144.73047602734366,
          "velocity": 0.7480314960629921,
          "duration": 0.18310561523438196
        },
        {
          "name": "A#2",
          "midi": 46,
          "time": 144.73047602734366,
          "velocity": 0.6377952755905512,
          "duration": 0.2750653242187582
        },
        {
          "name": "A#3",
          "midi": 58,
          "time": 144.73047602734366,
          "velocity": 0.7480314960629921,
          "duration": 0.2750653242187582
        },
        {
          "name": "G#4",
          "midi": 68,
          "time": 144.91385291015615,
          "velocity": 0.6299212598425197,
          "duration": 0.08355041406250052
        },
        {
          "name": "E5",
          "midi": 76,
          "time": 144.91385291015615,
          "velocity": 0.7401574803149606,
          "duration": 0.0916884414062622
        },
        {
          "name": "G#2",
          "midi": 44,
          "time": 145.00581261914053,
          "velocity": 0.6535433070866141,
          "duration": 0.2750653242187582
        },
        {
          "name": "G#3",
          "midi": 56,
          "time": 145.00581261914053,
          "velocity": 0.7637795275590551,
          "duration": 0.2750653242187582
        },
        {
          "name": "G#4",
          "midi": 68,
          "time": 145.19054583984365,
          "velocity": 0.6299212598425197,
          "duration": 0.10715069335938665
        },
        {
          "name": "C5",
          "midi": 72,
          "time": 145.19054583984365,
          "velocity": 0.6299212598425197,
          "duration": 0.10715069335938665
        },
        {
          "name": "F5",
          "midi": 77,
          "time": 145.19054583984365,
          "velocity": 0.7401574803149606,
          "duration": 0.10715069335938665
        },
        {
          "name": "G#2",
          "midi": 44,
          "time": 145.2811492109374,
          "velocity": 0.6377952755905512,
          "duration": 0.2742515214844161
        },
        {
          "name": "G#3",
          "midi": 56,
          "time": 145.2811492109374,
          "velocity": 0.7480314960629921,
          "duration": 0.2742515214844161
        },
        {
          "name": "F4",
          "midi": 65,
          "time": 145.46452609374992,
          "velocity": 0.6299212598425197,
          "duration": 0.08273661132813004
        },
        {
          "name": "C#5",
          "midi": 73,
          "time": 145.46452609374992,
          "velocity": 0.7401574803149606,
          "duration": 0.09087463867189172
        },
        {
          "name": "F#4",
          "midi": 66,
          "time": 145.55675707031244,
          "velocity": 0.6692913385826772,
          "duration": 0.18500448828123695
        },
        {
          "name": "A#4",
          "midi": 70,
          "time": 145.55675707031244,
          "velocity": 0.6692913385826772,
          "duration": 0.18500448828123695
        },
        {
          "name": "D#5",
          "midi": 75,
          "time": 145.55675707031244,
          "velocity": 0.7795275590551181,
          "duration": 0.19314251562499862
        },
        {
          "name": "F#2",
          "midi": 42,
          "time": 145.55675707031244,
          "velocity": 0.6692913385826772,
          "duration": 0.2845596894531184
        },
        {
          "name": "F#3",
          "midi": 54,
          "time": 145.55675707031244,
          "velocity": 0.7795275590551181,
          "duration": 0.2845596894531184
        },
        {
          "name": "C#5",
          "midi": 73,
          "time": 145.75017085351556,
          "velocity": 0.6929133858267716,
          "duration": 0.08300787890624406
        },
        {
          "name": "F#4",
          "midi": 66,
          "time": 145.84158802734368,
          "velocity": 0.6377952755905512,
          "duration": 0.17496758789062028
        },
        {
          "name": "A#4",
          "midi": 70,
          "time": 145.84158802734368,
          "velocity": 0.6377952755905512,
          "duration": 0.17496758789062028
        },
        {
          "name": "D#5",
          "midi": 75,
          "time": 145.84158802734368,
          "velocity": 0.7480314960629921,
          "duration": 0.18310561523438196
        },
        {
          "name": "F#2",
          "midi": 42,
          "time": 145.84158802734368,
          "velocity": 0.6377952755905512,
          "duration": 0.17496758789062028
        },
        {
          "name": "F#3",
          "midi": 54,
          "time": 145.84158802734368,
          "velocity": 0.7480314960629921,
          "duration": 0.18310561523438196
        },
        {
          "name": "A4",
          "midi": 69,
          "time": 146.02496491015617,
          "velocity": 0.6299212598425197,
          "duration": 0.3670250332031344
        },
        {
          "name": "C5",
          "midi": 72,
          "time": 146.02496491015617,
          "velocity": 0.6299212598425197,
          "duration": 0.3670250332031344
        },
        {
          "name": "F5",
          "midi": 77,
          "time": 146.02496491015617,
          "velocity": 0.7401574803149606,
          "duration": 0.3670250332031344
        },
        {
          "name": "F2",
          "midi": 41,
          "time": 146.02496491015617,
          "velocity": 0.6299212598425197,
          "duration": 0.26828363476562345
        },
        {
          "name": "F3",
          "midi": 53,
          "time": 146.02496491015617,
          "velocity": 0.7401574803149606,
          "duration": 0.2764216621093851
        },
        {
          "name": "D#3",
          "midi": 51,
          "time": 146.30165783984367,
          "velocity": 0.6929133858267716,
          "duration": 0.08219407617187358
        },
        {
          "name": "F2",
          "midi": 41,
          "time": 146.39226121093742,
          "velocity": 0.6377952755905512,
          "duration": 0.2742515214843877
        },
        {
          "name": "F3",
          "midi": 53,
          "time": 146.39226121093742,
          "velocity": 0.7480314960629921,
          "duration": 0.2742515214843877
        },
        {
          "name": "A#4",
          "midi": 70,
          "time": 146.66786907031243,
          "velocity": 0.6692913385826772,
          "duration": 0.18500448828123695
        },
        {
          "name": "C#5",
          "midi": 73,
          "time": 146.66786907031243,
          "velocity": 0.6692913385826772,
          "duration": 0.19314251562499862
        },
        {
          "name": "F5",
          "midi": 77,
          "time": 146.66786907031243,
          "velocity": 0.7795275590551181,
          "duration": 0.19314251562499862
        },
        {
          "name": "A#2",
          "midi": 46,
          "time": 146.66786907031243,
          "velocity": 0.6692913385826772,
          "duration": 0.2845596894531184
        },
        {
          "name": "A#3",
          "midi": 58,
          "time": 146.66786907031243,
          "velocity": 0.7795275590551181,
          "duration": 0.2845596894531184
        },
        {
          "name": "C#5",
          "midi": 73,
          "time": 146.86128285351555,
          "velocity": 0.6299212598425197,
          "duration": 0.10796449609375713
        },
        {
          "name": "F5",
          "midi": 77,
          "time": 146.86128285351555,
          "velocity": 0.6299212598425197,
          "duration": 0.10796449609375713
        },
        {
          "name": "A#5",
          "midi": 82,
          "time": 146.86128285351555,
          "velocity": 0.7401574803149606,
          "duration": 0.10796449609375713
        },
        {
          "name": "A#2",
          "midi": 46,
          "time": 146.95270002734367,
          "velocity": 0.6377952755905512,
          "duration": 0.2750653242187866
        },
        {
          "name": "A#3",
          "midi": 58,
          "time": 146.95270002734367,
          "velocity": 0.7480314960629921,
          "duration": 0.2750653242187866
        },
        {
          "name": "C#5",
          "midi": 73,
          "time": 147.1360769101562,
          "velocity": 0.6299212598425197,
          "duration": 0.08355041406250052
        },
        {
          "name": "F5",
          "midi": 77,
          "time": 147.1360769101562,
          "velocity": 0.6299212598425197,
          "duration": 0.08355041406250052
        },
        {
          "name": "A#5",
          "midi": 82,
          "time": 147.1360769101562,
          "velocity": 0.7401574803149606,
          "duration": 0.0916884414062622
        },
        {
          "name": "C5",
          "midi": 72,
          "time": 147.22803661914057,
          "velocity": 0.6535433070866141,
          "duration": 0.17632392578124723
        },
        {
          "name": "D#5",
          "midi": 75,
          "time": 147.22803661914057,
          "velocity": 0.6535433070866141,
          "duration": 0.17632392578124723
        },
        {
          "name": "G#5",
          "midi": 80,
          "time": 147.22803661914057,
          "velocity": 0.7637795275590551,
          "duration": 0.1844619531250089
        },
        {
          "name": "G#2",
          "midi": 44,
          "time": 147.22803661914057,
          "velocity": 0.6535433070866141,
          "duration": 0.2750653242187582
        },
        {
          "name": "G#3",
          "midi": 56,
          "time": 147.22803661914057,
          "velocity": 0.7637795275590551,
          "duration": 0.2750653242187582
        },
        {
          "name": "F5",
          "midi": 77,
          "time": 147.4127698398437,
          "velocity": 0.6929133858267716,
          "duration": 0.08219407617187358
        },
        {
          "name": "G#4",
          "midi": 68,
          "time": 147.50337321093744,
          "velocity": 0.6377952755905512,
          "duration": 0.17496758789062028
        },
        {
          "name": "D#5",
          "midi": 75,
          "time": 147.50337321093744,
          "velocity": 0.7480314960629921,
          "duration": 0.18310561523438196
        },
        {
          "name": "G#2",
          "midi": 44,
          "time": 147.50337321093744,
          "velocity": 0.6377952755905512,
          "duration": 0.2742515214843877
        },
        {
          "name": "G#3",
          "midi": 56,
          "time": 147.50337321093744,
          "velocity": 0.7480314960629921,
          "duration": 0.2742515214843877
        },
        {
          "name": "C#5",
          "midi": 73,
          "time": 147.68675009374994,
          "velocity": 0.6929133858267716,
          "duration": 0.08273661132813004
        },
        {
          "name": "F#4",
          "midi": 66,
          "time": 147.77898107031245,
          "velocity": 0.6692913385826772,
          "duration": 0.18500448828123695
        },
        {
          "name": "A#4",
          "midi": 70,
          "time": 147.77898107031245,
          "velocity": 0.6692913385826772,
          "duration": 0.18500448828123695
        },
        {
          "name": "D#5",
          "midi": 75,
          "time": 147.77898107031245,
          "velocity": 0.7795275590551181,
          "duration": 0.19314251562499862
        },
        {
          "name": "F#2",
          "midi": 42,
          "time": 147.77898107031245,
          "velocity": 0.6692913385826772,
          "duration": 0.2845596894531184
        },
        {
          "name": "F#3",
          "midi": 54,
          "time": 147.77898107031245,
          "velocity": 0.7795275590551181,
          "duration": 0.2845596894531184
        },
        {
          "name": "C#5",
          "midi": 73,
          "time": 147.97239485351557,
          "velocity": 0.6929133858267716,
          "duration": 0.08300787890624406
        },
        {
          "name": "F#4",
          "midi": 66,
          "time": 148.0638120273437,
          "velocity": 0.6377952755905512,
          "duration": 0.17496758789062028
        },
        {
          "name": "A#4",
          "midi": 70,
          "time": 148.0638120273437,
          "velocity": 0.6377952755905512,
          "duration": 0.17496758789062028
        },
        {
          "name": "D#5",
          "midi": 75,
          "time": 148.0638120273437,
          "velocity": 0.7480314960629921,
          "duration": 0.18310561523438196
        },
        {
          "name": "F#2",
          "midi": 42,
          "time": 148.0638120273437,
          "velocity": 0.6377952755905512,
          "duration": 0.17496758789062028
        },
        {
          "name": "F#3",
          "midi": 54,
          "time": 148.0638120273437,
          "velocity": 0.7480314960629921,
          "duration": 0.18310561523438196
        },
        {
          "name": "A4",
          "midi": 69,
          "time": 148.24718891015618,
          "velocity": 0.6299212598425197,
          "duration": 0.3670250332031344
        },
        {
          "name": "C5",
          "midi": 72,
          "time": 148.24718891015618,
          "velocity": 0.6299212598425197,
          "duration": 0.3670250332031344
        },
        {
          "name": "F5",
          "midi": 77,
          "time": 148.24718891015618,
          "velocity": 0.7401574803149606,
          "duration": 0.3670250332031344
        },
        {
          "name": "F2",
          "midi": 41,
          "time": 148.24718891015618,
          "velocity": 0.6299212598425197,
          "duration": 0.3670250332031344
        },
        {
          "name": "F3",
          "midi": 53,
          "time": 148.24718891015618,
          "velocity": 0.7401574803149606,
          "duration": 0.3670250332031344
        },
        {
          "name": "F#4",
          "midi": 66,
          "time": 148.61448521093743,
          "velocity": 0.6377952755905512,
          "duration": 0.10769322851561469
        },
        {
          "name": "D#5",
          "midi": 75,
          "time": 148.61448521093743,
          "velocity": 0.7480314960629921,
          "duration": 0.10769322851561469
        },
        {
          "name": "D#2",
          "midi": 39,
          "time": 148.61448521093743,
          "velocity": 0.6299212598425197,
          "duration": 0.2742515214843593
        },
        {
          "name": "D#3",
          "midi": 51,
          "time": 148.61448521093743,
          "velocity": 0.7480314960629921,
          "duration": 0.2742515214843593
        },
        {
          "name": "F4",
          "midi": 65,
          "time": 148.89009307031242,
          "velocity": 0.6692913385826772,
          "duration": 0.18500448828123695
        },
        {
          "name": "G#4",
          "midi": 68,
          "time": 148.89009307031242,
          "velocity": 0.6692913385826772,
          "duration": 0.18500448828123695
        },
        {
          "name": "C#5",
          "midi": 73,
          "time": 148.89009307031242,
          "velocity": 0.7795275590551181,
          "duration": 0.19314251562499862
        },
        {
          "name": "E2",
          "midi": 40,
          "time": 148.89009307031242,
          "velocity": 0.6614173228346457,
          "duration": 0.46793657226561436
        },
        {
          "name": "E3",
          "midi": 52,
          "time": 148.89009307031242,
          "velocity": 0.7795275590551181,
          "duration": 0.46793657226561436
        },
        {
          "name": "C5",
          "midi": 72,
          "time": 149.08350685351553,
          "velocity": 0.6929133858267716,
          "duration": 0.08300787890624406
        },
        {
          "name": "C#4",
          "midi": 61,
          "time": 149.17492402734365,
          "velocity": 0.6377952755905512,
          "duration": 0.17496758789062028
        },
        {
          "name": "F4",
          "midi": 65,
          "time": 149.17492402734365,
          "velocity": 0.6377952755905512,
          "duration": 0.18310561523438196
        },
        {
          "name": "A#4",
          "midi": 70,
          "time": 149.17492402734365,
          "velocity": 0.7480314960629921,
          "duration": 0.18310561523438196
        },
        {
          "name": "F4",
          "midi": 65,
          "time": 149.35830091015615,
          "velocity": 0.6299212598425197,
          "duration": 0.2764216621093851
        },
        {
          "name": "G#4",
          "midi": 68,
          "time": 149.35830091015615,
          "velocity": 0.6299212598425197,
          "duration": 0.2764216621093851
        },
        {
          "name": "C#5",
          "midi": 73,
          "time": 149.35830091015615,
          "velocity": 0.7401574803149606,
          "duration": 0.2764216621093851
        },
        {
          "name": "E2",
          "midi": 40,
          "time": 149.35830091015615,
          "velocity": 0.6220472440944882,
          "duration": 0.3670250332031344
        },
        {
          "name": "E3",
          "midi": 52,
          "time": 149.35830091015615,
          "velocity": 0.7086614173228346,
          "duration": 0.3670250332031344
        },
        {
          "name": "D5",
          "midi": 74,
          "time": 149.63499383984364,
          "velocity": 0.6929133858267716,
          "duration": 0.08219407617187358
        },
        {
          "name": "F#4",
          "midi": 66,
          "time": 149.7255972109374,
          "velocity": 0.6377952755905512,
          "duration": 0.17496758789062028
        },
        {
          "name": "A#4",
          "midi": 70,
          "time": 149.7255972109374,
          "velocity": 0.6377952755905512,
          "duration": 0.17496758789062028
        },
        {
          "name": "D#5",
          "midi": 75,
          "time": 149.7255972109374,
          "velocity": 0.7480314960629921,
          "duration": 0.18310561523438196
        },
        {
          "name": "E2",
          "midi": 40,
          "time": 149.7255972109374,
          "velocity": 0.6299212598425197,
          "duration": 0.2742515214843877
        },
        {
          "name": "E3",
          "midi": 52,
          "time": 149.7255972109374,
          "velocity": 0.7480314960629921,
          "duration": 0.2742515214843877
        },
        {
          "name": "E5",
          "midi": 76,
          "time": 149.9089740937499,
          "velocity": 0.6929133858267716,
          "duration": 0.08273661132813004
        },
        {
          "name": "F4",
          "midi": 65,
          "time": 150.0012050703124,
          "velocity": 0.6692913385826772,
          "duration": 0.2845596894531184
        },
        {
          "name": "C5",
          "midi": 72,
          "time": 150.0012050703124,
          "velocity": 0.6692913385826772,
          "duration": 0.2845596894531184
        },
        {
          "name": "F5",
          "midi": 77,
          "time": 150.0012050703124,
          "velocity": 0.7795275590551181,
          "duration": 0.2845596894531184
        },
        {
          "name": "F2",
          "midi": 41,
          "time": 150.0012050703124,
          "velocity": 0.6692913385826772,
          "duration": 0.5598962812499906
        },
        {
          "name": "F3",
          "midi": 53,
          "time": 150.0012050703124,
          "velocity": 0.7795275590551181,
          "duration": 0.5598962812499906
        },
        {
          "name": "C5",
          "midi": 72,
          "time": 150.5613726191405,
          "velocity": 0.6535433070866141,
          "duration": 0.2750653242187582
        },
        {
          "name": "D#5",
          "midi": 75,
          "time": 150.5613726191405,
          "velocity": 0.6535433070866141,
          "duration": 0.2750653242187582
        },
        {
          "name": "A5",
          "midi": 81,
          "time": 150.5613726191405,
          "velocity": 0.7637795275590551,
          "duration": 0.2750653242187582
        },
        {
          "name": "F1",
          "midi": 29,
          "time": 150.5613726191405,
          "velocity": 0.6535433070866141,
          "duration": 0.5495881132812599
        },
        {
          "name": "F2",
          "midi": 41,
          "time": 150.5613726191405,
          "velocity": 0.7637795275590551,
          "duration": 0.5495881132812599
        },
        {
          "name": "A#4",
          "midi": 70,
          "time": 151.0200860937499,
          "velocity": 0.6299212598425197,
          "duration": 0.3767906660156086
        },
        {
          "name": "F5",
          "midi": 77,
          "time": 151.0200860937499,
          "velocity": 0.6299212598425197,
          "duration": 0.3767906660156086
        },
        {
          "name": "A#5",
          "midi": 82,
          "time": 151.0200860937499,
          "velocity": 0.7401574803149606,
          "duration": 0.3767906660156086
        },
        {
          "name": "A#1",
          "midi": 34,
          "time": 151.1123170703124,
          "velocity": 0.6535433070866141,
          "duration": 0.46793657226561436
        },
        {
          "name": "A#2",
          "midi": 46,
          "time": 151.1123170703124,
          "velocity": 0.7795275590551181,
          "duration": 0.46793657226561436
        },
        {
          "name": "C#2",
          "midi": 37,
          "time": 151.58052491015613,
          "velocity": 0.6220472440944882,
          "duration": 0.08355041406250052
        },
        {
          "name": "C#3",
          "midi": 49,
          "time": 151.58052491015613,
          "velocity": 0.7401574803149606,
          "duration": 0.0916884414062622
        },
        {
          "name": "A#4",
          "midi": 70,
          "time": 151.6724846191405,
          "velocity": 0.7165354330708661,
          "duration": 0.7359489394530954
        },
        {
          "name": "F2",
          "midi": 41,
          "time": 151.94782121093738,
          "velocity": 0.6377952755905512,
          "duration": 0.10769322851561469
        },
        {
          "name": "F3",
          "midi": 53,
          "time": 151.94782121093738,
          "velocity": 0.7480314960629921,
          "duration": 0.10769322851561469
        },
        {
          "name": "A#1",
          "midi": 34,
          "time": 152.22342907031236,
          "velocity": 0.6535433070866141,
          "duration": 0.46793657226561436
        },
        {
          "name": "A#2",
          "midi": 46,
          "time": 152.22342907031236,
          "velocity": 0.7795275590551181,
          "duration": 0.46793657226561436
        },
        {
          "name": "C#5",
          "midi": 73,
          "time": 152.41684285351548,
          "velocity": 0.6929133858267716,
          "duration": 0.08300787890624406
        },
        {
          "name": "C5",
          "midi": 72,
          "time": 152.5082600273436,
          "velocity": 0.7007874015748031,
          "duration": 0.17496758789062028
        },
        {
          "name": "A4",
          "midi": 69,
          "time": 152.6916369101561,
          "velocity": 0.6929133858267716,
          "duration": 0.08355041406250052
        },
        {
          "name": "C#2",
          "midi": 37,
          "time": 152.6916369101561,
          "velocity": 0.6220472440944882,
          "duration": 0.08355041406250052
        },
        {
          "name": "C#3",
          "midi": 49,
          "time": 152.6916369101561,
          "velocity": 0.7401574803149606,
          "duration": 0.0916884414062622
        },
        {
          "name": "A#4",
          "midi": 70,
          "time": 152.78359661914047,
          "velocity": 0.7165354330708661,
          "duration": 0.17632392578124723
        },
        {
          "name": "F#4",
          "midi": 66,
          "time": 152.9683298398436,
          "velocity": 0.6929133858267716,
          "duration": 0.08219407617187358
        },
        {
          "name": "F4",
          "midi": 65,
          "time": 153.05893321093734,
          "velocity": 0.7007874015748031,
          "duration": 0.17496758789062028
        },
        {
          "name": "F2",
          "midi": 41,
          "time": 153.05893321093734,
          "velocity": 0.6377952755905512,
          "duration": 0.10769322851561469
        },
        {
          "name": "F3",
          "midi": 53,
          "time": 153.05893321093734,
          "velocity": 0.7480314960629921,
          "duration": 0.10769322851561469
        },
        {
          "name": "G#4",
          "midi": 68,
          "time": 153.24231009374984,
          "velocity": 0.6929133858267716,
          "duration": 0.2772354648437272
        },
        {
          "name": "A#1",
          "midi": 34,
          "time": 153.33454107031233,
          "velocity": 0.6535433070866141,
          "duration": 0.46793657226561436
        },
        {
          "name": "A#2",
          "midi": 46,
          "time": 153.33454107031233,
          "velocity": 0.7795275590551181,
          "duration": 0.46793657226561436
        },
        {
          "name": "F4",
          "midi": 65,
          "time": 153.52795485351544,
          "velocity": 0.6929133858267716,
          "duration": 0.08300787890624406
        },
        {
          "name": "F#4",
          "midi": 66,
          "time": 153.61937202734356,
          "velocity": 0.7007874015748031,
          "duration": 0.17496758789062028
        },
        {
          "name": "D#4",
          "midi": 63,
          "time": 153.80274891015605,
          "velocity": 0.6929133858267716,
          "duration": 0.08355041406250052
        },
        {
          "name": "C#2",
          "midi": 37,
          "time": 153.80274891015605,
          "velocity": 0.6220472440944882,
          "duration": 0.08355041406250052
        },
        {
          "name": "C#3",
          "midi": 49,
          "time": 153.80274891015605,
          "velocity": 0.7401574803149606,
          "duration": 0.0916884414062622
        },
        {
          "name": "F4",
          "midi": 65,
          "time": 153.89470861914043,
          "velocity": 0.7165354330708661,
          "duration": 0.17632392578124723
        },
        {
          "name": "C#4",
          "midi": 61,
          "time": 154.07944183984355,
          "velocity": 0.6929133858267716,
          "duration": 0.08219407617187358
        },
        {
          "name": "D#4",
          "midi": 63,
          "time": 154.1700452109373,
          "velocity": 0.7007874015748031,
          "duration": 0.17496758789062028
        },
        {
          "name": "F2",
          "midi": 41,
          "time": 154.1700452109373,
          "velocity": 0.6377952755905512,
          "duration": 0.10769322851561469
        },
        {
          "name": "F3",
          "midi": 53,
          "time": 154.1700452109373,
          "velocity": 0.7480314960629921,
          "duration": 0.10769322851561469
        },
        {
          "name": "C4",
          "midi": 60,
          "time": 154.3534220937498,
          "velocity": 0.6929133858267716,
          "duration": 0.2772354648437272
        },
        {
          "name": "A#1",
          "midi": 34,
          "time": 154.4456530703123,
          "velocity": 0.6535433070866141,
          "duration": 0.46793657226561436
        },
        {
          "name": "A#2",
          "midi": 46,
          "time": 154.4456530703123,
          "velocity": 0.7795275590551181,
          "duration": 0.46793657226561436
        },
        {
          "name": "C#4",
          "midi": 61,
          "time": 154.6390668535154,
          "velocity": 0.6929133858267716,
          "duration": 0.2745227890625017
        },
        {
          "name": "A#3",
          "midi": 58,
          "time": 154.91386091015602,
          "velocity": 0.6299212598425197,
          "duration": 0.6415478222656077
        },
        {
          "name": "A#4",
          "midi": 70,
          "time": 154.91386091015602,
          "velocity": 0.7086614173228346,
          "duration": 0.6415478222656077
        },
        {
          "name": "C#2",
          "midi": 37,
          "time": 154.91386091015602,
          "velocity": 0.6220472440944882,
          "duration": 0.08355041406250052
        },
        {
          "name": "C#3",
          "midi": 49,
          "time": 154.91386091015602,
          "velocity": 0.7401574803149606,
          "duration": 0.0916884414062622
        },
        {
          "name": "F2",
          "midi": 41,
          "time": 155.28115721093727,
          "velocity": 0.6377952755905512,
          "duration": 0.10769322851561469
        },
        {
          "name": "F3",
          "midi": 53,
          "time": 155.28115721093727,
          "velocity": 0.7480314960629921,
          "duration": 0.10769322851561469
        },
        {
          "name": "A#3",
          "midi": 58,
          "time": 155.55676507031225,
          "velocity": 0.7322834645669292,
          "duration": 0.18500448828123695
        },
        {
          "name": "A#1",
          "midi": 34,
          "time": 155.55676507031225,
          "velocity": 0.6535433070866141,
          "duration": 0.46793657226561436
        },
        {
          "name": "A#2",
          "midi": 46,
          "time": 155.55676507031225,
          "velocity": 0.7795275590551181,
          "duration": 0.46793657226561436
        },
        {
          "name": "C#4",
          "midi": 61,
          "time": 155.75017885351537,
          "velocity": 0.6929133858267716,
          "duration": 0.08300787890624406
        },
        {
          "name": "D#4",
          "midi": 63,
          "time": 155.84159602734348,
          "velocity": 0.7007874015748031,
          "duration": 0.17496758789062028
        },
        {
          "name": "E4",
          "midi": 64,
          "time": 156.02497291015598,
          "velocity": 0.6929133858267716,
          "duration": 0.26828363476562345
        },
        {
          "name": "C#2",
          "midi": 37,
          "time": 156.02497291015598,
          "velocity": 0.6220472440944882,
          "duration": 0.08355041406250052
        },
        {
          "name": "C#3",
          "midi": 49,
          "time": 156.02497291015598,
          "velocity": 0.7401574803149606,
          "duration": 0.0916884414062622
        },
        {
          "name": "F4",
          "midi": 65,
          "time": 156.30166583984348,
          "velocity": 0.6929133858267716,
          "duration": 0.2737089863281028
        },
        {
          "name": "F2",
          "midi": 41,
          "time": 156.39226921093723,
          "velocity": 0.6377952755905512,
          "duration": 0.10769322851561469
        },
        {
          "name": "F3",
          "midi": 53,
          "time": 156.39226921093723,
          "velocity": 0.7480314960629921,
          "duration": 0.10769322851561469
        },
        {
          "name": "C#4",
          "midi": 61,
          "time": 156.5756460937497,
          "velocity": 0.6929133858267716,
          "duration": 0.08273661132813004
        },
        {
          "name": "E4",
          "midi": 64,
          "time": 156.66787707031222,
          "velocity": 0.7322834645669292,
          "duration": 0.2845596894531184
        },
        {
          "name": "E2",
          "midi": 40,
          "time": 156.66787707031222,
          "velocity": 0.6614173228346457,
          "duration": 0.46793657226561436
        },
        {
          "name": "E3",
          "midi": 52,
          "time": 156.66787707031222,
          "velocity": 0.7795275590551181,
          "duration": 0.46793657226561436
        },
        {
          "name": "E4",
          "midi": 64,
          "time": 156.95270802734345,
          "velocity": 0.7007874015748031,
          "duration": 0.17496758789062028
        },
        {
          "name": "C4",
          "midi": 60,
          "time": 157.13608491015594,
          "velocity": 0.6929133858267716,
          "duration": 0.3670250332031344
        },
        {
          "name": "G2",
          "midi": 43,
          "time": 157.13608491015594,
          "velocity": 0.6299212598425197,
          "duration": 0.08355041406250052
        },
        {
          "name": "G3",
          "midi": 55,
          "time": 157.13608491015594,
          "velocity": 0.7401574803149606,
          "duration": 0.0916884414062622
        },
        {
          "name": "C3",
          "midi": 48,
          "time": 157.5033812109372,
          "velocity": 0.6377952755905512,
          "duration": 0.10769322851564311
        },
        {
          "name": "C4",
          "midi": 60,
          "time": 157.5033812109372,
          "velocity": 0.7480314960629921,
          "duration": 0.10769322851564311
        },
        {
          "name": "D#4",
          "midi": 63,
          "time": 157.7789890703122,
          "velocity": 0.7322834645669292,
          "duration": 0.18500448828123695
        },
        {
          "name": "A1",
          "midi": 33,
          "time": 157.7789890703122,
          "velocity": 0.6456692913385826,
          "duration": 0.46793657226561436
        },
        {
          "name": "A2",
          "midi": 45,
          "time": 157.7789890703122,
          "velocity": 0.7795275590551181,
          "duration": 0.46793657226561436
        },
        {
          "name": "C4",
          "midi": 60,
          "time": 157.97240285351532,
          "velocity": 0.6929133858267716,
          "duration": 0.08300787890624406
        },
        {
          "name": "A3",
          "midi": 57,
          "time": 158.06382002734344,
          "velocity": 0.7007874015748031,
          "duration": 0.17496758789062028
        },
        {
          "name": "F3",
          "midi": 53,
          "time": 158.24719691015594,
          "velocity": 0.6929133858267716,
          "duration": 0.26828363476565187
        },
        {
          "name": "C2",
          "midi": 36,
          "time": 158.24719691015594,
          "velocity": 0.6141732283464567,
          "duration": 0.08355041406250052
        },
        {
          "name": "C3",
          "midi": 48,
          "time": 158.24719691015594,
          "velocity": 0.7401574803149606,
          "duration": 0.0916884414062622
        },
        {
          "name": "G3",
          "midi": 55,
          "time": 158.52388983984346,
          "velocity": 0.6929133858267716,
          "duration": 0.2737089863281028
        },
        {
          "name": "D#2",
          "midi": 39,
          "time": 158.6144932109372,
          "velocity": 0.6299212598425197,
          "duration": 0.10769322851561469
        },
        {
          "name": "D#3",
          "midi": 51,
          "time": 158.6144932109372,
          "velocity": 0.7480314960629921,
          "duration": 0.10769322851561469
        },
        {
          "name": "A3",
          "midi": 57,
          "time": 158.79787009374968,
          "velocity": 0.6929133858267716,
          "duration": 0.08273661132813004
        },
        {
          "name": "A#3",
          "midi": 58,
          "time": 158.8901010703122,
          "velocity": 0.7322834645669292,
          "duration": 0.2845596894531184
        },
        {
          "name": "A#1",
          "midi": 34,
          "time": 158.8901010703122,
          "velocity": 0.6535433070866141,
          "duration": 0.46793657226561436
        },
        {
          "name": "A#2",
          "midi": 46,
          "time": 158.8901010703122,
          "velocity": 0.7795275590551181,
          "duration": 0.46793657226561436
        },
        {
          "name": "A#3",
          "midi": 58,
          "time": 159.17493202734343,
          "velocity": 0.7007874015748031,
          "duration": 0.17496758789062028
        },
        {
          "name": "C#4",
          "midi": 61,
          "time": 159.35830891015593,
          "velocity": 0.6929133858267716,
          "duration": 0.3670250332031344
        },
        {
          "name": "C#2",
          "midi": 37,
          "time": 159.35830891015593,
          "velocity": 0.6220472440944882,
          "duration": 0.08355041406250052
        },
        {
          "name": "C#3",
          "midi": 49,
          "time": 159.35830891015593,
          "velocity": 0.7401574803149606,
          "duration": 0.0916884414062622
        },
        {
          "name": "F2",
          "midi": 41,
          "time": 159.72560521093718,
          "velocity": 0.6377952755905512,
          "duration": 0.10769322851561469
        },
        {
          "name": "F3",
          "midi": 53,
          "time": 159.72560521093718,
          "velocity": 0.7480314960629921,
          "duration": 0.10769322851561469
        },
        {
          "name": "A#3",
          "midi": 58,
          "time": 160.00121307031216,
          "velocity": 0.7322834645669292,
          "duration": 0.18500448828123695
        },
        {
          "name": "A#1",
          "midi": 34,
          "time": 160.00121307031216,
          "velocity": 0.6535433070866141,
          "duration": 0.46793657226561436
        },
        {
          "name": "A#2",
          "midi": 46,
          "time": 160.00121307031216,
          "velocity": 0.7795275590551181,
          "duration": 0.46793657226561436
        },
        {
          "name": "C#4",
          "midi": 61,
          "time": 160.19462685351527,
          "velocity": 0.6929133858267716,
          "duration": 0.08300787890624406
        },
        {
          "name": "D#4",
          "midi": 63,
          "time": 160.2860440273434,
          "velocity": 0.7007874015748031,
          "duration": 0.17496758789062028
        },
        {
          "name": "E4",
          "midi": 64,
          "time": 160.4694209101559,
          "velocity": 0.6929133858267716,
          "duration": 0.26828363476565187
        },
        {
          "name": "C#2",
          "midi": 37,
          "time": 160.4694209101559,
          "velocity": 0.6220472440944882,
          "duration": 0.08355041406250052
        },
        {
          "name": "C#3",
          "midi": 49,
          "time": 160.4694209101559,
          "velocity": 0.7401574803149606,
          "duration": 0.0916884414062622
        },
        {
          "name": "F4",
          "midi": 65,
          "time": 160.74611383984342,
          "velocity": 0.6929133858267716,
          "duration": 0.2737089863281028
        },
        {
          "name": "F2",
          "midi": 41,
          "time": 160.83671721093717,
          "velocity": 0.6377952755905512,
          "duration": 0.10769322851561469
        },
        {
          "name": "F3",
          "midi": 53,
          "time": 160.83671721093717,
          "velocity": 0.7480314960629921,
          "duration": 0.10769322851561469
        },
        {
          "name": "C#4",
          "midi": 61,
          "time": 161.02009409374963,
          "velocity": 0.6929133858267716,
          "duration": 0.08273661132813004
        },
        {
          "name": "G#4",
          "midi": 68,
          "time": 161.11232507031215,
          "velocity": 0.7322834645669292,
          "duration": 0.18500448828123695
        },
        {
          "name": "D#2",
          "midi": 39,
          "time": 161.11232507031215,
          "velocity": 0.6614173228346457,
          "duration": 0.46793657226561436
        },
        {
          "name": "D#3",
          "midi": 51,
          "time": 161.11232507031215,
          "velocity": 0.7795275590551181,
          "duration": 0.46793657226561436
        },
        {
          "name": "G4",
          "midi": 67,
          "time": 161.30573885351527,
          "velocity": 0.6929133858267716,
          "duration": 0.2745227890625017
        },
        {
          "name": "F#4",
          "midi": 66,
          "time": 161.58053291015588,
          "velocity": 0.6929133858267716,
          "duration": 0.3670250332031344
        },
        {
          "name": "F#2",
          "midi": 42,
          "time": 161.58053291015588,
          "velocity": 0.6299212598425197,
          "duration": 0.08355041406250052
        },
        {
          "name": "F#3",
          "midi": 54,
          "time": 161.58053291015588,
          "velocity": 0.7401574803149606,
          "duration": 0.0916884414062622
        },
        {
          "name": "A#2",
          "midi": 46,
          "time": 161.94782921093713,
          "velocity": 0.6377952755905512,
          "duration": 0.10769322851564311
        },
        {
          "name": "A#3",
          "midi": 58,
          "time": 161.94782921093713,
          "velocity": 0.7480314960629921,
          "duration": 0.10769322851564311
        },
        {
          "name": "F4",
          "midi": 65,
          "time": 162.22343707031214,
          "velocity": 0.7322834645669292,
          "duration": 0.18500448828123695
        },
        {
          "name": "F2",
          "midi": 41,
          "time": 162.22343707031214,
          "velocity": 0.6692913385826772,
          "duration": 0.46793657226561436
        },
        {
          "name": "F3",
          "midi": 53,
          "time": 162.22343707031214,
          "velocity": 0.7795275590551181,
          "duration": 0.46793657226561436
        },
        {
          "name": "D#4",
          "midi": 63,
          "time": 162.41685085351526,
          "velocity": 0.6929133858267716,
          "duration": 0.08300787890624406
        },
        {
          "name": "C4",
          "midi": 60,
          "time": 162.50826802734338,
          "velocity": 0.7007874015748031,
          "duration": 0.17496758789062028
        },
        {
          "name": "F3",
          "midi": 53,
          "time": 162.69164491015587,
          "velocity": 0.6929133858267716,
          "duration": 0.26828363476565187
        },
        {
          "name": "F1",
          "midi": 29,
          "time": 162.69164491015587,
          "velocity": 0.5984251968503937,
          "duration": 0.08355041406250052
        },
        {
          "name": "F2",
          "midi": 41,
          "time": 162.69164491015587,
          "velocity": 0.7401574803149606,
          "duration": 0.0916884414062622
        },
        {
          "name": "G3",
          "midi": 55,
          "time": 162.9683378398434,
          "velocity": 0.6929133858267716,
          "duration": 0.2737089863281028
        },
        {
          "name": "F1",
          "midi": 29,
          "time": 163.05894121093715,
          "velocity": 0.6062992125984252,
          "duration": 0.10769322851561469
        },
        {
          "name": "F2",
          "midi": 41,
          "time": 163.05894121093715,
          "velocity": 0.7480314960629921,
          "duration": 0.10769322851561469
        },
        {
          "name": "A3",
          "midi": 57,
          "time": 163.24231809374962,
          "velocity": 0.6929133858267716,
          "duration": 0.08273661132813004
        },
        {
          "name": "A#3",
          "midi": 58,
          "time": 163.33454907031214,
          "velocity": 0.7322834645669292,
          "duration": 0.5598962812499906
        },
        {
          "name": "A#1",
          "midi": 34,
          "time": 163.33454907031214,
          "velocity": 0.6535433070866141,
          "duration": 0.46793657226561436
        },
        {
          "name": "A#2",
          "midi": 46,
          "time": 163.33454907031214,
          "velocity": 0.7795275590551181,
          "duration": 0.46793657226561436
        },
        {
          "name": "C#2",
          "midi": 37,
          "time": 163.80275691015586,
          "velocity": 0.6220472440944882,
          "duration": 0.08355041406250052
        },
        {
          "name": "C#3",
          "midi": 49,
          "time": 163.80275691015586,
          "velocity": 0.7401574803149606,
          "duration": 0.0916884414062622
        },
        {
          "name": "A#3",
          "midi": 58,
          "time": 163.89471661914024,
          "velocity": 0.6535433070866141,
          "duration": 0.17632392578124723
        },
        {
          "name": "A#4",
          "midi": 70,
          "time": 163.89471661914024,
          "velocity": 0.7637795275590551,
          "duration": 0.1844619531250089
        },
        {
          "name": "C4",
          "midi": 60,
          "time": 164.07944983984336,
          "velocity": 0.6299212598425197,
          "duration": 0.08219407617187358
        },
        {
          "name": "C5",
          "midi": 72,
          "time": 164.07944983984336,
          "velocity": 0.7401574803149606,
          "duration": 0.09033210351563525
        },
        {
          "name": "C#4",
          "midi": 61,
          "time": 164.1700532109371,
          "velocity": 0.6377952755905512,
          "duration": 0.17496758789062028
        },
        {
          "name": "C#5",
          "midi": 73,
          "time": 164.1700532109371,
          "velocity": 0.7480314960629921,
          "duration": 0.18310561523438196
        },
        {
          "name": "F2",
          "midi": 41,
          "time": 164.1700532109371,
          "velocity": 0.6377952755905512,
          "duration": 0.10769322851561469
        },
        {
          "name": "F3",
          "midi": 53,
          "time": 164.1700532109371,
          "velocity": 0.7480314960629921,
          "duration": 0.10769322851561469
        },
        {
          "name": "D4",
          "midi": 62,
          "time": 164.3534300937496,
          "velocity": 0.6299212598425197,
          "duration": 0.08273661132813004
        },
        {
          "name": "D5",
          "midi": 74,
          "time": 164.3534300937496,
          "velocity": 0.7401574803149606,
          "duration": 0.09087463867189172
        },
        {
          "name": "D#4",
          "midi": 63,
          "time": 164.44566107031213,
          "velocity": 0.6692913385826772,
          "duration": 0.46793657226561436
        },
        {
          "name": "D#5",
          "midi": 75,
          "time": 164.44566107031213,
          "velocity": 0.7795275590551181,
          "duration": 0.46793657226561436
        },
        {
          "name": "D#2",
          "midi": 39,
          "time": 164.44566107031213,
          "velocity": 0.6614173228346457,
          "duration": 0.46793657226561436
        },
        {
          "name": "D#3",
          "midi": 51,
          "time": 164.44566107031213,
          "velocity": 0.7795275590551181,
          "duration": 0.46793657226561436
        },
        {
          "name": "F#4",
          "midi": 66,
          "time": 164.91386891015586,
          "velocity": 0.6299212598425197,
          "duration": 0.3670250332031344
        },
        {
          "name": "F#5",
          "midi": 78,
          "time": 164.91386891015586,
          "velocity": 0.7401574803149606,
          "duration": 0.3670250332031344
        },
        {
          "name": "F#2",
          "midi": 42,
          "time": 164.91386891015586,
          "velocity": 0.6299212598425197,
          "duration": 0.08355041406250052
        },
        {
          "name": "F#3",
          "midi": 54,
          "time": 164.91386891015586,
          "velocity": 0.7401574803149606,
          "duration": 0.0916884414062622
        },
        {
          "name": "A#4",
          "midi": 70,
          "time": 165.2811652109371,
          "velocity": 0.6377952755905512,
          "duration": 0.2742515214843593
        },
        {
          "name": "A#5",
          "midi": 82,
          "time": 165.2811652109371,
          "velocity": 0.7480314960629921,
          "duration": 0.2742515214843593
        },
        {
          "name": "A#2",
          "midi": 46,
          "time": 165.2811652109371,
          "velocity": 0.6377952755905512,
          "duration": 0.10769322851561469
        },
        {
          "name": "A#3",
          "midi": 58,
          "time": 165.2811652109371,
          "velocity": 0.7480314960629921,
          "duration": 0.10769322851561469
        },
        {
          "name": "C#5",
          "midi": 73,
          "time": 165.5567730703121,
          "velocity": 0.6692913385826772,
          "duration": 0.18500448828123695
        },
        {
          "name": "C#6",
          "midi": 85,
          "time": 165.5567730703121,
          "velocity": 0.7795275590551181,
          "duration": 0.19314251562499862
        },
        {
          "name": "A#1",
          "midi": 34,
          "time": 165.5567730703121,
          "velocity": 0.6535433070866141,
          "duration": 0.46793657226561436
        },
        {
          "name": "A#2",
          "midi": 46,
          "time": 165.5567730703121,
          "velocity": 0.7795275590551181,
          "duration": 0.46793657226561436
        },
        {
          "name": "C5",
          "midi": 72,
          "time": 165.7501868535152,
          "velocity": 0.6299212598425197,
          "duration": 0.2745227890625017
        },
        {
          "name": "C6",
          "midi": 84,
          "time": 165.7501868535152,
          "velocity": 0.7401574803149606,
          "duration": 0.2745227890625017
        },
        {
          "name": "A#4",
          "midi": 70,
          "time": 166.02498091015582,
          "velocity": 0.6299212598425197,
          "duration": 0.3670250332031344
        },
        {
          "name": "A#5",
          "midi": 82,
          "time": 166.02498091015582,
          "velocity": 0.7401574803149606,
          "duration": 0.3670250332031344
        },
        {
          "name": "C#2",
          "midi": 37,
          "time": 166.02498091015582,
          "velocity": 0.6220472440944882,
          "duration": 0.08355041406250052
        },
        {
          "name": "C#3",
          "midi": 49,
          "time": 166.02498091015582,
          "velocity": 0.7401574803149606,
          "duration": 0.0916884414062622
        },
        {
          "name": "F2",
          "midi": 41,
          "time": 166.39227721093707,
          "velocity": 0.6377952755905512,
          "duration": 0.10769322851564311
        },
        {
          "name": "F3",
          "midi": 53,
          "time": 166.39227721093707,
          "velocity": 0.7480314960629921,
          "duration": 0.10769322851564311
        },
        {
          "name": "A4",
          "midi": 69,
          "time": 166.66788507031208,
          "velocity": 0.6692913385826772,
          "duration": 0.18500448828123695
        },
        {
          "name": "A5",
          "midi": 81,
          "time": 166.66788507031208,
          "velocity": 0.7795275590551181,
          "duration": 0.19314251562499862
        },
        {
          "name": "F1",
          "midi": 29,
          "time": 166.66788507031208,
          "velocity": 0.6377952755905512,
          "duration": 0.46793657226561436
        },
        {
          "name": "F2",
          "midi": 41,
          "time": 166.66788507031208,
          "velocity": 0.7795275590551181,
          "duration": 0.46793657226561436
        },
        {
          "name": "F#4",
          "midi": 66,
          "time": 166.8612988535152,
          "velocity": 0.6299212598425197,
          "duration": 0.08300787890624406
        },
        {
          "name": "F#5",
          "midi": 78,
          "time": 166.8612988535152,
          "velocity": 0.7401574803149606,
          "duration": 0.09114590625000574
        },
        {
          "name": "F4",
          "midi": 65,
          "time": 166.9527160273433,
          "velocity": 0.6377952755905512,
          "duration": 0.17496758789062028
        },
        {
          "name": "F5",
          "midi": 77,
          "time": 166.9527160273433,
          "velocity": 0.7480314960629921,
          "duration": 0.18310561523438196
        },
        {
          "name": "C4",
          "midi": 60,
          "time": 167.1360929101558,
          "velocity": 0.6299212598425197,
          "duration": 0.26828363476565187
        },
        {
          "name": "C5",
          "midi": 72,
          "time": 167.1360929101558,
          "velocity": 0.7401574803149606,
          "duration": 0.27642166210941355
        },
        {
          "name": "A1",
          "midi": 33,
          "time": 167.1360929101558,
          "velocity": 0.6062992125984252,
          "duration": 0.08355041406250052
        },
        {
          "name": "A2",
          "midi": 45,
          "time": 167.1360929101558,
          "velocity": 0.7401574803149606,
          "duration": 0.0916884414062622
        },
        {
          "name": "D#4",
          "midi": 63,
          "time": 167.41278583984334,
          "velocity": 0.6299212598425197,
          "duration": 0.2737089863281028
        },
        {
          "name": "D#5",
          "midi": 75,
          "time": 167.41278583984334,
          "velocity": 0.7401574803149606,
          "duration": 0.2737089863281028
        },
        {
          "name": "C2",
          "midi": 36,
          "time": 167.5033892109371,
          "velocity": 0.6220472440944882,
          "duration": 0.10769322851561469
        },
        {
          "name": "C3",
          "midi": 48,
          "time": 167.5033892109371,
          "velocity": 0.7480314960629921,
          "duration": 0.10769322851561469
        },
        {
          "name": "C#4",
          "midi": 61,
          "time": 167.68676609374955,
          "velocity": 0.6299212598425197,
          "duration": 0.08273661132813004
        },
        {
          "name": "C#5",
          "midi": 73,
          "time": 167.68676609374955,
          "velocity": 0.7401574803149606,
          "duration": 0.09087463867189172
        },
        {
          "name": "A#3",
          "midi": 58,
          "time": 167.77899707031207,
          "velocity": 0.6692913385826772,
          "duration": 0.2845596894531184
        },
        {
          "name": "A#4",
          "midi": 70,
          "time": 167.77899707031207,
          "velocity": 0.7795275590551181,
          "duration": 0.2845596894531184
        },
        {
          "name": "A#1",
          "midi": 34,
          "time": 167.77899707031207,
          "velocity": 0.6535433070866141,
          "duration": 0.46793657226561436
        },
        {
          "name": "A#2",
          "midi": 46,
          "time": 167.77899707031207,
          "velocity": 0.7795275590551181,
          "duration": 0.46793657226561436
        },
        {
          "name": "A#3",
          "midi": 58,
          "time": 168.0638280273433,
          "velocity": 0.6377952755905512,
          "duration": 0.17496758789062028
        },
        {
          "name": "A#4",
          "midi": 70,
          "time": 168.0638280273433,
          "velocity": 0.7480314960629921,
          "duration": 0.18310561523438196
        },
        {
          "name": "C#4",
          "midi": 61,
          "time": 168.2472049101558,
          "velocity": 0.6299212598425197,
          "duration": 0.26828363476562345
        },
        {
          "name": "C#5",
          "midi": 73,
          "time": 168.2472049101558,
          "velocity": 0.7401574803149606,
          "duration": 0.2764216621093851
        },
        {
          "name": "C#2",
          "midi": 37,
          "time": 168.2472049101558,
          "velocity": 0.6220472440944882,
          "duration": 0.08355041406250052
        },
        {
          "name": "C#3",
          "midi": 49,
          "time": 168.2472049101558,
          "velocity": 0.7401574803149606,
          "duration": 0.0916884414062622
        },
        {
          "name": "C4",
          "midi": 60,
          "time": 168.5238978398433,
          "velocity": 0.6299212598425197,
          "duration": 0.08219407617187358
        },
        {
          "name": "C5",
          "midi": 72,
          "time": 168.5238978398433,
          "velocity": 0.7401574803149606,
          "duration": 0.09033210351563525
        },
        {
          "name": "C#4",
          "midi": 61,
          "time": 168.61450121093705,
          "velocity": 0.6377952755905512,
          "duration": 0.17496758789062028
        },
        {
          "name": "C#5",
          "midi": 73,
          "time": 168.61450121093705,
          "velocity": 0.7480314960629921,
          "duration": 0.18310561523438196
        },
        {
          "name": "F2",
          "midi": 41,
          "time": 168.61450121093705,
          "velocity": 0.6377952755905512,
          "duration": 0.10769322851561469
        },
        {
          "name": "F3",
          "midi": 53,
          "time": 168.61450121093705,
          "velocity": 0.7480314960629921,
          "duration": 0.10769322851561469
        },
        {
          "name": "D4",
          "midi": 62,
          "time": 168.79787809374955,
          "velocity": 0.6299212598425197,
          "duration": 0.08273661132813004
        },
        {
          "name": "D5",
          "midi": 74,
          "time": 168.79787809374955,
          "velocity": 0.7401574803149606,
          "duration": 0.09087463867189172
        },
        {
          "name": "D#4",
          "midi": 63,
          "time": 168.89010907031206,
          "velocity": 0.6692913385826772,
          "duration": 0.46793657226561436
        },
        {
          "name": "D#5",
          "midi": 75,
          "time": 168.89010907031206,
          "velocity": 0.7795275590551181,
          "duration": 0.46793657226561436
        },
        {
          "name": "D#2",
          "midi": 39,
          "time": 168.89010907031206,
          "velocity": 0.6614173228346457,
          "duration": 0.46793657226561436
        },
        {
          "name": "D#3",
          "midi": 51,
          "time": 168.89010907031206,
          "velocity": 0.7795275590551181,
          "duration": 0.46793657226561436
        },
        {
          "name": "F#4",
          "midi": 66,
          "time": 169.3583169101558,
          "velocity": 0.6299212598425197,
          "duration": 0.3670250332031344
        },
        {
          "name": "F#5",
          "midi": 78,
          "time": 169.3583169101558,
          "velocity": 0.7401574803149606,
          "duration": 0.3670250332031344
        },
        {
          "name": "F#2",
          "midi": 42,
          "time": 169.3583169101558,
          "velocity": 0.6299212598425197,
          "duration": 0.08355041406250052
        },
        {
          "name": "F#3",
          "midi": 54,
          "time": 169.3583169101558,
          "velocity": 0.7401574803149606,
          "duration": 0.0916884414062622
        },
        {
          "name": "A#4",
          "midi": 70,
          "time": 169.72561321093704,
          "velocity": 0.6377952755905512,
          "duration": 0.2742515214843593
        },
        {
          "name": "A#5",
          "midi": 82,
          "time": 169.72561321093704,
          "velocity": 0.7480314960629921,
          "duration": 0.2742515214843593
        },
        {
          "name": "A#2",
          "midi": 46,
          "time": 169.72561321093704,
          "velocity": 0.6377952755905512,
          "duration": 0.10769322851561469
        },
        {
          "name": "A#3",
          "midi": 58,
          "time": 169.72561321093704,
          "velocity": 0.7480314960629921,
          "duration": 0.10769322851561469
        },
        {
          "name": "C#5",
          "midi": 73,
          "time": 170.00122107031203,
          "velocity": 0.6692913385826772,
          "duration": 0.18500448828123695
        },
        {
          "name": "C#6",
          "midi": 85,
          "time": 170.00122107031203,
          "velocity": 0.7795275590551181,
          "duration": 0.19314251562499862
        },
        {
          "name": "A#1",
          "midi": 34,
          "time": 170.00122107031203,
          "velocity": 0.6535433070866141,
          "duration": 0.46793657226561436
        },
        {
          "name": "A#2",
          "midi": 46,
          "time": 170.00122107031203,
          "velocity": 0.7795275590551181,
          "duration": 0.46793657226561436
        },
        {
          "name": "C5",
          "midi": 72,
          "time": 170.19463485351514,
          "velocity": 0.6299212598425197,
          "duration": 0.2745227890625017
        },
        {
          "name": "C6",
          "midi": 84,
          "time": 170.19463485351514,
          "velocity": 0.7401574803149606,
          "duration": 0.2745227890625017
        },
        {
          "name": "A#4",
          "midi": 70,
          "time": 170.46942891015576,
          "velocity": 0.6299212598425197,
          "duration": 0.26828363476562345
        },
        {
          "name": "A#5",
          "midi": 82,
          "time": 170.46942891015576,
          "velocity": 0.7401574803149606,
          "duration": 0.2764216621093851
        },
        {
          "name": "C#2",
          "midi": 37,
          "time": 170.46942891015576,
          "velocity": 0.6220472440944882,
          "duration": 0.08355041406250052
        },
        {
          "name": "C#3",
          "midi": 49,
          "time": 170.46942891015576,
          "velocity": 0.7401574803149606,
          "duration": 0.0916884414062622
        },
        {
          "name": "A4",
          "midi": 69,
          "time": 170.74612183984325,
          "velocity": 0.6299212598425197,
          "duration": 0.08219407617187358
        },
        {
          "name": "A5",
          "midi": 81,
          "time": 170.74612183984325,
          "velocity": 0.7401574803149606,
          "duration": 0.09033210351563525
        },
        {
          "name": "A#4",
          "midi": 70,
          "time": 170.836725210937,
          "velocity": 0.6377952755905512,
          "duration": 0.17496758789062028
        },
        {
          "name": "A#5",
          "midi": 82,
          "time": 170.836725210937,
          "velocity": 0.7480314960629921,
          "duration": 0.18310561523438196
        },
        {
          "name": "F2",
          "midi": 41,
          "time": 170.836725210937,
          "velocity": 0.6377952755905512,
          "duration": 0.10769322851561469
        },
        {
          "name": "F3",
          "midi": 53,
          "time": 170.836725210937,
          "velocity": 0.7480314960629921,
          "duration": 0.10769322851561469
        },
        {
          "name": "B4",
          "midi": 71,
          "time": 171.0201020937495,
          "velocity": 0.6299212598425197,
          "duration": 0.08273661132813004
        },
        {
          "name": "B5",
          "midi": 83,
          "time": 171.0201020937495,
          "velocity": 0.7401574803149606,
          "duration": 0.09087463867189172
        },
        {
          "name": "C5",
          "midi": 72,
          "time": 171.11233307031202,
          "velocity": 0.6692913385826772,
          "duration": 0.18500448828123695
        },
        {
          "name": "C6",
          "midi": 84,
          "time": 171.11233307031202,
          "velocity": 0.7795275590551181,
          "duration": 0.19314251562499862
        },
        {
          "name": "C2",
          "midi": 36,
          "time": 171.11233307031202,
          "velocity": 0.6535433070866141,
          "duration": 0.46793657226561436
        },
        {
          "name": "C3",
          "midi": 48,
          "time": 171.11233307031202,
          "velocity": 0.7795275590551181,
          "duration": 0.46793657226561436
        },
        {
          "name": "B4",
          "midi": 71,
          "time": 171.30574685351513,
          "velocity": 0.6299212598425197,
          "duration": 0.08300787890624406
        },
        {
          "name": "B5",
          "midi": 83,
          "time": 171.30574685351513,
          "velocity": 0.7401574803149606,
          "duration": 0.09114590625000574
        },
        {
          "name": "C5",
          "midi": 72,
          "time": 171.39716402734325,
          "velocity": 0.6377952755905512,
          "duration": 0.17496758789062028
        },
        {
          "name": "C6",
          "midi": 84,
          "time": 171.39716402734325,
          "velocity": 0.7480314960629921,
          "duration": 0.18310561523438196
        },
        {
          "name": "B4",
          "midi": 71,
          "time": 171.58054091015575,
          "velocity": 0.6299212598425197,
          "duration": 0.08355041406250052
        },
        {
          "name": "B5",
          "midi": 83,
          "time": 171.58054091015575,
          "velocity": 0.7401574803149606,
          "duration": 0.0916884414062622
        },
        {
          "name": "E2",
          "midi": 40,
          "time": 171.58054091015575,
          "velocity": 0.6220472440944882,
          "duration": 0.08355041406250052
        },
        {
          "name": "E3",
          "midi": 52,
          "time": 171.58054091015575,
          "velocity": 0.7401574803149606,
          "duration": 0.0916884414062622
        },
        {
          "name": "C5",
          "midi": 72,
          "time": 171.67250061914012,
          "velocity": 0.6535433070866141,
          "duration": 0.17632392578124723
        },
        {
          "name": "C6",
          "midi": 84,
          "time": 171.67250061914012,
          "velocity": 0.7637795275590551,
          "duration": 0.1844619531250089
        },
        {
          "name": "E5",
          "midi": 76,
          "time": 171.85723383984325,
          "velocity": 0.6299212598425197,
          "duration": 0.2737089863281028
        },
        {
          "name": "E6",
          "midi": 88,
          "time": 171.85723383984325,
          "velocity": 0.7401574803149606,
          "duration": 0.2737089863281028
        },
        {
          "name": "G2",
          "midi": 43,
          "time": 171.947837210937,
          "velocity": 0.6377952755905512,
          "duration": 0.10769322851561469
        },
        {
          "name": "G3",
          "midi": 55,
          "time": 171.947837210937,
          "velocity": 0.7480314960629921,
          "duration": 0.10769322851561469
        },
        {
          "name": "F5",
          "midi": 77,
          "time": 172.13121409374946,
          "velocity": 0.6299212598425197,
          "duration": 0.28537349218748886
        },
        {
          "name": "F6",
          "midi": 89,
          "time": 172.13121409374946,
          "velocity": 0.7401574803149606,
          "duration": 0.28537349218748886
        },
        {
          "name": "F2",
          "midi": 41,
          "time": 172.22344507031195,
          "velocity": 0.6692913385826772,
          "duration": 0.46793657226561436
        },
        {
          "name": "F3",
          "midi": 53,
          "time": 172.22344507031195,
          "velocity": 0.7795275590551181,
          "duration": 0.46793657226561436
        },
        {
          "name": "F4",
          "midi": 65,
          "time": 172.41685885351507,
          "velocity": 0.6299212598425197,
          "duration": 0.36648249804687794
        },
        {
          "name": "F5",
          "midi": 77,
          "time": 172.41685885351507,
          "velocity": 0.7401574803149606,
          "duration": 0.36648249804687794
        },
        {
          "name": "F2",
          "midi": 41,
          "time": 172.69165291015568,
          "velocity": 0.6299212598425197,
          "duration": 0.08355041406250052
        },
        {
          "name": "F3",
          "midi": 53,
          "time": 172.69165291015568,
          "velocity": 0.7086614173228346,
          "duration": 0.0916884414062622
        },
        {
          "name": "G4",
          "midi": 67,
          "time": 172.78361261914006,
          "velocity": 0.6535433070866141,
          "duration": 0.2750653242187582
        },
        {
          "name": "G5",
          "midi": 79,
          "time": 172.78361261914006,
          "velocity": 0.7637795275590551,
          "duration": 0.2750653242187582
        },
        {
          "name": "A4",
          "midi": 69,
          "time": 173.05894921093693,
          "velocity": 0.6377952755905512,
          "duration": 0.2742515214843593
        },
        {
          "name": "A5",
          "midi": 81,
          "time": 173.05894921093693,
          "velocity": 0.7480314960629921,
          "duration": 0.2742515214843593
        },
        {
          "name": "F1",
          "midi": 29,
          "time": 173.05894921093693,
          "velocity": 0.6377952755905512,
          "duration": 0.10769322851561469
        },
        {
          "name": "F2",
          "midi": 41,
          "time": 173.05894921093693,
          "velocity": 0.7480314960629921,
          "duration": 0.10769322851561469
        },
        {
          "name": "A#4",
          "midi": 70,
          "time": 173.33455707031192,
          "velocity": 0.6692913385826772,
          "duration": 0.2845596894531184
        },
        {
          "name": "A#5",
          "midi": 82,
          "time": 173.33455707031192,
          "velocity": 0.7795275590551181,
          "duration": 0.2845596894531184
        },
        {
          "name": "A#1",
          "midi": 34,
          "time": 173.33455707031192,
          "velocity": 0.6692913385826772,
          "duration": 0.1180013964843738
        },
        {
          "name": "A#2",
          "midi": 46,
          "time": 173.33455707031192,
          "velocity": 0.7795275590551181,
          "duration": 0.1180013964843738
        },
        {
          "name": "A#1",
          "midi": 34,
          "time": 173.61938802734315,
          "velocity": 0.6377952755905512,
          "duration": 0.1085070312500136
        },
        {
          "name": "A#2",
          "midi": 46,
          "time": 173.61938802734315,
          "velocity": 0.7165354330708661,
          "duration": 0.1085070312500136
        },
        {
          "name": "F4",
          "midi": 65,
          "time": 173.80276491015567,
          "velocity": 0.6299212598425197,
          "duration": 0.3670250332031344
        },
        {
          "name": "F5",
          "midi": 77,
          "time": 173.80276491015567,
          "velocity": 0.7401574803149606,
          "duration": 0.3670250332031344
        },
        {
          "name": "A#1",
          "midi": 34,
          "time": 173.89472461914005,
          "velocity": 0.6535433070866141,
          "duration": 0.1085070312500136
        },
        {
          "name": "A#2",
          "midi": 46,
          "time": 173.89472461914005,
          "velocity": 0.7322834645669292,
          "duration": 0.1085070312500136
        },
        {
          "name": "C#4",
          "midi": 61,
          "time": 174.17006121093692,
          "velocity": 0.6377952755905512,
          "duration": 0.2742515214843593
        },
        {
          "name": "C#5",
          "midi": 73,
          "time": 174.17006121093692,
          "velocity": 0.7480314960629921,
          "duration": 0.2742515214843593
        },
        {
          "name": "A#1",
          "midi": 34,
          "time": 174.17006121093692,
          "velocity": 0.6377952755905512,
          "duration": 0.10769322851561469
        },
        {
          "name": "A#2",
          "midi": 46,
          "time": 174.17006121093692,
          "velocity": 0.7480314960629921,
          "duration": 0.10769322851561469
        },
        {
          "name": "E4",
          "midi": 64,
          "time": 174.4456690703119,
          "velocity": 0.6692913385826772,
          "duration": 0.18500448828123695
        },
        {
          "name": "E5",
          "midi": 76,
          "time": 174.4456690703119,
          "velocity": 0.7795275590551181,
          "duration": 0.19314251562499862
        },
        {
          "name": "F#1",
          "midi": 30,
          "time": 174.4456690703119,
          "velocity": 0.6692913385826772,
          "duration": 0.1180013964843738
        },
        {
          "name": "F#2",
          "midi": 42,
          "time": 174.4456690703119,
          "velocity": 0.7795275590551181,
          "duration": 0.1180013964843738
        },
        {
          "name": "D#4",
          "midi": 63,
          "time": 174.63908285351502,
          "velocity": 0.6299212598425197,
          "duration": 0.08300787890624406
        },
        {
          "name": "D#5",
          "midi": 75,
          "time": 174.63908285351502,
          "velocity": 0.7401574803149606,
          "duration": 0.09114590625000574
        },
        {
          "name": "E4",
          "midi": 64,
          "time": 174.73050002734314,
          "velocity": 0.6377952755905512,
          "duration": 0.18310561523438196
        },
        {
          "name": "E5",
          "midi": 76,
          "time": 174.73050002734314,
          "velocity": 0.7480314960629921,
          "duration": 0.18310561523438196
        },
        {
          "name": "F#1",
          "midi": 30,
          "time": 174.73050002734314,
          "velocity": 0.6377952755905512,
          "duration": 0.1085070312500136
        },
        {
          "name": "F#2",
          "midi": 42,
          "time": 174.73050002734314,
          "velocity": 0.7165354330708661,
          "duration": 0.1085070312500136
        },
        {
          "name": "E4",
          "midi": 64,
          "time": 174.91387691015564,
          "velocity": 0.6299212598425197,
          "duration": 0.6415478222656361
        },
        {
          "name": "E5",
          "midi": 76,
          "time": 174.91387691015564,
          "velocity": 0.7086614173228346,
          "duration": 0.6415478222656361
        },
        {
          "name": "F#1",
          "midi": 30,
          "time": 175.00583661914,
          "velocity": 0.6535433070866141,
          "duration": 0.1085070312500136
        },
        {
          "name": "F#2",
          "midi": 42,
          "time": 175.00583661914,
          "velocity": 0.7322834645669292,
          "duration": 0.1085070312500136
        },
        {
          "name": "F#1",
          "midi": 30,
          "time": 175.2811732109369,
          "velocity": 0.6377952755905512,
          "duration": 0.10769322851561469
        },
        {
          "name": "F#2",
          "midi": 42,
          "time": 175.2811732109369,
          "velocity": 0.7480314960629921,
          "duration": 0.10769322851561469
        },
        {
          "name": "A#4",
          "midi": 70,
          "time": 175.5567810703119,
          "velocity": 0.6692913385826772,
          "duration": 0.2845596894531184
        },
        {
          "name": "A#5",
          "midi": 82,
          "time": 175.5567810703119,
          "velocity": 0.7795275590551181,
          "duration": 0.2845596894531184
        },
        {
          "name": "A#1",
          "midi": 34,
          "time": 175.5567810703119,
          "velocity": 0.6692913385826772,
          "duration": 0.1180013964843738
        },
        {
          "name": "A#2",
          "midi": 46,
          "time": 175.5567810703119,
          "velocity": 0.7795275590551181,
          "duration": 0.1180013964843738
        },
        {
          "name": "A#1",
          "midi": 34,
          "time": 175.84161202734313,
          "velocity": 0.6377952755905512,
          "duration": 0.1085070312500136
        },
        {
          "name": "A#2",
          "midi": 46,
          "time": 175.84161202734313,
          "velocity": 0.7165354330708661,
          "duration": 0.1085070312500136
        },
        {
          "name": "F4",
          "midi": 65,
          "time": 176.02498891015566,
          "velocity": 0.6299212598425197,
          "duration": 0.3670250332031344
        },
        {
          "name": "F5",
          "midi": 77,
          "time": 176.02498891015566,
          "velocity": 0.7401574803149606,
          "duration": 0.3670250332031344
        },
        {
          "name": "A#1",
          "midi": 34,
          "time": 176.11694861914003,
          "velocity": 0.6535433070866141,
          "duration": 0.1085070312500136
        },
        {
          "name": "A#2",
          "midi": 46,
          "time": 176.11694861914003,
          "velocity": 0.7322834645669292,
          "duration": 0.1085070312500136
        },
        {
          "name": "C#4",
          "midi": 61,
          "time": 176.3922852109369,
          "velocity": 0.6377952755905512,
          "duration": 0.2742515214843593
        },
        {
          "name": "C#5",
          "midi": 73,
          "time": 176.3922852109369,
          "velocity": 0.7480314960629921,
          "duration": 0.2742515214843593
        },
        {
          "name": "A#1",
          "midi": 34,
          "time": 176.3922852109369,
          "velocity": 0.6377952755905512,
          "duration": 0.10769322851561469
        },
        {
          "name": "A#2",
          "midi": 46,
          "time": 176.3922852109369,
          "velocity": 0.7480314960629921,
          "duration": 0.10769322851561469
        },
        {
          "name": "E4",
          "midi": 64,
          "time": 176.6678930703119,
          "velocity": 0.6692913385826772,
          "duration": 0.18500448828123695
        },
        {
          "name": "E5",
          "midi": 76,
          "time": 176.6678930703119,
          "velocity": 0.7795275590551181,
          "duration": 0.19314251562499862
        },
        {
          "name": "F#1",
          "midi": 30,
          "time": 176.6678930703119,
          "velocity": 0.6692913385826772,
          "duration": 0.1180013964843738
        },
        {
          "name": "F#2",
          "midi": 42,
          "time": 176.6678930703119,
          "velocity": 0.7795275590551181,
          "duration": 0.1180013964843738
        },
        {
          "name": "D#4",
          "midi": 63,
          "time": 176.861306853515,
          "velocity": 0.6299212598425197,
          "duration": 0.08300787890624406
        },
        {
          "name": "D#5",
          "midi": 75,
          "time": 176.861306853515,
          "velocity": 0.7401574803149606,
          "duration": 0.09114590625000574
        },
        {
          "name": "E4",
          "midi": 64,
          "time": 176.95272402734312,
          "velocity": 0.6377952755905512,
          "duration": 0.18310561523438196
        },
        {
          "name": "E5",
          "midi": 76,
          "time": 176.95272402734312,
          "velocity": 0.7480314960629921,
          "duration": 0.18310561523438196
        },
        {
          "name": "F#1",
          "midi": 30,
          "time": 176.95272402734312,
          "velocity": 0.6377952755905512,
          "duration": 0.1085070312500136
        },
        {
          "name": "F#2",
          "midi": 42,
          "time": 176.95272402734312,
          "velocity": 0.7165354330708661,
          "duration": 0.1085070312500136
        },
        {
          "name": "E4",
          "midi": 64,
          "time": 177.13610091015562,
          "velocity": 0.6299212598425197,
          "duration": 0.6415478222656361
        },
        {
          "name": "E5",
          "midi": 76,
          "time": 177.13610091015562,
          "velocity": 0.7086614173228346,
          "duration": 0.6415478222656361
        },
        {
          "name": "F#1",
          "midi": 30,
          "time": 177.22806061914,
          "velocity": 0.6535433070866141,
          "duration": 0.1085070312500136
        },
        {
          "name": "F#2",
          "midi": 42,
          "time": 177.22806061914,
          "velocity": 0.7322834645669292,
          "duration": 0.1085070312500136
        },
        {
          "name": "F#1",
          "midi": 30,
          "time": 177.5033972109369,
          "velocity": 0.6377952755905512,
          "duration": 0.10769322851561469
        },
        {
          "name": "F#2",
          "midi": 42,
          "time": 177.5033972109369,
          "velocity": 0.7480314960629921,
          "duration": 0.10769322851561469
        },
        {
          "name": "F4",
          "midi": 65,
          "time": 177.77900507031188,
          "velocity": 0.6692913385826772,
          "duration": 0.2845596894531184
        },
        {
          "name": "A#4",
          "midi": 70,
          "time": 177.77900507031188,
          "velocity": 0.7795275590551181,
          "duration": 0.2845596894531184
        },
        {
          "name": "A#1",
          "midi": 34,
          "time": 177.77900507031188,
          "velocity": 0.6692913385826772,
          "duration": 0.1180013964843738
        },
        {
          "name": "A#2",
          "midi": 46,
          "time": 177.77900507031188,
          "velocity": 0.7795275590551181,
          "duration": 0.1180013964843738
        },
        {
          "name": "A#1",
          "midi": 34,
          "time": 178.06383602734311,
          "velocity": 0.6377952755905512,
          "duration": 0.1085070312500136
        },
        {
          "name": "A#2",
          "midi": 46,
          "time": 178.06383602734311,
          "velocity": 0.7165354330708661,
          "duration": 0.1085070312500136
        },
        {
          "name": "A#3",
          "midi": 58,
          "time": 178.24721291015564,
          "velocity": 0.6299212598425197,
          "duration": 0.20046674023438982
        },
        {
          "name": "F4",
          "midi": 65,
          "time": 178.24721291015564,
          "velocity": 0.7401574803149606,
          "duration": 0.3670250332031344
        },
        {
          "name": "A#1",
          "midi": 34,
          "time": 178.33917261914002,
          "velocity": 0.6535433070866141,
          "duration": 0.1085070312500136
        },
        {
          "name": "A#2",
          "midi": 46,
          "time": 178.33917261914002,
          "velocity": 0.7322834645669292,
          "duration": 0.2750653242187582
        },
        {
          "name": "F3",
          "midi": 53,
          "time": 178.6145092109369,
          "velocity": 0.6377952755905512,
          "duration": 0.2742515214843593
        },
        {
          "name": "C#4",
          "midi": 61,
          "time": 178.6145092109369,
          "velocity": 0.7480314960629921,
          "duration": 0.2742515214843593
        },
        {
          "name": "A#1",
          "midi": 34,
          "time": 178.6145092109369,
          "velocity": 0.6377952755905512,
          "duration": 0.10769322851561469
        },
        {
          "name": "A#2",
          "midi": 46,
          "time": 178.6145092109369,
          "velocity": 0.7480314960629921,
          "duration": 0.10769322851561469
        },
        {
          "name": "F#3",
          "midi": 54,
          "time": 178.89011707031187,
          "velocity": 0.6692913385826772,
          "duration": 0.1180013964843738
        },
        {
          "name": "E4",
          "midi": 64,
          "time": 178.89011707031187,
          "velocity": 0.7795275590551181,
          "duration": 0.19314251562499862
        },
        {
          "name": "F#1",
          "midi": 30,
          "time": 178.89011707031187,
          "velocity": 0.6692913385826772,
          "duration": 0.1180013964843738
        },
        {
          "name": "F#2",
          "midi": 42,
          "time": 178.89011707031187,
          "velocity": 0.7795275590551181,
          "duration": 0.18500448828123695
        },
        {
          "name": "D#4",
          "midi": 63,
          "time": 179.083530853515,
          "velocity": 0.6929133858267716,
          "duration": 0.08300787890624406
        },
        {
          "name": "F#3",
          "midi": 54,
          "time": 179.1749480273431,
          "velocity": 0.6377952755905512,
          "duration": 0.1085070312500136
        },
        {
          "name": "E4",
          "midi": 64,
          "time": 179.1749480273431,
          "velocity": 0.7165354330708661,
          "duration": 0.18310561523438196
        },
        {
          "name": "F#1",
          "midi": 30,
          "time": 179.1749480273431,
          "velocity": 0.6377952755905512,
          "duration": 0.1085070312500136
        },
        {
          "name": "F#2",
          "midi": 42,
          "time": 179.1749480273431,
          "velocity": 0.7165354330708661,
          "duration": 0.18310561523438196
        },
        {
          "name": "F#3",
          "midi": 54,
          "time": 179.3583249101556,
          "velocity": 0.6299212598425197,
          "duration": 0.20046674023438982
        },
        {
          "name": "E4",
          "midi": 64,
          "time": 179.3583249101556,
          "velocity": 0.7086614173228346,
          "duration": 0.27642166210941355
        },
        {
          "name": "F#1",
          "midi": 30,
          "time": 179.45028461913998,
          "velocity": 0.6535433070866141,
          "duration": 0.1085070312500136
        },
        {
          "name": "F#2",
          "midi": 42,
          "time": 179.45028461913998,
          "velocity": 0.7322834645669292,
          "duration": 0.17632392578127565
        },
        {
          "name": "A#3",
          "midi": 58,
          "time": 179.63501783984313,
          "velocity": 0.6929133858267716,
          "duration": 0.08219407617187358
        },
        {
          "name": "F3",
          "midi": 53,
          "time": 179.72562121093688,
          "velocity": 0.6377952755905512,
          "duration": 0.17496758789062028
        },
        {
          "name": "C#4",
          "midi": 61,
          "time": 179.72562121093688,
          "velocity": 0.7480314960629921,
          "duration": 0.18310561523438196
        },
        {
          "name": "F#1",
          "midi": 30,
          "time": 179.72562121093688,
          "velocity": 0.6377952755905512,
          "duration": 0.10769322851561469
        },
        {
          "name": "F#2",
          "midi": 42,
          "time": 179.72562121093688,
          "velocity": 0.7480314960629921,
          "duration": 0.10769322851561469
        },
        {
          "name": "D4",
          "midi": 62,
          "time": 179.90899809374937,
          "velocity": 0.6929133858267716,
          "duration": 0.08273661132813004
        },
        {
          "name": "F3",
          "midi": 53,
          "time": 180.0012290703119,
          "velocity": 0.6692913385826772,
          "duration": 0.1180013964843738
        },
        {
          "name": "D#4",
          "midi": 63,
          "time": 180.0012290703119,
          "velocity": 0.7795275590551181,
          "duration": 0.19314251562499862
        },
        {
          "name": "F1",
          "midi": 29,
          "time": 180.0012290703119,
          "velocity": 0.6692913385826772,
          "duration": 0.1180013964843738
        },
        {
          "name": "F2",
          "midi": 41,
          "time": 180.0012290703119,
          "velocity": 0.7795275590551181,
          "duration": 0.18500448828123695
        },
        {
          "name": "E4",
          "midi": 64,
          "time": 180.194642853515,
          "velocity": 0.6929133858267716,
          "duration": 0.08300787890624406
        },
        {
          "name": "F3",
          "midi": 53,
          "time": 180.28606002734313,
          "velocity": 0.6377952755905512,
          "duration": 0.1085070312500136
        },
        {
          "name": "D#4",
          "midi": 63,
          "time": 180.28606002734313,
          "velocity": 0.7480314960629921,
          "duration": 0.18310561523441038
        },
        {
          "name": "F1",
          "midi": 29,
          "time": 180.28606002734313,
          "velocity": 0.6377952755905512,
          "duration": 0.1085070312500136
        },
        {
          "name": "F2",
          "midi": 41,
          "time": 180.28606002734313,
          "velocity": 0.7480314960629921,
          "duration": 0.1749675878906487
        },
        {
          "name": "E4",
          "midi": 64,
          "time": 180.46943691015565,
          "velocity": 0.6929133858267716,
          "duration": 0.08355041406250052
        },
        {
          "name": "A3",
          "midi": 57,
          "time": 180.56139661914003,
          "velocity": 0.6535433070866141,
          "duration": 0.1085070312500136
        },
        {
          "name": "D#4",
          "midi": 63,
          "time": 180.56139661914003,
          "velocity": 0.7637795275590551,
          "duration": 0.18446195312503733
        },
        {
          "name": "A1",
          "midi": 33,
          "time": 180.56139661914003,
          "velocity": 0.6535433070866141,
          "duration": 0.1085070312500136
        },
        {
          "name": "A2",
          "midi": 45,
          "time": 180.56139661914003,
          "velocity": 0.7637795275590551,
          "duration": 0.17632392578127565
        },
        {
          "name": "F3",
          "midi": 53,
          "time": 180.74612983984318,
          "velocity": 0.6299212598425197,
          "duration": 0.08219407617187358
        },
        {
          "name": "C#4",
          "midi": 61,
          "time": 180.74612983984318,
          "velocity": 0.7401574803149606,
          "duration": 0.09033210351563525
        },
        {
          "name": "A1",
          "midi": 33,
          "time": 180.83673321093693,
          "velocity": 0.6377952755905512,
          "duration": 0.10769322851561469
        },
        {
          "name": "A2",
          "midi": 45,
          "time": 180.83673321093693,
          "velocity": 0.7480314960629921,
          "duration": 0.10769322851561469
        },
        {
          "name": "C#3",
          "midi": 49,
          "time": 181.02011009374942,
          "velocity": 0.6299212598425197,
          "duration": 1.2019866386719116
        },
        {
          "name": "A#3",
          "midi": 58,
          "time": 181.02011009374942,
          "velocity": 0.7401574803149606,
          "duration": 0.21023237304686404
        },
        {
          "name": "A#1",
          "midi": 34,
          "time": 181.1123410703119,
          "velocity": 0.6692913385826772,
          "duration": 0.1180013964843738
        },
        {
          "name": "A#2",
          "midi": 46,
          "time": 181.1123410703119,
          "velocity": 0.7795275590551181,
          "duration": 0.3933379882812744
        },
        {
          "name": "A#1",
          "midi": 34,
          "time": 181.39717202734317,
          "velocity": 0.6377952755905512,
          "duration": 0.1085070312500136
        },
        {
          "name": "A#2",
          "midi": 46,
          "time": 181.39717202734317,
          "velocity": 0.7165354330708661,
          "duration": 0.3838436230469142
        },
        {
          "name": "A#1",
          "midi": 34,
          "time": 181.67250861914007,
          "velocity": 0.6535433070866141,
          "duration": 0.1085070312500136
        },
        {
          "name": "A#2",
          "midi": 46,
          "time": 181.67250861914007,
          "velocity": 0.7322834645669292,
          "duration": 0.3830298203125153
        },
        {
          "name": "A#1",
          "midi": 34,
          "time": 181.94784521093698,
          "velocity": 0.6377952755905512,
          "duration": 0.10769322851561469
        },
        {
          "name": "A#2",
          "midi": 46,
          "time": 181.94784521093698,
          "velocity": 0.7165354330708661,
          "duration": 0.2742515214843593
        },
        {
          "name": "A#3",
          "midi": 58,
          "time": 182.22345307031196,
          "velocity": 0.6692913385826772,
          "duration": 0.1180013964843738
        },
        {
          "name": "A#4",
          "midi": 70,
          "time": 182.22345307031196,
          "velocity": 0.7795275590551181,
          "duration": 0.19314251562499862
        },
        {
          "name": "A#1",
          "midi": 34,
          "time": 182.22345307031196,
          "velocity": 0.6692913385826772,
          "duration": 0.1180013964843738
        },
        {
          "name": "A#2",
          "midi": 46,
          "time": 182.22345307031196,
          "velocity": 0.7480314960629921,
          "duration": 0.18500448828123695
        },
        {
          "name": "F4",
          "midi": 65,
          "time": 182.41686685351507,
          "velocity": 0.6929133858267716,
          "duration": 0.08300787890624406
        },
        {
          "name": "C#4",
          "midi": 61,
          "time": 182.5082840273432,
          "velocity": 0.7007874015748031,
          "duration": 0.1749675878906487
        },
        {
          "name": "A#1",
          "midi": 34,
          "time": 182.5082840273432,
          "velocity": 0.6377952755905512,
          "duration": 0.1085070312500136
        },
        {
          "name": "A#2",
          "midi": 46,
          "time": 182.5082840273432,
          "velocity": 0.7165354330708661,
          "duration": 0.1085070312500136
        },
        {
          "name": "A#3",
          "midi": 58,
          "time": 182.69166091015572,
          "velocity": 0.6299212598425197,
          "duration": 0.08355041406250052
        },
        {
          "name": "A#4",
          "midi": 70,
          "time": 182.69166091015572,
          "velocity": 0.7401574803149606,
          "duration": 0.0916884414062622
        },
        {
          "name": "F4",
          "midi": 65,
          "time": 182.7836206191401,
          "velocity": 0.7165354330708661,
          "duration": 0.17632392578127565
        },
        {
          "name": "A#1",
          "midi": 34,
          "time": 182.7836206191401,
          "velocity": 0.6535433070866141,
          "duration": 0.1085070312500136
        },
        {
          "name": "A#2",
          "midi": 46,
          "time": 182.7836206191401,
          "velocity": 0.7322834645669292,
          "duration": 0.1085070312500136
        },
        {
          "name": "C#4",
          "midi": 61,
          "time": 182.96835383984325,
          "velocity": 0.6929133858267716,
          "duration": 0.08219407617187358
        },
        {
          "name": "A#3",
          "midi": 58,
          "time": 183.058957210937,
          "velocity": 0.6377952755905512,
          "duration": 0.10769322851561469
        },
        {
          "name": "A#4",
          "midi": 70,
          "time": 183.058957210937,
          "velocity": 0.7480314960629921,
          "duration": 0.18310561523438196
        },
        {
          "name": "A#1",
          "midi": 34,
          "time": 183.058957210937,
          "velocity": 0.6377952755905512,
          "duration": 0.10769322851561469
        },
        {
          "name": "A#2",
          "midi": 46,
          "time": 183.058957210937,
          "velocity": 0.7480314960629921,
          "duration": 0.17496758789062028
        },
        {
          "name": "F4",
          "midi": 65,
          "time": 183.2423340937495,
          "velocity": 0.6929133858267716,
          "duration": 0.08273661132813004
        },
        {
          "name": "F#3",
          "midi": 54,
          "time": 183.334565070312,
          "velocity": 0.6692913385826772,
          "duration": 0.1180013964843738
        },
        {
          "name": "E4",
          "midi": 64,
          "time": 183.334565070312,
          "velocity": 0.7480314960629921,
          "duration": 0.19314251562499862
        },
        {
          "name": "F#1",
          "midi": 30,
          "time": 183.334565070312,
          "velocity": 0.6692913385826772,
          "duration": 0.1180013964843738
        },
        {
          "name": "F#2",
          "midi": 42,
          "time": 183.334565070312,
          "velocity": 0.7795275590551181,
          "duration": 0.19314251562499862
        },
        {
          "name": "F#3",
          "midi": 54,
          "time": 183.52797885351512,
          "velocity": 0.6299212598425197,
          "duration": 0.08300787890624406
        },
        {
          "name": "E4",
          "midi": 64,
          "time": 183.52797885351512,
          "velocity": 0.7086614173228346,
          "duration": 0.09114590625000574
        },
        {
          "name": "F#1",
          "midi": 30,
          "time": 183.61939602734324,
          "velocity": 0.6377952755905512,
          "duration": 0.1085070312500136
        },
        {
          "name": "F#2",
          "midi": 42,
          "time": 183.61939602734324,
          "velocity": 0.7165354330708661,
          "duration": 0.1085070312500136
        },
        {
          "name": "F#3",
          "midi": 54,
          "time": 183.80277291015577,
          "velocity": 0.6299212598425197,
          "duration": 0.20046674023438982
        },
        {
          "name": "E4",
          "midi": 64,
          "time": 183.80277291015577,
          "velocity": 0.7086614173228346,
          "duration": 0.3670250332031344
        },
        {
          "name": "F#1",
          "midi": 30,
          "time": 183.89473261914014,
          "velocity": 0.6535433070866141,
          "duration": 0.1085070312500136
        },
        {
          "name": "F#2",
          "midi": 42,
          "time": 183.89473261914014,
          "velocity": 0.7322834645669292,
          "duration": 0.2750653242187582
        },
        {
          "name": "F#1",
          "midi": 30,
          "time": 184.17006921093702,
          "velocity": 0.6377952755905512,
          "duration": 0.10769322851564311
        },
        {
          "name": "F#2",
          "midi": 42,
          "time": 184.17006921093702,
          "velocity": 0.7480314960629921,
          "duration": 0.10769322851564311
        },
        {
          "name": "A#3",
          "midi": 58,
          "time": 184.44567707031203,
          "velocity": 0.6692913385826772,
          "duration": 0.1180013964843738
        },
        {
          "name": "A#4",
          "midi": 70,
          "time": 184.44567707031203,
          "velocity": 0.7795275590551181,
          "duration": 0.19314251562499862
        },
        {
          "name": "A#1",
          "midi": 34,
          "time": 184.44567707031203,
          "velocity": 0.6692913385826772,
          "duration": 0.1180013964843738
        },
        {
          "name": "A#2",
          "midi": 46,
          "time": 184.44567707031203,
          "velocity": 0.7795275590551181,
          "duration": 0.18500448828123695
        },
        {
          "name": "F4",
          "midi": 65,
          "time": 184.63909085351514,
          "velocity": 0.6929133858267716,
          "duration": 0.08300787890624406
        },
        {
          "name": "C#4",
          "midi": 61,
          "time": 184.73050802734326,
          "velocity": 0.7007874015748031,
          "duration": 0.1749675878906487
        },
        {
          "name": "A#1",
          "midi": 34,
          "time": 184.73050802734326,
          "velocity": 0.6377952755905512,
          "duration": 0.1085070312500136
        },
        {
          "name": "A#2",
          "midi": 46,
          "time": 184.73050802734326,
          "velocity": 0.7165354330708661,
          "duration": 0.1085070312500136
        },
        {
          "name": "A#3",
          "midi": 58,
          "time": 184.9138849101558,
          "velocity": 0.6299212598425197,
          "duration": 0.08355041406250052
        },
        {
          "name": "A#4",
          "midi": 70,
          "time": 184.9138849101558,
          "velocity": 0.7401574803149606,
          "duration": 0.0916884414062622
        },
        {
          "name": "F4",
          "midi": 65,
          "time": 185.00584461914016,
          "velocity": 0.7165354330708661,
          "duration": 0.17632392578127565
        },
        {
          "name": "A#1",
          "midi": 34,
          "time": 185.00584461914016,
          "velocity": 0.6535433070866141,
          "duration": 0.1085070312500136
        },
        {
          "name": "A#2",
          "midi": 46,
          "time": 185.00584461914016,
          "velocity": 0.7322834645669292,
          "duration": 0.1085070312500136
        },
        {
          "name": "C#4",
          "midi": 61,
          "time": 185.19057783984331,
          "velocity": 0.6929133858267716,
          "duration": 0.08219407617187358
        },
        {
          "name": "A#3",
          "midi": 58,
          "time": 185.28118121093706,
          "velocity": 0.6377952755905512,
          "duration": 0.10769322851561469
        },
        {
          "name": "A#4",
          "midi": 70,
          "time": 185.28118121093706,
          "velocity": 0.7480314960629921,
          "duration": 0.18310561523438196
        },
        {
          "name": "A#1",
          "midi": 34,
          "time": 185.28118121093706,
          "velocity": 0.6377952755905512,
          "duration": 0.10769322851561469
        },
        {
          "name": "A#2",
          "midi": 46,
          "time": 185.28118121093706,
          "velocity": 0.7480314960629921,
          "duration": 0.17496758789062028
        },
        {
          "name": "F4",
          "midi": 65,
          "time": 185.46455809374956,
          "velocity": 0.6929133858267716,
          "duration": 0.08273661132813004
        },
        {
          "name": "F#4",
          "midi": 66,
          "time": 185.55678907031208,
          "velocity": 0.6692913385826772,
          "duration": 0.19314251562499862
        },
        {
          "name": "E5",
          "midi": 76,
          "time": 185.55678907031208,
          "velocity": 0.7480314960629921,
          "duration": 0.19314251562499862
        },
        {
          "name": "F#1",
          "midi": 30,
          "time": 185.55678907031208,
          "velocity": 0.6692913385826772,
          "duration": 0.1180013964843738
        },
        {
          "name": "F#2",
          "midi": 42,
          "time": 185.55678907031208,
          "velocity": 0.7795275590551181,
          "duration": 0.1180013964843738
        },
        {
          "name": "F#4",
          "midi": 66,
          "time": 185.7502028535152,
          "velocity": 0.6299212598425197,
          "duration": 0.08300787890624406
        },
        {
          "name": "E5",
          "midi": 76,
          "time": 185.7502028535152,
          "velocity": 0.7086614173228346,
          "duration": 0.09114590625000574
        },
        {
          "name": "F#1",
          "midi": 30,
          "time": 185.8416200273433,
          "velocity": 0.6377952755905512,
          "duration": 0.1085070312500136
        },
        {
          "name": "F#2",
          "midi": 42,
          "time": 185.8416200273433,
          "velocity": 0.7165354330708661,
          "duration": 0.1085070312500136
        },
        {
          "name": "F#4",
          "midi": 66,
          "time": 186.02499691015583,
          "velocity": 0.6299212598425197,
          "duration": 0.3670250332031344
        },
        {
          "name": "E5",
          "midi": 76,
          "time": 186.02499691015583,
          "velocity": 0.7086614173228346,
          "duration": 0.3670250332031344
        },
        {
          "name": "F#1",
          "midi": 30,
          "time": 186.1169566191402,
          "velocity": 0.6535433070866141,
          "duration": 0.1085070312500136
        },
        {
          "name": "F#2",
          "midi": 42,
          "time": 186.1169566191402,
          "velocity": 0.7322834645669292,
          "duration": 0.1085070312500136
        },
        {
          "name": "F#1",
          "midi": 30,
          "time": 186.39229321093708,
          "velocity": 0.6377952755905512,
          "duration": 0.10769322851561469
        },
        {
          "name": "F#2",
          "midi": 42,
          "time": 186.39229321093708,
          "velocity": 0.7480314960629921,
          "duration": 0.10769322851561469
        },
        {
          "name": "A#3",
          "midi": 58,
          "time": 186.66790107031207,
          "velocity": 0.6692913385826772,
          "duration": 0.1180013964843738
        },
        {
          "name": "C#4",
          "midi": 61,
          "time": 186.66790107031207,
          "velocity": 0.6692913385826772,
          "duration": 0.18500448828123695
        },
        {
          "name": "A#4",
          "midi": 70,
          "time": 186.66790107031207,
          "velocity": 0.7795275590551181,
          "duration": 0.19314251562499862
        },
        {
          "name": "A#1",
          "midi": 34,
          "time": 186.66790107031207,
          "velocity": 0.6692913385826772,
          "duration": 0.1180013964843738
        },
        {
          "name": "A#2",
          "midi": 46,
          "time": 186.66790107031207,
          "velocity": 0.7795275590551181,
          "duration": 0.18500448828123695
        },
        {
          "name": "F4",
          "midi": 65,
          "time": 186.86131485351518,
          "velocity": 0.6929133858267716,
          "duration": 0.08300787890624406
        },
        {
          "name": "A#3",
          "midi": 58,
          "time": 186.9527320273433,
          "velocity": 0.6377952755905512,
          "duration": 0.1085070312500136
        },
        {
          "name": "C#4",
          "midi": 61,
          "time": 186.9527320273433,
          "velocity": 0.7480314960629921,
          "duration": 0.18310561523438196
        },
        {
          "name": "A#1",
          "midi": 34,
          "time": 186.9527320273433,
          "velocity": 0.6377952755905512,
          "duration": 0.1085070312500136
        },
        {
          "name": "A#2",
          "midi": 46,
          "time": 186.9527320273433,
          "velocity": 0.7165354330708661,
          "duration": 0.18310561523438196
        },
        {
          "name": "A#3",
          "midi": 58,
          "time": 187.1361089101558,
          "velocity": 0.6299212598425197,
          "duration": 0.08355041406250052
        },
        {
          "name": "C#4",
          "midi": 61,
          "time": 187.1361089101558,
          "velocity": 0.6299212598425197,
          "duration": 0.08355041406250052
        },
        {
          "name": "A#4",
          "midi": 70,
          "time": 187.1361089101558,
          "velocity": 0.7401574803149606,
          "duration": 0.0916884414062622
        },
        {
          "name": "F4",
          "midi": 65,
          "time": 187.22806861914017,
          "velocity": 0.7165354330708661,
          "duration": 0.17632392578127565
        },
        {
          "name": "A#1",
          "midi": 34,
          "time": 187.22806861914017,
          "velocity": 0.6535433070866141,
          "duration": 0.1085070312500136
        },
        {
          "name": "A#2",
          "midi": 46,
          "time": 187.22806861914017,
          "velocity": 0.7322834645669292,
          "duration": 0.1085070312500136
        },
        {
          "name": "A#3",
          "midi": 58,
          "time": 187.41280183984333,
          "velocity": 0.6299212598425197,
          "duration": 0.09033210351563525
        },
        {
          "name": "C#4",
          "midi": 61,
          "time": 187.41280183984333,
          "velocity": 0.7401574803149606,
          "duration": 0.09033210351563525
        },
        {
          "name": "A#3",
          "midi": 58,
          "time": 187.50340521093707,
          "velocity": 0.6377952755905512,
          "duration": 0.10769322851561469
        },
        {
          "name": "C#4",
          "midi": 61,
          "time": 187.50340521093707,
          "velocity": 0.6377952755905512,
          "duration": 0.17496758789062028
        },
        {
          "name": "A#4",
          "midi": 70,
          "time": 187.50340521093707,
          "velocity": 0.7480314960629921,
          "duration": 0.18310561523438196
        },
        {
          "name": "A#1",
          "midi": 34,
          "time": 187.50340521093707,
          "velocity": 0.6377952755905512,
          "duration": 0.10769322851561469
        },
        {
          "name": "A#2",
          "midi": 46,
          "time": 187.50340521093707,
          "velocity": 0.7480314960629921,
          "duration": 0.17496758789062028
        },
        {
          "name": "F4",
          "midi": 65,
          "time": 187.68678209374957,
          "velocity": 0.6929133858267716,
          "duration": 0.08273661132813004
        },
        {
          "name": "F#3",
          "midi": 54,
          "time": 187.7790130703121,
          "velocity": 0.6692913385826772,
          "duration": 0.1180013964843738
        },
        {
          "name": "C4",
          "midi": 60,
          "time": 187.7790130703121,
          "velocity": 0.6692913385826772,
          "duration": 0.19314251562499862
        },
        {
          "name": "E4",
          "midi": 64,
          "time": 187.7790130703121,
          "velocity": 0.7480314960629921,
          "duration": 0.19314251562499862
        },
        {
          "name": "F#1",
          "midi": 30,
          "time": 187.7790130703121,
          "velocity": 0.6692913385826772,
          "duration": 0.1180013964843738
        },
        {
          "name": "F#2",
          "midi": 42,
          "time": 187.7790130703121,
          "velocity": 0.7795275590551181,
          "duration": 0.19314251562499862
        },
        {
          "name": "F#3",
          "midi": 54,
          "time": 187.9724268535152,
          "velocity": 0.6299212598425197,
          "duration": 0.08300787890624406
        },
        {
          "name": "C4",
          "midi": 60,
          "time": 187.9724268535152,
          "velocity": 0.6299212598425197,
          "duration": 0.08300787890624406
        },
        {
          "name": "E4",
          "midi": 64,
          "time": 187.9724268535152,
          "velocity": 0.7086614173228346,
          "duration": 0.09114590625000574
        },
        {
          "name": "F#1",
          "midi": 30,
          "time": 188.06384402734332,
          "velocity": 0.6377952755905512,
          "duration": 0.1085070312500136
        },
        {
          "name": "F#2",
          "midi": 42,
          "time": 188.06384402734332,
          "velocity": 0.7165354330708661,
          "duration": 0.1085070312500136
        },
        {
          "name": "F#3",
          "midi": 54,
          "time": 188.24722091015585,
          "velocity": 0.6299212598425197,
          "duration": 0.20046674023438982
        },
        {
          "name": "C4",
          "midi": 60,
          "time": 188.24722091015585,
          "velocity": 0.6299212598425197,
          "duration": 0.26828363476565187
        },
        {
          "name": "E4",
          "midi": 64,
          "time": 188.24722091015585,
          "velocity": 0.7086614173228346,
          "duration": 0.27642166210941355
        },
        {
          "name": "F#1",
          "midi": 30,
          "time": 188.33918061914022,
          "velocity": 0.6535433070866141,
          "duration": 0.1085070312500136
        },
        {
          "name": "F#2",
          "midi": 42,
          "time": 188.33918061914022,
          "velocity": 0.7322834645669292,
          "duration": 0.17632392578127565
        },
        {
          "name": "A#3",
          "midi": 58,
          "time": 188.52391383984337,
          "velocity": 0.6929133858267716,
          "duration": 0.08219407617187358
        },
        {
          "name": "F#3",
          "midi": 54,
          "time": 188.61451721093712,
          "velocity": 0.6377952755905512,
          "duration": 0.10769322851561469
        },
        {
          "name": "C#4",
          "midi": 61,
          "time": 188.61451721093712,
          "velocity": 0.7480314960629921,
          "duration": 0.18310561523438196
        },
        {
          "name": "F#1",
          "midi": 30,
          "time": 188.61451721093712,
          "velocity": 0.6377952755905512,
          "duration": 0.10769322851561469
        },
        {
          "name": "F#2",
          "midi": 42,
          "time": 188.61451721093712,
          "velocity": 0.7480314960629921,
          "duration": 0.17496758789062028
        },
        {
          "name": "D4",
          "midi": 62,
          "time": 188.79789409374962,
          "velocity": 0.6929133858267716,
          "duration": 0.08273661132813004
        },
        {
          "name": "F3",
          "midi": 53,
          "time": 188.89012507031214,
          "velocity": 0.6692913385826772,
          "duration": 0.1180013964843738
        },
        {
          "name": "D#4",
          "midi": 63,
          "time": 188.89012507031214,
          "velocity": 0.7795275590551181,
          "duration": 0.19314251562499862
        },
        {
          "name": "F1",
          "midi": 29,
          "time": 188.89012507031214,
          "velocity": 0.6692913385826772,
          "duration": 0.1180013964843738
        },
        {
          "name": "F2",
          "midi": 41,
          "time": 188.89012507031214,
          "velocity": 0.7795275590551181,
          "duration": 0.18500448828123695
        },
        {
          "name": "E4",
          "midi": 64,
          "time": 189.08353885351525,
          "velocity": 0.6929133858267716,
          "duration": 0.08300787890624406
        },
        {
          "name": "F3",
          "midi": 53,
          "time": 189.17495602734337,
          "velocity": 0.6377952755905512,
          "duration": 0.1085070312500136
        },
        {
          "name": "D#4",
          "midi": 63,
          "time": 189.17495602734337,
          "velocity": 0.7480314960629921,
          "duration": 0.18310561523441038
        },
        {
          "name": "F1",
          "midi": 29,
          "time": 189.17495602734337,
          "velocity": 0.6377952755905512,
          "duration": 0.1085070312500136
        },
        {
          "name": "F2",
          "midi": 41,
          "time": 189.17495602734337,
          "velocity": 0.7480314960629921,
          "duration": 0.1749675878906487
        },
        {
          "name": "E4",
          "midi": 64,
          "time": 189.3583329101559,
          "velocity": 0.6929133858267716,
          "duration": 0.08355041406250052
        },
        {
          "name": "A3",
          "midi": 57,
          "time": 189.45029261914027,
          "velocity": 0.6535433070866141,
          "duration": 0.1085070312500136
        },
        {
          "name": "D#4",
          "midi": 63,
          "time": 189.45029261914027,
          "velocity": 0.7637795275590551,
          "duration": 0.18446195312503733
        },
        {
          "name": "A1",
          "midi": 33,
          "time": 189.45029261914027,
          "velocity": 0.6535433070866141,
          "duration": 0.1085070312500136
        },
        {
          "name": "A2",
          "midi": 45,
          "time": 189.45029261914027,
          "velocity": 0.7637795275590551,
          "duration": 0.17632392578127565
        },
        {
          "name": "F3",
          "midi": 53,
          "time": 189.63502583984342,
          "velocity": 0.6299212598425197,
          "duration": 0.08219407617187358
        },
        {
          "name": "C#4",
          "midi": 61,
          "time": 189.63502583984342,
          "velocity": 0.7401574803149606,
          "duration": 0.09033210351563525
        },
        {
          "name": "A1",
          "midi": 33,
          "time": 189.72562921093717,
          "velocity": 0.6377952755905512,
          "duration": 0.10769322851561469
        },
        {
          "name": "A2",
          "midi": 45,
          "time": 189.72562921093717,
          "velocity": 0.7480314960629921,
          "duration": 0.10769322851561469
        },
        {
          "name": "A#3",
          "midi": 58,
          "time": 189.90900609374967,
          "velocity": 0.6299212598425197,
          "duration": 0.21023237304686404
        },
        {
          "name": "F4",
          "midi": 65,
          "time": 189.90900609374967,
          "velocity": 0.6299212598425197,
          "duration": 1.2019866386719116
        },
        {
          "name": "A#4",
          "midi": 70,
          "time": 189.90900609374967,
          "velocity": 0.7401574803149606,
          "duration": 1.2019866386719116
        },
        {
          "name": "A#1",
          "midi": 34,
          "time": 190.00123707031216,
          "velocity": 0.6692913385826772,
          "duration": 0.1180013964843738
        },
        {
          "name": "A#2",
          "midi": 46,
          "time": 190.00123707031216,
          "velocity": 0.7795275590551181,
          "duration": 0.3933379882812744
        },
        {
          "name": "A#1",
          "midi": 34,
          "time": 190.28606802734342,
          "velocity": 0.6377952755905512,
          "duration": 0.1085070312500136
        },
        {
          "name": "A#2",
          "midi": 46,
          "time": 190.28606802734342,
          "velocity": 0.7165354330708661,
          "duration": 0.3838436230469142
        },
        {
          "name": "A#1",
          "midi": 34,
          "time": 190.56140461914032,
          "velocity": 0.6535433070866141,
          "duration": 0.1085070312500136
        },
        {
          "name": "A#2",
          "midi": 46,
          "time": 190.56140461914032,
          "velocity": 0.7322834645669292,
          "duration": 0.3830298203125153
        },
        {
          "name": "A#1",
          "midi": 34,
          "time": 190.83674121093722,
          "velocity": 0.6377952755905512,
          "duration": 0.10769322851561469
        },
        {
          "name": "A#2",
          "midi": 46,
          "time": 190.83674121093722,
          "velocity": 0.7165354330708661,
          "duration": 0.2742515214843593
        },
        {
          "name": "A#3",
          "midi": 58,
          "time": 191.1123490703122,
          "velocity": 0.6692913385826772,
          "duration": 0.1180013964843738
        },
        {
          "name": "F4",
          "midi": 65,
          "time": 191.1123490703122,
          "velocity": 0.6692913385826772,
          "duration": 0.18500448828123695
        },
        {
          "name": "A#4",
          "midi": 70,
          "time": 191.1123490703122,
          "velocity": 0.7480314960629921,
          "duration": 0.19314251562499862
        },
        {
          "name": "A#1",
          "midi": 34,
          "time": 191.1123490703122,
          "velocity": 0.6692913385826772,
          "duration": 0.1180013964843738
        },
        {
          "name": "A#2",
          "midi": 46,
          "time": 191.1123490703122,
          "velocity": 0.7480314960629921,
          "duration": 0.18500448828123695
        },
        {
          "name": "A4",
          "midi": 69,
          "time": 191.30576285351532,
          "velocity": 0.6929133858267716,
          "duration": 0.08300787890624406
        },
        {
          "name": "F#4",
          "midi": 66,
          "time": 191.39718002734344,
          "velocity": 0.7007874015748031,
          "duration": 0.18310561523438196
        },
        {
          "name": "A#1",
          "midi": 34,
          "time": 191.39718002734344,
          "velocity": 0.6377952755905512,
          "duration": 0.1085070312500136
        },
        {
          "name": "A#2",
          "midi": 46,
          "time": 191.39718002734344,
          "velocity": 0.7480314960629921,
          "duration": 0.1085070312500136
        },
        {
          "name": "B3",
          "midi": 59,
          "time": 191.58055691015593,
          "velocity": 0.6299212598425197,
          "duration": 0.20046674023438982
        },
        {
          "name": "F#4",
          "midi": 66,
          "time": 191.58055691015593,
          "velocity": 0.6299212598425197,
          "duration": 0.26828363476565187
        },
        {
          "name": "B4",
          "midi": 71,
          "time": 191.58055691015593,
          "velocity": 0.7086614173228346,
          "duration": 0.27642166210941355
        },
        {
          "name": "B1",
          "midi": 35,
          "time": 191.6725166191403,
          "velocity": 0.6535433070866141,
          "duration": 0.1085070312500136
        },
        {
          "name": "B2",
          "midi": 47,
          "time": 191.6725166191403,
          "velocity": 0.7637795275590551,
          "duration": 0.17632392578127565
        },
        {
          "name": "C5",
          "midi": 72,
          "time": 191.85724983984346,
          "velocity": 0.6929133858267716,
          "duration": 0.08219407617187358
        },
        {
          "name": "D5",
          "midi": 74,
          "time": 191.9478532109372,
          "velocity": 0.7007874015748031,
          "duration": 0.17496758789062028
        },
        {
          "name": "B1",
          "midi": 35,
          "time": 191.9478532109372,
          "velocity": 0.6377952755905512,
          "duration": 0.10769322851561469
        },
        {
          "name": "B2",
          "midi": 47,
          "time": 191.9478532109372,
          "velocity": 0.7480314960629921,
          "duration": 0.10769322851561469
        },
        {
          "name": "F5",
          "midi": 77,
          "time": 192.1312300937497,
          "velocity": 0.6929133858267716,
          "duration": 0.08273661132813004
        },
        {
          "name": "C4",
          "midi": 60,
          "time": 192.22346107031223,
          "velocity": 0.6692913385826772,
          "duration": 0.1180013964843738
        },
        {
          "name": "D#4",
          "midi": 63,
          "time": 192.22346107031223,
          "velocity": 0.6692913385826772,
          "duration": 0.18500448828123695
        },
        {
          "name": "C5",
          "midi": 72,
          "time": 192.22346107031223,
          "velocity": 0.7795275590551181,
          "duration": 0.19314251562499862
        },
        {
          "name": "C2",
          "midi": 36,
          "time": 192.22346107031223,
          "velocity": 0.6692913385826772,
          "duration": 0.1180013964843738
        },
        {
          "name": "C3",
          "midi": 48,
          "time": 192.22346107031223,
          "velocity": 0.7795275590551181,
          "duration": 0.18500448828123695
        },
        {
          "name": "G4",
          "midi": 67,
          "time": 192.41687485351534,
          "velocity": 0.6929133858267716,
          "duration": 0.08300787890624406
        },
        {
          "name": "C4",
          "midi": 60,
          "time": 192.50829202734346,
          "velocity": 0.6377952755905512,
          "duration": 0.1085070312500136
        },
        {
          "name": "D#4",
          "midi": 63,
          "time": 192.50829202734346,
          "velocity": 0.7480314960629921,
          "duration": 0.18310561523438196
        },
        {
          "name": "C2",
          "midi": 36,
          "time": 192.50829202734346,
          "velocity": 0.6377952755905512,
          "duration": 0.1085070312500136
        },
        {
          "name": "C3",
          "midi": 48,
          "time": 192.50829202734346,
          "velocity": 0.7165354330708661,
          "duration": 0.18310561523438196
        },
        {
          "name": "C4",
          "midi": 60,
          "time": 192.69166891015595,
          "velocity": 0.6299212598425197,
          "duration": 0.08355041406250052
        },
        {
          "name": "D#4",
          "midi": 63,
          "time": 192.69166891015595,
          "velocity": 0.6299212598425197,
          "duration": 0.08355041406250052
        },
        {
          "name": "C5",
          "midi": 72,
          "time": 192.69166891015595,
          "velocity": 0.7401574803149606,
          "duration": 0.0916884414062622
        },
        {
          "name": "G4",
          "midi": 67,
          "time": 192.78362861914033,
          "velocity": 0.7165354330708661,
          "duration": 0.17632392578127565
        },
        {
          "name": "C2",
          "midi": 36,
          "time": 192.78362861914033,
          "velocity": 0.6535433070866141,
          "duration": 0.1085070312500136
        },
        {
          "name": "C3",
          "midi": 48,
          "time": 192.78362861914033,
          "velocity": 0.7322834645669292,
          "duration": 0.1085070312500136
        },
        {
          "name": "C4",
          "midi": 60,
          "time": 192.96836183984348,
          "velocity": 0.6299212598425197,
          "duration": 0.09033210351563525
        },
        {
          "name": "D#4",
          "midi": 63,
          "time": 192.96836183984348,
          "velocity": 0.7401574803149606,
          "duration": 0.09033210351563525
        },
        {
          "name": "C4",
          "midi": 60,
          "time": 193.05896521093723,
          "velocity": 0.6377952755905512,
          "duration": 0.10769322851561469
        },
        {
          "name": "D#4",
          "midi": 63,
          "time": 193.05896521093723,
          "velocity": 0.6377952755905512,
          "duration": 0.17496758789062028
        },
        {
          "name": "C5",
          "midi": 72,
          "time": 193.05896521093723,
          "velocity": 0.7480314960629921,
          "duration": 0.18310561523438196
        },
        {
          "name": "C2",
          "midi": 36,
          "time": 193.05896521093723,
          "velocity": 0.6377952755905512,
          "duration": 0.10769322851561469
        },
        {
          "name": "C3",
          "midi": 48,
          "time": 193.05896521093723,
          "velocity": 0.7480314960629921,
          "duration": 0.17496758789062028
        },
        {
          "name": "G4",
          "midi": 67,
          "time": 193.24234209374973,
          "velocity": 0.6929133858267716,
          "duration": 0.08273661132813004
        },
        {
          "name": "G#3",
          "midi": 56,
          "time": 193.33457307031225,
          "velocity": 0.6692913385826772,
          "duration": 0.1180013964843738
        },
        {
          "name": "D4",
          "midi": 62,
          "time": 193.33457307031225,
          "velocity": 0.6692913385826772,
          "duration": 0.19314251562499862
        },
        {
          "name": "F#4",
          "midi": 66,
          "time": 193.33457307031225,
          "velocity": 0.7480314960629921,
          "duration": 0.19314251562499862
        },
        {
          "name": "G#1",
          "midi": 32,
          "time": 193.33457307031225,
          "velocity": 0.6692913385826772,
          "duration": 0.1180013964843738
        },
        {
          "name": "G#2",
          "midi": 44,
          "time": 193.33457307031225,
          "velocity": 0.7795275590551181,
          "duration": 0.19314251562499862
        },
        {
          "name": "G#3",
          "midi": 56,
          "time": 193.52798685351536,
          "velocity": 0.6299212598425197,
          "duration": 0.08300787890624406
        },
        {
          "name": "D4",
          "midi": 62,
          "time": 193.52798685351536,
          "velocity": 0.6299212598425197,
          "duration": 0.08300787890624406
        },
        {
          "name": "F#4",
          "midi": 66,
          "time": 193.52798685351536,
          "velocity": 0.7086614173228346,
          "duration": 0.09114590625000574
        },
        {
          "name": "G#1",
          "midi": 32,
          "time": 193.61940402734348,
          "velocity": 0.6377952755905512,
          "duration": 0.1085070312500136
        },
        {
          "name": "G#2",
          "midi": 44,
          "time": 193.61940402734348,
          "velocity": 0.7165354330708661,
          "duration": 0.1085070312500136
        },
        {
          "name": "G#3",
          "midi": 56,
          "time": 193.802780910156,
          "velocity": 0.6299212598425197,
          "duration": 0.20046674023438982
        },
        {
          "name": "D4",
          "midi": 62,
          "time": 193.802780910156,
          "velocity": 0.6299212598425197,
          "duration": 0.3670250332031344
        },
        {
          "name": "F#4",
          "midi": 66,
          "time": 193.802780910156,
          "velocity": 0.7086614173228346,
          "duration": 0.3670250332031344
        },
        {
          "name": "G#1",
          "midi": 32,
          "time": 193.89474061914038,
          "velocity": 0.6535433070866141,
          "duration": 0.1085070312500136
        },
        {
          "name": "G#2",
          "midi": 44,
          "time": 193.89474061914038,
          "velocity": 0.7322834645669292,
          "duration": 0.2750653242187582
        },
        {
          "name": "G#1",
          "midi": 32,
          "time": 194.17007721093725,
          "velocity": 0.6377952755905512,
          "duration": 0.10769322851561469
        },
        {
          "name": "G#2",
          "midi": 44,
          "time": 194.17007721093725,
          "velocity": 0.7480314960629921,
          "duration": 0.10769322851561469
        },
        {
          "name": "C4",
          "midi": 60,
          "time": 194.44568507031224,
          "velocity": 0.6692913385826772,
          "duration": 0.1180013964843738
        },
        {
          "name": "D#4",
          "midi": 63,
          "time": 194.44568507031224,
          "velocity": 0.6692913385826772,
          "duration": 0.18500448828123695
        },
        {
          "name": "C5",
          "midi": 72,
          "time": 194.44568507031224,
          "velocity": 0.7795275590551181,
          "duration": 0.19314251562499862
        },
        {
          "name": "C2",
          "midi": 36,
          "time": 194.44568507031224,
          "velocity": 0.6692913385826772,
          "duration": 0.1180013964843738
        },
        {
          "name": "C3",
          "midi": 48,
          "time": 194.44568507031224,
          "velocity": 0.7795275590551181,
          "duration": 0.18500448828123695
        },
        {
          "name": "G4",
          "midi": 67,
          "time": 194.63909885351535,
          "velocity": 0.6929133858267716,
          "duration": 0.08300787890624406
        },
        {
          "name": "C4",
          "midi": 60,
          "time": 194.73051602734347,
          "velocity": 0.6377952755905512,
          "duration": 0.1085070312500136
        },
        {
          "name": "D#4",
          "midi": 63,
          "time": 194.73051602734347,
          "velocity": 0.7480314960629921,
          "duration": 0.18310561523438196
        },
        {
          "name": "C2",
          "midi": 36,
          "time": 194.73051602734347,
          "velocity": 0.6377952755905512,
          "duration": 0.1085070312500136
        },
        {
          "name": "C3",
          "midi": 48,
          "time": 194.73051602734347,
          "velocity": 0.7165354330708661,
          "duration": 0.18310561523438196
        },
        {
          "name": "C4",
          "midi": 60,
          "time": 194.91389291015597,
          "velocity": 0.6299212598425197,
          "duration": 0.08355041406250052
        },
        {
          "name": "D#4",
          "midi": 63,
          "time": 194.91389291015597,
          "velocity": 0.6299212598425197,
          "duration": 0.08355041406250052
        },
        {
          "name": "C5",
          "midi": 72,
          "time": 194.91389291015597,
          "velocity": 0.7401574803149606,
          "duration": 0.0916884414062622
        },
        {
          "name": "G4",
          "midi": 67,
          "time": 195.00585261914034,
          "velocity": 0.7165354330708661,
          "duration": 0.17632392578127565
        },
        {
          "name": "C2",
          "midi": 36,
          "time": 195.00585261914034,
          "velocity": 0.6535433070866141,
          "duration": 0.1085070312500136
        },
        {
          "name": "C3",
          "midi": 48,
          "time": 195.00585261914034,
          "velocity": 0.7322834645669292,
          "duration": 0.1085070312500136
        },
        {
          "name": "C4",
          "midi": 60,
          "time": 195.1905858398435,
          "velocity": 0.6299212598425197,
          "duration": 0.09033210351563525
        },
        {
          "name": "D#4",
          "midi": 63,
          "time": 195.1905858398435,
          "velocity": 0.7401574803149606,
          "duration": 0.09033210351563525
        },
        {
          "name": "C4",
          "midi": 60,
          "time": 195.28118921093724,
          "velocity": 0.6377952755905512,
          "duration": 0.10769322851561469
        },
        {
          "name": "D#4",
          "midi": 63,
          "time": 195.28118921093724,
          "velocity": 0.6377952755905512,
          "duration": 0.17496758789062028
        },
        {
          "name": "C5",
          "midi": 72,
          "time": 195.28118921093724,
          "velocity": 0.7480314960629921,
          "duration": 0.18310561523438196
        },
        {
          "name": "C2",
          "midi": 36,
          "time": 195.28118921093724,
          "velocity": 0.6377952755905512,
          "duration": 0.10769322851561469
        },
        {
          "name": "C3",
          "midi": 48,
          "time": 195.28118921093724,
          "velocity": 0.7480314960629921,
          "duration": 0.17496758789062028
        },
        {
          "name": "G4",
          "midi": 67,
          "time": 195.46456609374974,
          "velocity": 0.6929133858267716,
          "duration": 0.08273661132813004
        },
        {
          "name": "G#4",
          "midi": 68,
          "time": 195.55679707031226,
          "velocity": 0.6692913385826772,
          "duration": 0.19314251562499862
        },
        {
          "name": "D5",
          "midi": 74,
          "time": 195.55679707031226,
          "velocity": 0.6692913385826772,
          "duration": 0.19314251562499862
        },
        {
          "name": "F#5",
          "midi": 78,
          "time": 195.55679707031226,
          "velocity": 0.7480314960629921,
          "duration": 0.19314251562499862
        },
        {
          "name": "G#1",
          "midi": 32,
          "time": 195.55679707031226,
          "velocity": 0.6692913385826772,
          "duration": 0.1180013964843738
        },
        {
          "name": "G#2",
          "midi": 44,
          "time": 195.55679707031226,
          "velocity": 0.7795275590551181,
          "duration": 0.1180013964843738
        },
        {
          "name": "G#4",
          "midi": 68,
          "time": 195.75021085351537,
          "velocity": 0.6299212598425197,
          "duration": 0.08300787890624406
        },
        {
          "name": "D5",
          "midi": 74,
          "time": 195.75021085351537,
          "velocity": 0.6299212598425197,
          "duration": 0.08300787890624406
        },
        {
          "name": "F#5",
          "midi": 78,
          "time": 195.75021085351537,
          "velocity": 0.7086614173228346,
          "duration": 0.09114590625000574
        },
        {
          "name": "G#1",
          "midi": 32,
          "time": 195.8416280273435,
          "velocity": 0.6377952755905512,
          "duration": 0.1085070312500136
        },
        {
          "name": "G#2",
          "midi": 44,
          "time": 195.8416280273435,
          "velocity": 0.7165354330708661,
          "duration": 0.1085070312500136
        },
        {
          "name": "G#4",
          "midi": 68,
          "time": 196.025004910156,
          "velocity": 0.6299212598425197,
          "duration": 0.3670250332031344
        },
        {
          "name": "D5",
          "midi": 74,
          "time": 196.025004910156,
          "velocity": 0.6299212598425197,
          "duration": 0.3670250332031344
        },
        {
          "name": "F#5",
          "midi": 78,
          "time": 196.025004910156,
          "velocity": 0.7086614173228346,
          "duration": 0.3670250332031344
        },
        {
          "name": "G#1",
          "midi": 32,
          "time": 196.1169646191404,
          "velocity": 0.6535433070866141,
          "duration": 0.1085070312500136
        },
        {
          "name": "G#2",
          "midi": 44,
          "time": 196.1169646191404,
          "velocity": 0.7322834645669292,
          "duration": 0.1085070312500136
        },
        {
          "name": "G#1",
          "midi": 32,
          "time": 196.39230121093726,
          "velocity": 0.6377952755905512,
          "duration": 0.10769322851561469
        },
        {
          "name": "G#2",
          "midi": 44,
          "time": 196.39230121093726,
          "velocity": 0.7480314960629921,
          "duration": 0.10769322851561469
        },
        {
          "name": "C4",
          "midi": 60,
          "time": 196.66790907031225,
          "velocity": 0.6692913385826772,
          "duration": 0.1180013964843738
        },
        {
          "name": "D#4",
          "midi": 63,
          "time": 196.66790907031225,
          "velocity": 0.6692913385826772,
          "duration": 0.18500448828123695
        },
        {
          "name": "C5",
          "midi": 72,
          "time": 196.66790907031225,
          "velocity": 0.7795275590551181,
          "duration": 0.19314251562499862
        },
        {
          "name": "C2",
          "midi": 36,
          "time": 196.66790907031225,
          "velocity": 0.6692913385826772,
          "duration": 0.1180013964843738
        },
        {
          "name": "C3",
          "midi": 48,
          "time": 196.66790907031225,
          "velocity": 0.7795275590551181,
          "duration": 0.18500448828123695
        },
        {
          "name": "G4",
          "midi": 67,
          "time": 196.86132285351536,
          "velocity": 0.6929133858267716,
          "duration": 0.08300787890624406
        },
        {
          "name": "C4",
          "midi": 60,
          "time": 196.95274002734348,
          "velocity": 0.6377952755905512,
          "duration": 0.1085070312500136
        },
        {
          "name": "D#4",
          "midi": 63,
          "time": 196.95274002734348,
          "velocity": 0.7480314960629921,
          "duration": 0.18310561523438196
        },
        {
          "name": "C2",
          "midi": 36,
          "time": 196.95274002734348,
          "velocity": 0.6377952755905512,
          "duration": 0.1085070312500136
        },
        {
          "name": "C3",
          "midi": 48,
          "time": 196.95274002734348,
          "velocity": 0.7165354330708661,
          "duration": 0.18310561523438196
        },
        {
          "name": "C4",
          "midi": 60,
          "time": 197.13611691015598,
          "velocity": 0.6299212598425197,
          "duration": 0.08355041406250052
        },
        {
          "name": "D#4",
          "midi": 63,
          "time": 197.13611691015598,
          "velocity": 0.6299212598425197,
          "duration": 0.08355041406250052
        },
        {
          "name": "C5",
          "midi": 72,
          "time": 197.13611691015598,
          "velocity": 0.7401574803149606,
          "duration": 0.0916884414062622
        },
        {
          "name": "G4",
          "midi": 67,
          "time": 197.22807661914035,
          "velocity": 0.7165354330708661,
          "duration": 0.17632392578127565
        },
        {
          "name": "C2",
          "midi": 36,
          "time": 197.22807661914035,
          "velocity": 0.6535433070866141,
          "duration": 0.1085070312500136
        },
        {
          "name": "C3",
          "midi": 48,
          "time": 197.22807661914035,
          "velocity": 0.7322834645669292,
          "duration": 0.1085070312500136
        },
        {
          "name": "C4",
          "midi": 60,
          "time": 197.4128098398435,
          "velocity": 0.6299212598425197,
          "duration": 0.09033210351563525
        },
        {
          "name": "D#4",
          "midi": 63,
          "time": 197.4128098398435,
          "velocity": 0.7401574803149606,
          "duration": 0.09033210351563525
        },
        {
          "name": "C4",
          "midi": 60,
          "time": 197.50341321093725,
          "velocity": 0.6377952755905512,
          "duration": 0.10769322851561469
        },
        {
          "name": "D#4",
          "midi": 63,
          "time": 197.50341321093725,
          "velocity": 0.6377952755905512,
          "duration": 0.17496758789062028
        },
        {
          "name": "C5",
          "midi": 72,
          "time": 197.50341321093725,
          "velocity": 0.7480314960629921,
          "duration": 0.18310561523438196
        },
        {
          "name": "C2",
          "midi": 36,
          "time": 197.50341321093725,
          "velocity": 0.6377952755905512,
          "duration": 0.10769322851561469
        },
        {
          "name": "C3",
          "midi": 48,
          "time": 197.50341321093725,
          "velocity": 0.7480314960629921,
          "duration": 0.17496758789062028
        },
        {
          "name": "G4",
          "midi": 67,
          "time": 197.68679009374975,
          "velocity": 0.6929133858267716,
          "duration": 0.08273661132813004
        },
        {
          "name": "G#3",
          "midi": 56,
          "time": 197.77902107031227,
          "velocity": 0.6692913385826772,
          "duration": 0.1180013964843738
        },
        {
          "name": "D4",
          "midi": 62,
          "time": 197.77902107031227,
          "velocity": 0.6692913385826772,
          "duration": 0.19314251562499862
        },
        {
          "name": "F#4",
          "midi": 66,
          "time": 197.77902107031227,
          "velocity": 0.7480314960629921,
          "duration": 0.19314251562499862
        },
        {
          "name": "G#1",
          "midi": 32,
          "time": 197.77902107031227,
          "velocity": 0.6692913385826772,
          "duration": 0.1180013964843738
        },
        {
          "name": "G#2",
          "midi": 44,
          "time": 197.77902107031227,
          "velocity": 0.7795275590551181,
          "duration": 0.19314251562499862
        },
        {
          "name": "G#3",
          "midi": 56,
          "time": 197.97243485351538,
          "velocity": 0.6299212598425197,
          "duration": 0.08300787890624406
        },
        {
          "name": "D4",
          "midi": 62,
          "time": 197.97243485351538,
          "velocity": 0.6299212598425197,
          "duration": 0.08300787890624406
        },
        {
          "name": "F#4",
          "midi": 66,
          "time": 197.97243485351538,
          "velocity": 0.7086614173228346,
          "duration": 0.09114590625000574
        },
        {
          "name": "G#1",
          "midi": 32,
          "time": 198.0638520273435,
          "velocity": 0.6377952755905512,
          "duration": 0.1085070312500136
        },
        {
          "name": "G#2",
          "midi": 44,
          "time": 198.0638520273435,
          "velocity": 0.7165354330708661,
          "duration": 0.1085070312500136
        },
        {
          "name": "G#3",
          "midi": 56,
          "time": 198.24722891015602,
          "velocity": 0.6299212598425197,
          "duration": 0.20046674023438982
        },
        {
          "name": "D4",
          "midi": 62,
          "time": 198.24722891015602,
          "velocity": 0.6299212598425197,
          "duration": 0.26828363476565187
        },
        {
          "name": "F#4",
          "midi": 66,
          "time": 198.24722891015602,
          "velocity": 0.7086614173228346,
          "duration": 0.27642166210941355
        },
        {
          "name": "G#1",
          "midi": 32,
          "time": 198.3391886191404,
          "velocity": 0.6535433070866141,
          "duration": 0.1085070312500136
        },
        {
          "name": "G#2",
          "midi": 44,
          "time": 198.3391886191404,
          "velocity": 0.7322834645669292,
          "duration": 0.17632392578127565
        },
        {
          "name": "C4",
          "midi": 60,
          "time": 198.52392183984355,
          "velocity": 0.6929133858267716,
          "duration": 0.08219407617187358
        },
        {
          "name": "G#3",
          "midi": 56,
          "time": 198.6145252109373,
          "velocity": 0.6377952755905512,
          "duration": 0.10769322851561469
        },
        {
          "name": "D#4",
          "midi": 63,
          "time": 198.6145252109373,
          "velocity": 0.7480314960629921,
          "duration": 0.18310561523438196
        },
        {
          "name": "G#1",
          "midi": 32,
          "time": 198.6145252109373,
          "velocity": 0.6377952755905512,
          "duration": 0.10769322851561469
        },
        {
          "name": "G#2",
          "midi": 44,
          "time": 198.6145252109373,
          "velocity": 0.7480314960629921,
          "duration": 0.17496758789062028
        },
        {
          "name": "E4",
          "midi": 64,
          "time": 198.7979020937498,
          "velocity": 0.6929133858267716,
          "duration": 0.08273661132813004
        },
        {
          "name": "G3",
          "midi": 55,
          "time": 198.89013307031232,
          "velocity": 0.6692913385826772,
          "duration": 0.1180013964843738
        },
        {
          "name": "F4",
          "midi": 65,
          "time": 198.89013307031232,
          "velocity": 0.7795275590551181,
          "duration": 0.19314251562499862
        },
        {
          "name": "G1",
          "midi": 31,
          "time": 198.89013307031232,
          "velocity": 0.6692913385826772,
          "duration": 0.1180013964843738
        },
        {
          "name": "G2",
          "midi": 43,
          "time": 198.89013307031232,
          "velocity": 0.7795275590551181,
          "duration": 0.18500448828123695
        },
        {
          "name": "F#4",
          "midi": 66,
          "time": 199.08354685351543,
          "velocity": 0.6929133858267716,
          "duration": 0.08300787890624406
        },
        {
          "name": "G3",
          "midi": 55,
          "time": 199.17496402734355,
          "velocity": 0.6377952755905512,
          "duration": 0.1085070312500136
        },
        {
          "name": "F4",
          "midi": 65,
          "time": 199.17496402734355,
          "velocity": 0.7480314960629921,
          "duration": 0.18310561523441038
        },
        {
          "name": "G1",
          "midi": 31,
          "time": 199.17496402734355,
          "velocity": 0.6377952755905512,
          "duration": 0.1085070312500136
        },
        {
          "name": "G2",
          "midi": 43,
          "time": 199.17496402734355,
          "velocity": 0.7480314960629921,
          "duration": 0.1749675878906487
        },
        {
          "name": "F#4",
          "midi": 66,
          "time": 199.35834091015607,
          "velocity": 0.6929133858267716,
          "duration": 0.08355041406250052
        },
        {
          "name": "B3",
          "midi": 59,
          "time": 199.45030061914045,
          "velocity": 0.6535433070866141,
          "duration": 0.1085070312500136
        },
        {
          "name": "F4",
          "midi": 65,
          "time": 199.45030061914045,
          "velocity": 0.7637795275590551,
          "duration": 0.18446195312503733
        },
        {
          "name": "B1",
          "midi": 35,
          "time": 199.45030061914045,
          "velocity": 0.6535433070866141,
          "duration": 0.1085070312500136
        },
        {
          "name": "B2",
          "midi": 47,
          "time": 199.45030061914045,
          "velocity": 0.7637795275590551,
          "duration": 0.17632392578127565
        },
        {
          "name": "G3",
          "midi": 55,
          "time": 199.6350338398436,
          "velocity": 0.6299212598425197,
          "duration": 0.08219407617187358
        },
        {
          "name": "D#4",
          "midi": 63,
          "time": 199.6350338398436,
          "velocity": 0.7401574803149606,
          "duration": 0.09033210351563525
        },
        {
          "name": "B1",
          "midi": 35,
          "time": 199.72563721093735,
          "velocity": 0.6377952755905512,
          "duration": 0.10769322851561469
        },
        {
          "name": "B2",
          "midi": 47,
          "time": 199.72563721093735,
          "velocity": 0.7480314960629921,
          "duration": 0.10769322851561469
        },
        {
          "name": "D#3",
          "midi": 51,
          "time": 199.90901409374985,
          "velocity": 0.7165354330708661,
          "duration": 0.6521272578125092
        },
        {
          "name": "C4",
          "midi": 60,
          "time": 199.90901409374985,
          "velocity": 0.7165354330708661,
          "duration": 0.21023237304686404
        },
        {
          "name": "D#4",
          "midi": 63,
          "time": 199.90901409374985,
          "velocity": 0.6771653543307087,
          "duration": 0.6521272578125092
        },
        {
          "name": "C2",
          "midi": 36,
          "time": 200.00124507031234,
          "velocity": 0.6692913385826772,
          "duration": 0.1180013964843738
        },
        {
          "name": "C3",
          "midi": 48,
          "time": 200.00124507031234,
          "velocity": 0.7795275590551181,
          "duration": 0.3933379882812744
        },
        {
          "name": "C2",
          "midi": 36,
          "time": 200.2860760273436,
          "velocity": 0.6377952755905512,
          "duration": 0.1085070312500136
        },
        {
          "name": "C3",
          "midi": 48,
          "time": 200.2860760273436,
          "velocity": 0.7165354330708661,
          "duration": 0.2750653242187582
        },
        {
          "name": "C4",
          "midi": 60,
          "time": 200.56141261914047,
          "velocity": 0.6535433070866141,
          "duration": 0.1085070312500136
        },
        {
          "name": "C5",
          "midi": 72,
          "time": 200.56141261914047,
          "velocity": 0.7637795275590551,
          "duration": 0.18446195312503733
        },
        {
          "name": "C2",
          "midi": 36,
          "time": 200.56141261914047,
          "velocity": 0.6535433070866141,
          "duration": 0.1085070312500136
        },
        {
          "name": "C3",
          "midi": 48,
          "time": 200.56141261914047,
          "velocity": 0.7322834645669292,
          "duration": 0.17632392578127565
        },
        {
          "name": "D4",
          "midi": 62,
          "time": 200.74614583984362,
          "velocity": 0.6299212598425197,
          "duration": 0.08219407617187358
        },
        {
          "name": "D5",
          "midi": 74,
          "time": 200.74614583984362,
          "velocity": 0.7401574803149606,
          "duration": 0.09033210351563525
        },
        {
          "name": "D#4",
          "midi": 63,
          "time": 200.83674921093737,
          "velocity": 0.6377952755905512,
          "duration": 0.17496758789062028
        },
        {
          "name": "D#5",
          "midi": 75,
          "time": 200.83674921093737,
          "velocity": 0.7480314960629921,
          "duration": 0.18310561523438196
        },
        {
          "name": "C2",
          "midi": 36,
          "time": 200.83674921093737,
          "velocity": 0.6377952755905512,
          "duration": 0.10769322851561469
        },
        {
          "name": "C3",
          "midi": 48,
          "time": 200.83674921093737,
          "velocity": 0.7480314960629921,
          "duration": 0.10769322851561469
        },
        {
          "name": "E4",
          "midi": 64,
          "time": 201.02012609374987,
          "velocity": 0.6299212598425197,
          "duration": 0.08273661132813004
        },
        {
          "name": "E5",
          "midi": 76,
          "time": 201.02012609374987,
          "velocity": 0.7401574803149606,
          "duration": 0.09087463867189172
        },
        {
          "name": "F4",
          "midi": 65,
          "time": 201.11235707031238,
          "velocity": 0.6692913385826772,
          "duration": 0.4679365722656428
        },
        {
          "name": "F5",
          "midi": 77,
          "time": 201.11235707031238,
          "velocity": 0.7795275590551181,
          "duration": 0.4679365722656428
        },
        {
          "name": "F2",
          "midi": 41,
          "time": 201.11235707031238,
          "velocity": 0.6692913385826772,
          "duration": 0.1180013964843738
        },
        {
          "name": "F3",
          "midi": 53,
          "time": 201.11235707031238,
          "velocity": 0.7795275590551181,
          "duration": 0.1180013964843738
        },
        {
          "name": "F2",
          "midi": 41,
          "time": 201.39718802734365,
          "velocity": 0.6377952755905512,
          "duration": 0.1085070312500136
        },
        {
          "name": "F3",
          "midi": 53,
          "time": 201.39718802734365,
          "velocity": 0.7165354330708661,
          "duration": 0.1085070312500136
        },
        {
          "name": "G#4",
          "midi": 68,
          "time": 201.58056491015614,
          "velocity": 0.6299212598425197,
          "duration": 0.3670250332031344
        },
        {
          "name": "G#5",
          "midi": 80,
          "time": 201.58056491015614,
          "velocity": 0.7401574803149606,
          "duration": 0.3670250332031344
        },
        {
          "name": "F2",
          "midi": 41,
          "time": 201.67252461914052,
          "velocity": 0.6535433070866141,
          "duration": 0.1085070312500136
        },
        {
          "name": "F3",
          "midi": 53,
          "time": 201.67252461914052,
          "velocity": 0.7322834645669292,
          "duration": 0.1085070312500136
        },
        {
          "name": "C5",
          "midi": 72,
          "time": 201.9478612109374,
          "velocity": 0.6377952755905512,
          "duration": 0.2742515214843593
        },
        {
          "name": "C6",
          "midi": 84,
          "time": 201.9478612109374,
          "velocity": 0.7480314960629921,
          "duration": 0.2742515214843593
        },
        {
          "name": "F2",
          "midi": 41,
          "time": 201.9478612109374,
          "velocity": 0.6377952755905512,
          "duration": 0.10769322851561469
        },
        {
          "name": "F3",
          "midi": 53,
          "time": 201.9478612109374,
          "velocity": 0.7480314960629921,
          "duration": 0.10769322851561469
        },
        {
          "name": "D#5",
          "midi": 75,
          "time": 202.22346907031238,
          "velocity": 0.6692913385826772,
          "duration": 0.18500448828123695
        },
        {
          "name": "D#6",
          "midi": 87,
          "time": 202.22346907031238,
          "velocity": 0.7795275590551181,
          "duration": 0.19314251562499862
        },
        {
          "name": "C2",
          "midi": 36,
          "time": 202.22346907031238,
          "velocity": 0.6535433070866141,
          "duration": 0.1180013964843738
        },
        {
          "name": "C3",
          "midi": 48,
          "time": 202.22346907031238,
          "velocity": 0.7795275590551181,
          "duration": 0.1180013964843738
        },
        {
          "name": "D5",
          "midi": 74,
          "time": 202.4168828535155,
          "velocity": 0.6299212598425197,
          "duration": 0.2745227890625017
        },
        {
          "name": "D6",
          "midi": 86,
          "time": 202.4168828535155,
          "velocity": 0.7401574803149606,
          "duration": 0.2745227890625017
        },
        {
          "name": "C2",
          "midi": 36,
          "time": 202.5083000273436,
          "velocity": 0.6220472440944882,
          "duration": 0.1085070312500136
        },
        {
          "name": "C3",
          "midi": 48,
          "time": 202.5083000273436,
          "velocity": 0.7165354330708661,
          "duration": 0.1085070312500136
        },
        {
          "name": "C5",
          "midi": 72,
          "time": 202.6916769101561,
          "velocity": 0.6299212598425197,
          "duration": 0.3670250332031344
        },
        {
          "name": "C6",
          "midi": 84,
          "time": 202.6916769101561,
          "velocity": 0.7401574803149606,
          "duration": 0.3670250332031344
        },
        {
          "name": "C2",
          "midi": 36,
          "time": 202.78363661914048,
          "velocity": 0.6377952755905512,
          "duration": 0.1085070312500136
        },
        {
          "name": "C3",
          "midi": 48,
          "time": 202.78363661914048,
          "velocity": 0.7322834645669292,
          "duration": 0.1085070312500136
        },
        {
          "name": "C2",
          "midi": 36,
          "time": 203.05897321093735,
          "velocity": 0.6220472440944882,
          "duration": 0.10769322851561469
        },
        {
          "name": "C3",
          "midi": 48,
          "time": 203.05897321093735,
          "velocity": 0.7480314960629921,
          "duration": 0.10769322851561469
        },
        {
          "name": "B4",
          "midi": 71,
          "time": 203.33458107031234,
          "velocity": 0.6692913385826772,
          "duration": 0.18500448828123695
        },
        {
          "name": "B5",
          "midi": 83,
          "time": 203.33458107031234,
          "velocity": 0.7795275590551181,
          "duration": 0.19314251562499862
        },
        {
          "name": "G1",
          "midi": 31,
          "time": 203.33458107031234,
          "velocity": 0.6692913385826772,
          "duration": 0.1180013964843738
        },
        {
          "name": "G2",
          "midi": 43,
          "time": 203.33458107031234,
          "velocity": 0.7795275590551181,
          "duration": 0.1180013964843738
        },
        {
          "name": "G#4",
          "midi": 68,
          "time": 203.52799485351545,
          "velocity": 0.6299212598425197,
          "duration": 0.08300787890624406
        },
        {
          "name": "G#5",
          "midi": 80,
          "time": 203.52799485351545,
          "velocity": 0.7401574803149606,
          "duration": 0.09114590625000574
        },
        {
          "name": "G4",
          "midi": 67,
          "time": 203.61941202734357,
          "velocity": 0.6377952755905512,
          "duration": 0.1749675878906487
        },
        {
          "name": "G5",
          "midi": 79,
          "time": 203.61941202734357,
          "velocity": 0.7480314960629921,
          "duration": 0.18310561523441038
        },
        {
          "name": "G1",
          "midi": 31,
          "time": 203.61941202734357,
          "velocity": 0.6377952755905512,
          "duration": 0.1085070312500136
        },
        {
          "name": "G2",
          "midi": 43,
          "time": 203.61941202734357,
          "velocity": 0.7165354330708661,
          "duration": 0.1085070312500136
        },
        {
          "name": "D4",
          "midi": 62,
          "time": 203.8027889101561,
          "velocity": 0.6299212598425197,
          "duration": 0.26828363476565187
        },
        {
          "name": "D5",
          "midi": 74,
          "time": 203.8027889101561,
          "velocity": 0.7401574803149606,
          "duration": 0.27642166210941355
        },
        {
          "name": "G1",
          "midi": 31,
          "time": 203.89474861914047,
          "velocity": 0.6535433070866141,
          "duration": 0.1085070312500136
        },
        {
          "name": "G2",
          "midi": 43,
          "time": 203.89474861914047,
          "velocity": 0.7322834645669292,
          "duration": 0.1085070312500136
        },
        {
          "name": "F4",
          "midi": 65,
          "time": 204.07948183984362,
          "velocity": 0.6299212598425197,
          "duration": 0.2737089863281028
        },
        {
          "name": "F5",
          "midi": 77,
          "time": 204.07948183984362,
          "velocity": 0.7401574803149606,
          "duration": 0.2737089863281028
        },
        {
          "name": "G1",
          "midi": 31,
          "time": 204.17008521093737,
          "velocity": 0.6377952755905512,
          "duration": 0.10769322851561469
        },
        {
          "name": "G2",
          "midi": 43,
          "time": 204.17008521093737,
          "velocity": 0.7480314960629921,
          "duration": 0.10769322851561469
        },
        {
          "name": "D#4",
          "midi": 63,
          "time": 204.35346209374984,
          "velocity": 0.6299212598425197,
          "duration": 0.08273661132813004
        },
        {
          "name": "D#5",
          "midi": 75,
          "time": 204.35346209374984,
          "velocity": 0.7401574803149606,
          "duration": 0.09087463867189172
        },
        {
          "name": "C4",
          "midi": 60,
          "time": 204.44569307031236,
          "velocity": 0.6692913385826772,
          "duration": 0.2845596894531184
        },
        {
          "name": "C5",
          "midi": 72,
          "time": 204.44569307031236,
          "velocity": 0.7795275590551181,
          "duration": 0.2845596894531184
        },
        {
          "name": "C2",
          "midi": 36,
          "time": 204.44569307031236,
          "velocity": 0.6535433070866141,
          "duration": 0.1180013964843738
        },
        {
          "name": "C3",
          "midi": 48,
          "time": 204.44569307031236,
          "velocity": 0.7795275590551181,
          "duration": 0.1180013964843738
        },
        {
          "name": "C4",
          "midi": 60,
          "time": 204.7305240273436,
          "velocity": 0.6377952755905512,
          "duration": 0.1749675878906487
        },
        {
          "name": "C5",
          "midi": 72,
          "time": 204.7305240273436,
          "velocity": 0.7480314960629921,
          "duration": 0.18310561523441038
        },
        {
          "name": "C2",
          "midi": 36,
          "time": 204.7305240273436,
          "velocity": 0.6220472440944882,
          "duration": 0.1085070312500136
        },
        {
          "name": "C3",
          "midi": 48,
          "time": 204.7305240273436,
          "velocity": 0.7165354330708661,
          "duration": 0.1085070312500136
        },
        {
          "name": "D#4",
          "midi": 63,
          "time": 204.91390091015612,
          "velocity": 0.6299212598425197,
          "duration": 0.26828363476565187
        },
        {
          "name": "D#5",
          "midi": 75,
          "time": 204.91390091015612,
          "velocity": 0.7401574803149606,
          "duration": 0.27642166210941355
        },
        {
          "name": "C2",
          "midi": 36,
          "time": 205.0058606191405,
          "velocity": 0.6377952755905512,
          "duration": 0.1085070312500136
        },
        {
          "name": "C3",
          "midi": 48,
          "time": 205.0058606191405,
          "velocity": 0.7322834645669292,
          "duration": 0.1085070312500136
        },
        {
          "name": "D4",
          "midi": 62,
          "time": 205.19059383984364,
          "velocity": 0.6299212598425197,
          "duration": 0.08219407617187358
        },
        {
          "name": "D5",
          "midi": 74,
          "time": 205.19059383984364,
          "velocity": 0.7401574803149606,
          "duration": 0.09033210351563525
        },
        {
          "name": "D#4",
          "midi": 63,
          "time": 205.2811972109374,
          "velocity": 0.6377952755905512,
          "duration": 0.17496758789062028
        },
        {
          "name": "D#5",
          "midi": 75,
          "time": 205.2811972109374,
          "velocity": 0.7480314960629921,
          "duration": 0.18310561523438196
        },
        {
          "name": "C2",
          "midi": 36,
          "time": 205.2811972109374,
          "velocity": 0.6220472440944882,
          "duration": 0.10769322851561469
        },
        {
          "name": "C3",
          "midi": 48,
          "time": 205.2811972109374,
          "velocity": 0.7480314960629921,
          "duration": 0.10769322851561469
        },
        {
          "name": "E4",
          "midi": 64,
          "time": 205.4645740937499,
          "velocity": 0.6299212598425197,
          "duration": 0.08273661132813004
        },
        {
          "name": "E5",
          "midi": 76,
          "time": 205.4645740937499,
          "velocity": 0.7401574803149606,
          "duration": 0.09087463867189172
        },
        {
          "name": "F4",
          "midi": 65,
          "time": 205.5568050703124,
          "velocity": 0.6692913385826772,
          "duration": 0.4679365722656428
        },
        {
          "name": "F5",
          "midi": 77,
          "time": 205.5568050703124,
          "velocity": 0.7795275590551181,
          "duration": 0.4679365722656428
        },
        {
          "name": "F2",
          "midi": 41,
          "time": 205.5568050703124,
          "velocity": 0.6692913385826772,
          "duration": 0.1180013964843738
        },
        {
          "name": "F3",
          "midi": 53,
          "time": 205.5568050703124,
          "velocity": 0.7795275590551181,
          "duration": 0.1180013964843738
        },
        {
          "name": "F2",
          "midi": 41,
          "time": 205.84163602734367,
          "velocity": 0.6377952755905512,
          "duration": 0.1085070312500136
        },
        {
          "name": "F3",
          "midi": 53,
          "time": 205.84163602734367,
          "velocity": 0.7165354330708661,
          "duration": 0.1085070312500136
        },
        {
          "name": "G#4",
          "midi": 68,
          "time": 206.02501291015616,
          "velocity": 0.6299212598425197,
          "duration": 0.3670250332031344
        },
        {
          "name": "G#5",
          "midi": 80,
          "time": 206.02501291015616,
          "velocity": 0.7401574803149606,
          "duration": 0.3670250332031344
        },
        {
          "name": "F2",
          "midi": 41,
          "time": 206.11697261914054,
          "velocity": 0.6535433070866141,
          "duration": 0.1085070312500136
        },
        {
          "name": "F3",
          "midi": 53,
          "time": 206.11697261914054,
          "velocity": 0.7322834645669292,
          "duration": 0.1085070312500136
        },
        {
          "name": "C5",
          "midi": 72,
          "time": 206.3923092109374,
          "velocity": 0.6377952755905512,
          "duration": 0.2742515214843593
        },
        {
          "name": "C6",
          "midi": 84,
          "time": 206.3923092109374,
          "velocity": 0.7480314960629921,
          "duration": 0.2742515214843593
        },
        {
          "name": "F2",
          "midi": 41,
          "time": 206.3923092109374,
          "velocity": 0.6377952755905512,
          "duration": 0.10769322851561469
        },
        {
          "name": "F3",
          "midi": 53,
          "time": 206.3923092109374,
          "velocity": 0.7480314960629921,
          "duration": 0.10769322851561469
        },
        {
          "name": "D#5",
          "midi": 75,
          "time": 206.6679170703124,
          "velocity": 0.6692913385826772,
          "duration": 0.18500448828123695
        },
        {
          "name": "D#6",
          "midi": 87,
          "time": 206.6679170703124,
          "velocity": 0.7795275590551181,
          "duration": 0.19314251562499862
        },
        {
          "name": "C2",
          "midi": 36,
          "time": 206.6679170703124,
          "velocity": 0.6535433070866141,
          "duration": 0.1180013964843738
        },
        {
          "name": "C3",
          "midi": 48,
          "time": 206.6679170703124,
          "velocity": 0.7795275590551181,
          "duration": 0.1180013964843738
        },
        {
          "name": "D5",
          "midi": 74,
          "time": 206.8613308535155,
          "velocity": 0.6299212598425197,
          "duration": 0.2745227890625017
        },
        {
          "name": "D6",
          "midi": 86,
          "time": 206.8613308535155,
          "velocity": 0.7401574803149606,
          "duration": 0.2745227890625017
        },
        {
          "name": "C2",
          "midi": 36,
          "time": 206.95274802734363,
          "velocity": 0.6220472440944882,
          "duration": 0.1085070312500136
        },
        {
          "name": "C3",
          "midi": 48,
          "time": 206.95274802734363,
          "velocity": 0.7165354330708661,
          "duration": 0.1085070312500136
        },
        {
          "name": "C5",
          "midi": 72,
          "time": 207.13612491015613,
          "velocity": 0.6299212598425197,
          "duration": 0.26828363476565187
        },
        {
          "name": "C6",
          "midi": 84,
          "time": 207.13612491015613,
          "velocity": 0.7401574803149606,
          "duration": 0.27642166210941355
        },
        {
          "name": "C2",
          "midi": 36,
          "time": 207.2280846191405,
          "velocity": 0.6377952755905512,
          "duration": 0.1085070312500136
        },
        {
          "name": "C3",
          "midi": 48,
          "time": 207.2280846191405,
          "velocity": 0.7322834645669292,
          "duration": 0.1085070312500136
        },
        {
          "name": "B4",
          "midi": 71,
          "time": 207.41281783984365,
          "velocity": 0.6299212598425197,
          "duration": 0.08219407617187358
        },
        {
          "name": "B5",
          "midi": 83,
          "time": 207.41281783984365,
          "velocity": 0.7401574803149606,
          "duration": 0.09033210351563525
        },
        {
          "name": "C5",
          "midi": 72,
          "time": 207.5034212109374,
          "velocity": 0.6377952755905512,
          "duration": 0.17496758789062028
        },
        {
          "name": "C6",
          "midi": 84,
          "time": 207.5034212109374,
          "velocity": 0.7480314960629921,
          "duration": 0.18310561523438196
        },
        {
          "name": "C2",
          "midi": 36,
          "time": 207.5034212109374,
          "velocity": 0.6220472440944882,
          "duration": 0.10769322851561469
        },
        {
          "name": "C3",
          "midi": 48,
          "time": 207.5034212109374,
          "velocity": 0.7480314960629921,
          "duration": 0.10769322851561469
        },
        {
          "name": "C#5",
          "midi": 73,
          "time": 207.6867980937499,
          "velocity": 0.6299212598425197,
          "duration": 0.08273661132813004
        },
        {
          "name": "C#6",
          "midi": 85,
          "time": 207.6867980937499,
          "velocity": 0.7401574803149606,
          "duration": 0.09087463867189172
        },
        {
          "name": "D5",
          "midi": 74,
          "time": 207.77902907031242,
          "velocity": 0.6692913385826772,
          "duration": 0.18500448828123695
        },
        {
          "name": "D6",
          "midi": 86,
          "time": 207.77902907031242,
          "velocity": 0.7795275590551181,
          "duration": 0.19314251562499862
        },
        {
          "name": "D2",
          "midi": 38,
          "time": 207.77902907031242,
          "velocity": 0.6614173228346457,
          "duration": 0.1180013964843738
        },
        {
          "name": "D3",
          "midi": 50,
          "time": 207.77902907031242,
          "velocity": 0.7795275590551181,
          "duration": 0.1180013964843738
        },
        {
          "name": "C#5",
          "midi": 73,
          "time": 207.97244285351553,
          "velocity": 0.6299212598425197,
          "duration": 0.08300787890624406
        },
        {
          "name": "C#6",
          "midi": 85,
          "time": 207.97244285351553,
          "velocity": 0.7401574803149606,
          "duration": 0.09114590625000574
        },
        {
          "name": "D5",
          "midi": 74,
          "time": 208.06386002734365,
          "velocity": 0.6377952755905512,
          "duration": 0.1749675878906487
        },
        {
          "name": "D6",
          "midi": 86,
          "time": 208.06386002734365,
          "velocity": 0.7480314960629921,
          "duration": 0.18310561523441038
        },
        {
          "name": "D2",
          "midi": 38,
          "time": 208.06386002734365,
          "velocity": 0.6299212598425197,
          "duration": 0.1085070312500136
        },
        {
          "name": "D3",
          "midi": 50,
          "time": 208.06386002734365,
          "velocity": 0.7480314960629921,
          "duration": 0.1085070312500136
        },
        {
          "name": "C#5",
          "midi": 73,
          "time": 208.24723691015618,
          "velocity": 0.6299212598425197,
          "duration": 0.08355041406250052
        },
        {
          "name": "C#6",
          "midi": 85,
          "time": 208.24723691015618,
          "velocity": 0.7401574803149606,
          "duration": 0.0916884414062622
        },
        {
          "name": "D5",
          "midi": 74,
          "time": 208.33919661914055,
          "velocity": 0.6535433070866141,
          "duration": 0.17632392578127565
        },
        {
          "name": "D6",
          "midi": 86,
          "time": 208.33919661914055,
          "velocity": 0.7637795275590551,
          "duration": 0.18446195312503733
        },
        {
          "name": "F#2",
          "midi": 42,
          "time": 208.33919661914055,
          "velocity": 0.6535433070866141,
          "duration": 0.1085070312500136
        },
        {
          "name": "F#3",
          "midi": 54,
          "time": 208.33919661914055,
          "velocity": 0.7637795275590551,
          "duration": 0.1085070312500136
        },
        {
          "name": "F#5",
          "midi": 78,
          "time": 208.5239298398437,
          "velocity": 0.6299212598425197,
          "duration": 0.2737089863281028
        },
        {
          "name": "F#6",
          "midi": 90,
          "time": 208.5239298398437,
          "velocity": 0.7401574803149606,
          "duration": 0.2737089863281028
        },
        {
          "name": "F#2",
          "midi": 42,
          "time": 208.61453321093745,
          "velocity": 0.6377952755905512,
          "duration": 0.10769322851561469
        },
        {
          "name": "F#3",
          "midi": 54,
          "time": 208.61453321093745,
          "velocity": 0.7480314960629921,
          "duration": 0.10769322851561469
        },
        {
          "name": "G5",
          "midi": 79,
          "time": 208.79791009374992,
          "velocity": 0.6299212598425197,
          "duration": 0.28537349218748886
        },
        {
          "name": "G6",
          "midi": 91,
          "time": 208.79791009374992,
          "velocity": 0.7401574803149606,
          "duration": 0.28537349218748886
        },
        {
          "name": "G2",
          "midi": 43,
          "time": 208.8901410703124,
          "velocity": 0.6692913385826772,
          "duration": 0.1180013964843738
        },
        {
          "name": "G3",
          "midi": 55,
          "time": 208.8901410703124,
          "velocity": 0.7795275590551181,
          "duration": 0.1180013964843738
        },
        {
          "name": "G4",
          "midi": 67,
          "time": 209.08355485351552,
          "velocity": 0.6299212598425197,
          "duration": 0.36648249804687794
        },
        {
          "name": "G5",
          "midi": 79,
          "time": 209.08355485351552,
          "velocity": 0.7401574803149606,
          "duration": 0.36648249804687794
        },
        {
          "name": "G2",
          "midi": 43,
          "time": 209.17497202734364,
          "velocity": 0.6377952755905512,
          "duration": 0.1085070312500136
        },
        {
          "name": "G3",
          "midi": 55,
          "time": 209.17497202734364,
          "velocity": 0.7165354330708661,
          "duration": 0.1085070312500136
        },
        {
          "name": "A4",
          "midi": 69,
          "time": 209.45030861914051,
          "velocity": 0.6535433070866141,
          "duration": 0.2750653242187582
        },
        {
          "name": "A5",
          "midi": 81,
          "time": 209.45030861914051,
          "velocity": 0.7637795275590551,
          "duration": 0.2750653242187582
        },
        {
          "name": "G2",
          "midi": 43,
          "time": 209.45030861914051,
          "velocity": 0.6535433070866141,
          "duration": 0.1085070312500136
        },
        {
          "name": "G3",
          "midi": 55,
          "time": 209.45030861914051,
          "velocity": 0.7322834645669292,
          "duration": 0.1085070312500136
        },
        {
          "name": "B4",
          "midi": 71,
          "time": 209.7256452109374,
          "velocity": 0.6377952755905512,
          "duration": 0.2742515214843593
        },
        {
          "name": "B5",
          "midi": 83,
          "time": 209.7256452109374,
          "velocity": 0.7480314960629921,
          "duration": 0.2742515214843593
        },
        {
          "name": "G2",
          "midi": 43,
          "time": 209.7256452109374,
          "velocity": 0.6377952755905512,
          "duration": 0.10769322851561469
        },
        {
          "name": "G3",
          "midi": 55,
          "time": 209.7256452109374,
          "velocity": 0.7480314960629921,
          "duration": 0.10769322851561469
        },
        {
          "name": "C5",
          "midi": 72,
          "time": 210.00125307031237,
          "velocity": 0.6692913385826772,
          "duration": 0.2845596894531184
        },
        {
          "name": "C6",
          "midi": 84,
          "time": 210.00125307031237,
          "velocity": 0.7795275590551181,
          "duration": 0.2845596894531184
        },
        {
          "name": "C2",
          "midi": 36,
          "time": 210.00125307031237,
          "velocity": 0.6535433070866141,
          "duration": 0.1180013964843738
        },
        {
          "name": "C3",
          "midi": 48,
          "time": 210.00125307031237,
          "velocity": 0.7795275590551181,
          "duration": 0.1180013964843738
        },
        {
          "name": "G3",
          "midi": 55,
          "time": 210.2860840273436,
          "velocity": 0.6377952755905512,
          "duration": 0.2750653242187582
        },
        {
          "name": "C4",
          "midi": 60,
          "time": 210.2860840273436,
          "velocity": 0.7480314960629921,
          "duration": 0.2750653242187582
        },
        {
          "name": "C2",
          "midi": 36,
          "time": 210.2860840273436,
          "velocity": 0.6220472440944882,
          "duration": 0.1085070312500136
        },
        {
          "name": "C3",
          "midi": 48,
          "time": 210.2860840273436,
          "velocity": 0.7165354330708661,
          "duration": 0.1085070312500136
        },
        {
          "name": "C4",
          "midi": 60,
          "time": 210.56142061914048,
          "velocity": 0.6535433070866141,
          "duration": 0.5495881132812599
        },
        {
          "name": "D#4",
          "midi": 63,
          "time": 210.56142061914048,
          "velocity": 0.7637795275590551,
          "duration": 0.5495881132812599
        },
        {
          "name": "C2",
          "midi": 36,
          "time": 210.56142061914048,
          "velocity": 0.6377952755905512,
          "duration": 0.1085070312500136
        },
        {
          "name": "C3",
          "midi": 48,
          "time": 210.56142061914048,
          "velocity": 0.7322834645669292,
          "duration": 0.1085070312500136
        },
        {
          "name": "C2",
          "midi": 36,
          "time": 210.83675721093738,
          "velocity": 0.6220472440944882,
          "duration": 0.10769322851561469
        },
        {
          "name": "C3",
          "midi": 48,
          "time": 210.83675721093738,
          "velocity": 0.7480314960629921,
          "duration": 0.10769322851561469
        },
        {
          "name": "D4",
          "midi": 62,
          "time": 211.11236507031236,
          "velocity": 0.6692913385826772,
          "duration": 0.18500448828123695
        },
        {
          "name": "F#4",
          "midi": 66,
          "time": 211.11236507031236,
          "velocity": 0.7795275590551181,
          "duration": 0.19314251562499862
        },
        {
          "name": "F#2",
          "midi": 42,
          "time": 211.11236507031236,
          "velocity": 0.6692913385826772,
          "duration": 0.1180013964843738
        },
        {
          "name": "F#3",
          "midi": 54,
          "time": 211.11236507031236,
          "velocity": 0.7795275590551181,
          "duration": 0.1180013964843738
        },
        {
          "name": "F4",
          "midi": 65,
          "time": 211.30577885351548,
          "velocity": 0.6929133858267716,
          "duration": 0.08300787890624406
        },
        {
          "name": "G#3",
          "midi": 56,
          "time": 211.3971960273436,
          "velocity": 0.6377952755905512,
          "duration": 0.1749675878906487
        },
        {
          "name": "D#4",
          "midi": 63,
          "time": 211.3971960273436,
          "velocity": 0.7480314960629921,
          "duration": 0.18310561523441038
        },
        {
          "name": "F#2",
          "midi": 42,
          "time": 211.3971960273436,
          "velocity": 0.6377952755905512,
          "duration": 0.1085070312500136
        },
        {
          "name": "F#3",
          "midi": 54,
          "time": 211.3971960273436,
          "velocity": 0.7165354330708661,
          "duration": 0.1085070312500136
        },
        {
          "name": "F#3",
          "midi": 54,
          "time": 211.58057291015612,
          "velocity": 0.6299212598425197,
          "duration": 0.20046674023438982
        },
        {
          "name": "C4",
          "midi": 60,
          "time": 211.58057291015612,
          "velocity": 0.7401574803149606,
          "duration": 0.6415478222656361
        },
        {
          "name": "F#2",
          "midi": 42,
          "time": 211.6725326191405,
          "velocity": 0.6535433070866141,
          "duration": 0.1085070312500136
        },
        {
          "name": "F#3",
          "midi": 54,
          "time": 211.6725326191405,
          "velocity": 0.7322834645669292,
          "duration": 0.3830298203125153
        },
        {
          "name": "F#2",
          "midi": 42,
          "time": 211.9478692109374,
          "velocity": 0.6377952755905512,
          "duration": 0.10769322851561469
        },
        {
          "name": "F#3",
          "midi": 54,
          "time": 211.9478692109374,
          "velocity": 0.7480314960629921,
          "duration": 0.2742515214843593
        },
        {
          "name": "G3",
          "midi": 55,
          "time": 212.22347707031238,
          "velocity": 0.6692913385826772,
          "duration": 0.18500448828123695
        },
        {
          "name": "B3",
          "midi": 59,
          "time": 212.22347707031238,
          "velocity": 0.7795275590551181,
          "duration": 0.19314251562499862
        },
        {
          "name": "B1",
          "midi": 35,
          "time": 212.22347707031238,
          "velocity": 0.6535433070866141,
          "duration": 0.1180013964843738
        },
        {
          "name": "B2",
          "midi": 47,
          "time": 212.22347707031238,
          "velocity": 0.7795275590551181,
          "duration": 0.1180013964843738
        },
        {
          "name": "C4",
          "midi": 60,
          "time": 212.4168908535155,
          "velocity": 0.6929133858267716,
          "duration": 0.08300787890624406
        },
        {
          "name": "B3",
          "midi": 59,
          "time": 212.50830802734362,
          "velocity": 0.6377952755905512,
          "duration": 0.18310561523438196
        },
        {
          "name": "D4",
          "midi": 62,
          "time": 212.50830802734362,
          "velocity": 0.7480314960629921,
          "duration": 0.18310561523438196
        },
        {
          "name": "B1",
          "midi": 35,
          "time": 212.50830802734362,
          "velocity": 0.6220472440944882,
          "duration": 0.1085070312500136
        },
        {
          "name": "B2",
          "midi": 47,
          "time": 212.50830802734362,
          "velocity": 0.7165354330708661,
          "duration": 0.1085070312500136
        },
        {
          "name": "B3",
          "midi": 59,
          "time": 212.6916849101561,
          "velocity": 0.6929133858267716,
          "duration": 0.08355041406250052
        },
        {
          "name": "G3",
          "midi": 55,
          "time": 212.7836446191405,
          "velocity": 0.6535433070866141,
          "duration": 0.17632392578127565
        },
        {
          "name": "C4",
          "midi": 60,
          "time": 212.7836446191405,
          "velocity": 0.7637795275590551,
          "duration": 0.18446195312503733
        },
        {
          "name": "B1",
          "midi": 35,
          "time": 212.7836446191405,
          "velocity": 0.6377952755905512,
          "duration": 0.1085070312500136
        },
        {
          "name": "B2",
          "midi": 47,
          "time": 212.7836446191405,
          "velocity": 0.7322834645669292,
          "duration": 0.1085070312500136
        },
        {
          "name": "D4",
          "midi": 62,
          "time": 212.96837783984364,
          "velocity": 0.6929133858267716,
          "duration": 0.08219407617187358
        },
        {
          "name": "G3",
          "midi": 55,
          "time": 213.0589812109374,
          "velocity": 0.6377952755905512,
          "duration": 0.17496758789062028
        },
        {
          "name": "B3",
          "midi": 59,
          "time": 213.0589812109374,
          "velocity": 0.7480314960629921,
          "duration": 0.18310561523438196
        },
        {
          "name": "B1",
          "midi": 35,
          "time": 213.0589812109374,
          "velocity": 0.6220472440944882,
          "duration": 0.10769322851561469
        },
        {
          "name": "B2",
          "midi": 47,
          "time": 213.0589812109374,
          "velocity": 0.7480314960629921,
          "duration": 0.10769322851561469
        },
        {
          "name": "C4",
          "midi": 60,
          "time": 213.24235809374989,
          "velocity": 0.6929133858267716,
          "duration": 0.0908746386718633
        },
        {
          "name": "C4",
          "midi": 60,
          "time": 213.33458907031238,
          "velocity": 0.6692913385826772,
          "duration": 0.2845596894531184
        },
        {
          "name": "D#4",
          "midi": 63,
          "time": 213.33458907031238,
          "velocity": 0.7795275590551181,
          "duration": 0.2845596894531184
        },
        {
          "name": "C2",
          "midi": 36,
          "time": 213.33458907031238,
          "velocity": 0.6535433070866141,
          "duration": 0.1180013964843738
        },
        {
          "name": "C3",
          "midi": 48,
          "time": 213.33458907031238,
          "velocity": 0.7795275590551181,
          "duration": 0.1180013964843738
        },
        {
          "name": "G3",
          "midi": 55,
          "time": 213.6194200273436,
          "velocity": 0.6377952755905512,
          "duration": 0.1749675878906487
        },
        {
          "name": "D4",
          "midi": 62,
          "time": 213.6194200273436,
          "velocity": 0.7480314960629921,
          "duration": 0.18310561523441038
        },
        {
          "name": "C2",
          "midi": 36,
          "time": 213.6194200273436,
          "velocity": 0.6220472440944882,
          "duration": 0.1085070312500136
        },
        {
          "name": "C3",
          "midi": 48,
          "time": 213.6194200273436,
          "velocity": 0.7165354330708661,
          "duration": 0.1085070312500136
        },
        {
          "name": "C4",
          "midi": 60,
          "time": 213.80279691015613,
          "velocity": 0.6299212598425197,
          "duration": 0.6415478222656361
        },
        {
          "name": "D#4",
          "midi": 63,
          "time": 213.80279691015613,
          "velocity": 0.7401574803149606,
          "duration": 0.6415478222656361
        },
        {
          "name": "C2",
          "midi": 36,
          "time": 213.8947566191405,
          "velocity": 0.6377952755905512,
          "duration": 0.1085070312500136
        },
        {
          "name": "C3",
          "midi": 48,
          "time": 213.8947566191405,
          "velocity": 0.7322834645669292,
          "duration": 0.1085070312500136
        },
        {
          "name": "C2",
          "midi": 36,
          "time": 214.1700932109374,
          "velocity": 0.6220472440944882,
          "duration": 0.10769322851561469
        },
        {
          "name": "C3",
          "midi": 48,
          "time": 214.1700932109374,
          "velocity": 0.7165354330708661,
          "duration": 0.10769322851561469
        },
        {
          "name": "C2",
          "midi": 36,
          "time": 214.4457010703124,
          "velocity": 0.6535433070866141,
          "duration": 0.1180013964843738
        },
        {
          "name": "C3",
          "midi": 48,
          "time": 214.4457010703124,
          "velocity": 0.7480314960629921,
          "duration": 0.1180013964843738
        },
        {
          "name": "C4",
          "midi": 60,
          "time": 214.73053202734366,
          "velocity": 0.6377952755905512,
          "duration": 0.2750653242187582
        },
        {
          "name": "D#4",
          "midi": 63,
          "time": 214.73053202734366,
          "velocity": 0.6377952755905512,
          "duration": 0.2750653242187582
        },
        {
          "name": "C5",
          "midi": 72,
          "time": 214.73053202734366,
          "velocity": 0.7480314960629921,
          "duration": 0.2750653242187582
        },
        {
          "name": "C2",
          "midi": 36,
          "time": 214.73053202734366,
          "velocity": 0.6220472440944882,
          "duration": 0.1085070312500136
        },
        {
          "name": "C3",
          "midi": 48,
          "time": 214.73053202734366,
          "velocity": 0.7165354330708661,
          "duration": 0.1085070312500136
        },
        {
          "name": "D#4",
          "midi": 63,
          "time": 215.00586861914053,
          "velocity": 0.6535433070866141,
          "duration": 0.5495881132812599
        },
        {
          "name": "C5",
          "midi": 72,
          "time": 215.00586861914053,
          "velocity": 0.6535433070866141,
          "duration": 0.5495881132812599
        },
        {
          "name": "D#5",
          "midi": 75,
          "time": 215.00586861914053,
          "velocity": 0.7637795275590551,
          "duration": 0.5495881132812599
        },
        {
          "name": "C2",
          "midi": 36,
          "time": 215.00586861914053,
          "velocity": 0.6377952755905512,
          "duration": 0.1085070312500136
        },
        {
          "name": "C3",
          "midi": 48,
          "time": 215.00586861914053,
          "velocity": 0.7322834645669292,
          "duration": 0.1085070312500136
        },
        {
          "name": "C2",
          "midi": 36,
          "time": 215.28120521093743,
          "velocity": 0.6220472440944882,
          "duration": 0.10769322851561469
        },
        {
          "name": "C3",
          "midi": 48,
          "time": 215.28120521093743,
          "velocity": 0.7480314960629921,
          "duration": 0.10769322851561469
        },
        {
          "name": "F#4",
          "midi": 66,
          "time": 215.55681307031242,
          "velocity": 0.6692913385826772,
          "duration": 0.18500448828123695
        },
        {
          "name": "D5",
          "midi": 74,
          "time": 215.55681307031242,
          "velocity": 0.6692913385826772,
          "duration": 0.18500448828123695
        },
        {
          "name": "F#5",
          "midi": 78,
          "time": 215.55681307031242,
          "velocity": 0.7795275590551181,
          "duration": 0.19314251562499862
        },
        {
          "name": "F#2",
          "midi": 42,
          "time": 215.55681307031242,
          "velocity": 0.6692913385826772,
          "duration": 0.1180013964843738
        },
        {
          "name": "F#3",
          "midi": 54,
          "time": 215.55681307031242,
          "velocity": 0.7795275590551181,
          "duration": 0.1180013964843738
        },
        {
          "name": "F4",
          "midi": 65,
          "time": 215.75022685351553,
          "velocity": 0.6299212598425197,
          "duration": 0.08300787890624406
        },
        {
          "name": "F5",
          "midi": 77,
          "time": 215.75022685351553,
          "velocity": 0.7401574803149606,
          "duration": 0.09114590625000574
        },
        {
          "name": "D#4",
          "midi": 63,
          "time": 215.84164402734365,
          "velocity": 0.6377952755905512,
          "duration": 0.1749675878906487
        },
        {
          "name": "G#4",
          "midi": 68,
          "time": 215.84164402734365,
          "velocity": 0.6377952755905512,
          "duration": 0.1749675878906487
        },
        {
          "name": "D#5",
          "midi": 75,
          "time": 215.84164402734365,
          "velocity": 0.7480314960629921,
          "duration": 0.18310561523441038
        },
        {
          "name": "F#2",
          "midi": 42,
          "time": 215.84164402734365,
          "velocity": 0.6377952755905512,
          "duration": 0.1085070312500136
        },
        {
          "name": "F#3",
          "midi": 54,
          "time": 215.84164402734365,
          "velocity": 0.7165354330708661,
          "duration": 0.1085070312500136
        },
        {
          "name": "C4",
          "midi": 60,
          "time": 216.02502091015617,
          "velocity": 0.6299212598425197,
          "duration": 0.6415478222656361
        },
        {
          "name": "F#4",
          "midi": 66,
          "time": 216.02502091015617,
          "velocity": 0.6299212598425197,
          "duration": 0.6415478222656361
        },
        {
          "name": "C5",
          "midi": 72,
          "time": 216.02502091015617,
          "velocity": 0.7401574803149606,
          "duration": 0.6415478222656361
        },
        {
          "name": "F#2",
          "midi": 42,
          "time": 216.11698061914055,
          "velocity": 0.6535433070866141,
          "duration": 0.1085070312500136
        },
        {
          "name": "F#3",
          "midi": 54,
          "time": 216.11698061914055,
          "velocity": 0.7322834645669292,
          "duration": 0.1085070312500136
        },
        {
          "name": "F#2",
          "midi": 42,
          "time": 216.39231721093745,
          "velocity": 0.6377952755905512,
          "duration": 0.10769322851561469
        },
        {
          "name": "F#3",
          "midi": 54,
          "time": 216.39231721093745,
          "velocity": 0.7480314960629921,
          "duration": 0.10769322851561469
        },
        {
          "name": "B3",
          "midi": 59,
          "time": 216.66792507031244,
          "velocity": 0.6692913385826772,
          "duration": 0.18500448828123695
        },
        {
          "name": "G4",
          "midi": 67,
          "time": 216.66792507031244,
          "velocity": 0.6692913385826772,
          "duration": 0.18500448828123695
        },
        {
          "name": "B4",
          "midi": 71,
          "time": 216.66792507031244,
          "velocity": 0.7795275590551181,
          "duration": 0.19314251562499862
        },
        {
          "name": "B1",
          "midi": 35,
          "time": 216.66792507031244,
          "velocity": 0.6535433070866141,
          "duration": 0.1180013964843738
        },
        {
          "name": "B2",
          "midi": 47,
          "time": 216.66792507031244,
          "velocity": 0.7795275590551181,
          "duration": 0.1180013964843738
        },
        {
          "name": "C4",
          "midi": 60,
          "time": 216.86133885351555,
          "velocity": 0.6299212598425197,
          "duration": 0.08300787890624406
        },
        {
          "name": "C5",
          "midi": 72,
          "time": 216.86133885351555,
          "velocity": 0.7401574803149606,
          "duration": 0.09114590625000574
        },
        {
          "name": "D4",
          "midi": 62,
          "time": 216.95275602734367,
          "velocity": 0.6377952755905512,
          "duration": 0.1749675878906487
        },
        {
          "name": "B4",
          "midi": 71,
          "time": 216.95275602734367,
          "velocity": 0.6377952755905512,
          "duration": 0.18310561523441038
        },
        {
          "name": "D5",
          "midi": 74,
          "time": 216.95275602734367,
          "velocity": 0.7480314960629921,
          "duration": 0.18310561523441038
        },
        {
          "name": "B1",
          "midi": 35,
          "time": 216.95275602734367,
          "velocity": 0.6220472440944882,
          "duration": 0.1085070312500136
        },
        {
          "name": "B2",
          "midi": 47,
          "time": 216.95275602734367,
          "velocity": 0.7165354330708661,
          "duration": 0.1085070312500136
        },
        {
          "name": "B3",
          "midi": 59,
          "time": 217.1361329101562,
          "velocity": 0.6299212598425197,
          "duration": 0.08355041406250052
        },
        {
          "name": "B4",
          "midi": 71,
          "time": 217.1361329101562,
          "velocity": 0.7401574803149606,
          "duration": 0.0916884414062622
        },
        {
          "name": "C4",
          "midi": 60,
          "time": 217.22809261914057,
          "velocity": 0.6535433070866141,
          "duration": 0.17632392578127565
        },
        {
          "name": "G4",
          "midi": 67,
          "time": 217.22809261914057,
          "velocity": 0.6535433070866141,
          "duration": 0.17632392578127565
        },
        {
          "name": "C5",
          "midi": 72,
          "time": 217.22809261914057,
          "velocity": 0.7637795275590551,
          "duration": 0.18446195312503733
        },
        {
          "name": "B1",
          "midi": 35,
          "time": 217.22809261914057,
          "velocity": 0.6377952755905512,
          "duration": 0.1085070312500136
        },
        {
          "name": "B2",
          "midi": 47,
          "time": 217.22809261914057,
          "velocity": 0.7322834645669292,
          "duration": 0.1085070312500136
        },
        {
          "name": "D4",
          "midi": 62,
          "time": 217.41282583984372,
          "velocity": 0.6299212598425197,
          "duration": 0.08219407617187358
        },
        {
          "name": "D5",
          "midi": 74,
          "time": 217.41282583984372,
          "velocity": 0.7401574803149606,
          "duration": 0.09033210351563525
        },
        {
          "name": "B3",
          "midi": 59,
          "time": 217.50342921093747,
          "velocity": 0.6377952755905512,
          "duration": 0.17496758789062028
        },
        {
          "name": "B4",
          "midi": 71,
          "time": 217.50342921093747,
          "velocity": 0.7480314960629921,
          "duration": 0.18310561523438196
        },
        {
          "name": "B1",
          "midi": 35,
          "time": 217.50342921093747,
          "velocity": 0.6220472440944882,
          "duration": 0.10769322851561469
        },
        {
          "name": "B2",
          "midi": 47,
          "time": 217.50342921093747,
          "velocity": 0.7480314960629921,
          "duration": 0.10769322851561469
        },
        {
          "name": "C4",
          "midi": 60,
          "time": 217.68680609374996,
          "velocity": 0.6299212598425197,
          "duration": 0.08273661132813004
        },
        {
          "name": "G4",
          "midi": 67,
          "time": 217.68680609374996,
          "velocity": 0.6299212598425197,
          "duration": 0.08273661132813004
        },
        {
          "name": "C5",
          "midi": 72,
          "time": 217.68680609374996,
          "velocity": 0.7401574803149606,
          "duration": 0.09087463867189172
        },
        {
          "name": "D#4",
          "midi": 63,
          "time": 217.77903707031248,
          "velocity": 0.6692913385826772,
          "duration": 0.2845596894531184
        },
        {
          "name": "C5",
          "midi": 72,
          "time": 217.77903707031248,
          "velocity": 0.6692913385826772,
          "duration": 0.2845596894531184
        },
        {
          "name": "D#5",
          "midi": 75,
          "time": 217.77903707031248,
          "velocity": 0.7795275590551181,
          "duration": 0.2845596894531184
        },
        {
          "name": "C2",
          "midi": 36,
          "time": 217.77903707031248,
          "velocity": 0.6535433070866141,
          "duration": 0.1180013964843738
        },
        {
          "name": "C3",
          "midi": 48,
          "time": 217.77903707031248,
          "velocity": 0.7795275590551181,
          "duration": 0.1180013964843738
        },
        {
          "name": "D4",
          "midi": 62,
          "time": 218.06386802734372,
          "velocity": 0.6377952755905512,
          "duration": 0.1749675878906487
        },
        {
          "name": "G4",
          "midi": 67,
          "time": 218.06386802734372,
          "velocity": 0.6377952755905512,
          "duration": 0.1749675878906487
        },
        {
          "name": "D5",
          "midi": 74,
          "time": 218.06386802734372,
          "velocity": 0.7480314960629921,
          "duration": 0.18310561523441038
        },
        {
          "name": "C2",
          "midi": 36,
          "time": 218.06386802734372,
          "velocity": 0.6220472440944882,
          "duration": 0.1085070312500136
        },
        {
          "name": "C3",
          "midi": 48,
          "time": 218.06386802734372,
          "velocity": 0.7165354330708661,
          "duration": 0.1085070312500136
        },
        {
          "name": "D#4",
          "midi": 63,
          "time": 218.24724491015624,
          "velocity": 0.6299212598425197,
          "duration": 0.6415478222656361
        },
        {
          "name": "C5",
          "midi": 72,
          "time": 218.24724491015624,
          "velocity": 0.6299212598425197,
          "duration": 0.6415478222656361
        },
        {
          "name": "D#5",
          "midi": 75,
          "time": 218.24724491015624,
          "velocity": 0.7401574803149606,
          "duration": 0.6415478222656361
        },
        {
          "name": "C2",
          "midi": 36,
          "time": 218.33920461914062,
          "velocity": 0.6377952755905512,
          "duration": 0.1085070312500136
        },
        {
          "name": "C3",
          "midi": 48,
          "time": 218.33920461914062,
          "velocity": 0.7322834645669292,
          "duration": 0.1085070312500136
        },
        {
          "name": "C2",
          "midi": 36,
          "time": 218.61454121093752,
          "velocity": 0.6220472440944882,
          "duration": 0.10769322851561469
        },
        {
          "name": "C3",
          "midi": 48,
          "time": 218.61454121093752,
          "velocity": 0.7480314960629921,
          "duration": 0.10769322851561469
        },
        {
          "name": "D#4",
          "midi": 63,
          "time": 218.8901490703125,
          "velocity": 0.6692913385826772,
          "duration": 0.2845596894531184
        },
        {
          "name": "A#4",
          "midi": 70,
          "time": 218.8901490703125,
          "velocity": 0.6692913385826772,
          "duration": 0.2845596894531184
        },
        {
          "name": "D#5",
          "midi": 75,
          "time": 218.8901490703125,
          "velocity": 0.7795275590551181,
          "duration": 0.2845596894531184
        },
        {
          "name": "D#2",
          "midi": 39,
          "time": 218.8901490703125,
          "velocity": 0.6614173228346457,
          "duration": 0.1180013964843738
        },
        {
          "name": "D#3",
          "midi": 51,
          "time": 218.8901490703125,
          "velocity": 0.7795275590551181,
          "duration": 0.1180013964843738
        },
        {
          "name": "F4",
          "midi": 65,
          "time": 219.17498002734374,
          "velocity": 0.6377952755905512,
          "duration": 0.1749675878906487
        },
        {
          "name": "A#4",
          "midi": 70,
          "time": 219.17498002734374,
          "velocity": 0.6377952755905512,
          "duration": 0.18310561523441038
        },
        {
          "name": "F5",
          "midi": 77,
          "time": 219.17498002734374,
          "velocity": 0.7480314960629921,
          "duration": 0.18310561523441038
        },
        {
          "name": "D#2",
          "midi": 39,
          "time": 219.17498002734374,
          "velocity": 0.6299212598425197,
          "duration": 0.1085070312500136
        },
        {
          "name": "D#3",
          "midi": 51,
          "time": 219.17498002734374,
          "velocity": 0.7165354330708661,
          "duration": 0.1085070312500136
        },
        {
          "name": "D#4",
          "midi": 63,
          "time": 219.35835691015626,
          "velocity": 0.6299212598425197,
          "duration": 0.6415478222656361
        },
        {
          "name": "A#4",
          "midi": 70,
          "time": 219.35835691015626,
          "velocity": 0.6299212598425197,
          "duration": 0.6415478222656361
        },
        {
          "name": "D#5",
          "midi": 75,
          "time": 219.35835691015626,
          "velocity": 0.7401574803149606,
          "duration": 0.6415478222656361
        },
        {
          "name": "D#2",
          "midi": 39,
          "time": 219.45031661914064,
          "velocity": 0.6456692913385826,
          "duration": 0.1085070312500136
        },
        {
          "name": "D#3",
          "midi": 51,
          "time": 219.45031661914064,
          "velocity": 0.7322834645669292,
          "duration": 0.1085070312500136
        },
        {
          "name": "D#2",
          "midi": 39,
          "time": 219.72565321093754,
          "velocity": 0.6299212598425197,
          "duration": 0.10769322851561469
        },
        {
          "name": "D#3",
          "midi": 51,
          "time": 219.72565321093754,
          "velocity": 0.7480314960629921,
          "duration": 0.10769322851561469
        },
        {
          "name": "E4",
          "midi": 64,
          "time": 220.00126107031252,
          "velocity": 0.6692913385826772,
          "duration": 0.4679365722656428
        },
        {
          "name": "G#4",
          "midi": 68,
          "time": 220.00126107031252,
          "velocity": 0.6692913385826772,
          "duration": 0.4679365722656428
        },
        {
          "name": "E5",
          "midi": 76,
          "time": 220.00126107031252,
          "velocity": 0.7795275590551181,
          "duration": 0.4679365722656428
        },
        {
          "name": "E2",
          "midi": 40,
          "time": 220.00126107031252,
          "velocity": 0.6614173228346457,
          "duration": 0.1180013964843738
        },
        {
          "name": "E3",
          "midi": 52,
          "time": 220.00126107031252,
          "velocity": 0.7795275590551181,
          "duration": 0.1180013964843738
        },
        {
          "name": "E2",
          "midi": 40,
          "time": 220.28609202734378,
          "velocity": 0.6299212598425197,
          "duration": 0.1085070312500136
        },
        {
          "name": "E3",
          "midi": 52,
          "time": 220.28609202734378,
          "velocity": 0.7165354330708661,
          "duration": 0.1085070312500136
        },
        {
          "name": "G4",
          "midi": 67,
          "time": 220.46946891015628,
          "velocity": 0.6299212598425197,
          "duration": 0.3670250332031344
        },
        {
          "name": "E5",
          "midi": 76,
          "time": 220.46946891015628,
          "velocity": 0.6299212598425197,
          "duration": 0.3670250332031344
        },
        {
          "name": "G5",
          "midi": 79,
          "time": 220.46946891015628,
          "velocity": 0.7401574803149606,
          "duration": 0.3670250332031344
        },
        {
          "name": "E2",
          "midi": 40,
          "time": 220.56142861914066,
          "velocity": 0.6456692913385826,
          "duration": 0.1085070312500136
        },
        {
          "name": "E3",
          "midi": 52,
          "time": 220.56142861914066,
          "velocity": 0.7322834645669292,
          "duration": 0.1085070312500136
        },
        {
          "name": "A#4",
          "midi": 70,
          "time": 220.83676521093753,
          "velocity": 0.6377952755905512,
          "duration": 0.2742515214843593
        },
        {
          "name": "E5",
          "midi": 76,
          "time": 220.83676521093753,
          "velocity": 0.6377952755905512,
          "duration": 0.2742515214843593
        },
        {
          "name": "A#5",
          "midi": 82,
          "time": 220.83676521093753,
          "velocity": 0.7480314960629921,
          "duration": 0.2742515214843593
        },
        {
          "name": "E2",
          "midi": 40,
          "time": 220.83676521093753,
          "velocity": 0.6299212598425197,
          "duration": 0.10769322851561469
        },
        {
          "name": "E3",
          "midi": 52,
          "time": 220.83676521093753,
          "velocity": 0.7480314960629921,
          "duration": 0.10769322851561469
        },
        {
          "name": "A4",
          "midi": 69,
          "time": 221.11237307031251,
          "velocity": 0.6692913385826772,
          "duration": 0.4679365722656428
        },
        {
          "name": "F5",
          "midi": 77,
          "time": 221.11237307031251,
          "velocity": 0.6692913385826772,
          "duration": 0.4679365722656428
        },
        {
          "name": "A5",
          "midi": 81,
          "time": 221.11237307031251,
          "velocity": 0.7795275590551181,
          "duration": 0.4679365722656428
        },
        {
          "name": "F2",
          "midi": 41,
          "time": 221.11237307031251,
          "velocity": 0.6692913385826772,
          "duration": 0.1180013964843738
        },
        {
          "name": "F3",
          "midi": 53,
          "time": 221.11237307031251,
          "velocity": 0.7795275590551181,
          "duration": 0.1180013964843738
        },
        {
          "name": "F2",
          "midi": 41,
          "time": 221.39720402734378,
          "velocity": 0.6377952755905512,
          "duration": 0.1085070312500136
        },
        {
          "name": "F3",
          "midi": 53,
          "time": 221.39720402734378,
          "velocity": 0.7165354330708661,
          "duration": 0.1085070312500136
        },
        {
          "name": "F4",
          "midi": 65,
          "time": 221.58058091015627,
          "velocity": 0.6299212598425197,
          "duration": 0.6415478222656361
        },
        {
          "name": "C5",
          "midi": 72,
          "time": 221.58058091015627,
          "velocity": 0.6299212598425197,
          "duration": 0.6415478222656361
        },
        {
          "name": "F5",
          "midi": 77,
          "time": 221.58058091015627,
          "velocity": 0.7401574803149606,
          "duration": 0.6415478222656361
        },
        {
          "name": "F2",
          "midi": 41,
          "time": 221.67254061914065,
          "velocity": 0.6535433070866141,
          "duration": 0.1085070312500136
        },
        {
          "name": "F3",
          "midi": 53,
          "time": 221.67254061914065,
          "velocity": 0.7322834645669292,
          "duration": 0.1085070312500136
        },
        {
          "name": "F2",
          "midi": 41,
          "time": 221.94787721093755,
          "velocity": 0.6377952755905512,
          "duration": 0.10769322851561469
        },
        {
          "name": "F3",
          "midi": 53,
          "time": 221.94787721093755,
          "velocity": 0.7165354330708661,
          "duration": 0.10769322851561469
        }
      ],
      "controlChanges": {
        "6": [
          {
            "number": 6,
            "time": 0.0010850703125,
            "value": 0.09448818897637795
          },
          {
            "number": 6,
            "time": 0.0010850703125,
            "value": 0.09448818897637795
          },
          {
            "number": 6,
            "time": 111.11228507031257,
            "value": 0.09448818897637795
          },
          {
            "number": 6,
            "time": 111.11228507031257,
            "value": 0.09448818897637795
          }
        ],
        "7": [
          {
            "number": 7,
            "time": 0,
            "value": 0.7952755905511811
          },
          {
            "number": 7,
            "time": 0,
            "value": 0.8031496062992126
          },
          {
            "number": 7,
            "time": 0,
            "value": 0.8661417322834646
          },
          {
            "number": 7,
            "time": 0.0027126757812500004,
            "value": 0.8031496062992126
          },
          {
            "number": 7,
            "time": 0.0027126757812500004,
            "value": 0.8661417322834646
          },
          {
            "number": 7,
            "time": 40.60984151562509,
            "value": 0.8031496062992126
          },
          {
            "number": 7,
            "time": 46.443179515625104,
            "value": 0.8661417322834646
          },
          {
            "number": 7,
            "time": 47.276513515625105,
            "value": 0.8031496062992126
          },
          {
            "number": 7,
            "time": 48.66567478320324,
            "value": 0.8661417322834646
          },
          {
            "number": 7,
            "time": 49.49873751562511,
            "value": 0.8031496062992126
          },
          {
            "number": 7,
            "time": 50.88762751562512,
            "value": 0.8661417322834646
          },
          {
            "number": 7,
            "time": 51.72096151562512,
            "value": 0.8031496062992126
          },
          {
            "number": 7,
            "time": 55.33207551562513,
            "value": 0.8661417322834646
          },
          {
            "number": 7,
            "time": 56.16540951562513,
            "value": 0.8031496062992126
          },
          {
            "number": 7,
            "time": 73.10986751562513,
            "value": 0.8661417322834646
          },
          {
            "number": 7,
            "time": 111.11120000000007,
            "value": 0.8031496062992126
          },
          {
            "number": 7,
            "time": 111.11120000000007,
            "value": 0.8661417322834646
          },
          {
            "number": 7,
            "time": 111.11391267578132,
            "value": 0.8031496062992126
          },
          {
            "number": 7,
            "time": 111.11391267578132,
            "value": 0.8661417322834646
          },
          {
            "number": 7,
            "time": 151.72104151562488,
            "value": 0.8031496062992126
          },
          {
            "number": 7,
            "time": 157.5543795156247,
            "value": 0.8661417322834646
          },
          {
            "number": 7,
            "time": 158.3877135156247,
            "value": 0.8031496062992126
          },
          {
            "number": 7,
            "time": 159.7768747832028,
            "value": 0.8661417322834646
          },
          {
            "number": 7,
            "time": 160.60993751562467,
            "value": 0.8031496062992126
          },
          {
            "number": 7,
            "time": 161.99882751562464,
            "value": 0.8661417322834646
          },
          {
            "number": 7,
            "time": 162.83216151562465,
            "value": 0.8031496062992126
          },
          {
            "number": 7,
            "time": 166.44327551562458,
            "value": 0.8661417322834646
          },
          {
            "number": 7,
            "time": 167.27660951562459,
            "value": 0.8031496062992126
          },
          {
            "number": 7,
            "time": 184.22106751562453,
            "value": 0.8661417322834646
          }
        ],
        "10": [
          {
            "number": 10,
            "time": 0,
            "value": 0.5039370078740157
          }
        ],
        "38": [
          {
            "number": 38,
            "time": 0.0013563378906250002,
            "value": 0
          },
          {
            "number": 38,
            "time": 0.0013563378906250002,
            "value": 0
          },
          {
            "number": 38,
            "time": 111.1125563378907,
            "value": 0
          },
          {
            "number": 38,
            "time": 111.1125563378907,
            "value": 0
          }
        ],
        "100": [
          {
            "number": 100,
            "time": 0.000813802734375,
            "value": 0
          },
          {
            "number": 100,
            "time": 0.000813802734375,
            "value": 0
          },
          {
            "number": 100,
            "time": 111.11201380273444,
            "value": 0
          },
          {
            "number": 100,
            "time": 111.11201380273444,
            "value": 0
          }
        ],
        "101": [
          {
            "number": 101,
            "time": 0.000813802734375,
            "value": 0
          },
          {
            "number": 101,
            "time": 0.000813802734375,
            "value": 0
          },
          {
            "number": 101,
            "time": 111.11201380273444,
            "value": 0
          },
          {
            "number": 101,
            "time": 111.11201380273444,
            "value": 0
          }
        ]
      }
    }
  ]
}