{
  "header": {
    "PPQ": 192,
    "bpm": 170.0000850000425,
    "timeSignature": [
      4,
      4
    ],
    "name": "Electroman adventures"
  },
  "startTime": 0,
  "duration": 95.97054024999936,
  "tracks": [
    {
      "startTime": 0,
      "duration": 0,
      "length": 0,
      "id": 0,
      "name": "Electroman adventures"
    },
    {
      "startTime": 0,
      "duration": 95.97054024999929,
      "length": 460,
      "id": 1,
      "name": "Right Hand",
      "instrumentNumber": 0,
      "instrument": "acoustic grand piano",
      "instrumentFamily": "piano",
      "channelNumber": 0,
      "isPercussion": false,
      "notes": [
        {
          "name": "G#5",
          "midi": 80,
          "time": 0,
          "velocity": 0.8661417322834646,
          "duration": 0.14705875000000002
        },
        {
          "name": "G5",
          "midi": 79,
          "time": 0.17647050000000003,
          "velocity": 0.8661417322834646,
          "duration": 0.022058812499999997
        },
        {
          "name": "F5",
          "midi": 77,
          "time": 0.19852931250000003,
          "velocity": 0.8661417322834646,
          "duration": 0.022058812499999997
        },
        {
          "name": "E5",
          "midi": 76,
          "time": 0.22058812500000002,
          "velocity": 0.8661417322834646,
          "duration": 0.022058812499999997
        },
        {
          "name": "D5",
          "midi": 74,
          "time": 0.24264693750000002,
          "velocity": 0.8661417322834646,
          "duration": 0.022058812499999997
        },
        {
          "name": "C5",
          "midi": 72,
          "time": 0.26470575,
          "velocity": 0.8661417322834646,
          "duration": 0.022058812500000025
        },
        {
          "name": "B4",
          "midi": 71,
          "time": 0.28676456250000004,
          "velocity": 0.8661417322834646,
          "duration": 0.022058812500000025
        },
        {
          "name": "A4",
          "midi": 69,
          "time": 0.30882337500000007,
          "velocity": 0.8661417322834646,
          "duration": 0.022058812500000025
        },
        {
          "name": "G4",
          "midi": 67,
          "time": 0.3308821875000001,
          "velocity": 0.8661417322834646,
          "duration": 0.022058812500000025
        },
        {
          "name": "G#4",
          "midi": 68,
          "time": 0.3529410000000001,
          "velocity": 0.8661417322834646,
          "duration": 0.2941175000000001
        },
        {
          "name": "B4",
          "midi": 71,
          "time": 0.7058820000000002,
          "velocity": 0.8661417322834646,
          "duration": 0.29411750000000003
        },
        {
          "name": "B4",
          "midi": 71,
          "time": 1.0588230000000003,
          "velocity": 0.8661417322834646,
          "duration": 0.14705875000000002
        },
        {
          "name": "G#4",
          "midi": 68,
          "time": 1.2352935000000003,
          "velocity": 0.8661417322834646,
          "duration": 0.14705875000000002
        },
        {
          "name": "G#4",
          "midi": 68,
          "time": 1.5882345000000002,
          "velocity": 0.8661417322834646,
          "duration": 0.14705875000000002
        },
        {
          "name": "D#4",
          "midi": 63,
          "time": 1.7647050000000002,
          "velocity": 0.8661417322834646,
          "duration": 0.14705875000000002
        },
        {
          "name": "F#4",
          "midi": 66,
          "time": 2.117646,
          "velocity": 0.8661417322834646,
          "duration": 0.11764699999999984
        },
        {
          "name": "F#4",
          "midi": 66,
          "time": 2.470587,
          "velocity": 0.8661417322834646,
          "duration": 0.11764699999999984
        },
        {
          "name": "G#4",
          "midi": 68,
          "time": 2.823528,
          "velocity": 0.8661417322834646,
          "duration": 0.29411750000000003
        },
        {
          "name": "G#4",
          "midi": 68,
          "time": 3.176469,
          "velocity": 0.8661417322834646,
          "duration": 0.29411750000000003
        },
        {
          "name": "B4",
          "midi": 71,
          "time": 3.52941,
          "velocity": 0.8661417322834646,
          "duration": 0.29411750000000003
        },
        {
          "name": "B4",
          "midi": 71,
          "time": 3.882351,
          "velocity": 0.8661417322834646,
          "duration": 0.14705875000000024
        },
        {
          "name": "G#4",
          "midi": 68,
          "time": 4.0588215000000005,
          "velocity": 0.8661417322834646,
          "duration": 0.14705875000000024
        },
        {
          "name": "G#4",
          "midi": 68,
          "time": 4.588233000000001,
          "velocity": 0.8661417322834646,
          "duration": 0.11764699999999984
        },
        {
          "name": "F#4",
          "midi": 66,
          "time": 4.941174,
          "velocity": 0.8661417322834646,
          "duration": 0.11764699999999984
        },
        {
          "name": "G4",
          "midi": 67,
          "time": 5.294115,
          "velocity": 0.8661417322834646,
          "duration": 0.11764699999999984
        },
        {
          "name": "G#4",
          "midi": 68,
          "time": 5.647055999999999,
          "velocity": 0.8661417322834646,
          "duration": 0.2941175000000005
        },
        {
          "name": "G#4",
          "midi": 68,
          "time": 5.999997,
          "velocity": 0.8661417322834646,
          "duration": 0.2941174999999996
        },
        {
          "name": "B4",
          "midi": 71,
          "time": 6.352937999999999,
          "velocity": 0.8661417322834646,
          "duration": 0.2941174999999996
        },
        {
          "name": "B4",
          "midi": 71,
          "time": 6.705878999999999,
          "velocity": 0.8661417322834646,
          "duration": 0.14705875000000024
        },
        {
          "name": "G#4",
          "midi": 68,
          "time": 6.882349499999999,
          "velocity": 0.8661417322834646,
          "duration": 0.14705875000000024
        },
        {
          "name": "G#4",
          "midi": 68,
          "time": 7.2352905,
          "velocity": 0.8661417322834646,
          "duration": 0.14705875000000024
        },
        {
          "name": "D#4",
          "midi": 63,
          "time": 7.411761,
          "velocity": 0.8661417322834646,
          "duration": 0.14705875000000024
        },
        {
          "name": "G#4",
          "midi": 68,
          "time": 7.764702000000001,
          "velocity": 0.8661417322834646,
          "duration": 0.11764699999999984
        },
        {
          "name": "B4",
          "midi": 71,
          "time": 7.764702000000001,
          "velocity": 0.8661417322834646,
          "duration": 0.11764699999999984
        },
        {
          "name": "G#4",
          "midi": 68,
          "time": 8.117643000000001,
          "velocity": 0.8661417322834646,
          "duration": 0.11764699999999984
        },
        {
          "name": "B4",
          "midi": 71,
          "time": 8.117643000000001,
          "velocity": 0.8661417322834646,
          "duration": 0.11764699999999984
        },
        {
          "name": "G#4",
          "midi": 68,
          "time": 8.470584,
          "velocity": 0.8661417322834646,
          "duration": 0.2941175000000005
        },
        {
          "name": "G#4",
          "midi": 68,
          "time": 8.823525000000002,
          "velocity": 0.8661417322834646,
          "duration": 0.2941175000000005
        },
        {
          "name": "B4",
          "midi": 71,
          "time": 9.176466000000003,
          "velocity": 0.8661417322834646,
          "duration": 0.2941175000000005
        },
        {
          "name": "B4",
          "midi": 71,
          "time": 9.529407000000004,
          "velocity": 0.8661417322834646,
          "duration": 0.14705874999999935
        },
        {
          "name": "G#4",
          "midi": 68,
          "time": 9.705877500000003,
          "velocity": 0.8661417322834646,
          "duration": 0.14705874999999935
        },
        {
          "name": "G#4",
          "midi": 68,
          "time": 10.235289000000003,
          "velocity": 0.8661417322834646,
          "duration": 0.11764699999999984
        },
        {
          "name": "F#4",
          "midi": 66,
          "time": 10.588230000000003,
          "velocity": 0.8661417322834646,
          "duration": 0.11764699999999984
        },
        {
          "name": "G4",
          "midi": 67,
          "time": 10.941171000000002,
          "velocity": 0.8661417322834646,
          "duration": 0.11764699999999984
        },
        {
          "name": "G#5",
          "midi": 80,
          "time": 11.294112000000002,
          "velocity": 0.8661417322834646,
          "duration": 0.14705874999999935
        },
        {
          "name": "G5",
          "midi": 79,
          "time": 11.4705825,
          "velocity": 0.8661417322834646,
          "duration": 0.022058812499999192
        },
        {
          "name": "F5",
          "midi": 77,
          "time": 11.4926413125,
          "velocity": 0.8661417322834646,
          "duration": 0.022058812499999192
        },
        {
          "name": "E5",
          "midi": 76,
          "time": 11.514700125,
          "velocity": 0.8661417322834646,
          "duration": 0.022058812499999192
        },
        {
          "name": "D5",
          "midi": 74,
          "time": 11.536758937499998,
          "velocity": 0.8661417322834646,
          "duration": 0.022058812499999192
        },
        {
          "name": "C5",
          "midi": 72,
          "time": 11.558817749999998,
          "velocity": 0.8661417322834646,
          "duration": 0.022058812499999192
        },
        {
          "name": "B4",
          "midi": 71,
          "time": 11.580876562499997,
          "velocity": 0.8661417322834646,
          "duration": 0.022058812499999192
        },
        {
          "name": "A4",
          "midi": 69,
          "time": 11.602935374999996,
          "velocity": 0.8661417322834646,
          "duration": 0.022058812499999192
        },
        {
          "name": "G4",
          "midi": 67,
          "time": 11.624994187499995,
          "velocity": 0.8661417322834646,
          "duration": 0.022058812499999192
        },
        {
          "name": "G#4",
          "midi": 68,
          "time": 11.647052999999994,
          "velocity": 0.8661417322834646,
          "duration": 0.14705874999999935
        },
        {
          "name": "G#4",
          "midi": 68,
          "time": 11.823523499999993,
          "velocity": 0.8661417322834646,
          "duration": 0.14705874999999935
        },
        {
          "name": "B4",
          "midi": 71,
          "time": 11.999993999999992,
          "velocity": 0.8661417322834646,
          "duration": 0.14705874999999935
        },
        {
          "name": "G#4",
          "midi": 68,
          "time": 12.176464499999991,
          "velocity": 0.8661417322834646,
          "duration": 0.14705874999999935
        },
        {
          "name": "F#4",
          "midi": 66,
          "time": 12.35293499999999,
          "velocity": 0.8661417322834646,
          "duration": 0.14705874999999935
        },
        {
          "name": "G#4",
          "midi": 68,
          "time": 12.529405499999989,
          "velocity": 0.8661417322834646,
          "duration": 0.14705874999999935
        },
        {
          "name": "B4",
          "midi": 71,
          "time": 13.058816999999989,
          "velocity": 0.8661417322834646,
          "duration": 0.2941175000000005
        },
        {
          "name": "F#4",
          "midi": 66,
          "time": 13.41175799999999,
          "velocity": 0.8661417322834646,
          "duration": 0.2941175000000005
        },
        {
          "name": "B4",
          "midi": 71,
          "time": 13.764698999999991,
          "velocity": 0.8661417322834646,
          "duration": 0.2941175000000005
        },
        {
          "name": "G#4",
          "midi": 68,
          "time": 14.117639999999993,
          "velocity": 0.8661417322834646,
          "duration": 0.2941175000000005
        },
        {
          "name": "G#4",
          "midi": 68,
          "time": 14.647051499999993,
          "velocity": 0.8661417322834646,
          "duration": 0.14705874999999935
        },
        {
          "name": "B4",
          "midi": 71,
          "time": 14.823521999999992,
          "velocity": 0.8661417322834646,
          "duration": 0.14705874999999935
        },
        {
          "name": "G#4",
          "midi": 68,
          "time": 14.99999249999999,
          "velocity": 0.8661417322834646,
          "duration": 0.14705874999999935
        },
        {
          "name": "F#4",
          "midi": 66,
          "time": 15.17646299999999,
          "velocity": 0.8661417322834646,
          "duration": 0.14705874999999935
        },
        {
          "name": "G#4",
          "midi": 68,
          "time": 15.352933499999988,
          "velocity": 0.8661417322834646,
          "duration": 0.14705874999999935
        },
        {
          "name": "G#4",
          "midi": 68,
          "time": 15.705874499999988,
          "velocity": 0.8661417322834646,
          "duration": 0.14705874999999935
        },
        {
          "name": "B4",
          "midi": 71,
          "time": 15.882344999999987,
          "velocity": 0.8661417322834646,
          "duration": 0.14705874999999935
        },
        {
          "name": "G#4",
          "midi": 68,
          "time": 16.058815499999987,
          "velocity": 0.8661417322834646,
          "duration": 0.14705874999999935
        },
        {
          "name": "D#4",
          "midi": 63,
          "time": 16.235285999999988,
          "velocity": 0.8661417322834646,
          "duration": 0.14705874999999935
        },
        {
          "name": "A4",
          "midi": 69,
          "time": 16.41175649999999,
          "velocity": 0.8661417322834646,
          "duration": 0.2941174999999987
        },
        {
          "name": "F#4",
          "midi": 66,
          "time": 16.764697499999986,
          "velocity": 0.8661417322834646,
          "duration": 0.14705874999999935
        },
        {
          "name": "G#4",
          "midi": 68,
          "time": 16.941167999999987,
          "velocity": 0.8661417322834646,
          "duration": 0.2941174999999987
        },
        {
          "name": "G#4",
          "midi": 68,
          "time": 17.470579499999985,
          "velocity": 0.8661417322834646,
          "duration": 0.14705874999999935
        },
        {
          "name": "B4",
          "midi": 71,
          "time": 17.647049999999986,
          "velocity": 0.8661417322834646,
          "duration": 0.14705874999999935
        },
        {
          "name": "G#4",
          "midi": 68,
          "time": 17.823520499999987,
          "velocity": 0.8661417322834646,
          "duration": 0.14705874999999935
        },
        {
          "name": "F#4",
          "midi": 66,
          "time": 17.999990999999987,
          "velocity": 0.8661417322834646,
          "duration": 0.14705874999999935
        },
        {
          "name": "G#4",
          "midi": 68,
          "time": 18.176461499999988,
          "velocity": 0.8661417322834646,
          "duration": 0.14705874999999935
        },
        {
          "name": "D#4",
          "midi": 63,
          "time": 18.705872999999986,
          "velocity": 0.8661417322834646,
          "duration": 0.14705874999999935
        },
        {
          "name": "D#4",
          "midi": 63,
          "time": 18.882343499999987,
          "velocity": 0.8661417322834646,
          "duration": 0.14705874999999935
        },
        {
          "name": "D#4",
          "midi": 63,
          "time": 19.058813999999987,
          "velocity": 0.8661417322834646,
          "duration": 0.14705874999999935
        },
        {
          "name": "F#4",
          "midi": 66,
          "time": 19.235284499999988,
          "velocity": 0.8661417322834646,
          "duration": 0.14705874999999935
        },
        {
          "name": "F#4",
          "midi": 66,
          "time": 19.41175499999999,
          "velocity": 0.8661417322834646,
          "duration": 0.14705874999999935
        },
        {
          "name": "F#4",
          "midi": 66,
          "time": 19.58822549999999,
          "velocity": 0.8661417322834646,
          "duration": 0.14705874999999935
        },
        {
          "name": "G#4",
          "midi": 68,
          "time": 19.76469599999999,
          "velocity": 0.8661417322834646,
          "duration": 0.2941174999999987
        },
        {
          "name": "G#4",
          "midi": 68,
          "time": 20.29410749999999,
          "velocity": 0.8661417322834646,
          "duration": 0.14705874999999935
        },
        {
          "name": "B4",
          "midi": 71,
          "time": 20.47057799999999,
          "velocity": 0.8661417322834646,
          "duration": 0.14705874999999935
        },
        {
          "name": "G#4",
          "midi": 68,
          "time": 20.64704849999999,
          "velocity": 0.8661417322834646,
          "duration": 0.14705874999999935
        },
        {
          "name": "F#4",
          "midi": 66,
          "time": 20.82351899999999,
          "velocity": 0.8661417322834646,
          "duration": 0.14705874999999935
        },
        {
          "name": "G#4",
          "midi": 68,
          "time": 20.99998949999999,
          "velocity": 0.8661417322834646,
          "duration": 0.14705874999999935
        },
        {
          "name": "G#4",
          "midi": 68,
          "time": 21.35293049999999,
          "velocity": 0.8661417322834646,
          "duration": 0.14705874999999935
        },
        {
          "name": "B4",
          "midi": 71,
          "time": 21.52940099999999,
          "velocity": 0.8661417322834646,
          "duration": 0.14705874999999935
        },
        {
          "name": "G#4",
          "midi": 68,
          "time": 21.70587149999999,
          "velocity": 0.8661417322834646,
          "duration": 0.14705874999999935
        },
        {
          "name": "B4",
          "midi": 71,
          "time": 21.88234199999999,
          "velocity": 0.8661417322834646,
          "duration": 0.14705874999999935
        },
        {
          "name": "C#5",
          "midi": 73,
          "time": 22.05881249999999,
          "velocity": 0.8661417322834646,
          "duration": 0.14705874999999935
        },
        {
          "name": "G#4",
          "midi": 68,
          "time": 22.235282999999992,
          "velocity": 0.8661417322834646,
          "duration": 0.14705874999999935
        },
        {
          "name": "F#4",
          "midi": 66,
          "time": 22.411753499999993,
          "velocity": 0.8661417322834646,
          "duration": 0.14705874999999935
        },
        {
          "name": "D#4",
          "midi": 63,
          "time": 22.588223999999993,
          "velocity": 0.8661417322834646,
          "duration": 0.14705874999999935
        },
        {
          "name": "D#4",
          "midi": 63,
          "time": 22.764694499999994,
          "velocity": 0.8661417322834646,
          "duration": 0.14705874999999935
        },
        {
          "name": "A#4",
          "midi": 70,
          "time": 22.941164999999994,
          "velocity": 0.8661417322834646,
          "duration": 0.14705874999999935
        },
        {
          "name": "B4",
          "midi": 71,
          "time": 23.117635499999995,
          "velocity": 0.8661417322834646,
          "duration": 0.14705874999999935
        },
        {
          "name": "B4",
          "midi": 71,
          "time": 23.294105999999996,
          "velocity": 0.8661417322834646,
          "duration": 0.14705874999999935
        },
        {
          "name": "A#4",
          "midi": 70,
          "time": 23.470576499999996,
          "velocity": 0.8661417322834646,
          "duration": 0.14705874999999935
        },
        {
          "name": "G#4",
          "midi": 68,
          "time": 23.647046999999997,
          "velocity": 0.8661417322834646,
          "duration": 0.14705874999999935
        },
        {
          "name": "D#4",
          "midi": 63,
          "time": 23.823517499999998,
          "velocity": 0.8661417322834646,
          "duration": 0.14705874999999935
        },
        {
          "name": "D#4",
          "midi": 63,
          "time": 24.176458499999995,
          "velocity": 0.8661417322834646,
          "duration": 0.14705874999999935
        },
        {
          "name": "B4",
          "midi": 71,
          "time": 24.352928999999996,
          "velocity": 0.8661417322834646,
          "duration": 0.14705874999999935
        },
        {
          "name": "G#4",
          "midi": 68,
          "time": 24.529399499999997,
          "velocity": 0.8661417322834646,
          "duration": 0.14705874999999935
        },
        {
          "name": "A#4",
          "midi": 70,
          "time": 24.705869999999997,
          "velocity": 0.8661417322834646,
          "duration": 0.2941174999999987
        },
        {
          "name": "G#4",
          "midi": 68,
          "time": 25.235281499999996,
          "velocity": 0.8661417322834646,
          "duration": 0.07352937499999967
        },
        {
          "name": "A#4",
          "midi": 70,
          "time": 25.323516749999996,
          "velocity": 0.8661417322834646,
          "duration": 0.07352937499999967
        },
        {
          "name": "B4",
          "midi": 71,
          "time": 25.411751999999996,
          "velocity": 0.8661417322834646,
          "duration": 0.14705874999999935
        },
        {
          "name": "G#4",
          "midi": 68,
          "time": 25.588222499999997,
          "velocity": 0.8661417322834646,
          "duration": 0.07352937499999967
        },
        {
          "name": "A#4",
          "midi": 70,
          "time": 25.676457749999997,
          "velocity": 0.8661417322834646,
          "duration": 0.07352937499999967
        },
        {
          "name": "B4",
          "midi": 71,
          "time": 25.764692999999998,
          "velocity": 0.8661417322834646,
          "duration": 0.14705874999999935
        },
        {
          "name": "G#4",
          "midi": 68,
          "time": 25.9411635,
          "velocity": 0.8661417322834646,
          "duration": 0.07352937499999967
        },
        {
          "name": "A#4",
          "midi": 70,
          "time": 26.02939875,
          "velocity": 0.8661417322834646,
          "duration": 0.07352937499999967
        },
        {
          "name": "C#5",
          "midi": 73,
          "time": 26.117634,
          "velocity": 0.8661417322834646,
          "duration": 0.14705874999999935
        },
        {
          "name": "A#4",
          "midi": 70,
          "time": 26.2941045,
          "velocity": 0.8661417322834646,
          "duration": 0.07352937499999967
        },
        {
          "name": "B4",
          "midi": 71,
          "time": 26.38233975,
          "velocity": 0.8661417322834646,
          "duration": 0.07352937499999967
        },
        {
          "name": "C#5",
          "midi": 73,
          "time": 26.470575,
          "velocity": 0.8661417322834646,
          "duration": 0.14705874999999935
        },
        {
          "name": "A#4",
          "midi": 70,
          "time": 26.6470455,
          "velocity": 0.8661417322834646,
          "duration": 0.07352937499999967
        },
        {
          "name": "B4",
          "midi": 71,
          "time": 26.73528075,
          "velocity": 0.8661417322834646,
          "duration": 0.07352937499999967
        },
        {
          "name": "D#5",
          "midi": 75,
          "time": 26.823516,
          "velocity": 0.8661417322834646,
          "duration": 0.14705874999999935
        },
        {
          "name": "B4",
          "midi": 71,
          "time": 26.999986500000002,
          "velocity": 0.8661417322834646,
          "duration": 0.07352937499999967
        },
        {
          "name": "A#4",
          "midi": 70,
          "time": 27.088221750000002,
          "velocity": 0.8661417322834646,
          "duration": 0.07352937499999967
        },
        {
          "name": "B4",
          "midi": 71,
          "time": 27.176457000000003,
          "velocity": 0.8661417322834646,
          "duration": 0.14705874999999935
        },
        {
          "name": "B4",
          "midi": 71,
          "time": 27.352927500000003,
          "velocity": 0.8661417322834646,
          "duration": 0.07352937499999967
        },
        {
          "name": "G#4",
          "midi": 68,
          "time": 27.441162750000004,
          "velocity": 0.8661417322834646,
          "duration": 0.07352937499999967
        },
        {
          "name": "A#4",
          "midi": 70,
          "time": 27.529398000000004,
          "velocity": 0.8661417322834646,
          "duration": 0.14705874999999935
        },
        {
          "name": "B4",
          "midi": 71,
          "time": 27.705868500000005,
          "velocity": 0.8661417322834646,
          "duration": 0.07352937499999967
        },
        {
          "name": "A#4",
          "midi": 70,
          "time": 27.794103750000005,
          "velocity": 0.8661417322834646,
          "duration": 0.07352937499999967
        },
        {
          "name": "B4",
          "midi": 71,
          "time": 27.882339000000005,
          "velocity": 0.8661417322834646,
          "duration": 0.14705874999999935
        },
        {
          "name": "A#4",
          "midi": 70,
          "time": 28.058809500000006,
          "velocity": 0.8661417322834646,
          "duration": 0.14705874999999935
        },
        {
          "name": "D#4",
          "midi": 63,
          "time": 28.235280000000007,
          "velocity": 1,
          "duration": 0.2941174999999987
        },
        {
          "name": "G#4",
          "midi": 68,
          "time": 28.235280000000007,
          "velocity": 1,
          "duration": 0.2941174999999987
        },
        {
          "name": "A#4",
          "midi": 70,
          "time": 28.588221000000004,
          "velocity": 0.8661417322834646,
          "duration": 0.14705874999999935
        },
        {
          "name": "B4",
          "midi": 71,
          "time": 28.764691500000005,
          "velocity": 0.8661417322834646,
          "duration": 0.14705874999999935
        },
        {
          "name": "B4",
          "midi": 71,
          "time": 28.941162000000006,
          "velocity": 0.8661417322834646,
          "duration": 0.14705874999999935
        },
        {
          "name": "A#4",
          "midi": 70,
          "time": 29.117632500000006,
          "velocity": 0.8661417322834646,
          "duration": 0.14705874999999935
        },
        {
          "name": "G#4",
          "midi": 68,
          "time": 29.294103000000007,
          "velocity": 0.8661417322834646,
          "duration": 0.14705874999999935
        },
        {
          "name": "E4",
          "midi": 64,
          "time": 29.470573500000008,
          "velocity": 1,
          "duration": 0.47058799999999934
        },
        {
          "name": "G#4",
          "midi": 68,
          "time": 29.470573500000008,
          "velocity": 1,
          "duration": 0.47058799999999934
        },
        {
          "name": "A#4",
          "midi": 70,
          "time": 29.999985000000006,
          "velocity": 0.8661417322834646,
          "duration": 0.14705874999999935
        },
        {
          "name": "B4",
          "midi": 71,
          "time": 30.176455500000007,
          "velocity": 0.8661417322834646,
          "duration": 0.14705874999999935
        },
        {
          "name": "B4",
          "midi": 71,
          "time": 30.352926000000007,
          "velocity": 0.8661417322834646,
          "duration": 0.14705874999999935
        },
        {
          "name": "A#4",
          "midi": 70,
          "time": 30.529396500000008,
          "velocity": 0.8661417322834646,
          "duration": 0.14705874999999935
        },
        {
          "name": "G#4",
          "midi": 68,
          "time": 30.70586700000001,
          "velocity": 0.8661417322834646,
          "duration": 0.14705874999999935
        },
        {
          "name": "D#4",
          "midi": 63,
          "time": 30.88233750000001,
          "velocity": 1,
          "duration": 0.47058799999999934
        },
        {
          "name": "F#4",
          "midi": 66,
          "time": 30.88233750000001,
          "velocity": 1,
          "duration": 0.47058799999999934
        },
        {
          "name": "A#4",
          "midi": 70,
          "time": 31.411749000000007,
          "velocity": 0.8661417322834646,
          "duration": 0.14705874999999935
        },
        {
          "name": "B4",
          "midi": 71,
          "time": 31.588219500000008,
          "velocity": 0.8661417322834646,
          "duration": 0.14705874999999935
        },
        {
          "name": "B4",
          "midi": 71,
          "time": 31.76469000000001,
          "velocity": 0.8661417322834646,
          "duration": 0.14705874999999935
        },
        {
          "name": "A#4",
          "midi": 70,
          "time": 31.94116050000001,
          "velocity": 0.8661417322834646,
          "duration": 0.14705874999999935
        },
        {
          "name": "G#4",
          "midi": 68,
          "time": 32.11763100000001,
          "velocity": 0.8661417322834646,
          "duration": 0.14705874999999935
        },
        {
          "name": "A#4",
          "midi": 70,
          "time": 32.29410150000001,
          "velocity": 1,
          "duration": 0.32352925
        },
        {
          "name": "C#5",
          "midi": 73,
          "time": 32.29410150000001,
          "velocity": 1,
          "duration": 0.32352925
        },
        {
          "name": "B4",
          "midi": 71,
          "time": 32.64704250000001,
          "velocity": 0.8661417322834646,
          "duration": 0.14705874999999935
        },
        {
          "name": "A#4",
          "midi": 70,
          "time": 32.82351300000001,
          "velocity": 0.8661417322834646,
          "duration": 0.14705874999999935
        },
        {
          "name": "B4",
          "midi": 71,
          "time": 32.99998350000001,
          "velocity": 0.8661417322834646,
          "duration": 0.14705874999999935
        },
        {
          "name": "B4",
          "midi": 71,
          "time": 33.176454000000014,
          "velocity": 0.8661417322834646,
          "duration": 0.14705874999999935
        },
        {
          "name": "A#4",
          "midi": 70,
          "time": 33.352924500000015,
          "velocity": 0.8661417322834646,
          "duration": 0.14705874999999935
        },
        {
          "name": "F#4",
          "midi": 66,
          "time": 33.529395000000015,
          "velocity": 0.8661417322834646,
          "duration": 0.2941174999999987
        },
        {
          "name": "D#4",
          "midi": 63,
          "time": 33.882336000000016,
          "velocity": 1,
          "duration": 0.2941174999999987
        },
        {
          "name": "G#4",
          "midi": 68,
          "time": 33.882336000000016,
          "velocity": 1,
          "duration": 0.2941174999999987
        },
        {
          "name": "A#4",
          "midi": 70,
          "time": 34.23527700000002,
          "velocity": 0.8661417322834646,
          "duration": 0.14705874999999935
        },
        {
          "name": "B4",
          "midi": 71,
          "time": 34.41174750000002,
          "velocity": 0.8661417322834646,
          "duration": 0.14705874999999935
        },
        {
          "name": "B4",
          "midi": 71,
          "time": 34.58821800000002,
          "velocity": 0.8661417322834646,
          "duration": 0.14705874999999935
        },
        {
          "name": "A#4",
          "midi": 70,
          "time": 34.76468850000002,
          "velocity": 0.8661417322834646,
          "duration": 0.14705874999999935
        },
        {
          "name": "G#4",
          "midi": 68,
          "time": 34.94115900000002,
          "velocity": 0.8661417322834646,
          "duration": 0.14705874999999935
        },
        {
          "name": "E4",
          "midi": 64,
          "time": 35.11762950000002,
          "velocity": 1,
          "duration": 0.47058799999999934
        },
        {
          "name": "G#4",
          "midi": 68,
          "time": 35.11762950000002,
          "velocity": 1,
          "duration": 0.47058799999999934
        },
        {
          "name": "A#4",
          "midi": 70,
          "time": 35.64704100000002,
          "velocity": 0.8661417322834646,
          "duration": 0.14705874999999935
        },
        {
          "name": "B4",
          "midi": 71,
          "time": 35.82351150000002,
          "velocity": 0.8661417322834646,
          "duration": 0.14705874999999935
        },
        {
          "name": "B4",
          "midi": 71,
          "time": 35.999982000000024,
          "velocity": 0.8661417322834646,
          "duration": 0.14705874999999935
        },
        {
          "name": "A#4",
          "midi": 70,
          "time": 36.176452500000025,
          "velocity": 0.8661417322834646,
          "duration": 0.14705874999999935
        },
        {
          "name": "G#4",
          "midi": 68,
          "time": 36.352923000000025,
          "velocity": 0.8661417322834646,
          "duration": 0.14705874999999935
        },
        {
          "name": "D#4",
          "midi": 63,
          "time": 36.529393500000026,
          "velocity": 1,
          "duration": 0.47058799999999934
        },
        {
          "name": "F#4",
          "midi": 66,
          "time": 36.529393500000026,
          "velocity": 1,
          "duration": 0.47058799999999934
        },
        {
          "name": "A#4",
          "midi": 70,
          "time": 37.05880500000003,
          "velocity": 0.8661417322834646,
          "duration": 0.14705874999999935
        },
        {
          "name": "B4",
          "midi": 71,
          "time": 37.23527550000003,
          "velocity": 0.8661417322834646,
          "duration": 0.14705874999999935
        },
        {
          "name": "B4",
          "midi": 71,
          "time": 37.41174600000003,
          "velocity": 0.8661417322834646,
          "duration": 0.14705874999999935
        },
        {
          "name": "A#4",
          "midi": 70,
          "time": 37.58821650000003,
          "velocity": 0.8661417322834646,
          "duration": 0.14705874999999935
        },
        {
          "name": "G#4",
          "midi": 68,
          "time": 37.76468700000003,
          "velocity": 0.8661417322834646,
          "duration": 0.14705874999999935
        },
        {
          "name": "A#4",
          "midi": 70,
          "time": 37.94115750000003,
          "velocity": 1,
          "duration": 0.32352925
        },
        {
          "name": "C#5",
          "midi": 73,
          "time": 37.94115750000003,
          "velocity": 1,
          "duration": 0.32352925
        },
        {
          "name": "B4",
          "midi": 71,
          "time": 38.29409850000003,
          "velocity": 0.8661417322834646,
          "duration": 0.14705874999999935
        },
        {
          "name": "A#4",
          "midi": 70,
          "time": 38.47056900000003,
          "velocity": 0.8661417322834646,
          "duration": 0.14705874999999935
        },
        {
          "name": "B4",
          "midi": 71,
          "time": 38.647039500000034,
          "velocity": 0.8661417322834646,
          "duration": 0.14705874999999935
        },
        {
          "name": "B4",
          "midi": 71,
          "time": 38.823510000000034,
          "velocity": 0.8661417322834646,
          "duration": 0.14705874999999935
        },
        {
          "name": "A#4",
          "midi": 70,
          "time": 38.999980500000035,
          "velocity": 0.8661417322834646,
          "duration": 0.14705874999999935
        },
        {
          "name": "F#4",
          "midi": 66,
          "time": 39.176451000000036,
          "velocity": 0.8661417322834646,
          "duration": 0.2941174999999987
        },
        {
          "name": "D#4",
          "midi": 63,
          "time": 39.52939200000004,
          "velocity": 1,
          "duration": 0.2941174999999987
        },
        {
          "name": "G#4",
          "midi": 68,
          "time": 39.52939200000004,
          "velocity": 1,
          "duration": 0.2941174999999987
        },
        {
          "name": "A#4",
          "midi": 70,
          "time": 39.88233300000004,
          "velocity": 0.8661417322834646,
          "duration": 0.14705874999999935
        },
        {
          "name": "B4",
          "midi": 71,
          "time": 40.05880350000004,
          "velocity": 0.8661417322834646,
          "duration": 0.14705874999999935
        },
        {
          "name": "B4",
          "midi": 71,
          "time": 40.23527400000004,
          "velocity": 0.8661417322834646,
          "duration": 0.14705874999999935
        },
        {
          "name": "A#4",
          "midi": 70,
          "time": 40.41174450000004,
          "velocity": 0.8661417322834646,
          "duration": 0.14705874999999935
        },
        {
          "name": "G#4",
          "midi": 68,
          "time": 40.58821500000004,
          "velocity": 0.8661417322834646,
          "duration": 0.14705874999999935
        },
        {
          "name": "E4",
          "midi": 64,
          "time": 40.76468550000004,
          "velocity": 1,
          "duration": 0.47058799999999934
        },
        {
          "name": "G#4",
          "midi": 68,
          "time": 40.76468550000004,
          "velocity": 1,
          "duration": 0.47058799999999934
        },
        {
          "name": "A#4",
          "midi": 70,
          "time": 41.29409700000004,
          "velocity": 0.8661417322834646,
          "duration": 0.14705874999999935
        },
        {
          "name": "B4",
          "midi": 71,
          "time": 41.470567500000044,
          "velocity": 0.8661417322834646,
          "duration": 0.14705874999999935
        },
        {
          "name": "B4",
          "midi": 71,
          "time": 41.647038000000045,
          "velocity": 0.8661417322834646,
          "duration": 0.14705874999999935
        },
        {
          "name": "A#4",
          "midi": 70,
          "time": 41.823508500000045,
          "velocity": 0.8661417322834646,
          "duration": 0.14705874999999935
        },
        {
          "name": "G#4",
          "midi": 68,
          "time": 41.999979000000046,
          "velocity": 0.8661417322834646,
          "duration": 0.14705874999999935
        },
        {
          "name": "D#4",
          "midi": 63,
          "time": 42.17644950000005,
          "velocity": 1,
          "duration": 0.47058799999999934
        },
        {
          "name": "F#4",
          "midi": 66,
          "time": 42.17644950000005,
          "velocity": 1,
          "duration": 0.47058799999999934
        },
        {
          "name": "A#4",
          "midi": 70,
          "time": 42.70586100000005,
          "velocity": 0.8661417322834646,
          "duration": 0.14705874999999935
        },
        {
          "name": "B4",
          "midi": 71,
          "time": 42.88233150000005,
          "velocity": 0.8661417322834646,
          "duration": 0.14705874999999935
        },
        {
          "name": "B4",
          "midi": 71,
          "time": 43.05880200000005,
          "velocity": 0.8661417322834646,
          "duration": 0.14705874999999935
        },
        {
          "name": "A#4",
          "midi": 70,
          "time": 43.23527250000005,
          "velocity": 0.8661417322834646,
          "duration": 0.14705874999999935
        },
        {
          "name": "G#4",
          "midi": 68,
          "time": 43.41174300000005,
          "velocity": 0.8661417322834646,
          "duration": 0.14705874999999935
        },
        {
          "name": "A#4",
          "midi": 70,
          "time": 43.58821350000005,
          "velocity": 1,
          "duration": 0.32352925
        },
        {
          "name": "C#5",
          "midi": 73,
          "time": 43.58821350000005,
          "velocity": 1,
          "duration": 0.32352925
        },
        {
          "name": "B4",
          "midi": 71,
          "time": 43.94115450000005,
          "velocity": 0.8661417322834646,
          "duration": 0.14705874999999935
        },
        {
          "name": "A#4",
          "midi": 70,
          "time": 44.117625000000054,
          "velocity": 0.8661417322834646,
          "duration": 0.14705874999999935
        },
        {
          "name": "B4",
          "midi": 71,
          "time": 44.294095500000054,
          "velocity": 0.8661417322834646,
          "duration": 0.14705874999999935
        },
        {
          "name": "B4",
          "midi": 71,
          "time": 44.470566000000055,
          "velocity": 0.8661417322834646,
          "duration": 0.14705874999999935
        },
        {
          "name": "A#4",
          "midi": 70,
          "time": 44.647036500000056,
          "velocity": 0.8661417322834646,
          "duration": 0.14705874999999935
        },
        {
          "name": "F#4",
          "midi": 66,
          "time": 44.823507000000056,
          "velocity": 0.8661417322834646,
          "duration": 0.2941174999999987
        },
        {
          "name": "D#4",
          "midi": 63,
          "time": 45.17644800000006,
          "velocity": 1,
          "duration": 0.2941174999999987
        },
        {
          "name": "G#4",
          "midi": 68,
          "time": 45.17644800000006,
          "velocity": 1,
          "duration": 0.2941174999999987
        },
        {
          "name": "A#4",
          "midi": 70,
          "time": 45.52938900000006,
          "velocity": 0.8661417322834646,
          "duration": 0.14705874999999935
        },
        {
          "name": "B4",
          "midi": 71,
          "time": 45.70585950000006,
          "velocity": 0.8661417322834646,
          "duration": 0.14705874999999935
        },
        {
          "name": "B4",
          "midi": 71,
          "time": 45.88233000000006,
          "velocity": 0.8661417322834646,
          "duration": 0.14705874999999935
        },
        {
          "name": "A#4",
          "midi": 70,
          "time": 46.05880050000006,
          "velocity": 0.8661417322834646,
          "duration": 0.14705874999999935
        },
        {
          "name": "G#4",
          "midi": 68,
          "time": 46.23527100000006,
          "velocity": 0.8661417322834646,
          "duration": 0.14705874999999935
        },
        {
          "name": "E4",
          "midi": 64,
          "time": 46.41174150000006,
          "velocity": 1,
          "duration": 0.47058799999999934
        },
        {
          "name": "G#4",
          "midi": 68,
          "time": 46.41174150000006,
          "velocity": 1,
          "duration": 0.47058799999999934
        },
        {
          "name": "A#4",
          "midi": 70,
          "time": 46.941153000000064,
          "velocity": 0.8661417322834646,
          "duration": 0.14705874999999935
        },
        {
          "name": "B4",
          "midi": 71,
          "time": 47.117623500000064,
          "velocity": 0.8661417322834646,
          "duration": 0.14705874999999935
        },
        {
          "name": "B4",
          "midi": 71,
          "time": 47.294094000000065,
          "velocity": 0.8661417322834646,
          "duration": 0.14705874999999935
        },
        {
          "name": "A#4",
          "midi": 70,
          "time": 47.470564500000066,
          "velocity": 0.8661417322834646,
          "duration": 0.14705874999999935
        },
        {
          "name": "G#4",
          "midi": 68,
          "time": 47.647035000000066,
          "velocity": 0.8661417322834646,
          "duration": 0.14705874999999935
        },
        {
          "name": "D#4",
          "midi": 63,
          "time": 47.82350550000007,
          "velocity": 1,
          "duration": 0.47058799999999934
        },
        {
          "name": "F#4",
          "midi": 66,
          "time": 47.82350550000007,
          "velocity": 1,
          "duration": 0.47058799999999934
        },
        {
          "name": "A#4",
          "midi": 70,
          "time": 48.35291700000007,
          "velocity": 0.8661417322834646,
          "duration": 0.14705874999999935
        },
        {
          "name": "B4",
          "midi": 71,
          "time": 48.52938750000007,
          "velocity": 0.8661417322834646,
          "duration": 0.14705874999999935
        },
        {
          "name": "B4",
          "midi": 71,
          "time": 48.70585800000007,
          "velocity": 0.8661417322834646,
          "duration": 0.14705874999999935
        },
        {
          "name": "A#4",
          "midi": 70,
          "time": 48.88232850000007,
          "velocity": 0.8661417322834646,
          "duration": 0.14705874999999935
        },
        {
          "name": "G#4",
          "midi": 68,
          "time": 49.05879900000007,
          "velocity": 0.8661417322834646,
          "duration": 0.14705874999999935
        },
        {
          "name": "A#4",
          "midi": 70,
          "time": 49.23526950000007,
          "velocity": 1,
          "duration": 0.32352925
        },
        {
          "name": "C#5",
          "midi": 73,
          "time": 49.23526950000007,
          "velocity": 1,
          "duration": 0.32352925
        },
        {
          "name": "B4",
          "midi": 71,
          "time": 49.58821050000007,
          "velocity": 0.8661417322834646,
          "duration": 0.14705874999999935
        },
        {
          "name": "A#4",
          "midi": 70,
          "time": 49.764681000000074,
          "velocity": 0.8661417322834646,
          "duration": 0.14705874999999935
        },
        {
          "name": "B4",
          "midi": 71,
          "time": 49.941151500000075,
          "velocity": 0.8661417322834646,
          "duration": 0.14705874999999935
        },
        {
          "name": "B4",
          "midi": 71,
          "time": 50.117622000000075,
          "velocity": 0.8661417322834646,
          "duration": 0.14705874999999935
        },
        {
          "name": "A#4",
          "midi": 70,
          "time": 50.294092500000076,
          "velocity": 0.8661417322834646,
          "duration": 0.14705874999999935
        },
        {
          "name": "F#4",
          "midi": 66,
          "time": 50.47056300000008,
          "velocity": 0.8661417322834646,
          "duration": 0.2941174999999987
        },
        {
          "name": "D#4",
          "midi": 63,
          "time": 50.82350400000008,
          "velocity": 1,
          "duration": 0.2941174999999987
        },
        {
          "name": "G#4",
          "midi": 68,
          "time": 50.82350400000008,
          "velocity": 1,
          "duration": 0.2941174999999987
        },
        {
          "name": "A#4",
          "midi": 70,
          "time": 51.17644500000008,
          "velocity": 0.8661417322834646,
          "duration": 0.14705874999999935
        },
        {
          "name": "B4",
          "midi": 71,
          "time": 51.35291550000008,
          "velocity": 0.8661417322834646,
          "duration": 0.14705874999999935
        },
        {
          "name": "B4",
          "midi": 71,
          "time": 51.52938600000008,
          "velocity": 0.8661417322834646,
          "duration": 0.14705874999999935
        },
        {
          "name": "A#4",
          "midi": 70,
          "time": 51.70585650000008,
          "velocity": 0.8661417322834646,
          "duration": 0.14705874999999935
        },
        {
          "name": "G#4",
          "midi": 68,
          "time": 51.88232700000008,
          "velocity": 0.8661417322834646,
          "duration": 0.14705874999999935
        },
        {
          "name": "E4",
          "midi": 64,
          "time": 52.05879750000008,
          "velocity": 1,
          "duration": 0.47058799999999934
        },
        {
          "name": "G#4",
          "midi": 68,
          "time": 52.05879750000008,
          "velocity": 1,
          "duration": 0.47058799999999934
        },
        {
          "name": "A#4",
          "midi": 70,
          "time": 52.588209000000084,
          "velocity": 0.8661417322834646,
          "duration": 0.14705874999999935
        },
        {
          "name": "B4",
          "midi": 71,
          "time": 52.764679500000085,
          "velocity": 0.8661417322834646,
          "duration": 0.14705874999999935
        },
        {
          "name": "B4",
          "midi": 71,
          "time": 52.941150000000086,
          "velocity": 0.8661417322834646,
          "duration": 0.14705874999999935
        },
        {
          "name": "A#4",
          "midi": 70,
          "time": 53.117620500000086,
          "velocity": 0.8661417322834646,
          "duration": 0.14705874999999935
        },
        {
          "name": "G#4",
          "midi": 68,
          "time": 53.29409100000009,
          "velocity": 0.8661417322834646,
          "duration": 0.14705874999999935
        },
        {
          "name": "D#4",
          "midi": 63,
          "time": 53.47056150000009,
          "velocity": 1,
          "duration": 0.47058799999999934
        },
        {
          "name": "F#4",
          "midi": 66,
          "time": 53.47056150000009,
          "velocity": 1,
          "duration": 0.47058799999999934
        },
        {
          "name": "A#4",
          "midi": 70,
          "time": 53.99997300000009,
          "velocity": 0.8661417322834646,
          "duration": 0.14705874999999935
        },
        {
          "name": "B4",
          "midi": 71,
          "time": 54.17644350000009,
          "velocity": 0.8661417322834646,
          "duration": 0.14705874999999935
        },
        {
          "name": "B4",
          "midi": 71,
          "time": 54.35291400000009,
          "velocity": 0.8661417322834646,
          "duration": 0.14705874999999935
        },
        {
          "name": "A#4",
          "midi": 70,
          "time": 54.52938450000009,
          "velocity": 0.8661417322834646,
          "duration": 0.14705874999999935
        },
        {
          "name": "G#4",
          "midi": 68,
          "time": 54.70585500000009,
          "velocity": 0.8661417322834646,
          "duration": 0.14705874999999935
        },
        {
          "name": "A#4",
          "midi": 70,
          "time": 54.88232550000009,
          "velocity": 1,
          "duration": 0.32352925
        },
        {
          "name": "C#5",
          "midi": 73,
          "time": 54.88232550000009,
          "velocity": 1,
          "duration": 0.32352925
        },
        {
          "name": "B4",
          "midi": 71,
          "time": 55.235266500000094,
          "velocity": 0.8661417322834646,
          "duration": 0.14705874999999935
        },
        {
          "name": "A#4",
          "midi": 70,
          "time": 55.411737000000095,
          "velocity": 0.8661417322834646,
          "duration": 0.14705874999999935
        },
        {
          "name": "B4",
          "midi": 71,
          "time": 55.588207500000095,
          "velocity": 0.8661417322834646,
          "duration": 0.14705874999999935
        },
        {
          "name": "B4",
          "midi": 71,
          "time": 55.764678000000096,
          "velocity": 0.8661417322834646,
          "duration": 0.14705874999999935
        },
        {
          "name": "A#4",
          "midi": 70,
          "time": 55.9411485000001,
          "velocity": 0.8661417322834646,
          "duration": 0.14705874999999935
        },
        {
          "name": "F#4",
          "midi": 66,
          "time": 56.1176190000001,
          "velocity": 0.8661417322834646,
          "duration": 0.2941174999999987
        },
        {
          "name": "D#4",
          "midi": 63,
          "time": 56.4705600000001,
          "velocity": 1,
          "duration": 0.2941174999999987
        },
        {
          "name": "G#4",
          "midi": 68,
          "time": 56.4705600000001,
          "velocity": 1,
          "duration": 0.2941174999999987
        },
        {
          "name": "A#4",
          "midi": 70,
          "time": 56.8235010000001,
          "velocity": 0.8661417322834646,
          "duration": 0.14705874999999935
        },
        {
          "name": "B4",
          "midi": 71,
          "time": 56.9999715000001,
          "velocity": 0.8661417322834646,
          "duration": 0.14705874999999935
        },
        {
          "name": "B4",
          "midi": 71,
          "time": 57.1764420000001,
          "velocity": 0.8661417322834646,
          "duration": 0.14705874999999935
        },
        {
          "name": "A#4",
          "midi": 70,
          "time": 57.3529125000001,
          "velocity": 0.8661417322834646,
          "duration": 0.14705874999999935
        },
        {
          "name": "G#4",
          "midi": 68,
          "time": 57.5293830000001,
          "velocity": 0.8661417322834646,
          "duration": 0.14705874999999935
        },
        {
          "name": "E4",
          "midi": 64,
          "time": 57.7058535000001,
          "velocity": 1,
          "duration": 0.47058799999999934
        },
        {
          "name": "G#4",
          "midi": 68,
          "time": 57.7058535000001,
          "velocity": 1,
          "duration": 0.47058799999999934
        },
        {
          "name": "A#4",
          "midi": 70,
          "time": 58.235265000000105,
          "velocity": 0.8661417322834646,
          "duration": 0.14705874999999935
        },
        {
          "name": "B4",
          "midi": 71,
          "time": 58.411735500000106,
          "velocity": 0.8661417322834646,
          "duration": 0.14705874999999935
        },
        {
          "name": "B4",
          "midi": 71,
          "time": 58.588206000000106,
          "velocity": 0.8661417322834646,
          "duration": 0.14705874999999935
        },
        {
          "name": "A#4",
          "midi": 70,
          "time": 58.76467650000011,
          "velocity": 0.8661417322834646,
          "duration": 0.14705874999999935
        },
        {
          "name": "G#4",
          "midi": 68,
          "time": 58.94114700000011,
          "velocity": 0.8661417322834646,
          "duration": 0.14705874999999935
        },
        {
          "name": "D#4",
          "midi": 63,
          "time": 59.11761750000011,
          "velocity": 1,
          "duration": 0.47058799999999934
        },
        {
          "name": "F#4",
          "midi": 66,
          "time": 59.11761750000011,
          "velocity": 1,
          "duration": 0.47058799999999934
        },
        {
          "name": "A#4",
          "midi": 70,
          "time": 59.64702900000011,
          "velocity": 0.8661417322834646,
          "duration": 0.14705874999999935
        },
        {
          "name": "B4",
          "midi": 71,
          "time": 59.82349950000011,
          "velocity": 0.8661417322834646,
          "duration": 0.14705874999999935
        },
        {
          "name": "B4",
          "midi": 71,
          "time": 59.99997000000011,
          "velocity": 0.8661417322834646,
          "duration": 0.14705874999999935
        },
        {
          "name": "A#4",
          "midi": 70,
          "time": 60.17644050000011,
          "velocity": 0.8661417322834646,
          "duration": 0.14705874999999935
        },
        {
          "name": "G#4",
          "midi": 68,
          "time": 60.35291100000011,
          "velocity": 0.8661417322834646,
          "duration": 0.14705874999999935
        },
        {
          "name": "A#4",
          "midi": 70,
          "time": 60.52938150000011,
          "velocity": 1,
          "duration": 0.32352925
        },
        {
          "name": "C#5",
          "midi": 73,
          "time": 60.52938150000011,
          "velocity": 1,
          "duration": 0.32352925
        },
        {
          "name": "B4",
          "midi": 71,
          "time": 60.882322500000114,
          "velocity": 0.8661417322834646,
          "duration": 0.14705874999999935
        },
        {
          "name": "A#4",
          "midi": 70,
          "time": 61.058793000000115,
          "velocity": 0.8661417322834646,
          "duration": 0.14705874999999935
        },
        {
          "name": "B4",
          "midi": 71,
          "time": 61.235263500000116,
          "velocity": 0.8661417322834646,
          "duration": 0.14705874999999935
        },
        {
          "name": "B4",
          "midi": 71,
          "time": 61.411734000000116,
          "velocity": 0.8661417322834646,
          "duration": 0.14705874999999935
        },
        {
          "name": "A#4",
          "midi": 70,
          "time": 61.58820450000012,
          "velocity": 0.8661417322834646,
          "duration": 0.14705874999999935
        },
        {
          "name": "F#4",
          "midi": 66,
          "time": 61.76467500000012,
          "velocity": 0.8661417322834646,
          "duration": 0.2941174999999987
        },
        {
          "name": "G#4",
          "midi": 68,
          "time": 62.11761600000012,
          "velocity": 0.8661417322834646,
          "duration": 0.14705874999999935
        },
        {
          "name": "D#5",
          "midi": 75,
          "time": 62.29408650000012,
          "velocity": 0.8661417322834646,
          "duration": 0.14705874999999935
        },
        {
          "name": "A#4",
          "midi": 70,
          "time": 62.47055700000012,
          "velocity": 0.8661417322834646,
          "duration": 0.14705874999999935
        },
        {
          "name": "D#5",
          "midi": 75,
          "time": 62.64702750000012,
          "velocity": 0.8661417322834646,
          "duration": 0.14705874999999935
        },
        {
          "name": "B4",
          "midi": 71,
          "time": 62.82349800000012,
          "velocity": 0.8661417322834646,
          "duration": 0.14705874999999935
        },
        {
          "name": "D#5",
          "midi": 75,
          "time": 62.99996850000012,
          "velocity": 0.8661417322834646,
          "duration": 0.14705874999999935
        },
        {
          "name": "G#4",
          "midi": 68,
          "time": 63.17643900000012,
          "velocity": 0.8661417322834646,
          "duration": 0.14705874999999935
        },
        {
          "name": "D#5",
          "midi": 75,
          "time": 63.35290950000012,
          "velocity": 0.8661417322834646,
          "duration": 0.14705874999999935
        },
        {
          "name": "E4",
          "midi": 64,
          "time": 63.529380000000124,
          "velocity": 0.8661417322834646,
          "duration": 0.14705874999999935
        },
        {
          "name": "B4",
          "midi": 71,
          "time": 63.705850500000125,
          "velocity": 0.8661417322834646,
          "duration": 0.14705874999999935
        },
        {
          "name": "E5",
          "midi": 76,
          "time": 63.882321000000125,
          "velocity": 0.8661417322834646,
          "duration": 0.14705875000000646
        },
        {
          "name": "B4",
          "midi": 71,
          "time": 64.05879150000013,
          "velocity": 0.8661417322834646,
          "duration": 0.14705874999999935
        },
        {
          "name": "E4",
          "midi": 64,
          "time": 64.23526200000012,
          "velocity": 0.8661417322834646,
          "duration": 0.14705874999999935
        },
        {
          "name": "B4",
          "midi": 71,
          "time": 64.41173250000011,
          "velocity": 0.8661417322834646,
          "duration": 0.14705874999999935
        },
        {
          "name": "D#5",
          "midi": 75,
          "time": 64.5882030000001,
          "velocity": 0.8661417322834646,
          "duration": 0.14705874999999935
        },
        {
          "name": "B4",
          "midi": 71,
          "time": 64.7646735000001,
          "velocity": 0.8661417322834646,
          "duration": 0.14705874999999935
        },
        {
          "name": "B4",
          "midi": 71,
          "time": 64.9411440000001,
          "velocity": 0.8661417322834646,
          "duration": 0.14705874999999935
        },
        {
          "name": "F#5",
          "midi": 78,
          "time": 65.11761450000009,
          "velocity": 0.8661417322834646,
          "duration": 0.14705874999999935
        },
        {
          "name": "A#4",
          "midi": 70,
          "time": 65.29408500000008,
          "velocity": 0.8661417322834646,
          "duration": 0.14705874999999935
        },
        {
          "name": "F#5",
          "midi": 78,
          "time": 65.47055550000007,
          "velocity": 0.8661417322834646,
          "duration": 0.14705874999999935
        },
        {
          "name": "B4",
          "midi": 71,
          "time": 65.64702600000007,
          "velocity": 0.8661417322834646,
          "duration": 0.14705874999999935
        },
        {
          "name": "F#5",
          "midi": 78,
          "time": 65.82349650000006,
          "velocity": 0.8661417322834646,
          "duration": 0.14705874999999935
        },
        {
          "name": "F#4",
          "midi": 66,
          "time": 65.99996700000005,
          "velocity": 0.8661417322834646,
          "duration": 0.14705874999999935
        },
        {
          "name": "D#5",
          "midi": 75,
          "time": 66.17643750000005,
          "velocity": 0.8661417322834646,
          "duration": 0.14705874999999935
        },
        {
          "name": "F#4",
          "midi": 66,
          "time": 66.35290800000004,
          "velocity": 0.8661417322834646,
          "duration": 0.14705874999999935
        },
        {
          "name": "C#5",
          "midi": 73,
          "time": 66.52937850000004,
          "velocity": 0.8661417322834646,
          "duration": 0.14705874999999935
        },
        {
          "name": "F#5",
          "midi": 78,
          "time": 66.70584900000003,
          "velocity": 0.8661417322834646,
          "duration": 0.14705874999999935
        },
        {
          "name": "C#5",
          "midi": 73,
          "time": 66.88231950000002,
          "velocity": 0.8661417322834646,
          "duration": 0.14705874999999935
        },
        {
          "name": "F#4",
          "midi": 66,
          "time": 67.05879000000002,
          "velocity": 0.8661417322834646,
          "duration": 0.14705874999999935
        },
        {
          "name": "C#5",
          "midi": 73,
          "time": 67.23526050000001,
          "velocity": 0.8661417322834646,
          "duration": 0.14705874999999935
        },
        {
          "name": "E5",
          "midi": 76,
          "time": 67.411731,
          "velocity": 0.8661417322834646,
          "duration": 0.14705874999999935
        },
        {
          "name": "C#5",
          "midi": 73,
          "time": 67.5882015,
          "velocity": 0.8661417322834646,
          "duration": 0.14705874999999935
        },
        {
          "name": "G#4",
          "midi": 68,
          "time": 67.76467199999999,
          "velocity": 0.8661417322834646,
          "duration": 0.14705874999999935
        },
        {
          "name": "D#5",
          "midi": 75,
          "time": 67.94114249999998,
          "velocity": 0.8661417322834646,
          "duration": 0.14705874999999935
        },
        {
          "name": "A#4",
          "midi": 70,
          "time": 68.11761299999998,
          "velocity": 0.8661417322834646,
          "duration": 0.14705874999999935
        },
        {
          "name": "D#5",
          "midi": 75,
          "time": 68.29408349999997,
          "velocity": 0.8661417322834646,
          "duration": 0.14705874999999935
        },
        {
          "name": "B4",
          "midi": 71,
          "time": 68.47055399999996,
          "velocity": 0.8661417322834646,
          "duration": 0.14705874999999935
        },
        {
          "name": "D#5",
          "midi": 75,
          "time": 68.64702449999996,
          "velocity": 0.8661417322834646,
          "duration": 0.14705874999999935
        },
        {
          "name": "G#4",
          "midi": 68,
          "time": 68.82349499999995,
          "velocity": 0.8661417322834646,
          "duration": 0.14705874999999935
        },
        {
          "name": "D#5",
          "midi": 75,
          "time": 68.99996549999994,
          "velocity": 0.8661417322834646,
          "duration": 0.14705874999999935
        },
        {
          "name": "E4",
          "midi": 64,
          "time": 69.17643599999994,
          "velocity": 0.8661417322834646,
          "duration": 0.14705874999999935
        },
        {
          "name": "B4",
          "midi": 71,
          "time": 69.35290649999993,
          "velocity": 0.8661417322834646,
          "duration": 0.14705874999999935
        },
        {
          "name": "E5",
          "midi": 76,
          "time": 69.52937699999993,
          "velocity": 0.8661417322834646,
          "duration": 0.14705874999999935
        },
        {
          "name": "B4",
          "midi": 71,
          "time": 69.70584749999992,
          "velocity": 0.8661417322834646,
          "duration": 0.14705874999999935
        },
        {
          "name": "E4",
          "midi": 64,
          "time": 69.88231799999991,
          "velocity": 0.8661417322834646,
          "duration": 0.14705874999999935
        },
        {
          "name": "B4",
          "midi": 71,
          "time": 70.0587884999999,
          "velocity": 0.8661417322834646,
          "duration": 0.14705874999999935
        },
        {
          "name": "D#5",
          "midi": 75,
          "time": 70.2352589999999,
          "velocity": 0.8661417322834646,
          "duration": 0.14705874999999935
        },
        {
          "name": "B4",
          "midi": 71,
          "time": 70.4117294999999,
          "velocity": 0.8661417322834646,
          "duration": 0.14705874999999935
        },
        {
          "name": "B4",
          "midi": 71,
          "time": 70.58819999999989,
          "velocity": 0.8661417322834646,
          "duration": 0.14705874999999935
        },
        {
          "name": "F#5",
          "midi": 78,
          "time": 70.76467049999988,
          "velocity": 0.8661417322834646,
          "duration": 0.14705874999999935
        },
        {
          "name": "A#4",
          "midi": 70,
          "time": 70.94114099999987,
          "velocity": 0.8661417322834646,
          "duration": 0.14705874999999935
        },
        {
          "name": "F#5",
          "midi": 78,
          "time": 71.11761149999987,
          "velocity": 0.8661417322834646,
          "duration": 0.14705874999999935
        },
        {
          "name": "B4",
          "midi": 71,
          "time": 71.29408199999986,
          "velocity": 0.8661417322834646,
          "duration": 0.14705874999999935
        },
        {
          "name": "F#5",
          "midi": 78,
          "time": 71.47055249999985,
          "velocity": 0.8661417322834646,
          "duration": 0.14705874999999935
        },
        {
          "name": "F#4",
          "midi": 66,
          "time": 71.64702299999985,
          "velocity": 0.8661417322834646,
          "duration": 0.14705874999999935
        },
        {
          "name": "D#5",
          "midi": 75,
          "time": 71.82349349999984,
          "velocity": 0.8661417322834646,
          "duration": 0.14705874999999935
        },
        {
          "name": "F#4",
          "midi": 66,
          "time": 71.99996399999984,
          "velocity": 0.8661417322834646,
          "duration": 0.14705874999999935
        },
        {
          "name": "C#5",
          "midi": 73,
          "time": 72.17643449999983,
          "velocity": 0.8661417322834646,
          "duration": 0.14705874999999935
        },
        {
          "name": "F#5",
          "midi": 78,
          "time": 72.35290499999982,
          "velocity": 0.8661417322834646,
          "duration": 0.14705874999999935
        },
        {
          "name": "C#5",
          "midi": 73,
          "time": 72.52937549999982,
          "velocity": 0.8661417322834646,
          "duration": 0.14705874999999935
        },
        {
          "name": "F#4",
          "midi": 66,
          "time": 72.70584599999981,
          "velocity": 0.8661417322834646,
          "duration": 0.44117624999999805
        },
        {
          "name": "G4",
          "midi": 67,
          "time": 73.2352574999998,
          "velocity": 0.8661417322834646,
          "duration": 0.14705874999999935
        },
        {
          "name": "G#4",
          "midi": 68,
          "time": 73.4117279999998,
          "velocity": 0.8661417322834646,
          "duration": 0.14705874999999935
        },
        {
          "name": "B4",
          "midi": 71,
          "time": 73.58819849999979,
          "velocity": 0.8661417322834646,
          "duration": 0.14705874999999935
        },
        {
          "name": "A#4",
          "midi": 70,
          "time": 73.76466899999978,
          "velocity": 0.8661417322834646,
          "duration": 0.14705874999999935
        },
        {
          "name": "B4",
          "midi": 71,
          "time": 73.94113949999978,
          "velocity": 0.8661417322834646,
          "duration": 0.14705874999999935
        },
        {
          "name": "B4",
          "midi": 71,
          "time": 74.11760999999977,
          "velocity": 0.8661417322834646,
          "duration": 0.14705874999999935
        },
        {
          "name": "A#4",
          "midi": 70,
          "time": 74.29408049999977,
          "velocity": 0.8661417322834646,
          "duration": 0.14705874999999935
        },
        {
          "name": "G#4",
          "midi": 68,
          "time": 74.47055099999976,
          "velocity": 0.8661417322834646,
          "duration": 0.14705874999999935
        },
        {
          "name": "C#5",
          "midi": 73,
          "time": 74.64702149999975,
          "velocity": 0.8661417322834646,
          "duration": 0.3235292499999929
        },
        {
          "name": "B4",
          "midi": 71,
          "time": 74.99996249999974,
          "velocity": 0.8661417322834646,
          "duration": 0.14705874999999935
        },
        {
          "name": "G#4",
          "midi": 68,
          "time": 75.17643299999973,
          "velocity": 0.8661417322834646,
          "duration": 0.14705874999999935
        },
        {
          "name": "B4",
          "midi": 71,
          "time": 75.35290349999973,
          "velocity": 0.8661417322834646,
          "duration": 0.14705874999999935
        },
        {
          "name": "E4",
          "midi": 64,
          "time": 75.52937399999972,
          "velocity": 0.8661417322834646,
          "duration": 0.14705874999999935
        },
        {
          "name": "B4",
          "midi": 71,
          "time": 75.70584449999971,
          "velocity": 0.8661417322834646,
          "duration": 0.14705874999999935
        },
        {
          "name": "D#5",
          "midi": 75,
          "time": 75.8823149999997,
          "velocity": 0.8661417322834646,
          "duration": 0.14705874999999935
        },
        {
          "name": "B4",
          "midi": 71,
          "time": 76.0587854999997,
          "velocity": 0.8661417322834646,
          "duration": 0.14705874999999935
        },
        {
          "name": "B4",
          "midi": 71,
          "time": 76.2352559999997,
          "velocity": 0.8661417322834646,
          "duration": 0.14705874999999935
        },
        {
          "name": "F#5",
          "midi": 78,
          "time": 76.41172649999969,
          "velocity": 0.8661417322834646,
          "duration": 0.14705874999999935
        },
        {
          "name": "A#4",
          "midi": 70,
          "time": 76.58819699999968,
          "velocity": 0.8661417322834646,
          "duration": 0.14705874999999935
        },
        {
          "name": "F#5",
          "midi": 78,
          "time": 76.76466749999967,
          "velocity": 0.8661417322834646,
          "duration": 0.14705874999999935
        },
        {
          "name": "B4",
          "midi": 71,
          "time": 76.94113799999967,
          "velocity": 0.8661417322834646,
          "duration": 0.14705874999999935
        },
        {
          "name": "F#5",
          "midi": 78,
          "time": 77.11760849999966,
          "velocity": 0.8661417322834646,
          "duration": 0.14705874999999935
        },
        {
          "name": "F#4",
          "midi": 66,
          "time": 77.29407899999966,
          "velocity": 0.8661417322834646,
          "duration": 0.14705874999999935
        },
        {
          "name": "D#5",
          "midi": 75,
          "time": 77.47054949999965,
          "velocity": 0.8661417322834646,
          "duration": 0.14705874999999935
        },
        {
          "name": "F#4",
          "midi": 66,
          "time": 77.64701999999964,
          "velocity": 0.8661417322834646,
          "duration": 0.14705874999999935
        },
        {
          "name": "C#5",
          "midi": 73,
          "time": 77.82349049999964,
          "velocity": 0.8661417322834646,
          "duration": 0.14705874999999935
        },
        {
          "name": "F#5",
          "midi": 78,
          "time": 77.99996099999963,
          "velocity": 0.8661417322834646,
          "duration": 0.14705874999999935
        },
        {
          "name": "C#5",
          "midi": 73,
          "time": 78.17643149999962,
          "velocity": 0.8661417322834646,
          "duration": 0.14705874999999935
        },
        {
          "name": "F#4",
          "midi": 66,
          "time": 78.35290199999962,
          "velocity": 0.8661417322834646,
          "duration": 0.14705874999999935
        },
        {
          "name": "C#5",
          "midi": 73,
          "time": 78.52937249999961,
          "velocity": 0.8661417322834646,
          "duration": 0.14705874999999935
        },
        {
          "name": "E5",
          "midi": 76,
          "time": 78.7058429999996,
          "velocity": 0.8661417322834646,
          "duration": 0.14705874999999935
        },
        {
          "name": "C#5",
          "midi": 73,
          "time": 78.8823134999996,
          "velocity": 0.8661417322834646,
          "duration": 0.14705874999999935
        },
        {
          "name": "G#4",
          "midi": 68,
          "time": 79.05878399999959,
          "velocity": 0.8661417322834646,
          "duration": 0.14705874999999935
        },
        {
          "name": "D#5",
          "midi": 75,
          "time": 79.23525449999958,
          "velocity": 0.8661417322834646,
          "duration": 0.14705874999999935
        },
        {
          "name": "A#4",
          "midi": 70,
          "time": 79.41172499999958,
          "velocity": 0.8661417322834646,
          "duration": 0.14705874999999935
        },
        {
          "name": "D#5",
          "midi": 75,
          "time": 79.58819549999957,
          "velocity": 0.8661417322834646,
          "duration": 0.14705874999999935
        },
        {
          "name": "B4",
          "midi": 71,
          "time": 79.76466599999956,
          "velocity": 0.8661417322834646,
          "duration": 0.14705874999999935
        },
        {
          "name": "D#5",
          "midi": 75,
          "time": 79.94113649999956,
          "velocity": 0.8661417322834646,
          "duration": 0.14705874999999935
        },
        {
          "name": "G#4",
          "midi": 68,
          "time": 80.11760699999955,
          "velocity": 0.8661417322834646,
          "duration": 0.14705874999999935
        },
        {
          "name": "D#5",
          "midi": 75,
          "time": 80.29407749999955,
          "velocity": 0.8661417322834646,
          "duration": 0.14705874999999935
        },
        {
          "name": "E4",
          "midi": 64,
          "time": 80.47054799999954,
          "velocity": 0.8661417322834646,
          "duration": 0.14705874999999935
        },
        {
          "name": "B4",
          "midi": 71,
          "time": 80.64701849999953,
          "velocity": 0.8661417322834646,
          "duration": 0.14705874999999935
        },
        {
          "name": "E5",
          "midi": 76,
          "time": 80.82348899999953,
          "velocity": 0.8661417322834646,
          "duration": 0.14705874999999935
        },
        {
          "name": "B4",
          "midi": 71,
          "time": 80.99995949999952,
          "velocity": 0.8661417322834646,
          "duration": 0.14705874999999935
        },
        {
          "name": "C#5",
          "midi": 73,
          "time": 81.17642999999951,
          "velocity": 0.8661417322834646,
          "duration": 0.14705874999999935
        },
        {
          "name": "B4",
          "midi": 71,
          "time": 81.3529004999995,
          "velocity": 0.8661417322834646,
          "duration": 0.14705874999999935
        },
        {
          "name": "C#5",
          "midi": 73,
          "time": 81.5293709999995,
          "velocity": 0.8661417322834646,
          "duration": 0.14705874999999935
        },
        {
          "name": "D#5",
          "midi": 75,
          "time": 81.7058414999995,
          "velocity": 0.8661417322834646,
          "duration": 0.14705874999999935
        },
        {
          "name": "G#4",
          "midi": 68,
          "time": 81.88231199999949,
          "velocity": 0.8661417322834646,
          "duration": 0.44117624999999805
        },
        {
          "name": "G#5",
          "midi": 80,
          "time": 81.88231199999949,
          "velocity": 0.8661417322834646,
          "duration": 0.44117624999999805
        },
        {
          "name": "F#4",
          "midi": 66,
          "time": 82.41172349999948,
          "velocity": 0.8661417322834646,
          "duration": 0.14705874999999935
        },
        {
          "name": "F#5",
          "midi": 78,
          "time": 82.41172349999948,
          "velocity": 0.8661417322834646,
          "duration": 0.14705874999999935
        },
        {
          "name": "G#4",
          "midi": 68,
          "time": 82.58819399999948,
          "velocity": 0.8661417322834646,
          "duration": 0.44117624999999805
        },
        {
          "name": "G#5",
          "midi": 80,
          "time": 82.58819399999948,
          "velocity": 0.8661417322834646,
          "duration": 0.44117624999999805
        },
        {
          "name": "F#4",
          "midi": 66,
          "time": 83.11760549999947,
          "velocity": 0.8661417322834646,
          "duration": 0.14705874999999935
        },
        {
          "name": "F#5",
          "midi": 78,
          "time": 83.11760549999947,
          "velocity": 0.8661417322834646,
          "duration": 0.14705874999999935
        },
        {
          "name": "G#4",
          "midi": 68,
          "time": 83.29407599999946,
          "velocity": 0.8661417322834646,
          "duration": 0.14705874999999935
        },
        {
          "name": "G#5",
          "midi": 80,
          "time": 83.29407599999946,
          "velocity": 0.8661417322834646,
          "duration": 0.14705874999999935
        },
        {
          "name": "F#5",
          "midi": 78,
          "time": 83.47054649999946,
          "velocity": 0.8661417322834646,
          "duration": 0.14705874999999935
        },
        {
          "name": "G#5",
          "midi": 80,
          "time": 83.64701699999945,
          "velocity": 0.8661417322834646,
          "duration": 0.14705874999999935
        },
        {
          "name": "F#5",
          "midi": 78,
          "time": 83.82348749999944,
          "velocity": 0.8661417322834646,
          "duration": 0.14705874999999935
        },
        {
          "name": "G#5",
          "midi": 80,
          "time": 83.99995799999944,
          "velocity": 0.8661417322834646,
          "duration": 0.14705874999999935
        },
        {
          "name": "F#5",
          "midi": 78,
          "time": 84.17642849999943,
          "velocity": 0.8661417322834646,
          "duration": 0.14705874999999935
        },
        {
          "name": "G#5",
          "midi": 80,
          "time": 84.35289899999943,
          "velocity": 0.8661417322834646,
          "duration": 0.14705874999999935
        },
        {
          "name": "F#5",
          "midi": 78,
          "time": 84.52936949999942,
          "velocity": 0.8661417322834646,
          "duration": 0.14705874999999935
        },
        {
          "name": "G#4",
          "midi": 68,
          "time": 84.70583999999941,
          "velocity": 0.7244094488188977,
          "duration": 0.14705874999999935
        },
        {
          "name": "G#4",
          "midi": 68,
          "time": 85.2352514999994,
          "velocity": 0.7244094488188977,
          "duration": 0.14705874999999935
        },
        {
          "name": "G#4",
          "midi": 68,
          "time": 86.1176039999994,
          "velocity": 0.7244094488188977,
          "duration": 0.14705874999999935
        },
        {
          "name": "G#4",
          "midi": 68,
          "time": 86.6470154999994,
          "velocity": 0.7244094488188977,
          "duration": 0.14705874999999935
        },
        {
          "name": "G#4",
          "midi": 68,
          "time": 87.5293679999994,
          "velocity": 0.7244094488188977,
          "duration": 0.14705874999999935
        },
        {
          "name": "G#4",
          "midi": 68,
          "time": 88.05877949999939,
          "velocity": 0.7244094488188977,
          "duration": 0.14705874999999935
        },
        {
          "name": "G#4",
          "midi": 68,
          "time": 88.94113199999939,
          "velocity": 0.7244094488188977,
          "duration": 0.14705874999999935
        },
        {
          "name": "G#4",
          "midi": 68,
          "time": 89.47054349999938,
          "velocity": 0.7244094488188977,
          "duration": 0.14705874999999935
        },
        {
          "name": "B4",
          "midi": 71,
          "time": 89.64701399999937,
          "velocity": 0.7244094488188977,
          "duration": 0.14705874999999935
        },
        {
          "name": "G#4",
          "midi": 68,
          "time": 89.82348449999937,
          "velocity": 0.7244094488188977,
          "duration": 0.14705874999999935
        },
        {
          "name": "B4",
          "midi": 71,
          "time": 89.99995499999936,
          "velocity": 0.7244094488188977,
          "duration": 0.14705874999999935
        },
        {
          "name": "G#4",
          "midi": 68,
          "time": 90.17642549999935,
          "velocity": 0.7244094488188977,
          "duration": 0.14705874999999935
        },
        {
          "name": "G#4",
          "midi": 68,
          "time": 90.35289599999935,
          "velocity": 0.5905511811023622,
          "duration": 0.14705874999999935
        },
        {
          "name": "G#4",
          "midi": 68,
          "time": 90.88230749999934,
          "velocity": 0.5905511811023622,
          "duration": 0.14705874999999935
        },
        {
          "name": "G#4",
          "midi": 68,
          "time": 91.76465999999934,
          "velocity": 0.47244094488188976,
          "duration": 0.14705874999999935
        },
        {
          "name": "G#4",
          "midi": 68,
          "time": 92.29407149999933,
          "velocity": 0.47244094488188976,
          "duration": 0.14705874999999935
        },
        {
          "name": "G#4",
          "midi": 68,
          "time": 93.17642399999933,
          "velocity": 0.3543307086614173,
          "duration": 0.14705874999999935
        },
        {
          "name": "G#4",
          "midi": 68,
          "time": 93.70583549999932,
          "velocity": 0.3543307086614173,
          "duration": 0.14705874999999935
        },
        {
          "name": "G#4",
          "midi": 68,
          "time": 94.58818799999932,
          "velocity": 0.23622047244094488,
          "duration": 0.14705874999999935
        },
        {
          "name": "G#4",
          "midi": 68,
          "time": 95.11759949999932,
          "velocity": 0.23622047244094488,
          "duration": 0.14705874999999935
        },
        {
          "name": "B4",
          "midi": 71,
          "time": 95.29406999999931,
          "velocity": 0.23622047244094488,
          "duration": 0.14705874999999935
        },
        {
          "name": "G#4",
          "midi": 68,
          "time": 95.4705404999993,
          "velocity": 0.23622047244094488,
          "duration": 0.14705874999999935
        },
        {
          "name": "B4",
          "midi": 71,
          "time": 95.6470109999993,
          "velocity": 0.23622047244094488,
          "duration": 0.14705874999999935
        },
        {
          "name": "G#4",
          "midi": 68,
          "time": 95.82348149999929,
          "velocity": 0.23622047244094488,
          "duration": 0.14705874999999935
        }
      ],
      "controlChanges": {
        "7": [
          {
            "number": 7,
            "time": 0,
            "value": 1
          }
        ],
        "10": [
          {
            "number": 10,
            "time": 0,
            "value": 0.5039370078740157
          }
        ]
      }
    },
    {
      "startTime": 0,
      "duration": 95.97054024999936,
      "length": 440,
      "id": 2,
      "name": "Left Hand",
      "instrumentNumber": 0,
      "instrument": "acoustic grand piano",
      "instrumentFamily": "piano",
      "channelNumber": 1,
      "isPercussion": false,
      "notes": [
        {
          "name": "G#3",
          "midi": 56,
          "time": 0,
          "velocity": 0.8661417322834646,
          "duration": 0.29411750000000003
        },
        {
          "name": "G#3",
          "midi": 56,
          "time": 0.35294100000000006,
          "velocity": 0.8661417322834646,
          "duration": 0.29411750000000003
        },
        {
          "name": "B3",
          "midi": 59,
          "time": 0.7058820000000001,
          "velocity": 0.8661417322834646,
          "duration": 0.29411750000000003
        },
        {
          "name": "B3",
          "midi": 59,
          "time": 1.058823,
          "velocity": 0.8661417322834646,
          "duration": 0.14705875000000002
        },
        {
          "name": "G#3",
          "midi": 56,
          "time": 1.2352935,
          "velocity": 0.8661417322834646,
          "duration": 0.14705875000000002
        },
        {
          "name": "G#3",
          "midi": 56,
          "time": 1.5882345,
          "velocity": 0.8661417322834646,
          "duration": 0.14705875000000002
        },
        {
          "name": "D#3",
          "midi": 51,
          "time": 1.764705,
          "velocity": 0.8661417322834646,
          "duration": 0.14705875000000002
        },
        {
          "name": "F#3",
          "midi": 54,
          "time": 2.117646,
          "velocity": 0.8661417322834646,
          "duration": 0.11764699999999984
        },
        {
          "name": "F#3",
          "midi": 54,
          "time": 2.470587,
          "velocity": 0.8661417322834646,
          "duration": 0.11764699999999984
        },
        {
          "name": "G#3",
          "midi": 56,
          "time": 2.823528,
          "velocity": 0.8661417322834646,
          "duration": 0.29411750000000003
        },
        {
          "name": "G#3",
          "midi": 56,
          "time": 3.176469,
          "velocity": 0.8661417322834646,
          "duration": 0.29411750000000003
        },
        {
          "name": "B3",
          "midi": 59,
          "time": 3.52941,
          "velocity": 0.8661417322834646,
          "duration": 0.29411750000000003
        },
        {
          "name": "B3",
          "midi": 59,
          "time": 3.882351,
          "velocity": 0.8661417322834646,
          "duration": 0.14705875000000024
        },
        {
          "name": "G#3",
          "midi": 56,
          "time": 4.0588215000000005,
          "velocity": 0.8661417322834646,
          "duration": 0.14705875000000024
        },
        {
          "name": "G#3",
          "midi": 56,
          "time": 4.411762500000001,
          "velocity": 0.8661417322834646,
          "duration": 0.14705875000000024
        },
        {
          "name": "F#3",
          "midi": 54,
          "time": 4.941174000000001,
          "velocity": 0.8661417322834646,
          "duration": 0.11764699999999984
        },
        {
          "name": "G3",
          "midi": 55,
          "time": 5.294115000000001,
          "velocity": 0.8661417322834646,
          "duration": 0.11764699999999984
        },
        {
          "name": "G#3",
          "midi": 56,
          "time": 5.647056,
          "velocity": 0.8661417322834646,
          "duration": 0.2941174999999996
        },
        {
          "name": "G#3",
          "midi": 56,
          "time": 5.999997,
          "velocity": 0.8661417322834646,
          "duration": 0.2941174999999996
        },
        {
          "name": "B3",
          "midi": 59,
          "time": 6.352937999999999,
          "velocity": 0.8661417322834646,
          "duration": 0.2941174999999996
        },
        {
          "name": "B3",
          "midi": 59,
          "time": 6.705878999999999,
          "velocity": 0.8661417322834646,
          "duration": 0.14705875000000024
        },
        {
          "name": "G#3",
          "midi": 56,
          "time": 6.882349499999999,
          "velocity": 0.8661417322834646,
          "duration": 0.14705875000000024
        },
        {
          "name": "G#3",
          "midi": 56,
          "time": 7.2352905,
          "velocity": 0.8661417322834646,
          "duration": 0.14705875000000024
        },
        {
          "name": "D#3",
          "midi": 51,
          "time": 7.411761,
          "velocity": 0.8661417322834646,
          "duration": 0.14705875000000024
        },
        {
          "name": "G#3",
          "midi": 56,
          "time": 7.764702000000001,
          "velocity": 0.8661417322834646,
          "duration": 0.11764699999999984
        },
        {
          "name": "B3",
          "midi": 59,
          "time": 7.764702000000001,
          "velocity": 0.8661417322834646,
          "duration": 0.11764699999999984
        },
        {
          "name": "G#3",
          "midi": 56,
          "time": 8.117643000000001,
          "velocity": 0.8661417322834646,
          "duration": 0.11764699999999984
        },
        {
          "name": "B3",
          "midi": 59,
          "time": 8.117643000000001,
          "velocity": 0.8661417322834646,
          "duration": 0.11764699999999984
        },
        {
          "name": "G#3",
          "midi": 56,
          "time": 8.470584,
          "velocity": 0.8661417322834646,
          "duration": 0.2941175000000005
        },
        {
          "name": "G#3",
          "midi": 56,
          "time": 8.823525000000002,
          "velocity": 0.8661417322834646,
          "duration": 0.2941175000000005
        },
        {
          "name": "B3",
          "midi": 59,
          "time": 9.176466000000003,
          "velocity": 0.8661417322834646,
          "duration": 0.2941175000000005
        },
        {
          "name": "B3",
          "midi": 59,
          "time": 9.529407000000004,
          "velocity": 0.8661417322834646,
          "duration": 0.14705874999999935
        },
        {
          "name": "G#3",
          "midi": 56,
          "time": 9.705877500000003,
          "velocity": 0.8661417322834646,
          "duration": 0.14705874999999935
        },
        {
          "name": "G#3",
          "midi": 56,
          "time": 10.058818500000003,
          "velocity": 0.8661417322834646,
          "duration": 0.14705874999999935
        },
        {
          "name": "F#3",
          "midi": 54,
          "time": 10.588230000000003,
          "velocity": 0.8661417322834646,
          "duration": 0.11764699999999984
        },
        {
          "name": "G3",
          "midi": 55,
          "time": 10.941171000000002,
          "velocity": 0.8661417322834646,
          "duration": 0.11764699999999984
        },
        {
          "name": "G#3",
          "midi": 56,
          "time": 11.294112000000002,
          "velocity": 0.8661417322834646,
          "duration": 0.2941175000000005
        },
        {
          "name": "G#3",
          "midi": 56,
          "time": 11.647053000000003,
          "velocity": 0.8661417322834646,
          "duration": 0.2941175000000005
        },
        {
          "name": "B3",
          "midi": 59,
          "time": 11.999994000000004,
          "velocity": 0.8661417322834646,
          "duration": 0.2941175000000005
        },
        {
          "name": "B3",
          "midi": 59,
          "time": 12.352935000000006,
          "velocity": 0.8661417322834646,
          "duration": 0.14705874999999935
        },
        {
          "name": "G#3",
          "midi": 56,
          "time": 12.529405500000005,
          "velocity": 0.8661417322834646,
          "duration": 0.14705874999999935
        },
        {
          "name": "G#3",
          "midi": 56,
          "time": 12.882346500000004,
          "velocity": 0.8661417322834646,
          "duration": 0.14705874999999935
        },
        {
          "name": "D#3",
          "midi": 51,
          "time": 13.058817000000003,
          "velocity": 0.8661417322834646,
          "duration": 0.14705874999999935
        },
        {
          "name": "F#3",
          "midi": 54,
          "time": 13.411758000000003,
          "velocity": 0.8661417322834646,
          "duration": 0.11764699999999984
        },
        {
          "name": "F#3",
          "midi": 54,
          "time": 13.764699000000002,
          "velocity": 0.8661417322834646,
          "duration": 0.11764699999999984
        },
        {
          "name": "G#3",
          "midi": 56,
          "time": 14.117640000000002,
          "velocity": 0.8661417322834646,
          "duration": 0.2941175000000005
        },
        {
          "name": "G#3",
          "midi": 56,
          "time": 14.470581000000003,
          "velocity": 0.8661417322834646,
          "duration": 0.2941175000000005
        },
        {
          "name": "B3",
          "midi": 59,
          "time": 14.823522000000004,
          "velocity": 0.8661417322834646,
          "duration": 0.2941175000000005
        },
        {
          "name": "B3",
          "midi": 59,
          "time": 15.176463000000005,
          "velocity": 0.8661417322834646,
          "duration": 0.14705874999999935
        },
        {
          "name": "G#3",
          "midi": 56,
          "time": 15.352933500000004,
          "velocity": 0.8661417322834646,
          "duration": 0.14705874999999935
        },
        {
          "name": "G#3",
          "midi": 56,
          "time": 15.882345000000004,
          "velocity": 0.8661417322834646,
          "duration": 0.11764699999999984
        },
        {
          "name": "F#3",
          "midi": 54,
          "time": 16.235286000000006,
          "velocity": 0.8661417322834646,
          "duration": 0.11764700000000161
        },
        {
          "name": "G3",
          "midi": 55,
          "time": 16.588227000000007,
          "velocity": 0.8661417322834646,
          "duration": 0.11764700000000161
        },
        {
          "name": "G#3",
          "midi": 56,
          "time": 16.941168000000008,
          "velocity": 0.8661417322834646,
          "duration": 0.2941174999999987
        },
        {
          "name": "G#3",
          "midi": 56,
          "time": 17.294109000000006,
          "velocity": 0.8661417322834646,
          "duration": 0.2941174999999987
        },
        {
          "name": "B3",
          "midi": 59,
          "time": 17.647050000000004,
          "velocity": 0.8661417322834646,
          "duration": 0.2941174999999987
        },
        {
          "name": "B3",
          "midi": 59,
          "time": 17.999991,
          "velocity": 0.8661417322834646,
          "duration": 0.14705874999999935
        },
        {
          "name": "G#3",
          "midi": 56,
          "time": 18.176461500000002,
          "velocity": 0.8661417322834646,
          "duration": 0.14705874999999935
        },
        {
          "name": "G#3",
          "midi": 56,
          "time": 18.5294025,
          "velocity": 0.8661417322834646,
          "duration": 0.14705874999999935
        },
        {
          "name": "D#3",
          "midi": 51,
          "time": 18.705873,
          "velocity": 0.8661417322834646,
          "duration": 0.14705874999999935
        },
        {
          "name": "G#3",
          "midi": 56,
          "time": 19.058813999999998,
          "velocity": 0.8661417322834646,
          "duration": 0.11764700000000161
        },
        {
          "name": "B3",
          "midi": 59,
          "time": 19.058813999999998,
          "velocity": 0.8661417322834646,
          "duration": 0.11764700000000161
        },
        {
          "name": "G#3",
          "midi": 56,
          "time": 19.411755,
          "velocity": 0.8661417322834646,
          "duration": 0.11764700000000161
        },
        {
          "name": "B3",
          "midi": 59,
          "time": 19.411755,
          "velocity": 0.8661417322834646,
          "duration": 0.11764700000000161
        },
        {
          "name": "G#3",
          "midi": 56,
          "time": 19.764696,
          "velocity": 0.8661417322834646,
          "duration": 0.2941174999999987
        },
        {
          "name": "G#3",
          "midi": 56,
          "time": 20.117637,
          "velocity": 0.8661417322834646,
          "duration": 0.2941174999999987
        },
        {
          "name": "B3",
          "midi": 59,
          "time": 20.470577999999996,
          "velocity": 0.8661417322834646,
          "duration": 0.2941174999999987
        },
        {
          "name": "B3",
          "midi": 59,
          "time": 20.823518999999994,
          "velocity": 0.8661417322834646,
          "duration": 0.14705874999999935
        },
        {
          "name": "G#3",
          "midi": 56,
          "time": 20.999989499999995,
          "velocity": 0.8661417322834646,
          "duration": 0.14705874999999935
        },
        {
          "name": "G#3",
          "midi": 56,
          "time": 21.529400999999993,
          "velocity": 0.8661417322834646,
          "duration": 0.11764700000000161
        },
        {
          "name": "F#3",
          "midi": 54,
          "time": 21.882341999999994,
          "velocity": 0.8661417322834646,
          "duration": 0.11764700000000161
        },
        {
          "name": "G3",
          "midi": 55,
          "time": 22.235282999999995,
          "velocity": 0.8661417322834646,
          "duration": 0.11764700000000161
        },
        {
          "name": "G#2",
          "midi": 44,
          "time": 22.588223999999997,
          "velocity": 0.8661417322834646,
          "duration": 0.588235000000001
        },
        {
          "name": "G#3",
          "midi": 56,
          "time": 22.588223999999997,
          "velocity": 0.8661417322834646,
          "duration": 0.588235000000001
        },
        {
          "name": "G#2",
          "midi": 44,
          "time": 23.294106,
          "velocity": 0.8661417322834646,
          "duration": 0.588235000000001
        },
        {
          "name": "G#3",
          "midi": 56,
          "time": 23.294106,
          "velocity": 0.8661417322834646,
          "duration": 0.588235000000001
        },
        {
          "name": "B2",
          "midi": 47,
          "time": 23.999988000000002,
          "velocity": 0.8661417322834646,
          "duration": 0.588235000000001
        },
        {
          "name": "B3",
          "midi": 59,
          "time": 23.999988000000002,
          "velocity": 0.8661417322834646,
          "duration": 0.588235000000001
        },
        {
          "name": "B2",
          "midi": 47,
          "time": 24.705870000000004,
          "velocity": 0.8661417322834646,
          "duration": 0.588235000000001
        },
        {
          "name": "B3",
          "midi": 59,
          "time": 24.705870000000004,
          "velocity": 0.8661417322834646,
          "duration": 0.588235000000001
        },
        {
          "name": "C#3",
          "midi": 49,
          "time": 25.411752000000007,
          "velocity": 0.8661417322834646,
          "duration": 0.588235000000001
        },
        {
          "name": "C#4",
          "midi": 61,
          "time": 25.411752000000007,
          "velocity": 0.8661417322834646,
          "duration": 0.588235000000001
        },
        {
          "name": "C#3",
          "midi": 49,
          "time": 26.11763400000001,
          "velocity": 0.8661417322834646,
          "duration": 0.588235000000001
        },
        {
          "name": "C#4",
          "midi": 61,
          "time": 26.11763400000001,
          "velocity": 0.8661417322834646,
          "duration": 0.588235000000001
        },
        {
          "name": "D#3",
          "midi": 51,
          "time": 26.823516000000012,
          "velocity": 0.8661417322834646,
          "duration": 0.588235000000001
        },
        {
          "name": "D#4",
          "midi": 63,
          "time": 26.823516000000012,
          "velocity": 0.8661417322834646,
          "duration": 0.588235000000001
        },
        {
          "name": "D#3",
          "midi": 51,
          "time": 27.529398000000015,
          "velocity": 0.8661417322834646,
          "duration": 0.588235000000001
        },
        {
          "name": "D#4",
          "midi": 63,
          "time": 27.529398000000015,
          "velocity": 0.8661417322834646,
          "duration": 0.588235000000001
        },
        {
          "name": "G#2",
          "midi": 44,
          "time": 28.235280000000017,
          "velocity": 0.8661417322834646,
          "duration": 0.23529399999999967
        },
        {
          "name": "G#3",
          "midi": 56,
          "time": 28.235280000000017,
          "velocity": 0.8661417322834646,
          "duration": 0.23529399999999967
        },
        {
          "name": "G#2",
          "midi": 44,
          "time": 28.941162000000016,
          "velocity": 0.8661417322834646,
          "duration": 0.23529399999999967
        },
        {
          "name": "G#3",
          "midi": 56,
          "time": 28.941162000000016,
          "velocity": 0.8661417322834646,
          "duration": 0.23529399999999967
        },
        {
          "name": "E2",
          "midi": 40,
          "time": 29.647044000000015,
          "velocity": 0.8661417322834646,
          "duration": 0.23529399999999967
        },
        {
          "name": "E3",
          "midi": 52,
          "time": 29.647044000000015,
          "velocity": 0.8661417322834646,
          "duration": 0.23529399999999967
        },
        {
          "name": "E2",
          "midi": 40,
          "time": 30.352926000000014,
          "velocity": 0.8661417322834646,
          "duration": 0.23529399999999967
        },
        {
          "name": "E3",
          "midi": 52,
          "time": 30.352926000000014,
          "velocity": 0.8661417322834646,
          "duration": 0.23529399999999967
        },
        {
          "name": "B2",
          "midi": 47,
          "time": 31.058808000000013,
          "velocity": 0.8661417322834646,
          "duration": 0.23529399999999967
        },
        {
          "name": "B3",
          "midi": 59,
          "time": 31.058808000000013,
          "velocity": 0.8661417322834646,
          "duration": 0.23529399999999967
        },
        {
          "name": "B2",
          "midi": 47,
          "time": 31.764690000000012,
          "velocity": 0.8661417322834646,
          "duration": 0.23529399999999967
        },
        {
          "name": "B3",
          "midi": 59,
          "time": 31.764690000000012,
          "velocity": 0.8661417322834646,
          "duration": 0.23529399999999967
        },
        {
          "name": "F#2",
          "midi": 42,
          "time": 32.47057200000001,
          "velocity": 0.8661417322834646,
          "duration": 0.23529400000000322
        },
        {
          "name": "F#3",
          "midi": 54,
          "time": 32.47057200000001,
          "velocity": 0.8661417322834646,
          "duration": 0.23529400000000322
        },
        {
          "name": "C#2",
          "midi": 37,
          "time": 33.176454000000014,
          "velocity": 0.8661417322834646,
          "duration": 0.23529400000000322
        },
        {
          "name": "C#3",
          "midi": 49,
          "time": 33.176454000000014,
          "velocity": 0.8661417322834646,
          "duration": 0.23529400000000322
        },
        {
          "name": "G#2",
          "midi": 44,
          "time": 33.882336000000016,
          "velocity": 0.8661417322834646,
          "duration": 0.23529400000000322
        },
        {
          "name": "G#3",
          "midi": 56,
          "time": 33.882336000000016,
          "velocity": 0.8661417322834646,
          "duration": 0.23529400000000322
        },
        {
          "name": "G#2",
          "midi": 44,
          "time": 34.58821800000002,
          "velocity": 0.8661417322834646,
          "duration": 0.23529400000000322
        },
        {
          "name": "G#3",
          "midi": 56,
          "time": 34.58821800000002,
          "velocity": 0.8661417322834646,
          "duration": 0.23529400000000322
        },
        {
          "name": "E2",
          "midi": 40,
          "time": 35.29410000000002,
          "velocity": 0.8661417322834646,
          "duration": 0.23529400000000322
        },
        {
          "name": "E3",
          "midi": 52,
          "time": 35.29410000000002,
          "velocity": 0.8661417322834646,
          "duration": 0.23529400000000322
        },
        {
          "name": "E2",
          "midi": 40,
          "time": 35.999982000000024,
          "velocity": 0.8661417322834646,
          "duration": 0.23529400000000322
        },
        {
          "name": "E3",
          "midi": 52,
          "time": 35.999982000000024,
          "velocity": 0.8661417322834646,
          "duration": 0.23529400000000322
        },
        {
          "name": "B2",
          "midi": 47,
          "time": 36.70586400000003,
          "velocity": 0.8661417322834646,
          "duration": 0.23529400000000322
        },
        {
          "name": "B3",
          "midi": 59,
          "time": 36.70586400000003,
          "velocity": 0.8661417322834646,
          "duration": 0.23529400000000322
        },
        {
          "name": "B2",
          "midi": 47,
          "time": 37.41174600000003,
          "velocity": 0.8661417322834646,
          "duration": 0.23529400000000322
        },
        {
          "name": "B3",
          "midi": 59,
          "time": 37.41174600000003,
          "velocity": 0.8661417322834646,
          "duration": 0.23529400000000322
        },
        {
          "name": "F#2",
          "midi": 42,
          "time": 38.11762800000003,
          "velocity": 0.8661417322834646,
          "duration": 0.23529400000000322
        },
        {
          "name": "F#3",
          "midi": 54,
          "time": 38.11762800000003,
          "velocity": 0.8661417322834646,
          "duration": 0.23529400000000322
        },
        {
          "name": "C#2",
          "midi": 37,
          "time": 38.823510000000034,
          "velocity": 0.8661417322834646,
          "duration": 0.23529400000000322
        },
        {
          "name": "C#3",
          "midi": 49,
          "time": 38.823510000000034,
          "velocity": 0.8661417322834646,
          "duration": 0.23529400000000322
        },
        {
          "name": "G#2",
          "midi": 44,
          "time": 39.52939200000004,
          "velocity": 0.8661417322834646,
          "duration": 0.11764699999999806
        },
        {
          "name": "G#3",
          "midi": 56,
          "time": 39.52939200000004,
          "velocity": 0.8661417322834646,
          "duration": 0.11764699999999806
        },
        {
          "name": "G#2",
          "midi": 44,
          "time": 39.88233300000004,
          "velocity": 0.8661417322834646,
          "duration": 0.11764699999999806
        },
        {
          "name": "G#3",
          "midi": 56,
          "time": 39.88233300000004,
          "velocity": 0.8661417322834646,
          "duration": 0.11764699999999806
        },
        {
          "name": "G#2",
          "midi": 44,
          "time": 40.23527400000004,
          "velocity": 0.8661417322834646,
          "duration": 0.11764699999999806
        },
        {
          "name": "G#3",
          "midi": 56,
          "time": 40.23527400000004,
          "velocity": 0.8661417322834646,
          "duration": 0.11764699999999806
        },
        {
          "name": "G#2",
          "midi": 44,
          "time": 40.58821500000004,
          "velocity": 0.8661417322834646,
          "duration": 0.11764699999999806
        },
        {
          "name": "G#3",
          "midi": 56,
          "time": 40.58821500000004,
          "velocity": 0.8661417322834646,
          "duration": 0.11764699999999806
        },
        {
          "name": "E2",
          "midi": 40,
          "time": 40.94115600000004,
          "velocity": 0.8661417322834646,
          "duration": 0.11764699999999806
        },
        {
          "name": "E3",
          "midi": 52,
          "time": 40.94115600000004,
          "velocity": 0.8661417322834646,
          "duration": 0.11764699999999806
        },
        {
          "name": "E2",
          "midi": 40,
          "time": 41.29409700000004,
          "velocity": 0.8661417322834646,
          "duration": 0.11764699999999806
        },
        {
          "name": "E3",
          "midi": 52,
          "time": 41.29409700000004,
          "velocity": 0.8661417322834646,
          "duration": 0.11764699999999806
        },
        {
          "name": "E2",
          "midi": 40,
          "time": 41.647038000000045,
          "velocity": 0.8661417322834646,
          "duration": 0.11764699999999806
        },
        {
          "name": "E3",
          "midi": 52,
          "time": 41.647038000000045,
          "velocity": 0.8661417322834646,
          "duration": 0.11764699999999806
        },
        {
          "name": "E2",
          "midi": 40,
          "time": 41.999979000000046,
          "velocity": 0.8661417322834646,
          "duration": 0.11764699999999806
        },
        {
          "name": "E3",
          "midi": 52,
          "time": 41.999979000000046,
          "velocity": 0.8661417322834646,
          "duration": 0.11764699999999806
        },
        {
          "name": "B2",
          "midi": 47,
          "time": 42.35292000000005,
          "velocity": 0.8661417322834646,
          "duration": 0.11764699999999806
        },
        {
          "name": "B3",
          "midi": 59,
          "time": 42.35292000000005,
          "velocity": 0.8661417322834646,
          "duration": 0.11764699999999806
        },
        {
          "name": "B2",
          "midi": 47,
          "time": 42.70586100000005,
          "velocity": 0.8661417322834646,
          "duration": 0.11764699999999806
        },
        {
          "name": "B3",
          "midi": 59,
          "time": 42.70586100000005,
          "velocity": 0.8661417322834646,
          "duration": 0.11764699999999806
        },
        {
          "name": "B2",
          "midi": 47,
          "time": 43.05880200000005,
          "velocity": 0.8661417322834646,
          "duration": 0.11764699999999806
        },
        {
          "name": "B3",
          "midi": 59,
          "time": 43.05880200000005,
          "velocity": 0.8661417322834646,
          "duration": 0.11764699999999806
        },
        {
          "name": "B2",
          "midi": 47,
          "time": 43.41174300000005,
          "velocity": 0.8661417322834646,
          "duration": 0.11764699999999806
        },
        {
          "name": "B3",
          "midi": 59,
          "time": 43.41174300000005,
          "velocity": 0.8661417322834646,
          "duration": 0.11764699999999806
        },
        {
          "name": "F#2",
          "midi": 42,
          "time": 43.76468400000005,
          "velocity": 0.8661417322834646,
          "duration": 0.11764699999999806
        },
        {
          "name": "F#3",
          "midi": 54,
          "time": 43.76468400000005,
          "velocity": 0.8661417322834646,
          "duration": 0.11764699999999806
        },
        {
          "name": "F#2",
          "midi": 42,
          "time": 44.117625000000054,
          "velocity": 0.8661417322834646,
          "duration": 0.11764699999999806
        },
        {
          "name": "F#3",
          "midi": 54,
          "time": 44.117625000000054,
          "velocity": 0.8661417322834646,
          "duration": 0.11764699999999806
        },
        {
          "name": "C#2",
          "midi": 37,
          "time": 44.470566000000055,
          "velocity": 0.8661417322834646,
          "duration": 0.11764699999999806
        },
        {
          "name": "C#3",
          "midi": 49,
          "time": 44.470566000000055,
          "velocity": 0.8661417322834646,
          "duration": 0.11764699999999806
        },
        {
          "name": "C#2",
          "midi": 37,
          "time": 44.823507000000056,
          "velocity": 0.8661417322834646,
          "duration": 0.11764699999999806
        },
        {
          "name": "C#3",
          "midi": 49,
          "time": 44.823507000000056,
          "velocity": 0.8661417322834646,
          "duration": 0.11764699999999806
        },
        {
          "name": "G#2",
          "midi": 44,
          "time": 45.17644800000006,
          "velocity": 0.8661417322834646,
          "duration": 0.11764699999999806
        },
        {
          "name": "G#3",
          "midi": 56,
          "time": 45.17644800000006,
          "velocity": 0.8661417322834646,
          "duration": 0.11764699999999806
        },
        {
          "name": "G#2",
          "midi": 44,
          "time": 45.52938900000006,
          "velocity": 0.8661417322834646,
          "duration": 0.11764699999999806
        },
        {
          "name": "G#3",
          "midi": 56,
          "time": 45.52938900000006,
          "velocity": 0.8661417322834646,
          "duration": 0.11764699999999806
        },
        {
          "name": "G#2",
          "midi": 44,
          "time": 45.88233000000006,
          "velocity": 0.8661417322834646,
          "duration": 0.11764699999999806
        },
        {
          "name": "G#3",
          "midi": 56,
          "time": 45.88233000000006,
          "velocity": 0.8661417322834646,
          "duration": 0.11764699999999806
        },
        {
          "name": "G#2",
          "midi": 44,
          "time": 46.23527100000006,
          "velocity": 0.8661417322834646,
          "duration": 0.11764699999999806
        },
        {
          "name": "G#3",
          "midi": 56,
          "time": 46.23527100000006,
          "velocity": 0.8661417322834646,
          "duration": 0.11764699999999806
        },
        {
          "name": "E2",
          "midi": 40,
          "time": 46.58821200000006,
          "velocity": 0.8661417322834646,
          "duration": 0.11764699999999806
        },
        {
          "name": "E3",
          "midi": 52,
          "time": 46.58821200000006,
          "velocity": 0.8661417322834646,
          "duration": 0.11764699999999806
        },
        {
          "name": "E2",
          "midi": 40,
          "time": 46.941153000000064,
          "velocity": 0.8661417322834646,
          "duration": 0.11764699999999806
        },
        {
          "name": "E3",
          "midi": 52,
          "time": 46.941153000000064,
          "velocity": 0.8661417322834646,
          "duration": 0.11764699999999806
        },
        {
          "name": "E2",
          "midi": 40,
          "time": 47.294094000000065,
          "velocity": 0.8661417322834646,
          "duration": 0.11764699999999806
        },
        {
          "name": "E3",
          "midi": 52,
          "time": 47.294094000000065,
          "velocity": 0.8661417322834646,
          "duration": 0.11764699999999806
        },
        {
          "name": "E2",
          "midi": 40,
          "time": 47.647035000000066,
          "velocity": 0.8661417322834646,
          "duration": 0.11764699999999806
        },
        {
          "name": "E3",
          "midi": 52,
          "time": 47.647035000000066,
          "velocity": 0.8661417322834646,
          "duration": 0.11764699999999806
        },
        {
          "name": "B2",
          "midi": 47,
          "time": 47.99997600000007,
          "velocity": 0.8661417322834646,
          "duration": 0.11764699999999806
        },
        {
          "name": "B3",
          "midi": 59,
          "time": 47.99997600000007,
          "velocity": 0.8661417322834646,
          "duration": 0.11764699999999806
        },
        {
          "name": "B2",
          "midi": 47,
          "time": 48.35291700000007,
          "velocity": 0.8661417322834646,
          "duration": 0.11764699999999806
        },
        {
          "name": "B3",
          "midi": 59,
          "time": 48.35291700000007,
          "velocity": 0.8661417322834646,
          "duration": 0.11764699999999806
        },
        {
          "name": "B2",
          "midi": 47,
          "time": 48.70585800000007,
          "velocity": 0.8661417322834646,
          "duration": 0.11764699999999806
        },
        {
          "name": "B3",
          "midi": 59,
          "time": 48.70585800000007,
          "velocity": 0.8661417322834646,
          "duration": 0.11764699999999806
        },
        {
          "name": "B2",
          "midi": 47,
          "time": 49.05879900000007,
          "velocity": 0.8661417322834646,
          "duration": 0.11764699999999806
        },
        {
          "name": "B3",
          "midi": 59,
          "time": 49.05879900000007,
          "velocity": 0.8661417322834646,
          "duration": 0.11764699999999806
        },
        {
          "name": "F#2",
          "midi": 42,
          "time": 49.41174000000007,
          "velocity": 0.8661417322834646,
          "duration": 0.11764699999999806
        },
        {
          "name": "F#3",
          "midi": 54,
          "time": 49.41174000000007,
          "velocity": 0.8661417322834646,
          "duration": 0.11764699999999806
        },
        {
          "name": "F#2",
          "midi": 42,
          "time": 49.764681000000074,
          "velocity": 0.8661417322834646,
          "duration": 0.11764699999999806
        },
        {
          "name": "F#3",
          "midi": 54,
          "time": 49.764681000000074,
          "velocity": 0.8661417322834646,
          "duration": 0.11764699999999806
        },
        {
          "name": "C#2",
          "midi": 37,
          "time": 50.117622000000075,
          "velocity": 0.8661417322834646,
          "duration": 0.11764699999999806
        },
        {
          "name": "C#3",
          "midi": 49,
          "time": 50.117622000000075,
          "velocity": 0.8661417322834646,
          "duration": 0.11764699999999806
        },
        {
          "name": "C#2",
          "midi": 37,
          "time": 50.47056300000008,
          "velocity": 0.8661417322834646,
          "duration": 0.11764699999999806
        },
        {
          "name": "C#3",
          "midi": 49,
          "time": 50.47056300000008,
          "velocity": 0.8661417322834646,
          "duration": 0.11764699999999806
        },
        {
          "name": "G#2",
          "midi": 44,
          "time": 50.82350400000008,
          "velocity": 0.8661417322834646,
          "duration": 0.11764699999999806
        },
        {
          "name": "G#3",
          "midi": 56,
          "time": 50.82350400000008,
          "velocity": 0.8661417322834646,
          "duration": 0.11764699999999806
        },
        {
          "name": "G#2",
          "midi": 44,
          "time": 51.17644500000008,
          "velocity": 0.8661417322834646,
          "duration": 0.11764699999999806
        },
        {
          "name": "G#3",
          "midi": 56,
          "time": 51.17644500000008,
          "velocity": 0.8661417322834646,
          "duration": 0.11764699999999806
        },
        {
          "name": "G#2",
          "midi": 44,
          "time": 51.52938600000008,
          "velocity": 0.8661417322834646,
          "duration": 0.14705874999999935
        },
        {
          "name": "G#3",
          "midi": 56,
          "time": 51.70585650000008,
          "velocity": 0.8661417322834646,
          "duration": 0.14705874999999935
        },
        {
          "name": "G#2",
          "midi": 44,
          "time": 51.88232700000008,
          "velocity": 0.8661417322834646,
          "duration": 0.14705874999999935
        },
        {
          "name": "G#3",
          "midi": 56,
          "time": 52.05879750000008,
          "velocity": 0.8661417322834646,
          "duration": 0.14705874999999935
        },
        {
          "name": "E2",
          "midi": 40,
          "time": 52.23526800000008,
          "velocity": 0.8661417322834646,
          "duration": 0.11764699999999806
        },
        {
          "name": "E3",
          "midi": 52,
          "time": 52.23526800000008,
          "velocity": 0.8661417322834646,
          "duration": 0.11764699999999806
        },
        {
          "name": "E2",
          "midi": 40,
          "time": 52.588209000000084,
          "velocity": 0.8661417322834646,
          "duration": 0.11764699999999806
        },
        {
          "name": "E3",
          "midi": 52,
          "time": 52.588209000000084,
          "velocity": 0.8661417322834646,
          "duration": 0.11764699999999806
        },
        {
          "name": "E2",
          "midi": 40,
          "time": 52.941150000000086,
          "velocity": 0.8661417322834646,
          "duration": 0.14705874999999935
        },
        {
          "name": "E3",
          "midi": 52,
          "time": 53.117620500000086,
          "velocity": 0.8661417322834646,
          "duration": 0.14705874999999935
        },
        {
          "name": "E2",
          "midi": 40,
          "time": 53.29409100000009,
          "velocity": 0.8661417322834646,
          "duration": 0.14705874999999935
        },
        {
          "name": "E3",
          "midi": 52,
          "time": 53.47056150000009,
          "velocity": 0.8661417322834646,
          "duration": 0.14705874999999935
        },
        {
          "name": "B2",
          "midi": 47,
          "time": 53.64703200000009,
          "velocity": 0.8661417322834646,
          "duration": 0.11764699999999806
        },
        {
          "name": "B3",
          "midi": 59,
          "time": 53.64703200000009,
          "velocity": 0.8661417322834646,
          "duration": 0.11764699999999806
        },
        {
          "name": "B2",
          "midi": 47,
          "time": 53.99997300000009,
          "velocity": 0.8661417322834646,
          "duration": 0.11764699999999806
        },
        {
          "name": "B3",
          "midi": 59,
          "time": 53.99997300000009,
          "velocity": 0.8661417322834646,
          "duration": 0.11764699999999806
        },
        {
          "name": "B2",
          "midi": 47,
          "time": 54.35291400000009,
          "velocity": 0.8661417322834646,
          "duration": 0.14705874999999935
        },
        {
          "name": "B3",
          "midi": 59,
          "time": 54.52938450000009,
          "velocity": 0.8661417322834646,
          "duration": 0.14705874999999935
        },
        {
          "name": "B2",
          "midi": 47,
          "time": 54.70585500000009,
          "velocity": 0.8661417322834646,
          "duration": 0.14705874999999935
        },
        {
          "name": "B3",
          "midi": 59,
          "time": 54.88232550000009,
          "velocity": 0.8661417322834646,
          "duration": 0.14705874999999935
        },
        {
          "name": "F#2",
          "midi": 42,
          "time": 55.05879600000009,
          "velocity": 0.8661417322834646,
          "duration": 0.11764699999999806
        },
        {
          "name": "F#3",
          "midi": 54,
          "time": 55.05879600000009,
          "velocity": 0.8661417322834646,
          "duration": 0.11764699999999806
        },
        {
          "name": "F#2",
          "midi": 42,
          "time": 55.411737000000095,
          "velocity": 0.8661417322834646,
          "duration": 0.11764699999999806
        },
        {
          "name": "F#3",
          "midi": 54,
          "time": 55.411737000000095,
          "velocity": 0.8661417322834646,
          "duration": 0.11764699999999806
        },
        {
          "name": "C#2",
          "midi": 37,
          "time": 55.764678000000096,
          "velocity": 0.8661417322834646,
          "duration": 0.14705874999999935
        },
        {
          "name": "C#3",
          "midi": 49,
          "time": 55.9411485000001,
          "velocity": 0.8661417322834646,
          "duration": 0.14705874999999935
        },
        {
          "name": "C#2",
          "midi": 37,
          "time": 56.1176190000001,
          "velocity": 0.8661417322834646,
          "duration": 0.14705874999999935
        },
        {
          "name": "C#3",
          "midi": 49,
          "time": 56.2940895000001,
          "velocity": 0.8661417322834646,
          "duration": 0.14705874999999935
        },
        {
          "name": "G#2",
          "midi": 44,
          "time": 56.4705600000001,
          "velocity": 0.8661417322834646,
          "duration": 0.11764699999999806
        },
        {
          "name": "G#3",
          "midi": 56,
          "time": 56.4705600000001,
          "velocity": 0.8661417322834646,
          "duration": 0.11764699999999806
        },
        {
          "name": "G#2",
          "midi": 44,
          "time": 56.8235010000001,
          "velocity": 0.8661417322834646,
          "duration": 0.11764699999999806
        },
        {
          "name": "G#3",
          "midi": 56,
          "time": 56.8235010000001,
          "velocity": 0.8661417322834646,
          "duration": 0.11764699999999806
        },
        {
          "name": "G#2",
          "midi": 44,
          "time": 57.1764420000001,
          "velocity": 0.8661417322834646,
          "duration": 0.14705874999999935
        },
        {
          "name": "G#3",
          "midi": 56,
          "time": 57.3529125000001,
          "velocity": 0.8661417322834646,
          "duration": 0.14705874999999935
        },
        {
          "name": "G#2",
          "midi": 44,
          "time": 57.5293830000001,
          "velocity": 0.8661417322834646,
          "duration": 0.14705874999999935
        },
        {
          "name": "G#3",
          "midi": 56,
          "time": 57.7058535000001,
          "velocity": 0.8661417322834646,
          "duration": 0.14705874999999935
        },
        {
          "name": "E2",
          "midi": 40,
          "time": 57.882324000000104,
          "velocity": 0.8661417322834646,
          "duration": 0.11764699999999806
        },
        {
          "name": "E3",
          "midi": 52,
          "time": 57.882324000000104,
          "velocity": 0.8661417322834646,
          "duration": 0.11764699999999806
        },
        {
          "name": "E2",
          "midi": 40,
          "time": 58.235265000000105,
          "velocity": 0.8661417322834646,
          "duration": 0.11764699999999806
        },
        {
          "name": "E3",
          "midi": 52,
          "time": 58.235265000000105,
          "velocity": 0.8661417322834646,
          "duration": 0.11764699999999806
        },
        {
          "name": "E2",
          "midi": 40,
          "time": 58.588206000000106,
          "velocity": 0.8661417322834646,
          "duration": 0.14705874999999935
        },
        {
          "name": "E3",
          "midi": 52,
          "time": 58.76467650000011,
          "velocity": 0.8661417322834646,
          "duration": 0.14705874999999935
        },
        {
          "name": "E2",
          "midi": 40,
          "time": 58.94114700000011,
          "velocity": 0.8661417322834646,
          "duration": 0.14705874999999935
        },
        {
          "name": "E3",
          "midi": 52,
          "time": 59.11761750000011,
          "velocity": 0.8661417322834646,
          "duration": 0.14705874999999935
        },
        {
          "name": "B2",
          "midi": 47,
          "time": 59.29408800000011,
          "velocity": 0.8661417322834646,
          "duration": 0.11764699999999806
        },
        {
          "name": "B3",
          "midi": 59,
          "time": 59.29408800000011,
          "velocity": 0.8661417322834646,
          "duration": 0.11764699999999806
        },
        {
          "name": "B2",
          "midi": 47,
          "time": 59.64702900000011,
          "velocity": 0.8661417322834646,
          "duration": 0.11764699999999806
        },
        {
          "name": "B3",
          "midi": 59,
          "time": 59.64702900000011,
          "velocity": 0.8661417322834646,
          "duration": 0.11764699999999806
        },
        {
          "name": "B2",
          "midi": 47,
          "time": 59.99997000000011,
          "velocity": 0.8661417322834646,
          "duration": 0.14705874999999935
        },
        {
          "name": "B3",
          "midi": 59,
          "time": 60.17644050000011,
          "velocity": 0.8661417322834646,
          "duration": 0.14705874999999935
        },
        {
          "name": "B2",
          "midi": 47,
          "time": 60.35291100000011,
          "velocity": 0.8661417322834646,
          "duration": 0.14705874999999935
        },
        {
          "name": "B3",
          "midi": 59,
          "time": 60.52938150000011,
          "velocity": 0.8661417322834646,
          "duration": 0.14705874999999935
        },
        {
          "name": "F#2",
          "midi": 42,
          "time": 60.705852000000114,
          "velocity": 0.8661417322834646,
          "duration": 0.11764699999999806
        },
        {
          "name": "F#3",
          "midi": 54,
          "time": 60.705852000000114,
          "velocity": 0.8661417322834646,
          "duration": 0.11764699999999806
        },
        {
          "name": "F#2",
          "midi": 42,
          "time": 61.058793000000115,
          "velocity": 0.8661417322834646,
          "duration": 0.11764699999999806
        },
        {
          "name": "F#3",
          "midi": 54,
          "time": 61.058793000000115,
          "velocity": 0.8661417322834646,
          "duration": 0.11764699999999806
        },
        {
          "name": "C#2",
          "midi": 37,
          "time": 61.411734000000116,
          "velocity": 0.8661417322834646,
          "duration": 0.14705874999999935
        },
        {
          "name": "C#3",
          "midi": 49,
          "time": 61.58820450000012,
          "velocity": 0.8661417322834646,
          "duration": 0.14705874999999935
        },
        {
          "name": "C#2",
          "midi": 37,
          "time": 61.76467500000012,
          "velocity": 0.8661417322834646,
          "duration": 0.14705874999999935
        },
        {
          "name": "C#3",
          "midi": 49,
          "time": 61.94114550000012,
          "velocity": 0.8661417322834646,
          "duration": 0.14705874999999935
        },
        {
          "name": "G#2",
          "midi": 44,
          "time": 62.11761600000012,
          "velocity": 0.8661417322834646,
          "duration": 0.14705874999999935
        },
        {
          "name": "G#3",
          "midi": 56,
          "time": 62.29408650000012,
          "velocity": 0.8661417322834646,
          "duration": 0.14705874999999935
        },
        {
          "name": "G#2",
          "midi": 44,
          "time": 62.47055700000012,
          "velocity": 0.8661417322834646,
          "duration": 0.14705874999999935
        },
        {
          "name": "G#3",
          "midi": 56,
          "time": 62.64702750000012,
          "velocity": 0.8661417322834646,
          "duration": 0.14705874999999935
        },
        {
          "name": "G#2",
          "midi": 44,
          "time": 62.82349800000012,
          "velocity": 0.8661417322834646,
          "duration": 0.14705874999999935
        },
        {
          "name": "G#3",
          "midi": 56,
          "time": 62.99996850000012,
          "velocity": 0.8661417322834646,
          "duration": 0.14705874999999935
        },
        {
          "name": "G#2",
          "midi": 44,
          "time": 63.17643900000012,
          "velocity": 0.8661417322834646,
          "duration": 0.14705874999999935
        },
        {
          "name": "G#3",
          "midi": 56,
          "time": 63.35290950000012,
          "velocity": 0.8661417322834646,
          "duration": 0.14705874999999935
        },
        {
          "name": "E2",
          "midi": 40,
          "time": 63.529380000000124,
          "velocity": 0.8661417322834646,
          "duration": 0.14705874999999935
        },
        {
          "name": "E3",
          "midi": 52,
          "time": 63.705850500000125,
          "velocity": 0.8661417322834646,
          "duration": 0.14705874999999935
        },
        {
          "name": "E2",
          "midi": 40,
          "time": 63.882321000000125,
          "velocity": 0.8661417322834646,
          "duration": 0.14705875000000646
        },
        {
          "name": "E3",
          "midi": 52,
          "time": 64.05879150000013,
          "velocity": 0.8661417322834646,
          "duration": 0.14705874999999935
        },
        {
          "name": "E2",
          "midi": 40,
          "time": 64.23526200000012,
          "velocity": 0.8661417322834646,
          "duration": 0.14705874999999935
        },
        {
          "name": "E3",
          "midi": 52,
          "time": 64.41173250000011,
          "velocity": 0.8661417322834646,
          "duration": 0.14705874999999935
        },
        {
          "name": "E2",
          "midi": 40,
          "time": 64.5882030000001,
          "velocity": 0.8661417322834646,
          "duration": 0.14705874999999935
        },
        {
          "name": "E3",
          "midi": 52,
          "time": 64.7646735000001,
          "velocity": 0.8661417322834646,
          "duration": 0.14705874999999935
        },
        {
          "name": "B2",
          "midi": 47,
          "time": 64.9411440000001,
          "velocity": 0.8661417322834646,
          "duration": 0.14705874999999935
        },
        {
          "name": "B3",
          "midi": 59,
          "time": 65.11761450000009,
          "velocity": 0.8661417322834646,
          "duration": 0.14705874999999935
        },
        {
          "name": "B2",
          "midi": 47,
          "time": 65.29408500000008,
          "velocity": 0.8661417322834646,
          "duration": 0.14705874999999935
        },
        {
          "name": "B3",
          "midi": 59,
          "time": 65.47055550000007,
          "velocity": 0.8661417322834646,
          "duration": 0.14705874999999935
        },
        {
          "name": "B2",
          "midi": 47,
          "time": 65.64702600000007,
          "velocity": 0.8661417322834646,
          "duration": 0.14705874999999935
        },
        {
          "name": "B3",
          "midi": 59,
          "time": 65.82349650000006,
          "velocity": 0.8661417322834646,
          "duration": 0.14705874999999935
        },
        {
          "name": "B2",
          "midi": 47,
          "time": 65.99996700000005,
          "velocity": 0.8661417322834646,
          "duration": 0.14705874999999935
        },
        {
          "name": "B3",
          "midi": 59,
          "time": 66.17643750000005,
          "velocity": 0.8661417322834646,
          "duration": 0.14705874999999935
        },
        {
          "name": "F#2",
          "midi": 42,
          "time": 66.35290800000004,
          "velocity": 0.8661417322834646,
          "duration": 0.14705874999999935
        },
        {
          "name": "F#3",
          "midi": 54,
          "time": 66.52937850000004,
          "velocity": 0.8661417322834646,
          "duration": 0.14705874999999935
        },
        {
          "name": "F#2",
          "midi": 42,
          "time": 66.70584900000003,
          "velocity": 0.8661417322834646,
          "duration": 0.14705874999999935
        },
        {
          "name": "F#3",
          "midi": 54,
          "time": 66.88231950000002,
          "velocity": 0.8661417322834646,
          "duration": 0.14705874999999935
        },
        {
          "name": "F#2",
          "midi": 42,
          "time": 67.05879000000002,
          "velocity": 0.8661417322834646,
          "duration": 0.14705874999999935
        },
        {
          "name": "F#3",
          "midi": 54,
          "time": 67.23526050000001,
          "velocity": 0.8661417322834646,
          "duration": 0.14705874999999935
        },
        {
          "name": "F#2",
          "midi": 42,
          "time": 67.411731,
          "velocity": 0.8661417322834646,
          "duration": 0.14705874999999935
        },
        {
          "name": "F#3",
          "midi": 54,
          "time": 67.5882015,
          "velocity": 0.8661417322834646,
          "duration": 0.14705874999999935
        },
        {
          "name": "G#2",
          "midi": 44,
          "time": 67.76467199999999,
          "velocity": 0.8661417322834646,
          "duration": 0.14705874999999935
        },
        {
          "name": "G#3",
          "midi": 56,
          "time": 67.94114249999998,
          "velocity": 0.8661417322834646,
          "duration": 0.14705874999999935
        },
        {
          "name": "G#2",
          "midi": 44,
          "time": 68.11761299999998,
          "velocity": 0.8661417322834646,
          "duration": 0.14705874999999935
        },
        {
          "name": "G#3",
          "midi": 56,
          "time": 68.29408349999997,
          "velocity": 0.8661417322834646,
          "duration": 0.14705874999999935
        },
        {
          "name": "G#2",
          "midi": 44,
          "time": 68.47055399999996,
          "velocity": 0.8661417322834646,
          "duration": 0.14705874999999935
        },
        {
          "name": "G#3",
          "midi": 56,
          "time": 68.64702449999996,
          "velocity": 0.8661417322834646,
          "duration": 0.14705874999999935
        },
        {
          "name": "G#2",
          "midi": 44,
          "time": 68.82349499999995,
          "velocity": 0.8661417322834646,
          "duration": 0.14705874999999935
        },
        {
          "name": "G#3",
          "midi": 56,
          "time": 68.99996549999994,
          "velocity": 0.8661417322834646,
          "duration": 0.14705874999999935
        },
        {
          "name": "E2",
          "midi": 40,
          "time": 69.17643599999994,
          "velocity": 0.8661417322834646,
          "duration": 0.14705874999999935
        },
        {
          "name": "E3",
          "midi": 52,
          "time": 69.35290649999993,
          "velocity": 0.8661417322834646,
          "duration": 0.14705874999999935
        },
        {
          "name": "E2",
          "midi": 40,
          "time": 69.52937699999993,
          "velocity": 0.8661417322834646,
          "duration": 0.14705874999999935
        },
        {
          "name": "E3",
          "midi": 52,
          "time": 69.70584749999992,
          "velocity": 0.8661417322834646,
          "duration": 0.14705874999999935
        },
        {
          "name": "E2",
          "midi": 40,
          "time": 69.88231799999991,
          "velocity": 0.8661417322834646,
          "duration": 0.14705874999999935
        },
        {
          "name": "E3",
          "midi": 52,
          "time": 70.0587884999999,
          "velocity": 0.8661417322834646,
          "duration": 0.14705874999999935
        },
        {
          "name": "E2",
          "midi": 40,
          "time": 70.2352589999999,
          "velocity": 0.8661417322834646,
          "duration": 0.14705874999999935
        },
        {
          "name": "E3",
          "midi": 52,
          "time": 70.4117294999999,
          "velocity": 0.8661417322834646,
          "duration": 0.14705874999999935
        },
        {
          "name": "B2",
          "midi": 47,
          "time": 70.58819999999989,
          "velocity": 0.8661417322834646,
          "duration": 0.14705874999999935
        },
        {
          "name": "B3",
          "midi": 59,
          "time": 70.76467049999988,
          "velocity": 0.8661417322834646,
          "duration": 0.14705874999999935
        },
        {
          "name": "B2",
          "midi": 47,
          "time": 70.94114099999987,
          "velocity": 0.8661417322834646,
          "duration": 0.14705874999999935
        },
        {
          "name": "B3",
          "midi": 59,
          "time": 71.11761149999987,
          "velocity": 0.8661417322834646,
          "duration": 0.14705874999999935
        },
        {
          "name": "B2",
          "midi": 47,
          "time": 71.29408199999986,
          "velocity": 0.8661417322834646,
          "duration": 0.14705874999999935
        },
        {
          "name": "B3",
          "midi": 59,
          "time": 71.47055249999985,
          "velocity": 0.8661417322834646,
          "duration": 0.14705874999999935
        },
        {
          "name": "B2",
          "midi": 47,
          "time": 71.64702299999985,
          "velocity": 0.8661417322834646,
          "duration": 0.14705874999999935
        },
        {
          "name": "B3",
          "midi": 59,
          "time": 71.82349349999984,
          "velocity": 0.8661417322834646,
          "duration": 0.14705874999999935
        },
        {
          "name": "F#2",
          "midi": 42,
          "time": 71.99996399999984,
          "velocity": 0.8661417322834646,
          "duration": 0.14705874999999935
        },
        {
          "name": "F#3",
          "midi": 54,
          "time": 72.17643449999983,
          "velocity": 0.8661417322834646,
          "duration": 0.14705874999999935
        },
        {
          "name": "F#2",
          "midi": 42,
          "time": 72.35290499999982,
          "velocity": 0.8661417322834646,
          "duration": 0.14705874999999935
        },
        {
          "name": "F#3",
          "midi": 54,
          "time": 72.52937549999982,
          "velocity": 0.8661417322834646,
          "duration": 0.14705874999999935
        },
        {
          "name": "F#2",
          "midi": 42,
          "time": 72.70584599999981,
          "velocity": 0.8661417322834646,
          "duration": 0.14705874999999935
        },
        {
          "name": "F#3",
          "midi": 54,
          "time": 72.8823164999998,
          "velocity": 0.8661417322834646,
          "duration": 0.14705874999999935
        },
        {
          "name": "F#2",
          "midi": 42,
          "time": 73.0587869999998,
          "velocity": 0.8661417322834646,
          "duration": 0.14705874999999935
        },
        {
          "name": "F#3",
          "midi": 54,
          "time": 73.23525749999979,
          "velocity": 0.8661417322834646,
          "duration": 0.14705874999999935
        },
        {
          "name": "G#2",
          "midi": 44,
          "time": 73.41172799999978,
          "velocity": 0.8661417322834646,
          "duration": 0.14705874999999935
        },
        {
          "name": "G#3",
          "midi": 56,
          "time": 73.58819849999978,
          "velocity": 0.8661417322834646,
          "duration": 0.14705874999999935
        },
        {
          "name": "G#2",
          "midi": 44,
          "time": 73.76466899999977,
          "velocity": 0.8661417322834646,
          "duration": 0.14705874999999935
        },
        {
          "name": "G#3",
          "midi": 56,
          "time": 73.94113949999976,
          "velocity": 0.8661417322834646,
          "duration": 0.14705874999999935
        },
        {
          "name": "G#2",
          "midi": 44,
          "time": 74.11760999999976,
          "velocity": 0.8661417322834646,
          "duration": 0.14705874999999935
        },
        {
          "name": "G#3",
          "midi": 56,
          "time": 74.29408049999975,
          "velocity": 0.8661417322834646,
          "duration": 0.14705874999999935
        },
        {
          "name": "G#2",
          "midi": 44,
          "time": 74.47055099999974,
          "velocity": 0.8661417322834646,
          "duration": 0.14705874999999935
        },
        {
          "name": "G#3",
          "midi": 56,
          "time": 74.64702149999974,
          "velocity": 0.8661417322834646,
          "duration": 0.14705874999999935
        },
        {
          "name": "E2",
          "midi": 40,
          "time": 74.82349199999973,
          "velocity": 0.8661417322834646,
          "duration": 0.14705874999999935
        },
        {
          "name": "E3",
          "midi": 52,
          "time": 74.99996249999973,
          "velocity": 0.8661417322834646,
          "duration": 0.14705874999999935
        },
        {
          "name": "E2",
          "midi": 40,
          "time": 75.17643299999972,
          "velocity": 0.8661417322834646,
          "duration": 0.14705874999999935
        },
        {
          "name": "E3",
          "midi": 52,
          "time": 75.35290349999971,
          "velocity": 0.8661417322834646,
          "duration": 0.14705874999999935
        },
        {
          "name": "E2",
          "midi": 40,
          "time": 75.5293739999997,
          "velocity": 0.8661417322834646,
          "duration": 0.14705874999999935
        },
        {
          "name": "E3",
          "midi": 52,
          "time": 75.7058444999997,
          "velocity": 0.8661417322834646,
          "duration": 0.14705874999999935
        },
        {
          "name": "E2",
          "midi": 40,
          "time": 75.88231499999969,
          "velocity": 0.8661417322834646,
          "duration": 0.14705874999999935
        },
        {
          "name": "E3",
          "midi": 52,
          "time": 76.05878549999969,
          "velocity": 0.8661417322834646,
          "duration": 0.14705874999999935
        },
        {
          "name": "B2",
          "midi": 47,
          "time": 76.23525599999968,
          "velocity": 0.8661417322834646,
          "duration": 0.14705874999999935
        },
        {
          "name": "B3",
          "midi": 59,
          "time": 76.41172649999967,
          "velocity": 0.8661417322834646,
          "duration": 0.14705874999999935
        },
        {
          "name": "B2",
          "midi": 47,
          "time": 76.58819699999967,
          "velocity": 0.8661417322834646,
          "duration": 0.14705874999999935
        },
        {
          "name": "B3",
          "midi": 59,
          "time": 76.76466749999966,
          "velocity": 0.8661417322834646,
          "duration": 0.14705874999999935
        },
        {
          "name": "B2",
          "midi": 47,
          "time": 76.94113799999965,
          "velocity": 0.8661417322834646,
          "duration": 0.14705874999999935
        },
        {
          "name": "B3",
          "midi": 59,
          "time": 77.11760849999965,
          "velocity": 0.8661417322834646,
          "duration": 0.14705874999999935
        },
        {
          "name": "B2",
          "midi": 47,
          "time": 77.29407899999964,
          "velocity": 0.8661417322834646,
          "duration": 0.14705874999999935
        },
        {
          "name": "B3",
          "midi": 59,
          "time": 77.47054949999963,
          "velocity": 0.8661417322834646,
          "duration": 0.14705874999999935
        },
        {
          "name": "F#2",
          "midi": 42,
          "time": 77.64701999999963,
          "velocity": 0.8661417322834646,
          "duration": 0.14705874999999935
        },
        {
          "name": "F#3",
          "midi": 54,
          "time": 77.82349049999962,
          "velocity": 0.8661417322834646,
          "duration": 0.14705874999999935
        },
        {
          "name": "F#2",
          "midi": 42,
          "time": 77.99996099999962,
          "velocity": 0.8661417322834646,
          "duration": 0.14705874999999935
        },
        {
          "name": "F#3",
          "midi": 54,
          "time": 78.17643149999961,
          "velocity": 0.8661417322834646,
          "duration": 0.14705874999999935
        },
        {
          "name": "F#2",
          "midi": 42,
          "time": 78.3529019999996,
          "velocity": 0.8661417322834646,
          "duration": 0.14705874999999935
        },
        {
          "name": "F#3",
          "midi": 54,
          "time": 78.5293724999996,
          "velocity": 0.8661417322834646,
          "duration": 0.14705874999999935
        },
        {
          "name": "F#2",
          "midi": 42,
          "time": 78.70584299999959,
          "velocity": 0.8661417322834646,
          "duration": 0.14705874999999935
        },
        {
          "name": "F#3",
          "midi": 54,
          "time": 78.88231349999958,
          "velocity": 0.8661417322834646,
          "duration": 0.14705874999999935
        },
        {
          "name": "G#2",
          "midi": 44,
          "time": 79.05878399999958,
          "velocity": 0.8661417322834646,
          "duration": 0.14705874999999935
        },
        {
          "name": "G#3",
          "midi": 56,
          "time": 79.23525449999957,
          "velocity": 0.8661417322834646,
          "duration": 0.14705874999999935
        },
        {
          "name": "G#2",
          "midi": 44,
          "time": 79.41172499999956,
          "velocity": 0.8661417322834646,
          "duration": 0.14705874999999935
        },
        {
          "name": "G#3",
          "midi": 56,
          "time": 79.58819549999956,
          "velocity": 0.8661417322834646,
          "duration": 0.14705874999999935
        },
        {
          "name": "G#2",
          "midi": 44,
          "time": 79.76466599999955,
          "velocity": 0.8661417322834646,
          "duration": 0.14705874999999935
        },
        {
          "name": "G#3",
          "midi": 56,
          "time": 79.94113649999954,
          "velocity": 0.8661417322834646,
          "duration": 0.14705874999999935
        },
        {
          "name": "G#2",
          "midi": 44,
          "time": 80.11760699999954,
          "velocity": 0.8661417322834646,
          "duration": 0.14705874999999935
        },
        {
          "name": "G#3",
          "midi": 56,
          "time": 80.29407749999953,
          "velocity": 0.8661417322834646,
          "duration": 0.14705874999999935
        },
        {
          "name": "E2",
          "midi": 40,
          "time": 80.47054799999952,
          "velocity": 0.8661417322834646,
          "duration": 0.14705874999999935
        },
        {
          "name": "E3",
          "midi": 52,
          "time": 80.64701849999952,
          "velocity": 0.8661417322834646,
          "duration": 0.14705874999999935
        },
        {
          "name": "E2",
          "midi": 40,
          "time": 80.82348899999951,
          "velocity": 0.8661417322834646,
          "duration": 0.14705874999999935
        },
        {
          "name": "E3",
          "midi": 52,
          "time": 80.9999594999995,
          "velocity": 0.8661417322834646,
          "duration": 0.14705874999999935
        },
        {
          "name": "E2",
          "midi": 40,
          "time": 81.1764299999995,
          "velocity": 0.8661417322834646,
          "duration": 0.14705874999999935
        },
        {
          "name": "E3",
          "midi": 52,
          "time": 81.35290049999949,
          "velocity": 0.8661417322834646,
          "duration": 0.14705874999999935
        },
        {
          "name": "E2",
          "midi": 40,
          "time": 81.52937099999949,
          "velocity": 0.8661417322834646,
          "duration": 0.14705874999999935
        },
        {
          "name": "E3",
          "midi": 52,
          "time": 81.70584149999948,
          "velocity": 0.8661417322834646,
          "duration": 0.14705874999999935
        },
        {
          "name": "B2",
          "midi": 47,
          "time": 81.88231199999947,
          "velocity": 0.8661417322834646,
          "duration": 0.14705874999999935
        },
        {
          "name": "B3",
          "midi": 59,
          "time": 82.05878249999947,
          "velocity": 0.8661417322834646,
          "duration": 0.14705874999999935
        },
        {
          "name": "B2",
          "midi": 47,
          "time": 82.23525299999946,
          "velocity": 0.8661417322834646,
          "duration": 0.14705874999999935
        },
        {
          "name": "B3",
          "midi": 59,
          "time": 82.41172349999945,
          "velocity": 0.8661417322834646,
          "duration": 0.14705874999999935
        },
        {
          "name": "B2",
          "midi": 47,
          "time": 82.58819399999945,
          "velocity": 0.8661417322834646,
          "duration": 0.14705874999999935
        },
        {
          "name": "B3",
          "midi": 59,
          "time": 82.76466449999944,
          "velocity": 0.8661417322834646,
          "duration": 0.14705874999999935
        },
        {
          "name": "B2",
          "midi": 47,
          "time": 82.94113499999943,
          "velocity": 0.8661417322834646,
          "duration": 0.14705874999999935
        },
        {
          "name": "B3",
          "midi": 59,
          "time": 83.11760549999943,
          "velocity": 0.8661417322834646,
          "duration": 0.14705874999999935
        },
        {
          "name": "F#2",
          "midi": 42,
          "time": 83.29407599999942,
          "velocity": 0.8661417322834646,
          "duration": 0.14705874999999935
        },
        {
          "name": "F#3",
          "midi": 54,
          "time": 83.47054649999941,
          "velocity": 0.8661417322834646,
          "duration": 0.14705874999999935
        },
        {
          "name": "F#2",
          "midi": 42,
          "time": 83.64701699999941,
          "velocity": 0.8661417322834646,
          "duration": 0.14705874999999935
        },
        {
          "name": "F#3",
          "midi": 54,
          "time": 83.8234874999994,
          "velocity": 0.8661417322834646,
          "duration": 0.14705874999999935
        },
        {
          "name": "F#2",
          "midi": 42,
          "time": 83.9999579999994,
          "velocity": 0.8661417322834646,
          "duration": 0.14705874999999935
        },
        {
          "name": "F#3",
          "midi": 54,
          "time": 84.17642849999939,
          "velocity": 0.8661417322834646,
          "duration": 0.14705874999999935
        },
        {
          "name": "F#2",
          "midi": 42,
          "time": 84.35289899999938,
          "velocity": 0.8661417322834646,
          "duration": 0.14705874999999935
        },
        {
          "name": "F#3",
          "midi": 54,
          "time": 84.52936949999938,
          "velocity": 0.8661417322834646,
          "duration": 0.14705874999999935
        },
        {
          "name": "G#2",
          "midi": 44,
          "time": 84.70583999999937,
          "velocity": 0.7244094488188977,
          "duration": 0.11764700000000516
        },
        {
          "name": "G#3",
          "midi": 56,
          "time": 84.70583999999937,
          "velocity": 0.7244094488188977,
          "duration": 0.11764700000000516
        },
        {
          "name": "G#2",
          "midi": 44,
          "time": 85.05878099999937,
          "velocity": 0.7244094488188977,
          "duration": 0.11764700000000516
        },
        {
          "name": "G#3",
          "midi": 56,
          "time": 85.05878099999937,
          "velocity": 0.7244094488188977,
          "duration": 0.11764700000000516
        },
        {
          "name": "G#2",
          "midi": 44,
          "time": 85.41172199999937,
          "velocity": 0.7244094488188977,
          "duration": 0.11764700000000516
        },
        {
          "name": "G#3",
          "midi": 56,
          "time": 85.41172199999937,
          "velocity": 0.7244094488188977,
          "duration": 0.11764700000000516
        },
        {
          "name": "G#2",
          "midi": 44,
          "time": 85.76466299999937,
          "velocity": 0.7244094488188977,
          "duration": 0.11764700000000516
        },
        {
          "name": "G#3",
          "midi": 56,
          "time": 85.76466299999937,
          "velocity": 0.7244094488188977,
          "duration": 0.11764700000000516
        },
        {
          "name": "G#2",
          "midi": 44,
          "time": 86.11760399999937,
          "velocity": 0.7244094488188977,
          "duration": 0.11764700000000516
        },
        {
          "name": "G#3",
          "midi": 56,
          "time": 86.11760399999937,
          "velocity": 0.7244094488188977,
          "duration": 0.11764700000000516
        },
        {
          "name": "G#2",
          "midi": 44,
          "time": 86.47054499999938,
          "velocity": 0.7244094488188977,
          "duration": 0.11764700000000516
        },
        {
          "name": "G#3",
          "midi": 56,
          "time": 86.47054499999938,
          "velocity": 0.7244094488188977,
          "duration": 0.11764700000000516
        },
        {
          "name": "G#2",
          "midi": 44,
          "time": 86.82348599999938,
          "velocity": 0.7244094488188977,
          "duration": 0.11764700000000516
        },
        {
          "name": "G#3",
          "midi": 56,
          "time": 86.82348599999938,
          "velocity": 0.7244094488188977,
          "duration": 0.11764700000000516
        },
        {
          "name": "G#2",
          "midi": 44,
          "time": 87.17642699999938,
          "velocity": 0.7244094488188977,
          "duration": 0.11764700000000516
        },
        {
          "name": "G#3",
          "midi": 56,
          "time": 87.17642699999938,
          "velocity": 0.7244094488188977,
          "duration": 0.11764700000000516
        },
        {
          "name": "G#2",
          "midi": 44,
          "time": 87.52936799999938,
          "velocity": 0.7244094488188977,
          "duration": 0.11764700000000516
        },
        {
          "name": "G#3",
          "midi": 56,
          "time": 87.52936799999938,
          "velocity": 0.7244094488188977,
          "duration": 0.11764700000000516
        },
        {
          "name": "G#2",
          "midi": 44,
          "time": 87.88230899999938,
          "velocity": 0.7244094488188977,
          "duration": 0.11764700000000516
        },
        {
          "name": "G#3",
          "midi": 56,
          "time": 87.88230899999938,
          "velocity": 0.7244094488188977,
          "duration": 0.11764700000000516
        },
        {
          "name": "G#2",
          "midi": 44,
          "time": 88.23524999999938,
          "velocity": 0.7244094488188977,
          "duration": 0.11764700000000516
        },
        {
          "name": "G#3",
          "midi": 56,
          "time": 88.23524999999938,
          "velocity": 0.7244094488188977,
          "duration": 0.11764700000000516
        },
        {
          "name": "G#2",
          "midi": 44,
          "time": 88.58819099999938,
          "velocity": 0.7244094488188977,
          "duration": 0.11764700000000516
        },
        {
          "name": "G#3",
          "midi": 56,
          "time": 88.58819099999938,
          "velocity": 0.7244094488188977,
          "duration": 0.11764700000000516
        },
        {
          "name": "G#2",
          "midi": 44,
          "time": 88.94113199999939,
          "velocity": 0.7244094488188977,
          "duration": 0.11764700000000516
        },
        {
          "name": "G#3",
          "midi": 56,
          "time": 88.94113199999939,
          "velocity": 0.7244094488188977,
          "duration": 0.11764700000000516
        },
        {
          "name": "G#2",
          "midi": 44,
          "time": 89.29407299999939,
          "velocity": 0.7244094488188977,
          "duration": 0.11764700000000516
        },
        {
          "name": "G#3",
          "midi": 56,
          "time": 89.29407299999939,
          "velocity": 0.7244094488188977,
          "duration": 0.11764700000000516
        },
        {
          "name": "B3",
          "midi": 59,
          "time": 89.64701399999939,
          "velocity": 0.7244094488188977,
          "duration": 0.14705874999999935
        },
        {
          "name": "G#3",
          "midi": 56,
          "time": 89.82348449999938,
          "velocity": 0.7244094488188977,
          "duration": 0.14705874999999935
        },
        {
          "name": "B3",
          "midi": 59,
          "time": 89.99995499999937,
          "velocity": 0.7244094488188977,
          "duration": 0.14705874999999935
        },
        {
          "name": "G#3",
          "midi": 56,
          "time": 90.17642549999937,
          "velocity": 0.7244094488188977,
          "duration": 0.14705874999999935
        },
        {
          "name": "G#2",
          "midi": 44,
          "time": 90.35289599999936,
          "velocity": 0.5905511811023622,
          "duration": 0.11764700000000516
        },
        {
          "name": "G#3",
          "midi": 56,
          "time": 90.35289599999936,
          "velocity": 0.5905511811023622,
          "duration": 0.11764700000000516
        },
        {
          "name": "G#2",
          "midi": 44,
          "time": 90.70583699999936,
          "velocity": 0.5905511811023622,
          "duration": 0.11764700000000516
        },
        {
          "name": "G#3",
          "midi": 56,
          "time": 90.70583699999936,
          "velocity": 0.5905511811023622,
          "duration": 0.11764700000000516
        },
        {
          "name": "G#2",
          "midi": 44,
          "time": 91.05877799999936,
          "velocity": 0.5905511811023622,
          "duration": 0.11764700000000516
        },
        {
          "name": "G#3",
          "midi": 56,
          "time": 91.05877799999936,
          "velocity": 0.5905511811023622,
          "duration": 0.11764700000000516
        },
        {
          "name": "G#2",
          "midi": 44,
          "time": 91.41171899999937,
          "velocity": 0.5905511811023622,
          "duration": 0.11764700000000516
        },
        {
          "name": "G#3",
          "midi": 56,
          "time": 91.41171899999937,
          "velocity": 0.5905511811023622,
          "duration": 0.11764700000000516
        },
        {
          "name": "G#2",
          "midi": 44,
          "time": 91.76465999999937,
          "velocity": 0.47244094488188976,
          "duration": 0.11764700000000516
        },
        {
          "name": "G#3",
          "midi": 56,
          "time": 91.76465999999937,
          "velocity": 0.47244094488188976,
          "duration": 0.11764700000000516
        },
        {
          "name": "G#2",
          "midi": 44,
          "time": 92.11760099999937,
          "velocity": 0.47244094488188976,
          "duration": 0.11764700000000516
        },
        {
          "name": "G#3",
          "midi": 56,
          "time": 92.11760099999937,
          "velocity": 0.47244094488188976,
          "duration": 0.11764700000000516
        },
        {
          "name": "G#2",
          "midi": 44,
          "time": 92.47054199999937,
          "velocity": 0.47244094488188976,
          "duration": 0.11764700000000516
        },
        {
          "name": "G#3",
          "midi": 56,
          "time": 92.47054199999937,
          "velocity": 0.47244094488188976,
          "duration": 0.11764700000000516
        },
        {
          "name": "G#2",
          "midi": 44,
          "time": 92.82348299999937,
          "velocity": 0.47244094488188976,
          "duration": 0.11764700000000516
        },
        {
          "name": "G#3",
          "midi": 56,
          "time": 92.82348299999937,
          "velocity": 0.47244094488188976,
          "duration": 0.11764700000000516
        },
        {
          "name": "G#2",
          "midi": 44,
          "time": 93.17642399999937,
          "velocity": 0.3543307086614173,
          "duration": 0.11764700000000516
        },
        {
          "name": "G#3",
          "midi": 56,
          "time": 93.17642399999937,
          "velocity": 0.3543307086614173,
          "duration": 0.11764700000000516
        },
        {
          "name": "G#2",
          "midi": 44,
          "time": 93.52936499999937,
          "velocity": 0.3543307086614173,
          "duration": 0.11764700000000516
        },
        {
          "name": "G#3",
          "midi": 56,
          "time": 93.52936499999937,
          "velocity": 0.3543307086614173,
          "duration": 0.11764700000000516
        },
        {
          "name": "G#2",
          "midi": 44,
          "time": 93.88230599999937,
          "velocity": 0.3543307086614173,
          "duration": 0.11764700000000516
        },
        {
          "name": "G#3",
          "midi": 56,
          "time": 93.88230599999937,
          "velocity": 0.3543307086614173,
          "duration": 0.11764700000000516
        },
        {
          "name": "G#2",
          "midi": 44,
          "time": 94.23524699999938,
          "velocity": 0.3543307086614173,
          "duration": 0.11764700000000516
        },
        {
          "name": "G#3",
          "midi": 56,
          "time": 94.23524699999938,
          "velocity": 0.3543307086614173,
          "duration": 0.11764700000000516
        },
        {
          "name": "G#2",
          "midi": 44,
          "time": 94.58818799999938,
          "velocity": 0.23622047244094488,
          "duration": 0.11764700000000516
        },
        {
          "name": "G#3",
          "midi": 56,
          "time": 94.58818799999938,
          "velocity": 0.23622047244094488,
          "duration": 0.11764700000000516
        },
        {
          "name": "G#2",
          "midi": 44,
          "time": 94.94112899999938,
          "velocity": 0.23622047244094488,
          "duration": 0.11764700000000516
        },
        {
          "name": "G#3",
          "midi": 56,
          "time": 94.94112899999938,
          "velocity": 0.23622047244094488,
          "duration": 0.11764700000000516
        },
        {
          "name": "B3",
          "midi": 59,
          "time": 95.29406999999938,
          "velocity": 0.23622047244094488,
          "duration": 0.14705874999999935
        },
        {
          "name": "G#3",
          "midi": 56,
          "time": 95.47054049999937,
          "velocity": 0.23622047244094488,
          "duration": 0.14705874999999935
        },
        {
          "name": "B3",
          "midi": 59,
          "time": 95.64701099999937,
          "velocity": 0.23622047244094488,
          "duration": 0.14705874999999935
        },
        {
          "name": "G#3",
          "midi": 56,
          "time": 95.82348149999936,
          "velocity": 0.23622047244094488,
          "duration": 0.14705874999999935
        }
      ],
      "controlChanges": {
        "7": [
          {
            "number": 7,
            "time": 0,
            "value": 1
          }
        ],
        "10": [
          {
            "number": 10,
            "time": 0,
            "value": 0.5039370078740157
          }
        ]
      }
    },
    {
      "startTime": 0,
      "duration": 94.52936449999982,
      "length": 527,
      "id": 3,
      "name": "Staff-1",
      "channelNumber": 9,
      "isPercussion": true,
      "notes": [
        {
          "name": "C2",
          "midi": 36,
          "time": 0,
          "velocity": 0.7244094488188977,
          "duration": 0.29411750000000003
        },
        {
          "name": "G3",
          "midi": 55,
          "time": 0,
          "velocity": 0.7244094488188977,
          "duration": 1.1764700000000001
        },
        {
          "name": "A3",
          "midi": 57,
          "time": 0,
          "velocity": 0.7244094488188977,
          "duration": 1.1764700000000001
        },
        {
          "name": "D#2",
          "midi": 39,
          "time": 0.35294100000000006,
          "velocity": 0.7244094488188977,
          "duration": 0.14705875000000002
        },
        {
          "name": "C2",
          "midi": 36,
          "time": 0.5294115,
          "velocity": 0.7244094488188977,
          "duration": 0.14705875000000002
        },
        {
          "name": "C2",
          "midi": 36,
          "time": 0.8823525000000001,
          "velocity": 0.7244094488188977,
          "duration": 0.14705875000000002
        },
        {
          "name": "D#2",
          "midi": 39,
          "time": 1.058823,
          "velocity": 0.7244094488188977,
          "duration": 0.14705875000000002
        },
        {
          "name": "C2",
          "midi": 36,
          "time": 1.411764,
          "velocity": 0.7244094488188977,
          "duration": 0.29411750000000003
        },
        {
          "name": "D#2",
          "midi": 39,
          "time": 1.764705,
          "velocity": 0.7244094488188977,
          "duration": 0.14705875000000002
        },
        {
          "name": "C2",
          "midi": 36,
          "time": 1.9411755,
          "velocity": 0.7244094488188977,
          "duration": 0.14705875000000024
        },
        {
          "name": "C2",
          "midi": 36,
          "time": 2.2941165000000003,
          "velocity": 0.7244094488188977,
          "duration": 0.14705875000000024
        },
        {
          "name": "D#2",
          "midi": 39,
          "time": 2.4705870000000005,
          "velocity": 0.7244094488188977,
          "duration": 0.1470587499999998
        },
        {
          "name": "C2",
          "midi": 36,
          "time": 2.8235280000000005,
          "velocity": 0.7244094488188977,
          "duration": 0.29411750000000003
        },
        {
          "name": "D#2",
          "midi": 39,
          "time": 3.1764690000000004,
          "velocity": 0.7244094488188977,
          "duration": 0.1470587499999998
        },
        {
          "name": "C2",
          "midi": 36,
          "time": 3.3529395,
          "velocity": 0.7244094488188977,
          "duration": 0.1470587499999998
        },
        {
          "name": "C2",
          "midi": 36,
          "time": 3.7058805,
          "velocity": 0.7244094488188977,
          "duration": 0.14705875000000024
        },
        {
          "name": "D#2",
          "midi": 39,
          "time": 3.8823510000000003,
          "velocity": 0.7244094488188977,
          "duration": 0.1470587499999998
        },
        {
          "name": "C2",
          "midi": 36,
          "time": 4.235292,
          "velocity": 0.7244094488188977,
          "duration": 0.2941174999999996
        },
        {
          "name": "D#2",
          "midi": 39,
          "time": 4.588233,
          "velocity": 0.7244094488188977,
          "duration": 0.14705875000000024
        },
        {
          "name": "C2",
          "midi": 36,
          "time": 4.7647035,
          "velocity": 0.7244094488188977,
          "duration": 0.14705875000000024
        },
        {
          "name": "C2",
          "midi": 36,
          "time": 5.117644500000001,
          "velocity": 0.7244094488188977,
          "duration": 0.14705875000000024
        },
        {
          "name": "D#2",
          "midi": 39,
          "time": 5.2941150000000015,
          "velocity": 0.7244094488188977,
          "duration": 0.14705875000000024
        },
        {
          "name": "C2",
          "midi": 36,
          "time": 5.647056000000002,
          "velocity": 0.7244094488188977,
          "duration": 0.2941174999999996
        },
        {
          "name": "D#2",
          "midi": 39,
          "time": 5.999997000000001,
          "velocity": 0.7244094488188977,
          "duration": 0.14705875000000024
        },
        {
          "name": "C2",
          "midi": 36,
          "time": 6.176467500000002,
          "velocity": 0.7244094488188977,
          "duration": 0.14705875000000024
        },
        {
          "name": "C2",
          "midi": 36,
          "time": 6.529408500000002,
          "velocity": 0.7244094488188977,
          "duration": 0.14705875000000024
        },
        {
          "name": "D#2",
          "midi": 39,
          "time": 6.705879000000003,
          "velocity": 0.7244094488188977,
          "duration": 0.14705875000000024
        },
        {
          "name": "C2",
          "midi": 36,
          "time": 7.058820000000003,
          "velocity": 0.7244094488188977,
          "duration": 0.2941174999999996
        },
        {
          "name": "D#2",
          "midi": 39,
          "time": 7.411761000000003,
          "velocity": 0.7244094488188977,
          "duration": 0.14705875000000024
        },
        {
          "name": "C2",
          "midi": 36,
          "time": 7.588231500000004,
          "velocity": 0.7244094488188977,
          "duration": 0.14705875000000024
        },
        {
          "name": "C2",
          "midi": 36,
          "time": 7.941172500000004,
          "velocity": 0.7244094488188977,
          "duration": 0.14705874999999935
        },
        {
          "name": "D#2",
          "midi": 39,
          "time": 8.117643000000003,
          "velocity": 0.7244094488188977,
          "duration": 0.14705874999999935
        },
        {
          "name": "C2",
          "midi": 36,
          "time": 8.470584000000002,
          "velocity": 0.7244094488188977,
          "duration": 0.2941175000000005
        },
        {
          "name": "D#2",
          "midi": 39,
          "time": 8.823525000000004,
          "velocity": 0.7244094488188977,
          "duration": 0.14705874999999935
        },
        {
          "name": "C2",
          "midi": 36,
          "time": 8.999995500000002,
          "velocity": 0.7244094488188977,
          "duration": 0.14705874999999935
        },
        {
          "name": "C2",
          "midi": 36,
          "time": 9.352936500000002,
          "velocity": 0.7244094488188977,
          "duration": 0.14705874999999935
        },
        {
          "name": "D#2",
          "midi": 39,
          "time": 9.529407,
          "velocity": 0.7244094488188977,
          "duration": 0.14705874999999935
        },
        {
          "name": "C2",
          "midi": 36,
          "time": 9.882348,
          "velocity": 0.7244094488188977,
          "duration": 0.2941175000000005
        },
        {
          "name": "D#2",
          "midi": 39,
          "time": 10.235289000000002,
          "velocity": 0.7244094488188977,
          "duration": 0.14705874999999935
        },
        {
          "name": "C2",
          "midi": 36,
          "time": 10.4117595,
          "velocity": 0.7244094488188977,
          "duration": 0.14705874999999935
        },
        {
          "name": "C2",
          "midi": 36,
          "time": 10.7647005,
          "velocity": 0.7244094488188977,
          "duration": 0.14705874999999935
        },
        {
          "name": "D#2",
          "midi": 39,
          "time": 10.941170999999999,
          "velocity": 0.7244094488188977,
          "duration": 0.14705874999999935
        },
        {
          "name": "C2",
          "midi": 36,
          "time": 11.294111999999998,
          "velocity": 0.7244094488188977,
          "duration": 0.2941175000000005
        },
        {
          "name": "G3",
          "midi": 55,
          "time": 11.294111999999998,
          "velocity": 0.7244094488188977,
          "duration": 1.1764699999999984
        },
        {
          "name": "A3",
          "midi": 57,
          "time": 11.294111999999998,
          "velocity": 0.7244094488188977,
          "duration": 1.1764699999999984
        },
        {
          "name": "D#2",
          "midi": 39,
          "time": 11.647053,
          "velocity": 0.7244094488188977,
          "duration": 0.14705874999999935
        },
        {
          "name": "C2",
          "midi": 36,
          "time": 11.823523499999999,
          "velocity": 0.7244094488188977,
          "duration": 0.14705874999999935
        },
        {
          "name": "C2",
          "midi": 36,
          "time": 12.176464499999998,
          "velocity": 0.7244094488188977,
          "duration": 0.14705874999999935
        },
        {
          "name": "D#2",
          "midi": 39,
          "time": 12.352934999999997,
          "velocity": 0.7244094488188977,
          "duration": 0.14705874999999935
        },
        {
          "name": "C2",
          "midi": 36,
          "time": 12.705875999999996,
          "velocity": 0.7244094488188977,
          "duration": 0.2941175000000005
        },
        {
          "name": "D#2",
          "midi": 39,
          "time": 13.058816999999998,
          "velocity": 0.7244094488188977,
          "duration": 0.14705874999999935
        },
        {
          "name": "C2",
          "midi": 36,
          "time": 13.235287499999997,
          "velocity": 0.7244094488188977,
          "duration": 0.14705874999999935
        },
        {
          "name": "C2",
          "midi": 36,
          "time": 13.588228499999996,
          "velocity": 0.7244094488188977,
          "duration": 0.14705874999999935
        },
        {
          "name": "D#2",
          "midi": 39,
          "time": 13.764698999999995,
          "velocity": 0.7244094488188977,
          "duration": 0.14705874999999935
        },
        {
          "name": "C2",
          "midi": 36,
          "time": 14.117639999999994,
          "velocity": 0.7244094488188977,
          "duration": 0.2941175000000005
        },
        {
          "name": "D#2",
          "midi": 39,
          "time": 14.470580999999996,
          "velocity": 0.7244094488188977,
          "duration": 0.14705874999999935
        },
        {
          "name": "C2",
          "midi": 36,
          "time": 14.647051499999995,
          "velocity": 0.7244094488188977,
          "duration": 0.14705874999999935
        },
        {
          "name": "C2",
          "midi": 36,
          "time": 14.999992499999994,
          "velocity": 0.7244094488188977,
          "duration": 0.14705874999999935
        },
        {
          "name": "D#2",
          "midi": 39,
          "time": 15.176462999999993,
          "velocity": 0.7244094488188977,
          "duration": 0.14705874999999935
        },
        {
          "name": "C2",
          "midi": 36,
          "time": 15.529403999999992,
          "velocity": 0.7244094488188977,
          "duration": 0.2941175000000005
        },
        {
          "name": "D#2",
          "midi": 39,
          "time": 15.882344999999994,
          "velocity": 0.7244094488188977,
          "duration": 0.14705874999999935
        },
        {
          "name": "C2",
          "midi": 36,
          "time": 16.058815499999994,
          "velocity": 0.7244094488188977,
          "duration": 0.14705874999999935
        },
        {
          "name": "C2",
          "midi": 36,
          "time": 16.411756499999992,
          "velocity": 0.7244094488188977,
          "duration": 0.14705874999999935
        },
        {
          "name": "D#2",
          "midi": 39,
          "time": 16.588226999999993,
          "velocity": 0.7244094488188977,
          "duration": 0.14705874999999935
        },
        {
          "name": "C2",
          "midi": 36,
          "time": 16.94116799999999,
          "velocity": 0.7244094488188977,
          "duration": 0.2941174999999987
        },
        {
          "name": "D#2",
          "midi": 39,
          "time": 17.294108999999988,
          "velocity": 0.7244094488188977,
          "duration": 0.14705874999999935
        },
        {
          "name": "C2",
          "midi": 36,
          "time": 17.47057949999999,
          "velocity": 0.7244094488188977,
          "duration": 0.14705874999999935
        },
        {
          "name": "C2",
          "midi": 36,
          "time": 17.823520499999987,
          "velocity": 0.7244094488188977,
          "duration": 0.14705874999999935
        },
        {
          "name": "D#2",
          "midi": 39,
          "time": 17.999990999999987,
          "velocity": 0.7244094488188977,
          "duration": 0.14705874999999935
        },
        {
          "name": "C2",
          "midi": 36,
          "time": 18.352931999999985,
          "velocity": 0.7244094488188977,
          "duration": 0.2941174999999987
        },
        {
          "name": "D#2",
          "midi": 39,
          "time": 18.705872999999983,
          "velocity": 0.7244094488188977,
          "duration": 0.14705874999999935
        },
        {
          "name": "C2",
          "midi": 36,
          "time": 18.882343499999983,
          "velocity": 0.7244094488188977,
          "duration": 0.14705874999999935
        },
        {
          "name": "C2",
          "midi": 36,
          "time": 19.23528449999998,
          "velocity": 0.7244094488188977,
          "duration": 0.14705874999999935
        },
        {
          "name": "D#2",
          "midi": 39,
          "time": 19.41175499999998,
          "velocity": 0.7244094488188977,
          "duration": 0.14705874999999935
        },
        {
          "name": "C2",
          "midi": 36,
          "time": 19.76469599999998,
          "velocity": 0.7244094488188977,
          "duration": 0.2941174999999987
        },
        {
          "name": "D#2",
          "midi": 39,
          "time": 20.117636999999977,
          "velocity": 0.7244094488188977,
          "duration": 0.14705874999999935
        },
        {
          "name": "C2",
          "midi": 36,
          "time": 20.294107499999978,
          "velocity": 0.7244094488188977,
          "duration": 0.14705874999999935
        },
        {
          "name": "C2",
          "midi": 36,
          "time": 20.647048499999975,
          "velocity": 0.7244094488188977,
          "duration": 0.14705874999999935
        },
        {
          "name": "D#2",
          "midi": 39,
          "time": 20.823518999999976,
          "velocity": 0.7244094488188977,
          "duration": 0.14705874999999935
        },
        {
          "name": "C2",
          "midi": 36,
          "time": 21.176459999999974,
          "velocity": 0.7244094488188977,
          "duration": 0.2941174999999987
        },
        {
          "name": "D#2",
          "midi": 39,
          "time": 21.52940099999997,
          "velocity": 0.7244094488188977,
          "duration": 0.14705874999999935
        },
        {
          "name": "C2",
          "midi": 36,
          "time": 21.705871499999972,
          "velocity": 0.7244094488188977,
          "duration": 0.14705874999999935
        },
        {
          "name": "C2",
          "midi": 36,
          "time": 22.05881249999997,
          "velocity": 0.7244094488188977,
          "duration": 0.14705874999999935
        },
        {
          "name": "D#2",
          "midi": 39,
          "time": 22.23528299999997,
          "velocity": 0.7244094488188977,
          "duration": 0.14705874999999935
        },
        {
          "name": "C2",
          "midi": 36,
          "time": 22.58822399999997,
          "velocity": 0.7244094488188977,
          "duration": 0.2941174999999987
        },
        {
          "name": "C2",
          "midi": 36,
          "time": 22.941164999999966,
          "velocity": 0.7244094488188977,
          "duration": 0.2941174999999987
        },
        {
          "name": "D2",
          "midi": 38,
          "time": 22.941164999999966,
          "velocity": 0.7244094488188977,
          "duration": 0.2941174999999987
        },
        {
          "name": "C2",
          "midi": 36,
          "time": 23.294105999999964,
          "velocity": 0.7244094488188977,
          "duration": 0.2941174999999987
        },
        {
          "name": "C2",
          "midi": 36,
          "time": 23.64704699999996,
          "velocity": 0.7244094488188977,
          "duration": 0.2941174999999987
        },
        {
          "name": "D2",
          "midi": 38,
          "time": 23.64704699999996,
          "velocity": 0.7244094488188977,
          "duration": 0.2941174999999987
        },
        {
          "name": "C2",
          "midi": 36,
          "time": 23.99998799999996,
          "velocity": 0.7244094488188977,
          "duration": 0.2941174999999987
        },
        {
          "name": "C2",
          "midi": 36,
          "time": 24.352928999999957,
          "velocity": 0.7244094488188977,
          "duration": 0.2941174999999987
        },
        {
          "name": "D2",
          "midi": 38,
          "time": 24.352928999999957,
          "velocity": 0.7244094488188977,
          "duration": 0.2941174999999987
        },
        {
          "name": "C2",
          "midi": 36,
          "time": 24.705869999999955,
          "velocity": 0.7244094488188977,
          "duration": 0.2941174999999987
        },
        {
          "name": "C2",
          "midi": 36,
          "time": 25.058810999999952,
          "velocity": 0.7244094488188977,
          "duration": 0.2941174999999987
        },
        {
          "name": "D2",
          "midi": 38,
          "time": 25.058810999999952,
          "velocity": 0.7244094488188977,
          "duration": 0.2941174999999987
        },
        {
          "name": "C2",
          "midi": 36,
          "time": 25.41175199999995,
          "velocity": 0.7244094488188977,
          "duration": 0.14705874999999935
        },
        {
          "name": "F#2",
          "midi": 42,
          "time": 25.58822249999995,
          "velocity": 0.7244094488188977,
          "duration": 0.14705874999999935
        },
        {
          "name": "G#2",
          "midi": 44,
          "time": 25.58822249999995,
          "velocity": 0.7244094488188977,
          "duration": 0.14705874999999935
        },
        {
          "name": "C2",
          "midi": 36,
          "time": 25.76469299999995,
          "velocity": 0.7244094488188977,
          "duration": 0.14705874999999935
        },
        {
          "name": "D2",
          "midi": 38,
          "time": 25.76469299999995,
          "velocity": 0.7244094488188977,
          "duration": 0.14705874999999935
        },
        {
          "name": "F#2",
          "midi": 42,
          "time": 25.76469299999995,
          "velocity": 0.7244094488188977,
          "duration": 0.07352937499999967
        },
        {
          "name": "F#2",
          "midi": 42,
          "time": 25.85292824999995,
          "velocity": 0.7244094488188977,
          "duration": 0.07352937499999967
        },
        {
          "name": "F#2",
          "midi": 42,
          "time": 25.941163499999952,
          "velocity": 0.7244094488188977,
          "duration": 0.07352937499999967
        },
        {
          "name": "F#2",
          "midi": 42,
          "time": 26.029398749999952,
          "velocity": 0.7244094488188977,
          "duration": 0.07352937499999967
        },
        {
          "name": "C2",
          "midi": 36,
          "time": 26.117633999999953,
          "velocity": 0.7244094488188977,
          "duration": 0.07352937499999967
        },
        {
          "name": "F#2",
          "midi": 42,
          "time": 26.117633999999953,
          "velocity": 0.7244094488188977,
          "duration": 0.07352937499999967
        },
        {
          "name": "G#2",
          "midi": 44,
          "time": 26.117633999999953,
          "velocity": 0.7244094488188977,
          "duration": 0.07352937499999967
        },
        {
          "name": "F#2",
          "midi": 42,
          "time": 26.205869249999953,
          "velocity": 0.7244094488188977,
          "duration": 0.07352937499999967
        },
        {
          "name": "G#2",
          "midi": 44,
          "time": 26.205869249999953,
          "velocity": 0.7244094488188977,
          "duration": 0.07352937499999967
        },
        {
          "name": "F#2",
          "midi": 42,
          "time": 26.294104499999953,
          "velocity": 0.7244094488188977,
          "duration": 0.07352937499999967
        },
        {
          "name": "G#2",
          "midi": 44,
          "time": 26.294104499999953,
          "velocity": 0.7244094488188977,
          "duration": 0.07352937499999967
        },
        {
          "name": "C2",
          "midi": 36,
          "time": 26.470574999999954,
          "velocity": 0.7244094488188977,
          "duration": 0.14705874999999935
        },
        {
          "name": "D2",
          "midi": 38,
          "time": 26.470574999999954,
          "velocity": 0.7244094488188977,
          "duration": 0.14705874999999935
        },
        {
          "name": "F#2",
          "midi": 42,
          "time": 26.470574999999954,
          "velocity": 0.7244094488188977,
          "duration": 0.14705874999999935
        },
        {
          "name": "G#2",
          "midi": 44,
          "time": 26.470574999999954,
          "velocity": 0.7244094488188977,
          "duration": 0.14705874999999935
        },
        {
          "name": "C2",
          "midi": 36,
          "time": 26.82351599999995,
          "velocity": 0.7244094488188977,
          "duration": 0.14705874999999935
        },
        {
          "name": "F#2",
          "midi": 42,
          "time": 26.999986499999952,
          "velocity": 0.7244094488188977,
          "duration": 0.14705874999999935
        },
        {
          "name": "G#2",
          "midi": 44,
          "time": 26.999986499999952,
          "velocity": 0.7244094488188977,
          "duration": 0.14705874999999935
        },
        {
          "name": "C2",
          "midi": 36,
          "time": 27.176456999999953,
          "velocity": 0.7244094488188977,
          "duration": 0.14705874999999935
        },
        {
          "name": "D2",
          "midi": 38,
          "time": 27.176456999999953,
          "velocity": 0.7244094488188977,
          "duration": 0.14705874999999935
        },
        {
          "name": "F#2",
          "midi": 42,
          "time": 27.176456999999953,
          "velocity": 0.7244094488188977,
          "duration": 0.07352937499999967
        },
        {
          "name": "F#2",
          "midi": 42,
          "time": 27.264692249999953,
          "velocity": 0.7244094488188977,
          "duration": 0.07352937499999967
        },
        {
          "name": "F#2",
          "midi": 42,
          "time": 27.352927499999954,
          "velocity": 0.7244094488188977,
          "duration": 0.07352937499999967
        },
        {
          "name": "F#2",
          "midi": 42,
          "time": 27.441162749999954,
          "velocity": 0.7244094488188977,
          "duration": 0.07352937499999967
        },
        {
          "name": "C2",
          "midi": 36,
          "time": 27.529397999999954,
          "velocity": 0.7244094488188977,
          "duration": 0.07352937499999967
        },
        {
          "name": "F#2",
          "midi": 42,
          "time": 27.529397999999954,
          "velocity": 0.7244094488188977,
          "duration": 0.07352937499999967
        },
        {
          "name": "G#2",
          "midi": 44,
          "time": 27.529397999999954,
          "velocity": 0.7244094488188977,
          "duration": 0.07352937499999967
        },
        {
          "name": "F#2",
          "midi": 42,
          "time": 27.617633249999955,
          "velocity": 0.7244094488188977,
          "duration": 0.07352937499999967
        },
        {
          "name": "G#2",
          "midi": 44,
          "time": 27.617633249999955,
          "velocity": 0.7244094488188977,
          "duration": 0.07352937499999967
        },
        {
          "name": "F#2",
          "midi": 42,
          "time": 27.705868499999955,
          "velocity": 0.7244094488188977,
          "duration": 0.07352937499999967
        },
        {
          "name": "G#2",
          "midi": 44,
          "time": 27.705868499999955,
          "velocity": 0.7244094488188977,
          "duration": 0.07352937499999967
        },
        {
          "name": "C2",
          "midi": 36,
          "time": 27.882338999999956,
          "velocity": 0.7244094488188977,
          "duration": 0.14705874999999935
        },
        {
          "name": "D2",
          "midi": 38,
          "time": 27.882338999999956,
          "velocity": 0.7244094488188977,
          "duration": 0.14705874999999935
        },
        {
          "name": "F#2",
          "midi": 42,
          "time": 27.882338999999956,
          "velocity": 0.7244094488188977,
          "duration": 0.14705874999999935
        },
        {
          "name": "G#2",
          "midi": 44,
          "time": 27.882338999999956,
          "velocity": 0.7244094488188977,
          "duration": 0.14705874999999935
        },
        {
          "name": "C2",
          "midi": 36,
          "time": 28.235279999999953,
          "velocity": 0.7244094488188977,
          "duration": 0.22058812499999902
        },
        {
          "name": "C2",
          "midi": 36,
          "time": 28.49998574999995,
          "velocity": 0.7244094488188977,
          "duration": 0.07352937499999967
        },
        {
          "name": "E2",
          "midi": 40,
          "time": 28.58822099999995,
          "velocity": 0.7244094488188977,
          "duration": 0.07352937499999967
        },
        {
          "name": "C2",
          "midi": 36,
          "time": 28.67645624999995,
          "velocity": 0.7244094488188977,
          "duration": 0.07352937499999967
        },
        {
          "name": "C2",
          "midi": 36,
          "time": 28.76469149999995,
          "velocity": 0.7244094488188977,
          "duration": 0.14705874999999935
        },
        {
          "name": "C2",
          "midi": 36,
          "time": 28.941161999999952,
          "velocity": 0.7244094488188977,
          "duration": 0.22058812499999902
        },
        {
          "name": "C2",
          "midi": 36,
          "time": 29.20586774999995,
          "velocity": 0.7244094488188977,
          "duration": 0.07352937499999967
        },
        {
          "name": "E2",
          "midi": 40,
          "time": 29.29410299999995,
          "velocity": 0.7244094488188977,
          "duration": 0.07352937499999967
        },
        {
          "name": "C2",
          "midi": 36,
          "time": 29.38233824999995,
          "velocity": 0.7244094488188977,
          "duration": 0.07352937499999967
        },
        {
          "name": "C2",
          "midi": 36,
          "time": 29.47057349999995,
          "velocity": 0.7244094488188977,
          "duration": 0.14705874999999935
        },
        {
          "name": "C2",
          "midi": 36,
          "time": 29.64704399999995,
          "velocity": 0.7244094488188977,
          "duration": 0.22058812499999902
        },
        {
          "name": "C2",
          "midi": 36,
          "time": 29.91174974999995,
          "velocity": 0.7244094488188977,
          "duration": 0.07352937499999967
        },
        {
          "name": "E2",
          "midi": 40,
          "time": 29.99998499999995,
          "velocity": 0.7244094488188977,
          "duration": 0.07352937499999967
        },
        {
          "name": "C2",
          "midi": 36,
          "time": 30.08822024999995,
          "velocity": 0.7244094488188977,
          "duration": 0.07352937499999967
        },
        {
          "name": "C2",
          "midi": 36,
          "time": 30.17645549999995,
          "velocity": 0.7244094488188977,
          "duration": 0.14705874999999935
        },
        {
          "name": "C2",
          "midi": 36,
          "time": 30.35292599999995,
          "velocity": 0.7244094488188977,
          "duration": 0.22058812499999902
        },
        {
          "name": "C2",
          "midi": 36,
          "time": 30.617631749999948,
          "velocity": 0.7244094488188977,
          "duration": 0.07352937499999967
        },
        {
          "name": "E2",
          "midi": 40,
          "time": 30.705866999999948,
          "velocity": 0.7244094488188977,
          "duration": 0.07352937499999967
        },
        {
          "name": "C2",
          "midi": 36,
          "time": 30.79410224999995,
          "velocity": 0.7244094488188977,
          "duration": 0.07352937499999967
        },
        {
          "name": "C2",
          "midi": 36,
          "time": 30.88233749999995,
          "velocity": 0.7244094488188977,
          "duration": 0.14705874999999935
        },
        {
          "name": "C2",
          "midi": 36,
          "time": 31.05880799999995,
          "velocity": 0.7244094488188977,
          "duration": 0.22058812499999902
        },
        {
          "name": "C2",
          "midi": 36,
          "time": 31.323513749999947,
          "velocity": 0.7244094488188977,
          "duration": 0.07352937499999967
        },
        {
          "name": "E2",
          "midi": 40,
          "time": 31.411748999999947,
          "velocity": 0.7244094488188977,
          "duration": 0.07352937499999967
        },
        {
          "name": "C2",
          "midi": 36,
          "time": 31.499984249999947,
          "velocity": 0.7244094488188977,
          "duration": 0.07352937499999967
        },
        {
          "name": "C2",
          "midi": 36,
          "time": 31.588219499999948,
          "velocity": 0.7244094488188977,
          "duration": 0.14705874999999935
        },
        {
          "name": "C2",
          "midi": 36,
          "time": 31.76468999999995,
          "velocity": 0.7244094488188977,
          "duration": 0.22058812499999902
        },
        {
          "name": "C2",
          "midi": 36,
          "time": 32.02939574999995,
          "velocity": 0.7244094488188977,
          "duration": 0.07352937499999967
        },
        {
          "name": "E2",
          "midi": 40,
          "time": 32.117630999999946,
          "velocity": 0.7244094488188977,
          "duration": 0.07352937499999967
        },
        {
          "name": "C2",
          "midi": 36,
          "time": 32.20586624999994,
          "velocity": 0.7244094488188977,
          "duration": 0.07352937499999967
        },
        {
          "name": "C2",
          "midi": 36,
          "time": 32.29410149999994,
          "velocity": 0.7244094488188977,
          "duration": 0.14705874999999935
        },
        {
          "name": "C2",
          "midi": 36,
          "time": 32.47057199999994,
          "velocity": 0.7244094488188977,
          "duration": 0.22058812499999902
        },
        {
          "name": "C2",
          "midi": 36,
          "time": 32.73527774999994,
          "velocity": 0.7244094488188977,
          "duration": 0.07352937499999967
        },
        {
          "name": "E2",
          "midi": 40,
          "time": 32.823512999999934,
          "velocity": 0.7244094488188977,
          "duration": 0.07352937499999967
        },
        {
          "name": "C2",
          "midi": 36,
          "time": 32.91174824999993,
          "velocity": 0.7244094488188977,
          "duration": 0.07352937499999967
        },
        {
          "name": "C2",
          "midi": 36,
          "time": 32.99998349999993,
          "velocity": 0.7244094488188977,
          "duration": 0.14705874999999935
        },
        {
          "name": "C2",
          "midi": 36,
          "time": 33.17645399999993,
          "velocity": 0.7244094488188977,
          "duration": 0.22058812499999902
        },
        {
          "name": "C2",
          "midi": 36,
          "time": 33.441159749999926,
          "velocity": 0.7244094488188977,
          "duration": 0.07352937499999967
        },
        {
          "name": "E2",
          "midi": 40,
          "time": 33.52939499999992,
          "velocity": 0.7244094488188977,
          "duration": 0.07352937499999967
        },
        {
          "name": "C2",
          "midi": 36,
          "time": 33.61763024999992,
          "velocity": 0.7244094488188977,
          "duration": 0.07352937499999967
        },
        {
          "name": "C2",
          "midi": 36,
          "time": 33.705865499999916,
          "velocity": 0.7244094488188977,
          "duration": 0.14705874999999935
        },
        {
          "name": "C2",
          "midi": 36,
          "time": 33.88233599999992,
          "velocity": 0.7244094488188977,
          "duration": 0.22058812499999902
        },
        {
          "name": "C2",
          "midi": 36,
          "time": 34.147041749999914,
          "velocity": 0.7244094488188977,
          "duration": 0.07352937499999967
        },
        {
          "name": "E2",
          "midi": 40,
          "time": 34.23527699999991,
          "velocity": 0.7244094488188977,
          "duration": 0.07352937499999967
        },
        {
          "name": "C2",
          "midi": 36,
          "time": 34.32351224999991,
          "velocity": 0.7244094488188977,
          "duration": 0.07352937499999967
        },
        {
          "name": "C2",
          "midi": 36,
          "time": 34.411747499999905,
          "velocity": 0.7244094488188977,
          "duration": 0.14705874999999935
        },
        {
          "name": "C2",
          "midi": 36,
          "time": 34.588217999999905,
          "velocity": 0.7244094488188977,
          "duration": 0.22058812499999902
        },
        {
          "name": "C2",
          "midi": 36,
          "time": 34.8529237499999,
          "velocity": 0.7244094488188977,
          "duration": 0.07352937499999967
        },
        {
          "name": "E2",
          "midi": 40,
          "time": 34.9411589999999,
          "velocity": 0.7244094488188977,
          "duration": 0.07352937499999967
        },
        {
          "name": "C2",
          "midi": 36,
          "time": 35.029394249999896,
          "velocity": 0.7244094488188977,
          "duration": 0.07352937499999967
        },
        {
          "name": "C2",
          "midi": 36,
          "time": 35.11762949999989,
          "velocity": 0.7244094488188977,
          "duration": 0.14705874999999935
        },
        {
          "name": "C2",
          "midi": 36,
          "time": 35.294099999999894,
          "velocity": 0.7244094488188977,
          "duration": 0.22058812499999902
        },
        {
          "name": "C2",
          "midi": 36,
          "time": 35.55880574999989,
          "velocity": 0.7244094488188977,
          "duration": 0.07352937499999967
        },
        {
          "name": "E2",
          "midi": 40,
          "time": 35.64704099999989,
          "velocity": 0.7244094488188977,
          "duration": 0.07352937499999967
        },
        {
          "name": "C2",
          "midi": 36,
          "time": 35.735276249999885,
          "velocity": 0.7244094488188977,
          "duration": 0.07352937499999967
        },
        {
          "name": "C2",
          "midi": 36,
          "time": 35.82351149999988,
          "velocity": 0.7244094488188977,
          "duration": 0.14705874999999935
        },
        {
          "name": "C2",
          "midi": 36,
          "time": 35.99998199999988,
          "velocity": 0.7244094488188977,
          "duration": 0.22058812499999902
        },
        {
          "name": "C2",
          "midi": 36,
          "time": 36.26468774999988,
          "velocity": 0.7244094488188977,
          "duration": 0.07352937499999967
        },
        {
          "name": "E2",
          "midi": 40,
          "time": 36.352922999999876,
          "velocity": 0.7244094488188977,
          "duration": 0.07352937499999967
        },
        {
          "name": "C2",
          "midi": 36,
          "time": 36.44115824999987,
          "velocity": 0.7244094488188977,
          "duration": 0.07352937499999967
        },
        {
          "name": "C2",
          "midi": 36,
          "time": 36.52939349999987,
          "velocity": 0.7244094488188977,
          "duration": 0.14705874999999935
        },
        {
          "name": "C2",
          "midi": 36,
          "time": 36.70586399999987,
          "velocity": 0.7244094488188977,
          "duration": 0.22058812499999902
        },
        {
          "name": "C2",
          "midi": 36,
          "time": 36.97056974999987,
          "velocity": 0.7244094488188977,
          "duration": 0.07352937499999967
        },
        {
          "name": "E2",
          "midi": 40,
          "time": 37.058804999999865,
          "velocity": 0.7244094488188977,
          "duration": 0.07352937499999967
        },
        {
          "name": "C2",
          "midi": 36,
          "time": 37.14704024999986,
          "velocity": 0.7244094488188977,
          "duration": 0.07352937499999967
        },
        {
          "name": "C2",
          "midi": 36,
          "time": 37.23527549999986,
          "velocity": 0.7244094488188977,
          "duration": 0.14705874999999935
        },
        {
          "name": "C2",
          "midi": 36,
          "time": 37.41174599999986,
          "velocity": 0.7244094488188977,
          "duration": 0.22058812499999902
        },
        {
          "name": "C2",
          "midi": 36,
          "time": 37.676451749999856,
          "velocity": 0.7244094488188977,
          "duration": 0.07352937499999967
        },
        {
          "name": "E2",
          "midi": 40,
          "time": 37.76468699999985,
          "velocity": 0.7244094488188977,
          "duration": 0.07352937499999967
        },
        {
          "name": "C2",
          "midi": 36,
          "time": 37.85292224999985,
          "velocity": 0.7244094488188977,
          "duration": 0.07352937499999967
        },
        {
          "name": "C2",
          "midi": 36,
          "time": 37.941157499999846,
          "velocity": 0.7244094488188977,
          "duration": 0.14705874999999935
        },
        {
          "name": "C2",
          "midi": 36,
          "time": 38.11762799999985,
          "velocity": 0.7244094488188977,
          "duration": 0.22058812499999902
        },
        {
          "name": "C2",
          "midi": 36,
          "time": 38.382333749999844,
          "velocity": 0.7244094488188977,
          "duration": 0.07352937499999967
        },
        {
          "name": "E2",
          "midi": 40,
          "time": 38.47056899999984,
          "velocity": 0.7244094488188977,
          "duration": 0.07352937499999967
        },
        {
          "name": "C2",
          "midi": 36,
          "time": 38.55880424999984,
          "velocity": 0.7244094488188977,
          "duration": 0.07352937499999967
        },
        {
          "name": "C2",
          "midi": 36,
          "time": 38.647039499999835,
          "velocity": 0.7244094488188977,
          "duration": 0.14705874999999935
        },
        {
          "name": "C2",
          "midi": 36,
          "time": 38.823509999999835,
          "velocity": 0.7244094488188977,
          "duration": 0.22058812499999902
        },
        {
          "name": "C2",
          "midi": 36,
          "time": 39.08821574999983,
          "velocity": 0.7244094488188977,
          "duration": 0.07352937499999967
        },
        {
          "name": "E2",
          "midi": 40,
          "time": 39.17645099999983,
          "velocity": 0.7244094488188977,
          "duration": 0.07352937499999967
        },
        {
          "name": "C2",
          "midi": 36,
          "time": 39.264686249999826,
          "velocity": 0.7244094488188977,
          "duration": 0.07352937499999967
        },
        {
          "name": "C2",
          "midi": 36,
          "time": 39.35292149999982,
          "velocity": 0.7244094488188977,
          "duration": 0.14705874999999935
        },
        {
          "name": "C2",
          "midi": 36,
          "time": 39.529391999999824,
          "velocity": 0.7244094488188977,
          "duration": 0.14705874999999935
        },
        {
          "name": "C2",
          "midi": 36,
          "time": 39.705862499999824,
          "velocity": 0.7244094488188977,
          "duration": 0.14705874999999935
        },
        {
          "name": "D2",
          "midi": 38,
          "time": 39.882332999999825,
          "velocity": 0.7244094488188977,
          "duration": 0.14705874999999935
        },
        {
          "name": "E2",
          "midi": 40,
          "time": 39.882332999999825,
          "velocity": 0.7244094488188977,
          "duration": 0.14705874999999935
        },
        {
          "name": "G#2",
          "midi": 44,
          "time": 39.882332999999825,
          "velocity": 0.7244094488188977,
          "duration": 0.14705874999999935
        },
        {
          "name": "C2",
          "midi": 36,
          "time": 40.058803499999826,
          "velocity": 0.7244094488188977,
          "duration": 0.14705874999999935
        },
        {
          "name": "C2",
          "midi": 36,
          "time": 40.235273999999826,
          "velocity": 0.7244094488188977,
          "duration": 0.14705874999999935
        },
        {
          "name": "C2",
          "midi": 36,
          "time": 40.41174449999983,
          "velocity": 0.7244094488188977,
          "duration": 0.14705874999999935
        },
        {
          "name": "D2",
          "midi": 38,
          "time": 40.58821499999983,
          "velocity": 0.7244094488188977,
          "duration": 0.14705874999999935
        },
        {
          "name": "E2",
          "midi": 40,
          "time": 40.58821499999983,
          "velocity": 0.7244094488188977,
          "duration": 0.14705874999999935
        },
        {
          "name": "G#2",
          "midi": 44,
          "time": 40.58821499999983,
          "velocity": 0.7244094488188977,
          "duration": 0.14705874999999935
        },
        {
          "name": "C2",
          "midi": 36,
          "time": 40.76468549999983,
          "velocity": 0.7244094488188977,
          "duration": 0.14705874999999935
        },
        {
          "name": "C2",
          "midi": 36,
          "time": 40.94115599999983,
          "velocity": 0.7244094488188977,
          "duration": 0.14705874999999935
        },
        {
          "name": "C2",
          "midi": 36,
          "time": 41.11762649999983,
          "velocity": 0.7244094488188977,
          "duration": 0.14705874999999935
        },
        {
          "name": "D2",
          "midi": 38,
          "time": 41.29409699999983,
          "velocity": 0.7244094488188977,
          "duration": 0.14705874999999935
        },
        {
          "name": "E2",
          "midi": 40,
          "time": 41.29409699999983,
          "velocity": 0.7244094488188977,
          "duration": 0.14705874999999935
        },
        {
          "name": "G#2",
          "midi": 44,
          "time": 41.29409699999983,
          "velocity": 0.7244094488188977,
          "duration": 0.14705874999999935
        },
        {
          "name": "C2",
          "midi": 36,
          "time": 41.47056749999983,
          "velocity": 0.7244094488188977,
          "duration": 0.14705874999999935
        },
        {
          "name": "C2",
          "midi": 36,
          "time": 41.64703799999983,
          "velocity": 0.7244094488188977,
          "duration": 0.14705874999999935
        },
        {
          "name": "C2",
          "midi": 36,
          "time": 41.82350849999983,
          "velocity": 0.7244094488188977,
          "duration": 0.14705874999999935
        },
        {
          "name": "D2",
          "midi": 38,
          "time": 41.99997899999983,
          "velocity": 0.7244094488188977,
          "duration": 0.14705874999999935
        },
        {
          "name": "E2",
          "midi": 40,
          "time": 41.99997899999983,
          "velocity": 0.7244094488188977,
          "duration": 0.14705874999999935
        },
        {
          "name": "G#2",
          "midi": 44,
          "time": 41.99997899999983,
          "velocity": 0.7244094488188977,
          "duration": 0.14705874999999935
        },
        {
          "name": "C2",
          "midi": 36,
          "time": 42.17644949999983,
          "velocity": 0.7244094488188977,
          "duration": 0.14705874999999935
        },
        {
          "name": "C2",
          "midi": 36,
          "time": 42.352919999999834,
          "velocity": 0.7244094488188977,
          "duration": 0.14705874999999935
        },
        {
          "name": "C2",
          "midi": 36,
          "time": 42.529390499999835,
          "velocity": 0.7244094488188977,
          "duration": 0.14705874999999935
        },
        {
          "name": "D2",
          "midi": 38,
          "time": 42.705860999999835,
          "velocity": 0.7244094488188977,
          "duration": 0.14705874999999935
        },
        {
          "name": "E2",
          "midi": 40,
          "time": 42.705860999999835,
          "velocity": 0.7244094488188977,
          "duration": 0.14705874999999935
        },
        {
          "name": "G#2",
          "midi": 44,
          "time": 42.705860999999835,
          "velocity": 0.7244094488188977,
          "duration": 0.14705874999999935
        },
        {
          "name": "C2",
          "midi": 36,
          "time": 42.882331499999836,
          "velocity": 0.7244094488188977,
          "duration": 0.14705874999999935
        },
        {
          "name": "C2",
          "midi": 36,
          "time": 43.05880199999984,
          "velocity": 0.7244094488188977,
          "duration": 0.14705874999999935
        },
        {
          "name": "C2",
          "midi": 36,
          "time": 43.23527249999984,
          "velocity": 0.7244094488188977,
          "duration": 0.14705874999999935
        },
        {
          "name": "D2",
          "midi": 38,
          "time": 43.41174299999984,
          "velocity": 0.7244094488188977,
          "duration": 0.14705874999999935
        },
        {
          "name": "E2",
          "midi": 40,
          "time": 43.41174299999984,
          "velocity": 0.7244094488188977,
          "duration": 0.14705874999999935
        },
        {
          "name": "G#2",
          "midi": 44,
          "time": 43.41174299999984,
          "velocity": 0.7244094488188977,
          "duration": 0.14705874999999935
        },
        {
          "name": "C2",
          "midi": 36,
          "time": 43.58821349999984,
          "velocity": 0.7244094488188977,
          "duration": 0.14705874999999935
        },
        {
          "name": "C2",
          "midi": 36,
          "time": 43.76468399999984,
          "velocity": 0.7244094488188977,
          "duration": 0.14705874999999935
        },
        {
          "name": "C2",
          "midi": 36,
          "time": 43.94115449999984,
          "velocity": 0.7244094488188977,
          "duration": 0.14705874999999935
        },
        {
          "name": "D2",
          "midi": 38,
          "time": 44.11762499999984,
          "velocity": 0.7244094488188977,
          "duration": 0.14705874999999935
        },
        {
          "name": "E2",
          "midi": 40,
          "time": 44.11762499999984,
          "velocity": 0.7244094488188977,
          "duration": 0.14705874999999935
        },
        {
          "name": "G#2",
          "midi": 44,
          "time": 44.11762499999984,
          "velocity": 0.7244094488188977,
          "duration": 0.14705874999999935
        },
        {
          "name": "C2",
          "midi": 36,
          "time": 44.29409549999984,
          "velocity": 0.7244094488188977,
          "duration": 0.14705874999999935
        },
        {
          "name": "C2",
          "midi": 36,
          "time": 44.47056599999984,
          "velocity": 0.7244094488188977,
          "duration": 0.14705874999999935
        },
        {
          "name": "C2",
          "midi": 36,
          "time": 44.64703649999984,
          "velocity": 0.7244094488188977,
          "duration": 0.14705874999999935
        },
        {
          "name": "D2",
          "midi": 38,
          "time": 44.82350699999984,
          "velocity": 0.7244094488188977,
          "duration": 0.14705874999999935
        },
        {
          "name": "E2",
          "midi": 40,
          "time": 44.82350699999984,
          "velocity": 0.7244094488188977,
          "duration": 0.14705874999999935
        },
        {
          "name": "G#2",
          "midi": 44,
          "time": 44.82350699999984,
          "velocity": 0.7244094488188977,
          "duration": 0.14705874999999935
        },
        {
          "name": "C2",
          "midi": 36,
          "time": 44.999977499999844,
          "velocity": 0.7244094488188977,
          "duration": 0.14705874999999935
        },
        {
          "name": "C2",
          "midi": 36,
          "time": 45.176447999999844,
          "velocity": 0.7244094488188977,
          "duration": 0.14705874999999935
        },
        {
          "name": "C2",
          "midi": 36,
          "time": 45.352918499999845,
          "velocity": 0.7244094488188977,
          "duration": 0.14705874999999935
        },
        {
          "name": "D2",
          "midi": 38,
          "time": 45.529388999999846,
          "velocity": 0.7244094488188977,
          "duration": 0.14705874999999935
        },
        {
          "name": "E2",
          "midi": 40,
          "time": 45.529388999999846,
          "velocity": 0.7244094488188977,
          "duration": 0.14705874999999935
        },
        {
          "name": "G#2",
          "midi": 44,
          "time": 45.529388999999846,
          "velocity": 0.7244094488188977,
          "duration": 0.14705874999999935
        },
        {
          "name": "C2",
          "midi": 36,
          "time": 45.705859499999846,
          "velocity": 0.7244094488188977,
          "duration": 0.14705874999999935
        },
        {
          "name": "C2",
          "midi": 36,
          "time": 45.88232999999985,
          "velocity": 0.7244094488188977,
          "duration": 0.14705874999999935
        },
        {
          "name": "C2",
          "midi": 36,
          "time": 46.05880049999985,
          "velocity": 0.7244094488188977,
          "duration": 0.14705874999999935
        },
        {
          "name": "D2",
          "midi": 38,
          "time": 46.23527099999985,
          "velocity": 0.7244094488188977,
          "duration": 0.14705874999999935
        },
        {
          "name": "E2",
          "midi": 40,
          "time": 46.23527099999985,
          "velocity": 0.7244094488188977,
          "duration": 0.14705874999999935
        },
        {
          "name": "G#2",
          "midi": 44,
          "time": 46.23527099999985,
          "velocity": 0.7244094488188977,
          "duration": 0.14705874999999935
        },
        {
          "name": "C2",
          "midi": 36,
          "time": 46.41174149999985,
          "velocity": 0.7244094488188977,
          "duration": 0.14705874999999935
        },
        {
          "name": "C2",
          "midi": 36,
          "time": 46.58821199999985,
          "velocity": 0.7244094488188977,
          "duration": 0.14705874999999935
        },
        {
          "name": "C2",
          "midi": 36,
          "time": 46.76468249999985,
          "velocity": 0.7244094488188977,
          "duration": 0.14705874999999935
        },
        {
          "name": "D2",
          "midi": 38,
          "time": 46.94115299999985,
          "velocity": 0.7244094488188977,
          "duration": 0.14705874999999935
        },
        {
          "name": "E2",
          "midi": 40,
          "time": 46.94115299999985,
          "velocity": 0.7244094488188977,
          "duration": 0.14705874999999935
        },
        {
          "name": "G#2",
          "midi": 44,
          "time": 46.94115299999985,
          "velocity": 0.7244094488188977,
          "duration": 0.14705874999999935
        },
        {
          "name": "C2",
          "midi": 36,
          "time": 47.11762349999985,
          "velocity": 0.7244094488188977,
          "duration": 0.14705874999999935
        },
        {
          "name": "C2",
          "midi": 36,
          "time": 47.29409399999985,
          "velocity": 0.7244094488188977,
          "duration": 0.14705874999999935
        },
        {
          "name": "C2",
          "midi": 36,
          "time": 47.47056449999985,
          "velocity": 0.7244094488188977,
          "duration": 0.14705874999999935
        },
        {
          "name": "D2",
          "midi": 38,
          "time": 47.64703499999985,
          "velocity": 0.7244094488188977,
          "duration": 0.14705874999999935
        },
        {
          "name": "E2",
          "midi": 40,
          "time": 47.64703499999985,
          "velocity": 0.7244094488188977,
          "duration": 0.14705874999999935
        },
        {
          "name": "G#2",
          "midi": 44,
          "time": 47.64703499999985,
          "velocity": 0.7244094488188977,
          "duration": 0.14705874999999935
        },
        {
          "name": "C2",
          "midi": 36,
          "time": 47.823505499999854,
          "velocity": 0.7244094488188977,
          "duration": 0.14705874999999935
        },
        {
          "name": "C2",
          "midi": 36,
          "time": 47.999975999999855,
          "velocity": 0.7244094488188977,
          "duration": 0.14705874999999935
        },
        {
          "name": "C2",
          "midi": 36,
          "time": 48.176446499999855,
          "velocity": 0.7244094488188977,
          "duration": 0.14705874999999935
        },
        {
          "name": "D2",
          "midi": 38,
          "time": 48.352916999999856,
          "velocity": 0.7244094488188977,
          "duration": 0.14705874999999935
        },
        {
          "name": "E2",
          "midi": 40,
          "time": 48.352916999999856,
          "velocity": 0.7244094488188977,
          "duration": 0.14705874999999935
        },
        {
          "name": "G#2",
          "midi": 44,
          "time": 48.352916999999856,
          "velocity": 0.7244094488188977,
          "duration": 0.14705874999999935
        },
        {
          "name": "C2",
          "midi": 36,
          "time": 48.52938749999986,
          "velocity": 0.7244094488188977,
          "duration": 0.14705874999999935
        },
        {
          "name": "C2",
          "midi": 36,
          "time": 48.70585799999986,
          "velocity": 0.7244094488188977,
          "duration": 0.14705874999999935
        },
        {
          "name": "C2",
          "midi": 36,
          "time": 48.88232849999986,
          "velocity": 0.7244094488188977,
          "duration": 0.14705874999999935
        },
        {
          "name": "D2",
          "midi": 38,
          "time": 49.05879899999986,
          "velocity": 0.7244094488188977,
          "duration": 0.14705874999999935
        },
        {
          "name": "E2",
          "midi": 40,
          "time": 49.05879899999986,
          "velocity": 0.7244094488188977,
          "duration": 0.14705874999999935
        },
        {
          "name": "G#2",
          "midi": 44,
          "time": 49.05879899999986,
          "velocity": 0.7244094488188977,
          "duration": 0.14705874999999935
        },
        {
          "name": "C2",
          "midi": 36,
          "time": 49.23526949999986,
          "velocity": 0.7244094488188977,
          "duration": 0.14705874999999935
        },
        {
          "name": "C2",
          "midi": 36,
          "time": 49.41173999999986,
          "velocity": 0.7244094488188977,
          "duration": 0.14705874999999935
        },
        {
          "name": "C2",
          "midi": 36,
          "time": 49.58821049999986,
          "velocity": 0.7244094488188977,
          "duration": 0.14705874999999935
        },
        {
          "name": "D2",
          "midi": 38,
          "time": 49.76468099999986,
          "velocity": 0.7244094488188977,
          "duration": 0.14705874999999935
        },
        {
          "name": "E2",
          "midi": 40,
          "time": 49.76468099999986,
          "velocity": 0.7244094488188977,
          "duration": 0.14705874999999935
        },
        {
          "name": "G#2",
          "midi": 44,
          "time": 49.76468099999986,
          "velocity": 0.7244094488188977,
          "duration": 0.14705874999999935
        },
        {
          "name": "C2",
          "midi": 36,
          "time": 49.94115149999986,
          "velocity": 0.7244094488188977,
          "duration": 0.14705874999999935
        },
        {
          "name": "C2",
          "midi": 36,
          "time": 50.11762199999986,
          "velocity": 0.7244094488188977,
          "duration": 0.14705874999999935
        },
        {
          "name": "C2",
          "midi": 36,
          "time": 50.29409249999986,
          "velocity": 0.7244094488188977,
          "duration": 0.14705874999999935
        },
        {
          "name": "D2",
          "midi": 38,
          "time": 50.47056299999986,
          "velocity": 0.7244094488188977,
          "duration": 0.14705874999999935
        },
        {
          "name": "E2",
          "midi": 40,
          "time": 50.47056299999986,
          "velocity": 0.7244094488188977,
          "duration": 0.14705874999999935
        },
        {
          "name": "G#2",
          "midi": 44,
          "time": 50.47056299999986,
          "velocity": 0.7244094488188977,
          "duration": 0.14705874999999935
        },
        {
          "name": "C2",
          "midi": 36,
          "time": 50.647033499999864,
          "velocity": 0.7244094488188977,
          "duration": 0.14705874999999935
        },
        {
          "name": "C2",
          "midi": 36,
          "time": 50.823503999999865,
          "velocity": 0.7244094488188977,
          "duration": 0.14705874999999935
        },
        {
          "name": "F#2",
          "midi": 42,
          "time": 50.823503999999865,
          "velocity": 0.7244094488188977,
          "duration": 0.14705874999999935
        },
        {
          "name": "F#2",
          "midi": 42,
          "time": 50.999974499999865,
          "velocity": 0.7244094488188977,
          "duration": 0.14705874999999935
        },
        {
          "name": "D2",
          "midi": 38,
          "time": 51.176444999999866,
          "velocity": 0.7244094488188977,
          "duration": 0.14705874999999935
        },
        {
          "name": "F#2",
          "midi": 42,
          "time": 51.176444999999866,
          "velocity": 0.7244094488188977,
          "duration": 0.14705874999999935
        },
        {
          "name": "F#2",
          "midi": 42,
          "time": 51.35291549999987,
          "velocity": 0.7244094488188977,
          "duration": 0.14705874999999935
        },
        {
          "name": "C2",
          "midi": 36,
          "time": 51.52938599999987,
          "velocity": 0.7244094488188977,
          "duration": 0.14705874999999935
        },
        {
          "name": "F#2",
          "midi": 42,
          "time": 51.52938599999987,
          "velocity": 0.7244094488188977,
          "duration": 0.14705874999999935
        },
        {
          "name": "F#2",
          "midi": 42,
          "time": 51.70585649999987,
          "velocity": 0.7244094488188977,
          "duration": 0.14705874999999935
        },
        {
          "name": "D2",
          "midi": 38,
          "time": 51.88232699999987,
          "velocity": 0.7244094488188977,
          "duration": 0.14705874999999935
        },
        {
          "name": "F#2",
          "midi": 42,
          "time": 51.88232699999987,
          "velocity": 0.7244094488188977,
          "duration": 0.14705874999999935
        },
        {
          "name": "F#2",
          "midi": 42,
          "time": 52.05879749999987,
          "velocity": 0.7244094488188977,
          "duration": 0.14705874999999935
        },
        {
          "name": "C2",
          "midi": 36,
          "time": 52.23526799999987,
          "velocity": 0.7244094488188977,
          "duration": 0.14705874999999935
        },
        {
          "name": "F#2",
          "midi": 42,
          "time": 52.23526799999987,
          "velocity": 0.7244094488188977,
          "duration": 0.14705874999999935
        },
        {
          "name": "F#2",
          "midi": 42,
          "time": 52.41173849999987,
          "velocity": 0.7244094488188977,
          "duration": 0.14705874999999935
        },
        {
          "name": "D2",
          "midi": 38,
          "time": 52.58820899999987,
          "velocity": 0.7244094488188977,
          "duration": 0.14705874999999935
        },
        {
          "name": "F#2",
          "midi": 42,
          "time": 52.58820899999987,
          "velocity": 0.7244094488188977,
          "duration": 0.14705874999999935
        },
        {
          "name": "F#2",
          "midi": 42,
          "time": 52.76467949999987,
          "velocity": 0.7244094488188977,
          "duration": 0.14705874999999935
        },
        {
          "name": "C2",
          "midi": 36,
          "time": 52.94114999999987,
          "velocity": 0.7244094488188977,
          "duration": 0.14705874999999935
        },
        {
          "name": "F#2",
          "midi": 42,
          "time": 52.94114999999987,
          "velocity": 0.7244094488188977,
          "duration": 0.14705874999999935
        },
        {
          "name": "F#2",
          "midi": 42,
          "time": 53.11762049999987,
          "velocity": 0.7244094488188977,
          "duration": 0.14705874999999935
        },
        {
          "name": "D2",
          "midi": 38,
          "time": 53.294090999999874,
          "velocity": 0.7244094488188977,
          "duration": 0.14705874999999935
        },
        {
          "name": "F#2",
          "midi": 42,
          "time": 53.294090999999874,
          "velocity": 0.7244094488188977,
          "duration": 0.14705874999999935
        },
        {
          "name": "F#2",
          "midi": 42,
          "time": 53.470561499999874,
          "velocity": 0.7244094488188977,
          "duration": 0.14705874999999935
        },
        {
          "name": "G#2",
          "midi": 44,
          "time": 53.470561499999874,
          "velocity": 0.7244094488188977,
          "duration": 0.14705874999999935
        },
        {
          "name": "A#2",
          "midi": 46,
          "time": 53.470561499999874,
          "velocity": 0.7244094488188977,
          "duration": 0.14705874999999935
        },
        {
          "name": "C2",
          "midi": 36,
          "time": 53.647031999999875,
          "velocity": 0.7244094488188977,
          "duration": 0.14705874999999935
        },
        {
          "name": "F#2",
          "midi": 42,
          "time": 53.647031999999875,
          "velocity": 0.7244094488188977,
          "duration": 0.14705874999999935
        },
        {
          "name": "F#2",
          "midi": 42,
          "time": 53.823502499999876,
          "velocity": 0.7244094488188977,
          "duration": 0.14705874999999935
        },
        {
          "name": "D2",
          "midi": 38,
          "time": 53.999972999999876,
          "velocity": 0.7244094488188977,
          "duration": 0.14705874999999935
        },
        {
          "name": "F#2",
          "midi": 42,
          "time": 53.999972999999876,
          "velocity": 0.7244094488188977,
          "duration": 0.14705874999999935
        },
        {
          "name": "F#2",
          "midi": 42,
          "time": 54.17644349999988,
          "velocity": 0.7244094488188977,
          "duration": 0.14705874999999935
        },
        {
          "name": "C2",
          "midi": 36,
          "time": 54.35291399999988,
          "velocity": 0.7244094488188977,
          "duration": 0.14705874999999935
        },
        {
          "name": "F#2",
          "midi": 42,
          "time": 54.35291399999988,
          "velocity": 0.7244094488188977,
          "duration": 0.14705874999999935
        },
        {
          "name": "F#2",
          "midi": 42,
          "time": 54.52938449999988,
          "velocity": 0.7244094488188977,
          "duration": 0.14705874999999935
        },
        {
          "name": "D2",
          "midi": 38,
          "time": 54.70585499999988,
          "velocity": 0.7244094488188977,
          "duration": 0.14705874999999935
        },
        {
          "name": "F#2",
          "midi": 42,
          "time": 54.70585499999988,
          "velocity": 0.7244094488188977,
          "duration": 0.14705874999999935
        },
        {
          "name": "F#2",
          "midi": 42,
          "time": 54.88232549999988,
          "velocity": 0.7244094488188977,
          "duration": 0.14705874999999935
        },
        {
          "name": "C2",
          "midi": 36,
          "time": 55.05879599999988,
          "velocity": 0.7244094488188977,
          "duration": 0.14705874999999935
        },
        {
          "name": "F#2",
          "midi": 42,
          "time": 55.05879599999988,
          "velocity": 0.7244094488188977,
          "duration": 0.14705874999999935
        },
        {
          "name": "F#2",
          "midi": 42,
          "time": 55.23526649999988,
          "velocity": 0.7244094488188977,
          "duration": 0.14705874999999935
        },
        {
          "name": "D2",
          "midi": 38,
          "time": 55.41173699999988,
          "velocity": 0.7244094488188977,
          "duration": 0.14705874999999935
        },
        {
          "name": "F#2",
          "midi": 42,
          "time": 55.41173699999988,
          "velocity": 0.7244094488188977,
          "duration": 0.14705874999999935
        },
        {
          "name": "F#2",
          "midi": 42,
          "time": 55.58820749999988,
          "velocity": 0.7244094488188977,
          "duration": 0.14705874999999935
        },
        {
          "name": "C2",
          "midi": 36,
          "time": 55.76467799999988,
          "velocity": 0.7244094488188977,
          "duration": 0.14705874999999935
        },
        {
          "name": "F#2",
          "midi": 42,
          "time": 55.76467799999988,
          "velocity": 0.7244094488188977,
          "duration": 0.14705874999999935
        },
        {
          "name": "F#2",
          "midi": 42,
          "time": 55.94114849999988,
          "velocity": 0.7244094488188977,
          "duration": 0.14705874999999935
        },
        {
          "name": "D2",
          "midi": 38,
          "time": 56.117618999999884,
          "velocity": 0.7244094488188977,
          "duration": 0.14705874999999935
        },
        {
          "name": "F#2",
          "midi": 42,
          "time": 56.117618999999884,
          "velocity": 0.7244094488188977,
          "duration": 0.14705874999999935
        },
        {
          "name": "F#2",
          "midi": 42,
          "time": 56.294089499999885,
          "velocity": 0.7244094488188977,
          "duration": 0.14705874999999935
        },
        {
          "name": "G#2",
          "midi": 44,
          "time": 56.294089499999885,
          "velocity": 0.7244094488188977,
          "duration": 0.14705874999999935
        },
        {
          "name": "A#2",
          "midi": 46,
          "time": 56.294089499999885,
          "velocity": 0.7244094488188977,
          "duration": 0.14705874999999935
        },
        {
          "name": "C2",
          "midi": 36,
          "time": 56.470559999999885,
          "velocity": 0.7244094488188977,
          "duration": 0.14705874999999935
        },
        {
          "name": "F#2",
          "midi": 42,
          "time": 56.470559999999885,
          "velocity": 0.7244094488188977,
          "duration": 0.14705874999999935
        },
        {
          "name": "F#2",
          "midi": 42,
          "time": 56.647030499999886,
          "velocity": 0.7244094488188977,
          "duration": 0.14705874999999935
        },
        {
          "name": "D2",
          "midi": 38,
          "time": 56.82350099999989,
          "velocity": 0.7244094488188977,
          "duration": 0.14705874999999935
        },
        {
          "name": "F#2",
          "midi": 42,
          "time": 56.82350099999989,
          "velocity": 0.7244094488188977,
          "duration": 0.14705874999999935
        },
        {
          "name": "F#2",
          "midi": 42,
          "time": 56.99997149999989,
          "velocity": 0.7244094488188977,
          "duration": 0.14705874999999935
        },
        {
          "name": "C2",
          "midi": 36,
          "time": 57.17644199999989,
          "velocity": 0.7244094488188977,
          "duration": 0.14705874999999935
        },
        {
          "name": "F#2",
          "midi": 42,
          "time": 57.17644199999989,
          "velocity": 0.7244094488188977,
          "duration": 0.14705874999999935
        },
        {
          "name": "F#2",
          "midi": 42,
          "time": 57.35291249999989,
          "velocity": 0.7244094488188977,
          "duration": 0.14705874999999935
        },
        {
          "name": "D2",
          "midi": 38,
          "time": 57.52938299999989,
          "velocity": 0.7244094488188977,
          "duration": 0.14705874999999935
        },
        {
          "name": "F#2",
          "midi": 42,
          "time": 57.52938299999989,
          "velocity": 0.7244094488188977,
          "duration": 0.14705874999999935
        },
        {
          "name": "F#2",
          "midi": 42,
          "time": 57.70585349999989,
          "velocity": 0.7244094488188977,
          "duration": 0.14705874999999935
        },
        {
          "name": "C2",
          "midi": 36,
          "time": 57.88232399999989,
          "velocity": 0.7244094488188977,
          "duration": 0.14705874999999935
        },
        {
          "name": "F#2",
          "midi": 42,
          "time": 57.88232399999989,
          "velocity": 0.7244094488188977,
          "duration": 0.14705874999999935
        },
        {
          "name": "F#2",
          "midi": 42,
          "time": 58.05879449999989,
          "velocity": 0.7244094488188977,
          "duration": 0.14705874999999935
        },
        {
          "name": "D2",
          "midi": 38,
          "time": 58.23526499999989,
          "velocity": 0.7244094488188977,
          "duration": 0.14705874999999935
        },
        {
          "name": "F#2",
          "midi": 42,
          "time": 58.23526499999989,
          "velocity": 0.7244094488188977,
          "duration": 0.14705874999999935
        },
        {
          "name": "F#2",
          "midi": 42,
          "time": 58.41173549999989,
          "velocity": 0.7244094488188977,
          "duration": 0.14705874999999935
        },
        {
          "name": "C2",
          "midi": 36,
          "time": 58.58820599999989,
          "velocity": 0.7244094488188977,
          "duration": 0.14705874999999935
        },
        {
          "name": "F#2",
          "midi": 42,
          "time": 58.58820599999989,
          "velocity": 0.7244094488188977,
          "duration": 0.14705874999999935
        },
        {
          "name": "F#2",
          "midi": 42,
          "time": 58.764676499999894,
          "velocity": 0.7244094488188977,
          "duration": 0.14705874999999935
        },
        {
          "name": "D2",
          "midi": 38,
          "time": 58.941146999999894,
          "velocity": 0.7244094488188977,
          "duration": 0.14705874999999935
        },
        {
          "name": "F#2",
          "midi": 42,
          "time": 58.941146999999894,
          "velocity": 0.7244094488188977,
          "duration": 0.14705874999999935
        },
        {
          "name": "F#2",
          "midi": 42,
          "time": 59.117617499999895,
          "velocity": 0.7244094488188977,
          "duration": 0.14705874999999935
        },
        {
          "name": "G#2",
          "midi": 44,
          "time": 59.117617499999895,
          "velocity": 0.7244094488188977,
          "duration": 0.14705874999999935
        },
        {
          "name": "A#2",
          "midi": 46,
          "time": 59.117617499999895,
          "velocity": 0.7244094488188977,
          "duration": 0.14705874999999935
        },
        {
          "name": "C2",
          "midi": 36,
          "time": 59.294087999999896,
          "velocity": 0.7244094488188977,
          "duration": 0.14705874999999935
        },
        {
          "name": "F#2",
          "midi": 42,
          "time": 59.294087999999896,
          "velocity": 0.7244094488188977,
          "duration": 0.14705874999999935
        },
        {
          "name": "F#2",
          "midi": 42,
          "time": 59.470558499999896,
          "velocity": 0.7244094488188977,
          "duration": 0.14705874999999935
        },
        {
          "name": "D2",
          "midi": 38,
          "time": 59.6470289999999,
          "velocity": 0.7244094488188977,
          "duration": 0.14705874999999935
        },
        {
          "name": "F#2",
          "midi": 42,
          "time": 59.6470289999999,
          "velocity": 0.7244094488188977,
          "duration": 0.14705874999999935
        },
        {
          "name": "F#2",
          "midi": 42,
          "time": 59.8234994999999,
          "velocity": 0.7244094488188977,
          "duration": 0.14705874999999935
        },
        {
          "name": "C2",
          "midi": 36,
          "time": 59.9999699999999,
          "velocity": 0.7244094488188977,
          "duration": 0.14705874999999935
        },
        {
          "name": "F#2",
          "midi": 42,
          "time": 59.9999699999999,
          "velocity": 0.7244094488188977,
          "duration": 0.14705874999999935
        },
        {
          "name": "F#2",
          "midi": 42,
          "time": 60.1764404999999,
          "velocity": 0.7244094488188977,
          "duration": 0.14705874999999935
        },
        {
          "name": "D2",
          "midi": 38,
          "time": 60.3529109999999,
          "velocity": 0.7244094488188977,
          "duration": 0.14705874999999935
        },
        {
          "name": "F#2",
          "midi": 42,
          "time": 60.3529109999999,
          "velocity": 0.7244094488188977,
          "duration": 0.14705874999999935
        },
        {
          "name": "F#2",
          "midi": 42,
          "time": 60.5293814999999,
          "velocity": 0.7244094488188977,
          "duration": 0.14705874999999935
        },
        {
          "name": "C2",
          "midi": 36,
          "time": 60.7058519999999,
          "velocity": 0.7244094488188977,
          "duration": 0.14705874999999935
        },
        {
          "name": "F#2",
          "midi": 42,
          "time": 60.7058519999999,
          "velocity": 0.7244094488188977,
          "duration": 0.14705874999999935
        },
        {
          "name": "F#2",
          "midi": 42,
          "time": 60.8823224999999,
          "velocity": 0.7244094488188977,
          "duration": 0.14705874999999935
        },
        {
          "name": "D2",
          "midi": 38,
          "time": 61.0587929999999,
          "velocity": 0.7244094488188977,
          "duration": 0.14705874999999935
        },
        {
          "name": "F#2",
          "midi": 42,
          "time": 61.0587929999999,
          "velocity": 0.7244094488188977,
          "duration": 0.14705874999999935
        },
        {
          "name": "F#2",
          "midi": 42,
          "time": 61.2352634999999,
          "velocity": 0.7244094488188977,
          "duration": 0.14705874999999935
        },
        {
          "name": "C2",
          "midi": 36,
          "time": 61.4117339999999,
          "velocity": 0.7244094488188977,
          "duration": 0.14705874999999935
        },
        {
          "name": "F#2",
          "midi": 42,
          "time": 61.4117339999999,
          "velocity": 0.7244094488188977,
          "duration": 0.14705874999999935
        },
        {
          "name": "F#2",
          "midi": 42,
          "time": 61.588204499999904,
          "velocity": 0.7244094488188977,
          "duration": 0.14705874999999935
        },
        {
          "name": "D2",
          "midi": 38,
          "time": 61.764674999999905,
          "velocity": 0.7244094488188977,
          "duration": 0.14705874999999935
        },
        {
          "name": "F#2",
          "midi": 42,
          "time": 61.764674999999905,
          "velocity": 0.7244094488188977,
          "duration": 0.14705874999999935
        },
        {
          "name": "F#2",
          "midi": 42,
          "time": 61.941145499999905,
          "velocity": 0.7244094488188977,
          "duration": 0.14705874999999935
        },
        {
          "name": "G#2",
          "midi": 44,
          "time": 61.941145499999905,
          "velocity": 0.7244094488188977,
          "duration": 0.14705874999999935
        },
        {
          "name": "A#2",
          "midi": 46,
          "time": 61.941145499999905,
          "velocity": 0.7244094488188977,
          "duration": 0.14705874999999935
        },
        {
          "name": "C2",
          "midi": 36,
          "time": 62.117615999999906,
          "velocity": 0.7244094488188977,
          "duration": 0.2941174999999987
        },
        {
          "name": "G3",
          "midi": 55,
          "time": 62.117615999999906,
          "velocity": 0.7244094488188977,
          "duration": 1.176470000000002
        },
        {
          "name": "A3",
          "midi": 57,
          "time": 62.117615999999906,
          "velocity": 0.7244094488188977,
          "duration": 1.176470000000002
        },
        {
          "name": "D#2",
          "midi": 39,
          "time": 62.47055699999991,
          "velocity": 0.7244094488188977,
          "duration": 0.14705874999999935
        },
        {
          "name": "C2",
          "midi": 36,
          "time": 62.64702749999991,
          "velocity": 0.7244094488188977,
          "duration": 0.14705874999999935
        },
        {
          "name": "C2",
          "midi": 36,
          "time": 62.99996849999991,
          "velocity": 0.7244094488188977,
          "duration": 0.14705874999999935
        },
        {
          "name": "D#2",
          "midi": 39,
          "time": 63.17643899999991,
          "velocity": 0.7244094488188977,
          "duration": 0.14705874999999935
        },
        {
          "name": "C2",
          "midi": 36,
          "time": 63.52937999999991,
          "velocity": 0.7244094488188977,
          "duration": 0.2941174999999987
        },
        {
          "name": "D#2",
          "midi": 39,
          "time": 63.88232099999991,
          "velocity": 0.7244094488188977,
          "duration": 0.14705875000000646
        },
        {
          "name": "C2",
          "midi": 36,
          "time": 64.05879149999991,
          "velocity": 0.7244094488188977,
          "duration": 0.14705874999999935
        },
        {
          "name": "C2",
          "midi": 36,
          "time": 64.41173249999991,
          "velocity": 0.7244094488188977,
          "duration": 0.14705874999999935
        },
        {
          "name": "D#2",
          "midi": 39,
          "time": 64.58820299999991,
          "velocity": 0.7244094488188977,
          "duration": 0.14705874999999935
        },
        {
          "name": "C2",
          "midi": 36,
          "time": 64.94114399999991,
          "velocity": 0.7244094488188977,
          "duration": 0.2941174999999987
        },
        {
          "name": "G3",
          "midi": 55,
          "time": 64.94114399999991,
          "velocity": 0.7244094488188977,
          "duration": 1.1764699999999948
        },
        {
          "name": "A3",
          "midi": 57,
          "time": 64.94114399999991,
          "velocity": 0.7244094488188977,
          "duration": 1.1764699999999948
        },
        {
          "name": "D#2",
          "midi": 39,
          "time": 65.29408499999991,
          "velocity": 0.7244094488188977,
          "duration": 0.14705874999999935
        },
        {
          "name": "C2",
          "midi": 36,
          "time": 65.4705554999999,
          "velocity": 0.7244094488188977,
          "duration": 0.14705874999999935
        },
        {
          "name": "C2",
          "midi": 36,
          "time": 65.8234964999999,
          "velocity": 0.7244094488188977,
          "duration": 0.14705874999999935
        },
        {
          "name": "D#2",
          "midi": 39,
          "time": 65.9999669999999,
          "velocity": 0.7244094488188977,
          "duration": 0.14705874999999935
        },
        {
          "name": "C2",
          "midi": 36,
          "time": 66.3529079999999,
          "velocity": 0.7244094488188977,
          "duration": 0.2941174999999987
        },
        {
          "name": "D#2",
          "midi": 39,
          "time": 66.7058489999999,
          "velocity": 0.7244094488188977,
          "duration": 0.14705874999999935
        },
        {
          "name": "C2",
          "midi": 36,
          "time": 66.8823194999999,
          "velocity": 0.7244094488188977,
          "duration": 0.14705874999999935
        },
        {
          "name": "C2",
          "midi": 36,
          "time": 67.2352604999999,
          "velocity": 0.7244094488188977,
          "duration": 0.14705874999999935
        },
        {
          "name": "D#2",
          "midi": 39,
          "time": 67.41173099999989,
          "velocity": 0.7244094488188977,
          "duration": 0.14705874999999935
        },
        {
          "name": "C2",
          "midi": 36,
          "time": 67.76467199999989,
          "velocity": 0.7244094488188977,
          "duration": 0.2941174999999987
        },
        {
          "name": "G3",
          "midi": 55,
          "time": 67.76467199999989,
          "velocity": 0.7244094488188977,
          "duration": 1.1764699999999948
        },
        {
          "name": "A3",
          "midi": 57,
          "time": 67.76467199999989,
          "velocity": 0.7244094488188977,
          "duration": 1.1764699999999948
        },
        {
          "name": "D#2",
          "midi": 39,
          "time": 68.11761299999989,
          "velocity": 0.7244094488188977,
          "duration": 0.14705874999999935
        },
        {
          "name": "C2",
          "midi": 36,
          "time": 68.29408349999989,
          "velocity": 0.7244094488188977,
          "duration": 0.14705874999999935
        },
        {
          "name": "C2",
          "midi": 36,
          "time": 68.64702449999989,
          "velocity": 0.7244094488188977,
          "duration": 0.14705874999999935
        },
        {
          "name": "D#2",
          "midi": 39,
          "time": 68.82349499999988,
          "velocity": 0.7244094488188977,
          "duration": 0.14705874999999935
        },
        {
          "name": "C2",
          "midi": 36,
          "time": 69.17643599999988,
          "velocity": 0.7244094488188977,
          "duration": 0.2941174999999987
        },
        {
          "name": "D#2",
          "midi": 39,
          "time": 69.52937699999988,
          "velocity": 0.7244094488188977,
          "duration": 0.14705874999999935
        },
        {
          "name": "C2",
          "midi": 36,
          "time": 69.70584749999988,
          "velocity": 0.7244094488188977,
          "duration": 0.14705874999999935
        },
        {
          "name": "C2",
          "midi": 36,
          "time": 70.05878849999988,
          "velocity": 0.7244094488188977,
          "duration": 0.14705874999999935
        },
        {
          "name": "D#2",
          "midi": 39,
          "time": 70.23525899999987,
          "velocity": 0.7244094488188977,
          "duration": 0.14705874999999935
        },
        {
          "name": "C2",
          "midi": 36,
          "time": 70.58819999999987,
          "velocity": 0.7244094488188977,
          "duration": 0.2941174999999987
        },
        {
          "name": "G3",
          "midi": 55,
          "time": 70.58819999999987,
          "velocity": 0.7244094488188977,
          "duration": 1.1764699999999948
        },
        {
          "name": "A3",
          "midi": 57,
          "time": 70.58819999999987,
          "velocity": 0.7244094488188977,
          "duration": 1.1764699999999948
        },
        {
          "name": "D#2",
          "midi": 39,
          "time": 70.94114099999987,
          "velocity": 0.7244094488188977,
          "duration": 0.14705874999999935
        },
        {
          "name": "C2",
          "midi": 36,
          "time": 71.11761149999987,
          "velocity": 0.7244094488188977,
          "duration": 0.14705874999999935
        },
        {
          "name": "C2",
          "midi": 36,
          "time": 71.47055249999987,
          "velocity": 0.7244094488188977,
          "duration": 0.14705874999999935
        },
        {
          "name": "D#2",
          "midi": 39,
          "time": 71.64702299999986,
          "velocity": 0.7244094488188977,
          "duration": 0.14705874999999935
        },
        {
          "name": "C2",
          "midi": 36,
          "time": 71.99996399999986,
          "velocity": 0.7244094488188977,
          "duration": 0.2941174999999987
        },
        {
          "name": "D#2",
          "midi": 39,
          "time": 72.35290499999986,
          "velocity": 0.7244094488188977,
          "duration": 0.14705874999999935
        },
        {
          "name": "C2",
          "midi": 36,
          "time": 72.52937549999986,
          "velocity": 0.7244094488188977,
          "duration": 0.14705874999999935
        },
        {
          "name": "C2",
          "midi": 36,
          "time": 72.88231649999986,
          "velocity": 0.7244094488188977,
          "duration": 0.14705874999999935
        },
        {
          "name": "D#2",
          "midi": 39,
          "time": 73.05878699999985,
          "velocity": 0.7244094488188977,
          "duration": 0.14705874999999935
        },
        {
          "name": "C2",
          "midi": 36,
          "time": 73.41172799999985,
          "velocity": 0.7244094488188977,
          "duration": 0.2941174999999987
        },
        {
          "name": "G3",
          "midi": 55,
          "time": 73.41172799999985,
          "velocity": 0.7244094488188977,
          "duration": 1.1764699999999948
        },
        {
          "name": "A3",
          "midi": 57,
          "time": 73.41172799999985,
          "velocity": 0.7244094488188977,
          "duration": 1.1764699999999948
        },
        {
          "name": "D#2",
          "midi": 39,
          "time": 73.76466899999986,
          "velocity": 0.7244094488188977,
          "duration": 0.14705874999999935
        },
        {
          "name": "C2",
          "midi": 36,
          "time": 73.94113949999985,
          "velocity": 0.7244094488188977,
          "duration": 0.14705874999999935
        },
        {
          "name": "C2",
          "midi": 36,
          "time": 74.29408049999985,
          "velocity": 0.7244094488188977,
          "duration": 0.14705874999999935
        },
        {
          "name": "D#2",
          "midi": 39,
          "time": 74.47055099999984,
          "velocity": 0.7244094488188977,
          "duration": 0.14705874999999935
        },
        {
          "name": "C2",
          "midi": 36,
          "time": 74.82349199999985,
          "velocity": 0.7244094488188977,
          "duration": 0.2941174999999987
        },
        {
          "name": "D#2",
          "midi": 39,
          "time": 75.17643299999985,
          "velocity": 0.7244094488188977,
          "duration": 0.14705874999999935
        },
        {
          "name": "C2",
          "midi": 36,
          "time": 75.35290349999984,
          "velocity": 0.7244094488188977,
          "duration": 0.14705874999999935
        },
        {
          "name": "C2",
          "midi": 36,
          "time": 75.70584449999984,
          "velocity": 0.7244094488188977,
          "duration": 0.14705874999999935
        },
        {
          "name": "D#2",
          "midi": 39,
          "time": 75.88231499999983,
          "velocity": 0.7244094488188977,
          "duration": 0.14705874999999935
        },
        {
          "name": "C2",
          "midi": 36,
          "time": 76.23525599999984,
          "velocity": 0.7244094488188977,
          "duration": 0.2941174999999987
        },
        {
          "name": "G3",
          "midi": 55,
          "time": 76.23525599999984,
          "velocity": 0.7244094488188977,
          "duration": 1.1764699999999948
        },
        {
          "name": "A3",
          "midi": 57,
          "time": 76.23525599999984,
          "velocity": 0.7244094488188977,
          "duration": 1.1764699999999948
        },
        {
          "name": "D#2",
          "midi": 39,
          "time": 76.58819699999984,
          "velocity": 0.7244094488188977,
          "duration": 0.14705874999999935
        },
        {
          "name": "C2",
          "midi": 36,
          "time": 76.76466749999983,
          "velocity": 0.7244094488188977,
          "duration": 0.14705874999999935
        },
        {
          "name": "C2",
          "midi": 36,
          "time": 77.11760849999983,
          "velocity": 0.7244094488188977,
          "duration": 0.14705874999999935
        },
        {
          "name": "D#2",
          "midi": 39,
          "time": 77.29407899999983,
          "velocity": 0.7244094488188977,
          "duration": 0.14705874999999935
        },
        {
          "name": "C2",
          "midi": 36,
          "time": 77.64701999999983,
          "velocity": 0.7244094488188977,
          "duration": 0.2941174999999987
        },
        {
          "name": "D#2",
          "midi": 39,
          "time": 77.99996099999983,
          "velocity": 0.7244094488188977,
          "duration": 0.14705874999999935
        },
        {
          "name": "C2",
          "midi": 36,
          "time": 78.17643149999982,
          "velocity": 0.7244094488188977,
          "duration": 0.14705874999999935
        },
        {
          "name": "C2",
          "midi": 36,
          "time": 78.52937249999982,
          "velocity": 0.7244094488188977,
          "duration": 0.14705874999999935
        },
        {
          "name": "D#2",
          "midi": 39,
          "time": 78.70584299999982,
          "velocity": 0.7244094488188977,
          "duration": 0.14705874999999935
        },
        {
          "name": "C2",
          "midi": 36,
          "time": 79.05878399999982,
          "velocity": 0.7244094488188977,
          "duration": 0.2941174999999987
        },
        {
          "name": "G3",
          "midi": 55,
          "time": 79.05878399999982,
          "velocity": 0.7244094488188977,
          "duration": 1.1764699999999948
        },
        {
          "name": "A3",
          "midi": 57,
          "time": 79.05878399999982,
          "velocity": 0.7244094488188977,
          "duration": 1.1764699999999948
        },
        {
          "name": "D#2",
          "midi": 39,
          "time": 79.41172499999982,
          "velocity": 0.7244094488188977,
          "duration": 0.14705874999999935
        },
        {
          "name": "C2",
          "midi": 36,
          "time": 79.58819549999981,
          "velocity": 0.7244094488188977,
          "duration": 0.14705874999999935
        },
        {
          "name": "C2",
          "midi": 36,
          "time": 79.94113649999981,
          "velocity": 0.7244094488188977,
          "duration": 0.14705874999999935
        },
        {
          "name": "D#2",
          "midi": 39,
          "time": 80.11760699999981,
          "velocity": 0.7244094488188977,
          "duration": 0.14705874999999935
        },
        {
          "name": "C2",
          "midi": 36,
          "time": 80.47054799999981,
          "velocity": 0.7244094488188977,
          "duration": 0.2941174999999987
        },
        {
          "name": "D#2",
          "midi": 39,
          "time": 80.82348899999981,
          "velocity": 0.7244094488188977,
          "duration": 0.14705874999999935
        },
        {
          "name": "C2",
          "midi": 36,
          "time": 80.9999594999998,
          "velocity": 0.7244094488188977,
          "duration": 0.14705874999999935
        },
        {
          "name": "C2",
          "midi": 36,
          "time": 81.3529004999998,
          "velocity": 0.7244094488188977,
          "duration": 0.14705874999999935
        },
        {
          "name": "D#2",
          "midi": 39,
          "time": 81.5293709999998,
          "velocity": 0.7244094488188977,
          "duration": 0.14705874999999935
        },
        {
          "name": "C2",
          "midi": 36,
          "time": 81.8823119999998,
          "velocity": 0.7244094488188977,
          "duration": 0.2941174999999987
        },
        {
          "name": "G3",
          "midi": 55,
          "time": 81.8823119999998,
          "velocity": 0.7244094488188977,
          "duration": 1.1764699999999948
        },
        {
          "name": "A3",
          "midi": 57,
          "time": 81.8823119999998,
          "velocity": 0.7244094488188977,
          "duration": 1.1764699999999948
        },
        {
          "name": "D#2",
          "midi": 39,
          "time": 82.2352529999998,
          "velocity": 0.7244094488188977,
          "duration": 0.14705874999999935
        },
        {
          "name": "C2",
          "midi": 36,
          "time": 82.4117234999998,
          "velocity": 0.7244094488188977,
          "duration": 0.14705874999999935
        },
        {
          "name": "C2",
          "midi": 36,
          "time": 82.7646644999998,
          "velocity": 0.7244094488188977,
          "duration": 0.14705874999999935
        },
        {
          "name": "D#2",
          "midi": 39,
          "time": 82.94113499999979,
          "velocity": 0.7244094488188977,
          "duration": 0.14705874999999935
        },
        {
          "name": "C2",
          "midi": 36,
          "time": 83.29407599999979,
          "velocity": 0.7244094488188977,
          "duration": 0.2941174999999987
        },
        {
          "name": "D#2",
          "midi": 39,
          "time": 83.64701699999979,
          "velocity": 0.7244094488188977,
          "duration": 0.14705874999999935
        },
        {
          "name": "C2",
          "midi": 36,
          "time": 83.82348749999979,
          "velocity": 0.7244094488188977,
          "duration": 0.14705874999999935
        },
        {
          "name": "C2",
          "midi": 36,
          "time": 84.17642849999979,
          "velocity": 0.7244094488188977,
          "duration": 0.14705874999999935
        },
        {
          "name": "D#2",
          "midi": 39,
          "time": 84.35289899999978,
          "velocity": 0.7244094488188977,
          "duration": 0.14705874999999935
        },
        {
          "name": "D2",
          "midi": 38,
          "time": 85.05878099999978,
          "velocity": 0.5905511811023622,
          "duration": 0.2941174999999987
        },
        {
          "name": "D2",
          "midi": 38,
          "time": 85.76466299999979,
          "velocity": 0.5905511811023622,
          "duration": 0.2941174999999987
        },
        {
          "name": "D2",
          "midi": 38,
          "time": 86.47054499999979,
          "velocity": 0.5905511811023622,
          "duration": 0.2941174999999987
        },
        {
          "name": "D2",
          "midi": 38,
          "time": 87.17642699999979,
          "velocity": 0.5905511811023622,
          "duration": 0.2941174999999987
        },
        {
          "name": "D2",
          "midi": 38,
          "time": 87.8823089999998,
          "velocity": 0.5905511811023622,
          "duration": 0.2941174999999987
        },
        {
          "name": "D2",
          "midi": 38,
          "time": 88.5881909999998,
          "velocity": 0.5905511811023622,
          "duration": 0.2941174999999987
        },
        {
          "name": "D2",
          "midi": 38,
          "time": 89.2940729999998,
          "velocity": 0.5905511811023622,
          "duration": 0.2941174999999987
        },
        {
          "name": "D2",
          "midi": 38,
          "time": 89.6470139999998,
          "velocity": 0.5905511811023622,
          "duration": 0.2941174999999987
        },
        {
          "name": "D2",
          "midi": 38,
          "time": 89.9999549999998,
          "velocity": 0.5905511811023622,
          "duration": 0.2941174999999987
        },
        {
          "name": "D2",
          "midi": 38,
          "time": 90.7058369999998,
          "velocity": 0.47244094488188976,
          "duration": 0.2941174999999987
        },
        {
          "name": "D2",
          "midi": 38,
          "time": 91.4117189999998,
          "velocity": 0.47244094488188976,
          "duration": 0.2941174999999987
        },
        {
          "name": "D2",
          "midi": 38,
          "time": 92.11760099999981,
          "velocity": 0.3543307086614173,
          "duration": 0.2941174999999987
        },
        {
          "name": "D2",
          "midi": 38,
          "time": 92.82348299999981,
          "velocity": 0.3543307086614173,
          "duration": 0.2941174999999987
        },
        {
          "name": "D2",
          "midi": 38,
          "time": 93.52936499999981,
          "velocity": 0.23622047244094488,
          "duration": 0.2941174999999987
        },
        {
          "name": "D2",
          "midi": 38,
          "time": 94.23524699999982,
          "velocity": 0.23622047244094488,
          "duration": 0.2941174999999987
        }
      ],
      "controlChanges": {
        "7": [
          {
            "number": 7,
            "time": 0,
            "value": 1
          }
        ],
        "10": [
          {
            "number": 10,
            "time": 0,
            "value": 0.5039370078740157
          }
        ]
      }
    }
  ]
}