{
  "header": {
    "PPQ": 480,
    "timeSignature": [
      4,
      4
    ],
    "bpm": 181.9996299340858
  },
  "startTime": 0,
  "duration": 99.23028418541668,
  "tracks": [
    {
      "startTime": 11.208814000000002,
      "duration": 29.669703185416637,
      "length": 47,
      "id": 0,
      "instrumentNumber": 71,
      "instrument": "clarinet",
      "instrumentFamily": "reed",
      "channelNumber": 0,
      "isPercussion": false,
      "notes": [
        {
          "name": "A#5",
          "midi": 82,
          "time": 11.208814000000002,
          "velocity": 0.7559055118110236,
          "duration": 0.3289841854166671
        },
        {
          "name": "G5",
          "midi": 79,
          "time": 11.538485000000003,
          "velocity": 0.7559055118110236,
          "duration": 0.3289841854166671
        },
        {
          "name": "F5",
          "midi": 77,
          "time": 11.868156000000004,
          "velocity": 0.7559055118110236,
          "duration": 0.3289841854166671
        },
        {
          "name": "D#5",
          "midi": 75,
          "time": 12.197827000000006,
          "velocity": 0.7559055118110236,
          "duration": 0.1641486854166665
        },
        {
          "name": "F5",
          "midi": 77,
          "time": 12.362662500000006,
          "velocity": 0.7559055118110236,
          "duration": 0.3289841854166671
        },
        {
          "name": "D#5",
          "midi": 75,
          "time": 12.692333500000007,
          "velocity": 0.7559055118110236,
          "duration": 0.1641486854166665
        },
        {
          "name": "F5",
          "midi": 77,
          "time": 12.857169000000008,
          "velocity": 0.7559055118110236,
          "duration": 0.1641486854166665
        },
        {
          "name": "D#5",
          "midi": 75,
          "time": 13.022004500000008,
          "velocity": 0.7559055118110236,
          "duration": 0.1641486854166665
        },
        {
          "name": "F5",
          "midi": 77,
          "time": 13.186840000000009,
          "velocity": 0.7559055118110236,
          "duration": 0.3289841854166671
        },
        {
          "name": "A#4",
          "midi": 70,
          "time": 13.51651100000001,
          "velocity": 0.7559055118110236,
          "duration": 0.3289841854166671
        },
        {
          "name": "G5",
          "midi": 79,
          "time": 13.846182000000011,
          "velocity": 0.7559055118110236,
          "duration": 0.3289841854166671
        },
        {
          "name": "G#5",
          "midi": 80,
          "time": 14.175853000000012,
          "velocity": 0.7559055118110236,
          "duration": 0.1641486854166665
        },
        {
          "name": "G5",
          "midi": 79,
          "time": 14.340688500000013,
          "velocity": 0.7559055118110236,
          "duration": 0.3289841854166671
        },
        {
          "name": "F5",
          "midi": 77,
          "time": 14.670359500000014,
          "velocity": 0.7559055118110236,
          "duration": 0.1641486854166665
        },
        {
          "name": "D#5",
          "midi": 75,
          "time": 14.835195000000015,
          "velocity": 0.7559055118110236,
          "duration": 0.3289841854166671
        },
        {
          "name": "D#5",
          "midi": 75,
          "time": 15.494537000000015,
          "velocity": 0.7559055118110236,
          "duration": 0.3289841854166671
        },
        {
          "name": "F5",
          "midi": 77,
          "time": 15.824208000000016,
          "velocity": 0.7559055118110236,
          "duration": 0.3289841854166653
        },
        {
          "name": "D#5",
          "midi": 75,
          "time": 16.153879000000014,
          "velocity": 0.7559055118110236,
          "duration": 0.3289841854166653
        },
        {
          "name": "D5",
          "midi": 74,
          "time": 16.48355000000001,
          "velocity": 0.7559055118110236,
          "duration": 0.3289841854166653
        },
        {
          "name": "D#5",
          "midi": 75,
          "time": 16.81322100000001,
          "velocity": 0.7559055118110236,
          "duration": 0.1641486854166665
        },
        {
          "name": "G5",
          "midi": 79,
          "time": 16.978056500000008,
          "velocity": 0.7559055118110236,
          "duration": 0.3289841854166653
        },
        {
          "name": "G5",
          "midi": 79,
          "time": 17.472563000000008,
          "velocity": 0.7559055118110236,
          "duration": 0.3289841854166653
        },
        {
          "name": "G5",
          "midi": 79,
          "time": 17.802234000000006,
          "velocity": 0.7559055118110236,
          "duration": 0.3289841854166653
        },
        {
          "name": "C5",
          "midi": 72,
          "time": 18.131905000000003,
          "velocity": 0.7559055118110236,
          "duration": 0.1641486854166665
        },
        {
          "name": "C5",
          "midi": 72,
          "time": 18.296740500000002,
          "velocity": 0.7559055118110236,
          "duration": 0.49381968541666765
        },
        {
          "name": "C5",
          "midi": 72,
          "time": 18.791247000000002,
          "velocity": 0.7559055118110236,
          "duration": 0.3289841854166653
        },
        {
          "name": "D5",
          "midi": 74,
          "time": 19.120918,
          "velocity": 0.7559055118110236,
          "duration": 0.3289841854166653
        },
        {
          "name": "D#5",
          "midi": 75,
          "time": 19.450588999999997,
          "velocity": 0.7559055118110236,
          "duration": 0.1641486854166665
        },
        {
          "name": "D#5",
          "midi": 75,
          "time": 19.615424499999996,
          "velocity": 0.7559055118110236,
          "duration": 0.49381968541666765
        },
        {
          "name": "D#5",
          "midi": 75,
          "time": 21.098943999999996,
          "velocity": 0.7559055118110236,
          "duration": 0.6586551854166665
        },
        {
          "name": "D#5",
          "midi": 75,
          "time": 21.758285999999995,
          "velocity": 0.7559055118110236,
          "duration": 0.6586551854166665
        },
        {
          "name": "F5",
          "midi": 77,
          "time": 22.417627999999993,
          "velocity": 0.7559055118110236,
          "duration": 0.6586551854166665
        },
        {
          "name": "D#5",
          "midi": 75,
          "time": 23.076969999999992,
          "velocity": 0.7559055118110236,
          "duration": 0.3289841854166653
        },
        {
          "name": "F5",
          "midi": 77,
          "time": 23.40664099999999,
          "velocity": 0.7559055118110236,
          "duration": 0.3289841854166653
        },
        {
          "name": "G5",
          "midi": 79,
          "time": 23.736311999999987,
          "velocity": 0.7559055118110236,
          "duration": 0.3289841854166653
        },
        {
          "name": "G#5",
          "midi": 80,
          "time": 24.065982999999985,
          "velocity": 0.7559055118110236,
          "duration": 0.3289841854166653
        },
        {
          "name": "G5",
          "midi": 79,
          "time": 24.395653999999983,
          "velocity": 0.7559055118110236,
          "duration": 0.3289841854166653
        },
        {
          "name": "F5",
          "midi": 77,
          "time": 24.72532499999998,
          "velocity": 0.7559055118110236,
          "duration": 0.1641486854166665
        },
        {
          "name": "F5",
          "midi": 77,
          "time": 24.89016049999998,
          "velocity": 0.7559055118110236,
          "duration": 0.1641486854166665
        },
        {
          "name": "D#5",
          "midi": 75,
          "time": 25.054995999999978,
          "velocity": 0.7559055118110236,
          "duration": 0.3289841854166653
        },
        {
          "name": "D5",
          "midi": 74,
          "time": 25.714337999999977,
          "velocity": 0.7559055118110236,
          "duration": 0.3289841854166653
        },
        {
          "name": "D#5",
          "midi": 75,
          "time": 26.044008999999974,
          "velocity": 0.7559055118110236,
          "duration": 0.1641486854166665
        },
        {
          "name": "F5",
          "midi": 77,
          "time": 26.208844499999973,
          "velocity": 0.7559055118110236,
          "duration": 0.49381968541666765
        },
        {
          "name": "G5",
          "midi": 79,
          "time": 27.033021999999974,
          "velocity": 0.7559055118110236,
          "duration": 0.3289841854166653
        },
        {
          "name": "F5",
          "midi": 77,
          "time": 27.36269299999997,
          "velocity": 0.7559055118110236,
          "duration": 0.6586551854166665
        },
        {
          "name": "D#5",
          "midi": 75,
          "time": 28.35170599999997,
          "velocity": 0.7559055118110236,
          "duration": 0.3289841854166653
        },
        {
          "name": "D#5",
          "midi": 75,
          "time": 28.68137699999997,
          "velocity": 0.7559055118110236,
          "duration": 0.9883261854166676
        }
      ],
      "controlChanges": {
        "7": [
          {
            "number": 7,
            "time": 0,
            "value": 0.7874015748031497
          }
        ],
        "10": [
          {
            "number": 10,
            "time": 0,
            "value": 0.5039370078740157
          }
        ],
        "91": [
          {
            "number": 91,
            "time": 0,
            "value": 0
          }
        ],
        "93": [
          {
            "number": 93,
            "time": 0,
            "value": 0
          }
        ],
        "121": [
          {
            "number": 121,
            "time": 0,
            "value": 0
          }
        ]
      }
    },
    {
      "startTime": 31.648416000000005,
      "duration": 44.5048981854167,
      "length": 36,
      "id": 1,
      "instrumentNumber": 67,
      "instrument": "baritone sax",
      "instrumentFamily": "reed",
      "channelNumber": 1,
      "isPercussion": false,
      "notes": [
        {
          "name": "D#6",
          "midi": 87,
          "time": 31.648416000000005,
          "velocity": 0.6299212598425197,
          "duration": 0.1641486854166665
        },
        {
          "name": "D#6",
          "midi": 87,
          "time": 31.813251500000003,
          "velocity": 0.6299212598425197,
          "duration": 0.1641486854166665
        },
        {
          "name": "D#6",
          "midi": 87,
          "time": 31.978087000000002,
          "velocity": 0.6299212598425197,
          "duration": 0.16414868541667005
        },
        {
          "name": "D#6",
          "midi": 87,
          "time": 32.142922500000005,
          "velocity": 0.6299212598425197,
          "duration": 0.16414868541667005
        },
        {
          "name": "D#6",
          "midi": 87,
          "time": 32.30775800000001,
          "velocity": 0.6299212598425197,
          "duration": 0.3289841854166653
        },
        {
          "name": "D#6",
          "midi": 87,
          "time": 32.637429000000004,
          "velocity": 0.6299212598425197,
          "duration": 0.16414868541667005
        },
        {
          "name": "D#6",
          "midi": 87,
          "time": 32.80226450000001,
          "velocity": 0.6299212598425197,
          "duration": 0.16414868541667005
        },
        {
          "name": "D6",
          "midi": 86,
          "time": 32.96710000000001,
          "velocity": 0.6299212598425197,
          "duration": 0.16414868541667005
        },
        {
          "name": "D#6",
          "midi": 87,
          "time": 33.13193550000001,
          "velocity": 0.6299212598425197,
          "duration": 0.3289841854166653
        },
        {
          "name": "D#6",
          "midi": 87,
          "time": 33.46160650000001,
          "velocity": 0.6299212598425197,
          "duration": 0.3289841854166653
        },
        {
          "name": "D#6",
          "midi": 87,
          "time": 34.28578400000001,
          "velocity": 0.6299212598425197,
          "duration": 0.16414868541667005
        },
        {
          "name": "D#6",
          "midi": 87,
          "time": 34.45061950000001,
          "velocity": 0.6299212598425197,
          "duration": 0.16414868541667005
        },
        {
          "name": "D#6",
          "midi": 87,
          "time": 34.61545500000001,
          "velocity": 0.6299212598425197,
          "duration": 0.16414868541667005
        },
        {
          "name": "D#6",
          "midi": 87,
          "time": 34.780290500000014,
          "velocity": 0.6299212598425197,
          "duration": 0.16414868541667005
        },
        {
          "name": "D#6",
          "midi": 87,
          "time": 34.945126000000016,
          "velocity": 0.6299212598425197,
          "duration": 0.3289841854166653
        },
        {
          "name": "D#6",
          "midi": 87,
          "time": 35.274797000000014,
          "velocity": 0.6299212598425197,
          "duration": 0.16414868541667005
        },
        {
          "name": "D#6",
          "midi": 87,
          "time": 35.439632500000016,
          "velocity": 0.6299212598425197,
          "duration": 0.16414868541667005
        },
        {
          "name": "D6",
          "midi": 86,
          "time": 35.60446800000002,
          "velocity": 0.6299212598425197,
          "duration": 0.16414868541667005
        },
        {
          "name": "D#6",
          "midi": 87,
          "time": 35.76930350000002,
          "velocity": 0.6299212598425197,
          "duration": 0.3289841854166653
        },
        {
          "name": "D#6",
          "midi": 87,
          "time": 36.09897450000002,
          "velocity": 0.6299212598425197,
          "duration": 0.3289841854166653
        },
        {
          "name": "D#6",
          "midi": 87,
          "time": 36.923152000000016,
          "velocity": 0.6299212598425197,
          "duration": 0.16414868541667005
        },
        {
          "name": "D#6",
          "midi": 87,
          "time": 37.08798750000002,
          "velocity": 0.6299212598425197,
          "duration": 0.16414868541667005
        },
        {
          "name": "D#6",
          "midi": 87,
          "time": 37.25282300000002,
          "velocity": 0.6299212598425197,
          "duration": 0.16414868541667005
        },
        {
          "name": "D#6",
          "midi": 87,
          "time": 37.41765850000002,
          "velocity": 0.6299212598425197,
          "duration": 0.16414868541667005
        },
        {
          "name": "D#6",
          "midi": 87,
          "time": 37.582494000000025,
          "velocity": 0.6299212598425197,
          "duration": 0.3289841854166653
        },
        {
          "name": "D#6",
          "midi": 87,
          "time": 37.91216500000002,
          "velocity": 0.6299212598425197,
          "duration": 0.16414868541667005
        },
        {
          "name": "D#6",
          "midi": 87,
          "time": 38.077000500000025,
          "velocity": 0.6299212598425197,
          "duration": 0.16414868541667005
        },
        {
          "name": "G6",
          "midi": 91,
          "time": 38.24183600000003,
          "velocity": 0.6299212598425197,
          "duration": 0.16414868541667005
        },
        {
          "name": "F6",
          "midi": 89,
          "time": 38.40667150000003,
          "velocity": 0.6299212598425197,
          "duration": 0.3289841854166653
        },
        {
          "name": "D#6",
          "midi": 87,
          "time": 38.73634250000003,
          "velocity": 0.6299212598425197,
          "duration": 0.16414868541667005
        },
        {
          "name": "D#6",
          "midi": 87,
          "time": 39.23084900000003,
          "velocity": 0.6299212598425197,
          "duration": 0.16414868541667005
        },
        {
          "name": "F6",
          "midi": 89,
          "time": 39.39568450000003,
          "velocity": 0.6299212598425197,
          "duration": 1.4828326854166676
        },
        {
          "name": "A#5",
          "midi": 82,
          "time": 41.86821700000003,
          "velocity": 0.6299212598425197,
          "duration": 0.16414868541667005
        },
        {
          "name": "A#6",
          "midi": 94,
          "time": 42.03305250000003,
          "velocity": 0.6299212598425197,
          "duration": 1.4828326854166676
        },
        {
          "name": "G#6",
          "midi": 92,
          "time": 43.51657200000003,
          "velocity": 0.6299212598425197,
          "duration": 0.65865518541667
        },
        {
          "name": "A#6",
          "midi": 94,
          "time": 44.175914000000034,
          "velocity": 0.6299212598425197,
          "duration": 0.3289841854166653
        }
      ],
      "controlChanges": {
        "7": [
          {
            "number": 7,
            "time": 0,
            "value": 0.7874015748031497
          }
        ],
        "10": [
          {
            "number": 10,
            "time": 0,
            "value": 0.5039370078740157
          }
        ],
        "91": [
          {
            "number": 91,
            "time": 0,
            "value": 0
          }
        ],
        "93": [
          {
            "number": 93,
            "time": 0,
            "value": 0
          }
        ],
        "121": [
          {
            "number": 121,
            "time": 0,
            "value": 0
          }
        ]
      }
    },
    {
      "startTime": 31.648416000000005,
      "duration": 44.5048981854167,
      "length": 36,
      "id": 2,
      "instrumentNumber": 67,
      "instrument": "baritone sax",
      "instrumentFamily": "reed",
      "channelNumber": 2,
      "isPercussion": false,
      "notes": [
        {
          "name": "D#5",
          "midi": 75,
          "time": 31.648416000000005,
          "velocity": 0.6299212598425197,
          "duration": 0.1641486854166665
        },
        {
          "name": "D#5",
          "midi": 75,
          "time": 31.813251500000003,
          "velocity": 0.6299212598425197,
          "duration": 0.1641486854166665
        },
        {
          "name": "D#5",
          "midi": 75,
          "time": 31.978087000000002,
          "velocity": 0.6299212598425197,
          "duration": 0.16414868541667005
        },
        {
          "name": "D#5",
          "midi": 75,
          "time": 32.142922500000005,
          "velocity": 0.6299212598425197,
          "duration": 0.16414868541667005
        },
        {
          "name": "D#5",
          "midi": 75,
          "time": 32.30775800000001,
          "velocity": 0.6299212598425197,
          "duration": 0.3289841854166653
        },
        {
          "name": "D#5",
          "midi": 75,
          "time": 32.637429000000004,
          "velocity": 0.6299212598425197,
          "duration": 0.16414868541667005
        },
        {
          "name": "D#5",
          "midi": 75,
          "time": 32.80226450000001,
          "velocity": 0.6299212598425197,
          "duration": 0.16414868541667005
        },
        {
          "name": "D5",
          "midi": 74,
          "time": 32.96710000000001,
          "velocity": 0.6299212598425197,
          "duration": 0.16414868541667005
        },
        {
          "name": "D#5",
          "midi": 75,
          "time": 33.13193550000001,
          "velocity": 0.6299212598425197,
          "duration": 0.3289841854166653
        },
        {
          "name": "D#5",
          "midi": 75,
          "time": 33.46160650000001,
          "velocity": 0.6299212598425197,
          "duration": 0.3289841854166653
        },
        {
          "name": "D#5",
          "midi": 75,
          "time": 34.28578400000001,
          "velocity": 0.6299212598425197,
          "duration": 0.16414868541667005
        },
        {
          "name": "D#5",
          "midi": 75,
          "time": 34.45061950000001,
          "velocity": 0.6299212598425197,
          "duration": 0.16414868541667005
        },
        {
          "name": "D#5",
          "midi": 75,
          "time": 34.61545500000001,
          "velocity": 0.6299212598425197,
          "duration": 0.16414868541667005
        },
        {
          "name": "D#5",
          "midi": 75,
          "time": 34.780290500000014,
          "velocity": 0.6299212598425197,
          "duration": 0.16414868541667005
        },
        {
          "name": "D#5",
          "midi": 75,
          "time": 34.945126000000016,
          "velocity": 0.6299212598425197,
          "duration": 0.3289841854166653
        },
        {
          "name": "D#5",
          "midi": 75,
          "time": 35.274797000000014,
          "velocity": 0.6299212598425197,
          "duration": 0.16414868541667005
        },
        {
          "name": "D#5",
          "midi": 75,
          "time": 35.439632500000016,
          "velocity": 0.6299212598425197,
          "duration": 0.16414868541667005
        },
        {
          "name": "D5",
          "midi": 74,
          "time": 35.60446800000002,
          "velocity": 0.6299212598425197,
          "duration": 0.16414868541667005
        },
        {
          "name": "D#5",
          "midi": 75,
          "time": 35.76930350000002,
          "velocity": 0.6299212598425197,
          "duration": 0.3289841854166653
        },
        {
          "name": "D#5",
          "midi": 75,
          "time": 36.09897450000002,
          "velocity": 0.6299212598425197,
          "duration": 0.3289841854166653
        },
        {
          "name": "D#5",
          "midi": 75,
          "time": 36.923152000000016,
          "velocity": 0.6299212598425197,
          "duration": 0.16414868541667005
        },
        {
          "name": "D#5",
          "midi": 75,
          "time": 37.08798750000002,
          "velocity": 0.6299212598425197,
          "duration": 0.16414868541667005
        },
        {
          "name": "D#5",
          "midi": 75,
          "time": 37.25282300000002,
          "velocity": 0.6299212598425197,
          "duration": 0.16414868541667005
        },
        {
          "name": "D#5",
          "midi": 75,
          "time": 37.41765850000002,
          "velocity": 0.6299212598425197,
          "duration": 0.16414868541667005
        },
        {
          "name": "D#5",
          "midi": 75,
          "time": 37.582494000000025,
          "velocity": 0.6299212598425197,
          "duration": 0.3289841854166653
        },
        {
          "name": "D#5",
          "midi": 75,
          "time": 37.91216500000002,
          "velocity": 0.6299212598425197,
          "duration": 0.16414868541667005
        },
        {
          "name": "D#5",
          "midi": 75,
          "time": 38.077000500000025,
          "velocity": 0.6299212598425197,
          "duration": 0.16414868541667005
        },
        {
          "name": "G5",
          "midi": 79,
          "time": 38.24183600000003,
          "velocity": 0.6299212598425197,
          "duration": 0.16414868541667005
        },
        {
          "name": "F5",
          "midi": 77,
          "time": 38.40667150000003,
          "velocity": 0.6299212598425197,
          "duration": 0.3289841854166653
        },
        {
          "name": "D#5",
          "midi": 75,
          "time": 38.73634250000003,
          "velocity": 0.6299212598425197,
          "duration": 0.16414868541667005
        },
        {
          "name": "D#5",
          "midi": 75,
          "time": 39.23084900000003,
          "velocity": 0.6299212598425197,
          "duration": 0.16414868541667005
        },
        {
          "name": "F5",
          "midi": 77,
          "time": 39.39568450000003,
          "velocity": 0.6299212598425197,
          "duration": 1.4828326854166676
        },
        {
          "name": "A#4",
          "midi": 70,
          "time": 41.86821700000003,
          "velocity": 0.6299212598425197,
          "duration": 0.16414868541667005
        },
        {
          "name": "A#5",
          "midi": 82,
          "time": 42.03305250000003,
          "velocity": 0.6299212598425197,
          "duration": 1.4828326854166676
        },
        {
          "name": "G#5",
          "midi": 80,
          "time": 43.51657200000003,
          "velocity": 0.6299212598425197,
          "duration": 0.65865518541667
        },
        {
          "name": "A#5",
          "midi": 82,
          "time": 44.175914000000034,
          "velocity": 0.6299212598425197,
          "duration": 0.3289841854166653
        }
      ],
      "controlChanges": {
        "7": [
          {
            "number": 7,
            "time": 0,
            "value": 0.7874015748031497
          }
        ],
        "10": [
          {
            "number": 10,
            "time": 0,
            "value": 0.5039370078740157
          }
        ],
        "91": [
          {
            "number": 91,
            "time": 0,
            "value": 0
          }
        ],
        "93": [
          {
            "number": 93,
            "time": 0,
            "value": 0
          }
        ],
        "121": [
          {
            "number": 121,
            "time": 0,
            "value": 0
          }
        ]
      }
    },
    {
      "startTime": 31.648416000000005,
      "duration": 44.48841463541677,
      "length": 36,
      "id": 3,
      "instrumentNumber": 73,
      "instrument": "flute",
      "instrumentFamily": "pipe",
      "channelNumber": 3,
      "isPercussion": false,
      "notes": [
        {
          "name": "D#6",
          "midi": 87,
          "time": 31.648416000000005,
          "velocity": 0.5039370078740157,
          "duration": 0.15590691041666815
        },
        {
          "name": "D#6",
          "midi": 87,
          "time": 31.813251500000007,
          "velocity": 0.5039370078740157,
          "duration": 0.15590691041666815
        },
        {
          "name": "D#6",
          "midi": 87,
          "time": 31.97808700000001,
          "velocity": 0.5039370078740157,
          "duration": 0.15590691041666815
        },
        {
          "name": "D#6",
          "midi": 87,
          "time": 32.14292250000001,
          "velocity": 0.5039370078740157,
          "duration": 0.15590691041666815
        },
        {
          "name": "D#6",
          "midi": 87,
          "time": 32.307758000000014,
          "velocity": 0.5039370078740157,
          "duration": 0.3125006354166686
        },
        {
          "name": "D#6",
          "midi": 87,
          "time": 32.63742900000002,
          "velocity": 0.5039370078740157,
          "duration": 0.15590691041666815
        },
        {
          "name": "D#6",
          "midi": 87,
          "time": 32.80226450000002,
          "velocity": 0.5039370078740157,
          "duration": 0.15590691041666815
        },
        {
          "name": "D6",
          "midi": 86,
          "time": 32.96710000000002,
          "velocity": 0.5039370078740157,
          "duration": 0.15590691041666815
        },
        {
          "name": "D#6",
          "midi": 87,
          "time": 33.131935500000026,
          "velocity": 0.5039370078740157,
          "duration": 0.3125006354166686
        },
        {
          "name": "D#6",
          "midi": 87,
          "time": 33.46160650000003,
          "velocity": 0.5039370078740157,
          "duration": 0.3125006354166686
        },
        {
          "name": "D#6",
          "midi": 87,
          "time": 34.285784000000035,
          "velocity": 0.5039370078740157,
          "duration": 0.15590691041666815
        },
        {
          "name": "D#6",
          "midi": 87,
          "time": 34.45061950000004,
          "velocity": 0.5039370078740157,
          "duration": 0.15590691041666815
        },
        {
          "name": "D#6",
          "midi": 87,
          "time": 34.61545500000004,
          "velocity": 0.5039370078740157,
          "duration": 0.15590691041666815
        },
        {
          "name": "D#6",
          "midi": 87,
          "time": 34.78029050000004,
          "velocity": 0.5039370078740157,
          "duration": 0.15590691041666815
        },
        {
          "name": "D#6",
          "midi": 87,
          "time": 34.945126000000045,
          "velocity": 0.5039370078740157,
          "duration": 0.3125006354166686
        },
        {
          "name": "D#6",
          "midi": 87,
          "time": 35.27479700000005,
          "velocity": 0.5039370078740157,
          "duration": 0.15590691041666815
        },
        {
          "name": "D#6",
          "midi": 87,
          "time": 35.43963250000005,
          "velocity": 0.5039370078740157,
          "duration": 0.15590691041666815
        },
        {
          "name": "D6",
          "midi": 86,
          "time": 35.604468000000054,
          "velocity": 0.5039370078740157,
          "duration": 0.15590691041666815
        },
        {
          "name": "D#6",
          "midi": 87,
          "time": 35.769303500000056,
          "velocity": 0.5039370078740157,
          "duration": 0.3125006354166686
        },
        {
          "name": "D#6",
          "midi": 87,
          "time": 36.09897450000006,
          "velocity": 0.5039370078740157,
          "duration": 0.3125006354166686
        },
        {
          "name": "D#6",
          "midi": 87,
          "time": 36.923152000000066,
          "velocity": 0.5039370078740157,
          "duration": 0.15590691041666815
        },
        {
          "name": "D#6",
          "midi": 87,
          "time": 37.08798750000007,
          "velocity": 0.5039370078740157,
          "duration": 0.15590691041666815
        },
        {
          "name": "D#6",
          "midi": 87,
          "time": 37.25282300000007,
          "velocity": 0.5039370078740157,
          "duration": 0.15590691041666815
        },
        {
          "name": "D#6",
          "midi": 87,
          "time": 37.41765850000007,
          "velocity": 0.5039370078740157,
          "duration": 0.15590691041666815
        },
        {
          "name": "D#6",
          "midi": 87,
          "time": 37.582494000000075,
          "velocity": 0.5039370078740157,
          "duration": 0.3125006354166686
        },
        {
          "name": "D#6",
          "midi": 87,
          "time": 37.91216500000008,
          "velocity": 0.5039370078740157,
          "duration": 0.15590691041666815
        },
        {
          "name": "D#6",
          "midi": 87,
          "time": 38.07700050000008,
          "velocity": 0.5039370078740157,
          "duration": 0.15590691041666815
        },
        {
          "name": "G6",
          "midi": 91,
          "time": 38.241836000000085,
          "velocity": 0.5039370078740157,
          "duration": 0.15590691041666815
        },
        {
          "name": "F6",
          "midi": 89,
          "time": 38.40667150000009,
          "velocity": 0.5039370078740157,
          "duration": 0.3125006354166686
        },
        {
          "name": "D#6",
          "midi": 87,
          "time": 38.73634250000009,
          "velocity": 0.5039370078740157,
          "duration": 0.15590691041666815
        },
        {
          "name": "D#6",
          "midi": 87,
          "time": 39.23084900000009,
          "velocity": 0.5039370078740157,
          "duration": 0.15590691041666815
        },
        {
          "name": "F6",
          "midi": 89,
          "time": 39.395684500000094,
          "velocity": 0.5039370078740157,
          "duration": 1.4086567104166647
        },
        {
          "name": "A#5",
          "midi": 82,
          "time": 41.868217000000094,
          "velocity": 0.5039370078740157,
          "duration": 0.15590691041666815
        },
        {
          "name": "A#6",
          "midi": 94,
          "time": 42.033052500000096,
          "velocity": 0.5039370078740157,
          "duration": 1.4086567104166647
        },
        {
          "name": "G#6",
          "midi": 92,
          "time": 43.516572000000096,
          "velocity": 0.5039370078740157,
          "duration": 0.6256880854166695
        },
        {
          "name": "A#6",
          "midi": 94,
          "time": 44.1759140000001,
          "velocity": 0.5039370078740157,
          "duration": 0.3125006354166686
        }
      ],
      "controlChanges": {
        "7": [
          {
            "number": 7,
            "time": 0,
            "value": 0.7874015748031497
          }
        ],
        "10": [
          {
            "number": 10,
            "time": 0,
            "value": 0.5039370078740157
          }
        ],
        "91": [
          {
            "number": 91,
            "time": 0,
            "value": 0
          }
        ],
        "93": [
          {
            "number": 93,
            "time": 0,
            "value": 0
          }
        ],
        "121": [
          {
            "number": 121,
            "time": 0,
            "value": 0
          }
        ]
      }
    },
    {
      "startTime": 44.83525600000001,
      "duration": 90.98850918541663,
      "length": 79,
      "id": 4,
      "instrumentNumber": 64,
      "instrument": "soprano sax",
      "instrumentFamily": "reed",
      "channelNumber": 4,
      "isPercussion": false,
      "notes": [
        {
          "name": "G5",
          "midi": 79,
          "time": 44.83525600000001,
          "velocity": 0.6299212598425197,
          "duration": 0.65865518541667
        },
        {
          "name": "A#5",
          "midi": 82,
          "time": 45.49459800000001,
          "velocity": 0.6299212598425197,
          "duration": 0.3289841854166653
        },
        {
          "name": "C6",
          "midi": 84,
          "time": 45.82426900000001,
          "velocity": 0.6299212598425197,
          "duration": 0.65865518541667
        },
        {
          "name": "A#5",
          "midi": 82,
          "time": 46.48361100000001,
          "velocity": 0.6299212598425197,
          "duration": 0.3289841854166653
        },
        {
          "name": "G5",
          "midi": 79,
          "time": 46.81328200000001,
          "velocity": 0.6299212598425197,
          "duration": 0.16414868541667005
        },
        {
          "name": "F5",
          "midi": 77,
          "time": 46.97811750000001,
          "velocity": 0.6299212598425197,
          "duration": 0.16414868541667005
        },
        {
          "name": "D#5",
          "midi": 75,
          "time": 47.14295300000001,
          "velocity": 0.6299212598425197,
          "duration": 0.16414868541667005
        },
        {
          "name": "D#5",
          "midi": 75,
          "time": 47.307788500000015,
          "velocity": 0.6299212598425197,
          "duration": 0.49381968541666765
        },
        {
          "name": "D#5",
          "midi": 75,
          "time": 47.802295000000015,
          "velocity": 0.6299212598425197,
          "duration": 0.3289841854166653
        },
        {
          "name": "D5",
          "midi": 74,
          "time": 48.13196600000001,
          "velocity": 0.6299212598425197,
          "duration": 0.3289841854166653
        },
        {
          "name": "D#5",
          "midi": 75,
          "time": 48.46163700000001,
          "velocity": 0.6299212598425197,
          "duration": 0.16414868541667005
        },
        {
          "name": "D#5",
          "midi": 75,
          "time": 48.62647250000001,
          "velocity": 0.6299212598425197,
          "duration": 0.8234906854166653
        },
        {
          "name": "G5",
          "midi": 79,
          "time": 50.10999200000001,
          "velocity": 0.6299212598425197,
          "duration": 0.65865518541667
        },
        {
          "name": "G5",
          "midi": 79,
          "time": 50.769334000000015,
          "velocity": 0.6299212598425197,
          "duration": 0.9883261854166676
        },
        {
          "name": "F5",
          "midi": 77,
          "time": 51.758347000000015,
          "velocity": 0.6299212598425197,
          "duration": 0.3289841854166653
        },
        {
          "name": "D#5",
          "midi": 75,
          "time": 52.08801800000001,
          "velocity": 0.6299212598425197,
          "duration": 0.3289841854166653
        },
        {
          "name": "F5",
          "midi": 77,
          "time": 52.41768900000001,
          "velocity": 0.6299212598425197,
          "duration": 0.16414868541667005
        },
        {
          "name": "C5",
          "midi": 72,
          "time": 52.58252450000001,
          "velocity": 0.6299212598425197,
          "duration": 1.4828326854166676
        },
        {
          "name": "C5",
          "midi": 72,
          "time": 55.38472800000001,
          "velocity": 0.6299212598425197,
          "duration": 0.65865518541667
        },
        {
          "name": "C5",
          "midi": 72,
          "time": 56.04407000000001,
          "velocity": 0.6299212598425197,
          "duration": 0.3289841854166653
        },
        {
          "name": "D5",
          "midi": 74,
          "time": 56.37374100000001,
          "velocity": 0.6299212598425197,
          "duration": 0.65865518541667
        },
        {
          "name": "C5",
          "midi": 72,
          "time": 57.03308300000001,
          "velocity": 0.6299212598425197,
          "duration": 0.65865518541667
        },
        {
          "name": "D5",
          "midi": 74,
          "time": 57.692425000000014,
          "velocity": 0.6299212598425197,
          "duration": 0.3289841854166653
        },
        {
          "name": "D#5",
          "midi": 75,
          "time": 58.02209600000001,
          "velocity": 0.6299212598425197,
          "duration": 0.3289841854166653
        },
        {
          "name": "F5",
          "midi": 77,
          "time": 58.35176700000001,
          "velocity": 0.6299212598425197,
          "duration": 0.3289841854166653
        },
        {
          "name": "G5",
          "midi": 79,
          "time": 58.68143800000001,
          "velocity": 0.6299212598425197,
          "duration": 0.3289841854166653
        },
        {
          "name": "C6",
          "midi": 84,
          "time": 59.011109000000005,
          "velocity": 0.6299212598425197,
          "duration": 0.9883261854166676
        },
        {
          "name": "G5",
          "midi": 79,
          "time": 60.329793,
          "velocity": 0.6299212598425197,
          "duration": 0.3289841854166653
        },
        {
          "name": "G#5",
          "midi": 80,
          "time": 60.659464,
          "velocity": 0.6299212598425197,
          "duration": 0.65865518541667
        },
        {
          "name": "G5",
          "midi": 79,
          "time": 61.318806,
          "velocity": 0.6299212598425197,
          "duration": 0.65865518541667
        },
        {
          "name": "F5",
          "midi": 77,
          "time": 61.978148000000004,
          "velocity": 0.6299212598425197,
          "duration": 0.65865518541667
        },
        {
          "name": "D#5",
          "midi": 75,
          "time": 62.63749000000001,
          "velocity": 0.6299212598425197,
          "duration": 0.3289841854166653
        },
        {
          "name": "F5",
          "midi": 77,
          "time": 62.967161000000004,
          "velocity": 0.6299212598425197,
          "duration": 0.9883261854166676
        },
        {
          "name": "G#5",
          "midi": 80,
          "time": 64.615516,
          "velocity": 0.6299212598425197,
          "duration": 0.6586551854166629
        },
        {
          "name": "A#5",
          "midi": 82,
          "time": 65.274858,
          "velocity": 0.6299212598425197,
          "duration": 0.6586551854166629
        },
        {
          "name": "G5",
          "midi": 79,
          "time": 65.93419999999999,
          "velocity": 0.6299212598425197,
          "duration": 0.6586551854166629
        },
        {
          "name": "A#5",
          "midi": 82,
          "time": 66.59354199999999,
          "velocity": 0.6299212598425197,
          "duration": 0.3289841854166724
        },
        {
          "name": "C6",
          "midi": 84,
          "time": 66.92321299999999,
          "velocity": 0.6299212598425197,
          "duration": 0.6586551854166629
        },
        {
          "name": "A#5",
          "midi": 82,
          "time": 67.58255499999999,
          "velocity": 0.6299212598425197,
          "duration": 0.3289841854166724
        },
        {
          "name": "G5",
          "midi": 79,
          "time": 67.91222599999999,
          "velocity": 0.6299212598425197,
          "duration": 0.16414868541666294
        },
        {
          "name": "F5",
          "midi": 77,
          "time": 68.07706149999999,
          "velocity": 0.6299212598425197,
          "duration": 0.16414868541666294
        },
        {
          "name": "D#5",
          "midi": 75,
          "time": 68.24189699999998,
          "velocity": 0.6299212598425197,
          "duration": 0.16414868541666294
        },
        {
          "name": "D#5",
          "midi": 75,
          "time": 68.40673249999998,
          "velocity": 0.6299212598425197,
          "duration": 0.49381968541666765
        },
        {
          "name": "D#5",
          "midi": 75,
          "time": 68.90123899999998,
          "velocity": 0.6299212598425197,
          "duration": 0.3289841854166724
        },
        {
          "name": "D5",
          "midi": 74,
          "time": 69.23090999999998,
          "velocity": 0.6299212598425197,
          "duration": 0.3289841854166724
        },
        {
          "name": "D#5",
          "midi": 75,
          "time": 69.56058099999998,
          "velocity": 0.6299212598425197,
          "duration": 0.16414868541666294
        },
        {
          "name": "D#5",
          "midi": 75,
          "time": 69.72541649999998,
          "velocity": 0.6299212598425197,
          "duration": 0.8234906854166724
        },
        {
          "name": "G5",
          "midi": 79,
          "time": 71.20893599999998,
          "velocity": 0.6299212598425197,
          "duration": 0.6586551854166629
        },
        {
          "name": "G5",
          "midi": 79,
          "time": 71.86827799999998,
          "velocity": 0.6299212598425197,
          "duration": 0.9883261854166676
        },
        {
          "name": "F5",
          "midi": 77,
          "time": 72.85729099999998,
          "velocity": 0.6299212598425197,
          "duration": 0.3289841854166724
        },
        {
          "name": "D#5",
          "midi": 75,
          "time": 73.18696199999998,
          "velocity": 0.6299212598425197,
          "duration": 0.3289841854166724
        },
        {
          "name": "F5",
          "midi": 77,
          "time": 73.51663299999998,
          "velocity": 0.6299212598425197,
          "duration": 0.16414868541666294
        },
        {
          "name": "C5",
          "midi": 72,
          "time": 73.68146849999998,
          "velocity": 0.6299212598425197,
          "duration": 0.8234906854166724
        },
        {
          "name": "C5",
          "midi": 72,
          "time": 74.67048149999998,
          "velocity": 0.6299212598425197,
          "duration": 0.16414868541666294
        },
        {
          "name": "D5",
          "midi": 74,
          "time": 74.83531699999997,
          "velocity": 0.6299212598425197,
          "duration": 0.16414868541666294
        },
        {
          "name": "C5",
          "midi": 72,
          "time": 75.00015249999997,
          "velocity": 0.6299212598425197,
          "duration": 1.1531616854166629
        },
        {
          "name": "C5",
          "midi": 72,
          "time": 76.48367199999997,
          "velocity": 0.6299212598425197,
          "duration": 0.6586551854166629
        },
        {
          "name": "C5",
          "midi": 72,
          "time": 77.14301399999997,
          "velocity": 0.6299212598425197,
          "duration": 0.3289841854166724
        },
        {
          "name": "D5",
          "midi": 74,
          "time": 77.47268499999997,
          "velocity": 0.6299212598425197,
          "duration": 0.6586551854166629
        },
        {
          "name": "C5",
          "midi": 72,
          "time": 78.13202699999997,
          "velocity": 0.6299212598425197,
          "duration": 0.6586551854166629
        },
        {
          "name": "D5",
          "midi": 74,
          "time": 78.79136899999996,
          "velocity": 0.6299212598425197,
          "duration": 0.3289841854166724
        },
        {
          "name": "D#5",
          "midi": 75,
          "time": 79.12103999999997,
          "velocity": 0.6299212598425197,
          "duration": 0.3289841854166724
        },
        {
          "name": "F5",
          "midi": 77,
          "time": 79.45071099999997,
          "velocity": 0.6535433070866141,
          "duration": 0.3289841854166724
        },
        {
          "name": "G5",
          "midi": 79,
          "time": 79.78038199999997,
          "velocity": 0.6850393700787402,
          "duration": 0.3289841854166724
        },
        {
          "name": "C6",
          "midi": 84,
          "time": 80.11005299999998,
          "velocity": 0.7165354330708661,
          "duration": 1.3179971854166723
        },
        {
          "name": "A#5",
          "midi": 82,
          "time": 81.42873699999998,
          "velocity": 0.84251968503937,
          "duration": 0.3289841854166724
        },
        {
          "name": "G#5",
          "midi": 80,
          "time": 81.75840799999999,
          "velocity": 0.7559055118110236,
          "duration": 0.6586551854166629
        },
        {
          "name": "G#5",
          "midi": 80,
          "time": 82.41774999999998,
          "velocity": 0.7559055118110236,
          "duration": 0.6586551854166629
        },
        {
          "name": "G#5",
          "midi": 80,
          "time": 83.07709199999998,
          "velocity": 0.7559055118110236,
          "duration": 0.9883261854166676
        },
        {
          "name": "G5",
          "midi": 79,
          "time": 84.06610499999998,
          "velocity": 0.7559055118110236,
          "duration": 0.3289841854166724
        },
        {
          "name": "F5",
          "midi": 77,
          "time": 84.39577599999998,
          "velocity": 0.7559055118110236,
          "duration": 0.16414868541666294
        },
        {
          "name": "D#5",
          "midi": 75,
          "time": 84.56061149999998,
          "velocity": 0.7559055118110236,
          "duration": 1.1531616854166629
        },
        {
          "name": "G5",
          "midi": 79,
          "time": 86.70347299999997,
          "velocity": 0.7559055118110236,
          "duration": 0.3289841854166724
        },
        {
          "name": "G#5",
          "midi": 80,
          "time": 87.03314399999998,
          "velocity": 0.7559055118110236,
          "duration": 0.6586551854166629
        },
        {
          "name": "G#5",
          "midi": 80,
          "time": 87.69248599999997,
          "velocity": 0.7559055118110236,
          "duration": 0.6586551854166629
        },
        {
          "name": "G#5",
          "midi": 80,
          "time": 88.35182799999997,
          "velocity": 0.7559055118110236,
          "duration": 0.9883261854166676
        },
        {
          "name": "G5",
          "midi": 79,
          "time": 89.34084099999997,
          "velocity": 0.7559055118110236,
          "duration": 0.3289841854166724
        },
        {
          "name": "F5",
          "midi": 77,
          "time": 89.67051199999997,
          "velocity": 0.7559055118110236,
          "duration": 0.16414868541666294
        },
        {
          "name": "D#5",
          "midi": 75,
          "time": 89.83534749999997,
          "velocity": 0.7559055118110236,
          "duration": 1.1531616854166629
        }
      ],
      "controlChanges": {
        "7": [
          {
            "number": 7,
            "time": 0,
            "value": 0.7874015748031497
          }
        ],
        "10": [
          {
            "number": 10,
            "time": 0,
            "value": 0.5039370078740157
          }
        ],
        "91": [
          {
            "number": 91,
            "time": 0,
            "value": 0
          }
        ],
        "93": [
          {
            "number": 93,
            "time": 0,
            "value": 0
          }
        ],
        "121": [
          {
            "number": 121,
            "time": 0,
            "value": 0
          }
        ]
      }
    },
    {
      "startTime": 5.274736000000001,
      "duration": 97.91160018541656,
      "length": 126,
      "id": 5,
      "instrumentNumber": 65,
      "instrument": "alto sax",
      "instrumentFamily": "reed",
      "channelNumber": 5,
      "isPercussion": false,
      "notes": [
        {
          "name": "D#4",
          "midi": 63,
          "time": 5.274736000000001,
          "velocity": 0.8818897637795275,
          "duration": 0.3289841854166671
        },
        {
          "name": "F4",
          "midi": 65,
          "time": 5.604407000000001,
          "velocity": 0.8818897637795275,
          "duration": 0.1641486854166665
        },
        {
          "name": "D#4",
          "midi": 63,
          "time": 5.769242500000001,
          "velocity": 0.8818897637795275,
          "duration": 0.6586551854166665
        },
        {
          "name": "G#4",
          "midi": 68,
          "time": 6.4285845,
          "velocity": 0.8818897637795275,
          "duration": 0.3289841854166671
        },
        {
          "name": "G4",
          "midi": 67,
          "time": 6.758255500000001,
          "velocity": 0.8818897637795275,
          "duration": 0.1641486854166665
        },
        {
          "name": "G#4",
          "midi": 68,
          "time": 6.923091,
          "velocity": 0.8818897637795275,
          "duration": 0.1641486854166665
        },
        {
          "name": "C5",
          "midi": 72,
          "time": 7.0879265,
          "velocity": 0.8818897637795275,
          "duration": 0.3289841854166671
        },
        {
          "name": "G4",
          "midi": 67,
          "time": 7.4175975,
          "velocity": 0.8818897637795275,
          "duration": 0.1641486854166665
        },
        {
          "name": "G#4",
          "midi": 68,
          "time": 7.582433,
          "velocity": 0.8818897637795275,
          "duration": 0.1641486854166665
        },
        {
          "name": "A4",
          "midi": 69,
          "time": 7.7472685,
          "velocity": 0.8818897637795275,
          "duration": 0.1641486854166665
        },
        {
          "name": "A#4",
          "midi": 70,
          "time": 7.912103999999999,
          "velocity": 0.8818897637795275,
          "duration": 0.3289841854166671
        },
        {
          "name": "D#4",
          "midi": 63,
          "time": 44.835256,
          "velocity": 0.25984251968503935,
          "duration": 1.3179971854166652
        },
        {
          "name": "E4",
          "midi": 64,
          "time": 46.15394,
          "velocity": 0.25984251968503935,
          "duration": 1.3179971854166652
        },
        {
          "name": "F4",
          "midi": 65,
          "time": 47.472623999999996,
          "velocity": 0.25984251968503935,
          "duration": 2.63668118541667
        },
        {
          "name": "G4",
          "midi": 67,
          "time": 50.109992,
          "velocity": 0.25984251968503935,
          "duration": 2.63668118541667
        },
        {
          "name": "A4",
          "midi": 69,
          "time": 52.74736,
          "velocity": 0.25984251968503935,
          "duration": 1.3179971854166652
        },
        {
          "name": "G#4",
          "midi": 68,
          "time": 54.2308795,
          "velocity": 0.5039370078740157,
          "duration": 0.16414868541667005
        },
        {
          "name": "G#4",
          "midi": 68,
          "time": 54.560550500000005,
          "velocity": 0.5039370078740157,
          "duration": 0.16414868541667005
        },
        {
          "name": "D#4",
          "midi": 63,
          "time": 54.72538600000001,
          "velocity": 0.5039370078740157,
          "duration": 0.16414868541667005
        },
        {
          "name": "D#4",
          "midi": 63,
          "time": 54.89022150000001,
          "velocity": 0.5039370078740157,
          "duration": 0.16414868541667005
        },
        {
          "name": "G4",
          "midi": 67,
          "time": 55.05505700000001,
          "velocity": 0.5039370078740157,
          "duration": 0.16414868541667005
        },
        {
          "name": "F4",
          "midi": 65,
          "time": 55.38472800000002,
          "velocity": 0.5039370078740157,
          "duration": 1.3179971854166652
        },
        {
          "name": "G4",
          "midi": 67,
          "time": 56.703412000000014,
          "velocity": 0.5039370078740157,
          "duration": 1.3179971854166652
        },
        {
          "name": "D#4",
          "midi": 63,
          "time": 58.02209600000001,
          "velocity": 0.5039370078740157,
          "duration": 1.3179971854166652
        },
        {
          "name": "E4",
          "midi": 64,
          "time": 59.34078000000001,
          "velocity": 0.5039370078740157,
          "duration": 0.16414868541667005
        },
        {
          "name": "F4",
          "midi": 65,
          "time": 59.50561550000001,
          "velocity": 0.5039370078740157,
          "duration": 0.16414868541667005
        },
        {
          "name": "G4",
          "midi": 67,
          "time": 59.83528650000002,
          "velocity": 0.5039370078740157,
          "duration": 0.16414868541667005
        },
        {
          "name": "A#4",
          "midi": 70,
          "time": 60.16495750000002,
          "velocity": 0.5039370078740157,
          "duration": 0.49381968541666765
        },
        {
          "name": "G#4",
          "midi": 68,
          "time": 60.65946400000002,
          "velocity": 0.5039370078740157,
          "duration": 1.3179971854166652
        },
        {
          "name": "F4",
          "midi": 65,
          "time": 61.97814800000002,
          "velocity": 0.5039370078740157,
          "duration": 1.3179971854166652
        },
        {
          "name": "A#4",
          "midi": 70,
          "time": 63.296832000000016,
          "velocity": 0.6299212598425197,
          "duration": 0.16414868541667005
        },
        {
          "name": "A#4",
          "midi": 70,
          "time": 63.46166750000002,
          "velocity": 0.6299212598425197,
          "duration": 0.3289841854166653
        },
        {
          "name": "A#4",
          "midi": 70,
          "time": 63.791338500000016,
          "velocity": 0.6299212598425197,
          "duration": 0.16414868541667005
        },
        {
          "name": "C5",
          "midi": 72,
          "time": 63.95617400000002,
          "velocity": 0.6299212598425197,
          "duration": 0.16414868541666294
        },
        {
          "name": "C5",
          "midi": 72,
          "time": 64.12100950000001,
          "velocity": 0.6299212598425197,
          "duration": 0.3289841854166724
        },
        {
          "name": "C5",
          "midi": 72,
          "time": 64.45068050000002,
          "velocity": 0.6299212598425197,
          "duration": 0.16414868541666294
        },
        {
          "name": "C#5",
          "midi": 73,
          "time": 64.61551600000001,
          "velocity": 0.6299212598425197,
          "duration": 0.16414868541666294
        },
        {
          "name": "C#5",
          "midi": 73,
          "time": 64.78035150000001,
          "velocity": 0.6299212598425197,
          "duration": 0.3289841854166724
        },
        {
          "name": "C#5",
          "midi": 73,
          "time": 65.11002250000001,
          "velocity": 0.6299212598425197,
          "duration": 0.16414868541666294
        },
        {
          "name": "D5",
          "midi": 74,
          "time": 65.27485800000001,
          "velocity": 0.6299212598425197,
          "duration": 0.3289841854166724
        },
        {
          "name": "D5",
          "midi": 74,
          "time": 65.60452900000001,
          "velocity": 0.6299212598425197,
          "duration": 0.16414868541666294
        },
        {
          "name": "D5",
          "midi": 74,
          "time": 65.76936450000001,
          "velocity": 0.6299212598425197,
          "duration": 0.16414868541666294
        },
        {
          "name": "C4",
          "midi": 60,
          "time": 65.9342,
          "velocity": 0.5039370078740157,
          "duration": 0.16414868541666294
        },
        {
          "name": "A#3",
          "midi": 58,
          "time": 66.0990355,
          "velocity": 0.5039370078740157,
          "duration": 0.16414868541666294
        },
        {
          "name": "C4",
          "midi": 60,
          "time": 66.263871,
          "velocity": 0.5039370078740157,
          "duration": 0.16414868541666294
        },
        {
          "name": "A#3",
          "midi": 58,
          "time": 66.42870649999999,
          "velocity": 0.5039370078740157,
          "duration": 0.16414868541666294
        },
        {
          "name": "D#4",
          "midi": 63,
          "time": 66.59354199999999,
          "velocity": 0.5039370078740157,
          "duration": 0.16414868541666294
        },
        {
          "name": "D#4",
          "midi": 63,
          "time": 66.75837749999998,
          "velocity": 0.5039370078740157,
          "duration": 0.16414868541666294
        },
        {
          "name": "F4",
          "midi": 65,
          "time": 66.92321299999998,
          "velocity": 0.5039370078740157,
          "duration": 0.16414868541666294
        },
        {
          "name": "D4",
          "midi": 62,
          "time": 67.08804849999997,
          "velocity": 0.5039370078740157,
          "duration": 0.16414868541666294
        },
        {
          "name": "F4",
          "midi": 65,
          "time": 67.25288399999997,
          "velocity": 0.5039370078740157,
          "duration": 0.16414868541666294
        },
        {
          "name": "D#4",
          "midi": 63,
          "time": 67.41771949999996,
          "velocity": 0.5039370078740157,
          "duration": 0.16414868541666294
        },
        {
          "name": "G4",
          "midi": 67,
          "time": 67.58255499999996,
          "velocity": 0.5039370078740157,
          "duration": 0.16414868541666294
        },
        {
          "name": "D#4",
          "midi": 63,
          "time": 67.74739049999995,
          "velocity": 0.5039370078740157,
          "duration": 0.16414868541666294
        },
        {
          "name": "G4",
          "midi": 67,
          "time": 67.91222599999995,
          "velocity": 0.5039370078740157,
          "duration": 0.16414868541666294
        },
        {
          "name": "F4",
          "midi": 65,
          "time": 68.07706149999994,
          "velocity": 0.5039370078740157,
          "duration": 0.16414868541666294
        },
        {
          "name": "G4",
          "midi": 67,
          "time": 68.24189699999994,
          "velocity": 0.5039370078740157,
          "duration": 0.16414868541666294
        },
        {
          "name": "D#4",
          "midi": 63,
          "time": 68.40673249999993,
          "velocity": 0.5039370078740157,
          "duration": 0.16414868541666294
        },
        {
          "name": "G#4",
          "midi": 68,
          "time": 68.57156799999993,
          "velocity": 0.5039370078740157,
          "duration": 0.16414868541666294
        },
        {
          "name": "G4",
          "midi": 67,
          "time": 68.73640349999992,
          "velocity": 0.5039370078740157,
          "duration": 0.16414868541666294
        },
        {
          "name": "A#4",
          "midi": 70,
          "time": 68.90123899999992,
          "velocity": 0.5039370078740157,
          "duration": 0.16414868541666294
        },
        {
          "name": "G4",
          "midi": 67,
          "time": 69.06607449999991,
          "velocity": 0.5039370078740157,
          "duration": 0.16414868541666294
        },
        {
          "name": "C5",
          "midi": 72,
          "time": 69.23090999999991,
          "velocity": 0.5039370078740157,
          "duration": 0.16414868541666294
        },
        {
          "name": "A#4",
          "midi": 70,
          "time": 69.3957454999999,
          "velocity": 0.5039370078740157,
          "duration": 0.16414868541666294
        },
        {
          "name": "D5",
          "midi": 74,
          "time": 69.5605809999999,
          "velocity": 0.5039370078740157,
          "duration": 0.16414868541666294
        },
        {
          "name": "A#4",
          "midi": 70,
          "time": 69.7254164999999,
          "velocity": 0.6299212598425197,
          "duration": 0.3289841854166724
        },
        {
          "name": "A#4",
          "midi": 70,
          "time": 70.0550874999999,
          "velocity": 0.6299212598425197,
          "duration": 0.08173093541667242
        },
        {
          "name": "C5",
          "midi": 72,
          "time": 70.21992299999991,
          "velocity": 0.6299212598425197,
          "duration": 0.08173093541667242
        },
        {
          "name": "C5",
          "midi": 72,
          "time": 70.38475849999992,
          "velocity": 0.6299212598425197,
          "duration": 0.08173093541667242
        },
        {
          "name": "A#4",
          "midi": 70,
          "time": 70.54959399999993,
          "velocity": 0.6299212598425197,
          "duration": 0.08173093541667242
        },
        {
          "name": "A#4",
          "midi": 70,
          "time": 70.71442949999994,
          "velocity": 0.6299212598425197,
          "duration": 0.08173093541667242
        },
        {
          "name": "G#4",
          "midi": 68,
          "time": 70.87926499999995,
          "velocity": 0.6299212598425197,
          "duration": 0.08173093541667242
        },
        {
          "name": "G#4",
          "midi": 68,
          "time": 71.04410049999996,
          "velocity": 0.6299212598425197,
          "duration": 0.08173093541667242
        },
        {
          "name": "G4",
          "midi": 67,
          "time": 71.20893599999997,
          "velocity": 0.5039370078740157,
          "duration": 0.16414868541666294
        },
        {
          "name": "D#4",
          "midi": 63,
          "time": 71.37377149999996,
          "velocity": 0.5039370078740157,
          "duration": 0.16414868541666294
        },
        {
          "name": "F4",
          "midi": 65,
          "time": 71.53860699999996,
          "velocity": 0.5039370078740157,
          "duration": 0.16414868541666294
        },
        {
          "name": "D#4",
          "midi": 63,
          "time": 71.70344249999995,
          "velocity": 0.5039370078740157,
          "duration": 0.16414868541666294
        },
        {
          "name": "G4",
          "midi": 67,
          "time": 71.86827799999995,
          "velocity": 0.5039370078740157,
          "duration": 0.16414868541666294
        },
        {
          "name": "D#4",
          "midi": 63,
          "time": 72.03311349999994,
          "velocity": 0.5039370078740157,
          "duration": 0.16414868541666294
        },
        {
          "name": "F4",
          "midi": 65,
          "time": 72.19794899999994,
          "velocity": 0.5039370078740157,
          "duration": 0.16414868541666294
        },
        {
          "name": "D#4",
          "midi": 63,
          "time": 72.36278449999993,
          "velocity": 0.5039370078740157,
          "duration": 0.16414868541666294
        },
        {
          "name": "A#4",
          "midi": 70,
          "time": 72.52761999999993,
          "velocity": 0.5039370078740157,
          "duration": 0.9883261854166676
        },
        {
          "name": "A4",
          "midi": 69,
          "time": 73.68146849999992,
          "velocity": 0.5039370078740157,
          "duration": 1.3179971854166723
        },
        {
          "name": "G#4",
          "midi": 68,
          "time": 75.00015249999993,
          "velocity": 0.5039370078740157,
          "duration": 1.4828326854166676
        },
        {
          "name": "F4",
          "midi": 65,
          "time": 76.48367199999993,
          "velocity": 0.5039370078740157,
          "duration": 0.6586551854166629
        },
        {
          "name": "F4",
          "midi": 65,
          "time": 77.14301399999992,
          "velocity": 0.5039370078740157,
          "duration": 0.16414868541666294
        },
        {
          "name": "D#4",
          "midi": 63,
          "time": 77.30784949999992,
          "velocity": 0.5039370078740157,
          "duration": 0.49381968541666765
        },
        {
          "name": "F4",
          "midi": 65,
          "time": 77.80235599999992,
          "velocity": 0.5039370078740157,
          "duration": 0.16414868541666294
        },
        {
          "name": "F4",
          "midi": 65,
          "time": 78.29686249999992,
          "velocity": 0.5039370078740157,
          "duration": 0.16414868541666294
        },
        {
          "name": "D#4",
          "midi": 63,
          "time": 78.46169799999991,
          "velocity": 0.5039370078740157,
          "duration": 0.3289841854166724
        },
        {
          "name": "D4",
          "midi": 62,
          "time": 78.79136899999992,
          "velocity": 0.5039370078740157,
          "duration": 0.3289841854166724
        },
        {
          "name": "C4",
          "midi": 60,
          "time": 79.12103999999992,
          "velocity": 0.5039370078740157,
          "duration": 0.16414868541666294
        },
        {
          "name": "C4",
          "midi": 60,
          "time": 79.28587549999992,
          "velocity": 0.5039370078740157,
          "duration": 0.3289841854166724
        },
        {
          "name": "D4",
          "midi": 62,
          "time": 79.61554649999992,
          "velocity": 0.5039370078740157,
          "duration": 0.16414868541666294
        },
        {
          "name": "D#4",
          "midi": 63,
          "time": 79.78038199999992,
          "velocity": 0.5039370078740157,
          "duration": 0.16414868541666294
        },
        {
          "name": "D#4",
          "midi": 63,
          "time": 79.94521749999991,
          "velocity": 0.5039370078740157,
          "duration": 0.16414868541666294
        },
        {
          "name": "E4",
          "midi": 64,
          "time": 80.11005299999991,
          "velocity": 0.5039370078740157,
          "duration": 1.3179971854166723
        },
        {
          "name": "F4",
          "midi": 65,
          "time": 81.75840799999992,
          "velocity": 0.5039370078740157,
          "duration": 0.16414868541666294
        },
        {
          "name": "D#4",
          "midi": 63,
          "time": 82.25291449999992,
          "velocity": 0.5039370078740157,
          "duration": 0.8234906854166724
        },
        {
          "name": "G#4",
          "midi": 68,
          "time": 83.07709199999992,
          "velocity": 0.5039370078740157,
          "duration": 0.16414868541666294
        },
        {
          "name": "A#4",
          "midi": 70,
          "time": 83.57159849999992,
          "velocity": 0.5039370078740157,
          "duration": 0.8234906854166724
        },
        {
          "name": "G#4",
          "midi": 68,
          "time": 84.39577599999993,
          "velocity": 0.5039370078740157,
          "duration": 0.16414868541666294
        },
        {
          "name": "G4",
          "midi": 67,
          "time": 84.56061149999992,
          "velocity": 0.5039370078740157,
          "duration": 0.3289841854166724
        },
        {
          "name": "G#4",
          "midi": 68,
          "time": 84.89028249999993,
          "velocity": 0.6299212598425197,
          "duration": 0.16414868541666294
        },
        {
          "name": "A#4",
          "midi": 70,
          "time": 85.05511799999992,
          "velocity": 0.6299212598425197,
          "duration": 0.16414868541666294
        },
        {
          "name": "B4",
          "midi": 71,
          "time": 85.21995349999992,
          "velocity": 0.6299212598425197,
          "duration": 0.16414868541666294
        },
        {
          "name": "C5",
          "midi": 72,
          "time": 85.38478899999991,
          "velocity": 0.6299212598425197,
          "duration": 0.16414868541666294
        },
        {
          "name": "C#5",
          "midi": 73,
          "time": 85.54962449999991,
          "velocity": 0.6299212598425197,
          "duration": 0.16414868541666294
        },
        {
          "name": "C5",
          "midi": 72,
          "time": 85.7144599999999,
          "velocity": 0.6299212598425197,
          "duration": 0.16414868541666294
        },
        {
          "name": "D5",
          "midi": 74,
          "time": 85.8792954999999,
          "velocity": 0.6299212598425197,
          "duration": 0.16414868541666294
        },
        {
          "name": "C5",
          "midi": 72,
          "time": 86.20896649999989,
          "velocity": 0.6299212598425197,
          "duration": 0.8234906854166724
        },
        {
          "name": "G#4",
          "midi": 68,
          "time": 87.0331439999999,
          "velocity": 0.6299212598425197,
          "duration": 0.6586551854166629
        },
        {
          "name": "G#4",
          "midi": 68,
          "time": 87.69248599999989,
          "velocity": 0.7559055118110236,
          "duration": 0.3289841854166724
        },
        {
          "name": "C5",
          "midi": 72,
          "time": 88.0221569999999,
          "velocity": 0.7559055118110236,
          "duration": 0.3289841854166724
        },
        {
          "name": "D5",
          "midi": 74,
          "time": 88.3518279999999,
          "velocity": 0.7559055118110236,
          "duration": 0.9883261854166676
        },
        {
          "name": "D#4",
          "midi": 63,
          "time": 94.9452479999999,
          "velocity": 0.8818897637795275,
          "duration": 0.3289841854166724
        },
        {
          "name": "F4",
          "midi": 65,
          "time": 95.27491899999991,
          "velocity": 0.8818897637795275,
          "duration": 0.16414868541666294
        },
        {
          "name": "D#4",
          "midi": 63,
          "time": 95.4397544999999,
          "velocity": 0.8818897637795275,
          "duration": 0.6586551854166629
        },
        {
          "name": "G#4",
          "midi": 68,
          "time": 96.0990964999999,
          "velocity": 0.8818897637795275,
          "duration": 0.3289841854166724
        },
        {
          "name": "G4",
          "midi": 67,
          "time": 96.4287674999999,
          "velocity": 0.8818897637795275,
          "duration": 0.16414868541666294
        },
        {
          "name": "G#4",
          "midi": 68,
          "time": 96.5936029999999,
          "velocity": 0.8818897637795275,
          "duration": 0.16414868541666294
        },
        {
          "name": "C5",
          "midi": 72,
          "time": 96.7584384999999,
          "velocity": 0.8818897637795275,
          "duration": 0.3289841854166724
        },
        {
          "name": "G4",
          "midi": 67,
          "time": 97.0881094999999,
          "velocity": 0.8818897637795275,
          "duration": 0.16414868541666294
        },
        {
          "name": "G#4",
          "midi": 68,
          "time": 97.2529449999999,
          "velocity": 0.8818897637795275,
          "duration": 0.16414868541666294
        },
        {
          "name": "A4",
          "midi": 69,
          "time": 97.41778049999989,
          "velocity": 0.8818897637795275,
          "duration": 0.16414868541666294
        },
        {
          "name": "A#4",
          "midi": 70,
          "time": 97.58261599999989,
          "velocity": 0.8818897637795275,
          "duration": 0.3289841854166724
        }
      ],
      "controlChanges": {
        "7": [
          {
            "number": 7,
            "time": 0,
            "value": 0.7874015748031497
          }
        ],
        "10": [
          {
            "number": 10,
            "time": 0,
            "value": 0.5039370078740157
          }
        ],
        "91": [
          {
            "number": 91,
            "time": 0,
            "value": 0
          }
        ],
        "93": [
          {
            "number": 93,
            "time": 0,
            "value": 0
          }
        ],
        "121": [
          {
            "number": 121,
            "time": 0,
            "value": 0
          }
        ]
      }
    },
    {
      "startTime": 5.274736000000001,
      "duration": 97.91160018541662,
      "length": 101,
      "id": 6,
      "instrumentNumber": 59,
      "instrument": "muted trumpet",
      "instrumentFamily": "brass",
      "channelNumber": 7,
      "isPercussion": false,
      "notes": [
        {
          "name": "D#5",
          "midi": 75,
          "time": 5.274736000000001,
          "velocity": 0.6299212598425197,
          "duration": 0.3289841854166671
        },
        {
          "name": "F5",
          "midi": 77,
          "time": 5.604407000000001,
          "velocity": 0.6299212598425197,
          "duration": 0.1641486854166665
        },
        {
          "name": "D#5",
          "midi": 75,
          "time": 5.769242500000001,
          "velocity": 0.6299212598425197,
          "duration": 0.6586551854166665
        },
        {
          "name": "G#5",
          "midi": 80,
          "time": 6.4285845,
          "velocity": 0.6299212598425197,
          "duration": 0.3289841854166671
        },
        {
          "name": "G5",
          "midi": 79,
          "time": 6.758255500000001,
          "velocity": 0.6299212598425197,
          "duration": 0.1641486854166665
        },
        {
          "name": "G#5",
          "midi": 80,
          "time": 6.923091,
          "velocity": 0.6299212598425197,
          "duration": 0.1641486854166665
        },
        {
          "name": "C6",
          "midi": 84,
          "time": 7.0879265,
          "velocity": 0.6299212598425197,
          "duration": 0.3289841854166671
        },
        {
          "name": "G5",
          "midi": 79,
          "time": 7.4175975,
          "velocity": 0.6299212598425197,
          "duration": 0.1641486854166665
        },
        {
          "name": "G#5",
          "midi": 80,
          "time": 7.582433,
          "velocity": 0.6299212598425197,
          "duration": 0.1641486854166665
        },
        {
          "name": "A5",
          "midi": 81,
          "time": 7.7472685,
          "velocity": 0.6299212598425197,
          "duration": 0.1641486854166665
        },
        {
          "name": "A#5",
          "midi": 82,
          "time": 7.912103999999999,
          "velocity": 0.6299212598425197,
          "duration": 0.3289841854166671
        },
        {
          "name": "G4",
          "midi": 67,
          "time": 44.835256,
          "velocity": 0.7559055118110236,
          "duration": 0.65865518541667
        },
        {
          "name": "A#4",
          "midi": 70,
          "time": 45.494598,
          "velocity": 0.7559055118110236,
          "duration": 0.3289841854166653
        },
        {
          "name": "C5",
          "midi": 72,
          "time": 45.824269,
          "velocity": 0.7559055118110236,
          "duration": 0.65865518541667
        },
        {
          "name": "A#4",
          "midi": 70,
          "time": 46.483611,
          "velocity": 0.7559055118110236,
          "duration": 0.3289841854166653
        },
        {
          "name": "G4",
          "midi": 67,
          "time": 46.813282,
          "velocity": 0.7559055118110236,
          "duration": 0.16414868541667005
        },
        {
          "name": "F4",
          "midi": 65,
          "time": 46.9781175,
          "velocity": 0.7559055118110236,
          "duration": 0.16414868541667005
        },
        {
          "name": "D#4",
          "midi": 63,
          "time": 47.142953000000006,
          "velocity": 0.7559055118110236,
          "duration": 0.16414868541667005
        },
        {
          "name": "D#4",
          "midi": 63,
          "time": 47.30778850000001,
          "velocity": 0.7559055118110236,
          "duration": 0.49381968541666765
        },
        {
          "name": "D#4",
          "midi": 63,
          "time": 47.80229500000001,
          "velocity": 0.7559055118110236,
          "duration": 0.3289841854166653
        },
        {
          "name": "D4",
          "midi": 62,
          "time": 48.131966000000006,
          "velocity": 0.7559055118110236,
          "duration": 0.3289841854166653
        },
        {
          "name": "D#4",
          "midi": 63,
          "time": 48.461637,
          "velocity": 0.7559055118110236,
          "duration": 0.16414868541667005
        },
        {
          "name": "D#4",
          "midi": 63,
          "time": 48.626472500000006,
          "velocity": 0.7559055118110236,
          "duration": 0.8234906854166653
        },
        {
          "name": "G4",
          "midi": 67,
          "time": 50.109992000000005,
          "velocity": 0.7559055118110236,
          "duration": 0.65865518541667
        },
        {
          "name": "G4",
          "midi": 67,
          "time": 50.76933400000001,
          "velocity": 0.7559055118110236,
          "duration": 0.9883261854166676
        },
        {
          "name": "F4",
          "midi": 65,
          "time": 51.75834700000001,
          "velocity": 0.7559055118110236,
          "duration": 0.3289841854166653
        },
        {
          "name": "D#4",
          "midi": 63,
          "time": 52.088018000000005,
          "velocity": 0.7559055118110236,
          "duration": 0.3289841854166653
        },
        {
          "name": "F4",
          "midi": 65,
          "time": 52.417689,
          "velocity": 0.7559055118110236,
          "duration": 0.16414868541667005
        },
        {
          "name": "C4",
          "midi": 60,
          "time": 52.582524500000005,
          "velocity": 0.7559055118110236,
          "duration": 1.4828326854166676
        },
        {
          "name": "C4",
          "midi": 60,
          "time": 55.38472800000001,
          "velocity": 0.7559055118110236,
          "duration": 0.65865518541667
        },
        {
          "name": "C4",
          "midi": 60,
          "time": 56.04407000000001,
          "velocity": 0.7559055118110236,
          "duration": 0.3289841854166653
        },
        {
          "name": "D4",
          "midi": 62,
          "time": 56.37374100000001,
          "velocity": 0.7559055118110236,
          "duration": 0.65865518541667
        },
        {
          "name": "C4",
          "midi": 60,
          "time": 57.03308300000001,
          "velocity": 0.7559055118110236,
          "duration": 0.65865518541667
        },
        {
          "name": "D4",
          "midi": 62,
          "time": 57.692425000000014,
          "velocity": 0.7559055118110236,
          "duration": 0.3289841854166653
        },
        {
          "name": "D#4",
          "midi": 63,
          "time": 58.02209600000001,
          "velocity": 0.7559055118110236,
          "duration": 0.3289841854166653
        },
        {
          "name": "F4",
          "midi": 65,
          "time": 58.35176700000001,
          "velocity": 0.7559055118110236,
          "duration": 0.3289841854166653
        },
        {
          "name": "G4",
          "midi": 67,
          "time": 58.68143800000001,
          "velocity": 0.7559055118110236,
          "duration": 0.3289841854166653
        },
        {
          "name": "C5",
          "midi": 72,
          "time": 59.011109000000005,
          "velocity": 0.7559055118110236,
          "duration": 0.9883261854166676
        },
        {
          "name": "G4",
          "midi": 67,
          "time": 60.329793,
          "velocity": 0.7559055118110236,
          "duration": 0.3289841854166653
        },
        {
          "name": "G#4",
          "midi": 68,
          "time": 60.659464,
          "velocity": 0.7559055118110236,
          "duration": 0.65865518541667
        },
        {
          "name": "G4",
          "midi": 67,
          "time": 61.318806,
          "velocity": 0.7559055118110236,
          "duration": 0.65865518541667
        },
        {
          "name": "F4",
          "midi": 65,
          "time": 61.978148000000004,
          "velocity": 0.7559055118110236,
          "duration": 0.65865518541667
        },
        {
          "name": "D#4",
          "midi": 63,
          "time": 62.63749000000001,
          "velocity": 0.7559055118110236,
          "duration": 0.3289841854166653
        },
        {
          "name": "F4",
          "midi": 65,
          "time": 62.967161000000004,
          "velocity": 0.7559055118110236,
          "duration": 0.9883261854166676
        },
        {
          "name": "G#4",
          "midi": 68,
          "time": 64.615516,
          "velocity": 0.7559055118110236,
          "duration": 0.6586551854166629
        },
        {
          "name": "A#4",
          "midi": 70,
          "time": 65.274858,
          "velocity": 0.7559055118110236,
          "duration": 0.6586551854166629
        },
        {
          "name": "G4",
          "midi": 67,
          "time": 65.93419999999999,
          "velocity": 0.7559055118110236,
          "duration": 0.6586551854166629
        },
        {
          "name": "A#4",
          "midi": 70,
          "time": 66.59354199999999,
          "velocity": 0.7559055118110236,
          "duration": 0.3289841854166724
        },
        {
          "name": "C5",
          "midi": 72,
          "time": 66.92321299999999,
          "velocity": 0.7559055118110236,
          "duration": 0.6586551854166629
        },
        {
          "name": "A#4",
          "midi": 70,
          "time": 67.58255499999999,
          "velocity": 0.7559055118110236,
          "duration": 0.3289841854166724
        },
        {
          "name": "G4",
          "midi": 67,
          "time": 67.91222599999999,
          "velocity": 0.7559055118110236,
          "duration": 0.16414868541666294
        },
        {
          "name": "F4",
          "midi": 65,
          "time": 68.07706149999999,
          "velocity": 0.7559055118110236,
          "duration": 0.16414868541666294
        },
        {
          "name": "D#4",
          "midi": 63,
          "time": 68.24189699999998,
          "velocity": 0.7559055118110236,
          "duration": 0.16414868541666294
        },
        {
          "name": "D#4",
          "midi": 63,
          "time": 68.40673249999998,
          "velocity": 0.7559055118110236,
          "duration": 0.49381968541666765
        },
        {
          "name": "D#4",
          "midi": 63,
          "time": 68.90123899999998,
          "velocity": 0.7559055118110236,
          "duration": 0.3289841854166724
        },
        {
          "name": "D4",
          "midi": 62,
          "time": 69.23090999999998,
          "velocity": 0.7559055118110236,
          "duration": 0.3289841854166724
        },
        {
          "name": "D#4",
          "midi": 63,
          "time": 69.56058099999998,
          "velocity": 0.7559055118110236,
          "duration": 0.16414868541666294
        },
        {
          "name": "D#4",
          "midi": 63,
          "time": 69.72541649999998,
          "velocity": 0.7559055118110236,
          "duration": 0.8234906854166724
        },
        {
          "name": "G4",
          "midi": 67,
          "time": 71.20893599999998,
          "velocity": 0.7559055118110236,
          "duration": 0.6586551854166629
        },
        {
          "name": "G4",
          "midi": 67,
          "time": 71.86827799999998,
          "velocity": 0.7559055118110236,
          "duration": 0.9883261854166676
        },
        {
          "name": "F4",
          "midi": 65,
          "time": 72.85729099999998,
          "velocity": 0.7559055118110236,
          "duration": 0.3289841854166724
        },
        {
          "name": "D#4",
          "midi": 63,
          "time": 73.18696199999998,
          "velocity": 0.7559055118110236,
          "duration": 0.3289841854166724
        },
        {
          "name": "F4",
          "midi": 65,
          "time": 73.51663299999998,
          "velocity": 0.7559055118110236,
          "duration": 0.16414868541666294
        },
        {
          "name": "C4",
          "midi": 60,
          "time": 73.68146849999998,
          "velocity": 0.7559055118110236,
          "duration": 0.8234906854166724
        },
        {
          "name": "C4",
          "midi": 60,
          "time": 74.67048149999998,
          "velocity": 0.7559055118110236,
          "duration": 0.16414868541666294
        },
        {
          "name": "D4",
          "midi": 62,
          "time": 74.83531699999997,
          "velocity": 0.7559055118110236,
          "duration": 0.16414868541666294
        },
        {
          "name": "C4",
          "midi": 60,
          "time": 75.00015249999997,
          "velocity": 0.7559055118110236,
          "duration": 1.1531616854166629
        },
        {
          "name": "C4",
          "midi": 60,
          "time": 76.48367199999997,
          "velocity": 0.7559055118110236,
          "duration": 0.6586551854166629
        },
        {
          "name": "C4",
          "midi": 60,
          "time": 77.14301399999997,
          "velocity": 0.7559055118110236,
          "duration": 0.3289841854166724
        },
        {
          "name": "D4",
          "midi": 62,
          "time": 77.47268499999997,
          "velocity": 0.7559055118110236,
          "duration": 0.6586551854166629
        },
        {
          "name": "C4",
          "midi": 60,
          "time": 78.13202699999997,
          "velocity": 0.7559055118110236,
          "duration": 0.6586551854166629
        },
        {
          "name": "D4",
          "midi": 62,
          "time": 78.79136899999996,
          "velocity": 0.7559055118110236,
          "duration": 0.3289841854166724
        },
        {
          "name": "D#4",
          "midi": 63,
          "time": 79.12103999999997,
          "velocity": 0.7559055118110236,
          "duration": 0.3289841854166724
        },
        {
          "name": "F4",
          "midi": 65,
          "time": 79.45071099999997,
          "velocity": 0.7559055118110236,
          "duration": 0.3289841854166724
        },
        {
          "name": "G4",
          "midi": 67,
          "time": 79.78038199999997,
          "velocity": 0.7559055118110236,
          "duration": 0.3289841854166724
        },
        {
          "name": "C5",
          "midi": 72,
          "time": 80.11005299999998,
          "velocity": 0.7559055118110236,
          "duration": 1.3179971854166723
        },
        {
          "name": "A#4",
          "midi": 70,
          "time": 81.42873699999998,
          "velocity": 0.7559055118110236,
          "duration": 0.3289841854166724
        },
        {
          "name": "G#4",
          "midi": 68,
          "time": 81.75840799999999,
          "velocity": 0.7559055118110236,
          "duration": 0.6586551854166629
        },
        {
          "name": "G#4",
          "midi": 68,
          "time": 82.41774999999998,
          "velocity": 0.7559055118110236,
          "duration": 0.6586551854166629
        },
        {
          "name": "G#4",
          "midi": 68,
          "time": 83.07709199999998,
          "velocity": 0.7559055118110236,
          "duration": 0.9883261854166676
        },
        {
          "name": "G4",
          "midi": 67,
          "time": 84.06610499999998,
          "velocity": 0.7559055118110236,
          "duration": 0.3289841854166724
        },
        {
          "name": "F4",
          "midi": 65,
          "time": 84.39577599999998,
          "velocity": 0.7559055118110236,
          "duration": 0.16414868541666294
        },
        {
          "name": "D#4",
          "midi": 63,
          "time": 84.56061149999998,
          "velocity": 0.7559055118110236,
          "duration": 1.1531616854166629
        },
        {
          "name": "G4",
          "midi": 67,
          "time": 86.70347299999997,
          "velocity": 0.7559055118110236,
          "duration": 0.3289841854166724
        },
        {
          "name": "G#4",
          "midi": 68,
          "time": 87.03314399999998,
          "velocity": 0.7559055118110236,
          "duration": 0.6586551854166629
        },
        {
          "name": "G#4",
          "midi": 68,
          "time": 87.69248599999997,
          "velocity": 0.7559055118110236,
          "duration": 0.6586551854166629
        },
        {
          "name": "G#4",
          "midi": 68,
          "time": 88.35182799999997,
          "velocity": 0.7559055118110236,
          "duration": 0.9883261854166676
        },
        {
          "name": "G4",
          "midi": 67,
          "time": 89.34084099999997,
          "velocity": 0.7559055118110236,
          "duration": 0.3289841854166724
        },
        {
          "name": "F4",
          "midi": 65,
          "time": 89.67051199999997,
          "velocity": 0.7559055118110236,
          "duration": 0.16414868541666294
        },
        {
          "name": "D#4",
          "midi": 63,
          "time": 89.83534749999997,
          "velocity": 0.7559055118110236,
          "duration": 1.1531616854166629
        },
        {
          "name": "D#5",
          "midi": 75,
          "time": 94.94524799999996,
          "velocity": 0.6299212598425197,
          "duration": 0.3289841854166724
        },
        {
          "name": "F5",
          "midi": 77,
          "time": 95.27491899999997,
          "velocity": 0.6299212598425197,
          "duration": 0.16414868541666294
        },
        {
          "name": "D#5",
          "midi": 75,
          "time": 95.43975449999996,
          "velocity": 0.6299212598425197,
          "duration": 0.6586551854166629
        },
        {
          "name": "G#5",
          "midi": 80,
          "time": 96.09909649999996,
          "velocity": 0.6299212598425197,
          "duration": 0.3289841854166724
        },
        {
          "name": "G5",
          "midi": 79,
          "time": 96.42876749999996,
          "velocity": 0.6299212598425197,
          "duration": 0.16414868541666294
        },
        {
          "name": "G#5",
          "midi": 80,
          "time": 96.59360299999996,
          "velocity": 0.6299212598425197,
          "duration": 0.16414868541666294
        },
        {
          "name": "C6",
          "midi": 84,
          "time": 96.75843849999995,
          "velocity": 0.6299212598425197,
          "duration": 0.3289841854166724
        },
        {
          "name": "G5",
          "midi": 79,
          "time": 97.08810949999996,
          "velocity": 0.6299212598425197,
          "duration": 0.16414868541666294
        },
        {
          "name": "G#5",
          "midi": 80,
          "time": 97.25294499999995,
          "velocity": 0.6299212598425197,
          "duration": 0.16414868541666294
        },
        {
          "name": "A5",
          "midi": 81,
          "time": 97.41778049999995,
          "velocity": 0.6299212598425197,
          "duration": 0.16414868541666294
        },
        {
          "name": "A#5",
          "midi": 82,
          "time": 97.58261599999994,
          "velocity": 0.6299212598425197,
          "duration": 0.3289841854166724
        }
      ],
      "controlChanges": {
        "7": [
          {
            "number": 7,
            "time": 0,
            "value": 0.7086614173228346
          },
          {
            "number": 7,
            "time": 0,
            "value": 0.7322834645669292
          }
        ],
        "10": [
          {
            "number": 10,
            "time": 0,
            "value": 0.5039370078740157
          },
          {
            "number": 10,
            "time": 0,
            "value": 0.5039370078740157
          }
        ],
        "91": [
          {
            "number": 91,
            "time": 0,
            "value": 0
          },
          {
            "number": 91,
            "time": 0,
            "value": 0
          }
        ],
        "93": [
          {
            "number": 93,
            "time": 0,
            "value": 0
          },
          {
            "number": 93,
            "time": 0,
            "value": 0
          }
        ],
        "121": [
          {
            "number": 121,
            "time": 0,
            "value": 0
          },
          {
            "number": 121,
            "time": 0,
            "value": 0
          }
        ]
      }
    },
    {
      "startTime": 5.274736000000001,
      "duration": 97.91160018541667,
      "length": 112,
      "id": 7,
      "instrumentNumber": 21,
      "instrument": "accordion",
      "instrumentFamily": "organ",
      "channelNumber": 8,
      "isPercussion": false,
      "notes": [
        {
          "name": "D#5",
          "midi": 75,
          "time": 5.274736000000001,
          "velocity": 0.7559055118110236,
          "duration": 0.3289841854166671
        },
        {
          "name": "F5",
          "midi": 77,
          "time": 5.604407000000001,
          "velocity": 0.7559055118110236,
          "duration": 0.1641486854166665
        },
        {
          "name": "D#5",
          "midi": 75,
          "time": 5.769242500000001,
          "velocity": 0.7559055118110236,
          "duration": 0.6586551854166665
        },
        {
          "name": "G#5",
          "midi": 80,
          "time": 6.4285845,
          "velocity": 0.7559055118110236,
          "duration": 0.3289841854166671
        },
        {
          "name": "G5",
          "midi": 79,
          "time": 6.758255500000001,
          "velocity": 0.7559055118110236,
          "duration": 0.1641486854166665
        },
        {
          "name": "G#5",
          "midi": 80,
          "time": 6.923091,
          "velocity": 0.7559055118110236,
          "duration": 0.1641486854166665
        },
        {
          "name": "C6",
          "midi": 84,
          "time": 7.0879265,
          "velocity": 0.7559055118110236,
          "duration": 0.3289841854166671
        },
        {
          "name": "G5",
          "midi": 79,
          "time": 7.4175975,
          "velocity": 0.7559055118110236,
          "duration": 0.1641486854166665
        },
        {
          "name": "G#5",
          "midi": 80,
          "time": 7.582433,
          "velocity": 0.7559055118110236,
          "duration": 0.1641486854166665
        },
        {
          "name": "A5",
          "midi": 81,
          "time": 7.7472685,
          "velocity": 0.7559055118110236,
          "duration": 0.1641486854166665
        },
        {
          "name": "A#5",
          "midi": 82,
          "time": 7.912103999999999,
          "velocity": 0.7559055118110236,
          "duration": 0.3289841854166671
        },
        {
          "name": "C6",
          "midi": 84,
          "time": 25.054996000000003,
          "velocity": 0.3858267716535433,
          "duration": 0.49381968541666765
        },
        {
          "name": "A#5",
          "midi": 82,
          "time": 25.714338000000005,
          "velocity": 0.3858267716535433,
          "duration": 0.49381968541666765
        },
        {
          "name": "G5",
          "midi": 79,
          "time": 28.186870500000005,
          "velocity": 0.3858267716535433,
          "duration": 0.49381968541666765
        },
        {
          "name": "C6",
          "midi": 84,
          "time": 29.011048000000006,
          "velocity": 0.5039370078740157,
          "duration": 0.1641486854166665
        },
        {
          "name": "A#5",
          "midi": 82,
          "time": 29.175883500000005,
          "velocity": 0.5039370078740157,
          "duration": 0.1641486854166665
        },
        {
          "name": "C6",
          "midi": 84,
          "time": 29.340719000000004,
          "velocity": 0.5039370078740157,
          "duration": 0.1641486854166665
        },
        {
          "name": "A#5",
          "midi": 82,
          "time": 29.505554500000002,
          "velocity": 0.5039370078740157,
          "duration": 0.1641486854166665
        },
        {
          "name": "G5",
          "midi": 79,
          "time": 29.835225500000004,
          "velocity": 0.5039370078740157,
          "duration": 0.1641486854166665
        },
        {
          "name": "D#5",
          "midi": 75,
          "time": 30.164896500000005,
          "velocity": 0.5039370078740157,
          "duration": 0.3289841854166653
        },
        {
          "name": "F5",
          "midi": 77,
          "time": 30.494567500000002,
          "velocity": 0.5039370078740157,
          "duration": 0.1641486854166665
        },
        {
          "name": "F#5",
          "midi": 78,
          "time": 30.659403,
          "velocity": 0.5039370078740157,
          "duration": 0.1641486854166665
        },
        {
          "name": "G5",
          "midi": 79,
          "time": 30.8242385,
          "velocity": 0.5039370078740157,
          "duration": 0.1641486854166665
        },
        {
          "name": "A#5",
          "midi": 82,
          "time": 31.1539095,
          "velocity": 0.5039370078740157,
          "duration": 0.49381968541666765
        },
        {
          "name": "A#4",
          "midi": 70,
          "time": 44.835256,
          "velocity": 0.25984251968503935,
          "duration": 1.3179971854166652
        },
        {
          "name": "B4",
          "midi": 71,
          "time": 46.15394,
          "velocity": 0.25984251968503935,
          "duration": 1.3179971854166652
        },
        {
          "name": "C5",
          "midi": 72,
          "time": 47.472623999999996,
          "velocity": 0.25984251968503935,
          "duration": 1.3179971854166652
        },
        {
          "name": "A#4",
          "midi": 70,
          "time": 48.791307999999994,
          "velocity": 0.25984251968503935,
          "duration": 1.3179971854166652
        },
        {
          "name": "C5",
          "midi": 72,
          "time": 50.10999199999999,
          "velocity": 0.25984251968503935,
          "duration": 1.3179971854166652
        },
        {
          "name": "A#4",
          "midi": 70,
          "time": 51.42867599999999,
          "velocity": 0.25984251968503935,
          "duration": 1.3179971854166652
        },
        {
          "name": "A4",
          "midi": 69,
          "time": 52.747359999999986,
          "velocity": 0.25984251968503935,
          "duration": 1.3179971854166652
        },
        {
          "name": "C5",
          "midi": 72,
          "time": 54.230879499999986,
          "velocity": 0.3858267716535433,
          "duration": 0.16414868541667005
        },
        {
          "name": "C5",
          "midi": 72,
          "time": 54.56055049999999,
          "velocity": 0.3858267716535433,
          "duration": 0.16414868541667005
        },
        {
          "name": "G4",
          "midi": 67,
          "time": 54.72538599999999,
          "velocity": 0.3858267716535433,
          "duration": 0.16414868541667005
        },
        {
          "name": "G4",
          "midi": 67,
          "time": 54.890221499999996,
          "velocity": 0.3858267716535433,
          "duration": 0.16414868541667005
        },
        {
          "name": "A#4",
          "midi": 70,
          "time": 55.055057,
          "velocity": 0.3858267716535433,
          "duration": 0.16414868541667005
        },
        {
          "name": "G#4",
          "midi": 68,
          "time": 55.384728,
          "velocity": 0.3858267716535433,
          "duration": 1.3179971854166652
        },
        {
          "name": "A#4",
          "midi": 70,
          "time": 56.703412,
          "velocity": 0.3858267716535433,
          "duration": 1.3179971854166652
        },
        {
          "name": "C5",
          "midi": 72,
          "time": 58.022096,
          "velocity": 0.3858267716535433,
          "duration": 1.3179971854166652
        },
        {
          "name": "C5",
          "midi": 72,
          "time": 59.340779999999995,
          "velocity": 0.5039370078740157,
          "duration": 0.16414868541667005
        },
        {
          "name": "D5",
          "midi": 74,
          "time": 59.5056155,
          "velocity": 0.5039370078740157,
          "duration": 0.16414868541667005
        },
        {
          "name": "E5",
          "midi": 76,
          "time": 59.8352865,
          "velocity": 0.5039370078740157,
          "duration": 0.16414868541667005
        },
        {
          "name": "G5",
          "midi": 79,
          "time": 60.16495750000001,
          "velocity": 0.5039370078740157,
          "duration": 0.49381968541666765
        },
        {
          "name": "G#5",
          "midi": 80,
          "time": 60.65946400000001,
          "velocity": 0.5039370078740157,
          "duration": 1.3179971854166652
        },
        {
          "name": "F5",
          "midi": 77,
          "time": 61.978148000000004,
          "velocity": 0.5039370078740157,
          "duration": 1.3179971854166652
        },
        {
          "name": "A#5",
          "midi": 82,
          "time": 63.296832,
          "velocity": 0.5039370078740157,
          "duration": 0.16414868541667005
        },
        {
          "name": "A#5",
          "midi": 82,
          "time": 63.461667500000004,
          "velocity": 0.5039370078740157,
          "duration": 0.3289841854166653
        },
        {
          "name": "A#5",
          "midi": 82,
          "time": 63.7913385,
          "velocity": 0.5039370078740157,
          "duration": 0.16414868541667005
        },
        {
          "name": "C6",
          "midi": 84,
          "time": 63.956174000000004,
          "velocity": 0.5039370078740157,
          "duration": 0.16414868541666294
        },
        {
          "name": "C6",
          "midi": 84,
          "time": 64.1210095,
          "velocity": 0.5039370078740157,
          "duration": 0.3289841854166724
        },
        {
          "name": "C6",
          "midi": 84,
          "time": 64.4506805,
          "velocity": 0.5039370078740157,
          "duration": 0.16414868541666294
        },
        {
          "name": "C#6",
          "midi": 85,
          "time": 64.615516,
          "velocity": 0.5039370078740157,
          "duration": 0.16414868541666294
        },
        {
          "name": "C#6",
          "midi": 85,
          "time": 64.7803515,
          "velocity": 0.5039370078740157,
          "duration": 0.3289841854166724
        },
        {
          "name": "C#6",
          "midi": 85,
          "time": 65.1100225,
          "velocity": 0.5039370078740157,
          "duration": 0.16414868541666294
        },
        {
          "name": "D6",
          "midi": 86,
          "time": 65.274858,
          "velocity": 0.5039370078740157,
          "duration": 0.3289841854166724
        },
        {
          "name": "D6",
          "midi": 86,
          "time": 65.604529,
          "velocity": 0.5039370078740157,
          "duration": 0.16414868541666294
        },
        {
          "name": "D6",
          "midi": 86,
          "time": 65.7693645,
          "velocity": 0.5039370078740157,
          "duration": 0.16414868541666294
        },
        {
          "name": "A#5",
          "midi": 82,
          "time": 69.7254165,
          "velocity": 0.6299212598425197,
          "duration": 0.3289841854166724
        },
        {
          "name": "A#5",
          "midi": 82,
          "time": 70.0550875,
          "velocity": 0.6299212598425197,
          "duration": 0.08173093541667242
        },
        {
          "name": "C6",
          "midi": 84,
          "time": 70.21992300000001,
          "velocity": 0.6299212598425197,
          "duration": 0.08173093541667242
        },
        {
          "name": "C6",
          "midi": 84,
          "time": 70.38475850000002,
          "velocity": 0.6299212598425197,
          "duration": 0.08173093541667242
        },
        {
          "name": "A#5",
          "midi": 82,
          "time": 70.54959400000003,
          "velocity": 0.6299212598425197,
          "duration": 0.08173093541667242
        },
        {
          "name": "A#5",
          "midi": 82,
          "time": 70.71442950000004,
          "velocity": 0.6299212598425197,
          "duration": 0.08173093541667242
        },
        {
          "name": "G#5",
          "midi": 80,
          "time": 70.87926500000005,
          "velocity": 0.6299212598425197,
          "duration": 0.08173093541667242
        },
        {
          "name": "G#5",
          "midi": 80,
          "time": 71.04410050000006,
          "velocity": 0.6299212598425197,
          "duration": 0.08173093541667242
        },
        {
          "name": "A#5",
          "midi": 82,
          "time": 72.52762000000006,
          "velocity": 0.5039370078740157,
          "duration": 0.9883261854166676
        },
        {
          "name": "A5",
          "midi": 81,
          "time": 73.68146850000005,
          "velocity": 0.5039370078740157,
          "duration": 0.8234906854166724
        },
        {
          "name": "D#5",
          "midi": 75,
          "time": 74.67048150000005,
          "velocity": 0.5039370078740157,
          "duration": 0.16414868541666294
        },
        {
          "name": "F5",
          "midi": 77,
          "time": 74.83531700000005,
          "velocity": 0.5039370078740157,
          "duration": 0.16414868541666294
        },
        {
          "name": "D#5",
          "midi": 75,
          "time": 75.00015250000004,
          "velocity": 0.5039370078740157,
          "duration": 1.4828326854166676
        },
        {
          "name": "F5",
          "midi": 77,
          "time": 76.48367200000004,
          "velocity": 0.5039370078740157,
          "duration": 0.6586551854166629
        },
        {
          "name": "F5",
          "midi": 77,
          "time": 77.14301400000004,
          "velocity": 0.5039370078740157,
          "duration": 0.16414868541666294
        },
        {
          "name": "D#5",
          "midi": 75,
          "time": 77.30784950000003,
          "velocity": 0.5039370078740157,
          "duration": 0.49381968541666765
        },
        {
          "name": "F5",
          "midi": 77,
          "time": 77.80235600000003,
          "velocity": 0.5039370078740157,
          "duration": 0.16414868541666294
        },
        {
          "name": "F5",
          "midi": 77,
          "time": 78.29686250000003,
          "velocity": 0.5039370078740157,
          "duration": 0.16414868541666294
        },
        {
          "name": "D#5",
          "midi": 75,
          "time": 78.46169800000003,
          "velocity": 0.5039370078740157,
          "duration": 0.3289841854166724
        },
        {
          "name": "D5",
          "midi": 74,
          "time": 78.79136900000003,
          "velocity": 0.5039370078740157,
          "duration": 0.3289841854166724
        },
        {
          "name": "C5",
          "midi": 72,
          "time": 79.12104000000004,
          "velocity": 0.5039370078740157,
          "duration": 0.16414868541666294
        },
        {
          "name": "C5",
          "midi": 72,
          "time": 79.28587550000003,
          "velocity": 0.5039370078740157,
          "duration": 0.3289841854166724
        },
        {
          "name": "D5",
          "midi": 74,
          "time": 79.61554650000004,
          "velocity": 0.5039370078740157,
          "duration": 0.16414868541666294
        },
        {
          "name": "D#5",
          "midi": 75,
          "time": 79.78038200000003,
          "velocity": 0.5039370078740157,
          "duration": 0.16414868541666294
        },
        {
          "name": "D#5",
          "midi": 75,
          "time": 79.94521750000003,
          "velocity": 0.5039370078740157,
          "duration": 0.16414868541666294
        },
        {
          "name": "E5",
          "midi": 76,
          "time": 80.11005300000002,
          "velocity": 0.5039370078740157,
          "duration": 1.3179971854166723
        },
        {
          "name": "F5",
          "midi": 77,
          "time": 81.75840800000003,
          "velocity": 0.5039370078740157,
          "duration": 0.16414868541666294
        },
        {
          "name": "D#5",
          "midi": 75,
          "time": 82.25291450000003,
          "velocity": 0.5039370078740157,
          "duration": 0.8234906854166724
        },
        {
          "name": "G#5",
          "midi": 80,
          "time": 83.07709200000004,
          "velocity": 0.5039370078740157,
          "duration": 0.16414868541666294
        },
        {
          "name": "A#5",
          "midi": 82,
          "time": 83.57159850000004,
          "velocity": 0.5039370078740157,
          "duration": 0.8234906854166724
        },
        {
          "name": "F5",
          "midi": 77,
          "time": 84.39577600000004,
          "velocity": 0.5039370078740157,
          "duration": 0.16414868541666294
        },
        {
          "name": "D#5",
          "midi": 75,
          "time": 84.56061150000004,
          "velocity": 0.5039370078740157,
          "duration": 0.3289841854166724
        },
        {
          "name": "D5",
          "midi": 74,
          "time": 84.89028250000004,
          "velocity": 0.6299212598425197,
          "duration": 0.16414868541666294
        },
        {
          "name": "D#5",
          "midi": 75,
          "time": 85.05511800000004,
          "velocity": 0.6299212598425197,
          "duration": 0.16414868541666294
        },
        {
          "name": "F5",
          "midi": 77,
          "time": 85.21995350000003,
          "velocity": 0.6299212598425197,
          "duration": 0.16414868541666294
        },
        {
          "name": "G5",
          "midi": 79,
          "time": 85.38478900000003,
          "velocity": 0.6299212598425197,
          "duration": 0.16414868541666294
        },
        {
          "name": "G#5",
          "midi": 80,
          "time": 85.54962450000002,
          "velocity": 0.6299212598425197,
          "duration": 0.16414868541666294
        },
        {
          "name": "G5",
          "midi": 79,
          "time": 85.71446000000002,
          "velocity": 0.6299212598425197,
          "duration": 0.16414868541666294
        },
        {
          "name": "G#5",
          "midi": 80,
          "time": 85.87929550000001,
          "velocity": 0.6299212598425197,
          "duration": 0.16414868541666294
        },
        {
          "name": "G5",
          "midi": 79,
          "time": 86.2089665,
          "velocity": 0.6299212598425197,
          "duration": 0.8234906854166724
        },
        {
          "name": "G#5",
          "midi": 80,
          "time": 87.03314400000001,
          "velocity": 0.6299212598425197,
          "duration": 0.6586551854166629
        },
        {
          "name": "G#5",
          "midi": 80,
          "time": 87.692486,
          "velocity": 0.7559055118110236,
          "duration": 0.3289841854166724
        },
        {
          "name": "C6",
          "midi": 84,
          "time": 88.022157,
          "velocity": 0.7559055118110236,
          "duration": 0.3289841854166724
        },
        {
          "name": "D6",
          "midi": 86,
          "time": 88.35182800000001,
          "velocity": 0.7559055118110236,
          "duration": 0.9883261854166676
        },
        {
          "name": "D#5",
          "midi": 75,
          "time": 94.94524800000002,
          "velocity": 0.7559055118110236,
          "duration": 0.3289841854166724
        },
        {
          "name": "F5",
          "midi": 77,
          "time": 95.27491900000003,
          "velocity": 0.7559055118110236,
          "duration": 0.16414868541666294
        },
        {
          "name": "D#5",
          "midi": 75,
          "time": 95.43975450000002,
          "velocity": 0.7559055118110236,
          "duration": 0.6586551854166629
        },
        {
          "name": "G#5",
          "midi": 80,
          "time": 96.09909650000002,
          "velocity": 0.7559055118110236,
          "duration": 0.3289841854166724
        },
        {
          "name": "G5",
          "midi": 79,
          "time": 96.42876750000002,
          "velocity": 0.7559055118110236,
          "duration": 0.16414868541666294
        },
        {
          "name": "G#5",
          "midi": 80,
          "time": 96.59360300000002,
          "velocity": 0.7559055118110236,
          "duration": 0.16414868541666294
        },
        {
          "name": "C6",
          "midi": 84,
          "time": 96.75843850000001,
          "velocity": 0.7559055118110236,
          "duration": 0.3289841854166724
        },
        {
          "name": "G5",
          "midi": 79,
          "time": 97.08810950000002,
          "velocity": 0.7559055118110236,
          "duration": 0.16414868541666294
        },
        {
          "name": "G#5",
          "midi": 80,
          "time": 97.25294500000001,
          "velocity": 0.7559055118110236,
          "duration": 0.16414868541666294
        },
        {
          "name": "A5",
          "midi": 81,
          "time": 97.4177805,
          "velocity": 0.7559055118110236,
          "duration": 0.16414868541666294
        },
        {
          "name": "A#5",
          "midi": 82,
          "time": 97.582616,
          "velocity": 0.7559055118110236,
          "duration": 0.3289841854166724
        }
      ],
      "controlChanges": {
        "7": [
          {
            "number": 7,
            "time": 0,
            "value": 0.7874015748031497
          }
        ],
        "10": [
          {
            "number": 10,
            "time": 0,
            "value": 0.5039370078740157
          }
        ],
        "91": [
          {
            "number": 91,
            "time": 0,
            "value": 0
          }
        ],
        "93": [
          {
            "number": 93,
            "time": 0,
            "value": 0
          }
        ],
        "121": [
          {
            "number": 121,
            "time": 0,
            "value": 0
          }
        ]
      }
    },
    {
      "startTime": 0,
      "duration": 99.23028418541668,
      "length": 146,
      "id": 8,
      "instrumentNumber": 27,
      "instrumentFamily": "drums",
      "channelNumber": 10,
      "isPercussion": true,
      "notes": [
        {
          "name": "D#4",
          "midi": 63,
          "time": 0,
          "velocity": 0.6299212598425197,
          "duration": 0.1641486854166667
        },
        {
          "name": "D#4",
          "midi": 63,
          "time": 0.49450650000000007,
          "velocity": 0.6299212598425197,
          "duration": 0.49381968541666665
        },
        {
          "name": "A#3",
          "midi": 58,
          "time": 0.989013,
          "velocity": 0.6299212598425197,
          "duration": 0.1641486854166666
        },
        {
          "name": "G#3",
          "midi": 56,
          "time": 1.4835195,
          "velocity": 0.6299212598425197,
          "duration": 0.16414868541666672
        },
        {
          "name": "G#3",
          "midi": 56,
          "time": 1.8131905000000001,
          "velocity": 0.6299212598425197,
          "duration": 0.16414868541666672
        },
        {
          "name": "C4",
          "midi": 60,
          "time": 1.9780260000000003,
          "velocity": 0.6299212598425197,
          "duration": 0.1641486854166665
        },
        {
          "name": "C4",
          "midi": 60,
          "time": 2.1428615,
          "velocity": 0.6299212598425197,
          "duration": 0.1641486854166665
        },
        {
          "name": "G#3",
          "midi": 56,
          "time": 2.3076969999999997,
          "velocity": 0.6299212598425197,
          "duration": 0.32898418541666663
        },
        {
          "name": "A#3",
          "midi": 58,
          "time": 2.6373679999999995,
          "velocity": 0.6299212598425197,
          "duration": 0.1641486854166665
        },
        {
          "name": "G3",
          "midi": 55,
          "time": 3.1318744999999995,
          "velocity": 0.6299212598425197,
          "duration": 0.32898418541666663
        },
        {
          "name": "G#3",
          "midi": 56,
          "time": 3.4615454999999993,
          "velocity": 0.6299212598425197,
          "duration": 0.1641486854166665
        },
        {
          "name": "A3",
          "midi": 57,
          "time": 3.626380999999999,
          "velocity": 0.6299212598425197,
          "duration": 0.1641486854166665
        },
        {
          "name": "A#3",
          "midi": 58,
          "time": 3.7912164999999987,
          "velocity": 0.6299212598425197,
          "duration": 0.1641486854166665
        },
        {
          "name": "D#3",
          "midi": 51,
          "time": 3.9560519999999983,
          "velocity": 0.6299212598425197,
          "duration": 0.16414868541666694
        },
        {
          "name": "A#4",
          "midi": 70,
          "time": 8.4066105,
          "velocity": 0.5039370078740157,
          "duration": 0.1641486854166665
        },
        {
          "name": "G#4",
          "midi": 68,
          "time": 8.571446,
          "velocity": 0.5039370078740157,
          "duration": 0.21909385208333276
        },
        {
          "name": "G4",
          "midi": 67,
          "time": 8.791226666666667,
          "velocity": 0.5039370078740157,
          "duration": 0.21909385208333276
        },
        {
          "name": "F4",
          "midi": 65,
          "time": 9.011007333333334,
          "velocity": 0.5039370078740157,
          "duration": 0.21909385208333276
        },
        {
          "name": "D#4",
          "midi": 63,
          "time": 9.230788,
          "velocity": 0.5039370078740157,
          "duration": 0.3289841854166671
        },
        {
          "name": "D#4",
          "midi": 63,
          "time": 10.549472000000002,
          "velocity": 0.3858267716535433,
          "duration": 0.1641486854166665
        },
        {
          "name": "A#4",
          "midi": 70,
          "time": 10.549472000000002,
          "velocity": 0.3858267716535433,
          "duration": 0.1641486854166665
        },
        {
          "name": "D#4",
          "midi": 63,
          "time": 11.043978500000001,
          "velocity": 0.3858267716535433,
          "duration": 0.6586551854166665
        },
        {
          "name": "A#4",
          "midi": 70,
          "time": 11.043978500000001,
          "velocity": 0.3858267716535433,
          "duration": 0.6586551854166665
        },
        {
          "name": "D#4",
          "midi": 63,
          "time": 11.868156,
          "velocity": 0.3858267716535433,
          "duration": 0.1641486854166665
        },
        {
          "name": "G#4",
          "midi": 68,
          "time": 11.868156,
          "velocity": 0.3858267716535433,
          "duration": 0.1641486854166665
        },
        {
          "name": "D#4",
          "midi": 63,
          "time": 12.3626625,
          "velocity": 0.3858267716535433,
          "duration": 0.3289841854166671
        },
        {
          "name": "G#4",
          "midi": 68,
          "time": 12.3626625,
          "velocity": 0.3858267716535433,
          "duration": 0.3289841854166671
        },
        {
          "name": "F4",
          "midi": 65,
          "time": 13.186840000000002,
          "velocity": 0.3858267716535433,
          "duration": 0.1641486854166665
        },
        {
          "name": "G#4",
          "midi": 68,
          "time": 13.186840000000002,
          "velocity": 0.3858267716535433,
          "duration": 0.1641486854166665
        },
        {
          "name": "F4",
          "midi": 65,
          "time": 13.681346500000002,
          "velocity": 0.3858267716535433,
          "duration": 0.3289841854166671
        },
        {
          "name": "G#4",
          "midi": 68,
          "time": 13.681346500000002,
          "velocity": 0.3858267716535433,
          "duration": 0.3289841854166671
        },
        {
          "name": "D#4",
          "midi": 63,
          "time": 14.505524000000003,
          "velocity": 0.3858267716535433,
          "duration": 0.1641486854166665
        },
        {
          "name": "A#4",
          "midi": 70,
          "time": 14.505524000000003,
          "velocity": 0.3858267716535433,
          "duration": 0.1641486854166665
        },
        {
          "name": "D#4",
          "midi": 63,
          "time": 15.000030500000003,
          "velocity": 0.3858267716535433,
          "duration": 0.3289841854166671
        },
        {
          "name": "A#4",
          "midi": 70,
          "time": 15.000030500000003,
          "velocity": 0.3858267716535433,
          "duration": 0.3289841854166671
        },
        {
          "name": "D#4",
          "midi": 63,
          "time": 15.329701500000004,
          "velocity": 0.3858267716535433,
          "duration": 0.1641486854166665
        },
        {
          "name": "A#4",
          "midi": 70,
          "time": 15.329701500000004,
          "velocity": 0.3858267716535433,
          "duration": 0.1641486854166665
        },
        {
          "name": "D#4",
          "midi": 63,
          "time": 15.494537000000005,
          "velocity": 0.3858267716535433,
          "duration": 0.3289841854166671
        },
        {
          "name": "A#4",
          "midi": 70,
          "time": 15.494537000000005,
          "velocity": 0.3858267716535433,
          "duration": 0.3289841854166671
        },
        {
          "name": "D#4",
          "midi": 63,
          "time": 15.824208000000006,
          "velocity": 0.3858267716535433,
          "duration": 0.1641486854166665
        },
        {
          "name": "A#4",
          "midi": 70,
          "time": 15.824208000000006,
          "velocity": 0.3858267716535433,
          "duration": 0.1641486854166665
        },
        {
          "name": "D#4",
          "midi": 63,
          "time": 16.318714500000006,
          "velocity": 0.3858267716535433,
          "duration": 0.6586551854166665
        },
        {
          "name": "A#4",
          "midi": 70,
          "time": 16.318714500000006,
          "velocity": 0.3858267716535433,
          "duration": 0.6586551854166665
        },
        {
          "name": "D#4",
          "midi": 63,
          "time": 17.142892000000007,
          "velocity": 0.3858267716535433,
          "duration": 0.1641486854166665
        },
        {
          "name": "A#4",
          "midi": 70,
          "time": 17.142892000000007,
          "velocity": 0.3858267716535433,
          "duration": 0.1641486854166665
        },
        {
          "name": "D#4",
          "midi": 63,
          "time": 17.637398500000007,
          "velocity": 0.3858267716535433,
          "duration": 0.6586551854166665
        },
        {
          "name": "A#4",
          "midi": 70,
          "time": 17.637398500000007,
          "velocity": 0.3858267716535433,
          "duration": 0.6586551854166665
        },
        {
          "name": "D#4",
          "midi": 63,
          "time": 18.461576000000008,
          "velocity": 0.3858267716535433,
          "duration": 0.1641486854166665
        },
        {
          "name": "A4",
          "midi": 69,
          "time": 18.461576000000008,
          "velocity": 0.3858267716535433,
          "duration": 0.1641486854166665
        },
        {
          "name": "D#4",
          "midi": 63,
          "time": 18.956082500000008,
          "velocity": 0.3858267716535433,
          "duration": 0.6586551854166665
        },
        {
          "name": "A4",
          "midi": 69,
          "time": 18.956082500000008,
          "velocity": 0.3858267716535433,
          "duration": 0.6586551854166665
        },
        {
          "name": "D#4",
          "midi": 63,
          "time": 19.78026000000001,
          "velocity": 0.3858267716535433,
          "duration": 0.1641486854166665
        },
        {
          "name": "G#4",
          "midi": 68,
          "time": 19.78026000000001,
          "velocity": 0.3858267716535433,
          "duration": 0.1641486854166665
        },
        {
          "name": "D#4",
          "midi": 63,
          "time": 20.27476650000001,
          "velocity": 0.3858267716535433,
          "duration": 0.3289841854166653
        },
        {
          "name": "G#4",
          "midi": 68,
          "time": 20.27476650000001,
          "velocity": 0.3858267716535433,
          "duration": 0.3289841854166653
        },
        {
          "name": "D#4",
          "midi": 63,
          "time": 20.604437500000007,
          "velocity": 0.3858267716535433,
          "duration": 0.1641486854166665
        },
        {
          "name": "G#4",
          "midi": 68,
          "time": 20.604437500000007,
          "velocity": 0.3858267716535433,
          "duration": 0.1641486854166665
        },
        {
          "name": "D#4",
          "midi": 63,
          "time": 20.769273000000005,
          "velocity": 0.3858267716535433,
          "duration": 0.3289841854166653
        },
        {
          "name": "G#4",
          "midi": 68,
          "time": 20.769273000000005,
          "velocity": 0.3858267716535433,
          "duration": 0.3289841854166653
        },
        {
          "name": "D#4",
          "midi": 63,
          "time": 21.098944000000003,
          "velocity": 0.3858267716535433,
          "duration": 0.1641486854166665
        },
        {
          "name": "A#4",
          "midi": 70,
          "time": 21.098944000000003,
          "velocity": 0.3858267716535433,
          "duration": 0.1641486854166665
        },
        {
          "name": "D#4",
          "midi": 63,
          "time": 21.593450500000003,
          "velocity": 0.3858267716535433,
          "duration": 0.6586551854166665
        },
        {
          "name": "A#4",
          "midi": 70,
          "time": 21.593450500000003,
          "velocity": 0.3858267716535433,
          "duration": 0.6586551854166665
        },
        {
          "name": "D#4",
          "midi": 63,
          "time": 22.417628000000004,
          "velocity": 0.3858267716535433,
          "duration": 0.1641486854166665
        },
        {
          "name": "A#4",
          "midi": 70,
          "time": 22.417628000000004,
          "velocity": 0.3858267716535433,
          "duration": 0.1641486854166665
        },
        {
          "name": "D#4",
          "midi": 63,
          "time": 22.912134500000004,
          "velocity": 0.3858267716535433,
          "duration": 0.6586551854166665
        },
        {
          "name": "A#4",
          "midi": 70,
          "time": 22.912134500000004,
          "velocity": 0.3858267716535433,
          "duration": 0.6586551854166665
        },
        {
          "name": "D#4",
          "midi": 63,
          "time": 23.736312000000005,
          "velocity": 0.3858267716535433,
          "duration": 0.1641486854166665
        },
        {
          "name": "G4",
          "midi": 67,
          "time": 23.736312000000005,
          "velocity": 0.3858267716535433,
          "duration": 0.1641486854166665
        },
        {
          "name": "D#4",
          "midi": 63,
          "time": 24.230818500000005,
          "velocity": 0.3858267716535433,
          "duration": 0.6586551854166665
        },
        {
          "name": "G4",
          "midi": 67,
          "time": 24.230818500000005,
          "velocity": 0.3858267716535433,
          "duration": 0.6586551854166665
        },
        {
          "name": "D#4",
          "midi": 63,
          "time": 25.054996000000006,
          "velocity": 0.3858267716535433,
          "duration": 0.1641486854166665
        },
        {
          "name": "A#4",
          "midi": 70,
          "time": 25.054996000000006,
          "velocity": 0.3858267716535433,
          "duration": 0.1641486854166665
        },
        {
          "name": "D#4",
          "midi": 63,
          "time": 25.549502500000006,
          "velocity": 0.3858267716535433,
          "duration": 0.6586551854166665
        },
        {
          "name": "A#4",
          "midi": 70,
          "time": 25.549502500000006,
          "velocity": 0.3858267716535433,
          "duration": 0.6586551854166665
        },
        {
          "name": "D#4",
          "midi": 63,
          "time": 26.373680000000007,
          "velocity": 0.3858267716535433,
          "duration": 0.1641486854166665
        },
        {
          "name": "G#4",
          "midi": 68,
          "time": 26.373680000000007,
          "velocity": 0.3858267716535433,
          "duration": 0.1641486854166665
        },
        {
          "name": "D#4",
          "midi": 63,
          "time": 26.868186500000007,
          "velocity": 0.3858267716535433,
          "duration": 0.6586551854166665
        },
        {
          "name": "G#4",
          "midi": 68,
          "time": 26.868186500000007,
          "velocity": 0.3858267716535433,
          "duration": 0.6586551854166665
        },
        {
          "name": "D#4",
          "midi": 63,
          "time": 27.69236400000001,
          "velocity": 0.3858267716535433,
          "duration": 0.1641486854166665
        },
        {
          "name": "G4",
          "midi": 67,
          "time": 27.69236400000001,
          "velocity": 0.3858267716535433,
          "duration": 0.1641486854166665
        },
        {
          "name": "D#4",
          "midi": 63,
          "time": 28.18687050000001,
          "velocity": 0.3858267716535433,
          "duration": 0.6586551854166665
        },
        {
          "name": "G4",
          "midi": 67,
          "time": 28.18687050000001,
          "velocity": 0.3858267716535433,
          "duration": 0.6586551854166665
        },
        {
          "name": "C4",
          "midi": 60,
          "time": 29.01104800000001,
          "velocity": 0.5039370078740157,
          "duration": 0.1641486854166665
        },
        {
          "name": "A#3",
          "midi": 58,
          "time": 29.17588350000001,
          "velocity": 0.5039370078740157,
          "duration": 0.1641486854166665
        },
        {
          "name": "C4",
          "midi": 60,
          "time": 29.340719000000007,
          "velocity": 0.5039370078740157,
          "duration": 0.1641486854166665
        },
        {
          "name": "A#3",
          "midi": 58,
          "time": 29.505554500000006,
          "velocity": 0.5039370078740157,
          "duration": 0.1641486854166665
        },
        {
          "name": "G3",
          "midi": 55,
          "time": 29.835225500000007,
          "velocity": 0.5039370078740157,
          "duration": 0.1641486854166665
        },
        {
          "name": "D#3",
          "midi": 51,
          "time": 30.164896500000008,
          "velocity": 0.5039370078740157,
          "duration": 0.3289841854166653
        },
        {
          "name": "F3",
          "midi": 53,
          "time": 30.494567500000006,
          "velocity": 0.5039370078740157,
          "duration": 0.1641486854166665
        },
        {
          "name": "F#3",
          "midi": 54,
          "time": 30.659403000000005,
          "velocity": 0.5039370078740157,
          "duration": 0.1641486854166665
        },
        {
          "name": "G3",
          "midi": 55,
          "time": 30.824238500000003,
          "velocity": 0.5039370078740157,
          "duration": 0.1641486854166665
        },
        {
          "name": "A#3",
          "midi": 58,
          "time": 31.153909500000005,
          "velocity": 0.5039370078740157,
          "duration": 0.49381968541666765
        },
        {
          "name": "G4",
          "midi": 67,
          "time": 31.978087000000006,
          "velocity": 0.3858267716535433,
          "duration": 0.1641486854166665
        },
        {
          "name": "A#4",
          "midi": 70,
          "time": 31.978087000000006,
          "velocity": 0.3858267716535433,
          "duration": 0.1641486854166665
        },
        {
          "name": "D#4",
          "midi": 63,
          "time": 32.637429000000004,
          "velocity": 0.3858267716535433,
          "duration": 0.16414868541667005
        },
        {
          "name": "G4",
          "midi": 67,
          "time": 32.637429000000004,
          "velocity": 0.3858267716535433,
          "duration": 0.16414868541667005
        },
        {
          "name": "G4",
          "midi": 67,
          "time": 33.29677100000001,
          "velocity": 0.3858267716535433,
          "duration": 0.16414868541667005
        },
        {
          "name": "A#4",
          "midi": 70,
          "time": 33.29677100000001,
          "velocity": 0.3858267716535433,
          "duration": 0.16414868541667005
        },
        {
          "name": "D#4",
          "midi": 63,
          "time": 33.95611300000001,
          "velocity": 0.3858267716535433,
          "duration": 0.16414868541667005
        },
        {
          "name": "G4",
          "midi": 67,
          "time": 33.95611300000001,
          "velocity": 0.3858267716535433,
          "duration": 0.16414868541667005
        },
        {
          "name": "G4",
          "midi": 67,
          "time": 34.61545500000001,
          "velocity": 0.3858267716535433,
          "duration": 0.16414868541667005
        },
        {
          "name": "A#4",
          "midi": 70,
          "time": 34.61545500000001,
          "velocity": 0.3858267716535433,
          "duration": 0.16414868541667005
        },
        {
          "name": "D#4",
          "midi": 63,
          "time": 35.274797000000014,
          "velocity": 0.3858267716535433,
          "duration": 0.16414868541667005
        },
        {
          "name": "G4",
          "midi": 67,
          "time": 35.274797000000014,
          "velocity": 0.3858267716535433,
          "duration": 0.16414868541667005
        },
        {
          "name": "G4",
          "midi": 67,
          "time": 35.934139000000016,
          "velocity": 0.3858267716535433,
          "duration": 0.16414868541667005
        },
        {
          "name": "A#4",
          "midi": 70,
          "time": 35.934139000000016,
          "velocity": 0.3858267716535433,
          "duration": 0.16414868541667005
        },
        {
          "name": "D#4",
          "midi": 63,
          "time": 36.59348100000002,
          "velocity": 0.3858267716535433,
          "duration": 0.16414868541667005
        },
        {
          "name": "G4",
          "midi": 67,
          "time": 36.59348100000002,
          "velocity": 0.3858267716535433,
          "duration": 0.16414868541667005
        },
        {
          "name": "G4",
          "midi": 67,
          "time": 37.25282300000002,
          "velocity": 0.3858267716535433,
          "duration": 0.16414868541667005
        },
        {
          "name": "A#4",
          "midi": 70,
          "time": 37.25282300000002,
          "velocity": 0.3858267716535433,
          "duration": 0.16414868541667005
        },
        {
          "name": "D#4",
          "midi": 63,
          "time": 37.91216500000002,
          "velocity": 0.3858267716535433,
          "duration": 0.16414868541667005
        },
        {
          "name": "G4",
          "midi": 67,
          "time": 37.91216500000002,
          "velocity": 0.3858267716535433,
          "duration": 0.16414868541667005
        },
        {
          "name": "G4",
          "midi": 67,
          "time": 38.571507000000025,
          "velocity": 0.3858267716535433,
          "duration": 0.16414868541667005
        },
        {
          "name": "A#4",
          "midi": 70,
          "time": 38.571507000000025,
          "velocity": 0.3858267716535433,
          "duration": 0.16414868541667005
        },
        {
          "name": "D#4",
          "midi": 63,
          "time": 39.23084900000003,
          "velocity": 0.3858267716535433,
          "duration": 0.16414868541667005
        },
        {
          "name": "G4",
          "midi": 67,
          "time": 39.23084900000003,
          "velocity": 0.3858267716535433,
          "duration": 0.16414868541667005
        },
        {
          "name": "D#4",
          "midi": 63,
          "time": 39.56052000000003,
          "velocity": 0.3858267716535433,
          "duration": 0.16414868541667005
        },
        {
          "name": "A#4",
          "midi": 70,
          "time": 39.56052000000003,
          "velocity": 0.3858267716535433,
          "duration": 0.16414868541667005
        },
        {
          "name": "D#4",
          "midi": 63,
          "time": 40.05502650000003,
          "velocity": 0.3858267716535433,
          "duration": 0.65865518541667
        },
        {
          "name": "A#4",
          "midi": 70,
          "time": 40.05502650000003,
          "velocity": 0.3858267716535433,
          "duration": 0.65865518541667
        },
        {
          "name": "D#4",
          "midi": 63,
          "time": 40.87920400000004,
          "velocity": 0.3858267716535433,
          "duration": 0.16414868541667005
        },
        {
          "name": "A#4",
          "midi": 70,
          "time": 40.87920400000004,
          "velocity": 0.3858267716535433,
          "duration": 0.16414868541667005
        },
        {
          "name": "D#4",
          "midi": 63,
          "time": 41.37371050000004,
          "velocity": 0.3858267716535433,
          "duration": 0.65865518541667
        },
        {
          "name": "A#4",
          "midi": 70,
          "time": 41.37371050000004,
          "velocity": 0.3858267716535433,
          "duration": 0.65865518541667
        },
        {
          "name": "D#4",
          "midi": 63,
          "time": 42.03305250000004,
          "velocity": 0.3858267716535433,
          "duration": 1.4828326854166676
        },
        {
          "name": "A#4",
          "midi": 70,
          "time": 42.03305250000004,
          "velocity": 0.3858267716535433,
          "duration": 1.4828326854166676
        },
        {
          "name": "D#4",
          "midi": 63,
          "time": 89.67051200000004,
          "velocity": 0.6299212598425197,
          "duration": 0.16414868541666294
        },
        {
          "name": "D#4",
          "midi": 63,
          "time": 90.16501850000004,
          "velocity": 0.6299212598425197,
          "duration": 0.49381968541666765
        },
        {
          "name": "A#3",
          "midi": 58,
          "time": 90.65952500000004,
          "velocity": 0.6299212598425197,
          "duration": 0.16414868541666294
        },
        {
          "name": "G#3",
          "midi": 56,
          "time": 91.15403150000004,
          "velocity": 0.6299212598425197,
          "duration": 0.16414868541666294
        },
        {
          "name": "G#3",
          "midi": 56,
          "time": 91.48370250000004,
          "velocity": 0.6299212598425197,
          "duration": 0.16414868541666294
        },
        {
          "name": "C4",
          "midi": 60,
          "time": 91.64853800000003,
          "velocity": 0.6299212598425197,
          "duration": 0.16414868541666294
        },
        {
          "name": "C4",
          "midi": 60,
          "time": 91.81337350000003,
          "velocity": 0.6299212598425197,
          "duration": 0.16414868541666294
        },
        {
          "name": "G#3",
          "midi": 56,
          "time": 91.97820900000002,
          "velocity": 0.6299212598425197,
          "duration": 0.3289841854166724
        },
        {
          "name": "A#3",
          "midi": 58,
          "time": 92.30788000000003,
          "velocity": 0.6299212598425197,
          "duration": 0.16414868541666294
        },
        {
          "name": "G3",
          "midi": 55,
          "time": 92.80238650000003,
          "velocity": 0.6299212598425197,
          "duration": 0.3289841854166724
        },
        {
          "name": "G#3",
          "midi": 56,
          "time": 93.13205750000003,
          "velocity": 0.6299212598425197,
          "duration": 0.16414868541666294
        },
        {
          "name": "A3",
          "midi": 57,
          "time": 93.29689300000003,
          "velocity": 0.6299212598425197,
          "duration": 0.16414868541666294
        },
        {
          "name": "A#3",
          "midi": 58,
          "time": 93.46172850000002,
          "velocity": 0.6299212598425197,
          "duration": 0.16414868541666294
        },
        {
          "name": "D#3",
          "midi": 51,
          "time": 93.62656400000002,
          "velocity": 0.6299212598425197,
          "duration": 0.16414868541666294
        },
        {
          "name": "A#4",
          "midi": 70,
          "time": 98.07712250000002,
          "velocity": 0.5039370078740157,
          "duration": 0.16414868541666294
        },
        {
          "name": "G#4",
          "midi": 68,
          "time": 98.24195800000001,
          "velocity": 0.5039370078740157,
          "duration": 0.21909385208333276
        },
        {
          "name": "G4",
          "midi": 67,
          "time": 98.46173866666668,
          "velocity": 0.5039370078740157,
          "duration": 0.21909385208333276
        },
        {
          "name": "F4",
          "midi": 65,
          "time": 98.68151933333334,
          "velocity": 0.5039370078740157,
          "duration": 0.21909385208333276
        },
        {
          "name": "D#4",
          "midi": 63,
          "time": 98.9013,
          "velocity": 0.5039370078740157,
          "duration": 0.3289841854166724
        }
      ],
      "controlChanges": {
        "7": [
          {
            "number": 7,
            "time": 0,
            "value": 0.7874015748031497
          }
        ],
        "10": [
          {
            "number": 10,
            "time": 0,
            "value": 0.5039370078740157
          }
        ],
        "91": [
          {
            "number": 91,
            "time": 0,
            "value": 0
          }
        ],
        "93": [
          {
            "number": 93,
            "time": 0,
            "value": 0
          }
        ],
        "121": [
          {
            "number": 121,
            "time": 0,
            "value": 0
          }
        ]
      }
    },
    {
      "startTime": 0,
      "duration": 99.23028418541645,
      "length": 260,
      "id": 9,
      "instrumentNumber": 34,
      "instrument": "electric bass (pick)",
      "instrumentFamily": "bass",
      "channelNumber": 11,
      "isPercussion": false,
      "notes": [
        {
          "name": "D#2",
          "midi": 39,
          "time": 0,
          "velocity": 0.7559055118110236,
          "duration": 0.1641486854166667
        },
        {
          "name": "D#2",
          "midi": 39,
          "time": 0.49450650000000007,
          "velocity": 0.7559055118110236,
          "duration": 0.49381968541666665
        },
        {
          "name": "A#2",
          "midi": 46,
          "time": 0.989013,
          "velocity": 0.7559055118110236,
          "duration": 0.1641486854166666
        },
        {
          "name": "G#2",
          "midi": 44,
          "time": 1.4835195,
          "velocity": 0.7559055118110236,
          "duration": 0.16414868541666672
        },
        {
          "name": "G#2",
          "midi": 44,
          "time": 1.8131905000000001,
          "velocity": 0.7559055118110236,
          "duration": 0.16414868541666672
        },
        {
          "name": "C2",
          "midi": 36,
          "time": 1.9780260000000003,
          "velocity": 0.7559055118110236,
          "duration": 0.1641486854166665
        },
        {
          "name": "C2",
          "midi": 36,
          "time": 2.1428615,
          "velocity": 0.7559055118110236,
          "duration": 0.1641486854166665
        },
        {
          "name": "G#2",
          "midi": 44,
          "time": 2.3076969999999997,
          "velocity": 0.7559055118110236,
          "duration": 0.32898418541666663
        },
        {
          "name": "A#2",
          "midi": 46,
          "time": 2.6373679999999995,
          "velocity": 0.7559055118110236,
          "duration": 0.1641486854166665
        },
        {
          "name": "G2",
          "midi": 43,
          "time": 3.1318744999999995,
          "velocity": 0.7559055118110236,
          "duration": 0.32898418541666663
        },
        {
          "name": "G#2",
          "midi": 44,
          "time": 3.4615454999999993,
          "velocity": 0.7559055118110236,
          "duration": 0.1641486854166665
        },
        {
          "name": "A2",
          "midi": 45,
          "time": 3.626380999999999,
          "velocity": 0.7559055118110236,
          "duration": 0.1641486854166665
        },
        {
          "name": "A#2",
          "midi": 46,
          "time": 3.7912164999999987,
          "velocity": 0.7559055118110236,
          "duration": 0.1641486854166665
        },
        {
          "name": "D#2",
          "midi": 39,
          "time": 3.9560519999999983,
          "velocity": 0.7559055118110236,
          "duration": 0.16414868541666694
        },
        {
          "name": "D#2",
          "midi": 39,
          "time": 5.274735999999999,
          "velocity": 0.6299212598425197,
          "duration": 0.1641486854166665
        },
        {
          "name": "D#2",
          "midi": 39,
          "time": 5.769242499999999,
          "velocity": 0.6299212598425197,
          "duration": 0.49381968541666676
        },
        {
          "name": "A#2",
          "midi": 46,
          "time": 6.263748999999999,
          "velocity": 0.6299212598425197,
          "duration": 0.1641486854166665
        },
        {
          "name": "G#2",
          "midi": 44,
          "time": 6.758255499999999,
          "velocity": 0.6299212598425197,
          "duration": 0.1641486854166665
        },
        {
          "name": "G#2",
          "midi": 44,
          "time": 7.087926499999999,
          "velocity": 0.6299212598425197,
          "duration": 0.1641486854166665
        },
        {
          "name": "C3",
          "midi": 48,
          "time": 7.252761999999999,
          "velocity": 0.6299212598425197,
          "duration": 0.1641486854166665
        },
        {
          "name": "C3",
          "midi": 48,
          "time": 7.4175974999999985,
          "velocity": 0.6299212598425197,
          "duration": 0.1641486854166665
        },
        {
          "name": "G#2",
          "midi": 44,
          "time": 7.582432999999998,
          "velocity": 0.6299212598425197,
          "duration": 0.3289841854166671
        },
        {
          "name": "A#2",
          "midi": 46,
          "time": 7.9121039999999985,
          "velocity": 0.6299212598425197,
          "duration": 0.16414868541666738
        },
        {
          "name": "A#2",
          "midi": 46,
          "time": 8.4066105,
          "velocity": 0.6299212598425197,
          "duration": 0.1641486854166665
        },
        {
          "name": "G#2",
          "midi": 44,
          "time": 8.571446,
          "velocity": 0.6299212598425197,
          "duration": 0.21909385208333276
        },
        {
          "name": "G2",
          "midi": 43,
          "time": 8.791226666666667,
          "velocity": 0.6299212598425197,
          "duration": 0.21909385208333276
        },
        {
          "name": "F2",
          "midi": 41,
          "time": 9.011007333333334,
          "velocity": 0.6299212598425197,
          "duration": 0.21909385208333276
        },
        {
          "name": "D#2",
          "midi": 39,
          "time": 9.230788,
          "velocity": 0.6299212598425197,
          "duration": 0.3289841854166671
        },
        {
          "name": "D#2",
          "midi": 39,
          "time": 10.549472000000002,
          "velocity": 0.5039370078740157,
          "duration": 0.1641486854166665
        },
        {
          "name": "D#2",
          "midi": 39,
          "time": 11.043978500000001,
          "velocity": 0.5039370078740157,
          "duration": 0.1641486854166665
        },
        {
          "name": "G#1",
          "midi": 32,
          "time": 11.868156,
          "velocity": 0.5039370078740157,
          "duration": 0.1641486854166665
        },
        {
          "name": "G#1",
          "midi": 32,
          "time": 12.3626625,
          "velocity": 0.5039370078740157,
          "duration": 0.1641486854166665
        },
        {
          "name": "G#1",
          "midi": 32,
          "time": 12.857169,
          "velocity": 0.5039370078740157,
          "duration": 0.3289841854166671
        },
        {
          "name": "A#1",
          "midi": 34,
          "time": 13.186840000000002,
          "velocity": 0.5039370078740157,
          "duration": 0.1641486854166665
        },
        {
          "name": "A#1",
          "midi": 34,
          "time": 13.681346500000002,
          "velocity": 0.5039370078740157,
          "duration": 0.1641486854166665
        },
        {
          "name": "D#2",
          "midi": 39,
          "time": 14.505524000000001,
          "velocity": 0.5039370078740157,
          "duration": 0.1641486854166665
        },
        {
          "name": "D#2",
          "midi": 39,
          "time": 15.000030500000001,
          "velocity": 0.5039370078740157,
          "duration": 0.1641486854166665
        },
        {
          "name": "D2",
          "midi": 38,
          "time": 15.494537000000001,
          "velocity": 0.5039370078740157,
          "duration": 0.3289841854166671
        },
        {
          "name": "C2",
          "midi": 36,
          "time": 15.824208000000002,
          "velocity": 0.5039370078740157,
          "duration": 0.1641486854166665
        },
        {
          "name": "C2",
          "midi": 36,
          "time": 16.318714500000002,
          "velocity": 0.5039370078740157,
          "duration": 0.1641486854166665
        },
        {
          "name": "A#1",
          "midi": 34,
          "time": 17.142892000000003,
          "velocity": 0.5039370078740157,
          "duration": 0.1641486854166665
        },
        {
          "name": "A#1",
          "midi": 34,
          "time": 17.637398500000003,
          "velocity": 0.5039370078740157,
          "duration": 0.1641486854166665
        },
        {
          "name": "A#1",
          "midi": 34,
          "time": 18.131905000000003,
          "velocity": 0.5039370078740157,
          "duration": 0.3289841854166653
        },
        {
          "name": "A1",
          "midi": 33,
          "time": 18.461576,
          "velocity": 0.5039370078740157,
          "duration": 0.1641486854166665
        },
        {
          "name": "A1",
          "midi": 33,
          "time": 18.9560825,
          "velocity": 0.5039370078740157,
          "duration": 0.1641486854166665
        },
        {
          "name": "G#1",
          "midi": 32,
          "time": 19.780260000000002,
          "velocity": 0.5039370078740157,
          "duration": 0.1641486854166665
        },
        {
          "name": "G#1",
          "midi": 32,
          "time": 20.274766500000002,
          "velocity": 0.5039370078740157,
          "duration": 0.1641486854166665
        },
        {
          "name": "A#1",
          "midi": 34,
          "time": 21.098944000000003,
          "velocity": 0.5039370078740157,
          "duration": 0.1641486854166665
        },
        {
          "name": "A#1",
          "midi": 34,
          "time": 21.593450500000003,
          "velocity": 0.5039370078740157,
          "duration": 0.1641486854166665
        },
        {
          "name": "A#1",
          "midi": 34,
          "time": 22.417628000000004,
          "velocity": 0.5039370078740157,
          "duration": 0.1641486854166665
        },
        {
          "name": "A#1",
          "midi": 34,
          "time": 22.912134500000004,
          "velocity": 0.5039370078740157,
          "duration": 0.1641486854166665
        },
        {
          "name": "G#1",
          "midi": 32,
          "time": 23.406641000000004,
          "velocity": 0.5039370078740157,
          "duration": 0.3289841854166653
        },
        {
          "name": "G1",
          "midi": 31,
          "time": 23.736312,
          "velocity": 0.5039370078740157,
          "duration": 0.1641486854166665
        },
        {
          "name": "G1",
          "midi": 31,
          "time": 24.2308185,
          "velocity": 0.5039370078740157,
          "duration": 0.1641486854166665
        },
        {
          "name": "C2",
          "midi": 36,
          "time": 25.054996000000003,
          "velocity": 0.5039370078740157,
          "duration": 0.1641486854166665
        },
        {
          "name": "C2",
          "midi": 36,
          "time": 25.549502500000003,
          "velocity": 0.5039370078740157,
          "duration": 0.08173093541666532
        },
        {
          "name": "A#1",
          "midi": 34,
          "time": 25.714338,
          "velocity": 0.5039370078740157,
          "duration": 0.6586551854166665
        },
        {
          "name": "G#1",
          "midi": 32,
          "time": 26.37368,
          "velocity": 0.5039370078740157,
          "duration": 0.1641486854166665
        },
        {
          "name": "G#1",
          "midi": 32,
          "time": 26.8681865,
          "velocity": 0.5039370078740157,
          "duration": 0.1641486854166665
        },
        {
          "name": "G1",
          "midi": 31,
          "time": 27.692364,
          "velocity": 0.5039370078740157,
          "duration": 0.1641486854166665
        },
        {
          "name": "G1",
          "midi": 31,
          "time": 28.1868705,
          "velocity": 0.5039370078740157,
          "duration": 0.1641486854166665
        },
        {
          "name": "G1",
          "midi": 31,
          "time": 28.681377,
          "velocity": 0.5039370078740157,
          "duration": 0.3289841854166653
        },
        {
          "name": "C3",
          "midi": 48,
          "time": 29.011048,
          "velocity": 0.6299212598425197,
          "duration": 0.1641486854166665
        },
        {
          "name": "A#2",
          "midi": 46,
          "time": 29.175883499999998,
          "velocity": 0.6299212598425197,
          "duration": 0.1641486854166665
        },
        {
          "name": "C3",
          "midi": 48,
          "time": 29.340718999999996,
          "velocity": 0.6299212598425197,
          "duration": 0.1641486854166665
        },
        {
          "name": "A#2",
          "midi": 46,
          "time": 29.505554499999995,
          "velocity": 0.6299212598425197,
          "duration": 0.1641486854166665
        },
        {
          "name": "G2",
          "midi": 43,
          "time": 29.835225499999996,
          "velocity": 0.6299212598425197,
          "duration": 0.1641486854166665
        },
        {
          "name": "D#2",
          "midi": 39,
          "time": 30.164896499999998,
          "velocity": 0.6299212598425197,
          "duration": 0.3289841854166653
        },
        {
          "name": "F2",
          "midi": 41,
          "time": 30.494567499999995,
          "velocity": 0.6299212598425197,
          "duration": 0.1641486854166665
        },
        {
          "name": "F#2",
          "midi": 42,
          "time": 30.659402999999994,
          "velocity": 0.6299212598425197,
          "duration": 0.1641486854166665
        },
        {
          "name": "G2",
          "midi": 43,
          "time": 30.824238499999993,
          "velocity": 0.6299212598425197,
          "duration": 0.1641486854166665
        },
        {
          "name": "A#2",
          "midi": 46,
          "time": 31.153909499999994,
          "velocity": 0.6299212598425197,
          "duration": 0.49381968541666765
        },
        {
          "name": "D#2",
          "midi": 39,
          "time": 31.648415999999994,
          "velocity": 0.5039370078740157,
          "duration": 0.3289841854166653
        },
        {
          "name": "D#2",
          "midi": 39,
          "time": 32.14292249999999,
          "velocity": 0.5039370078740157,
          "duration": 0.16414868541667005
        },
        {
          "name": "F1",
          "midi": 29,
          "time": 32.967099999999995,
          "velocity": 0.5039370078740157,
          "duration": 0.3289841854166653
        },
        {
          "name": "F1",
          "midi": 29,
          "time": 33.461606499999995,
          "velocity": 0.5039370078740157,
          "duration": 0.16414868541667005
        },
        {
          "name": "G#1",
          "midi": 32,
          "time": 34.285784,
          "velocity": 0.5039370078740157,
          "duration": 0.3289841854166653
        },
        {
          "name": "G#1",
          "midi": 32,
          "time": 34.7802905,
          "velocity": 0.5039370078740157,
          "duration": 0.16414868541667005
        },
        {
          "name": "D#2",
          "midi": 39,
          "time": 35.604468000000004,
          "velocity": 0.5039370078740157,
          "duration": 0.3289841854166653
        },
        {
          "name": "D#2",
          "midi": 39,
          "time": 36.098974500000004,
          "velocity": 0.5039370078740157,
          "duration": 0.16414868541667005
        },
        {
          "name": "G#1",
          "midi": 32,
          "time": 36.92315200000001,
          "velocity": 0.5039370078740157,
          "duration": 0.3289841854166653
        },
        {
          "name": "G#1",
          "midi": 32,
          "time": 37.41765850000001,
          "velocity": 0.5039370078740157,
          "duration": 0.16414868541667005
        },
        {
          "name": "D#2",
          "midi": 39,
          "time": 38.24183600000001,
          "velocity": 0.5039370078740157,
          "duration": 0.3289841854166653
        },
        {
          "name": "D#2",
          "midi": 39,
          "time": 38.73634250000001,
          "velocity": 0.5039370078740157,
          "duration": 0.16414868541667005
        },
        {
          "name": "D2",
          "midi": 38,
          "time": 39.56052000000002,
          "velocity": 0.5039370078740157,
          "duration": 0.3289841854166653
        },
        {
          "name": "D2",
          "midi": 38,
          "time": 40.05502650000002,
          "velocity": 0.5039370078740157,
          "duration": 0.16414868541667005
        },
        {
          "name": "C2",
          "midi": 36,
          "time": 40.87920400000002,
          "velocity": 0.5039370078740157,
          "duration": 0.3289841854166653
        },
        {
          "name": "C2",
          "midi": 36,
          "time": 41.37371050000002,
          "velocity": 0.5039370078740157,
          "duration": 0.16414868541667005
        },
        {
          "name": "A#1",
          "midi": 34,
          "time": 42.033052500000025,
          "velocity": 0.5039370078740157,
          "duration": 1.4828326854166676
        },
        {
          "name": "C2",
          "midi": 36,
          "time": 43.516572000000025,
          "velocity": 0.5039370078740157,
          "duration": 0.65865518541667
        },
        {
          "name": "D2",
          "midi": 38,
          "time": 44.17591400000003,
          "velocity": 0.5039370078740157,
          "duration": 0.65865518541667
        },
        {
          "name": "D#2",
          "midi": 39,
          "time": 44.83525600000003,
          "velocity": 0.5039370078740157,
          "duration": 0.16414868541667005
        },
        {
          "name": "D#2",
          "midi": 39,
          "time": 45.32976250000003,
          "velocity": 0.5039370078740157,
          "duration": 0.49381968541666765
        },
        {
          "name": "A#2",
          "midi": 46,
          "time": 45.82426900000003,
          "velocity": 0.5039370078740157,
          "duration": 0.16414868541667005
        },
        {
          "name": "C3",
          "midi": 48,
          "time": 46.31877550000003,
          "velocity": 0.5039370078740157,
          "duration": 0.16414868541667005
        },
        {
          "name": "D#2",
          "midi": 39,
          "time": 46.648446500000034,
          "velocity": 0.5039370078740157,
          "duration": 0.08173093541666532
        },
        {
          "name": "G2",
          "midi": 43,
          "time": 46.81328200000003,
          "velocity": 0.5039370078740157,
          "duration": 0.16414868541667005
        },
        {
          "name": "G#2",
          "midi": 44,
          "time": 46.97811750000003,
          "velocity": 0.5039370078740157,
          "duration": 0.16414868541667005
        },
        {
          "name": "D#2",
          "midi": 39,
          "time": 47.142953000000034,
          "velocity": 0.5039370078740157,
          "duration": 0.16414868541667005
        },
        {
          "name": "F2",
          "midi": 41,
          "time": 47.47262400000004,
          "velocity": 0.5039370078740157,
          "duration": 0.16414868541667005
        },
        {
          "name": "F2",
          "midi": 41,
          "time": 47.96713050000004,
          "velocity": 0.5039370078740157,
          "duration": 0.49381968541666765
        },
        {
          "name": "C3",
          "midi": 48,
          "time": 48.46163700000004,
          "velocity": 0.5039370078740157,
          "duration": 0.16414868541667005
        },
        {
          "name": "A#2",
          "midi": 46,
          "time": 48.95614350000004,
          "velocity": 0.5039370078740157,
          "duration": 0.16414868541667005
        },
        {
          "name": "A#1",
          "midi": 34,
          "time": 49.28581450000004,
          "velocity": 0.5039370078740157,
          "duration": 0.16414868541667005
        },
        {
          "name": "F2",
          "midi": 41,
          "time": 49.450650000000046,
          "velocity": 0.5039370078740157,
          "duration": 0.3289841854166653
        },
        {
          "name": "A#2",
          "midi": 46,
          "time": 49.78032100000004,
          "velocity": 0.5039370078740157,
          "duration": 0.16414868541667005
        },
        {
          "name": "C3",
          "midi": 48,
          "time": 50.10999200000005,
          "velocity": 0.5039370078740157,
          "duration": 0.16414868541667005
        },
        {
          "name": "C2",
          "midi": 36,
          "time": 50.60449850000005,
          "velocity": 0.5039370078740157,
          "duration": 0.49381968541666765
        },
        {
          "name": "C3",
          "midi": 48,
          "time": 51.09900500000005,
          "velocity": 0.5039370078740157,
          "duration": 0.16414868541667005
        },
        {
          "name": "A#2",
          "midi": 46,
          "time": 51.59351150000005,
          "velocity": 0.5039370078740157,
          "duration": 0.16414868541667005
        },
        {
          "name": "A#1",
          "midi": 34,
          "time": 51.92318250000005,
          "velocity": 0.5039370078740157,
          "duration": 0.16414868541667005
        },
        {
          "name": "F2",
          "midi": 41,
          "time": 52.088018000000055,
          "velocity": 0.5039370078740157,
          "duration": 0.3289841854166653
        },
        {
          "name": "A#2",
          "midi": 46,
          "time": 52.41768900000005,
          "velocity": 0.5039370078740157,
          "duration": 0.16414868541667005
        },
        {
          "name": "A2",
          "midi": 45,
          "time": 52.74736000000006,
          "velocity": 0.5039370078740157,
          "duration": 0.16414868541667005
        },
        {
          "name": "A2",
          "midi": 45,
          "time": 53.24186650000006,
          "velocity": 0.5039370078740157,
          "duration": 0.3289841854166653
        },
        {
          "name": "A2",
          "midi": 45,
          "time": 53.73637300000006,
          "velocity": 0.5039370078740157,
          "duration": 0.16414868541667005
        },
        {
          "name": "G#2",
          "midi": 44,
          "time": 54.23087950000006,
          "velocity": 0.5039370078740157,
          "duration": 0.16414868541667005
        },
        {
          "name": "G#2",
          "midi": 44,
          "time": 54.56055050000006,
          "velocity": 0.5039370078740157,
          "duration": 0.16414868541667005
        },
        {
          "name": "D#2",
          "midi": 39,
          "time": 54.725386000000064,
          "velocity": 0.5039370078740157,
          "duration": 0.16414868541667005
        },
        {
          "name": "D#2",
          "midi": 39,
          "time": 54.89022150000007,
          "velocity": 0.5039370078740157,
          "duration": 0.16414868541667005
        },
        {
          "name": "G2",
          "midi": 43,
          "time": 55.05505700000007,
          "velocity": 0.5039370078740157,
          "duration": 0.16414868541667005
        },
        {
          "name": "F2",
          "midi": 41,
          "time": 55.384728000000074,
          "velocity": 0.5039370078740157,
          "duration": 0.16414868541667005
        },
        {
          "name": "F2",
          "midi": 41,
          "time": 55.879234500000074,
          "velocity": 0.5039370078740157,
          "duration": 0.49381968541666765
        },
        {
          "name": "C3",
          "midi": 48,
          "time": 56.373741000000074,
          "velocity": 0.5039370078740157,
          "duration": 0.16414868541667005
        },
        {
          "name": "G2",
          "midi": 43,
          "time": 56.868247500000074,
          "velocity": 0.5039370078740157,
          "duration": 0.16414868541667005
        },
        {
          "name": "G2",
          "midi": 43,
          "time": 57.19791850000008,
          "velocity": 0.5039370078740157,
          "duration": 0.16414868541667005
        },
        {
          "name": "B2",
          "midi": 47,
          "time": 57.36275400000008,
          "velocity": 0.5039370078740157,
          "duration": 0.16414868541667005
        },
        {
          "name": "B2",
          "midi": 47,
          "time": 57.52758950000008,
          "velocity": 0.5039370078740157,
          "duration": 0.16414868541667005
        },
        {
          "name": "D2",
          "midi": 38,
          "time": 57.692425000000085,
          "velocity": 0.5039370078740157,
          "duration": 0.16414868541667005
        },
        {
          "name": "D#2",
          "midi": 39,
          "time": 58.02209600000009,
          "velocity": 0.5039370078740157,
          "duration": 0.16414868541667005
        },
        {
          "name": "D#2",
          "midi": 39,
          "time": 58.51660250000009,
          "velocity": 0.5039370078740157,
          "duration": 0.49381968541666765
        },
        {
          "name": "A#2",
          "midi": 46,
          "time": 59.01110900000009,
          "velocity": 0.5039370078740157,
          "duration": 0.16414868541667005
        },
        {
          "name": "C3",
          "midi": 48,
          "time": 59.50561550000009,
          "velocity": 0.5039370078740157,
          "duration": 0.16414868541667005
        },
        {
          "name": "C3",
          "midi": 48,
          "time": 59.835286500000095,
          "velocity": 0.5039370078740157,
          "duration": 0.16414868541667005
        },
        {
          "name": "G2",
          "midi": 43,
          "time": 60.0001220000001,
          "velocity": 0.5039370078740157,
          "duration": 0.16414868541667005
        },
        {
          "name": "G2",
          "midi": 43,
          "time": 60.1649575000001,
          "velocity": 0.5039370078740157,
          "duration": 0.16414868541667005
        },
        {
          "name": "C3",
          "midi": 48,
          "time": 60.3297930000001,
          "velocity": 0.5039370078740157,
          "duration": 0.16414868541667005
        },
        {
          "name": "F2",
          "midi": 41,
          "time": 60.659464000000106,
          "velocity": 0.5039370078740157,
          "duration": 0.16414868541667005
        },
        {
          "name": "F2",
          "midi": 41,
          "time": 61.153970500000106,
          "velocity": 0.5039370078740157,
          "duration": 0.49381968541666765
        },
        {
          "name": "C3",
          "midi": 48,
          "time": 61.648477000000106,
          "velocity": 0.5039370078740157,
          "duration": 0.16414868541667005
        },
        {
          "name": "F2",
          "midi": 41,
          "time": 62.142983500000106,
          "velocity": 0.5039370078740157,
          "duration": 0.16414868541667005
        },
        {
          "name": "F2",
          "midi": 41,
          "time": 62.47265450000011,
          "velocity": 0.5039370078740157,
          "duration": 0.16414868541667005
        },
        {
          "name": "C2",
          "midi": 36,
          "time": 62.63749000000011,
          "velocity": 0.5039370078740157,
          "duration": 0.16414868541667005
        },
        {
          "name": "C2",
          "midi": 36,
          "time": 62.802325500000116,
          "velocity": 0.5039370078740157,
          "duration": 0.16414868541667005
        },
        {
          "name": "F2",
          "midi": 41,
          "time": 62.96716100000012,
          "velocity": 0.5039370078740157,
          "duration": 0.16414868541667005
        },
        {
          "name": "A#1",
          "midi": 34,
          "time": 63.29683200000012,
          "velocity": 0.5039370078740157,
          "duration": 0.16414868541667005
        },
        {
          "name": "A#2",
          "midi": 46,
          "time": 63.461667500000125,
          "velocity": 0.5039370078740157,
          "duration": 0.3289841854166653
        },
        {
          "name": "A#1",
          "midi": 34,
          "time": 63.79133850000012,
          "velocity": 0.5039370078740157,
          "duration": 0.16414868541667005
        },
        {
          "name": "C2",
          "midi": 36,
          "time": 63.956174000000125,
          "velocity": 0.5039370078740157,
          "duration": 0.16414868541667005
        },
        {
          "name": "C3",
          "midi": 48,
          "time": 64.12100950000013,
          "velocity": 0.5039370078740157,
          "duration": 0.3289841854166724
        },
        {
          "name": "C2",
          "midi": 36,
          "time": 64.45068050000013,
          "velocity": 0.5039370078740157,
          "duration": 0.16414868541666294
        },
        {
          "name": "C#2",
          "midi": 37,
          "time": 64.61551600000013,
          "velocity": 0.5039370078740157,
          "duration": 0.16414868541666294
        },
        {
          "name": "C#3",
          "midi": 49,
          "time": 64.78035150000012,
          "velocity": 0.5039370078740157,
          "duration": 0.3289841854166724
        },
        {
          "name": "C#2",
          "midi": 37,
          "time": 65.11002250000013,
          "velocity": 0.5039370078740157,
          "duration": 0.16414868541666294
        },
        {
          "name": "D2",
          "midi": 38,
          "time": 65.27485800000012,
          "velocity": 0.5039370078740157,
          "duration": 0.16414868541666294
        },
        {
          "name": "D3",
          "midi": 50,
          "time": 65.43969350000012,
          "velocity": 0.5039370078740157,
          "duration": 0.49381968541666765
        },
        {
          "name": "D#2",
          "midi": 39,
          "time": 65.93420000000012,
          "velocity": 0.5039370078740157,
          "duration": 0.16414868541666294
        },
        {
          "name": "D#2",
          "midi": 39,
          "time": 66.42870650000012,
          "velocity": 0.5039370078740157,
          "duration": 0.49381968541666765
        },
        {
          "name": "A#2",
          "midi": 46,
          "time": 66.92321300000012,
          "velocity": 0.5039370078740157,
          "duration": 0.16414868541666294
        },
        {
          "name": "C3",
          "midi": 48,
          "time": 67.41771950000012,
          "velocity": 0.5039370078740157,
          "duration": 0.16414868541666294
        },
        {
          "name": "D#2",
          "midi": 39,
          "time": 67.74739050000011,
          "velocity": 0.5039370078740157,
          "duration": 0.08173093541667242
        },
        {
          "name": "G2",
          "midi": 43,
          "time": 67.91222600000012,
          "velocity": 0.5039370078740157,
          "duration": 0.16414868541666294
        },
        {
          "name": "G#2",
          "midi": 44,
          "time": 68.07706150000011,
          "velocity": 0.5039370078740157,
          "duration": 0.16414868541666294
        },
        {
          "name": "C3",
          "midi": 48,
          "time": 68.24189700000011,
          "velocity": 0.5039370078740157,
          "duration": 0.16414868541666294
        },
        {
          "name": "G#2",
          "midi": 44,
          "time": 68.5715680000001,
          "velocity": 0.5039370078740157,
          "duration": 0.16414868541666294
        },
        {
          "name": "G#2",
          "midi": 44,
          "time": 69.0660745000001,
          "velocity": 0.5039370078740157,
          "duration": 0.49381968541666765
        },
        {
          "name": "C3",
          "midi": 48,
          "time": 69.5605810000001,
          "velocity": 0.5039370078740157,
          "duration": 0.16414868541666294
        },
        {
          "name": "A#2",
          "midi": 46,
          "time": 70.0550875000001,
          "velocity": 0.5039370078740157,
          "duration": 0.16414868541666294
        },
        {
          "name": "A#1",
          "midi": 34,
          "time": 70.38475850000009,
          "velocity": 0.5039370078740157,
          "duration": 0.16414868541666294
        },
        {
          "name": "F2",
          "midi": 41,
          "time": 70.54959400000008,
          "velocity": 0.5039370078740157,
          "duration": 0.3289841854166724
        },
        {
          "name": "A#2",
          "midi": 46,
          "time": 70.87926500000009,
          "velocity": 0.5039370078740157,
          "duration": 0.16414868541666294
        },
        {
          "name": "C3",
          "midi": 48,
          "time": 71.20893600000008,
          "velocity": 0.5039370078740157,
          "duration": 0.16414868541666294
        },
        {
          "name": "C2",
          "midi": 36,
          "time": 71.70344250000008,
          "velocity": 0.5039370078740157,
          "duration": 0.49381968541666765
        },
        {
          "name": "C3",
          "midi": 48,
          "time": 72.19794900000008,
          "velocity": 0.5039370078740157,
          "duration": 0.16414868541666294
        },
        {
          "name": "A#2",
          "midi": 46,
          "time": 72.69245550000008,
          "velocity": 0.5039370078740157,
          "duration": 0.16414868541666294
        },
        {
          "name": "A#1",
          "midi": 34,
          "time": 73.02212650000007,
          "velocity": 0.5039370078740157,
          "duration": 0.16414868541666294
        },
        {
          "name": "F2",
          "midi": 41,
          "time": 73.18696200000007,
          "velocity": 0.5039370078740157,
          "duration": 0.16414868541666294
        },
        {
          "name": "F2",
          "midi": 41,
          "time": 73.35179750000006,
          "velocity": 0.5039370078740157,
          "duration": 0.16414868541666294
        },
        {
          "name": "A#2",
          "midi": 46,
          "time": 73.51663300000006,
          "velocity": 0.5039370078740157,
          "duration": 0.16414868541666294
        },
        {
          "name": "A2",
          "midi": 45,
          "time": 73.84630400000005,
          "velocity": 0.5039370078740157,
          "duration": 0.16414868541666294
        },
        {
          "name": "A2",
          "midi": 45,
          "time": 74.34081050000005,
          "velocity": 0.5039370078740157,
          "duration": 0.3289841854166724
        },
        {
          "name": "A2",
          "midi": 45,
          "time": 74.83531700000005,
          "velocity": 0.5039370078740157,
          "duration": 0.16414868541666294
        },
        {
          "name": "G#2",
          "midi": 44,
          "time": 75.32982350000005,
          "velocity": 0.5039370078740157,
          "duration": 0.16414868541666294
        },
        {
          "name": "G#2",
          "midi": 44,
          "time": 75.65949450000004,
          "velocity": 0.5039370078740157,
          "duration": 0.16414868541666294
        },
        {
          "name": "D#2",
          "midi": 39,
          "time": 75.82433000000003,
          "velocity": 0.5039370078740157,
          "duration": 0.16414868541666294
        },
        {
          "name": "D#2",
          "midi": 39,
          "time": 75.98916550000003,
          "velocity": 0.5039370078740157,
          "duration": 0.16414868541666294
        },
        {
          "name": "G2",
          "midi": 43,
          "time": 76.15400100000002,
          "velocity": 0.5039370078740157,
          "duration": 0.16414868541666294
        },
        {
          "name": "G2",
          "midi": 43,
          "time": 76.31883650000002,
          "velocity": 0.5039370078740157,
          "duration": 0.16414868541666294
        },
        {
          "name": "F2",
          "midi": 41,
          "time": 76.48367200000001,
          "velocity": 0.5039370078740157,
          "duration": 0.16414868541666294
        },
        {
          "name": "F2",
          "midi": 41,
          "time": 76.97817850000001,
          "velocity": 0.5039370078740157,
          "duration": 0.49381968541666765
        },
        {
          "name": "C3",
          "midi": 48,
          "time": 77.47268500000001,
          "velocity": 0.5039370078740157,
          "duration": 0.16414868541666294
        },
        {
          "name": "G2",
          "midi": 43,
          "time": 77.96719150000001,
          "velocity": 0.5039370078740157,
          "duration": 0.16414868541666294
        },
        {
          "name": "G2",
          "midi": 43,
          "time": 78.2968625,
          "velocity": 0.5039370078740157,
          "duration": 0.16414868541666294
        },
        {
          "name": "B2",
          "midi": 47,
          "time": 78.461698,
          "velocity": 0.5039370078740157,
          "duration": 0.16414868541666294
        },
        {
          "name": "B2",
          "midi": 47,
          "time": 78.6265335,
          "velocity": 0.5039370078740157,
          "duration": 0.16414868541666294
        },
        {
          "name": "D2",
          "midi": 38,
          "time": 78.79136899999999,
          "velocity": 0.5039370078740157,
          "duration": 0.16414868541666294
        },
        {
          "name": "C2",
          "midi": 36,
          "time": 79.12103999999998,
          "velocity": 0.5039370078740157,
          "duration": 0.16414868541666294
        },
        {
          "name": "C2",
          "midi": 36,
          "time": 79.28587549999997,
          "velocity": 0.5039370078740157,
          "duration": 0.3289841854166724
        },
        {
          "name": "D2",
          "midi": 38,
          "time": 79.61554649999998,
          "velocity": 0.5039370078740157,
          "duration": 0.16414868541666294
        },
        {
          "name": "D#2",
          "midi": 39,
          "time": 79.78038199999997,
          "velocity": 0.5039370078740157,
          "duration": 0.3289841854166724
        },
        {
          "name": "E2",
          "midi": 40,
          "time": 80.11005299999998,
          "velocity": 0.5039370078740157,
          "duration": 0.49381968541666765
        },
        {
          "name": "C3",
          "midi": 48,
          "time": 80.60455949999998,
          "velocity": 0.5039370078740157,
          "duration": 0.16414868541666294
        },
        {
          "name": "C3",
          "midi": 48,
          "time": 80.93423049999997,
          "velocity": 0.5039370078740157,
          "duration": 0.16414868541666294
        },
        {
          "name": "G2",
          "midi": 43,
          "time": 81.09906599999997,
          "velocity": 0.5039370078740157,
          "duration": 0.16414868541666294
        },
        {
          "name": "G2",
          "midi": 43,
          "time": 81.26390149999996,
          "velocity": 0.5039370078740157,
          "duration": 0.16414868541666294
        },
        {
          "name": "C3",
          "midi": 48,
          "time": 81.42873699999996,
          "velocity": 0.5039370078740157,
          "duration": 0.16414868541666294
        },
        {
          "name": "F2",
          "midi": 41,
          "time": 81.75840799999995,
          "velocity": 0.5039370078740157,
          "duration": 0.16414868541666294
        },
        {
          "name": "F2",
          "midi": 41,
          "time": 82.25291449999995,
          "velocity": 0.5039370078740157,
          "duration": 0.49381968541666765
        },
        {
          "name": "F2",
          "midi": 41,
          "time": 82.74742099999995,
          "velocity": 0.5039370078740157,
          "duration": 0.16414868541666294
        },
        {
          "name": "A#1",
          "midi": 34,
          "time": 83.24192749999995,
          "velocity": 0.5039370078740157,
          "duration": 0.16414868541666294
        },
        {
          "name": "A#1",
          "midi": 34,
          "time": 83.57159849999994,
          "velocity": 0.5039370078740157,
          "duration": 0.16414868541666294
        },
        {
          "name": "F2",
          "midi": 41,
          "time": 83.73643399999993,
          "velocity": 0.5039370078740157,
          "duration": 0.16414868541666294
        },
        {
          "name": "F2",
          "midi": 41,
          "time": 83.90126949999993,
          "velocity": 0.5039370078740157,
          "duration": 0.16414868541666294
        },
        {
          "name": "A#2",
          "midi": 46,
          "time": 84.06610499999992,
          "velocity": 0.5039370078740157,
          "duration": 0.16414868541666294
        },
        {
          "name": "D#2",
          "midi": 39,
          "time": 84.39577599999991,
          "velocity": 0.5039370078740157,
          "duration": 0.16414868541666294
        },
        {
          "name": "D#2",
          "midi": 39,
          "time": 84.89028249999991,
          "velocity": 0.5039370078740157,
          "duration": 0.49381968541666765
        },
        {
          "name": "D2",
          "midi": 38,
          "time": 85.38478899999991,
          "velocity": 0.5039370078740157,
          "duration": 0.16414868541666294
        },
        {
          "name": "C2",
          "midi": 36,
          "time": 85.7144599999999,
          "velocity": 0.5039370078740157,
          "duration": 0.16414868541666294
        },
        {
          "name": "F2",
          "midi": 41,
          "time": 85.8792954999999,
          "velocity": 0.5039370078740157,
          "duration": 0.16414868541666294
        },
        {
          "name": "G2",
          "midi": 43,
          "time": 86.0441309999999,
          "velocity": 0.5039370078740157,
          "duration": 0.16414868541666294
        },
        {
          "name": "C3",
          "midi": 48,
          "time": 86.20896649999989,
          "velocity": 0.5039370078740157,
          "duration": 0.3289841854166724
        },
        {
          "name": "A#2",
          "midi": 46,
          "time": 86.5386374999999,
          "velocity": 0.5039370078740157,
          "duration": 0.16414868541666294
        },
        {
          "name": "G2",
          "midi": 43,
          "time": 86.70347299999989,
          "velocity": 0.5039370078740157,
          "duration": 0.16414868541666294
        },
        {
          "name": "E2",
          "midi": 40,
          "time": 86.86830849999988,
          "velocity": 0.5039370078740157,
          "duration": 0.16414868541666294
        },
        {
          "name": "F2",
          "midi": 41,
          "time": 87.03314399999988,
          "velocity": 0.5039370078740157,
          "duration": 0.16414868541666294
        },
        {
          "name": "F2",
          "midi": 41,
          "time": 87.52765049999988,
          "velocity": 0.5039370078740157,
          "duration": 0.49381968541666765
        },
        {
          "name": "C3",
          "midi": 48,
          "time": 88.02215699999988,
          "velocity": 0.5039370078740157,
          "duration": 0.16414868541666294
        },
        {
          "name": "A#1",
          "midi": 34,
          "time": 88.51666349999988,
          "velocity": 0.5039370078740157,
          "duration": 0.16414868541666294
        },
        {
          "name": "A#1",
          "midi": 34,
          "time": 88.84633449999987,
          "velocity": 0.5039370078740157,
          "duration": 0.16414868541666294
        },
        {
          "name": "F2",
          "midi": 41,
          "time": 89.01116999999986,
          "velocity": 0.5039370078740157,
          "duration": 0.16414868541666294
        },
        {
          "name": "F2",
          "midi": 41,
          "time": 89.17600549999986,
          "velocity": 0.5039370078740157,
          "duration": 0.16414868541666294
        },
        {
          "name": "A#2",
          "midi": 46,
          "time": 89.34084099999986,
          "velocity": 0.5039370078740157,
          "duration": 0.16414868541666294
        },
        {
          "name": "D#2",
          "midi": 39,
          "time": 89.67051199999985,
          "velocity": 0.7559055118110236,
          "duration": 0.16414868541666294
        },
        {
          "name": "D#2",
          "midi": 39,
          "time": 90.16501849999985,
          "velocity": 0.7559055118110236,
          "duration": 0.49381968541666765
        },
        {
          "name": "A#2",
          "midi": 46,
          "time": 90.65952499999985,
          "velocity": 0.7559055118110236,
          "duration": 0.16414868541666294
        },
        {
          "name": "G#2",
          "midi": 44,
          "time": 91.15403149999985,
          "velocity": 0.7559055118110236,
          "duration": 0.16414868541666294
        },
        {
          "name": "G#2",
          "midi": 44,
          "time": 91.48370249999984,
          "velocity": 0.7559055118110236,
          "duration": 0.16414868541666294
        },
        {
          "name": "C2",
          "midi": 36,
          "time": 91.64853799999983,
          "velocity": 0.7559055118110236,
          "duration": 0.16414868541666294
        },
        {
          "name": "C2",
          "midi": 36,
          "time": 91.81337349999983,
          "velocity": 0.7559055118110236,
          "duration": 0.16414868541666294
        },
        {
          "name": "G#2",
          "midi": 44,
          "time": 91.97820899999982,
          "velocity": 0.7559055118110236,
          "duration": 0.3289841854166724
        },
        {
          "name": "A#2",
          "midi": 46,
          "time": 92.30787999999983,
          "velocity": 0.7559055118110236,
          "duration": 0.16414868541666294
        },
        {
          "name": "G2",
          "midi": 43,
          "time": 92.80238649999983,
          "velocity": 0.7559055118110236,
          "duration": 0.3289841854166724
        },
        {
          "name": "G#2",
          "midi": 44,
          "time": 93.13205749999983,
          "velocity": 0.7559055118110236,
          "duration": 0.16414868541666294
        },
        {
          "name": "A2",
          "midi": 45,
          "time": 93.29689299999983,
          "velocity": 0.7559055118110236,
          "duration": 0.16414868541666294
        },
        {
          "name": "A#2",
          "midi": 46,
          "time": 93.46172849999982,
          "velocity": 0.7559055118110236,
          "duration": 0.16414868541666294
        },
        {
          "name": "D#2",
          "midi": 39,
          "time": 93.62656399999982,
          "velocity": 0.7559055118110236,
          "duration": 0.16414868541666294
        },
        {
          "name": "D#2",
          "midi": 39,
          "time": 94.94524799999981,
          "velocity": 0.6299212598425197,
          "duration": 0.16414868541666294
        },
        {
          "name": "D#2",
          "midi": 39,
          "time": 95.43975449999981,
          "velocity": 0.6299212598425197,
          "duration": 0.49381968541666765
        },
        {
          "name": "A#2",
          "midi": 46,
          "time": 95.93426099999981,
          "velocity": 0.6299212598425197,
          "duration": 0.16414868541666294
        },
        {
          "name": "G#2",
          "midi": 44,
          "time": 96.42876749999981,
          "velocity": 0.6299212598425197,
          "duration": 0.16414868541666294
        },
        {
          "name": "G#2",
          "midi": 44,
          "time": 96.7584384999998,
          "velocity": 0.6299212598425197,
          "duration": 0.16414868541666294
        },
        {
          "name": "C3",
          "midi": 48,
          "time": 96.9232739999998,
          "velocity": 0.6299212598425197,
          "duration": 0.16414868541666294
        },
        {
          "name": "C3",
          "midi": 48,
          "time": 97.08810949999979,
          "velocity": 0.6299212598425197,
          "duration": 0.16414868541666294
        },
        {
          "name": "G#2",
          "midi": 44,
          "time": 97.25294499999978,
          "velocity": 0.6299212598425197,
          "duration": 0.3289841854166724
        },
        {
          "name": "A#2",
          "midi": 46,
          "time": 97.58261599999979,
          "velocity": 0.6299212598425197,
          "duration": 0.16414868541666294
        },
        {
          "name": "A#2",
          "midi": 46,
          "time": 98.07712249999979,
          "velocity": 0.6299212598425197,
          "duration": 0.16414868541666294
        },
        {
          "name": "G#2",
          "midi": 44,
          "time": 98.24195799999978,
          "velocity": 0.6299212598425197,
          "duration": 0.21909385208333276
        },
        {
          "name": "G2",
          "midi": 43,
          "time": 98.46173866666645,
          "velocity": 0.6299212598425197,
          "duration": 0.21909385208333276
        },
        {
          "name": "F2",
          "midi": 41,
          "time": 98.68151933333311,
          "velocity": 0.6299212598425197,
          "duration": 0.21909385208333276
        },
        {
          "name": "D#2",
          "midi": 39,
          "time": 98.90129999999978,
          "velocity": 0.6299212598425197,
          "duration": 0.3289841854166724
        }
      ],
      "controlChanges": {
        "7": [
          {
            "number": 7,
            "time": 0,
            "value": 0.7874015748031497
          }
        ],
        "10": [
          {
            "number": 10,
            "time": 0,
            "value": 0.5039370078740157
          }
        ],
        "91": [
          {
            "number": 91,
            "time": 0,
            "value": 0
          }
        ],
        "93": [
          {
            "number": 93,
            "time": 0,
            "value": 0
          }
        ],
        "121": [
          {
            "number": 121,
            "time": 0,
            "value": 0
          }
        ]
      }
    },
    {
      "startTime": 1.9780260000000003,
      "duration": 99.23028418541647,
      "length": 640,
      "id": 10,
      "instrumentNumber": 0,
      "instrument": "standard kit",
      "instrumentFamily": "drums",
      "channelNumber": 9,
      "isPercussion": true,
      "notes": [
        {
          "name": "D2",
          "midi": 38,
          "time": 1.9780260000000003,
          "velocity": 0.6299212598425197,
          "duration": 0.1641486854166665
        },
        {
          "name": "F2",
          "midi": 41,
          "time": 2.1428615,
          "velocity": 0.6299212598425197,
          "duration": 0.1641486854166665
        },
        {
          "name": "D2",
          "midi": 38,
          "time": 2.1428615,
          "velocity": 0.6299212598425197,
          "duration": 0.1641486854166665
        },
        {
          "name": "F2",
          "midi": 41,
          "time": 2.3076969999999997,
          "velocity": 0.6299212598425197,
          "duration": 0.1641486854166665
        },
        {
          "name": "D2",
          "midi": 38,
          "time": 2.3076969999999997,
          "velocity": 0.6299212598425197,
          "duration": 0.1641486854166665
        },
        {
          "name": "D2",
          "midi": 38,
          "time": 2.4725324999999994,
          "velocity": 0.6299212598425197,
          "duration": 0.1641486854166665
        },
        {
          "name": "B1",
          "midi": 35,
          "time": 2.637367999999999,
          "velocity": 0.6299212598425197,
          "duration": 0.32898418541666663
        },
        {
          "name": "A#2",
          "midi": 46,
          "time": 2.967038999999999,
          "velocity": 0.6299212598425197,
          "duration": 0.32898418541666663
        },
        {
          "name": "F#2",
          "midi": 42,
          "time": 3.626380999999999,
          "velocity": 0.6299212598425197,
          "duration": 0.1641486854166665
        },
        {
          "name": "F#2",
          "midi": 42,
          "time": 3.7912164999999987,
          "velocity": 0.6299212598425197,
          "duration": 0.1641486854166665
        },
        {
          "name": "F2",
          "midi": 41,
          "time": 4.285722999999998,
          "velocity": 0.6299212598425197,
          "duration": 0.1641486854166665
        },
        {
          "name": "D2",
          "midi": 38,
          "time": 4.285722999999998,
          "velocity": 0.6299212598425197,
          "duration": 0.1641486854166665
        },
        {
          "name": "F2",
          "midi": 41,
          "time": 4.450558499999998,
          "velocity": 0.6299212598425197,
          "duration": 0.1641486854166665
        },
        {
          "name": "D2",
          "midi": 38,
          "time": 4.450558499999998,
          "velocity": 0.6299212598425197,
          "duration": 0.1641486854166665
        },
        {
          "name": "D2",
          "midi": 38,
          "time": 4.780229499999998,
          "velocity": 0.6299212598425197,
          "duration": 0.1641486854166665
        },
        {
          "name": "D3",
          "midi": 50,
          "time": 4.780229499999998,
          "velocity": 0.6299212598425197,
          "duration": 0.1641486854166665
        },
        {
          "name": "D2",
          "midi": 38,
          "time": 4.945064999999998,
          "velocity": 0.6299212598425197,
          "duration": 0.1641486854166665
        },
        {
          "name": "B2",
          "midi": 47,
          "time": 4.945064999999998,
          "velocity": 0.6299212598425197,
          "duration": 0.1641486854166665
        },
        {
          "name": "F2",
          "midi": 41,
          "time": 5.274735999999998,
          "velocity": 0.6299212598425197,
          "duration": 0.3289841854166671
        },
        {
          "name": "B1",
          "midi": 35,
          "time": 5.274735999999998,
          "velocity": 0.6299212598425197,
          "duration": 0.3289841854166671
        },
        {
          "name": "F2",
          "midi": 41,
          "time": 5.604406999999998,
          "velocity": 0.6299212598425197,
          "duration": 0.1641486854166665
        },
        {
          "name": "D2",
          "midi": 38,
          "time": 5.604406999999998,
          "velocity": 0.6299212598425197,
          "duration": 0.1641486854166665
        },
        {
          "name": "F2",
          "midi": 41,
          "time": 5.769242499999998,
          "velocity": 0.6299212598425197,
          "duration": 0.1641486854166665
        },
        {
          "name": "B1",
          "midi": 35,
          "time": 5.769242499999998,
          "velocity": 0.6299212598425197,
          "duration": 0.1641486854166665
        },
        {
          "name": "F2",
          "midi": 41,
          "time": 6.263748999999998,
          "velocity": 0.6299212598425197,
          "duration": 0.3289841854166671
        },
        {
          "name": "D2",
          "midi": 38,
          "time": 6.263748999999998,
          "velocity": 0.6299212598425197,
          "duration": 0.3289841854166671
        },
        {
          "name": "F2",
          "midi": 41,
          "time": 6.593419999999998,
          "velocity": 0.6299212598425197,
          "duration": 0.3289841854166671
        },
        {
          "name": "B1",
          "midi": 35,
          "time": 6.593419999999998,
          "velocity": 0.6299212598425197,
          "duration": 0.3289841854166671
        },
        {
          "name": "F2",
          "midi": 41,
          "time": 6.9230909999999986,
          "velocity": 0.6299212598425197,
          "duration": 0.1641486854166665
        },
        {
          "name": "D2",
          "midi": 38,
          "time": 6.9230909999999986,
          "velocity": 0.6299212598425197,
          "duration": 0.1641486854166665
        },
        {
          "name": "F2",
          "midi": 41,
          "time": 7.087926499999998,
          "velocity": 0.6299212598425197,
          "duration": 0.1641486854166665
        },
        {
          "name": "B1",
          "midi": 35,
          "time": 7.087926499999998,
          "velocity": 0.6299212598425197,
          "duration": 0.1641486854166665
        },
        {
          "name": "F2",
          "midi": 41,
          "time": 7.582432999999998,
          "velocity": 0.6299212598425197,
          "duration": 0.3289841854166671
        },
        {
          "name": "D2",
          "midi": 38,
          "time": 7.582432999999998,
          "velocity": 0.6299212598425197,
          "duration": 0.3289841854166671
        },
        {
          "name": "F2",
          "midi": 41,
          "time": 7.9121039999999985,
          "velocity": 0.6299212598425197,
          "duration": 0.3289841854166662
        },
        {
          "name": "D2",
          "midi": 38,
          "time": 7.9121039999999985,
          "velocity": 0.6299212598425197,
          "duration": 0.3289841854166662
        },
        {
          "name": "D2",
          "midi": 38,
          "time": 8.406610499999998,
          "velocity": 0.6299212598425197,
          "duration": 0.1641486854166665
        },
        {
          "name": "D3",
          "midi": 50,
          "time": 8.571445999999998,
          "velocity": 0.6299212598425197,
          "duration": 0.21909385208333276
        },
        {
          "name": "B2",
          "midi": 47,
          "time": 8.791226666666665,
          "velocity": 0.6299212598425197,
          "duration": 0.21909385208333276
        },
        {
          "name": "A2",
          "midi": 45,
          "time": 9.011007333333332,
          "velocity": 0.6299212598425197,
          "duration": 0.21909385208333276
        },
        {
          "name": "F2",
          "midi": 41,
          "time": 9.230787999999999,
          "velocity": 0.6299212598425197,
          "duration": 0.3289841854166671
        },
        {
          "name": "D2",
          "midi": 38,
          "time": 9.230787999999999,
          "velocity": 0.6299212598425197,
          "duration": 0.3289841854166671
        },
        {
          "name": "F2",
          "midi": 41,
          "time": 9.89013,
          "velocity": 0.6299212598425197,
          "duration": 0.1641486854166665
        },
        {
          "name": "B1",
          "midi": 35,
          "time": 9.89013,
          "velocity": 0.6299212598425197,
          "duration": 0.1641486854166665
        },
        {
          "name": "D2",
          "midi": 38,
          "time": 10.0549655,
          "velocity": 0.6299212598425197,
          "duration": 0.0817309354166671
        },
        {
          "name": "D2",
          "midi": 38,
          "time": 10.137383250000001,
          "velocity": 0.6299212598425197,
          "duration": 0.0817309354166671
        },
        {
          "name": "D2",
          "midi": 38,
          "time": 10.219801000000002,
          "velocity": 0.6299212598425197,
          "duration": 0.1641486854166665
        },
        {
          "name": "A2",
          "midi": 45,
          "time": 10.384636500000003,
          "velocity": 0.6299212598425197,
          "duration": 0.1641486854166665
        },
        {
          "name": "B1",
          "midi": 35,
          "time": 10.384636500000003,
          "velocity": 0.6299212598425197,
          "duration": 0.1641486854166665
        },
        {
          "name": "F2",
          "midi": 41,
          "time": 10.549472000000003,
          "velocity": 0.6299212598425197,
          "duration": 0.3289841854166671
        },
        {
          "name": "C#3",
          "midi": 49,
          "time": 10.549472000000003,
          "velocity": 0.6299212598425197,
          "duration": 0.3289841854166671
        },
        {
          "name": "B1",
          "midi": 35,
          "time": 10.549472000000003,
          "velocity": 0.6299212598425197,
          "duration": 0.3289841854166671
        },
        {
          "name": "F2",
          "midi": 41,
          "time": 10.879143000000004,
          "velocity": 0.6299212598425197,
          "duration": 0.1641486854166665
        },
        {
          "name": "D2",
          "midi": 38,
          "time": 10.879143000000004,
          "velocity": 0.6299212598425197,
          "duration": 0.1641486854166665
        },
        {
          "name": "F2",
          "midi": 41,
          "time": 11.043978500000005,
          "velocity": 0.6299212598425197,
          "duration": 0.1641486854166665
        },
        {
          "name": "B1",
          "midi": 35,
          "time": 11.043978500000005,
          "velocity": 0.6299212598425197,
          "duration": 0.1641486854166665
        },
        {
          "name": "F2",
          "midi": 41,
          "time": 11.538485000000005,
          "velocity": 0.6299212598425197,
          "duration": 0.3289841854166671
        },
        {
          "name": "D2",
          "midi": 38,
          "time": 11.538485000000005,
          "velocity": 0.6299212598425197,
          "duration": 0.3289841854166671
        },
        {
          "name": "F2",
          "midi": 41,
          "time": 11.868156000000006,
          "velocity": 0.6299212598425197,
          "duration": 0.3289841854166671
        },
        {
          "name": "B1",
          "midi": 35,
          "time": 11.868156000000006,
          "velocity": 0.6299212598425197,
          "duration": 0.3289841854166671
        },
        {
          "name": "F2",
          "midi": 41,
          "time": 12.197827000000007,
          "velocity": 0.6299212598425197,
          "duration": 0.1641486854166665
        },
        {
          "name": "D2",
          "midi": 38,
          "time": 12.197827000000007,
          "velocity": 0.6299212598425197,
          "duration": 0.1641486854166665
        },
        {
          "name": "F2",
          "midi": 41,
          "time": 12.362662500000008,
          "velocity": 0.6299212598425197,
          "duration": 0.1641486854166665
        },
        {
          "name": "B1",
          "midi": 35,
          "time": 12.362662500000008,
          "velocity": 0.6299212598425197,
          "duration": 0.1641486854166665
        },
        {
          "name": "F2",
          "midi": 41,
          "time": 12.857169000000008,
          "velocity": 0.6299212598425197,
          "duration": 0.3289841854166671
        },
        {
          "name": "D2",
          "midi": 38,
          "time": 12.857169000000008,
          "velocity": 0.6299212598425197,
          "duration": 0.3289841854166671
        },
        {
          "name": "F2",
          "midi": 41,
          "time": 13.186840000000009,
          "velocity": 0.6299212598425197,
          "duration": 0.3289841854166671
        },
        {
          "name": "B1",
          "midi": 35,
          "time": 13.186840000000009,
          "velocity": 0.6299212598425197,
          "duration": 0.3289841854166671
        },
        {
          "name": "F2",
          "midi": 41,
          "time": 13.51651100000001,
          "velocity": 0.6299212598425197,
          "duration": 0.1641486854166665
        },
        {
          "name": "D2",
          "midi": 38,
          "time": 13.51651100000001,
          "velocity": 0.6299212598425197,
          "duration": 0.1641486854166665
        },
        {
          "name": "F2",
          "midi": 41,
          "time": 13.68134650000001,
          "velocity": 0.6299212598425197,
          "duration": 0.1641486854166665
        },
        {
          "name": "B1",
          "midi": 35,
          "time": 13.68134650000001,
          "velocity": 0.6299212598425197,
          "duration": 0.1641486854166665
        },
        {
          "name": "F2",
          "midi": 41,
          "time": 14.17585300000001,
          "velocity": 0.6299212598425197,
          "duration": 0.3289841854166671
        },
        {
          "name": "D2",
          "midi": 38,
          "time": 14.17585300000001,
          "velocity": 0.6299212598425197,
          "duration": 0.3289841854166671
        },
        {
          "name": "F2",
          "midi": 41,
          "time": 14.505524000000012,
          "velocity": 0.6299212598425197,
          "duration": 0.3289841854166671
        },
        {
          "name": "B1",
          "midi": 35,
          "time": 14.505524000000012,
          "velocity": 0.6299212598425197,
          "duration": 0.3289841854166671
        },
        {
          "name": "F2",
          "midi": 41,
          "time": 14.835195000000013,
          "velocity": 0.6299212598425197,
          "duration": 0.1641486854166665
        },
        {
          "name": "D2",
          "midi": 38,
          "time": 14.835195000000013,
          "velocity": 0.6299212598425197,
          "duration": 0.1641486854166665
        },
        {
          "name": "F2",
          "midi": 41,
          "time": 15.000030500000014,
          "velocity": 0.6299212598425197,
          "duration": 0.1641486854166665
        },
        {
          "name": "B1",
          "midi": 35,
          "time": 15.000030500000014,
          "velocity": 0.6299212598425197,
          "duration": 0.1641486854166665
        },
        {
          "name": "B1",
          "midi": 35,
          "time": 15.329701500000013,
          "velocity": 0.6299212598425197,
          "duration": 0.1641486854166665
        },
        {
          "name": "F2",
          "midi": 41,
          "time": 15.494537000000014,
          "velocity": 0.6299212598425197,
          "duration": 0.3289841854166671
        },
        {
          "name": "D2",
          "midi": 38,
          "time": 15.494537000000014,
          "velocity": 0.6299212598425197,
          "duration": 0.3289841854166671
        },
        {
          "name": "F2",
          "midi": 41,
          "time": 15.824208000000015,
          "velocity": 0.6299212598425197,
          "duration": 0.3289841854166671
        },
        {
          "name": "B1",
          "midi": 35,
          "time": 15.824208000000015,
          "velocity": 0.6299212598425197,
          "duration": 0.3289841854166671
        },
        {
          "name": "F2",
          "midi": 41,
          "time": 16.153879000000014,
          "velocity": 0.6299212598425197,
          "duration": 0.1641486854166665
        },
        {
          "name": "D2",
          "midi": 38,
          "time": 16.153879000000014,
          "velocity": 0.6299212598425197,
          "duration": 0.1641486854166665
        },
        {
          "name": "F2",
          "midi": 41,
          "time": 16.318714500000013,
          "velocity": 0.6299212598425197,
          "duration": 0.1641486854166665
        },
        {
          "name": "B1",
          "midi": 35,
          "time": 16.318714500000013,
          "velocity": 0.6299212598425197,
          "duration": 0.1641486854166665
        },
        {
          "name": "F2",
          "midi": 41,
          "time": 16.813221000000013,
          "velocity": 0.6299212598425197,
          "duration": 0.3289841854166653
        },
        {
          "name": "D2",
          "midi": 38,
          "time": 16.813221000000013,
          "velocity": 0.6299212598425197,
          "duration": 0.3289841854166653
        },
        {
          "name": "F2",
          "midi": 41,
          "time": 17.14289200000001,
          "velocity": 0.6299212598425197,
          "duration": 0.3289841854166653
        },
        {
          "name": "B1",
          "midi": 35,
          "time": 17.14289200000001,
          "velocity": 0.6299212598425197,
          "duration": 0.3289841854166653
        },
        {
          "name": "F2",
          "midi": 41,
          "time": 17.472563000000008,
          "velocity": 0.6299212598425197,
          "duration": 0.1641486854166665
        },
        {
          "name": "D2",
          "midi": 38,
          "time": 17.472563000000008,
          "velocity": 0.6299212598425197,
          "duration": 0.1641486854166665
        },
        {
          "name": "F2",
          "midi": 41,
          "time": 17.637398500000007,
          "velocity": 0.6299212598425197,
          "duration": 0.1641486854166665
        },
        {
          "name": "B1",
          "midi": 35,
          "time": 17.637398500000007,
          "velocity": 0.6299212598425197,
          "duration": 0.1641486854166665
        },
        {
          "name": "F2",
          "midi": 41,
          "time": 18.131905000000007,
          "velocity": 0.6299212598425197,
          "duration": 0.3289841854166653
        },
        {
          "name": "D2",
          "midi": 38,
          "time": 18.131905000000007,
          "velocity": 0.6299212598425197,
          "duration": 0.3289841854166653
        },
        {
          "name": "F2",
          "midi": 41,
          "time": 18.461576000000004,
          "velocity": 0.6299212598425197,
          "duration": 0.3289841854166653
        },
        {
          "name": "B1",
          "midi": 35,
          "time": 18.461576000000004,
          "velocity": 0.6299212598425197,
          "duration": 0.3289841854166653
        },
        {
          "name": "F2",
          "midi": 41,
          "time": 18.791247000000002,
          "velocity": 0.6299212598425197,
          "duration": 0.1641486854166665
        },
        {
          "name": "D2",
          "midi": 38,
          "time": 18.791247000000002,
          "velocity": 0.6299212598425197,
          "duration": 0.1641486854166665
        },
        {
          "name": "F2",
          "midi": 41,
          "time": 18.9560825,
          "velocity": 0.6299212598425197,
          "duration": 0.1641486854166665
        },
        {
          "name": "B1",
          "midi": 35,
          "time": 18.9560825,
          "velocity": 0.6299212598425197,
          "duration": 0.1641486854166665
        },
        {
          "name": "F2",
          "midi": 41,
          "time": 19.450589,
          "velocity": 0.6299212598425197,
          "duration": 0.3289841854166653
        },
        {
          "name": "D2",
          "midi": 38,
          "time": 19.450589,
          "velocity": 0.6299212598425197,
          "duration": 0.3289841854166653
        },
        {
          "name": "F2",
          "midi": 41,
          "time": 19.78026,
          "velocity": 0.6299212598425197,
          "duration": 0.3289841854166653
        },
        {
          "name": "B1",
          "midi": 35,
          "time": 19.78026,
          "velocity": 0.6299212598425197,
          "duration": 0.3289841854166653
        },
        {
          "name": "F2",
          "midi": 41,
          "time": 20.109930999999996,
          "velocity": 0.6299212598425197,
          "duration": 0.1641486854166665
        },
        {
          "name": "D2",
          "midi": 38,
          "time": 20.109930999999996,
          "velocity": 0.6299212598425197,
          "duration": 0.1641486854166665
        },
        {
          "name": "F2",
          "midi": 41,
          "time": 20.274766499999995,
          "velocity": 0.6299212598425197,
          "duration": 0.1641486854166665
        },
        {
          "name": "B1",
          "midi": 35,
          "time": 20.274766499999995,
          "velocity": 0.6299212598425197,
          "duration": 0.1641486854166665
        },
        {
          "name": "B1",
          "midi": 35,
          "time": 20.604437499999996,
          "velocity": 0.6299212598425197,
          "duration": 0.1641486854166665
        },
        {
          "name": "F2",
          "midi": 41,
          "time": 20.769272999999995,
          "velocity": 0.6299212598425197,
          "duration": 0.1641486854166665
        },
        {
          "name": "D2",
          "midi": 38,
          "time": 20.769272999999995,
          "velocity": 0.6299212598425197,
          "duration": 0.1641486854166665
        },
        {
          "name": "F2",
          "midi": 41,
          "time": 20.934108499999994,
          "velocity": 0.6299212598425197,
          "duration": 0.1641486854166665
        },
        {
          "name": "E2",
          "midi": 40,
          "time": 20.934108499999994,
          "velocity": 0.6299212598425197,
          "duration": 0.1641486854166665
        },
        {
          "name": "F2",
          "midi": 41,
          "time": 21.098943999999992,
          "velocity": 0.6299212598425197,
          "duration": 0.3289841854166653
        },
        {
          "name": "C#3",
          "midi": 49,
          "time": 21.098943999999992,
          "velocity": 0.6299212598425197,
          "duration": 0.3289841854166653
        },
        {
          "name": "B1",
          "midi": 35,
          "time": 21.098943999999992,
          "velocity": 0.6299212598425197,
          "duration": 0.3289841854166653
        },
        {
          "name": "F2",
          "midi": 41,
          "time": 21.42861499999999,
          "velocity": 0.6299212598425197,
          "duration": 0.1641486854166665
        },
        {
          "name": "D2",
          "midi": 38,
          "time": 21.42861499999999,
          "velocity": 0.6299212598425197,
          "duration": 0.1641486854166665
        },
        {
          "name": "F2",
          "midi": 41,
          "time": 21.59345049999999,
          "velocity": 0.6299212598425197,
          "duration": 0.1641486854166665
        },
        {
          "name": "B1",
          "midi": 35,
          "time": 21.59345049999999,
          "velocity": 0.6299212598425197,
          "duration": 0.1641486854166665
        },
        {
          "name": "F2",
          "midi": 41,
          "time": 22.08795699999999,
          "velocity": 0.6299212598425197,
          "duration": 0.3289841854166653
        },
        {
          "name": "D2",
          "midi": 38,
          "time": 22.08795699999999,
          "velocity": 0.6299212598425197,
          "duration": 0.3289841854166653
        },
        {
          "name": "F2",
          "midi": 41,
          "time": 22.417627999999986,
          "velocity": 0.6299212598425197,
          "duration": 0.3289841854166653
        },
        {
          "name": "B1",
          "midi": 35,
          "time": 22.417627999999986,
          "velocity": 0.6299212598425197,
          "duration": 0.3289841854166653
        },
        {
          "name": "F2",
          "midi": 41,
          "time": 22.747298999999984,
          "velocity": 0.6299212598425197,
          "duration": 0.1641486854166665
        },
        {
          "name": "D2",
          "midi": 38,
          "time": 22.747298999999984,
          "velocity": 0.6299212598425197,
          "duration": 0.1641486854166665
        },
        {
          "name": "F2",
          "midi": 41,
          "time": 22.912134499999983,
          "velocity": 0.6299212598425197,
          "duration": 0.1641486854166665
        },
        {
          "name": "B1",
          "midi": 35,
          "time": 22.912134499999983,
          "velocity": 0.6299212598425197,
          "duration": 0.1641486854166665
        },
        {
          "name": "F2",
          "midi": 41,
          "time": 23.406640999999983,
          "velocity": 0.6299212598425197,
          "duration": 0.3289841854166653
        },
        {
          "name": "D2",
          "midi": 38,
          "time": 23.406640999999983,
          "velocity": 0.6299212598425197,
          "duration": 0.3289841854166653
        },
        {
          "name": "F2",
          "midi": 41,
          "time": 23.73631199999998,
          "velocity": 0.6299212598425197,
          "duration": 0.3289841854166653
        },
        {
          "name": "B1",
          "midi": 35,
          "time": 23.73631199999998,
          "velocity": 0.6299212598425197,
          "duration": 0.3289841854166653
        },
        {
          "name": "F2",
          "midi": 41,
          "time": 24.065982999999978,
          "velocity": 0.6299212598425197,
          "duration": 0.1641486854166665
        },
        {
          "name": "D2",
          "midi": 38,
          "time": 24.065982999999978,
          "velocity": 0.6299212598425197,
          "duration": 0.1641486854166665
        },
        {
          "name": "F2",
          "midi": 41,
          "time": 24.230818499999977,
          "velocity": 0.6299212598425197,
          "duration": 0.1641486854166665
        },
        {
          "name": "B1",
          "midi": 35,
          "time": 24.230818499999977,
          "velocity": 0.6299212598425197,
          "duration": 0.1641486854166665
        },
        {
          "name": "F2",
          "midi": 41,
          "time": 24.725324999999977,
          "velocity": 0.6299212598425197,
          "duration": 0.3289841854166653
        },
        {
          "name": "D2",
          "midi": 38,
          "time": 24.725324999999977,
          "velocity": 0.6299212598425197,
          "duration": 0.3289841854166653
        },
        {
          "name": "F2",
          "midi": 41,
          "time": 25.054995999999974,
          "velocity": 0.6299212598425197,
          "duration": 0.3289841854166653
        },
        {
          "name": "B1",
          "midi": 35,
          "time": 25.054995999999974,
          "velocity": 0.6299212598425197,
          "duration": 0.3289841854166653
        },
        {
          "name": "F2",
          "midi": 41,
          "time": 25.384666999999972,
          "velocity": 0.6299212598425197,
          "duration": 0.1641486854166665
        },
        {
          "name": "D2",
          "midi": 38,
          "time": 25.384666999999972,
          "velocity": 0.6299212598425197,
          "duration": 0.1641486854166665
        },
        {
          "name": "F2",
          "midi": 41,
          "time": 25.54950249999997,
          "velocity": 0.6299212598425197,
          "duration": 0.1641486854166665
        },
        {
          "name": "B1",
          "midi": 35,
          "time": 25.54950249999997,
          "velocity": 0.6299212598425197,
          "duration": 0.1641486854166665
        },
        {
          "name": "B1",
          "midi": 35,
          "time": 25.879173499999972,
          "velocity": 0.6299212598425197,
          "duration": 0.1641486854166665
        },
        {
          "name": "F2",
          "midi": 41,
          "time": 26.04400899999997,
          "velocity": 0.6299212598425197,
          "duration": 0.3289841854166653
        },
        {
          "name": "D2",
          "midi": 38,
          "time": 26.04400899999997,
          "velocity": 0.6299212598425197,
          "duration": 0.3289841854166653
        },
        {
          "name": "F2",
          "midi": 41,
          "time": 26.37367999999997,
          "velocity": 0.6299212598425197,
          "duration": 0.3289841854166653
        },
        {
          "name": "C#3",
          "midi": 49,
          "time": 26.37367999999997,
          "velocity": 0.6299212598425197,
          "duration": 0.3289841854166653
        },
        {
          "name": "B1",
          "midi": 35,
          "time": 26.37367999999997,
          "velocity": 0.6299212598425197,
          "duration": 0.3289841854166653
        },
        {
          "name": "F2",
          "midi": 41,
          "time": 26.703350999999966,
          "velocity": 0.6299212598425197,
          "duration": 0.1641486854166665
        },
        {
          "name": "D2",
          "midi": 38,
          "time": 26.703350999999966,
          "velocity": 0.6299212598425197,
          "duration": 0.1641486854166665
        },
        {
          "name": "F2",
          "midi": 41,
          "time": 26.868186499999965,
          "velocity": 0.6299212598425197,
          "duration": 0.1641486854166665
        },
        {
          "name": "B1",
          "midi": 35,
          "time": 26.868186499999965,
          "velocity": 0.6299212598425197,
          "duration": 0.1641486854166665
        },
        {
          "name": "F2",
          "midi": 41,
          "time": 27.362692999999965,
          "velocity": 0.6299212598425197,
          "duration": 0.3289841854166653
        },
        {
          "name": "D2",
          "midi": 38,
          "time": 27.362692999999965,
          "velocity": 0.6299212598425197,
          "duration": 0.3289841854166653
        },
        {
          "name": "F2",
          "midi": 41,
          "time": 27.692363999999962,
          "velocity": 0.6299212598425197,
          "duration": 0.3289841854166653
        },
        {
          "name": "B1",
          "midi": 35,
          "time": 27.692363999999962,
          "velocity": 0.6299212598425197,
          "duration": 0.3289841854166653
        },
        {
          "name": "F2",
          "midi": 41,
          "time": 28.02203499999996,
          "velocity": 0.6299212598425197,
          "duration": 0.1641486854166665
        },
        {
          "name": "D2",
          "midi": 38,
          "time": 28.02203499999996,
          "velocity": 0.6299212598425197,
          "duration": 0.1641486854166665
        },
        {
          "name": "F2",
          "midi": 41,
          "time": 28.18687049999996,
          "velocity": 0.6299212598425197,
          "duration": 0.1641486854166665
        },
        {
          "name": "B1",
          "midi": 35,
          "time": 28.18687049999996,
          "velocity": 0.6299212598425197,
          "duration": 0.1641486854166665
        },
        {
          "name": "F2",
          "midi": 41,
          "time": 28.68137699999996,
          "velocity": 0.6299212598425197,
          "duration": 0.3289841854166653
        },
        {
          "name": "D2",
          "midi": 38,
          "time": 28.68137699999996,
          "velocity": 0.6299212598425197,
          "duration": 0.3289841854166653
        },
        {
          "name": "F2",
          "midi": 41,
          "time": 29.011047999999956,
          "velocity": 0.6299212598425197,
          "duration": 0.3289841854166653
        },
        {
          "name": "C#3",
          "midi": 49,
          "time": 29.011047999999956,
          "velocity": 0.6299212598425197,
          "duration": 0.3289841854166653
        },
        {
          "name": "B1",
          "midi": 35,
          "time": 29.011047999999956,
          "velocity": 0.6299212598425197,
          "duration": 0.3289841854166653
        },
        {
          "name": "F2",
          "midi": 41,
          "time": 29.670389999999955,
          "velocity": 0.6299212598425197,
          "duration": 0.3289841854166653
        },
        {
          "name": "D2",
          "midi": 38,
          "time": 29.670389999999955,
          "velocity": 0.6299212598425197,
          "duration": 0.3289841854166653
        },
        {
          "name": "B1",
          "midi": 35,
          "time": 30.329731999999954,
          "velocity": 0.6299212598425197,
          "duration": 0.3289841854166653
        },
        {
          "name": "F2",
          "midi": 41,
          "time": 30.989073999999952,
          "velocity": 0.6299212598425197,
          "duration": 0.3289841854166653
        },
        {
          "name": "D2",
          "midi": 38,
          "time": 30.989073999999952,
          "velocity": 0.6299212598425197,
          "duration": 0.3289841854166653
        },
        {
          "name": "F2",
          "midi": 41,
          "time": 31.31874499999995,
          "velocity": 0.6299212598425197,
          "duration": 0.3289841854166653
        },
        {
          "name": "D2",
          "midi": 38,
          "time": 31.31874499999995,
          "velocity": 0.6299212598425197,
          "duration": 0.3289841854166653
        },
        {
          "name": "B1",
          "midi": 35,
          "time": 31.648415999999948,
          "velocity": 0.6299212598425197,
          "duration": 0.3289841854166653
        },
        {
          "name": "D2",
          "midi": 38,
          "time": 32.30775799999994,
          "velocity": 0.6299212598425197,
          "duration": 0.3289841854166653
        },
        {
          "name": "B1",
          "midi": 35,
          "time": 32.96709999999994,
          "velocity": 0.6299212598425197,
          "duration": 0.3289841854166653
        },
        {
          "name": "D2",
          "midi": 38,
          "time": 33.62644199999993,
          "velocity": 0.6299212598425197,
          "duration": 0.3289841854166653
        },
        {
          "name": "B1",
          "midi": 35,
          "time": 34.28578399999993,
          "velocity": 0.6299212598425197,
          "duration": 0.3289841854166653
        },
        {
          "name": "D2",
          "midi": 38,
          "time": 34.945125999999924,
          "velocity": 0.6299212598425197,
          "duration": 0.3289841854166653
        },
        {
          "name": "B1",
          "midi": 35,
          "time": 35.60446799999992,
          "velocity": 0.6299212598425197,
          "duration": 0.3289841854166653
        },
        {
          "name": "D2",
          "midi": 38,
          "time": 36.263809999999914,
          "velocity": 0.6299212598425197,
          "duration": 0.3289841854166653
        },
        {
          "name": "D2",
          "midi": 38,
          "time": 36.59348099999991,
          "velocity": 0.6299212598425197,
          "duration": 0.3289841854166653
        },
        {
          "name": "B1",
          "midi": 35,
          "time": 36.92315199999991,
          "velocity": 0.6299212598425197,
          "duration": 0.3289841854166653
        },
        {
          "name": "D2",
          "midi": 38,
          "time": 37.582493999999905,
          "velocity": 0.6299212598425197,
          "duration": 0.3289841854166653
        },
        {
          "name": "B1",
          "midi": 35,
          "time": 38.2418359999999,
          "velocity": 0.6299212598425197,
          "duration": 0.3289841854166653
        },
        {
          "name": "D2",
          "midi": 38,
          "time": 38.901177999999895,
          "velocity": 0.6299212598425197,
          "duration": 0.3289841854166724
        },
        {
          "name": "B1",
          "midi": 35,
          "time": 39.0660134999999,
          "velocity": 0.6299212598425197,
          "duration": 0.16414868541667005
        },
        {
          "name": "D2",
          "midi": 38,
          "time": 39.2308489999999,
          "velocity": 0.6299212598425197,
          "duration": 0.3289841854166653
        },
        {
          "name": "F2",
          "midi": 41,
          "time": 39.5605199999999,
          "velocity": 0.6299212598425197,
          "duration": 0.3289841854166653
        },
        {
          "name": "C#3",
          "midi": 49,
          "time": 39.5605199999999,
          "velocity": 0.6299212598425197,
          "duration": 0.3289841854166653
        },
        {
          "name": "B1",
          "midi": 35,
          "time": 39.5605199999999,
          "velocity": 0.6299212598425197,
          "duration": 0.3289841854166653
        },
        {
          "name": "F2",
          "midi": 41,
          "time": 39.890190999999895,
          "velocity": 0.6299212598425197,
          "duration": 0.16414868541667005
        },
        {
          "name": "D2",
          "midi": 38,
          "time": 39.890190999999895,
          "velocity": 0.6299212598425197,
          "duration": 0.16414868541667005
        },
        {
          "name": "F2",
          "midi": 41,
          "time": 40.0550264999999,
          "velocity": 0.6299212598425197,
          "duration": 0.16414868541667005
        },
        {
          "name": "B1",
          "midi": 35,
          "time": 40.0550264999999,
          "velocity": 0.6299212598425197,
          "duration": 0.16414868541667005
        },
        {
          "name": "F2",
          "midi": 41,
          "time": 40.5495329999999,
          "velocity": 0.6299212598425197,
          "duration": 0.3289841854166653
        },
        {
          "name": "D2",
          "midi": 38,
          "time": 40.5495329999999,
          "velocity": 0.6299212598425197,
          "duration": 0.3289841854166653
        },
        {
          "name": "F2",
          "midi": 41,
          "time": 40.879203999999895,
          "velocity": 0.6299212598425197,
          "duration": 0.3289841854166653
        },
        {
          "name": "B1",
          "midi": 35,
          "time": 40.879203999999895,
          "velocity": 0.6299212598425197,
          "duration": 0.3289841854166653
        },
        {
          "name": "F2",
          "midi": 41,
          "time": 41.20887499999989,
          "velocity": 0.6299212598425197,
          "duration": 0.16414868541667005
        },
        {
          "name": "D2",
          "midi": 38,
          "time": 41.20887499999989,
          "velocity": 0.6299212598425197,
          "duration": 0.16414868541667005
        },
        {
          "name": "F2",
          "midi": 41,
          "time": 41.373710499999895,
          "velocity": 0.6299212598425197,
          "duration": 0.16414868541667005
        },
        {
          "name": "B1",
          "midi": 35,
          "time": 41.373710499999895,
          "velocity": 0.6299212598425197,
          "duration": 0.16414868541667005
        },
        {
          "name": "B1",
          "midi": 35,
          "time": 41.7033814999999,
          "velocity": 0.6299212598425197,
          "duration": 0.16414868541667005
        },
        {
          "name": "F2",
          "midi": 41,
          "time": 41.8682169999999,
          "velocity": 0.6299212598425197,
          "duration": 0.16414868541667005
        },
        {
          "name": "D2",
          "midi": 38,
          "time": 41.8682169999999,
          "velocity": 0.6299212598425197,
          "duration": 0.16414868541667005
        },
        {
          "name": "F2",
          "midi": 41,
          "time": 42.033052499999904,
          "velocity": 0.6299212598425197,
          "duration": 0.16414868541667005
        },
        {
          "name": "E2",
          "midi": 40,
          "time": 42.033052499999904,
          "velocity": 0.6299212598425197,
          "duration": 0.16414868541667005
        },
        {
          "name": "D2",
          "midi": 38,
          "time": 42.85722999999991,
          "velocity": 0.6299212598425197,
          "duration": 0.3289841854166653
        },
        {
          "name": "D2",
          "midi": 38,
          "time": 44.01107849999991,
          "velocity": 0.6299212598425197,
          "duration": 0.16414868541667005
        },
        {
          "name": "D2",
          "midi": 38,
          "time": 44.17591399999991,
          "velocity": 0.6299212598425197,
          "duration": 0.16414868541667005
        },
        {
          "name": "F2",
          "midi": 41,
          "time": 44.340749499999916,
          "velocity": 0.6299212598425197,
          "duration": 0.16414868541667005
        },
        {
          "name": "F2",
          "midi": 41,
          "time": 44.50558499999992,
          "velocity": 0.6299212598425197,
          "duration": 0.16414868541667005
        },
        {
          "name": "B2",
          "midi": 47,
          "time": 44.50558499999992,
          "velocity": 0.6299212598425197,
          "duration": 0.16414868541667005
        },
        {
          "name": "F2",
          "midi": 41,
          "time": 44.67042049999992,
          "velocity": 0.6299212598425197,
          "duration": 0.16414868541667005
        },
        {
          "name": "A2",
          "midi": 45,
          "time": 44.67042049999992,
          "velocity": 0.6299212598425197,
          "duration": 0.16414868541667005
        },
        {
          "name": "F2",
          "midi": 41,
          "time": 44.83525599999992,
          "velocity": 0.6299212598425197,
          "duration": 0.3289841854166653
        },
        {
          "name": "C#3",
          "midi": 49,
          "time": 44.83525599999992,
          "velocity": 0.6299212598425197,
          "duration": 0.3289841854166653
        },
        {
          "name": "B1",
          "midi": 35,
          "time": 44.83525599999992,
          "velocity": 0.6299212598425197,
          "duration": 0.3289841854166653
        },
        {
          "name": "F2",
          "midi": 41,
          "time": 45.16492699999992,
          "velocity": 0.6299212598425197,
          "duration": 0.16414868541667005
        },
        {
          "name": "D2",
          "midi": 38,
          "time": 45.16492699999992,
          "velocity": 0.6299212598425197,
          "duration": 0.16414868541667005
        },
        {
          "name": "F#3",
          "midi": 54,
          "time": 45.16492699999992,
          "velocity": 0.6299212598425197,
          "duration": 0.16414868541667005
        },
        {
          "name": "F2",
          "midi": 41,
          "time": 45.32976249999992,
          "velocity": 0.6299212598425197,
          "duration": 0.16414868541667005
        },
        {
          "name": "B1",
          "midi": 35,
          "time": 45.32976249999992,
          "velocity": 0.6299212598425197,
          "duration": 0.16414868541667005
        },
        {
          "name": "F2",
          "midi": 41,
          "time": 45.82426899999992,
          "velocity": 0.6299212598425197,
          "duration": 0.3289841854166653
        },
        {
          "name": "D2",
          "midi": 38,
          "time": 45.82426899999992,
          "velocity": 0.6299212598425197,
          "duration": 0.3289841854166653
        },
        {
          "name": "F#3",
          "midi": 54,
          "time": 45.82426899999992,
          "velocity": 0.6299212598425197,
          "duration": 0.3289841854166653
        },
        {
          "name": "F2",
          "midi": 41,
          "time": 46.15393999999992,
          "velocity": 0.6299212598425197,
          "duration": 0.3289841854166653
        },
        {
          "name": "B1",
          "midi": 35,
          "time": 46.15393999999992,
          "velocity": 0.6299212598425197,
          "duration": 0.3289841854166653
        },
        {
          "name": "F2",
          "midi": 41,
          "time": 46.48361099999992,
          "velocity": 0.6299212598425197,
          "duration": 0.16414868541667005
        },
        {
          "name": "D2",
          "midi": 38,
          "time": 46.48361099999992,
          "velocity": 0.6299212598425197,
          "duration": 0.16414868541667005
        },
        {
          "name": "F#3",
          "midi": 54,
          "time": 46.48361099999992,
          "velocity": 0.6299212598425197,
          "duration": 0.16414868541667005
        },
        {
          "name": "F2",
          "midi": 41,
          "time": 46.64844649999992,
          "velocity": 0.6299212598425197,
          "duration": 0.16414868541667005
        },
        {
          "name": "B1",
          "midi": 35,
          "time": 46.64844649999992,
          "velocity": 0.6299212598425197,
          "duration": 0.16414868541667005
        },
        {
          "name": "F2",
          "midi": 41,
          "time": 47.14295299999992,
          "velocity": 0.6299212598425197,
          "duration": 0.3289841854166653
        },
        {
          "name": "D2",
          "midi": 38,
          "time": 47.14295299999992,
          "velocity": 0.6299212598425197,
          "duration": 0.3289841854166653
        },
        {
          "name": "F#3",
          "midi": 54,
          "time": 47.14295299999992,
          "velocity": 0.6299212598425197,
          "duration": 0.3289841854166653
        },
        {
          "name": "F2",
          "midi": 41,
          "time": 47.47262399999992,
          "velocity": 0.6299212598425197,
          "duration": 0.3289841854166653
        },
        {
          "name": "B1",
          "midi": 35,
          "time": 47.47262399999992,
          "velocity": 0.6299212598425197,
          "duration": 0.3289841854166653
        },
        {
          "name": "F2",
          "midi": 41,
          "time": 47.802294999999916,
          "velocity": 0.6299212598425197,
          "duration": 0.16414868541667005
        },
        {
          "name": "D2",
          "midi": 38,
          "time": 47.802294999999916,
          "velocity": 0.6299212598425197,
          "duration": 0.16414868541667005
        },
        {
          "name": "F#3",
          "midi": 54,
          "time": 47.802294999999916,
          "velocity": 0.6299212598425197,
          "duration": 0.16414868541667005
        },
        {
          "name": "F2",
          "midi": 41,
          "time": 47.96713049999992,
          "velocity": 0.6299212598425197,
          "duration": 0.16414868541667005
        },
        {
          "name": "B1",
          "midi": 35,
          "time": 47.96713049999992,
          "velocity": 0.6299212598425197,
          "duration": 0.16414868541667005
        },
        {
          "name": "F2",
          "midi": 41,
          "time": 48.46163699999992,
          "velocity": 0.6299212598425197,
          "duration": 0.3289841854166653
        },
        {
          "name": "D2",
          "midi": 38,
          "time": 48.46163699999992,
          "velocity": 0.6299212598425197,
          "duration": 0.3289841854166653
        },
        {
          "name": "F#3",
          "midi": 54,
          "time": 48.46163699999992,
          "velocity": 0.6299212598425197,
          "duration": 0.3289841854166653
        },
        {
          "name": "F2",
          "midi": 41,
          "time": 48.791307999999916,
          "velocity": 0.6299212598425197,
          "duration": 0.3289841854166653
        },
        {
          "name": "B1",
          "midi": 35,
          "time": 48.791307999999916,
          "velocity": 0.6299212598425197,
          "duration": 0.3289841854166653
        },
        {
          "name": "F2",
          "midi": 41,
          "time": 49.12097899999991,
          "velocity": 0.6299212598425197,
          "duration": 0.16414868541667005
        },
        {
          "name": "D2",
          "midi": 38,
          "time": 49.12097899999991,
          "velocity": 0.6299212598425197,
          "duration": 0.16414868541667005
        },
        {
          "name": "F#3",
          "midi": 54,
          "time": 49.12097899999991,
          "velocity": 0.6299212598425197,
          "duration": 0.16414868541667005
        },
        {
          "name": "F2",
          "midi": 41,
          "time": 49.285814499999915,
          "velocity": 0.6299212598425197,
          "duration": 0.16414868541667005
        },
        {
          "name": "B1",
          "midi": 35,
          "time": 49.285814499999915,
          "velocity": 0.6299212598425197,
          "duration": 0.16414868541667005
        },
        {
          "name": "B1",
          "midi": 35,
          "time": 49.61548549999992,
          "velocity": 0.6299212598425197,
          "duration": 0.16414868541667005
        },
        {
          "name": "F2",
          "midi": 41,
          "time": 49.78032099999992,
          "velocity": 0.6299212598425197,
          "duration": 0.16414868541667005
        },
        {
          "name": "D2",
          "midi": 38,
          "time": 49.78032099999992,
          "velocity": 0.6299212598425197,
          "duration": 0.16414868541667005
        },
        {
          "name": "F#3",
          "midi": 54,
          "time": 49.78032099999992,
          "velocity": 0.6299212598425197,
          "duration": 0.16414868541667005
        },
        {
          "name": "F2",
          "midi": 41,
          "time": 49.945156499999925,
          "velocity": 0.6299212598425197,
          "duration": 0.16414868541667005
        },
        {
          "name": "E2",
          "midi": 40,
          "time": 49.945156499999925,
          "velocity": 0.6299212598425197,
          "duration": 0.16414868541667005
        },
        {
          "name": "F2",
          "midi": 41,
          "time": 50.10999199999993,
          "velocity": 0.6299212598425197,
          "duration": 0.3289841854166653
        },
        {
          "name": "B1",
          "midi": 35,
          "time": 50.10999199999993,
          "velocity": 0.6299212598425197,
          "duration": 0.3289841854166653
        },
        {
          "name": "F2",
          "midi": 41,
          "time": 50.439662999999925,
          "velocity": 0.6299212598425197,
          "duration": 0.16414868541667005
        },
        {
          "name": "D2",
          "midi": 38,
          "time": 50.439662999999925,
          "velocity": 0.6299212598425197,
          "duration": 0.16414868541667005
        },
        {
          "name": "F#3",
          "midi": 54,
          "time": 50.439662999999925,
          "velocity": 0.6299212598425197,
          "duration": 0.16414868541667005
        },
        {
          "name": "F2",
          "midi": 41,
          "time": 50.60449849999993,
          "velocity": 0.6299212598425197,
          "duration": 0.16414868541667005
        },
        {
          "name": "B1",
          "midi": 35,
          "time": 50.60449849999993,
          "velocity": 0.6299212598425197,
          "duration": 0.16414868541667005
        },
        {
          "name": "F2",
          "midi": 41,
          "time": 51.09900499999993,
          "velocity": 0.6299212598425197,
          "duration": 0.3289841854166653
        },
        {
          "name": "D2",
          "midi": 38,
          "time": 51.09900499999993,
          "velocity": 0.6299212598425197,
          "duration": 0.3289841854166653
        },
        {
          "name": "F#3",
          "midi": 54,
          "time": 51.09900499999993,
          "velocity": 0.6299212598425197,
          "duration": 0.3289841854166653
        },
        {
          "name": "F2",
          "midi": 41,
          "time": 51.428675999999925,
          "velocity": 0.6299212598425197,
          "duration": 0.3289841854166653
        },
        {
          "name": "B1",
          "midi": 35,
          "time": 51.428675999999925,
          "velocity": 0.6299212598425197,
          "duration": 0.3289841854166653
        },
        {
          "name": "F2",
          "midi": 41,
          "time": 51.75834699999992,
          "velocity": 0.6299212598425197,
          "duration": 0.16414868541667005
        },
        {
          "name": "D2",
          "midi": 38,
          "time": 51.75834699999992,
          "velocity": 0.6299212598425197,
          "duration": 0.16414868541667005
        },
        {
          "name": "F#3",
          "midi": 54,
          "time": 51.75834699999992,
          "velocity": 0.6299212598425197,
          "duration": 0.16414868541667005
        },
        {
          "name": "F2",
          "midi": 41,
          "time": 51.923182499999925,
          "velocity": 0.6299212598425197,
          "duration": 0.16414868541667005
        },
        {
          "name": "B1",
          "midi": 35,
          "time": 51.923182499999925,
          "velocity": 0.6299212598425197,
          "duration": 0.16414868541667005
        },
        {
          "name": "F2",
          "midi": 41,
          "time": 52.417688999999925,
          "velocity": 0.6299212598425197,
          "duration": 0.3289841854166653
        },
        {
          "name": "D2",
          "midi": 38,
          "time": 52.417688999999925,
          "velocity": 0.6299212598425197,
          "duration": 0.3289841854166653
        },
        {
          "name": "F#3",
          "midi": 54,
          "time": 52.417688999999925,
          "velocity": 0.6299212598425197,
          "duration": 0.3289841854166653
        },
        {
          "name": "F2",
          "midi": 41,
          "time": 52.74735999999992,
          "velocity": 0.6299212598425197,
          "duration": 0.3289841854166653
        },
        {
          "name": "B1",
          "midi": 35,
          "time": 52.74735999999992,
          "velocity": 0.6299212598425197,
          "duration": 0.3289841854166653
        },
        {
          "name": "F2",
          "midi": 41,
          "time": 53.07703099999992,
          "velocity": 0.6299212598425197,
          "duration": 0.16414868541667005
        },
        {
          "name": "D2",
          "midi": 38,
          "time": 53.07703099999992,
          "velocity": 0.6299212598425197,
          "duration": 0.16414868541667005
        },
        {
          "name": "F#3",
          "midi": 54,
          "time": 53.07703099999992,
          "velocity": 0.6299212598425197,
          "duration": 0.16414868541667005
        },
        {
          "name": "F2",
          "midi": 41,
          "time": 53.24186649999992,
          "velocity": 0.6299212598425197,
          "duration": 0.16414868541667005
        },
        {
          "name": "B1",
          "midi": 35,
          "time": 53.24186649999992,
          "velocity": 0.6299212598425197,
          "duration": 0.16414868541667005
        },
        {
          "name": "F2",
          "midi": 41,
          "time": 53.73637299999992,
          "velocity": 0.6299212598425197,
          "duration": 0.3289841854166653
        },
        {
          "name": "D2",
          "midi": 38,
          "time": 53.73637299999992,
          "velocity": 0.6299212598425197,
          "duration": 0.3289841854166653
        },
        {
          "name": "F#3",
          "midi": 54,
          "time": 53.73637299999992,
          "velocity": 0.6299212598425197,
          "duration": 0.3289841854166653
        },
        {
          "name": "F2",
          "midi": 41,
          "time": 54.06604399999992,
          "velocity": 0.6299212598425197,
          "duration": 0.3289841854166653
        },
        {
          "name": "B1",
          "midi": 35,
          "time": 54.06604399999992,
          "velocity": 0.6299212598425197,
          "duration": 0.3289841854166653
        },
        {
          "name": "F2",
          "midi": 41,
          "time": 54.39571499999992,
          "velocity": 0.6299212598425197,
          "duration": 0.16414868541667005
        },
        {
          "name": "D2",
          "midi": 38,
          "time": 54.39571499999992,
          "velocity": 0.6299212598425197,
          "duration": 0.16414868541667005
        },
        {
          "name": "F#3",
          "midi": 54,
          "time": 54.39571499999992,
          "velocity": 0.6299212598425197,
          "duration": 0.16414868541667005
        },
        {
          "name": "F2",
          "midi": 41,
          "time": 54.56055049999992,
          "velocity": 0.6299212598425197,
          "duration": 0.16414868541667005
        },
        {
          "name": "B1",
          "midi": 35,
          "time": 54.56055049999992,
          "velocity": 0.6299212598425197,
          "duration": 0.16414868541667005
        },
        {
          "name": "B1",
          "midi": 35,
          "time": 54.72538599999992,
          "velocity": 0.6299212598425197,
          "duration": 0.16414868541667005
        },
        {
          "name": "F2",
          "midi": 41,
          "time": 54.890221499999925,
          "velocity": 0.6299212598425197,
          "duration": 0.16414868541667005
        },
        {
          "name": "D2",
          "midi": 38,
          "time": 54.890221499999925,
          "velocity": 0.6299212598425197,
          "duration": 0.16414868541667005
        },
        {
          "name": "F#3",
          "midi": 54,
          "time": 54.890221499999925,
          "velocity": 0.6299212598425197,
          "duration": 0.16414868541667005
        },
        {
          "name": "F2",
          "midi": 41,
          "time": 55.05505699999993,
          "velocity": 0.6299212598425197,
          "duration": 0.16414868541667005
        },
        {
          "name": "D2",
          "midi": 38,
          "time": 55.05505699999993,
          "velocity": 0.6299212598425197,
          "duration": 0.16414868541667005
        },
        {
          "name": "F#3",
          "midi": 54,
          "time": 55.05505699999993,
          "velocity": 0.6299212598425197,
          "duration": 0.16414868541667005
        },
        {
          "name": "F2",
          "midi": 41,
          "time": 55.21989249999993,
          "velocity": 0.6299212598425197,
          "duration": 0.16414868541667005
        },
        {
          "name": "D2",
          "midi": 38,
          "time": 55.21989249999993,
          "velocity": 0.6299212598425197,
          "duration": 0.16414868541667005
        },
        {
          "name": "F2",
          "midi": 41,
          "time": 55.38472799999993,
          "velocity": 0.6299212598425197,
          "duration": 0.3289841854166653
        },
        {
          "name": "C#3",
          "midi": 49,
          "time": 55.38472799999993,
          "velocity": 0.6299212598425197,
          "duration": 0.3289841854166653
        },
        {
          "name": "B1",
          "midi": 35,
          "time": 55.38472799999993,
          "velocity": 0.6299212598425197,
          "duration": 0.3289841854166653
        },
        {
          "name": "F2",
          "midi": 41,
          "time": 55.71439899999993,
          "velocity": 0.6299212598425197,
          "duration": 0.16414868541667005
        },
        {
          "name": "D2",
          "midi": 38,
          "time": 55.71439899999993,
          "velocity": 0.6299212598425197,
          "duration": 0.16414868541667005
        },
        {
          "name": "F#3",
          "midi": 54,
          "time": 55.71439899999993,
          "velocity": 0.6299212598425197,
          "duration": 0.16414868541667005
        },
        {
          "name": "F2",
          "midi": 41,
          "time": 55.87923449999993,
          "velocity": 0.6299212598425197,
          "duration": 0.16414868541667005
        },
        {
          "name": "B1",
          "midi": 35,
          "time": 55.87923449999993,
          "velocity": 0.6299212598425197,
          "duration": 0.16414868541667005
        },
        {
          "name": "F2",
          "midi": 41,
          "time": 56.37374099999993,
          "velocity": 0.6299212598425197,
          "duration": 0.3289841854166653
        },
        {
          "name": "D2",
          "midi": 38,
          "time": 56.37374099999993,
          "velocity": 0.6299212598425197,
          "duration": 0.3289841854166653
        },
        {
          "name": "F#3",
          "midi": 54,
          "time": 56.37374099999993,
          "velocity": 0.6299212598425197,
          "duration": 0.3289841854166653
        },
        {
          "name": "F2",
          "midi": 41,
          "time": 56.70341199999993,
          "velocity": 0.6299212598425197,
          "duration": 0.3289841854166653
        },
        {
          "name": "B1",
          "midi": 35,
          "time": 56.70341199999993,
          "velocity": 0.6299212598425197,
          "duration": 0.3289841854166653
        },
        {
          "name": "F2",
          "midi": 41,
          "time": 57.03308299999993,
          "velocity": 0.6299212598425197,
          "duration": 0.16414868541667005
        },
        {
          "name": "D2",
          "midi": 38,
          "time": 57.03308299999993,
          "velocity": 0.6299212598425197,
          "duration": 0.16414868541667005
        },
        {
          "name": "F#3",
          "midi": 54,
          "time": 57.03308299999993,
          "velocity": 0.6299212598425197,
          "duration": 0.16414868541667005
        },
        {
          "name": "F2",
          "midi": 41,
          "time": 57.19791849999993,
          "velocity": 0.6299212598425197,
          "duration": 0.16414868541667005
        },
        {
          "name": "B1",
          "midi": 35,
          "time": 57.19791849999993,
          "velocity": 0.6299212598425197,
          "duration": 0.16414868541667005
        },
        {
          "name": "F2",
          "midi": 41,
          "time": 57.69242499999993,
          "velocity": 0.6299212598425197,
          "duration": 0.3289841854166653
        },
        {
          "name": "D2",
          "midi": 38,
          "time": 57.69242499999993,
          "velocity": 0.6299212598425197,
          "duration": 0.3289841854166653
        },
        {
          "name": "F#3",
          "midi": 54,
          "time": 57.69242499999993,
          "velocity": 0.6299212598425197,
          "duration": 0.3289841854166653
        },
        {
          "name": "F2",
          "midi": 41,
          "time": 58.02209599999993,
          "velocity": 0.6299212598425197,
          "duration": 0.3289841854166653
        },
        {
          "name": "B1",
          "midi": 35,
          "time": 58.02209599999993,
          "velocity": 0.6299212598425197,
          "duration": 0.3289841854166653
        },
        {
          "name": "F2",
          "midi": 41,
          "time": 58.351766999999924,
          "velocity": 0.6299212598425197,
          "duration": 0.16414868541667005
        },
        {
          "name": "D2",
          "midi": 38,
          "time": 58.351766999999924,
          "velocity": 0.6299212598425197,
          "duration": 0.16414868541667005
        },
        {
          "name": "F#3",
          "midi": 54,
          "time": 58.351766999999924,
          "velocity": 0.6299212598425197,
          "duration": 0.16414868541667005
        },
        {
          "name": "F2",
          "midi": 41,
          "time": 58.51660249999993,
          "velocity": 0.6299212598425197,
          "duration": 0.16414868541667005
        },
        {
          "name": "B1",
          "midi": 35,
          "time": 58.51660249999993,
          "velocity": 0.6299212598425197,
          "duration": 0.16414868541667005
        },
        {
          "name": "F2",
          "midi": 41,
          "time": 59.01110899999993,
          "velocity": 0.6299212598425197,
          "duration": 0.3289841854166653
        },
        {
          "name": "D2",
          "midi": 38,
          "time": 59.01110899999993,
          "velocity": 0.6299212598425197,
          "duration": 0.3289841854166653
        },
        {
          "name": "F#3",
          "midi": 54,
          "time": 59.01110899999993,
          "velocity": 0.6299212598425197,
          "duration": 0.3289841854166653
        },
        {
          "name": "F2",
          "midi": 41,
          "time": 59.340779999999924,
          "velocity": 0.6299212598425197,
          "duration": 0.3289841854166653
        },
        {
          "name": "B1",
          "midi": 35,
          "time": 59.340779999999924,
          "velocity": 0.6299212598425197,
          "duration": 0.3289841854166653
        },
        {
          "name": "F2",
          "midi": 41,
          "time": 59.67045099999992,
          "velocity": 0.6299212598425197,
          "duration": 0.16414868541667005
        },
        {
          "name": "D2",
          "midi": 38,
          "time": 59.67045099999992,
          "velocity": 0.6299212598425197,
          "duration": 0.16414868541667005
        },
        {
          "name": "F#3",
          "midi": 54,
          "time": 59.67045099999992,
          "velocity": 0.6299212598425197,
          "duration": 0.16414868541667005
        },
        {
          "name": "F2",
          "midi": 41,
          "time": 59.835286499999924,
          "velocity": 0.6299212598425197,
          "duration": 0.16414868541667005
        },
        {
          "name": "B1",
          "midi": 35,
          "time": 59.835286499999924,
          "velocity": 0.6299212598425197,
          "duration": 0.16414868541667005
        },
        {
          "name": "F2",
          "midi": 41,
          "time": 60.329792999999924,
          "velocity": 0.6299212598425197,
          "duration": 0.3289841854166653
        },
        {
          "name": "D2",
          "midi": 38,
          "time": 60.329792999999924,
          "velocity": 0.6299212598425197,
          "duration": 0.3289841854166653
        },
        {
          "name": "F#3",
          "midi": 54,
          "time": 60.329792999999924,
          "velocity": 0.6299212598425197,
          "duration": 0.3289841854166653
        },
        {
          "name": "F2",
          "midi": 41,
          "time": 60.65946399999992,
          "velocity": 0.6299212598425197,
          "duration": 0.3289841854166653
        },
        {
          "name": "B1",
          "midi": 35,
          "time": 60.65946399999992,
          "velocity": 0.6299212598425197,
          "duration": 0.3289841854166653
        },
        {
          "name": "F2",
          "midi": 41,
          "time": 60.98913499999992,
          "velocity": 0.6299212598425197,
          "duration": 0.16414868541667005
        },
        {
          "name": "D2",
          "midi": 38,
          "time": 60.98913499999992,
          "velocity": 0.6299212598425197,
          "duration": 0.16414868541667005
        },
        {
          "name": "F#3",
          "midi": 54,
          "time": 60.98913499999992,
          "velocity": 0.6299212598425197,
          "duration": 0.16414868541667005
        },
        {
          "name": "F2",
          "midi": 41,
          "time": 61.15397049999992,
          "velocity": 0.6299212598425197,
          "duration": 0.16414868541667005
        },
        {
          "name": "B1",
          "midi": 35,
          "time": 61.15397049999992,
          "velocity": 0.6299212598425197,
          "duration": 0.16414868541667005
        },
        {
          "name": "F2",
          "midi": 41,
          "time": 61.64847699999992,
          "velocity": 0.6299212598425197,
          "duration": 0.3289841854166653
        },
        {
          "name": "D2",
          "midi": 38,
          "time": 61.64847699999992,
          "velocity": 0.6299212598425197,
          "duration": 0.3289841854166653
        },
        {
          "name": "F#3",
          "midi": 54,
          "time": 61.64847699999992,
          "velocity": 0.6299212598425197,
          "duration": 0.3289841854166653
        },
        {
          "name": "F2",
          "midi": 41,
          "time": 61.97814799999992,
          "velocity": 0.6299212598425197,
          "duration": 0.3289841854166653
        },
        {
          "name": "B1",
          "midi": 35,
          "time": 61.97814799999992,
          "velocity": 0.6299212598425197,
          "duration": 0.3289841854166653
        },
        {
          "name": "F2",
          "midi": 41,
          "time": 62.30781899999992,
          "velocity": 0.6299212598425197,
          "duration": 0.16414868541667005
        },
        {
          "name": "D2",
          "midi": 38,
          "time": 62.30781899999992,
          "velocity": 0.6299212598425197,
          "duration": 0.16414868541667005
        },
        {
          "name": "F#3",
          "midi": 54,
          "time": 62.30781899999992,
          "velocity": 0.6299212598425197,
          "duration": 0.16414868541667005
        },
        {
          "name": "F2",
          "midi": 41,
          "time": 62.47265449999992,
          "velocity": 0.6299212598425197,
          "duration": 0.16414868541667005
        },
        {
          "name": "B1",
          "midi": 35,
          "time": 62.47265449999992,
          "velocity": 0.6299212598425197,
          "duration": 0.16414868541667005
        },
        {
          "name": "F2",
          "midi": 41,
          "time": 62.96716099999992,
          "velocity": 0.6299212598425197,
          "duration": 0.3289841854166653
        },
        {
          "name": "D2",
          "midi": 38,
          "time": 62.96716099999992,
          "velocity": 0.6299212598425197,
          "duration": 0.3289841854166653
        },
        {
          "name": "F#3",
          "midi": 54,
          "time": 62.96716099999992,
          "velocity": 0.6299212598425197,
          "duration": 0.3289841854166653
        },
        {
          "name": "F2",
          "midi": 41,
          "time": 63.29683199999992,
          "velocity": 0.6299212598425197,
          "duration": 0.3289841854166653
        },
        {
          "name": "C#3",
          "midi": 49,
          "time": 63.29683199999992,
          "velocity": 0.6299212598425197,
          "duration": 0.3289841854166653
        },
        {
          "name": "B1",
          "midi": 35,
          "time": 63.29683199999992,
          "velocity": 0.6299212598425197,
          "duration": 0.3289841854166653
        },
        {
          "name": "D2",
          "midi": 38,
          "time": 63.626502999999914,
          "velocity": 0.6299212598425197,
          "duration": 0.3289841854166653
        },
        {
          "name": "F#3",
          "midi": 54,
          "time": 63.626502999999914,
          "velocity": 0.6299212598425197,
          "duration": 0.3289841854166653
        },
        {
          "name": "F2",
          "midi": 41,
          "time": 63.95617399999991,
          "velocity": 0.6299212598425197,
          "duration": 0.3289841854166653
        },
        {
          "name": "B1",
          "midi": 35,
          "time": 63.95617399999991,
          "velocity": 0.6299212598425197,
          "duration": 0.3289841854166653
        },
        {
          "name": "D2",
          "midi": 38,
          "time": 64.28584499999991,
          "velocity": 0.6299212598425197,
          "duration": 0.3289841854166724
        },
        {
          "name": "F#3",
          "midi": 54,
          "time": 64.28584499999991,
          "velocity": 0.6299212598425197,
          "duration": 0.3289841854166724
        },
        {
          "name": "F2",
          "midi": 41,
          "time": 64.61551599999991,
          "velocity": 0.6299212598425197,
          "duration": 0.3289841854166724
        },
        {
          "name": "B1",
          "midi": 35,
          "time": 64.61551599999991,
          "velocity": 0.6299212598425197,
          "duration": 0.3289841854166724
        },
        {
          "name": "D2",
          "midi": 38,
          "time": 64.94518699999992,
          "velocity": 0.6299212598425197,
          "duration": 0.3289841854166724
        },
        {
          "name": "F#3",
          "midi": 54,
          "time": 64.94518699999992,
          "velocity": 0.6299212598425197,
          "duration": 0.3289841854166724
        },
        {
          "name": "F2",
          "midi": 41,
          "time": 65.27485799999992,
          "velocity": 0.6299212598425197,
          "duration": 0.16414868541666294
        },
        {
          "name": "B1",
          "midi": 35,
          "time": 65.27485799999992,
          "velocity": 0.6299212598425197,
          "duration": 0.3289841854166582
        },
        {
          "name": "D2",
          "midi": 38,
          "time": 65.43969349999992,
          "velocity": 0.6299212598425197,
          "duration": 0.16414868541666294
        },
        {
          "name": "F#3",
          "midi": 54,
          "time": 65.43969349999992,
          "velocity": 0.6299212598425197,
          "duration": 0.16414868541666294
        },
        {
          "name": "D2",
          "midi": 38,
          "time": 65.60452899999991,
          "velocity": 0.6299212598425197,
          "duration": 0.3289841854166724
        },
        {
          "name": "F#3",
          "midi": 54,
          "time": 65.60452899999991,
          "velocity": 0.6299212598425197,
          "duration": 0.3289841854166724
        },
        {
          "name": "F2",
          "midi": 41,
          "time": 65.93419999999992,
          "velocity": 0.6299212598425197,
          "duration": 0.3289841854166724
        },
        {
          "name": "C#3",
          "midi": 49,
          "time": 65.93419999999992,
          "velocity": 0.6299212598425197,
          "duration": 0.3289841854166724
        },
        {
          "name": "B1",
          "midi": 35,
          "time": 65.93419999999992,
          "velocity": 0.6299212598425197,
          "duration": 0.3289841854166724
        },
        {
          "name": "F2",
          "midi": 41,
          "time": 66.26387099999992,
          "velocity": 0.6299212598425197,
          "duration": 0.16414868541666294
        },
        {
          "name": "D2",
          "midi": 38,
          "time": 66.26387099999992,
          "velocity": 0.6299212598425197,
          "duration": 0.16414868541666294
        },
        {
          "name": "F#3",
          "midi": 54,
          "time": 66.26387099999992,
          "velocity": 0.6299212598425197,
          "duration": 0.16414868541666294
        },
        {
          "name": "F2",
          "midi": 41,
          "time": 66.42870649999992,
          "velocity": 0.6299212598425197,
          "duration": 0.16414868541666294
        },
        {
          "name": "B1",
          "midi": 35,
          "time": 66.42870649999992,
          "velocity": 0.6299212598425197,
          "duration": 0.16414868541666294
        },
        {
          "name": "F2",
          "midi": 41,
          "time": 66.92321299999992,
          "velocity": 0.6299212598425197,
          "duration": 0.3289841854166724
        },
        {
          "name": "D2",
          "midi": 38,
          "time": 66.92321299999992,
          "velocity": 0.6299212598425197,
          "duration": 0.3289841854166724
        },
        {
          "name": "F#3",
          "midi": 54,
          "time": 66.92321299999992,
          "velocity": 0.6299212598425197,
          "duration": 0.3289841854166724
        },
        {
          "name": "F2",
          "midi": 41,
          "time": 67.25288399999992,
          "velocity": 0.6299212598425197,
          "duration": 0.3289841854166724
        },
        {
          "name": "B1",
          "midi": 35,
          "time": 67.25288399999992,
          "velocity": 0.6299212598425197,
          "duration": 0.3289841854166724
        },
        {
          "name": "F2",
          "midi": 41,
          "time": 67.58255499999993,
          "velocity": 0.6299212598425197,
          "duration": 0.16414868541666294
        },
        {
          "name": "D2",
          "midi": 38,
          "time": 67.58255499999993,
          "velocity": 0.6299212598425197,
          "duration": 0.16414868541666294
        },
        {
          "name": "F#3",
          "midi": 54,
          "time": 67.58255499999993,
          "velocity": 0.6299212598425197,
          "duration": 0.16414868541666294
        },
        {
          "name": "F2",
          "midi": 41,
          "time": 67.74739049999992,
          "velocity": 0.6299212598425197,
          "duration": 0.16414868541666294
        },
        {
          "name": "B1",
          "midi": 35,
          "time": 67.74739049999992,
          "velocity": 0.6299212598425197,
          "duration": 0.16414868541666294
        },
        {
          "name": "F2",
          "midi": 41,
          "time": 68.24189699999992,
          "velocity": 0.6299212598425197,
          "duration": 0.3289841854166724
        },
        {
          "name": "D2",
          "midi": 38,
          "time": 68.24189699999992,
          "velocity": 0.6299212598425197,
          "duration": 0.3289841854166724
        },
        {
          "name": "F#3",
          "midi": 54,
          "time": 68.24189699999992,
          "velocity": 0.6299212598425197,
          "duration": 0.3289841854166724
        },
        {
          "name": "F2",
          "midi": 41,
          "time": 68.57156799999993,
          "velocity": 0.6299212598425197,
          "duration": 0.3289841854166724
        },
        {
          "name": "B1",
          "midi": 35,
          "time": 68.57156799999993,
          "velocity": 0.6299212598425197,
          "duration": 0.3289841854166724
        },
        {
          "name": "F2",
          "midi": 41,
          "time": 68.90123899999993,
          "velocity": 0.6299212598425197,
          "duration": 0.16414868541666294
        },
        {
          "name": "D2",
          "midi": 38,
          "time": 68.90123899999993,
          "velocity": 0.6299212598425197,
          "duration": 0.16414868541666294
        },
        {
          "name": "F#3",
          "midi": 54,
          "time": 68.90123899999993,
          "velocity": 0.6299212598425197,
          "duration": 0.16414868541666294
        },
        {
          "name": "F2",
          "midi": 41,
          "time": 69.06607449999993,
          "velocity": 0.6299212598425197,
          "duration": 0.16414868541666294
        },
        {
          "name": "B1",
          "midi": 35,
          "time": 69.06607449999993,
          "velocity": 0.6299212598425197,
          "duration": 0.16414868541666294
        },
        {
          "name": "F2",
          "midi": 41,
          "time": 69.56058099999993,
          "velocity": 0.6299212598425197,
          "duration": 0.3289841854166724
        },
        {
          "name": "D2",
          "midi": 38,
          "time": 69.56058099999993,
          "velocity": 0.6299212598425197,
          "duration": 0.3289841854166724
        },
        {
          "name": "F#3",
          "midi": 54,
          "time": 69.56058099999993,
          "velocity": 0.6299212598425197,
          "duration": 0.3289841854166724
        },
        {
          "name": "F2",
          "midi": 41,
          "time": 69.89025199999993,
          "velocity": 0.6299212598425197,
          "duration": 0.3289841854166724
        },
        {
          "name": "B1",
          "midi": 35,
          "time": 69.89025199999993,
          "velocity": 0.6299212598425197,
          "duration": 0.3289841854166724
        },
        {
          "name": "F2",
          "midi": 41,
          "time": 70.21992299999994,
          "velocity": 0.6299212598425197,
          "duration": 0.16414868541666294
        },
        {
          "name": "D2",
          "midi": 38,
          "time": 70.21992299999994,
          "velocity": 0.6299212598425197,
          "duration": 0.16414868541666294
        },
        {
          "name": "F#3",
          "midi": 54,
          "time": 70.21992299999994,
          "velocity": 0.6299212598425197,
          "duration": 0.16414868541666294
        },
        {
          "name": "F2",
          "midi": 41,
          "time": 70.38475849999993,
          "velocity": 0.6299212598425197,
          "duration": 0.16414868541666294
        },
        {
          "name": "B1",
          "midi": 35,
          "time": 70.38475849999993,
          "velocity": 0.6299212598425197,
          "duration": 0.16414868541666294
        },
        {
          "name": "B1",
          "midi": 35,
          "time": 70.71442949999992,
          "velocity": 0.6299212598425197,
          "duration": 0.16414868541666294
        },
        {
          "name": "F2",
          "midi": 41,
          "time": 70.87926499999992,
          "velocity": 0.6299212598425197,
          "duration": 0.16414868541666294
        },
        {
          "name": "D2",
          "midi": 38,
          "time": 70.87926499999992,
          "velocity": 0.6299212598425197,
          "duration": 0.16414868541666294
        },
        {
          "name": "F#3",
          "midi": 54,
          "time": 70.87926499999992,
          "velocity": 0.6299212598425197,
          "duration": 0.16414868541666294
        },
        {
          "name": "F2",
          "midi": 41,
          "time": 71.04410049999991,
          "velocity": 0.6299212598425197,
          "duration": 0.16414868541666294
        },
        {
          "name": "E2",
          "midi": 40,
          "time": 71.04410049999991,
          "velocity": 0.6299212598425197,
          "duration": 0.16414868541666294
        },
        {
          "name": "F2",
          "midi": 41,
          "time": 71.20893599999991,
          "velocity": 0.6299212598425197,
          "duration": 0.3289841854166724
        },
        {
          "name": "B1",
          "midi": 35,
          "time": 71.20893599999991,
          "velocity": 0.6299212598425197,
          "duration": 0.3289841854166724
        },
        {
          "name": "F2",
          "midi": 41,
          "time": 71.53860699999991,
          "velocity": 0.6299212598425197,
          "duration": 0.16414868541666294
        },
        {
          "name": "D2",
          "midi": 38,
          "time": 71.53860699999991,
          "velocity": 0.6299212598425197,
          "duration": 0.16414868541666294
        },
        {
          "name": "F#3",
          "midi": 54,
          "time": 71.53860699999991,
          "velocity": 0.6299212598425197,
          "duration": 0.16414868541666294
        },
        {
          "name": "F2",
          "midi": 41,
          "time": 71.70344249999991,
          "velocity": 0.6299212598425197,
          "duration": 0.16414868541666294
        },
        {
          "name": "B1",
          "midi": 35,
          "time": 71.70344249999991,
          "velocity": 0.6299212598425197,
          "duration": 0.16414868541666294
        },
        {
          "name": "F2",
          "midi": 41,
          "time": 72.19794899999991,
          "velocity": 0.6299212598425197,
          "duration": 0.3289841854166724
        },
        {
          "name": "D2",
          "midi": 38,
          "time": 72.19794899999991,
          "velocity": 0.6299212598425197,
          "duration": 0.3289841854166724
        },
        {
          "name": "F#3",
          "midi": 54,
          "time": 72.19794899999991,
          "velocity": 0.6299212598425197,
          "duration": 0.3289841854166724
        },
        {
          "name": "F2",
          "midi": 41,
          "time": 72.52761999999991,
          "velocity": 0.6299212598425197,
          "duration": 0.3289841854166724
        },
        {
          "name": "B1",
          "midi": 35,
          "time": 72.52761999999991,
          "velocity": 0.6299212598425197,
          "duration": 0.3289841854166724
        },
        {
          "name": "F2",
          "midi": 41,
          "time": 72.85729099999992,
          "velocity": 0.6299212598425197,
          "duration": 0.16414868541666294
        },
        {
          "name": "D2",
          "midi": 38,
          "time": 72.85729099999992,
          "velocity": 0.6299212598425197,
          "duration": 0.16414868541666294
        },
        {
          "name": "F#3",
          "midi": 54,
          "time": 72.85729099999992,
          "velocity": 0.6299212598425197,
          "duration": 0.16414868541666294
        },
        {
          "name": "F2",
          "midi": 41,
          "time": 73.02212649999991,
          "velocity": 0.6299212598425197,
          "duration": 0.16414868541666294
        },
        {
          "name": "B1",
          "midi": 35,
          "time": 73.02212649999991,
          "velocity": 0.6299212598425197,
          "duration": 0.16414868541666294
        },
        {
          "name": "F2",
          "midi": 41,
          "time": 73.51663299999991,
          "velocity": 0.6299212598425197,
          "duration": 0.3289841854166724
        },
        {
          "name": "D2",
          "midi": 38,
          "time": 73.51663299999991,
          "velocity": 0.6299212598425197,
          "duration": 0.3289841854166724
        },
        {
          "name": "F#3",
          "midi": 54,
          "time": 73.51663299999991,
          "velocity": 0.6299212598425197,
          "duration": 0.3289841854166724
        },
        {
          "name": "F2",
          "midi": 41,
          "time": 73.84630399999992,
          "velocity": 0.6299212598425197,
          "duration": 0.3289841854166724
        },
        {
          "name": "B1",
          "midi": 35,
          "time": 73.84630399999992,
          "velocity": 0.6299212598425197,
          "duration": 0.3289841854166724
        },
        {
          "name": "F2",
          "midi": 41,
          "time": 74.17597499999992,
          "velocity": 0.6299212598425197,
          "duration": 0.16414868541666294
        },
        {
          "name": "D2",
          "midi": 38,
          "time": 74.17597499999992,
          "velocity": 0.6299212598425197,
          "duration": 0.16414868541666294
        },
        {
          "name": "F#3",
          "midi": 54,
          "time": 74.17597499999992,
          "velocity": 0.6299212598425197,
          "duration": 0.16414868541666294
        },
        {
          "name": "F2",
          "midi": 41,
          "time": 74.34081049999992,
          "velocity": 0.6299212598425197,
          "duration": 0.16414868541666294
        },
        {
          "name": "B1",
          "midi": 35,
          "time": 74.34081049999992,
          "velocity": 0.6299212598425197,
          "duration": 0.16414868541666294
        },
        {
          "name": "F2",
          "midi": 41,
          "time": 74.83531699999992,
          "velocity": 0.6299212598425197,
          "duration": 0.3289841854166724
        },
        {
          "name": "D2",
          "midi": 38,
          "time": 74.83531699999992,
          "velocity": 0.6299212598425197,
          "duration": 0.3289841854166724
        },
        {
          "name": "F#3",
          "midi": 54,
          "time": 74.83531699999992,
          "velocity": 0.6299212598425197,
          "duration": 0.3289841854166724
        },
        {
          "name": "F2",
          "midi": 41,
          "time": 75.16498799999992,
          "velocity": 0.6299212598425197,
          "duration": 0.3289841854166724
        },
        {
          "name": "B1",
          "midi": 35,
          "time": 75.16498799999992,
          "velocity": 0.6299212598425197,
          "duration": 0.3289841854166724
        },
        {
          "name": "F2",
          "midi": 41,
          "time": 75.49465899999993,
          "velocity": 0.6299212598425197,
          "duration": 0.16414868541666294
        },
        {
          "name": "D2",
          "midi": 38,
          "time": 75.49465899999993,
          "velocity": 0.6299212598425197,
          "duration": 0.16414868541666294
        },
        {
          "name": "F#3",
          "midi": 54,
          "time": 75.49465899999993,
          "velocity": 0.6299212598425197,
          "duration": 0.16414868541666294
        },
        {
          "name": "F2",
          "midi": 41,
          "time": 75.65949449999992,
          "velocity": 0.6299212598425197,
          "duration": 0.16414868541666294
        },
        {
          "name": "B1",
          "midi": 35,
          "time": 75.65949449999992,
          "velocity": 0.6299212598425197,
          "duration": 0.16414868541666294
        },
        {
          "name": "B1",
          "midi": 35,
          "time": 75.82432999999992,
          "velocity": 0.6299212598425197,
          "duration": 0.16414868541666294
        },
        {
          "name": "F2",
          "midi": 41,
          "time": 75.98916549999991,
          "velocity": 0.6299212598425197,
          "duration": 0.16414868541666294
        },
        {
          "name": "D2",
          "midi": 38,
          "time": 75.98916549999991,
          "velocity": 0.6299212598425197,
          "duration": 0.16414868541666294
        },
        {
          "name": "F#3",
          "midi": 54,
          "time": 75.98916549999991,
          "velocity": 0.6299212598425197,
          "duration": 0.16414868541666294
        },
        {
          "name": "F2",
          "midi": 41,
          "time": 76.15400099999991,
          "velocity": 0.6299212598425197,
          "duration": 0.16414868541666294
        },
        {
          "name": "D2",
          "midi": 38,
          "time": 76.15400099999991,
          "velocity": 0.6299212598425197,
          "duration": 0.16414868541666294
        },
        {
          "name": "F#3",
          "midi": 54,
          "time": 76.15400099999991,
          "velocity": 0.6299212598425197,
          "duration": 0.16414868541666294
        },
        {
          "name": "F2",
          "midi": 41,
          "time": 76.3188364999999,
          "velocity": 0.6299212598425197,
          "duration": 0.16414868541666294
        },
        {
          "name": "D2",
          "midi": 38,
          "time": 76.3188364999999,
          "velocity": 0.6299212598425197,
          "duration": 0.16414868541666294
        },
        {
          "name": "F2",
          "midi": 41,
          "time": 76.4836719999999,
          "velocity": 0.6299212598425197,
          "duration": 0.3289841854166724
        },
        {
          "name": "C#3",
          "midi": 49,
          "time": 76.4836719999999,
          "velocity": 0.6299212598425197,
          "duration": 0.3289841854166724
        },
        {
          "name": "B1",
          "midi": 35,
          "time": 76.4836719999999,
          "velocity": 0.6299212598425197,
          "duration": 0.3289841854166724
        },
        {
          "name": "F2",
          "midi": 41,
          "time": 76.8133429999999,
          "velocity": 0.6299212598425197,
          "duration": 0.16414868541666294
        },
        {
          "name": "D2",
          "midi": 38,
          "time": 76.8133429999999,
          "velocity": 0.6299212598425197,
          "duration": 0.16414868541666294
        },
        {
          "name": "F#3",
          "midi": 54,
          "time": 76.8133429999999,
          "velocity": 0.6299212598425197,
          "duration": 0.16414868541666294
        },
        {
          "name": "F2",
          "midi": 41,
          "time": 76.9781784999999,
          "velocity": 0.6299212598425197,
          "duration": 0.16414868541666294
        },
        {
          "name": "B1",
          "midi": 35,
          "time": 76.9781784999999,
          "velocity": 0.6299212598425197,
          "duration": 0.16414868541666294
        },
        {
          "name": "F2",
          "midi": 41,
          "time": 77.4726849999999,
          "velocity": 0.6299212598425197,
          "duration": 0.3289841854166724
        },
        {
          "name": "D2",
          "midi": 38,
          "time": 77.4726849999999,
          "velocity": 0.6299212598425197,
          "duration": 0.3289841854166724
        },
        {
          "name": "F#3",
          "midi": 54,
          "time": 77.4726849999999,
          "velocity": 0.6299212598425197,
          "duration": 0.3289841854166724
        },
        {
          "name": "F2",
          "midi": 41,
          "time": 77.8023559999999,
          "velocity": 0.6299212598425197,
          "duration": 0.3289841854166724
        },
        {
          "name": "B1",
          "midi": 35,
          "time": 77.8023559999999,
          "velocity": 0.6299212598425197,
          "duration": 0.3289841854166724
        },
        {
          "name": "F2",
          "midi": 41,
          "time": 78.13202699999991,
          "velocity": 0.6299212598425197,
          "duration": 0.16414868541666294
        },
        {
          "name": "D2",
          "midi": 38,
          "time": 78.13202699999991,
          "velocity": 0.6299212598425197,
          "duration": 0.16414868541666294
        },
        {
          "name": "F#3",
          "midi": 54,
          "time": 78.13202699999991,
          "velocity": 0.6299212598425197,
          "duration": 0.16414868541666294
        },
        {
          "name": "F2",
          "midi": 41,
          "time": 78.2968624999999,
          "velocity": 0.6299212598425197,
          "duration": 0.16414868541666294
        },
        {
          "name": "B1",
          "midi": 35,
          "time": 78.2968624999999,
          "velocity": 0.6299212598425197,
          "duration": 0.16414868541666294
        },
        {
          "name": "F2",
          "midi": 41,
          "time": 78.7913689999999,
          "velocity": 0.6299212598425197,
          "duration": 0.3289841854166724
        },
        {
          "name": "D2",
          "midi": 38,
          "time": 78.7913689999999,
          "velocity": 0.6299212598425197,
          "duration": 0.3289841854166724
        },
        {
          "name": "F#3",
          "midi": 54,
          "time": 78.7913689999999,
          "velocity": 0.6299212598425197,
          "duration": 0.3289841854166724
        },
        {
          "name": "F2",
          "midi": 41,
          "time": 79.12103999999991,
          "velocity": 0.6299212598425197,
          "duration": 0.16414868541666294
        },
        {
          "name": "B1",
          "midi": 35,
          "time": 79.12103999999991,
          "velocity": 0.6299212598425197,
          "duration": 0.16414868541666294
        },
        {
          "name": "F2",
          "midi": 41,
          "time": 79.2858754999999,
          "velocity": 0.6299212598425197,
          "duration": 0.16414868541666294
        },
        {
          "name": "B1",
          "midi": 35,
          "time": 79.2858754999999,
          "velocity": 0.6299212598425197,
          "duration": 0.16414868541666294
        },
        {
          "name": "D2",
          "midi": 38,
          "time": 79.4507109999999,
          "velocity": 0.6299212598425197,
          "duration": 0.16414868541666294
        },
        {
          "name": "F#3",
          "midi": 54,
          "time": 79.4507109999999,
          "velocity": 0.6299212598425197,
          "duration": 0.16414868541666294
        },
        {
          "name": "F2",
          "midi": 41,
          "time": 79.6155464999999,
          "velocity": 0.6299212598425197,
          "duration": 0.16414868541666294
        },
        {
          "name": "B1",
          "midi": 35,
          "time": 79.6155464999999,
          "velocity": 0.6299212598425197,
          "duration": 0.16414868541666294
        },
        {
          "name": "D2",
          "midi": 38,
          "time": 79.78038199999989,
          "velocity": 0.6299212598425197,
          "duration": 0.16414868541666294
        },
        {
          "name": "F2",
          "midi": 41,
          "time": 79.94521749999988,
          "velocity": 0.6299212598425197,
          "duration": 0.16414868541666294
        },
        {
          "name": "B1",
          "midi": 35,
          "time": 79.94521749999988,
          "velocity": 0.6299212598425197,
          "duration": 0.16414868541666294
        },
        {
          "name": "D2",
          "midi": 38,
          "time": 80.11005299999988,
          "velocity": 0.6299212598425197,
          "duration": 0.3289841854166724
        },
        {
          "name": "F#3",
          "midi": 54,
          "time": 80.11005299999988,
          "velocity": 0.6299212598425197,
          "duration": 0.3289841854166724
        },
        {
          "name": "F#3",
          "midi": 54,
          "time": 80.76939499999989,
          "velocity": 0.6299212598425197,
          "duration": 0.16414868541666294
        },
        {
          "name": "F2",
          "midi": 41,
          "time": 80.93423049999988,
          "velocity": 0.6299212598425197,
          "duration": 0.16414868541666294
        },
        {
          "name": "B1",
          "midi": 35,
          "time": 80.93423049999988,
          "velocity": 0.6299212598425197,
          "duration": 0.16414868541666294
        },
        {
          "name": "F2",
          "midi": 41,
          "time": 81.09906599999988,
          "velocity": 0.6299212598425197,
          "duration": 0.16414868541666294
        },
        {
          "name": "D2",
          "midi": 38,
          "time": 81.09906599999988,
          "velocity": 0.6299212598425197,
          "duration": 0.16414868541666294
        },
        {
          "name": "D2",
          "midi": 38,
          "time": 81.26390149999987,
          "velocity": 0.6299212598425197,
          "duration": 0.16414868541666294
        },
        {
          "name": "D3",
          "midi": 50,
          "time": 81.26390149999987,
          "velocity": 0.6299212598425197,
          "duration": 0.16414868541666294
        },
        {
          "name": "F2",
          "midi": 41,
          "time": 81.42873699999987,
          "velocity": 0.6299212598425197,
          "duration": 0.16414868541666294
        },
        {
          "name": "D2",
          "midi": 38,
          "time": 81.42873699999987,
          "velocity": 0.6299212598425197,
          "duration": 0.16414868541666294
        },
        {
          "name": "F#3",
          "midi": 54,
          "time": 81.42873699999987,
          "velocity": 0.6299212598425197,
          "duration": 0.16414868541666294
        },
        {
          "name": "F2",
          "midi": 41,
          "time": 81.59357249999987,
          "velocity": 0.6299212598425197,
          "duration": 0.16414868541666294
        },
        {
          "name": "D2",
          "midi": 38,
          "time": 81.59357249999987,
          "velocity": 0.6299212598425197,
          "duration": 0.16414868541666294
        },
        {
          "name": "F2",
          "midi": 41,
          "time": 81.75840799999986,
          "velocity": 0.6299212598425197,
          "duration": 0.3289841854166724
        },
        {
          "name": "B1",
          "midi": 35,
          "time": 81.75840799999986,
          "velocity": 0.6299212598425197,
          "duration": 0.3289841854166724
        },
        {
          "name": "F2",
          "midi": 41,
          "time": 82.08807899999987,
          "velocity": 0.6299212598425197,
          "duration": 0.16414868541666294
        },
        {
          "name": "D2",
          "midi": 38,
          "time": 82.08807899999987,
          "velocity": 0.6299212598425197,
          "duration": 0.16414868541666294
        },
        {
          "name": "F#3",
          "midi": 54,
          "time": 82.08807899999987,
          "velocity": 0.6299212598425197,
          "duration": 0.16414868541666294
        },
        {
          "name": "F2",
          "midi": 41,
          "time": 82.25291449999986,
          "velocity": 0.6299212598425197,
          "duration": 0.16414868541666294
        },
        {
          "name": "B1",
          "midi": 35,
          "time": 82.25291449999986,
          "velocity": 0.6299212598425197,
          "duration": 0.16414868541666294
        },
        {
          "name": "F2",
          "midi": 41,
          "time": 82.74742099999986,
          "velocity": 0.6299212598425197,
          "duration": 0.3289841854166724
        },
        {
          "name": "D2",
          "midi": 38,
          "time": 82.74742099999986,
          "velocity": 0.6299212598425197,
          "duration": 0.3289841854166724
        },
        {
          "name": "F#3",
          "midi": 54,
          "time": 82.74742099999986,
          "velocity": 0.6299212598425197,
          "duration": 0.3289841854166724
        },
        {
          "name": "F2",
          "midi": 41,
          "time": 83.07709199999987,
          "velocity": 0.6299212598425197,
          "duration": 0.3289841854166724
        },
        {
          "name": "B1",
          "midi": 35,
          "time": 83.07709199999987,
          "velocity": 0.6299212598425197,
          "duration": 0.3289841854166724
        },
        {
          "name": "F2",
          "midi": 41,
          "time": 83.40676299999987,
          "velocity": 0.6299212598425197,
          "duration": 0.16414868541666294
        },
        {
          "name": "D2",
          "midi": 38,
          "time": 83.40676299999987,
          "velocity": 0.6299212598425197,
          "duration": 0.16414868541666294
        },
        {
          "name": "F#3",
          "midi": 54,
          "time": 83.40676299999987,
          "velocity": 0.6299212598425197,
          "duration": 0.16414868541666294
        },
        {
          "name": "F2",
          "midi": 41,
          "time": 83.57159849999987,
          "velocity": 0.6299212598425197,
          "duration": 0.16414868541666294
        },
        {
          "name": "B1",
          "midi": 35,
          "time": 83.57159849999987,
          "velocity": 0.6299212598425197,
          "duration": 0.16414868541666294
        },
        {
          "name": "F2",
          "midi": 41,
          "time": 84.06610499999987,
          "velocity": 0.6299212598425197,
          "duration": 0.3289841854166724
        },
        {
          "name": "D2",
          "midi": 38,
          "time": 84.06610499999987,
          "velocity": 0.6299212598425197,
          "duration": 0.3289841854166724
        },
        {
          "name": "F#3",
          "midi": 54,
          "time": 84.06610499999987,
          "velocity": 0.6299212598425197,
          "duration": 0.3289841854166724
        },
        {
          "name": "F2",
          "midi": 41,
          "time": 84.39577599999987,
          "velocity": 0.6299212598425197,
          "duration": 0.3289841854166724
        },
        {
          "name": "B1",
          "midi": 35,
          "time": 84.39577599999987,
          "velocity": 0.6299212598425197,
          "duration": 0.3289841854166724
        },
        {
          "name": "F2",
          "midi": 41,
          "time": 84.72544699999987,
          "velocity": 0.6299212598425197,
          "duration": 0.16414868541666294
        },
        {
          "name": "D2",
          "midi": 38,
          "time": 84.72544699999987,
          "velocity": 0.6299212598425197,
          "duration": 0.16414868541666294
        },
        {
          "name": "F#3",
          "midi": 54,
          "time": 84.72544699999987,
          "velocity": 0.6299212598425197,
          "duration": 0.16414868541666294
        },
        {
          "name": "F2",
          "midi": 41,
          "time": 84.89028249999987,
          "velocity": 0.6299212598425197,
          "duration": 0.16414868541666294
        },
        {
          "name": "B1",
          "midi": 35,
          "time": 84.89028249999987,
          "velocity": 0.6299212598425197,
          "duration": 0.16414868541666294
        },
        {
          "name": "F2",
          "midi": 41,
          "time": 85.38478899999987,
          "velocity": 0.6299212598425197,
          "duration": 0.3289841854166724
        },
        {
          "name": "D2",
          "midi": 38,
          "time": 85.38478899999987,
          "velocity": 0.6299212598425197,
          "duration": 0.3289841854166724
        },
        {
          "name": "F#3",
          "midi": 54,
          "time": 85.38478899999987,
          "velocity": 0.6299212598425197,
          "duration": 0.3289841854166724
        },
        {
          "name": "F2",
          "midi": 41,
          "time": 85.71445999999987,
          "velocity": 0.6299212598425197,
          "duration": 0.3289841854166724
        },
        {
          "name": "B1",
          "midi": 35,
          "time": 85.71445999999987,
          "velocity": 0.6299212598425197,
          "duration": 0.3289841854166724
        },
        {
          "name": "F2",
          "midi": 41,
          "time": 86.04413099999988,
          "velocity": 0.6299212598425197,
          "duration": 0.16414868541666294
        },
        {
          "name": "D2",
          "midi": 38,
          "time": 86.04413099999988,
          "velocity": 0.6299212598425197,
          "duration": 0.16414868541666294
        },
        {
          "name": "F#3",
          "midi": 54,
          "time": 86.04413099999988,
          "velocity": 0.6299212598425197,
          "duration": 0.16414868541666294
        },
        {
          "name": "F2",
          "midi": 41,
          "time": 86.20896649999987,
          "velocity": 0.6299212598425197,
          "duration": 0.16414868541666294
        },
        {
          "name": "B1",
          "midi": 35,
          "time": 86.20896649999987,
          "velocity": 0.6299212598425197,
          "duration": 0.16414868541666294
        },
        {
          "name": "B1",
          "midi": 35,
          "time": 86.37380199999987,
          "velocity": 0.6299212598425197,
          "duration": 0.16414868541666294
        },
        {
          "name": "F2",
          "midi": 41,
          "time": 86.53863749999987,
          "velocity": 0.6299212598425197,
          "duration": 0.16414868541666294
        },
        {
          "name": "D2",
          "midi": 38,
          "time": 86.53863749999987,
          "velocity": 0.6299212598425197,
          "duration": 0.16414868541666294
        },
        {
          "name": "F#3",
          "midi": 54,
          "time": 86.53863749999987,
          "velocity": 0.6299212598425197,
          "duration": 0.16414868541666294
        },
        {
          "name": "F2",
          "midi": 41,
          "time": 86.70347299999986,
          "velocity": 0.6299212598425197,
          "duration": 0.16414868541666294
        },
        {
          "name": "D2",
          "midi": 38,
          "time": 86.70347299999986,
          "velocity": 0.6299212598425197,
          "duration": 0.16414868541666294
        },
        {
          "name": "F#3",
          "midi": 54,
          "time": 86.70347299999986,
          "velocity": 0.6299212598425197,
          "duration": 0.16414868541666294
        },
        {
          "name": "F2",
          "midi": 41,
          "time": 86.86830849999986,
          "velocity": 0.6299212598425197,
          "duration": 0.16414868541666294
        },
        {
          "name": "D2",
          "midi": 38,
          "time": 86.86830849999986,
          "velocity": 0.6299212598425197,
          "duration": 0.16414868541666294
        },
        {
          "name": "F2",
          "midi": 41,
          "time": 87.03314399999985,
          "velocity": 0.6299212598425197,
          "duration": 0.3289841854166724
        },
        {
          "name": "C#3",
          "midi": 49,
          "time": 87.03314399999985,
          "velocity": 0.6299212598425197,
          "duration": 0.3289841854166724
        },
        {
          "name": "B1",
          "midi": 35,
          "time": 87.03314399999985,
          "velocity": 0.6299212598425197,
          "duration": 0.3289841854166724
        },
        {
          "name": "F2",
          "midi": 41,
          "time": 87.36281499999986,
          "velocity": 0.6299212598425197,
          "duration": 0.16414868541666294
        },
        {
          "name": "D2",
          "midi": 38,
          "time": 87.36281499999986,
          "velocity": 0.6299212598425197,
          "duration": 0.16414868541666294
        },
        {
          "name": "F#3",
          "midi": 54,
          "time": 87.36281499999986,
          "velocity": 0.6299212598425197,
          "duration": 0.16414868541666294
        },
        {
          "name": "F2",
          "midi": 41,
          "time": 87.52765049999985,
          "velocity": 0.6299212598425197,
          "duration": 0.16414868541666294
        },
        {
          "name": "B1",
          "midi": 35,
          "time": 87.52765049999985,
          "velocity": 0.6299212598425197,
          "duration": 0.16414868541666294
        },
        {
          "name": "F2",
          "midi": 41,
          "time": 88.02215699999985,
          "velocity": 0.6299212598425197,
          "duration": 0.3289841854166724
        },
        {
          "name": "D2",
          "midi": 38,
          "time": 88.02215699999985,
          "velocity": 0.6299212598425197,
          "duration": 0.3289841854166724
        },
        {
          "name": "F#3",
          "midi": 54,
          "time": 88.02215699999985,
          "velocity": 0.6299212598425197,
          "duration": 0.3289841854166724
        },
        {
          "name": "F2",
          "midi": 41,
          "time": 88.35182799999986,
          "velocity": 0.6299212598425197,
          "duration": 0.3289841854166724
        },
        {
          "name": "B1",
          "midi": 35,
          "time": 88.35182799999986,
          "velocity": 0.6299212598425197,
          "duration": 0.3289841854166724
        },
        {
          "name": "F2",
          "midi": 41,
          "time": 88.68149899999986,
          "velocity": 0.6299212598425197,
          "duration": 0.16414868541666294
        },
        {
          "name": "D2",
          "midi": 38,
          "time": 88.68149899999986,
          "velocity": 0.6299212598425197,
          "duration": 0.16414868541666294
        },
        {
          "name": "F#3",
          "midi": 54,
          "time": 88.68149899999986,
          "velocity": 0.6299212598425197,
          "duration": 0.16414868541666294
        },
        {
          "name": "F2",
          "midi": 41,
          "time": 88.84633449999986,
          "velocity": 0.6299212598425197,
          "duration": 0.16414868541666294
        },
        {
          "name": "B1",
          "midi": 35,
          "time": 88.84633449999986,
          "velocity": 0.6299212598425197,
          "duration": 0.16414868541666294
        },
        {
          "name": "B1",
          "midi": 35,
          "time": 89.17600549999985,
          "velocity": 0.6299212598425197,
          "duration": 0.16414868541666294
        },
        {
          "name": "F2",
          "midi": 41,
          "time": 89.34084099999984,
          "velocity": 0.6299212598425197,
          "duration": 0.16414868541666294
        },
        {
          "name": "D2",
          "midi": 38,
          "time": 89.34084099999984,
          "velocity": 0.6299212598425197,
          "duration": 0.16414868541666294
        },
        {
          "name": "F#3",
          "midi": 54,
          "time": 89.34084099999984,
          "velocity": 0.6299212598425197,
          "duration": 0.16414868541666294
        },
        {
          "name": "F2",
          "midi": 41,
          "time": 89.50567649999984,
          "velocity": 0.6299212598425197,
          "duration": 0.16414868541666294
        },
        {
          "name": "E2",
          "midi": 40,
          "time": 89.50567649999984,
          "velocity": 0.6299212598425197,
          "duration": 0.16414868541666294
        },
        {
          "name": "D2",
          "midi": 38,
          "time": 91.64853799999983,
          "velocity": 0.6299212598425197,
          "duration": 0.16414868541666294
        },
        {
          "name": "F2",
          "midi": 41,
          "time": 91.81337349999983,
          "velocity": 0.6299212598425197,
          "duration": 0.16414868541666294
        },
        {
          "name": "D2",
          "midi": 38,
          "time": 91.81337349999983,
          "velocity": 0.6299212598425197,
          "duration": 0.16414868541666294
        },
        {
          "name": "F2",
          "midi": 41,
          "time": 91.97820899999982,
          "velocity": 0.6299212598425197,
          "duration": 0.16414868541666294
        },
        {
          "name": "D2",
          "midi": 38,
          "time": 91.97820899999982,
          "velocity": 0.6299212598425197,
          "duration": 0.16414868541666294
        },
        {
          "name": "D2",
          "midi": 38,
          "time": 92.14304449999982,
          "velocity": 0.6299212598425197,
          "duration": 0.16414868541666294
        },
        {
          "name": "B1",
          "midi": 35,
          "time": 92.30787999999981,
          "velocity": 0.6299212598425197,
          "duration": 0.3289841854166724
        },
        {
          "name": "A#2",
          "midi": 46,
          "time": 92.63755099999982,
          "velocity": 0.6299212598425197,
          "duration": 0.3289841854166724
        },
        {
          "name": "F#2",
          "midi": 42,
          "time": 93.29689299999983,
          "velocity": 0.6299212598425197,
          "duration": 0.16414868541666294
        },
        {
          "name": "F#2",
          "midi": 42,
          "time": 93.46172849999982,
          "velocity": 0.6299212598425197,
          "duration": 0.16414868541666294
        },
        {
          "name": "F2",
          "midi": 41,
          "time": 93.95623499999982,
          "velocity": 0.6299212598425197,
          "duration": 0.16414868541666294
        },
        {
          "name": "D2",
          "midi": 38,
          "time": 93.95623499999982,
          "velocity": 0.6299212598425197,
          "duration": 0.16414868541666294
        },
        {
          "name": "F2",
          "midi": 41,
          "time": 94.12107049999982,
          "velocity": 0.6299212598425197,
          "duration": 0.16414868541666294
        },
        {
          "name": "D2",
          "midi": 38,
          "time": 94.12107049999982,
          "velocity": 0.6299212598425197,
          "duration": 0.16414868541666294
        },
        {
          "name": "F2",
          "midi": 41,
          "time": 94.45074149999981,
          "velocity": 0.6299212598425197,
          "duration": 0.16414868541666294
        },
        {
          "name": "D2",
          "midi": 38,
          "time": 94.45074149999981,
          "velocity": 0.6299212598425197,
          "duration": 0.16414868541666294
        },
        {
          "name": "F2",
          "midi": 41,
          "time": 94.6155769999998,
          "velocity": 0.6299212598425197,
          "duration": 0.16414868541666294
        },
        {
          "name": "D2",
          "midi": 38,
          "time": 94.6155769999998,
          "velocity": 0.6299212598425197,
          "duration": 0.16414868541666294
        },
        {
          "name": "F2",
          "midi": 41,
          "time": 94.9452479999998,
          "velocity": 0.6299212598425197,
          "duration": 0.3289841854166724
        },
        {
          "name": "B1",
          "midi": 35,
          "time": 94.9452479999998,
          "velocity": 0.6299212598425197,
          "duration": 0.3289841854166724
        },
        {
          "name": "F2",
          "midi": 41,
          "time": 95.2749189999998,
          "velocity": 0.6299212598425197,
          "duration": 0.16414868541666294
        },
        {
          "name": "D2",
          "midi": 38,
          "time": 95.2749189999998,
          "velocity": 0.6299212598425197,
          "duration": 0.16414868541666294
        },
        {
          "name": "F2",
          "midi": 41,
          "time": 95.4397544999998,
          "velocity": 0.6299212598425197,
          "duration": 0.16414868541666294
        },
        {
          "name": "B1",
          "midi": 35,
          "time": 95.4397544999998,
          "velocity": 0.6299212598425197,
          "duration": 0.16414868541666294
        },
        {
          "name": "F2",
          "midi": 41,
          "time": 95.9342609999998,
          "velocity": 0.6299212598425197,
          "duration": 0.3289841854166724
        },
        {
          "name": "D2",
          "midi": 38,
          "time": 95.9342609999998,
          "velocity": 0.6299212598425197,
          "duration": 0.3289841854166724
        },
        {
          "name": "F2",
          "midi": 41,
          "time": 96.2639319999998,
          "velocity": 0.6299212598425197,
          "duration": 0.3289841854166724
        },
        {
          "name": "B1",
          "midi": 35,
          "time": 96.2639319999998,
          "velocity": 0.6299212598425197,
          "duration": 0.3289841854166724
        },
        {
          "name": "F2",
          "midi": 41,
          "time": 96.5936029999998,
          "velocity": 0.6299212598425197,
          "duration": 0.16414868541666294
        },
        {
          "name": "D2",
          "midi": 38,
          "time": 96.5936029999998,
          "velocity": 0.6299212598425197,
          "duration": 0.16414868541666294
        },
        {
          "name": "F2",
          "midi": 41,
          "time": 96.7584384999998,
          "velocity": 0.6299212598425197,
          "duration": 0.16414868541666294
        },
        {
          "name": "B1",
          "midi": 35,
          "time": 96.7584384999998,
          "velocity": 0.6299212598425197,
          "duration": 0.16414868541666294
        },
        {
          "name": "F2",
          "midi": 41,
          "time": 97.2529449999998,
          "velocity": 0.6299212598425197,
          "duration": 0.3289841854166724
        },
        {
          "name": "D2",
          "midi": 38,
          "time": 97.2529449999998,
          "velocity": 0.6299212598425197,
          "duration": 0.3289841854166724
        },
        {
          "name": "F2",
          "midi": 41,
          "time": 97.5826159999998,
          "velocity": 0.6299212598425197,
          "duration": 0.3289841854166724
        },
        {
          "name": "D2",
          "midi": 38,
          "time": 97.5826159999998,
          "velocity": 0.6299212598425197,
          "duration": 0.3289841854166724
        },
        {
          "name": "D2",
          "midi": 38,
          "time": 98.0771224999998,
          "velocity": 0.6299212598425197,
          "duration": 0.16414868541666294
        },
        {
          "name": "D3",
          "midi": 50,
          "time": 98.2419579999998,
          "velocity": 0.6299212598425197,
          "duration": 0.21909385208333276
        },
        {
          "name": "B2",
          "midi": 47,
          "time": 98.46173866666646,
          "velocity": 0.6299212598425197,
          "duration": 0.21909385208333276
        },
        {
          "name": "A2",
          "midi": 45,
          "time": 98.68151933333313,
          "velocity": 0.6299212598425197,
          "duration": 0.21909385208333276
        },
        {
          "name": "F2",
          "midi": 41,
          "time": 98.9012999999998,
          "velocity": 0.6299212598425197,
          "duration": 0.3289841854166724
        },
        {
          "name": "D2",
          "midi": 38,
          "time": 98.9012999999998,
          "velocity": 0.6299212598425197,
          "duration": 0.3289841854166724
        }
      ],
      "controlChanges": {
        "7": [
          {
            "number": 7,
            "time": 0,
            "value": 0.8818897637795275
          }
        ],
        "10": [
          {
            "number": 10,
            "time": 0,
            "value": 0.5039370078740157
          }
        ],
        "91": [
          {
            "number": 91,
            "time": 0,
            "value": 0
          }
        ],
        "93": [
          {
            "number": 93,
            "time": 0,
            "value": 0
          }
        ],
        "121": [
          {
            "number": 121,
            "time": 0,
            "value": 0
          }
        ]
      }
    },
    {
      "startTime": 5.274736000000001,
      "duration": 97.25225818541685,
      "length": 97,
      "id": 11,
      "instrumentNumber": 48,
      "instrument": "orchestra kit",
      "instrumentFamily": "drums",
      "channelNumber": 9,
      "isPercussion": true,
      "notes": [
        {
          "name": "E5",
          "midi": 76,
          "time": 5.274736000000001,
          "velocity": 0.6299212598425197,
          "duration": 0.1641486854166665
        },
        {
          "name": "E5",
          "midi": 76,
          "time": 5.4395715000000004,
          "velocity": 0.6299212598425197,
          "duration": 0.1641486854166665
        },
        {
          "name": "E5",
          "midi": 76,
          "time": 5.604407,
          "velocity": 0.6299212598425197,
          "duration": 0.3289841854166671
        },
        {
          "name": "E5",
          "midi": 76,
          "time": 5.934078,
          "velocity": 0.6299212598425197,
          "duration": 0.1641486854166665
        },
        {
          "name": "E5",
          "midi": 76,
          "time": 6.0989135,
          "velocity": 0.6299212598425197,
          "duration": 0.1641486854166665
        },
        {
          "name": "E5",
          "midi": 76,
          "time": 6.263749,
          "velocity": 0.6299212598425197,
          "duration": 0.3289841854166671
        },
        {
          "name": "E5",
          "midi": 76,
          "time": 6.59342,
          "velocity": 0.6299212598425197,
          "duration": 0.3289841854166671
        },
        {
          "name": "E5",
          "midi": 76,
          "time": 7.252762000000001,
          "velocity": 0.6299212598425197,
          "duration": 0.3289841854166671
        },
        {
          "name": "E5",
          "midi": 76,
          "time": 45.164927000000006,
          "velocity": 0.6299212598425197,
          "duration": 0.3289841854166653
        },
        {
          "name": "E5",
          "midi": 76,
          "time": 45.494598,
          "velocity": 0.6299212598425197,
          "duration": 0.3289841854166653
        },
        {
          "name": "E5",
          "midi": 76,
          "time": 46.15394,
          "velocity": 0.6299212598425197,
          "duration": 0.3289841854166653
        },
        {
          "name": "E5",
          "midi": 76,
          "time": 46.6484465,
          "velocity": 0.6299212598425197,
          "duration": 0.3289841854166653
        },
        {
          "name": "E5",
          "midi": 76,
          "time": 47.142953,
          "velocity": 0.6299212598425197,
          "duration": 0.3289841854166653
        },
        {
          "name": "E5",
          "midi": 76,
          "time": 47.802294999999994,
          "velocity": 0.6299212598425197,
          "duration": 0.3289841854166653
        },
        {
          "name": "E5",
          "midi": 76,
          "time": 48.13196599999999,
          "velocity": 0.6299212598425197,
          "duration": 0.3289841854166653
        },
        {
          "name": "E5",
          "midi": 76,
          "time": 48.79130799999999,
          "velocity": 0.6299212598425197,
          "duration": 0.3289841854166653
        },
        {
          "name": "E5",
          "midi": 76,
          "time": 49.28581449999999,
          "velocity": 0.6299212598425197,
          "duration": 0.3289841854166653
        },
        {
          "name": "E5",
          "midi": 76,
          "time": 50.43966299999998,
          "velocity": 0.6299212598425197,
          "duration": 0.3289841854166653
        },
        {
          "name": "E5",
          "midi": 76,
          "time": 50.76933399999998,
          "velocity": 0.6299212598425197,
          "duration": 0.3289841854166653
        },
        {
          "name": "E5",
          "midi": 76,
          "time": 51.428675999999975,
          "velocity": 0.6299212598425197,
          "duration": 0.3289841854166653
        },
        {
          "name": "E5",
          "midi": 76,
          "time": 51.923182499999974,
          "velocity": 0.6299212598425197,
          "duration": 0.3289841854166653
        },
        {
          "name": "E5",
          "midi": 76,
          "time": 52.417688999999974,
          "velocity": 0.6299212598425197,
          "duration": 0.3289841854166653
        },
        {
          "name": "E5",
          "midi": 76,
          "time": 53.07703099999997,
          "velocity": 0.6299212598425197,
          "duration": 0.3289841854166653
        },
        {
          "name": "E5",
          "midi": 76,
          "time": 53.40670199999997,
          "velocity": 0.6299212598425197,
          "duration": 0.3289841854166653
        },
        {
          "name": "E5",
          "midi": 76,
          "time": 54.06604399999996,
          "velocity": 0.6299212598425197,
          "duration": 0.3289841854166653
        },
        {
          "name": "E5",
          "midi": 76,
          "time": 54.56055049999996,
          "velocity": 0.6299212598425197,
          "duration": 0.3289841854166653
        },
        {
          "name": "E5",
          "midi": 76,
          "time": 55.05505699999996,
          "velocity": 0.6299212598425197,
          "duration": 0.3289841854166653
        },
        {
          "name": "E5",
          "midi": 76,
          "time": 55.71439899999996,
          "velocity": 0.6299212598425197,
          "duration": 0.3289841854166653
        },
        {
          "name": "E5",
          "midi": 76,
          "time": 56.044069999999955,
          "velocity": 0.6299212598425197,
          "duration": 0.3289841854166653
        },
        {
          "name": "E5",
          "midi": 76,
          "time": 56.70341199999995,
          "velocity": 0.6299212598425197,
          "duration": 0.3289841854166653
        },
        {
          "name": "E5",
          "midi": 76,
          "time": 57.19791849999995,
          "velocity": 0.6299212598425197,
          "duration": 0.3289841854166653
        },
        {
          "name": "E5",
          "midi": 76,
          "time": 57.69242499999995,
          "velocity": 0.6299212598425197,
          "duration": 0.3289841854166653
        },
        {
          "name": "E5",
          "midi": 76,
          "time": 58.351766999999946,
          "velocity": 0.6299212598425197,
          "duration": 0.3289841854166653
        },
        {
          "name": "E5",
          "midi": 76,
          "time": 58.68143799999994,
          "velocity": 0.6299212598425197,
          "duration": 0.3289841854166653
        },
        {
          "name": "E5",
          "midi": 76,
          "time": 59.34077999999994,
          "velocity": 0.6299212598425197,
          "duration": 0.3289841854166653
        },
        {
          "name": "E5",
          "midi": 76,
          "time": 59.83528649999994,
          "velocity": 0.6299212598425197,
          "duration": 0.3289841854166653
        },
        {
          "name": "E5",
          "midi": 76,
          "time": 60.32979299999994,
          "velocity": 0.6299212598425197,
          "duration": 0.3289841854166653
        },
        {
          "name": "E5",
          "midi": 76,
          "time": 60.98913499999993,
          "velocity": 0.6299212598425197,
          "duration": 0.3289841854166653
        },
        {
          "name": "E5",
          "midi": 76,
          "time": 61.31880599999993,
          "velocity": 0.6299212598425197,
          "duration": 0.3289841854166653
        },
        {
          "name": "E5",
          "midi": 76,
          "time": 61.978147999999926,
          "velocity": 0.6299212598425197,
          "duration": 0.3289841854166653
        },
        {
          "name": "E5",
          "midi": 76,
          "time": 62.472654499999926,
          "velocity": 0.6299212598425197,
          "duration": 0.3289841854166653
        },
        {
          "name": "E5",
          "midi": 76,
          "time": 62.967160999999926,
          "velocity": 0.6299212598425197,
          "duration": 0.3289841854166653
        },
        {
          "name": "E5",
          "midi": 76,
          "time": 63.62650299999992,
          "velocity": 0.6299212598425197,
          "duration": 0.3289841854166653
        },
        {
          "name": "E5",
          "midi": 76,
          "time": 64.28584499999992,
          "velocity": 0.6299212598425197,
          "duration": 0.3289841854166724
        },
        {
          "name": "E5",
          "midi": 76,
          "time": 64.94518699999993,
          "velocity": 0.6299212598425197,
          "duration": 0.3289841854166724
        },
        {
          "name": "E5",
          "midi": 76,
          "time": 65.60452899999994,
          "velocity": 0.6299212598425197,
          "duration": 0.3289841854166724
        },
        {
          "name": "E5",
          "midi": 76,
          "time": 66.26387099999995,
          "velocity": 0.6299212598425197,
          "duration": 0.3289841854166724
        },
        {
          "name": "E5",
          "midi": 76,
          "time": 66.59354199999996,
          "velocity": 0.6299212598425197,
          "duration": 0.3289841854166724
        },
        {
          "name": "E5",
          "midi": 76,
          "time": 67.25288399999997,
          "velocity": 0.6299212598425197,
          "duration": 0.3289841854166724
        },
        {
          "name": "E5",
          "midi": 76,
          "time": 67.74739049999997,
          "velocity": 0.6299212598425197,
          "duration": 0.3289841854166724
        },
        {
          "name": "E5",
          "midi": 76,
          "time": 68.24189699999997,
          "velocity": 0.6299212598425197,
          "duration": 0.3289841854166724
        },
        {
          "name": "E5",
          "midi": 76,
          "time": 68.90123899999998,
          "velocity": 0.6299212598425197,
          "duration": 0.3289841854166724
        },
        {
          "name": "E5",
          "midi": 76,
          "time": 69.23090999999998,
          "velocity": 0.6299212598425197,
          "duration": 0.3289841854166724
        },
        {
          "name": "E5",
          "midi": 76,
          "time": 69.89025199999999,
          "velocity": 0.6299212598425197,
          "duration": 0.3289841854166724
        },
        {
          "name": "E5",
          "midi": 76,
          "time": 70.38475849999999,
          "velocity": 0.6299212598425197,
          "duration": 0.3289841854166724
        },
        {
          "name": "E5",
          "midi": 76,
          "time": 71.538607,
          "velocity": 0.6299212598425197,
          "duration": 0.3289841854166724
        },
        {
          "name": "E5",
          "midi": 76,
          "time": 71.868278,
          "velocity": 0.6299212598425197,
          "duration": 0.3289841854166724
        },
        {
          "name": "E5",
          "midi": 76,
          "time": 72.52762000000001,
          "velocity": 0.6299212598425197,
          "duration": 0.3289841854166724
        },
        {
          "name": "E5",
          "midi": 76,
          "time": 73.02212650000001,
          "velocity": 0.6299212598425197,
          "duration": 0.3289841854166724
        },
        {
          "name": "E5",
          "midi": 76,
          "time": 73.51663300000001,
          "velocity": 0.6299212598425197,
          "duration": 0.3289841854166724
        },
        {
          "name": "E5",
          "midi": 76,
          "time": 74.17597500000002,
          "velocity": 0.6299212598425197,
          "duration": 0.3289841854166724
        },
        {
          "name": "E5",
          "midi": 76,
          "time": 74.50564600000003,
          "velocity": 0.6299212598425197,
          "duration": 0.3289841854166724
        },
        {
          "name": "E5",
          "midi": 76,
          "time": 75.16498800000004,
          "velocity": 0.6299212598425197,
          "duration": 0.3289841854166724
        },
        {
          "name": "E5",
          "midi": 76,
          "time": 75.65949450000004,
          "velocity": 0.6299212598425197,
          "duration": 0.3289841854166724
        },
        {
          "name": "E5",
          "midi": 76,
          "time": 76.15400100000004,
          "velocity": 0.6299212598425197,
          "duration": 0.3289841854166724
        },
        {
          "name": "E5",
          "midi": 76,
          "time": 76.81334300000005,
          "velocity": 0.6299212598425197,
          "duration": 0.3289841854166724
        },
        {
          "name": "E5",
          "midi": 76,
          "time": 77.14301400000005,
          "velocity": 0.6299212598425197,
          "duration": 0.3289841854166724
        },
        {
          "name": "E5",
          "midi": 76,
          "time": 77.80235600000006,
          "velocity": 0.6299212598425197,
          "duration": 0.3289841854166724
        },
        {
          "name": "E5",
          "midi": 76,
          "time": 78.29686250000006,
          "velocity": 0.6299212598425197,
          "duration": 0.3289841854166724
        },
        {
          "name": "E5",
          "midi": 76,
          "time": 78.79136900000006,
          "velocity": 0.6299212598425197,
          "duration": 0.3289841854166724
        },
        {
          "name": "E5",
          "midi": 76,
          "time": 79.12104000000006,
          "velocity": 0.6299212598425197,
          "duration": 0.3289841854166724
        },
        {
          "name": "E5",
          "midi": 76,
          "time": 79.45071100000007,
          "velocity": 0.6299212598425197,
          "duration": 0.3289841854166724
        },
        {
          "name": "E5",
          "midi": 76,
          "time": 79.78038200000007,
          "velocity": 0.6299212598425197,
          "duration": 0.3289841854166724
        },
        {
          "name": "E5",
          "midi": 76,
          "time": 80.11005300000008,
          "velocity": 0.6299212598425197,
          "duration": 0.3289841854166724
        },
        {
          "name": "E5",
          "midi": 76,
          "time": 80.76939500000009,
          "velocity": 0.6299212598425197,
          "duration": 0.3289841854166724
        },
        {
          "name": "E5",
          "midi": 76,
          "time": 81.4287370000001,
          "velocity": 0.6299212598425197,
          "duration": 0.3289841854166724
        },
        {
          "name": "E5",
          "midi": 76,
          "time": 82.0880790000001,
          "velocity": 0.6299212598425197,
          "duration": 0.3289841854166724
        },
        {
          "name": "E5",
          "midi": 76,
          "time": 82.41775000000011,
          "velocity": 0.6299212598425197,
          "duration": 0.3289841854166724
        },
        {
          "name": "E5",
          "midi": 76,
          "time": 83.07709200000012,
          "velocity": 0.6299212598425197,
          "duration": 0.3289841854166724
        },
        {
          "name": "E5",
          "midi": 76,
          "time": 83.57159850000012,
          "velocity": 0.6299212598425197,
          "duration": 0.3289841854166724
        },
        {
          "name": "E5",
          "midi": 76,
          "time": 84.06610500000012,
          "velocity": 0.6299212598425197,
          "duration": 0.3289841854166724
        },
        {
          "name": "E5",
          "midi": 76,
          "time": 84.72544700000013,
          "velocity": 0.6299212598425197,
          "duration": 0.3289841854166724
        },
        {
          "name": "E5",
          "midi": 76,
          "time": 85.05511800000014,
          "velocity": 0.6299212598425197,
          "duration": 0.3289841854166724
        },
        {
          "name": "E5",
          "midi": 76,
          "time": 85.71446000000014,
          "velocity": 0.6299212598425197,
          "duration": 0.3289841854166724
        },
        {
          "name": "E5",
          "midi": 76,
          "time": 86.37380200000015,
          "velocity": 0.6299212598425197,
          "duration": 0.3289841854166724
        },
        {
          "name": "E5",
          "midi": 76,
          "time": 87.36281500000015,
          "velocity": 0.6299212598425197,
          "duration": 0.3289841854166724
        },
        {
          "name": "E5",
          "midi": 76,
          "time": 87.69248600000016,
          "velocity": 0.6299212598425197,
          "duration": 0.3289841854166724
        },
        {
          "name": "E5",
          "midi": 76,
          "time": 88.35182800000017,
          "velocity": 0.6299212598425197,
          "duration": 0.3289841854166724
        },
        {
          "name": "E5",
          "midi": 76,
          "time": 88.84633450000017,
          "velocity": 0.6299212598425197,
          "duration": 0.3289841854166724
        },
        {
          "name": "E5",
          "midi": 76,
          "time": 94.94524800000018,
          "velocity": 0.6299212598425197,
          "duration": 0.16414868541666294
        },
        {
          "name": "E5",
          "midi": 76,
          "time": 95.11008350000017,
          "velocity": 0.6299212598425197,
          "duration": 0.16414868541666294
        },
        {
          "name": "E5",
          "midi": 76,
          "time": 95.27491900000017,
          "velocity": 0.6299212598425197,
          "duration": 0.3289841854166724
        },
        {
          "name": "E5",
          "midi": 76,
          "time": 95.60459000000017,
          "velocity": 0.6299212598425197,
          "duration": 0.16414868541666294
        },
        {
          "name": "E5",
          "midi": 76,
          "time": 95.76942550000017,
          "velocity": 0.6299212598425197,
          "duration": 0.16414868541666294
        },
        {
          "name": "E5",
          "midi": 76,
          "time": 95.93426100000016,
          "velocity": 0.6299212598425197,
          "duration": 0.3289841854166724
        },
        {
          "name": "E5",
          "midi": 76,
          "time": 96.26393200000017,
          "velocity": 0.6299212598425197,
          "duration": 0.3289841854166724
        },
        {
          "name": "E5",
          "midi": 76,
          "time": 96.92327400000018,
          "velocity": 0.6299212598425197,
          "duration": 0.3289841854166724
        }
      ],
      "controlChanges": {
        "7": [
          {
            "number": 7,
            "time": 0,
            "value": 0.8267716535433071
          }
        ],
        "10": [
          {
            "number": 10,
            "time": 0,
            "value": 0.5039370078740157
          }
        ],
        "91": [
          {
            "number": 91,
            "time": 0,
            "value": 0
          }
        ],
        "93": [
          {
            "number": 93,
            "time": 0,
            "value": 0
          }
        ],
        "121": [
          {
            "number": 121,
            "time": 0,
            "value": 0
          }
        ]
      }
    }
  ]
}