<?xml version="1.0" encoding="UTF-8" standalone="no"?>
<svg
   xmlns:dc="http://purl.org/dc/elements/1.1/"
   xmlns:cc="http://creativecommons.org/ns#"
   xmlns:rdf="http://www.w3.org/1999/02/22-rdf-syntax-ns#"
   xmlns:svg="http://www.w3.org/2000/svg"
   xmlns="http://www.w3.org/2000/svg"
   xmlns:xlink="http://www.w3.org/1999/xlink"
   xmlns:sodipodi="http://sodipodi.sourceforge.net/DTD/sodipodi-0.dtd"
   xmlns:inkscape="http://www.inkscape.org/namespaces/inkscape"
   width="126.79902pt"
   height="126.79902pt"
   viewBox="0 0 126.79902 126.79902"
   version="1.1"
   id="svg4136"
   inkscape:version="0.92.3 (2405546, 2018-03-11)"
   sodipodi:docname="logo.svg"
   style="enable-background:new"
   inkscape:export-filename="C:\Users\dell\Pictures\rhre3big.png"
   inkscape:export-xdpi="569.43866"
   inkscape:export-ydpi="569.43866">
  <metadata
     id="metadata4248">
    <rdf:RDF>
      <cc:Work
         rdf:about="">
        <dc:format>image/svg+xml</dc:format>
        <dc:type
           rdf:resource="http://purl.org/dc/dcmitype/StillImage" />
        <dc:title />
      </cc:Work>
    </rdf:RDF>
  </metadata>
  <defs
     id="defs4246">
    <linearGradient
       id="linearGradient1151"
       inkscape:collect="always">
      <stop
         style="stop-color:#82b1ff;stop-opacity:1"
         offset="0"
         id="stop1147" />
      <stop
         style="stop-color:#baecff;stop-opacity:1"
         offset="1"
         id="stop1149" />
    </linearGradient>
    <linearGradient
       inkscape:collect="always"
       xlink:href="#linearGradient1854"
       id="linearGradient4443"
       x1="85.970528"
       y1="6.7267971"
       x2="85.970528"
       y2="53.776558"
       gradientUnits="userSpaceOnUse" />
    <linearGradient
       inkscape:collect="always"
       id="linearGradient1854">
      <stop
         id="stop1852"
         offset="0"
         style="stop-color:#9fc3ff;stop-opacity:1" />
      <stop
         id="stop1850"
         offset="1"
         style="stop-color:#4e8aed;stop-opacity:1" />
    </linearGradient>
    <linearGradient
       inkscape:collect="always"
       xlink:href="#linearGradient1151"
       id="linearGradient1145"
       gradientUnits="userSpaceOnUse"
       x1="85.970528"
       y1="6.7267971"
       x2="85.970528"
       y2="53.776558" />
    <linearGradient
       inkscape:collect="always"
       xlink:href="#linearGradient1854"
       id="linearGradient1150"
       x1="66.05294"
       y1="122.05469"
       x2="66.05294"
       y2="80.421738"
       gradientUnits="userSpaceOnUse"
       gradientTransform="translate(3.5929099,3.4065356)" />
  </defs>
  <sodipodi:namedview
     pagecolor="#ffffff"
     bordercolor="#666666"
     borderopacity="1"
     objecttolerance="10"
     gridtolerance="10"
     guidetolerance="10"
     inkscape:pageopacity="0"
     inkscape:pageshadow="2"
     inkscape:window-width="1920"
     inkscape:window-height="1017"
     id="namedview4244"
     showgrid="false"
     inkscape:zoom="8"
     inkscape:cx="26.635996"
     inkscape:cy="52.166794"
     inkscape:window-x="-8"
     inkscape:window-y="-8"
     inkscape:window-maximized="1"
     inkscape:current-layer="svg4136"
     fit-margin-top="0"
     fit-margin-left="0"
     fit-margin-right="0"
     fit-margin-bottom="0"
     inkscape:object-paths="true"
     inkscape:snap-bbox="true"
     inkscape:bbox-nodes="true"
     showguides="true"
     inkscape:guide-bbox="true"
     inkscape:snap-smooth-nodes="true"
     inkscape:object-nodes="false">
    <sodipodi:guide
       position="15.190509,101.2433"
       orientation="1,0"
       inkscape:locked="false"
       id="guide1664" />
    <sodipodi:guide
       position="112.10589,92.98101"
       orientation="1,0"
       inkscape:locked="false"
       id="guide1666" />
    <sodipodi:guide
       position="92.990741,111.31241"
       orientation="0,1"
       inkscape:locked="false"
       id="guide1668" />
    <sodipodi:guide
       position="92.990741,88.578038"
       orientation="0,1"
       inkscape:locked="false"
       id="guide1670" />
    <sodipodi:guide
       position="81.629523,10.64969"
       orientation="1,0"
       inkscape:locked="false"
       id="guide1672" />
    <sodipodi:guide
       position="116.08297,45.633872"
       orientation="0,1"
       inkscape:locked="false"
       id="guide1674" />
    <sodipodi:guide
       position="14.756135,51.964064"
       orientation="1,0"
       id="guide878"
       inkscape:locked="false" />
  </sodipodi:namedview>
  <g
     inkscape:groupmode="layer"
     id="layer8"
     inkscape:label="Sheet"
     style="display:inline">
    <path
       style="fill:#1453bc;fill-opacity:1;stroke:none;stroke-width:0.75000006px;stroke-linecap:butt;stroke-linejoin:miter;stroke-opacity:1"
       d="M 10.289119,49.471033 H 115.65604 V 84.68885 L 81.202592,119.65872 H 10.289119 Z"
       id="path3197"
       inkscape:connector-curvature="0" />
    <path
       style="color:#000000;font-style:normal;font-variant:normal;font-weight:normal;font-stretch:normal;font-size:medium;line-height:normal;font-family:sans-serif;text-indent:0;text-align:start;text-decoration:none;text-decoration-line:none;text-decoration-style:solid;text-decoration-color:#000000;letter-spacing:normal;word-spacing:normal;text-transform:none;writing-mode:lr-tb;direction:ltr;baseline-shift:baseline;text-anchor:start;white-space:normal;clip-rule:nonzero;display:inline;overflow:visible;visibility:visible;opacity:0.99640288;isolation:auto;mix-blend-mode:normal;color-interpolation:sRGB;color-interpolation-filters:linearRGB;solid-color:#000000;solid-opacity:1;fill:#ffffff;fill-opacity:0.2711111;fill-rule:nonzero;stroke:none;stroke-width:1.41999996;stroke-linecap:round;stroke-linejoin:miter;stroke-miterlimit:4;stroke-dasharray:none;stroke-dashoffset:0;stroke-opacity:1;color-rendering:auto;image-rendering:auto;shape-rendering:auto;text-rendering:auto;enable-background:accumulate"
       d="m 13.336213,46.20027 v 0.708984 69.189456 H 82.782241 L 111.58426,85.729589 V 46.20027 Z m 1.419922,1.419922 H 110.16434 V 85.729589 L 82.867628,114.67878 H 14.756135 Z"
       id="rect4561-9-5"
       inkscape:connector-curvature="0"
       sodipodi:nodetypes="ccccccccccccc" />
    <path
       d="M 115.65604,84.68885 81.202592,119.65872 V 84.674539 Z"
       id="path4198-0"
       inkscape:connector-curvature="0"
       style="display:inline;opacity:1;fill:#0e3c87;fill-opacity:1;stroke:none;stroke-width:0.09375;enable-background:new"
       sodipodi:nodetypes="cccc" />
  </g>
  <g
     inkscape:groupmode="layer"
     id="layer2"
     inkscape:label="Content"
     style="display:inline">
    <path
       style="color:#000000;font-style:normal;font-variant:normal;font-weight:normal;font-stretch:normal;font-size:medium;line-height:normal;font-family:sans-serif;text-indent:0;text-align:start;text-decoration:none;text-decoration-line:none;text-decoration-style:solid;text-decoration-color:#000000;letter-spacing:normal;word-spacing:normal;text-transform:none;writing-mode:lr-tb;direction:ltr;baseline-shift:baseline;text-anchor:start;white-space:normal;clip-rule:nonzero;display:inline;overflow:visible;visibility:visible;opacity:0.32582385;isolation:auto;mix-blend-mode:normal;color-interpolation:sRGB;color-interpolation-filters:linearRGB;solid-color:#000000;solid-opacity:1;fill:#ffffff;fill-opacity:0.27555554;fill-rule:nonzero;stroke:none;stroke-width:0.57359999;stroke-linecap:round;stroke-linejoin:miter;stroke-miterlimit:4;stroke-dasharray:none;stroke-dashoffset:0;stroke-opacity:1;color-rendering:auto;image-rendering:auto;shape-rendering:auto;text-rendering:auto;enable-background:accumulate"
       d="M 54.935376,53.516894 V 114.67878 H 55.50813 V 53.516894 Z m -32.128419,0.01183 v 61.150586 h 0.571288 V 53.52872 Z m 47.780275,-0.0177 v 61.167756 h 0.574219 V 53.511021 Z m -32.12842,0.01183 v 61.155936 h 0.574219 V 53.522855 Z"
       id="rect4568-7"
       inkscape:connector-curvature="0"
       sodipodi:nodetypes="cccccccccccccccccccc" />
    <path
       style="color:#000000;font-style:normal;font-variant:normal;font-weight:normal;font-stretch:normal;font-size:medium;line-height:normal;font-family:sans-serif;text-indent:0;text-align:start;text-decoration:none;text-decoration-line:none;text-decoration-style:solid;text-decoration-color:#000000;letter-spacing:normal;word-spacing:normal;text-transform:none;writing-mode:lr-tb;direction:ltr;baseline-shift:baseline;text-anchor:start;white-space:normal;clip-rule:nonzero;display:inline;overflow:visible;visibility:visible;opacity:0.32582385;isolation:auto;mix-blend-mode:normal;color-interpolation:sRGB;color-interpolation-filters:linearRGB;solid-color:#000000;solid-opacity:1;fill:#ffffff;fill-opacity:0.27555554;fill-rule:nonzero;stroke:none;stroke-width:0.71690983;stroke-linecap:round;stroke-linejoin:miter;stroke-miterlimit:4;stroke-dasharray:none;stroke-dashoffset:0;stroke-opacity:1;color-rendering:auto;image-rendering:auto;shape-rendering:auto;text-rendering:auto;enable-background:accumulate"
       d="m 14.756135,63.882925 v 0.571289 h 95.408205 v -0.571289 z m 0,19.877928 v 0.574222 h 95.408245 v -0.574222 z"
       id="rect4568-2"
       inkscape:connector-curvature="0"
       sodipodi:nodetypes="cccccccccc" />
    <path
       style="color:#000000;font-style:normal;font-variant:normal;font-weight:normal;font-stretch:normal;font-size:medium;line-height:normal;font-family:sans-serif;text-indent:0;text-align:start;text-decoration:none;text-decoration-line:none;text-decoration-style:solid;text-decoration-color:#000000;letter-spacing:normal;word-spacing:normal;text-transform:none;writing-mode:lr-tb;direction:ltr;baseline-shift:baseline;text-anchor:start;white-space:normal;clip-rule:nonzero;display:inline;overflow:visible;visibility:visible;opacity:0.32582385;isolation:auto;mix-blend-mode:normal;color-interpolation:sRGB;color-interpolation-filters:linearRGB;solid-color:#000000;solid-opacity:1;fill:#ffffff;fill-opacity:0.27555554;fill-rule:nonzero;stroke:none;stroke-width:0.57359999;stroke-linecap:round;stroke-linejoin:miter;stroke-miterlimit:4;stroke-dasharray:none;stroke-dashoffset:0;stroke-opacity:1;color-rendering:auto;image-rendering:auto;shape-rendering:auto;text-rendering:auto;enable-background:accumulate"
       d="M 74.473463,53.510366 14.747386,99.440541 14.725411,100.13781 75.408032,53.510366 Z"
       id="rect4568-4"
       inkscape:connector-curvature="0" />
    <path
       style="color:#000000;font-style:normal;font-variant:normal;font-weight:normal;font-stretch:normal;font-size:medium;line-height:normal;font-family:sans-serif;text-indent:0;text-align:start;text-decoration:none;text-decoration-line:none;text-decoration-style:solid;text-decoration-color:#000000;letter-spacing:normal;word-spacing:normal;text-transform:none;writing-mode:lr-tb;direction:ltr;baseline-shift:baseline;text-anchor:start;white-space:normal;clip-rule:nonzero;display:inline;overflow:visible;visibility:visible;opacity:0.32582385;isolation:auto;mix-blend-mode:normal;color-interpolation:sRGB;color-interpolation-filters:linearRGB;solid-color:#000000;solid-opacity:1;fill:#ffffff;fill-opacity:0.27555554;fill-rule:nonzero;stroke:none;stroke-width:0.57359999;stroke-linecap:round;stroke-linejoin:miter;stroke-miterlimit:4;stroke-dasharray:none;stroke-dashoffset:0;stroke-opacity:1;color-rendering:auto;image-rendering:auto;shape-rendering:auto;text-rendering:auto;enable-background:accumulate"
       d="m 18.955882,53.532339 62.24707,47.444821 v -0.71777 L 19.849437,53.532339 Z"
       id="rect4568-4-1-3"
       inkscape:connector-curvature="0" />
    <path
       style="opacity:1;fill:#bfd0ec;stroke:#bfd0ec;stroke-width:0.09375;enable-background:new"
       d="m 31.020336,64.533315 c -0.749756,-0.01025 -1.495118,0.138184 -2.182618,0.481933 -5.099999,2.400002 -6.900098,9.499806 -4.100098,14.299807 1.5,2.900003 4.999806,5.399415 8.299806,3.899415 6.2,-2.800005 7.199414,-12.099221 2.399413,-16.699221 -1.099999,-1.168751 -2.767041,-1.959375 -4.416503,-1.981934 z m 31.625977,0.03662 c -0.630688,0.02373 -1.271191,0.164064 -1.908691,0.445313 -5.5,2.400002 -6.800586,10.200392 -3.600586,14.90039 1.6,2.600003 4.899902,4.698825 7.899902,3.29883 5.2,-2.4 6.900098,-9.499805 4.100098,-14.299806 -1.21875,-2.356249 -3.757739,-4.447558 -6.490723,-4.344727 z M 45.756664,91.578726 c -1.33726,0.01005 -2.674021,0.13008 -4.696289,0.373537 -2.977693,0.358478 -8.13617,3.548678 -11.679199,4.450193 -3.057707,0.778027 -6.038087,-3.083498 -6.038087,-3.083498 v 3.244635 c 0,0 2.88683,3.799857 6.120118,2.976563 3.442994,-0.876705 8.61849,-3.99945 11.455078,-4.343265 4.139403,-0.501728 5.536069,-0.494625 9.682618,-0.08496 2.864639,0.283012 9.152452,3.18648 12.780762,4.026855 4.251654,0.984754 7.161621,-2.575193 7.161621,-2.575193 l 0.04394,-3.244635 c 0,0 -2.820275,3.603548 -6.974121,2.64258 -3.725326,-0.861832 -10.190389,-3.80427 -13.154298,-4.094235 -2.025754,-0.198187 -3.364888,-0.298605 -4.702149,-0.288577 z"
       id="path4184-9"
       inkscape:connector-curvature="0" />
    <path
       inkscape:connector-curvature="0"
       d="M 75.073924,86.469083 C 85.859226,76.27169 107.11742,56.28433 107.11742,56.28433 c 0,0 0.96792,-0.485024 1.98518,-0.427748 1.01726,0.05731 3.03294,2.22027 3.14782,3.205949 0.11482,0.98569 -0.11115,1.574924 -0.49372,2.214433 L 95.748203,74.753931 c 2.145053,-6.105157 13.626557,-14.300842 13.461757,-14.483356 -0.16479,-0.182514 -31.452667,28.983227 -31.452667,28.983227 -4.052735,4.040188 -7.419994,4.351151 -7.419994,4.351151 0,0 0.875729,-2.762452 4.736625,-7.13587 z"
       id="path4182"
       style="display:inline;opacity:0.553;fill:#000000;fill-opacity:0.99107139;stroke:#000000;stroke-width:2.71765304;stroke-miterlimit:4;stroke-dasharray:none;stroke-opacity:1;enable-background:new"
       sodipodi:nodetypes="cczzcczccc" />
    <path
       sodipodi:nodetypes="cczzcczccc"
       style="display:inline;opacity:1;fill:#ffffff;fill-opacity:1;stroke:#000000;stroke-width:2.74950004;stroke-miterlimit:4;stroke-dasharray:none;stroke-opacity:1;paint-order:stroke fill markers;enable-background:new"
       id="path5241-3"
       d="m 74.466526,87.034181 c 9.699994,-9.6 28.824524,-28.422643 28.824524,-28.422643 0,0 0.89168,-0.480411 1.85673,-0.482885 0.96505,-0.0025 2.97811,1.808642 3.13526,2.676023 0.15715,0.867382 -0.0276,1.401321 -0.35803,1.987995 L 94.248034,75.124532 C 95.53253,70.816314 106.22676,63.144041 105.46652,62.03418 104.70628,60.924319 77.141737,89.361264 77.141737,89.361264 c -3.634662,3.791969 -6.804438,4.243689 -6.804438,4.243689 0,0 0.692421,-2.493568 4.129227,-6.570772 z"
       inkscape:connector-curvature="0" />
  </g>
  <g
     inkscape:groupmode="layer"
     id="layer1"
     inkscape:label="Roller"
     style="display:inline">
    <g
       transform="translate(-0.35897949,0.41350926)"
       id="g4445"
       style="display:inline;stroke:none;enable-background:new">
      <path
         sodipodi:nodetypes="ccccc"
         style="opacity:1;fill:url(#linearGradient4443);fill-opacity:1;stroke:none;stroke-width:0.09375"
         inkscape:connector-curvature="0"
         id="path4138-4"
         d="M 6.2584928,6.7267973 H 121.25849 V 53.078658 L 6.2584928,53.121766 Z" />
      <rect
         y="11.020523"
         x="10.075604"
         height="37.911598"
         width="107.41618"
         id="rect4435"
         style="opacity:0.99640288;fill:#000000;fill-opacity:1;stroke:none;stroke-width:3.0999999;stroke-linecap:round;stroke-linejoin:miter;stroke-miterlimit:4;stroke-dasharray:none;stroke-opacity:1" />
    </g>
  </g>
  <g
     inkscape:groupmode="layer"
     id="layer9"
     inkscape:label="Text"
     style="display:inline;opacity:1">
    <path
       inkscape:connector-curvature="0"
       id="path4414-5"
       style="font-style:normal;font-variant:normal;font-weight:bold;font-stretch:normal;font-size:medium;line-height:125%;font-family:Roboto;-inkscape-font-specification:'Roboto Bold';letter-spacing:0px;word-spacing:0px;display:inline;fill:#ffffff;fill-opacity:1;stroke:none;stroke-width:1px;stroke-linecap:butt;stroke-linejoin:miter;stroke-opacity:1;enable-background:new"
       d="m 101.26153,28.400291 h 2.5625 q 1.625,0 2.40625,-0.84375 0.78125,-0.859375 0.78125,-2.375 0,-1.375 -0.78125,-2.203125 -0.78125,-0.828125 -2.26563,-0.828125 -1.28125,0 -2.15625,0.75 -0.875,0.75 -0.875,1.96875 h -4.42187 l -0.03125,-0.09375 q -0.09375,-2.671875 2.046875,-4.40625 2.140625,-1.734375 5.312495,-1.734375 3.53125,0 5.625,1.6875 2.10938,1.6875 2.10938,4.8125 0,1.484375 -0.9375,2.828125 -0.9375,1.328125 -2.57813,2.078125 1.89063,0.671875 2.875,2.0625 1,1.390625 1,3.234375 0,3.125 -2.28125,4.921875 -2.26562,1.78125 -5.8125,1.78125 -3.17187,0 -5.45312,-1.671875 -2.265625,-1.6875 -2.1875,-4.75 l 0.03125,-0.09375 h 4.42187 q 0,1.3125 0.9375,2.171875 0.9375,0.84375 2.375,0.84375 1.57813,0 2.48438,-0.875 0.92187,-0.875 0.92187,-2.375 0,-1.796875 -0.90625,-2.625 -0.89062,-0.84375 -2.64062,-0.84375 h -2.5625 z" />
    <text
       xml:space="preserve"
       style="font-style:normal;font-variant:normal;font-weight:normal;font-stretch:normal;font-size:32.20567703px;line-height:1.25;font-family:Roboto;-inkscape-font-specification:Roboto;letter-spacing:0px;word-spacing:0px;fill:#ffffff;fill-opacity:1;stroke:none;stroke-width:0.37741026"
       x="12.118667"
       y="42.027458"
       id="text5442"
       transform="scale(1.0071191,0.9929312)"><tspan
         sodipodi:role="line"
         id="tspan5440"
         x="12.118667"
         y="42.027458"
         style="font-style:normal;font-variant:normal;font-weight:normal;font-stretch:normal;font-family:Roboto;-inkscape-font-specification:Roboto;fill:#ffffff;fill-opacity:1;stroke-width:0.37741026">RHRE</tspan></text>
  </g>
  <path
     sodipodi:nodetypes="cccccccccccccccccccccccccc"
     inkscape:connector-curvature="0"
     d="M 31.394283,93.357251 H 21.356067 v 6.796709 h 11.780962 v 4.20001 h -17.0092 V 78.979598 H 33.102174 V 83.21447 H 21.356067 v 6.047329 H 31.394283 Z M 32.540614,72.297888 44.786758,92.152673 23.540174,124.09322 h 9.185287 l 16.462297,-24.804876 6.988867,11.332766 h 9.185284 L 53.920397,92.152673 67.096217,72.297888 h -9.101019 l -8.47852,12.746315 -7.896792,-12.746315 z"
     style="font-style:normal;font-variant:normal;font-weight:bold;font-stretch:normal;font-size:medium;line-height:1.25;font-family:Roboto;-inkscape-font-specification:'Roboto Bold';letter-spacing:0px;word-spacing:0px;fill:#ffffff;fill-opacity:1;stroke:url(#linearGradient1150);stroke-width:2.73600006;stroke-miterlimit:4;stroke-dasharray:none;stroke-opacity:1;paint-order:stroke fill markers;enable-background:new"
     id="path1139" />
</svg>
